<?xml version="1.0" standalone="no"?>
<!DOCTYPE svg PUBLIC "-//W3C//DTD SVG 1.1//EN" "http://www.w3.org/Graphics/SVG/1.1/DTD/svg11.dtd" >
<svg xmlns="http://www.w3.org/2000/svg" xmlns:xlink="http://www.w3.org/1999/xlink" version="1.1">
<metadata>
Created by FontForge 20160405 at Wed Oct  2 02:28:30 2019
 By www-data
Misha Panfilov
</metadata>
<defs>
<font id="RFTone-Light" horiz-adv-x="0" >
  <font-face 
    font-family="RFTone-Light"
    font-weight="400"
    font-stretch="normal"
    units-per-em="1000"
    panose-1="0 0 4 0 0 0 0 0 0 0"
    ascent="783"
    descent="-217"
    x-height="502"
    cap-height="700"
    bbox="-736 -226 1243 949"
    underline-thickness="50"
    underline-position="-200"
    unicode-range="U+0020-F408"
  />
<missing-glyph horiz-adv-x="600" 
 />
    <glyph glyph-name="f_b.liga" unicode="fb" horiz-adv-x="981" 
d="M174 715q40 37 105 37h48v-60h-43q-39 0 -63 -25t-24 -73v-92h130v-56h-130v-446h-63v446h-111v56h111v105q0 71 40 108zM806.5 486q54.5 -30 88.5 -90t34 -145t-33.5 -144.5t-88.5 -90t-117 -30.5t-114.5 29t-83.5 86v-101h-55v752h62v-338q32 50 82.5 76t107.5 26
q63 0 117.5 -30zM771 68q42 23 68 70t26 113t-26 113t-68 70t-91 23t-91 -23t-68 -70t-26 -113t26 -113t68 -70t91 -23t91 23z" />
    <glyph glyph-name="f_f.liga" unicode="ff" horiz-adv-x="673" 
d="M513 667q-24 -25 -24 -73v-92h150v-56h-150v-446h-63v446h-229v-446h-63v446h-111v56h111v91q0 71 40 108t105 37h57v-60h-52q-39 0 -63 -25t-24 -73v-78h229v105q0 71 40 108t105 37h76v-60h-71q-39 0 -63 -25z" />
    <glyph glyph-name="f_f_i.liga" unicode="ffi" horiz-adv-x="876" 
d="M466 715q40 37 105 37h48v-60h-43q-39 0 -63 -25t-24 -73v-92h130v-56h-130v-446h-63v446h-229v-446h-63v446h-111v56h111v91q0 71 40 108t105 37h57v-60h-52q-39 0 -63 -25t-24 -73v-78h229v105q0 71 40 108zM794.5 695.5q14.5 -13.5 14.5 -35.5t-14.5 -35.5
t-34.5 -13.5q-21 0 -35.5 13.5t-14.5 35.5t14.5 35.5t35.5 13.5q20 0 34.5 -13.5zM728 502h63v-502h-63v502z" />
    <glyph glyph-name="f_f_l.liga" unicode="ffl" horiz-adv-x="876" 
d="M466 715q40 37 105 37h48v-60h-43q-39 0 -63 -25t-24 -73v-92h130v-56h-130v-446h-63v446h-229v-446h-63v446h-111v56h111v91q0 71 40 108t105 37h57v-60h-52q-39 0 -63 -25t-24 -73v-78h229v105q0 71 40 108zM791 752v-752h-63v752h63z" />
    <glyph glyph-name="f_h.liga" unicode="fh" horiz-adv-x="921" 
d="M174 715q40 37 105 37h48v-60h-43q-39 0 -63 -25t-24 -73v-92h130v-56h-130v-446h-63v446h-111v56h111v105q0 71 40 108zM795 464.5q52 -51.5 52 -151.5v-313h-63v298q0 78 -36.5 118t-96.5 40q-65 0 -108.5 -48t-43.5 -136v-272h-62v752h62v-328q27 43 69.5 67.5
t95.5 24.5q79 0 131 -51.5z" />
    <glyph glyph-name="f_i.liga" unicode="fi" horiz-adv-x="584" 
d="M174 715q40 37 105 37h48v-60h-43q-39 0 -63 -25t-24 -73v-92h130v-56h-130v-446h-63v446h-111v56h111v105q0 71 40 108zM503 695.5q14 -13.5 14 -35.5t-14 -35.5t-35 -13.5t-35 13.5t-14 35.5t14 35.5t35 13.5t35 -13.5zM437 502h62v-502h-62v502z" />
    <glyph glyph-name="f_j.liga" unicode="fj" horiz-adv-x="584" 
d="M174 715q40 37 105 37h48v-60h-43q-39 0 -63 -25t-24 -73v-92h130v-56h-130v-446h-63v446h-111v56h111v105q0 71 40 108zM503 695.5q14 -13.5 14 -35.5t-14 -35.5t-35 -13.5t-35 13.5t-14 35.5t14 35.5t35 13.5t35 -13.5zM437 502h62v-579q0 -61 -29.5 -89t-76.5 -28h-50
v60h44q50 0 50 64v572z" />
    <glyph glyph-name="f_k.liga" unicode="fk" horiz-adv-x="854" 
d="M174 715q40 37 105 37h48v-60h-43q-39 0 -63 -25t-24 -73v-92h130v-56h-130v-446h-63v446h-111v56h111v105q0 71 40 108zM749 0l-250 259v-259h-62v752h62v-467l228 217h82l-241 -227l268 -275h-87z" />
    <glyph glyph-name="f_l.liga" unicode="fl" horiz-adv-x="584" 
d="M174 715q40 37 105 37h48v-60h-43q-39 0 -63 -25t-24 -73v-92h130v-56h-130v-446h-63v446h-111v56h111v105q0 71 40 108zM499 752v-752h-62v752h62z" />
    <glyph glyph-name="f_t.liga" unicode="ft" horiz-adv-x="685" 
d="M489 446v-300q0 -43 23.5 -64.5t62.5 -21.5h67v-60h-75q-63 0 -102 33t-39 104v309h-229v-446h-63v446h-111v56h111v105q0 71 40 108t105 37h53v-60h-48q-39 0 -63 -25t-24 -73v-92h229v150h63v-150h159v-56h-159z" />
    <glyph glyph-name="idieresis_idieresis.liga" unicode="&#xef;&#xef;" horiz-adv-x="606" 
d="M61.5 683q11.5 11 29.5 11q17 0 29 -11t12 -30t-12 -30.5t-29 -11.5q-18 0 -29.5 11.5t-11.5 30.5t11.5 30zM273.5 683q11.5 11 29.5 11q17 0 29 -11t12 -30t-12 -30.5t-29 -11.5q-18 0 -29.5 11.5t-11.5 30.5t11.5 30zM485.5 683q11.5 11 29.5 11q17 0 29 -11t12 -30
t-12 -30.5t-29 -11.5q-18 0 -29.5 11.5t-11.5 30.5t11.5 30zM218 502v-502h-62v502h62zM450 502v-502h-63v502h63z" />
    <glyph glyph-name="uni04570457.liga" unicode="&#x457;&#x457;" horiz-adv-x="606" 
d="M61.5 683q11.5 11 29.5 11q17 0 29 -11t12 -30t-12 -30.5t-29 -11.5q-18 0 -29.5 11.5t-11.5 30.5t11.5 30zM273.5 683q11.5 11 29.5 11q17 0 29 -11t12 -30t-12 -30.5t-29 -11.5q-18 0 -29.5 11.5t-11.5 30.5t11.5 30zM485.5 683q11.5 11 29.5 11q17 0 29 -11t12 -30
t-12 -30.5t-29 -11.5q-18 0 -29.5 11.5t-11.5 30.5t11.5 30zM218 502v-502h-62v502h62zM450 502v-502h-63v502h63z" />
    <glyph glyph-name=".notdef" horiz-adv-x="600" 
 />
    <glyph glyph-name=".null" 
 />
    <glyph glyph-name="nonmarkingreturn" horiz-adv-x="333" 
 />
    <glyph glyph-name="space" unicode=" " horiz-adv-x="213" 
 />
    <glyph glyph-name="exclam" unicode="!" horiz-adv-x="279" 
d="M171 700l-3 -520h-56l-4 520h63zM103.5 75.5q15.5 13.5 36.5 13.5t36 -13.5t15 -37.5t-15 -38t-36 -14t-36.5 14t-15.5 38t15.5 37.5z" />
    <glyph glyph-name="quotedbl" unicode="&#x22;" horiz-adv-x="298" 
d="M244 700v-250h-52v250h52zM106 700v-250h-52v250h52z" />
    <glyph glyph-name="numbersign" unicode="#" horiz-adv-x="656" 
d="M482 444l-41 -179h124l-12 -50h-124l-49 -215h-55l49 215h-155l-49 -215h-55l49 215h-125l12 50h125l40 179h-124l11 50h125l47 206h55l-47 -206h155l47 206h55l-47 -206h124l-11 -50h-124zM427 444h-156l-41 -179h156z" />
    <glyph glyph-name="dollar" unicode="$" horiz-adv-x="510" 
d="M413.5 43.5q-48.5 -46.5 -131.5 -55.5v-90h-52v88q-99 3 -186 59v78h10q83 -77 189 -77q73 0 112.5 33.5t39.5 88.5q0 46 -25 78t-67 52l-104 48q-140 64 -140 189q0 76 48.5 117.5t122.5 46.5v89h52v-89q76 -8 139 -46v-69h-9q-77 56 -158 56q-56 0 -92 -29.5t-36 -78.5
q0 -42 28 -73t71 -51l115 -54q61 -29 91.5 -77t30.5 -108q0 -79 -48.5 -125.5z" />
    <glyph glyph-name="percent" unicode="%" horiz-adv-x="880" 
d="M130.5 391q-39.5 21 -62.5 60t-23 91t23 91t62.5 60t87.5 21t88 -21t63 -60t23 -91t-23 -91t-63 -60t-88 -21t-87.5 21zM675 700l-410 -700h-60l410 700h60zM300 455.5q35 32.5 35 86.5t-35 86t-82 32t-81.5 -32t-34.5 -86t34.5 -86.5t81.5 -32.5t82 32.5zM573.5 7
q-39.5 21 -62.5 60t-23 91t23 91t62.5 60t87.5 21t88 -21t63 -60t23 -91t-23 -91t-63 -60t-88 -21t-87.5 21zM743.5 72q34.5 32 34.5 86t-34.5 86.5t-82.5 32.5q-47 0 -81.5 -32.5t-34.5 -86.5t34.5 -86t81.5 -32q48 0 82.5 32z" />
    <glyph glyph-name="ampersand" unicode="&#x26;" horiz-adv-x="615" 
d="M516 0l-47 78q-68 -92 -186 -92q-67 0 -121 27.5t-85 80t-31 123.5q0 65 26.5 115t71 79.5t97.5 38.5l-134 220v30h375v-56h-289l271 -444q20 74 20 174h60q0 -142 -41 -237l83 -137h-70zM436 132l-162 264q-45 -2 -82.5 -25t-59.5 -63t-22 -91q0 -75 47 -123t127 -48
q101 0 152 86z" />
    <glyph glyph-name="quotesingle" unicode="'" horiz-adv-x="160" 
d="M106 700v-250h-52v250h52z" />
    <glyph glyph-name="parenleft" unicode="(" horiz-adv-x="344" 
d="M121.5 511.5q46.5 101.5 148.5 206.5l40 -35q-86 -96 -127.5 -189.5t-41.5 -207.5t41.5 -207.5t127.5 -189.5l-40 -35q-102 105 -148.5 206.5t-46.5 225.5t46.5 225.5z" />
    <glyph glyph-name="parenright" unicode=")" horiz-adv-x="344" 
d="M222.5 60.5q-46.5 -101.5 -148.5 -206.5l-40 35q87 96 128 189t41 208t-41 208t-128 189l40 35q102 -105 148.5 -206.5t46.5 -225.5t-46.5 -225.5z" />
    <glyph glyph-name="asterisk" unicode="*" horiz-adv-x="442" 
d="M259 536l136 -72l-24 -42l-131 81l5 -154h-48l5 154l-131 -81l-24 42l136 72l-136 73l24 42l131 -82l-5 155h48l-5 -155l131 82l24 -42z" />
    <glyph glyph-name="plus" unicode="+" horiz-adv-x="504" 
d="M435 299h-153v-153h-60v153h-152v59h152v153h60v-153h153v-59z" />
    <glyph glyph-name="comma" unicode="," horiz-adv-x="237" 
d="M162 86l-58 -236h-53l39 236h72z" />
    <glyph glyph-name="hyphen" unicode="-" horiz-adv-x="444" 
d="M355 315v-59h-267v59h267z" />
    <glyph glyph-name="period" unicode="." horiz-adv-x="262" 
d="M95 75.5q15 13.5 36 13.5t36.5 -13.5t15.5 -37.5t-15.5 -38t-36.5 -14t-36 14t-15 38t15 37.5z" />
    <glyph glyph-name="slash" unicode="/" horiz-adv-x="455" 
d="M431 768l-354 -882h-59l354 882h59z" />
    <glyph glyph-name="zero" unicode="0" horiz-adv-x="622" 
d="M100.5 549.5q32.5 82.5 87.5 123.5t123 41t123 -41.5t87.5 -123.5t32.5 -199t-32.5 -199t-87.5 -123.5t-123 -41.5t-123 41t-87.5 123.5t-32.5 199.5t32.5 199.5zM158.5 183q23.5 -68 63.5 -101t89 -33t88.5 33t63 101t23.5 167t-23.5 167t-63 101t-88.5 33t-89 -33
t-63.5 -101t-23.5 -167t23.5 -167z" />
    <glyph glyph-name="one" unicode="1" horiz-adv-x="362" 
d="M253 700v-700h-65v581q-23 -24 -57.5 -37t-77.5 -13v62q59 0 99.5 28.5t49.5 78.5h51z" />
    <glyph glyph-name="two" unicode="2" horiz-adv-x="510" 
d="M458 60v-60h-418v36l249 314q41 52 61 94t20 86q0 59 -32.5 90t-85.5 31q-52 0 -93 -27t-71 -71h-10v78q30 39 77.5 61t101.5 22q78 0 129 -46t51 -132q0 -58 -24.5 -108.5t-73.5 -113.5l-200 -254h319z" />
    <glyph glyph-name="three" unicode="3" horiz-adv-x="499" 
d="M410.5 305.5q33.5 -49.5 33.5 -117.5q0 -92 -61.5 -147t-165.5 -55q-110 0 -178 66v87h12q60 -90 163 -90q70 0 116.5 37.5t46.5 107.5t-47 107.5t-129 37.5h-45v62h41q72 0 112.5 31.5t40.5 91.5q0 57 -35.5 92t-98.5 35q-83 0 -138 -67h-10v76q65 54 150 54
q88 0 143.5 -49.5t55.5 -131.5q0 -54 -26 -95t-78 -61q64 -22 97.5 -71.5z" />
    <glyph glyph-name="four" unicode="4" horiz-adv-x="546" 
d="M509 163h-90v-163h-64v163h-327v46l334 491h57v-477h90v-60zM355 223v366l-248 -366h248z" />
    <glyph glyph-name="five" unicode="5" horiz-adv-x="540" 
d="M374.5 420q47.5 -25 75.5 -75t28 -124q0 -112 -63.5 -173.5t-168.5 -61.5q-109 0 -188 68v81h11q33 -40 77 -63t97 -23q73 0 120 43t47 129q0 83 -44.5 123.5t-110.5 40.5q-43 0 -80 -17.5t-65 -48.5l-33 8l63 373h303v-61h-254l-39 -227q53 33 120 33q57 0 104.5 -25z
" />
    <glyph glyph-name="six" unicode="6" horiz-adv-x="591" 
d="M428 430.5q48 -27.5 77.5 -80.5t29.5 -127q0 -72 -28.5 -126t-78.5 -82.5t-114 -28.5q-66 0 -121.5 33t-90 106.5t-34.5 188.5q0 133 34.5 223t94.5 133.5t137 43.5q78 0 149 -47v-71h-11q-57 55 -135 55q-91 0 -144.5 -76t-59.5 -230q29 53 80.5 83t110.5 30
q56 0 104 -27.5zM387 69q36 20 58 59t22 95t-22 95.5t-58 59.5t-78 20q-41 0 -77 -20t-58 -59.5t-22 -95.5q0 -55 22.5 -94.5t58.5 -59.5t77 -20t77 20z" />
    <glyph glyph-name="seven" unicode="7" horiz-adv-x="491" 
d="M450 700v-35l-312 -665h-72l300 639h-326v61h410z" />
    <glyph glyph-name="eight" unicode="8" horiz-adv-x="577" 
d="M492 301.5q35 -49.5 35 -113.5q0 -57 -28 -103t-82 -72.5t-129 -26.5q-74 0 -128 26.5t-82 72.5t-28 103q0 64 35 113.5t100 72.5q-49 23 -74 64.5t-25 92.5q0 50 24.5 92t70 66.5t107.5 24.5t108 -24.5t70.5 -66t24.5 -92.5t-25 -92.5t-74 -64.5q65 -23 100 -72.5z
M191 616.5q-38 -34.5 -38 -91.5t38 -91.5t97 -34.5t97.5 34.5t38.5 91.5t-38.5 91.5t-97.5 34.5t-97 -34.5zM374.5 67q39.5 18 62.5 51t23 76t-23 76t-62.5 51t-86.5 18t-86 -18t-62 -51t-23 -76t23 -76t62 -51t86 -18t86.5 18z" />
    <glyph glyph-name="nine" unicode="9" horiz-adv-x="591" 
d="M399.5 681q55.5 -33 89.5 -106.5t34 -188.5q0 -134 -34.5 -223.5t-94.5 -133t-137 -43.5q-78 0 -148 47v71h10q57 -55 135 -55q92 0 145.5 76.5t58.5 233.5q-29 -53 -80 -83t-110 -30q-56 0 -104 27t-77.5 80t-29.5 126q0 72 28.5 125t78.5 81.5t114 28.5q66 0 121.5 -33
zM359 326q36 20 58 59t22 94t-22 93.5t-58 58.5t-77 20q-42 0 -78 -20t-58 -58.5t-22 -93.5t22 -94t58.5 -59t77.5 -20t77 20z" />
    <glyph glyph-name="colon" unicode=":" horiz-adv-x="262" 
d="M95 484.5q15 13.5 36 13.5t36.5 -13.5t15.5 -37.5t-15.5 -38t-36.5 -14t-36 14t-15 38t15 37.5zM95 75.5q15 13.5 36 13.5t36.5 -13.5t15.5 -37.5t-15.5 -38t-36.5 -14t-36 14t-15 38t15 37.5z" />
    <glyph glyph-name="semicolon" unicode=";" horiz-adv-x="248" 
d="M85 484.5q15 13.5 36 13.5t36.5 -13.5t15.5 -37.5t-15.5 -38t-36.5 -14t-36 14t-15 38t15 37.5zM162 86l-58 -236h-53l39 236h72z" />
    <glyph glyph-name="less" unicode="&#x3c;" horiz-adv-x="498" 
d="M429 445l-306 -116l306 -116v-63l-365 149v52v7l365 149v-62z" />
    <glyph glyph-name="equal" unicode="=" horiz-adv-x="504" 
d="M435 446v-59h-365v59h365zM435 270v-59h-365v59h365z" />
    <glyph glyph-name="greater" unicode="&#x3e;" horiz-adv-x="498" 
d="M435 358v-52v-7l-365 -149v63l305 116l-305 116v62z" />
    <glyph glyph-name="question" unicode="?" horiz-adv-x="456" 
d="M49 639q30 36 75.5 55.5t96.5 19.5q74 0 126 -42t52 -129q0 -38 -11 -67t-25.5 -49t-45.5 -57l-59 -72q-18 -22 -26 -42.5t-8 -46.5v-33h-56v38q0 43 11.5 68.5t39.5 57.5l66 78q24 28 36.5 56.5t12.5 62.5q0 59 -33 87.5t-87 28.5t-89.5 -24.5t-64.5 -64.5h-11v75z
M159.5 75.5q15.5 13.5 36.5 13.5t36.5 -13.5t15.5 -37.5t-15.5 -38t-36.5 -14t-36.5 14t-15.5 38t15.5 37.5z" />
    <glyph glyph-name="at" unicode="@" horiz-adv-x="986" 
d="M703.5 667.5q100.5 -46.5 164.5 -142t64 -234.5q0 -116 -40.5 -179.5t-114.5 -63.5q-47 0 -77.5 27t-37.5 70q-29 -47 -76.5 -72t-104.5 -25q-59 0 -108 26.5t-78 77.5t-29 121t29 121t77.5 77.5t105.5 26.5q54 0 100 -24t74 -70v80h52v-278q0 -107 76 -107q48 0 77 47
t29 139q0 128 -56.5 215t-146.5 129.5t-190 42.5q-108 0 -198 -51t-142.5 -141.5t-52.5 -204.5t52.5 -204.5t142.5 -141.5t199 -51q101 0 197 43h7v-45q-98 -40 -205 -40q-122 0 -222 55.5t-158 155.5t-58 228t57.5 228t158 155.5t222.5 55.5q110 0 210.5 -46.5zM566 122.5
q37 18.5 59.5 57t22.5 93.5t-22.5 93.5t-59.5 57t-79 18.5t-78.5 -18.5t-59 -57t-22.5 -93.5t22.5 -93.5t59 -57t78.5 -18.5t79 18.5z" />
    <glyph glyph-name="A" unicode="A" horiz-adv-x="681" 
d="M503 198h-327l-80 -198h-70l291 700h46l292 -700h-72zM480 256l-140 349l-141 -349h281z" />
    <glyph glyph-name="B" unicode="B" horiz-adv-x="647" 
d="M554 311.5q39 -46.5 39 -119.5q0 -91 -59.5 -141.5t-177.5 -50.5h-259v700h233q104 0 160.5 -47t56.5 -129q0 -54 -26.5 -93t-82.5 -57q77 -16 116 -62.5zM439 606q-39 34 -117 34h-159v-250h159q77 0 116.5 34.5t39.5 89.5q0 58 -39 92zM524 196q0 136 -175 136h-186
v-272h186q175 0 175 136z" />
    <glyph glyph-name="C" unicode="C" horiz-adv-x="686" 
d="M114 545q47 82 128 125.5t180 43.5q62 0 112 -16.5t93 -49.5v-77h-10q-40 39 -87.5 59t-110.5 20q-79 0 -143.5 -37t-102 -105t-37.5 -158t38 -158t103.5 -105t144.5 -37q123 0 204 90h10v-82q-92 -72 -213 -72q-100 0 -181 43t-128 125.5t-47 195.5t47 195z" />
    <glyph glyph-name="D" unicode="D" horiz-adv-x="719" 
d="M481 659q81 -41 126 -120t45 -189t-45 -189t-126 -120t-188 -41h-196l1 1l-1 699h196q107 0 188 -41zM502 135q81 75 81 215t-81 215t-217 75h-122v-580h122q136 0 217 75z" />
    <glyph glyph-name="E" unicode="E" horiz-adv-x="555" 
d="M502 60v-60h-405v700h389v-60h-323v-236h304v-59h-304v-285h339z" />
    <glyph glyph-name="F" unicode="F" horiz-adv-x="527" 
d="M163 640v-244h281v-60h-281v-336h-66v700h380v-60h-314z" />
    <glyph glyph-name="G" unicode="G" horiz-adv-x="726" 
d="M653 373v-373h-182q-123 0 -213.5 40t-140.5 118.5t-50 191.5q0 112 47.5 194.5t129 126t180.5 43.5q117 0 206 -65v-76h-10q-83 77 -199 77q-80 0 -145 -37t-102.5 -105t-37.5 -158q0 -137 88.5 -211.5t246.5 -74.5h118v249h-193v60h257z" />
    <glyph glyph-name="H" unicode="H" horiz-adv-x="740" 
d="M642 700v-700h-66v344h-413v-344h-66v700h66v-296h413v296h66z" />
    <glyph glyph-name="I" unicode="I" horiz-adv-x="260" 
d="M163 700v-700h-66v700h66z" />
    <glyph glyph-name="J" unicode="J" horiz-adv-x="383" 
d="M40 64h59q55 0 92 33.5t37 110.5v492h66v-501q0 -100 -51.5 -149.5t-137.5 -49.5h-65v64z" />
    <glyph glyph-name="K" unicode="K" horiz-adv-x="616" 
d="M512 0l-349 354v-354h-66v700h66v-307l320 307h85l-338 -324l371 -376h-89z" />
    <glyph glyph-name="L" unicode="L" horiz-adv-x="497" 
d="M460 60v-60h-363v700h66v-640h297z" />
    <glyph glyph-name="M" unicode="M" horiz-adv-x="849" 
d="M751 700v-700h-66v558l-246 -337h-29l-247 335v-556h-66v700h41l287 -395l286 395h40z" />
    <glyph glyph-name="N" unicode="N" horiz-adv-x="751" 
d="M654 700v-700h-48l-443 570v-570h-66v700h48l443 -570v570h66z" />
    <glyph glyph-name="O" unicode="O" horiz-adv-x="852" 
d="M115.5 542.5q48.5 82.5 130.5 127t180 44.5t180 -44.5t130.5 -127t48.5 -192.5t-48.5 -192.5t-130.5 -127t-180 -44.5t-180 44.5t-130.5 127t-48.5 192.5t48.5 192.5zM175 192q39 -68 105 -105t146 -37t146 37t105 105t39 158t-39 158t-105 105t-146 37t-146 -37
t-105 -105t-39 -158t39 -158z" />
    <glyph glyph-name="P" unicode="P" horiz-adv-x="625" 
d="M519.5 646.5q58.5 -53.5 58.5 -147.5q0 -91 -57 -143t-162 -52h-196v-304h-66v700h259q105 0 163.5 -53.5zM468 399q40 36 40 102q0 69 -42 104t-115 35h-188v-277h192q73 0 113 36z" />
    <glyph glyph-name="Q" unicode="Q" horiz-adv-x="852" 
d="M751 185q-34 -73 -95 -122l60 -72l-48 -37l-64 75q-81 -43 -178 -43q-98 0 -180 44.5t-130.5 127t-48.5 192.5t48.5 192.5t130.5 127t180 44.5t180 -44.5t130.5 -127t48.5 -192.5q0 -92 -34 -165zM561 81l-154 181l48 38l157 -186q49 40 76.5 100.5t27.5 135.5
q0 90 -39 158t-105 105t-146 37t-146 -37t-105 -105t-39 -158t39 -158t105 -105t146 -37q74 0 135 31z" />
    <glyph glyph-name="R" unicode="R" horiz-adv-x="638" 
d="M298 320h-135v-320h-66v700h267q103 0 160.5 -50t57.5 -139q0 -90 -56.5 -139.5t-153.5 -49.5l-7 59q71 0 109 32.5t38 96.5q0 62 -38.5 96t-112.5 34h-198v-259h202l6 -59l223 -322h-78z" />
    <glyph glyph-name="S" unicode="S" horiz-adv-x="533" 
d="M44 129h10q88 -81 201 -81q78 0 119 33t41 89q0 45 -24.5 78.5t-65.5 50.5l-126 57q-140 62 -140 191q0 86 57 126.5t147 40.5q101 0 181 -47v-75h-10q-43 32 -84.5 46t-85.5 14q-63 0 -99 -27.5t-36 -78.5q0 -84 108 -133l125 -55q61 -27 91.5 -77t30.5 -111
q0 -91 -61.5 -137.5t-169.5 -46.5q-66 0 -116.5 15.5t-92.5 43.5v84z" />
    <glyph glyph-name="T" unicode="T" horiz-adv-x="555" 
d="M513 640h-202v-640h-66v640h-203v60h471v-60z" />
    <glyph glyph-name="U" unicode="U" horiz-adv-x="703" 
d="M89 700h66v-429q0 -114 53 -168t144 -54q90 0 143 54t53 168v429h66v-436q0 -137 -71 -207.5t-191 -70.5t-191.5 70.5t-71.5 207.5v436z" />
    <glyph glyph-name="V" unicode="V" horiz-adv-x="681" 
d="M649 700l-286 -700h-45l-286 700h72l237 -593l237 593h71z" />
    <glyph glyph-name="W" unicode="W" horiz-adv-x="1013" 
d="M978 700l-252 -700h-50l-169 567l-170 -567h-49l-253 700h73l203 -582l174 582h44l174 -582l203 582h72z" />
    <glyph glyph-name="X" unicode="X" horiz-adv-x="628" 
d="M523 -1l-211 318l-209 -318h-74l244 364l-225 337h76l190 -287l188 287h74l-223 -334l246 -367h-76z" />
    <glyph glyph-name="Y" unicode="Y" horiz-adv-x="636" 
d="M351 319v-319h-66v319l-260 381h79l214 -318l215 318h78z" />
    <glyph glyph-name="Z" unicode="Z" horiz-adv-x="572" 
d="M525 60v-60h-483v33l376 607h-346v60h439v-33l-376 -607h390z" />
    <glyph glyph-name="bracketleft" unicode="[" horiz-adv-x="302" 
d="M158 668v-744h95v-54h-156v853h156v-55h-95z" />
    <glyph glyph-name="backslash" unicode="\" horiz-adv-x="455" 
d="M437 -114h-59l-354 882h59z" />
    <glyph glyph-name="bracketright" unicode="]" horiz-adv-x="302" 
d="M204 723v-853h-156v54h95v744h-95v55h156z" />
    <glyph glyph-name="asciicircum" unicode="^" horiz-adv-x="468" 
d="M355 388l-121 242l-121 -242h-61l162 312h35h5l162 -312h-61z" />
    <glyph glyph-name="underscore" unicode="_" horiz-adv-x="380" 
d="M364 -53v-53h-348v53h348z" />
    <glyph glyph-name="a" unicode="a" horiz-adv-x="531" 
d="M402 469.5q55 -46.5 55 -145.5v-324h-55v55q-27 -33 -70.5 -51t-96.5 -18q-59 0 -102.5 21t-66.5 57.5t-23 82.5q0 70 53 114.5t142 44.5q48 0 89 -14.5t67 -42.5v68q0 71 -38.5 105.5t-100.5 34.5q-36 0 -76 -12t-75 -35h-8v66q40 20 82.5 30t82.5 10q86 0 141 -46.5z
M360 74.5q38 29.5 38 73.5t-38 73t-108 29q-69 0 -107.5 -29.5t-38.5 -72.5q0 -44 38.5 -73.5t107.5 -29.5q70 0 108 29.5z" />
    <glyph glyph-name="b" unicode="b" horiz-adv-x="629" 
d="M454 485.5q55 -30.5 89 -90t34 -144.5t-34 -144.5t-88.5 -90t-116.5 -30.5t-115 29t-83 86v-101h-56v752h63v-338q32 50 82.5 76t107.5 26q62 0 117 -30.5zM419 68q42 23 68 70t26 113t-26 113t-68 70t-91 23t-91 -23t-68 -70t-26 -113t26 -113t68 -70t91 -23t91 23z" />
    <glyph glyph-name="c" unicode="c" horiz-adv-x="513" 
d="M86 390.5q34 60.5 92 93t127 32.5q79 0 141 -43v-68h-7q-30 26 -62 39t-70 13q-51 0 -94.5 -25t-70 -72t-26.5 -109t26.5 -109t71 -72t97.5 -25q78 0 133 54h8v-70q-63 -43 -144 -43q-70 0 -128.5 32.5t-93 92.5t-34.5 140q0 79 34 139.5z" />
    <glyph glyph-name="d" unicode="d" horiz-adv-x="629" 
d="M545 752v-752h-55v101q-31 -57 -84 -86t-114 -29q-62 0 -117 30.5t-89 90t-34 144.5t34 144.5t89 90t117 30.5q57 0 107.5 -26t82.5 -76v338h63zM392 68q42 23 68 70t26 113t-26 113t-68 70t-91 23t-91 -23t-68 -70t-26 -113t26 -113t68 -70t91 -23t91 23z" />
    <glyph glyph-name="e" unicode="e" horiz-adv-x="571" 
d="M519 242h-405q2 -67 30 -111.5t72.5 -65.5t94.5 -21q94 0 168 66h9v-69q-80 -55 -179 -55q-68 0 -126.5 29t-94.5 89t-36 147t35 146.5t92.5 89t123.5 29.5q96 0 157 -60.5t62 -175.5q0 -20 -3 -38zM179.5 417.5q-50.5 -42.5 -62.5 -122.5h343q-4 81 -46.5 123t-112.5 42
q-71 0 -121.5 -42.5z" />
    <glyph glyph-name="f" unicode="f" horiz-adv-x="381" 
d="M221 667q-24 -25 -24 -73v-92h150v-56h-150v-446h-63v446h-111v56h111v105q0 71 40 108t105 37h76v-60h-71q-39 0 -63 -25z" />
    <glyph glyph-name="g" unicode="g" horiz-adv-x="629" 
d="M545 502v-456q0 -85 -34 -142t-92 -84.5t-131 -27.5q-99 0 -184 46v71h8q38 -28 83 -43t92 -15q84 0 139.5 48t55.5 151v47q-32 -49 -82 -74t-108 -25q-62 0 -117 29.5t-89 88t-34 140.5t34 141t89 89t117 30q61 0 114 -29t84 -84v99h55zM392 78q42 23 68 68.5t26 109.5
t-26 109.5t-68 68.5t-91 23t-91 -23t-68 -68.5t-26 -109.5t26 -109.5t68 -68.5t91 -23t91 23z" />
    <glyph glyph-name="h" unicode="h" horiz-adv-x="569" 
d="M443 464.5q52 -51.5 52 -151.5v-313h-63v298q0 79 -36.5 118.5t-97.5 39.5q-64 0 -107.5 -48t-43.5 -136v-272h-63v752h63v-328q26 43 69 67.5t96 24.5q79 0 131 -51.5z" />
    <glyph glyph-name="i" unicode="i" horiz-adv-x="232" 
d="M80.5 695.5q14.5 13.5 35.5 13.5q20 0 34.5 -13.5t14.5 -35.5t-14.5 -35.5t-34.5 -13.5q-21 0 -35.5 13.5t-14.5 35.5t14.5 35.5zM147 502v-502h-63v502h63z" />
    <glyph glyph-name="j" unicode="j" horiz-adv-x="232" 
d="M80.5 695.5q14.5 13.5 35.5 13.5q20 0 34.5 -13.5t14.5 -35.5t-14.5 -35.5t-34.5 -13.5q-21 0 -35.5 13.5t-14.5 35.5t14.5 35.5zM-9 -134h44q49 0 49 64v572h63v-579q0 -61 -29.5 -89t-77.5 -28h-49v60z" />
    <glyph glyph-name="k" unicode="k" horiz-adv-x="502" 
d="M397 0l-250 259v-259h-63v752h63v-467l228 217h82l-241 -227l267 -275h-86z" />
    <glyph glyph-name="l" unicode="l" horiz-adv-x="232" 
d="M147 752v-752h-63v752h63z" />
    <glyph glyph-name="m" unicode="m" horiz-adv-x="866" 
d="M742 467.5q50 -48.5 50 -145.5v-322h-63v312q0 74 -35.5 109t-88.5 35q-57 0 -96 -43.5t-39 -128.5v-284h-63v309q0 75 -35 111t-89 36q-57 0 -96.5 -43.5t-39.5 -128.5v-284h-63v502h56v-83q23 46 64.5 71.5t92.5 25.5q53 0 94.5 -26t60.5 -79q24 49 68.5 77t99.5 28
q72 0 122 -48.5z" />
    <glyph glyph-name="n" unicode="n" horiz-adv-x="569" 
d="M443 464.5q52 -51.5 52 -151.5v-313h-63v298q0 79 -36.5 118.5t-97.5 39.5q-64 0 -107.5 -48t-43.5 -136v-272h-63v502h56v-92q24 50 69.5 78t102.5 28q79 0 131 -51.5z" />
    <glyph glyph-name="o" unicode="o" horiz-adv-x="627" 
d="M87 391q35 60 95 92.5t132 32.5t131.5 -32.5t94.5 -92.5t35 -140t-35 -140t-94.5 -92.5t-131.5 -32.5t-132 32.5t-95 92.5t-35 140t35 140zM142.5 141.5q26.5 -46.5 72 -71.5t99.5 -25t99 25t71.5 71.5t26.5 109.5t-26.5 109.5t-71.5 71.5t-99 25t-99.5 -25t-72 -71.5
t-26.5 -109.5t26.5 -109.5z" />
    <glyph glyph-name="p" unicode="p" horiz-adv-x="629" 
d="M454 485.5q55 -30.5 89 -90t34 -144.5t-34 -144.5t-88.5 -90t-116.5 -30.5q-58 0 -108.5 26t-82.5 76v-282h-63v696h56v-101q30 56 83 85.5t114 29.5q62 0 117 -30.5zM419 68q42 23 68 70t26 113t-26 113t-68 70t-91 23t-91 -23t-68 -70t-26 -113t26 -113t68 -70t91 -23
t91 23z" />
    <glyph glyph-name="q" unicode="q" horiz-adv-x="629" 
d="M545 502v-696h-63v282q-32 -50 -82.5 -76t-107.5 -26q-62 0 -117 30.5t-89 90t-34 144.5t34 144.5t89 90t117 30.5t114.5 -29t83.5 -86v101h55zM392 68q42 23 68 70t26 113t-26 113t-68 70t-91 23t-91 -23t-68 -70t-26 -113t26 -113t68 -70t91 -23t91 23z" />
    <glyph glyph-name="r" unicode="r" horiz-adv-x="384" 
d="M356 502v-59h-75q-65 0 -99.5 -53t-34.5 -142v-248h-63v502h56v-110q20 50 57.5 80t92.5 30h66z" />
    <glyph glyph-name="s" unicode="s" horiz-adv-x="445" 
d="M47 102h9q33 -30 71.5 -43.5t85.5 -13.5q56 0 87 18.5t31 54.5q0 53 -65 84l-112 53q-98 48 -98 139q0 64 47.5 93t114.5 29q85 0 146 -45v-61h-7q-37 26 -68 36.5t-69 10.5q-48 0 -74 -17t-26 -48q0 -26 18.5 -48t53.5 -38l105 -51q98 -48 98 -135q0 -69 -52.5 -101.5
t-129.5 -32.5q-49 0 -92 12.5t-74 34.5v69z" />
    <glyph glyph-name="t" unicode="t" horiz-adv-x="404" 
d="M208 446v-300q0 -43 23.5 -64.5t62.5 -21.5h67v-60h-75q-63 0 -102 33t-39 104v309h-122v56h122v150h63v-150h159v-56h-159z" />
    <glyph glyph-name="u" unicode="u" horiz-adv-x="569" 
d="M485 502v-502h-55v99q-25 -53 -70 -83t-103 -30q-51 0 -92.5 23t-66 70.5t-24.5 116.5v306h63v-296q0 -79 37 -119.5t97 -40.5q41 0 75.5 22.5t55 66t20.5 102.5v265h63z" />
    <glyph glyph-name="v" unicode="v" horiz-adv-x="521" 
d="M494 502l-214 -502h-39l-213 502h69l164 -402l164 402h69z" />
    <glyph glyph-name="w" unicode="w" horiz-adv-x="823" 
d="M790 502l-199 -502h-41l-139 396l-139 -396h-40l-200 502h71l148 -402l142 402h36l143 -403l149 403h69z" />
    <glyph glyph-name="x" unicode="x" horiz-adv-x="512" 
d="M405 0l-151 214l-150 -214h-72l186 260l-176 242h74l139 -195l137 195h72l-173 -241l188 -261h-74z" />
    <glyph glyph-name="y" unicode="y" horiz-adv-x="513" 
d="M484 502l-297 -696h-69l117 274l-210 422h70l173 -355l148 355h68z" />
    <glyph glyph-name="z" unicode="z" horiz-adv-x="457" 
d="M420 56v-56h-384v30l280 416h-254v56h345v-30l-280 -416h293z" />
    <glyph glyph-name="braceleft" unicode="{" horiz-adv-x="335" 
d="M175 333.5q-17 -27.5 -52 -36.5q35 -9 52 -36.5t17 -68.5v-209q0 -32 16.5 -48.5t43.5 -16.5h42v-51h-48q-45 0 -79.5 25.5t-34.5 85.5v205q0 47 -14 69.5t-50 22.5h-8v44h8q36 0 50 22.5t14 69.5v205q0 60 34.5 85.5t79.5 25.5h48v-51h-42q-27 0 -43.5 -16.5
t-16.5 -48.5v-209q0 -41 -17 -68.5z" />
    <glyph glyph-name="bar" unicode="|" horiz-adv-x="296" 
d="M177 -105h-58v857h58v-857z" />
    <glyph glyph-name="braceright" unicode="}" horiz-adv-x="335" 
d="M274 319v-44h-7q-36 0 -50 -22.5t-14 -69.5v-205q0 -60 -34.5 -85.5t-79.5 -25.5h-49v51h42q28 0 44.5 16.5t16.5 48.5v209q0 41 17 68.5t51 36.5q-34 9 -51 36.5t-17 68.5v209q0 32 -16.5 48.5t-44.5 16.5h-42v51h49q45 0 79.5 -25.5t34.5 -85.5v-205q0 -47 14 -69.5
t50 -22.5h7z" />
    <glyph glyph-name="asciitilde" unicode="~" horiz-adv-x="485" 
d="M70 343q44 36 94 36q21 0 39.5 -5.5t41.5 -16.5t41 -16.5t39 -5.5q42 0 86 28h5v-49q-18 -16 -43 -26t-52 -10q-21 0 -39.5 5.5t-41.5 16.5t-41 16.5t-39 5.5q-42 0 -86 -28h-4v49z" />
    <glyph glyph-name="exclamdown" unicode="&#xa1;" horiz-adv-x="279" 
d="M103.5 502q15.5 14 36.5 14t36 -14t15 -38t-15 -37.5t-36 -13.5t-36.5 13.5t-15.5 37.5t15.5 38zM112 322h56l3 -520h-63z" />
    <glyph glyph-name="cent" unicode="&#xa2;" horiz-adv-x="493" 
d="M432 29q-54 -39 -121 -43v-88h-48v90q-59 8 -107 42t-76 91t-28 130t28 130.5t76 91.5t107 41v90h48v-89q64 -4 116 -42v-66h-7q-58 53 -125 53q-48 0 -89.5 -25.5t-66.5 -73t-25 -110.5t25 -110.5t67 -73t92 -25.5q73 0 127 54h7v-67z" />
    <glyph glyph-name="sterling" unicode="&#xa3;" horiz-adv-x="497" 
d="M467 58v-58h-427v58h107v249h-85v56h85v161q0 89 48.5 132.5t124.5 43.5q70 0 138 -42v-67h-10q-38 28 -67.5 38.5t-56.5 10.5q-51 0 -82.5 -29.5t-31.5 -92.5v-155h192v-56h-192v-249h257z" />
    <glyph glyph-name="currency" unicode="&#xa4;" horiz-adv-x="550" 
d="M427 233l73 -74l-34 -34l-73 73q-53 -40 -118 -40q-66 0 -117 40l-74 -73l-34 34l74 74q-41 50 -41 117t41 117l-74 74l34 34l74 -73q51 40 117 40q65 0 118 -40l73 73l34 -34l-73 -74q40 -51 40 -117t-40 -117zM345.5 228q32.5 19 51.5 51.5t19 70.5t-19 70.5
t-51.5 51.5t-70.5 19t-70 -19t-51 -51.5t-19 -70.5t19 -70.5t51 -51.5t70 -19t70.5 19z" />
    <glyph glyph-name="yen" unicode="&#xa5;" horiz-adv-x="595" 
d="M329 323h161v-54h-161v-82h161v-54h-161v-133h-63v133h-161v54h161v82h-161v54h161v18l-241 345h76l197 -289l197 289h75l-241 -345v-18z" />
    <glyph glyph-name="brokenbar" unicode="&#xa6;" horiz-adv-x="296" 
d="M177 406h-58v346h58v-346zM177 -105h-58v346h58v-346z" />
    <glyph glyph-name="section" unicode="&#xa7;" horiz-adv-x="525" 
d="M392 130q42 -46 42 -112q0 -73 -51.5 -113t-127.5 -40q-81 0 -158 51v73h8q75 -68 151 -68q50 0 83 27.5t33 70.5q0 35 -22.5 62t-55.5 42l-108 49q-58 25 -90.5 65.5t-32.5 95.5q0 82 78 119q-50 48 -50 118q0 75 50.5 109.5t129.5 34.5q49 0 86.5 -11t70.5 -29v-67h-8
q-70 51 -147 51q-54 0 -86.5 -23t-32.5 -66q0 -71 94 -112l107 -47q52 -23 80 -65.5t28 -93.5q0 -78 -71 -121zM327 177q10 -4 20 -11q53 27 53 83q0 37 -22 64.5t-56 42.5l-108 49l-22 11q-31 -9 -48.5 -29.5t-17.5 -51.5q0 -69 93 -111z" />
    <glyph glyph-name="copyright" unicode="&#xa9;" horiz-adv-x="860" 
d="M247 33q-83 47 -131.5 130t-48.5 187t48.5 187.5t131.5 130t183 46.5t183 -46.5t131.5 -130t48.5 -187.5t-48.5 -187t-131.5 -130t-183 -47t-183 47zM594.5 65q74.5 42 117.5 117t43 168t-43 168t-117.5 117.5t-164.5 42.5t-164.5 -42.5t-117.5 -117.5t-43 -168t43 -168
t117.5 -117t164.5 -42t164.5 42zM290 454.5q26 44.5 69 68t94 23.5q59 0 105 -30v-52h-6q-43 35 -95 35q-37 0 -69.5 -18t-52.5 -52t-20 -79t20 -79t52.5 -52t70.5 -18q58 0 98 37h6v-53q-44 -31 -106 -31q-52 0 -96 23t-70 67.5t-26 105.5q0 60 26 104.5z" />
    <glyph glyph-name="guillemotleft" unicode="&#xab;" horiz-adv-x="446" 
d="M280 273l124 -173h-70l-122 173l122 173h70zM102 273l124 -173h-70l-122 173l122 173h70z" />
    <glyph glyph-name="logicalnot" unicode="&#xac;" horiz-adv-x="479" 
d="M410 405v-182h-56v123h-284v59h340z" />
    <glyph glyph-name="registered" unicode="&#xae;" horiz-adv-x="612" 
d="M434.5 667q58.5 -33 92 -91t33.5 -131t-33.5 -131t-92 -91t-128.5 -33t-128 33t-92 91t-34 131t34 131t92 91t128 33t128.5 -33zM419.5 247.5q51.5 29.5 81.5 81t30 116.5t-30 116.5t-81.5 81t-113.5 29.5t-113.5 -29.5t-81.5 -81t-30 -116.5t30 -116.5t81.5 -81
t113.5 -29.5t113.5 29.5zM394.5 447q-22.5 -20 -52.5 -22l80 -113h-49l-72 109h-43v-109h-40v266h124q31 0 53 -21.5t22 -54.5q0 -35 -22.5 -55zM258 456h72q19 0 32.5 10.5t13.5 32.5t-13.5 32.5t-33.5 10.5h-71v-86z" />
    <glyph glyph-name="degree" unicode="&#xb0;" horiz-adv-x="432" 
d="M78.5 640q21.5 35 57.5 54t80 19t80.5 -19t58 -54t21.5 -82t-21.5 -82.5t-58 -54.5t-80.5 -19t-80 19t-57.5 54.5t-21.5 82.5t21.5 82zM142 482q30 -29 74 -29t74 29t30 76q0 46 -30 75t-74 29t-74 -29t-30 -75q0 -47 30 -76z" />
    <glyph glyph-name="plusminus" unicode="&#xb1;" horiz-adv-x="504" 
d="M435 411v-59h-153v-112h-60v112h-152v59h152v153h60v-153h153zM70 163h365v-59h-365v59z" />
    <glyph glyph-name="uni00B2" unicode="&#xb2;" horiz-adv-x="307" 
d="M270 460v-52h-240v37l132 158q38 47 38 82q0 25 -16.5 39.5t-43.5 14.5q-49 0 -86 -51h-6v64q46 42 105 42q46 0 76.5 -25.5t30.5 -73.5q0 -30 -14 -60.5t-44 -65.5l-91 -109h159z" />
    <glyph glyph-name="uni00B3" unicode="&#xb3;" horiz-adv-x="298" 
d="M243.5 574q18.5 -26 18.5 -63q0 -51 -34.5 -81t-95.5 -30q-66 0 -106 34v61h6q16 -22 40.5 -34t53.5 -12q36 0 57.5 18t21.5 50q0 33 -23.5 49.5t-63.5 16.5h-28v47h25q36 0 56 14.5t20 43.5q0 27 -17 42t-48 15q-46 0 -79 -32h-7v53q44 28 94 28q52 0 83 -27t31 -71
q0 -30 -15 -52t-44 -33q36 -11 54.5 -37z" />
    <glyph glyph-name="paragraph" unicode="&#xb6;" horiz-adv-x="476" 
d="M379 700v-805h-59v419h-48q-108 0 -166 51.5t-58 141.5t58 141.5t166 51.5h107z" />
    <glyph glyph-name="periodcentered" unicode="&#xb7;" horiz-adv-x="262" 
d="M95 344q15 14 36 14t36.5 -14t15.5 -38t-15.5 -38t-36.5 -14t-36 14t-15 38t15 38z" />
    <glyph glyph-name="uni00B9" unicode="&#xb9;" horiz-adv-x="242" 
d="M168 786v-378h-59v293q-27 -22 -73 -22v54q32 0 56 13.5t31 39.5h45z" />
    <glyph glyph-name="guillemotright" unicode="&#xbb;" horiz-adv-x="446" 
d="M412 273l-122 -173h-70l124 173l-124 173h70zM234 273l-122 -173h-70l124 173l-124 173h70z" />
    <glyph glyph-name="onequarter" unicode="&#xbc;" horiz-adv-x="770" 
d="M168 700v-378h-59v293q-27 -22 -73 -22v54q32 0 56 13.5t31 39.5h45zM662 700l-514 -700h-74l514 700h74zM740 82h-45v-82h-59v82h-171v42l175 254h55v-246h45v-50zM638 132v166l-114 -166h114z" />
    <glyph glyph-name="onehalf" unicode="&#xbd;" horiz-adv-x="800" 
d="M168 700v-378h-59v293q-27 -22 -73 -22v54q32 0 56 13.5t31 39.5h45zM662 700l-514 -700h-74l514 700h74zM763 52v-52h-240v37l132 158q38 47 38 82q0 25 -16.5 39.5t-43.5 14.5q-49 0 -86 -51h-6v64q46 42 105 42q46 0 76.5 -25.5t30.5 -73.5q0 -30 -14 -60.5t-44 -65.5
l-91 -109h159z" />
    <glyph glyph-name="threequarters" unicode="&#xbe;" horiz-adv-x="827" 
d="M243.5 488q18.5 -26 18.5 -63q0 -51 -34.5 -81t-95.5 -30q-66 0 -106 34v61h6q16 -22 40.5 -34t53.5 -12q36 0 57.5 18t21.5 50q0 33 -23.5 49.5t-63.5 16.5h-28v47h25q36 0 56 14.5t20 43.5q0 27 -17 42t-48 15q-46 0 -79 -32h-7v53q44 28 94 28q52 0 83 -27t31 -71
q0 -30 -15 -52t-44 -33q36 -11 54.5 -37zM718 700l-514 -700h-74l514 700h74zM797 82h-45v-82h-59v82h-171v42l175 254h55v-246h45v-50zM695 132v166l-114 -166h114z" />
    <glyph glyph-name="questiondown" unicode="&#xbf;" horiz-adv-x="456" 
d="M296.5 426.5q-15.5 -13.5 -36.5 -13.5t-36.5 13.5t-15.5 37.5t15.5 38t36.5 14t36.5 -14t15.5 -38t-15.5 -37.5zM407 -137q-30 -36 -75 -55.5t-96 -19.5q-75 0 -127 41.5t-52 129.5q0 38 11 67t25.5 49t45.5 57l60 72q18 22 25.5 42.5t7.5 46.5v33h56v-38
q0 -42 -11.5 -68t-38.5 -58l-66 -78q-49 -56 -49 -119q0 -59 32.5 -87.5t86.5 -28.5t90 24.5t65 64.5h10v-75z" />
    <glyph glyph-name="Agrave" unicode="&#xc0;" horiz-adv-x="681" 
d="M503 198h-327l-80 -198h-70l291 700h46l292 -700h-72zM480 256l-140 349l-141 -349h281zM216 897h70l78 -135h-53z" />
    <glyph glyph-name="Aacute" unicode="&#xc1;" horiz-adv-x="681" 
d="M503 198h-327l-80 -198h-70l291 700h46l292 -700h-72zM480 256l-140 349l-141 -349h281zM322 762l79 135h69l-94 -135h-54z" />
    <glyph glyph-name="Acircumflex" unicode="&#xc2;" horiz-adv-x="681" 
d="M503 198h-327l-80 -198h-70l291 700h46l292 -700h-72zM480 256l-140 349l-141 -349h281zM416 765l-76 72l-77 -72h-58l113 122h44l113 -122h-59z" />
    <glyph glyph-name="Atilde" unicode="&#xc3;" horiz-adv-x="681" 
d="M503 198h-327l-80 -198h-70l291 700h46l292 -700h-72zM480 256l-140 349l-141 -349h281zM484 877q-1 -51 -24.5 -77t-57.5 -26q-22 0 -39 8.5t-30.5 18.5t-18.5 14q-18 14 -34 14q-35 0 -39 -48h-44q1 50 24.5 76t57.5 26q22 0 38 -8t29.5 -18.5t19.5 -14.5
q19 -13 35 -13q34 0 38 48h45z" />
    <glyph glyph-name="Adieresis" unicode="&#xc4;" horiz-adv-x="681" 
d="M503 198h-327l-80 -198h-70l291 700h46l292 -700h-72zM480 256l-140 349l-141 -349h281zM208.5 855.5q12.5 11.5 30.5 11.5q19 0 31.5 -11.5t12.5 -31.5q0 -19 -12.5 -30.5t-31.5 -11.5q-18 0 -30.5 11.5t-12.5 30.5q0 20 12.5 31.5zM409.5 855.5q12.5 11.5 30.5 11.5
q19 0 31.5 -11.5t12.5 -31.5q0 -19 -12.5 -30.5t-31.5 -11.5q-18 0 -30.5 11.5t-12.5 30.5q0 20 12.5 31.5z" />
    <glyph glyph-name="Aring" unicode="&#xc5;" horiz-adv-x="681" 
d="M503 198h-327l-80 -198h-70l291 700h46l292 -700h-72zM480 256l-140 349l-141 -349h281zM407 900q28 -23 28 -64t-28 -63.5t-67 -22.5q-40 0 -67.5 22.5t-27.5 63.5t27.5 64t67.5 23q39 0 67 -23zM377 802q15 13 15 34t-15 35t-37 14t-37 -14t-15 -35t15 -34t37 -13
t37 13z" />
    <glyph glyph-name="AE" unicode="&#xc6;" horiz-adv-x="913" 
d="M859 60v-60h-404v198h-255l-115 -198h-77l411 700h424v-60h-322v-236h304v-59h-304v-285h338zM455 256v382l-222 -382h222z" />
    <glyph glyph-name="Ccedilla" unicode="&#xc7;" horiz-adv-x="686" 
d="M636 58q-83 -64 -187 -71q35 -46 35 -92q0 -44 -28.5 -68t-69.5 -24q-23 0 -59 11v43q27 -8 46 -8q25 0 41 14.5t16 41.5q0 36 -31 82q-94 5 -169.5 49.5t-119 125t-43.5 188.5q0 113 47 195t128 125.5t180 43.5q62 0 112 -16.5t93 -49.5v-77h-10q-40 39 -87.5 59
t-110.5 20q-79 0 -143.5 -37t-102 -105t-37.5 -158t38 -158t103.5 -105t144.5 -37q123 0 204 90h10v-82z" />
    <glyph glyph-name="Egrave" unicode="&#xc8;" horiz-adv-x="555" 
d="M502 60v-60h-405v700h389v-60h-323v-236h304v-59h-304v-285h339zM195 897h70l78 -135h-53z" />
    <glyph glyph-name="Eacute" unicode="&#xc9;" horiz-adv-x="555" 
d="M502 60v-60h-405v700h389v-60h-323v-236h304v-59h-304v-285h339zM246 762l79 135h69l-94 -135h-54z" />
    <glyph glyph-name="Ecircumflex" unicode="&#xca;" horiz-adv-x="555" 
d="M502 60v-60h-405v700h389v-60h-323v-236h304v-59h-304v-285h339zM370 765l-76 72l-77 -72h-58l113 122h44l113 -122h-59z" />
    <glyph glyph-name="Edieresis" unicode="&#xcb;" horiz-adv-x="555" 
d="M502 60v-60h-405v700h389v-60h-323v-236h304v-59h-304v-285h339zM162.5 855.5q12.5 11.5 30.5 11.5q19 0 31.5 -11.5t12.5 -31.5q0 -19 -12.5 -30.5t-31.5 -11.5q-18 0 -30.5 11.5t-12.5 30.5q0 20 12.5 31.5zM363.5 855.5q12.5 11.5 30.5 11.5q19 0 31.5 -11.5
t12.5 -31.5q0 -19 -12.5 -30.5t-31.5 -11.5q-18 0 -30.5 11.5t-12.5 30.5q0 20 12.5 31.5z" />
    <glyph glyph-name="Igrave" unicode="&#xcc;" horiz-adv-x="260" 
d="M163 700v-700h-66v700h66zM18 897h70l78 -135h-53z" />
    <glyph glyph-name="Iacute" unicode="&#xcd;" horiz-adv-x="260" 
d="M163 700v-700h-66v700h66zM94 762l79 135h69l-94 -135h-54z" />
    <glyph glyph-name="Icircumflex" unicode="&#xce;" horiz-adv-x="260" 
d="M163 700v-700h-66v700h66zM206 765l-76 72l-77 -72h-58l113 122h44l113 -122h-59z" />
    <glyph glyph-name="Idieresis" unicode="&#xcf;" horiz-adv-x="260" 
d="M16.5 855.5q12.5 11.5 30.5 11.5q19 0 31.5 -11.5t12.5 -30.5q0 -20 -12.5 -31.5t-31.5 -11.5q-18 0 -30.5 11.5t-12.5 31.5q0 19 12.5 30.5zM182.5 855.5q12.5 11.5 30.5 11.5t30.5 -11.5t12.5 -30.5t-12.5 -30.5t-30.5 -11.5t-30.5 11.5t-12.5 30.5t12.5 30.5zM163 700
v-700h-66v700h66z" />
    <glyph glyph-name="Eth" unicode="&#xd0;" horiz-adv-x="742" 
d="M504 659q81 -41 126 -120t45 -189t-45 -189t-126 -120t-188 -41h-196l1 2v329h-91v60h90v309h196q107 0 188 -41zM525.5 135q80.5 75 80.5 215t-80.5 215t-216.5 75h-123v-249h157v-60h-157v-271h123q136 0 216.5 75z" />
    <glyph glyph-name="Ntilde" unicode="&#xd1;" horiz-adv-x="751" 
d="M654 700v-700h-48l-443 570v-570h-66v700h48l443 -570v570h66zM519 877q-1 -51 -24.5 -77t-57.5 -26q-22 0 -39 8.5t-30.5 18.5t-18.5 14q-18 14 -34 14q-35 0 -39 -48h-44q1 50 24.5 76t57.5 26q22 0 38 -8t29.5 -18.5t19.5 -14.5q19 -13 35 -13q34 0 38 48h45z" />
    <glyph glyph-name="Ograve" unicode="&#xd2;" horiz-adv-x="852" 
d="M115.5 542.5q48.5 82.5 130.5 127t180 44.5t180 -44.5t130.5 -127t48.5 -192.5t-48.5 -192.5t-130.5 -127t-180 -44.5t-180 44.5t-130.5 127t-48.5 192.5t48.5 192.5zM175 192q39 -68 105 -105t146 -37t146 37t105 105t39 158t-39 158t-105 105t-146 37t-146 -37
t-105 -105t-39 -158t39 -158zM326 897h70l78 -135h-53z" />
    <glyph glyph-name="Oacute" unicode="&#xd3;" horiz-adv-x="852" 
d="M115.5 542.5q48.5 82.5 130.5 127t180 44.5t180 -44.5t130.5 -127t48.5 -192.5t-48.5 -192.5t-130.5 -127t-180 -44.5t-180 44.5t-130.5 127t-48.5 192.5t48.5 192.5zM175 192q39 -68 105 -105t146 -37t146 37t105 105t39 158t-39 158t-105 105t-146 37t-146 -37
t-105 -105t-39 -158t39 -158zM377 762l79 135h69l-94 -135h-54z" />
    <glyph glyph-name="Ocircumflex" unicode="&#xd4;" horiz-adv-x="852" 
d="M115.5 542.5q48.5 82.5 130.5 127t180 44.5t180 -44.5t130.5 -127t48.5 -192.5t-48.5 -192.5t-130.5 -127t-180 -44.5t-180 44.5t-130.5 127t-48.5 192.5t48.5 192.5zM175 192q39 -68 105 -105t146 -37t146 37t105 105t39 158t-39 158t-105 105t-146 37t-146 -37
t-105 -105t-39 -158t39 -158zM502 765l-76 72l-77 -72h-58l113 122h44l113 -122h-59z" />
    <glyph glyph-name="Otilde" unicode="&#xd5;" horiz-adv-x="852" 
d="M115.5 542.5q48.5 82.5 130.5 127t180 44.5t180 -44.5t130.5 -127t48.5 -192.5t-48.5 -192.5t-130.5 -127t-180 -44.5t-180 44.5t-130.5 127t-48.5 192.5t48.5 192.5zM175 192q39 -68 105 -105t146 -37t146 37t105 105t39 158t-39 158t-105 105t-146 37t-146 -37
t-105 -105t-39 -158t39 -158zM569 877q-1 -51 -24.5 -77t-57.5 -26q-22 0 -39 8.5t-30.5 18.5t-18.5 14q-18 14 -34 14q-35 0 -39 -48h-44q1 50 24.5 76t57.5 26q22 0 38 -8t29.5 -18.5t19.5 -14.5q19 -13 35 -13q34 0 38 48h45z" />
    <glyph glyph-name="Odieresis" unicode="&#xd6;" horiz-adv-x="852" 
d="M115.5 542.5q48.5 82.5 130.5 127t180 44.5t180 -44.5t130.5 -127t48.5 -192.5t-48.5 -192.5t-130.5 -127t-180 -44.5t-180 44.5t-130.5 127t-48.5 192.5t48.5 192.5zM175 192q39 -68 105 -105t146 -37t146 37t105 105t39 158t-39 158t-105 105t-146 37t-146 -37
t-105 -105t-39 -158t39 -158zM294.5 855.5q12.5 11.5 30.5 11.5q19 0 31.5 -11.5t12.5 -31.5q0 -19 -12.5 -30.5t-31.5 -11.5q-18 0 -30.5 11.5t-12.5 30.5q0 20 12.5 31.5zM495.5 855.5q12.5 11.5 30.5 11.5q19 0 31.5 -11.5t12.5 -31.5q0 -19 -12.5 -30.5t-31.5 -11.5
q-18 0 -30.5 11.5t-12.5 30.5q0 20 12.5 31.5z" />
    <glyph glyph-name="multiply" unicode="&#xd7;" horiz-adv-x="473" 
d="M279 329l124 -124l-43 -43l-124 124l-124 -124l-42 42l124 124l-124 124l43 43l124 -124l124 124l42 -41z" />
    <glyph glyph-name="Oslash" unicode="&#xd8;" horiz-adv-x="852" 
d="M752.5 511.5q32.5 -71.5 32.5 -161.5q0 -110 -48.5 -192.5t-130.5 -127t-180 -44.5q-106 0 -193 51l-56 -77l-43 30l56 78q-58 49 -90.5 120.5t-32.5 161.5q0 110 48.5 192.5t130.5 127t180 44.5q107 0 194 -52l55 77l43 -30l-56 -77q58 -49 90.5 -120.5zM160.5 221
q24.5 -58 69.5 -98l351 485q-67 42 -155 42q-80 0 -146 -37t-105 -105t-39 -158q0 -71 24.5 -129zM572 87q66 37 105 105t39 158q0 71 -24.5 129t-68.5 98l-351 -486q68 -41 154 -41q80 0 146 37z" />
    <glyph glyph-name="Ugrave" unicode="&#xd9;" horiz-adv-x="703" 
d="M89 700h66v-429q0 -114 53 -168t144 -54q90 0 143 54t53 168v429h66v-436q0 -137 -71 -207.5t-191 -70.5t-191.5 70.5t-71.5 207.5v436zM252 897h70l78 -135h-53z" />
    <glyph glyph-name="Uacute" unicode="&#xda;" horiz-adv-x="703" 
d="M89 700h66v-429q0 -114 53 -168t144 -54q90 0 143 54t53 168v429h66v-436q0 -137 -71 -207.5t-191 -70.5t-191.5 70.5t-71.5 207.5v436zM303 762l79 135h69l-94 -135h-54z" />
    <glyph glyph-name="Ucircumflex" unicode="&#xdb;" horiz-adv-x="703" 
d="M89 700h66v-429q0 -114 53 -168t144 -54q90 0 143 54t53 168v429h66v-436q0 -137 -71 -207.5t-191 -70.5t-191.5 70.5t-71.5 207.5v436zM427 765l-76 72l-77 -72h-58l113 122h44l113 -122h-59z" />
    <glyph glyph-name="Udieresis" unicode="&#xdc;" horiz-adv-x="703" 
d="M89 700h66v-429q0 -114 53 -168t144 -54q90 0 143 54t53 168v429h66v-436q0 -137 -71 -207.5t-191 -70.5t-191.5 70.5t-71.5 207.5v436zM219.5 855.5q12.5 11.5 30.5 11.5q19 0 31.5 -11.5t12.5 -31.5q0 -19 -12.5 -30.5t-31.5 -11.5q-18 0 -30.5 11.5t-12.5 30.5
q0 20 12.5 31.5zM420.5 855.5q12.5 11.5 30.5 11.5q19 0 31.5 -11.5t12.5 -31.5q0 -19 -12.5 -30.5t-31.5 -11.5q-18 0 -30.5 11.5t-12.5 30.5q0 20 12.5 31.5z" />
    <glyph glyph-name="Yacute" unicode="&#xdd;" horiz-adv-x="636" 
d="M351 319v-319h-66v319l-260 381h79l214 -318l215 318h78zM269 762l79 135h69l-94 -135h-54z" />
    <glyph glyph-name="Thorn" unicode="&#xde;" horiz-adv-x="625" 
d="M519.5 524q58.5 -54 58.5 -147q0 -91 -57 -143t-162 -52h-196v-182h-66v700h66v-122h193q105 0 163.5 -54zM468 276q40 36 40 103q0 69 -41.5 103.5t-115.5 34.5h-188v-277h192q73 0 113 36z" />
    <glyph glyph-name="germandbls" unicode="&#xdf;" horiz-adv-x="565" 
d="M471.5 344.5q39.5 -55.5 39.5 -133.5q0 -60 -23.5 -107.5t-70.5 -75.5t-114 -28h-59v59h51q69 0 110.5 43t41.5 116t-44 119t-133 46h-34v56h20q73 0 105 36.5t32 89.5q0 57 -31.5 92.5t-92.5 35.5q-59 0 -91.5 -36.5t-32.5 -105.5v-551h-63v557q0 93 49 144t139 51
q88 0 137.5 -49t49.5 -130q0 -51 -23.5 -92.5t-76.5 -60.5q75 -20 114.5 -75.5z" />
    <glyph glyph-name="agrave" unicode="&#xe0;" horiz-adv-x="531" 
d="M402 469.5q55 -46.5 55 -145.5v-324h-55v55q-27 -33 -70.5 -51t-96.5 -18q-59 0 -102.5 21t-66.5 57.5t-23 82.5q0 70 53 114.5t142 44.5q48 0 89 -14.5t67 -42.5v68q0 71 -38.5 105.5t-100.5 34.5q-36 0 -76 -12t-75 -35h-8v66q40 20 82.5 30t82.5 10q86 0 141 -46.5z
M360 74.5q38 29.5 38 73.5t-38 73t-108 29q-69 0 -107.5 -29.5t-38.5 -72.5q0 -44 38.5 -73.5t107.5 -29.5q70 0 108 29.5zM176 746h65l66 -154h-48z" />
    <glyph glyph-name="aacute" unicode="&#xe1;" horiz-adv-x="531" 
d="M402 469.5q55 -46.5 55 -145.5v-324h-55v55q-27 -33 -70.5 -51t-96.5 -18q-59 0 -102.5 21t-66.5 57.5t-23 82.5q0 70 53 114.5t142 44.5q48 0 89 -14.5t67 -42.5v68q0 71 -38.5 105.5t-100.5 34.5q-36 0 -76 -12t-75 -35h-8v66q40 20 82.5 30t82.5 10q86 0 141 -46.5z
M360 74.5q38 29.5 38 73.5t-38 73t-108 29q-69 0 -107.5 -29.5t-38.5 -72.5q0 -44 38.5 -73.5t107.5 -29.5q70 0 108 29.5zM237 592l67 154h64l-82 -154h-49z" />
    <glyph glyph-name="acircumflex" unicode="&#xe2;" horiz-adv-x="531" 
d="M402 469.5q55 -46.5 55 -145.5v-324h-55v55q-27 -33 -70.5 -51t-96.5 -18q-59 0 -102.5 21t-66.5 57.5t-23 82.5q0 70 53 114.5t142 44.5q48 0 89 -14.5t67 -42.5v68q0 71 -38.5 105.5t-100.5 34.5q-36 0 -76 -12t-75 -35h-8v66q40 20 82.5 30t82.5 10q86 0 141 -46.5z
M360 74.5q38 29.5 38 73.5t-38 73t-108 29q-69 0 -107.5 -29.5t-38.5 -72.5q0 -44 38.5 -73.5t107.5 -29.5q70 0 108 29.5zM348 586l-77 86l-78 -86h-54l113 140h39l113 -140h-56z" />
    <glyph glyph-name="atilde" unicode="&#xe3;" horiz-adv-x="531" 
d="M402 469.5q55 -46.5 55 -145.5v-324h-55v55q-27 -33 -70.5 -51t-96.5 -18q-59 0 -102.5 21t-66.5 57.5t-23 82.5q0 70 53 114.5t142 44.5q48 0 89 -14.5t67 -42.5v68q0 71 -38.5 105.5t-100.5 34.5q-36 0 -76 -12t-75 -35h-8v66q40 20 82.5 30t82.5 10q86 0 141 -46.5z
M360 74.5q38 29.5 38 73.5t-38 73t-108 29q-69 0 -107.5 -29.5t-38.5 -72.5q0 -44 38.5 -73.5t107.5 -29.5q70 0 108 29.5zM155 682q23 28 56 28q23 0 39.5 -10t30 -22.5t18.5 -16.5q18 -16 34 -16q35 0 39 58h42q-1 -56 -24 -84t-56 -28q-22 0 -38.5 9.5t-30.5 21.5t-19 17
q-17 17 -34 17q-35 0 -39 -58h-42q1 56 24 84z" />
    <glyph glyph-name="adieresis" unicode="&#xe4;" horiz-adv-x="531" 
d="M402 469.5q55 -46.5 55 -145.5v-324h-55v55q-27 -33 -70.5 -51t-96.5 -18q-59 0 -102.5 21t-66.5 57.5t-23 82.5q0 70 53 114.5t142 44.5q48 0 89 -14.5t67 -42.5v68q0 71 -38.5 105.5t-100.5 34.5q-36 0 -76 -12t-75 -35h-8v66q40 20 82.5 30t82.5 10q86 0 141 -46.5z
M360 74.5q38 29.5 38 73.5t-38 73t-108 29q-69 0 -107.5 -29.5t-38.5 -72.5q0 -44 38.5 -73.5t107.5 -29.5q70 0 108 29.5zM145 683q12 11 29 11q18 0 29.5 -11t11.5 -30t-11.5 -30.5t-29.5 -11.5q-17 0 -29 11.5t-12 30.5t12 30zM339.5 683q11.5 11 29.5 11q17 0 29 -11
t12 -30t-12 -30.5t-29 -11.5q-18 0 -29.5 11.5t-11.5 30.5t11.5 30z" />
    <glyph glyph-name="aring" unicode="&#xe5;" horiz-adv-x="531" 
d="M402 469.5q55 -46.5 55 -145.5v-324h-55v55q-27 -33 -70.5 -51t-96.5 -18q-59 0 -102.5 21t-66.5 57.5t-23 82.5q0 70 53 114.5t142 44.5q48 0 89 -14.5t67 -42.5v68q0 71 -38.5 105.5t-100.5 34.5q-36 0 -76 -12t-75 -35h-8v66q40 20 82.5 30t82.5 10q86 0 141 -46.5z
M360 74.5q38 29.5 38 73.5t-38 73t-108 29q-69 0 -107.5 -29.5t-38.5 -72.5q0 -44 38.5 -73.5t107.5 -29.5q70 0 108 29.5zM206.5 727q27.5 24 65.5 24q37 0 65 -24t28 -64q0 -41 -27.5 -65t-65.5 -24t-65.5 24t-27.5 65q0 40 27.5 64zM236 626q15 -14 36 -14t36 14t15 37
t-15 37t-36 14t-36 -14t-15 -37t15 -37z" />
    <glyph glyph-name="ae" unicode="&#xe6;" horiz-adv-x="913" 
d="M861 242h-405q2 -67 30 -111.5t72.5 -65.5t94.5 -21q95 0 168 66h9v-69q-80 -55 -178 -55q-67 0 -124 28.5t-90 84.5q-18 -52 -73.5 -82.5t-125.5 -30.5q-59 0 -103.5 20.5t-68.5 57.5t-24 83q0 70 52.5 114.5t142.5 44.5q48 0 88.5 -14.5t67.5 -41.5v67
q0 71 -38.5 105.5t-100.5 34.5q-36 0 -76 -12t-75 -35h-8v66q79 40 163 40q65 0 112 -27.5t66 -86.5q33 57 88 85.5t121 28.5q96 0 156.5 -60.5t61.5 -175.5q0 -20 -3 -38zM521.5 417.5q-50.5 -42.5 -62.5 -122.5h343q-4 81 -46.5 123t-112.5 42q-71 0 -121.5 -42.5z
M360 74.5q38 29.5 38 73.5t-38 73t-108 29q-69 0 -107.5 -29.5t-38.5 -72.5q0 -44 38.5 -73.5t107.5 -29.5q70 0 108 29.5z" />
    <glyph glyph-name="ccedilla" unicode="&#xe7;" horiz-adv-x="513" 
d="M452 29q-58 -39 -126 -42q35 -46 35 -92q0 -44 -28.5 -68t-69.5 -24q-23 0 -59 11v43q27 -8 46 -8q25 0 41 14.5t16 41.5q0 38 -32 83q-63 8 -114 41.5t-80 90.5t-29 131q0 79 34 139.5t92 93t127 32.5q79 0 141 -43v-68h-7q-30 26 -62 39t-70 13q-51 0 -94.5 -25
t-70 -72t-26.5 -109t26.5 -109t71 -72t97.5 -25q78 0 133 54h8v-70z" />
    <glyph glyph-name="egrave" unicode="&#xe8;" horiz-adv-x="571" 
d="M519 242h-405q2 -67 30 -111.5t72.5 -65.5t94.5 -21q94 0 168 66h9v-69q-80 -55 -179 -55q-68 0 -126.5 29t-94.5 89t-36 147t35 146.5t92.5 89t123.5 29.5q96 0 157 -60.5t62 -175.5q0 -20 -3 -38zM179.5 417.5q-50.5 -42.5 -62.5 -122.5h343q-4 81 -46.5 123t-112.5 42
q-71 0 -121.5 -42.5zM194 746h65l66 -154h-48z" />
    <glyph glyph-name="eacute" unicode="&#xe9;" horiz-adv-x="571" 
d="M519 242h-405q2 -67 30 -111.5t72.5 -65.5t94.5 -21q94 0 168 66h9v-69q-80 -55 -179 -55q-68 0 -126.5 29t-94.5 89t-36 147t35 146.5t92.5 89t123.5 29.5q96 0 157 -60.5t62 -175.5q0 -20 -3 -38zM179.5 417.5q-50.5 -42.5 -62.5 -122.5h343q-4 81 -46.5 123t-112.5 42
q-71 0 -121.5 -42.5zM256 592l67 154h64l-82 -154h-49z" />
    <glyph glyph-name="ecircumflex" unicode="&#xea;" horiz-adv-x="571" 
d="M519 242h-405q2 -67 30 -111.5t72.5 -65.5t94.5 -21q94 0 168 66h9v-69q-80 -55 -179 -55q-68 0 -126.5 29t-94.5 89t-36 147t35 146.5t92.5 89t123.5 29.5q96 0 157 -60.5t62 -175.5q0 -20 -3 -38zM179.5 417.5q-50.5 -42.5 -62.5 -122.5h343q-4 81 -46.5 123t-112.5 42
q-71 0 -121.5 -42.5zM367 586l-77 86l-78 -86h-54l113 140h39l113 -140h-56z" />
    <glyph glyph-name="edieresis" unicode="&#xeb;" horiz-adv-x="571" 
d="M519 242h-405q2 -67 30 -111.5t72.5 -65.5t94.5 -21q94 0 168 66h9v-69q-80 -55 -179 -55q-68 0 -126.5 29t-94.5 89t-36 147t35 146.5t92.5 89t123.5 29.5q96 0 157 -60.5t62 -175.5q0 -20 -3 -38zM179.5 417.5q-50.5 -42.5 -62.5 -122.5h343q-4 81 -46.5 123t-112.5 42
q-71 0 -121.5 -42.5zM164 683q12 11 29 11q18 0 29.5 -11t11.5 -30t-11.5 -30.5t-29.5 -11.5q-17 0 -29 11.5t-12 30.5t12 30zM358.5 683q11.5 11 29.5 11q17 0 29 -11t12 -30t-12 -30.5t-29 -11.5q-18 0 -29.5 11.5t-11.5 30.5t11.5 30z" />
    <glyph glyph-name="igrave" unicode="&#xec;" horiz-adv-x="232" 
d="M147 502v-502h-63v502h63zM17 746h65l66 -154h-48z" />
    <glyph glyph-name="iacute" unicode="&#xed;" horiz-adv-x="232" 
d="M147 502v-502h-63v502h63zM81 592l67 154h64l-82 -154h-49z" />
    <glyph glyph-name="icircumflex" unicode="&#xee;" horiz-adv-x="232" 
d="M230 586h-52l-63 84l-62 -84h-52l95 140h39zM84 502h63v-502h-63v502z" />
    <glyph glyph-name="idieresis" unicode="&#xef;" horiz-adv-x="232" 
d="M10 683q12 11 30 11q17 0 29 -11t12 -30t-12 -30.5t-29 -11.5q-18 0 -30 11.5t-12 30.5t12 30zM162.5 683q11.5 11 29.5 11t29.5 -11t11.5 -30t-11.5 -30.5t-29.5 -11.5t-29.5 11.5t-11.5 30.5t11.5 30zM147 502v-502h-63v502h63z" />
    <glyph glyph-name="eth" unicode="&#xf0;" horiz-adv-x="618" 
d="M557 309q0 -113 -36 -185t-94 -105t-126 -33q-71 0 -127.5 31t-89 89.5t-32.5 137.5q0 78 31.5 135.5t86.5 88t123 30.5q70 0 124 -33t82 -92q-12 78 -42 137.5t-82 109.5l-145 -41l-15 46l116 33q-64 48 -162 94l112 1q65 -30 119 -75l92 26l15 -46l-67 -19
q117 -129 117 -330zM393.5 69.5q42.5 24.5 68 69.5t25.5 105q0 59 -25.5 104.5t-68 69.5t-91.5 24q-50 0 -92.5 -24t-68 -69t-25.5 -105q0 -61 25.5 -106t68 -69t92.5 -24q49 0 91.5 24.5z" />
    <glyph glyph-name="ntilde" unicode="&#xf1;" horiz-adv-x="569" 
d="M443 464.5q52 -51.5 52 -151.5v-313h-63v298q0 79 -36.5 118.5t-97.5 39.5q-64 0 -107.5 -48t-43.5 -136v-272h-63v502h56v-92q24 50 69.5 78t102.5 28q79 0 131 -51.5zM167 682q23 28 56 28q23 0 39.5 -10t30 -22.5t18.5 -16.5q18 -16 34 -16q35 0 39 58h42
q-1 -56 -24 -84t-56 -28q-22 0 -38.5 9.5t-30.5 21.5t-19 17q-17 17 -34 17q-35 0 -39 -58h-42q1 56 24 84z" />
    <glyph glyph-name="ograve" unicode="&#xf2;" horiz-adv-x="627" 
d="M87 391q35 60 95 92.5t132 32.5t131.5 -32.5t94.5 -92.5t35 -140t-35 -140t-94.5 -92.5t-131.5 -32.5t-132 32.5t-95 92.5t-35 140t35 140zM142.5 141.5q26.5 -46.5 72 -71.5t99.5 -25t99 25t71.5 71.5t26.5 109.5t-26.5 109.5t-71.5 71.5t-99 25t-99.5 -25t-72 -71.5
t-26.5 -109.5t26.5 -109.5zM217 746h65l66 -154h-48z" />
    <glyph glyph-name="oacute" unicode="&#xf3;" horiz-adv-x="627" 
d="M87 391q35 60 95 92.5t132 32.5t131.5 -32.5t94.5 -92.5t35 -140t-35 -140t-94.5 -92.5t-131.5 -32.5t-132 32.5t-95 92.5t-35 140t35 140zM142.5 141.5q26.5 -46.5 72 -71.5t99.5 -25t99 25t71.5 71.5t26.5 109.5t-26.5 109.5t-71.5 71.5t-99 25t-99.5 -25t-72 -71.5
t-26.5 -109.5t26.5 -109.5zM279 592l67 154h64l-82 -154h-49z" />
    <glyph glyph-name="ocircumflex" unicode="&#xf4;" horiz-adv-x="627" 
d="M87 391q35 60 95 92.5t132 32.5t131.5 -32.5t94.5 -92.5t35 -140t-35 -140t-94.5 -92.5t-131.5 -32.5t-132 32.5t-95 92.5t-35 140t35 140zM142.5 141.5q26.5 -46.5 72 -71.5t99.5 -25t99 25t71.5 71.5t26.5 109.5t-26.5 109.5t-71.5 71.5t-99 25t-99.5 -25t-72 -71.5
t-26.5 -109.5t26.5 -109.5zM390 586l-77 86l-78 -86h-54l113 140h39l113 -140h-56z" />
    <glyph glyph-name="otilde" unicode="&#xf5;" horiz-adv-x="627" 
d="M87 391q35 60 95 92.5t132 32.5t131.5 -32.5t94.5 -92.5t35 -140t-35 -140t-94.5 -92.5t-131.5 -32.5t-132 32.5t-95 92.5t-35 140t35 140zM142.5 141.5q26.5 -46.5 72 -71.5t99.5 -25t99 25t71.5 71.5t26.5 109.5t-26.5 109.5t-71.5 71.5t-99 25t-99.5 -25t-72 -71.5
t-26.5 -109.5t26.5 -109.5zM196 682q23 28 56 28q23 0 39.5 -10t30 -22.5t18.5 -16.5q18 -16 34 -16q35 0 39 58h42q-1 -56 -24 -84t-56 -28q-22 0 -38.5 9.5t-30.5 21.5t-19 17q-17 17 -34 17q-35 0 -39 -58h-42q1 56 24 84z" />
    <glyph glyph-name="odieresis" unicode="&#xf6;" horiz-adv-x="627" 
d="M87 391q35 60 95 92.5t132 32.5t131.5 -32.5t94.5 -92.5t35 -140t-35 -140t-94.5 -92.5t-131.5 -32.5t-132 32.5t-95 92.5t-35 140t35 140zM142.5 141.5q26.5 -46.5 72 -71.5t99.5 -25t99 25t71.5 71.5t26.5 109.5t-26.5 109.5t-71.5 71.5t-99 25t-99.5 -25t-72 -71.5
t-26.5 -109.5t26.5 -109.5zM187 683q12 11 29 11q18 0 29.5 -11t11.5 -30t-11.5 -30.5t-29.5 -11.5q-17 0 -29 11.5t-12 30.5t12 30zM381.5 683q11.5 11 29.5 11q17 0 29 -11t12 -30t-12 -30.5t-29 -11.5q-18 0 -29.5 11.5t-11.5 30.5t11.5 30z" />
    <glyph glyph-name="divide" unicode="&#xf7;" horiz-adv-x="504" 
d="M215.5 550q14.5 14 36.5 14t36.5 -14t14.5 -37t-14.5 -36.5t-36.5 -13.5t-36.5 13.5t-14.5 36.5t14.5 37zM435 358v-59h-365v59h365zM216 180q15 14 36 14t36 -14t15 -36q0 -23 -14.5 -37t-36.5 -14t-36.5 14t-14.5 37q0 22 15 36z" />
    <glyph glyph-name="oslash" unicode="&#xf8;" horiz-adv-x="627" 
d="M552.5 366.5q22.5 -51.5 22.5 -115.5q0 -80 -35 -140t-94.5 -92.5t-131.5 -32.5q-76 0 -137 35l-46 -63l-39 27l46 64q-41 35 -63.5 86.5t-22.5 115.5q0 80 35 140t95 92.5t132 32.5q75 0 136 -35l46 63l39 -27l-46 -64q41 -35 63.5 -86.5zM175 99l240 332
q-46 26 -101 26q-54 0 -99.5 -25t-72 -71.5t-26.5 -109.5q0 -93 59 -152zM413 70q45 25 71.5 71.5t26.5 109.5q0 95 -59 152l-239 -332q44 -26 101 -26q54 0 99 25z" />
    <glyph glyph-name="ugrave" unicode="&#xf9;" horiz-adv-x="569" 
d="M485 502v-502h-55v99q-25 -53 -70 -83t-103 -30q-51 0 -92.5 23t-66 70.5t-24.5 116.5v306h63v-296q0 -79 37 -119.5t97 -40.5q41 0 75.5 22.5t55 66t20.5 102.5v265h63zM188 746h65l66 -154h-48z" />
    <glyph glyph-name="uacute" unicode="&#xfa;" horiz-adv-x="569" 
d="M485 502v-502h-55v99q-25 -53 -70 -83t-103 -30q-51 0 -92.5 23t-66 70.5t-24.5 116.5v306h63v-296q0 -79 37 -119.5t97 -40.5q41 0 75.5 22.5t55 66t20.5 102.5v265h63zM250 592l67 154h64l-82 -154h-49z" />
    <glyph glyph-name="ucircumflex" unicode="&#xfb;" horiz-adv-x="569" 
d="M485 502v-502h-55v99q-25 -53 -70 -83t-103 -30q-51 0 -92.5 23t-66 70.5t-24.5 116.5v306h63v-296q0 -79 37 -119.5t97 -40.5q41 0 75.5 22.5t55 66t20.5 102.5v265h63zM361 586l-77 86l-78 -86h-54l113 140h39l113 -140h-56z" />
    <glyph glyph-name="udieresis" unicode="&#xfc;" horiz-adv-x="569" 
d="M485 502v-502h-55v99q-25 -53 -70 -83t-103 -30q-51 0 -92.5 23t-66 70.5t-24.5 116.5v306h63v-296q0 -79 37 -119.5t97 -40.5q41 0 75.5 22.5t55 66t20.5 102.5v265h63zM158 683q12 11 29 11q18 0 29.5 -11t11.5 -30t-11.5 -30.5t-29.5 -11.5q-17 0 -29 11.5t-12 30.5
t12 30zM352.5 683q11.5 11 29.5 11q17 0 29 -11t12 -30t-12 -30.5t-29 -11.5q-18 0 -29.5 11.5t-11.5 30.5t11.5 30z" />
    <glyph glyph-name="yacute" unicode="&#xfd;" horiz-adv-x="513" 
d="M484 502l-297 -696h-69l117 274l-210 422h70l173 -355l148 355h68zM222 592l67 154h64l-82 -154h-49z" />
    <glyph glyph-name="thorn" unicode="&#xfe;" horiz-adv-x="629" 
d="M454 485.5q55 -30.5 89 -90t34 -144.5t-34 -144.5t-88.5 -90t-116.5 -30.5q-58 0 -108.5 26t-82.5 76v-282h-63v946h63v-338q32 50 82.5 76t107.5 26q62 0 117 -30.5zM419 68q42 23 68 70t26 113t-26 113t-68 70t-91 23t-91 -23t-68 -70t-26 -113t26 -113t68 -70t91 -23
t91 23z" />
    <glyph glyph-name="ydieresis" unicode="&#xff;" horiz-adv-x="513" 
d="M484 502l-297 -696h-69l117 274l-210 422h70l173 -355l148 355h68zM130 683q12 11 29 11q18 0 29.5 -11t11.5 -30t-11.5 -30.5t-29.5 -11.5q-17 0 -29 11.5t-12 30.5t12 30zM324.5 683q11.5 11 29.5 11q17 0 29 -11t12 -30t-12 -30.5t-29 -11.5q-18 0 -29.5 11.5
t-11.5 30.5t11.5 30z" />
    <glyph glyph-name="Amacron" unicode="&#x100;" horiz-adv-x="681" 
d="M503 198h-327l-80 -198h-70l291 700h46l292 -700h-72zM480 256l-140 349l-141 -349h281zM219 796v53h244v-53h-244z" />
    <glyph glyph-name="amacron" unicode="&#x101;" horiz-adv-x="531" 
d="M402 469.5q55 -46.5 55 -145.5v-324h-55v55q-27 -33 -70.5 -51t-96.5 -18q-59 0 -102.5 21t-66.5 57.5t-23 82.5q0 70 53 114.5t142 44.5q48 0 89 -14.5t67 -42.5v68q0 71 -38.5 105.5t-100.5 34.5q-36 0 -76 -12t-75 -35h-8v66q40 20 82.5 30t82.5 10q86 0 141 -46.5z
M360 74.5q38 29.5 38 73.5t-38 73t-108 29q-69 0 -107.5 -29.5t-38.5 -72.5q0 -44 38.5 -73.5t107.5 -29.5q70 0 108 29.5zM155 624v52h233v-52h-233z" />
    <glyph glyph-name="Abreve" unicode="&#x102;" horiz-adv-x="681" 
d="M503 198h-327l-80 -198h-70l291 700h46l292 -700h-72zM480 256l-140 349l-141 -349h281zM472 894v-8q0 -63 -34.5 -94t-97.5 -31q-62 0 -96.5 31t-34.5 94v8h48v-10q0 -35 21.5 -54t61.5 -19q41 0 62.5 19t21.5 54v10h48z" />
    <glyph glyph-name="abreve" unicode="&#x103;" horiz-adv-x="531" 
d="M402 469.5q55 -46.5 55 -145.5v-324h-55v55q-27 -33 -70.5 -51t-96.5 -18q-59 0 -102.5 21t-66.5 57.5t-23 82.5q0 70 53 114.5t142 44.5q48 0 89 -14.5t67 -42.5v68q0 71 -38.5 105.5t-100.5 34.5q-36 0 -76 -12t-75 -35h-8v66q40 20 82.5 30t82.5 10q86 0 141 -46.5z
M360 74.5q38 29.5 38 73.5t-38 73t-108 29q-69 0 -107.5 -29.5t-38.5 -72.5q0 -44 38.5 -73.5t107.5 -29.5q70 0 108 29.5zM143 732h44v-12q0 -42 22 -64.5t63 -22.5q42 0 63.5 22.5t21.5 64.5v12h44v-8q0 -71 -34 -106t-95 -35t-95 35t-34 106v8z" />
    <glyph glyph-name="Aogonek" unicode="&#x104;" horiz-adv-x="681" 
d="M670 -139v-44q-36 -15 -67 -15q-39 0 -63.5 20.5t-24.5 55.5q0 32 22.5 63.5t68.5 58.5h-23l-80 198h-327l-80 -198h-70l291 700h46l292 -700q-44 -28 -65 -56.5t-21 -53.5q0 -21 13 -31.5t32 -10.5q20 0 56 13zM480 256l-140 349l-141 -349h281z" />
    <glyph glyph-name="aogonek" unicode="&#x105;" horiz-adv-x="531" 
d="M471 -139v-44q-36 -15 -67 -15q-39 0 -63.5 20.5t-24.5 55.5q0 32 22.5 63.5t68.5 58.5h-5v55q-27 -33 -70.5 -51t-96.5 -18q-59 0 -102.5 21t-66.5 57.5t-23 82.5q0 70 53 114.5t142 44.5q48 0 89 -14.5t67 -42.5v68q0 71 -38.5 105.5t-100.5 34.5q-36 0 -76 -12
t-75 -35h-8v66q40 20 82.5 30t82.5 10q86 0 141 -46.5t55 -145.5v-324h-1q-44 -28 -65 -56.5t-21 -53.5q0 -21 13 -31.5t32 -10.5q20 0 56 13zM360 74.5q38 29.5 38 73.5t-38 73t-108 29q-69 0 -107.5 -29.5t-38.5 -72.5q0 -44 38.5 -73.5t107.5 -29.5q70 0 108 29.5z" />
    <glyph glyph-name="Cacute" unicode="&#x106;" horiz-adv-x="686" 
d="M114 545q47 82 128 125.5t180 43.5q62 0 112 -16.5t93 -49.5v-77h-10q-40 39 -87.5 59t-110.5 20q-79 0 -143.5 -37t-102 -105t-37.5 -158t38 -158t103.5 -105t144.5 -37q123 0 204 90h10v-82q-92 -72 -213 -72q-100 0 -181 43t-128 125.5t-47 195.5t47 195zM362 762
l79 135h69l-94 -135h-54z" />
    <glyph glyph-name="cacute" unicode="&#x107;" horiz-adv-x="513" 
d="M86 390.5q34 60.5 92 93t127 32.5q79 0 141 -43v-68h-7q-30 26 -62 39t-70 13q-51 0 -94.5 -25t-70 -72t-26.5 -109t26.5 -109t71 -72t97.5 -25q78 0 133 54h8v-70q-63 -43 -144 -43q-70 0 -128.5 32.5t-93 92.5t-34.5 140q0 79 34 139.5zM248 592l67 154h64l-82 -154
h-49z" />
    <glyph glyph-name="Cdotaccent" unicode="&#x10a;" horiz-adv-x="686" 
d="M114 545q47 82 128 125.5t180 43.5q62 0 112 -16.5t93 -49.5v-77h-10q-40 39 -87.5 59t-110.5 20q-79 0 -143.5 -37t-102 -105t-37.5 -158t38 -158t103.5 -105t144.5 -37q123 0 204 90h10v-82q-92 -72 -213 -72q-100 0 -181 43t-128 125.5t-47 195.5t47 195zM376.5 883
q14.5 13 34.5 13q21 0 35.5 -13t14.5 -33t-14.5 -33t-35.5 -13q-20 0 -34.5 13t-14.5 33t14.5 33z" />
    <glyph glyph-name="cdotaccent" unicode="&#x10b;" horiz-adv-x="513" 
d="M86 390.5q34 60.5 92 93t127 32.5q79 0 141 -43v-68h-7q-30 26 -62 39t-70 13q-51 0 -94.5 -25t-70 -72t-26.5 -109t26.5 -109t71 -72t97.5 -25q78 0 133 54h8v-70q-63 -43 -144 -43q-70 0 -128.5 32.5t-93 92.5t-34.5 140q0 79 34 139.5zM249 691q14 13 34 13
q19 0 33 -13t14 -34q0 -20 -14 -33t-33 -13q-20 0 -34 13t-14 33q0 21 14 34z" />
    <glyph glyph-name="Ccaron" unicode="&#x10c;" horiz-adv-x="686" 
d="M114 545q47 82 128 125.5t180 43.5q62 0 112 -16.5t93 -49.5v-77h-10q-40 39 -87.5 59t-110.5 20q-79 0 -143.5 -37t-102 -105t-37.5 -158t38 -158t103.5 -105t144.5 -37q123 0 204 90h10v-82q-92 -72 -213 -72q-100 0 -181 43t-128 125.5t-47 195.5t47 195zM546 887
l-113 -122h-44l-113 122h59l76 -72l77 72h58z" />
    <glyph glyph-name="ccaron" unicode="&#x10d;" horiz-adv-x="513" 
d="M86 390.5q34 60.5 92 93t127 32.5q79 0 141 -43v-68h-7q-30 26 -62 39t-70 13q-51 0 -94.5 -25t-70 -72t-26.5 -109t26.5 -109t71 -72t97.5 -25q78 0 133 54h8v-70q-63 -43 -144 -43q-70 0 -128.5 32.5t-93 92.5t-34.5 140q0 79 34 139.5zM415 726l-113 -140h-39
l-113 140h55l77 -86l78 86h55z" />
    <glyph glyph-name="Dcaron" unicode="&#x10e;" horiz-adv-x="719" 
d="M481 659q81 -41 126 -120t45 -189t-45 -189t-126 -120t-188 -41h-196l1 1l-1 699h196q107 0 188 -41zM502 135q81 75 81 215t-81 215t-217 75h-122v-580h122q136 0 217 75zM494 887l-113 -122h-44l-113 122h59l76 -72l77 72h58z" />
    <glyph glyph-name="dcaron" unicode="&#x10f;" horiz-adv-x="664" 
d="M482 752h63v-752h-55v101q-31 -57 -84 -86t-114 -29q-62 0 -117 30.5t-89 90t-34 144.5t34 144.5t89 90t117 30.5q57 0 107.5 -26t82.5 -76v338zM677 752l-24 -178h-44l14 178h54zM392 68q42 23 68 70t26 113t-26 113t-68 70t-91 23t-91 -23t-68 -70t-26 -113t26 -113
t68 -70t91 -23t91 23z" />
    <glyph glyph-name="Dcroat" unicode="&#x110;" horiz-adv-x="742" 
d="M504 659q81 -41 126 -120t45 -189t-45 -189t-126 -120t-188 -41h-196l1 2v329h-91v60h90v309h196q107 0 188 -41zM525.5 135q80.5 75 80.5 215t-80.5 215t-216.5 75h-123v-249h157v-60h-157v-271h123q136 0 216.5 75z" />
    <glyph glyph-name="dcroat" unicode="&#x111;" horiz-adv-x="629" 
d="M629 605h-84v-605h-55v101q-31 -57 -84 -86t-114 -29q-62 0 -117 30.5t-89 90t-34 144.5t34 144.5t89 90t117 30.5q57 0 107.5 -26t82.5 -76v191h-169v48h169v99h63v-99h84v-48zM392 68q42 23 68 70t26 113t-26 113t-68 70t-91 23t-91 -23t-68 -70t-26 -113t26 -113
t68 -70t91 -23t91 23z" />
    <glyph glyph-name="Emacron" unicode="&#x112;" horiz-adv-x="555" 
d="M502 60v-60h-405v700h389v-60h-323v-236h304v-59h-304v-285h339zM173 796v53h244v-53h-244z" />
    <glyph glyph-name="emacron" unicode="&#x113;" horiz-adv-x="571" 
d="M519 242h-405q2 -67 30 -111.5t72.5 -65.5t94.5 -21q94 0 168 66h9v-69q-80 -55 -179 -55q-68 0 -126.5 29t-94.5 89t-36 147t35 146.5t92.5 89t123.5 29.5q96 0 157 -60.5t62 -175.5q0 -20 -3 -38zM179.5 417.5q-50.5 -42.5 -62.5 -122.5h343q-4 81 -46.5 123t-112.5 42
q-71 0 -121.5 -42.5zM174 624v52h233v-52h-233z" />
    <glyph glyph-name="Edotaccent" unicode="&#x116;" horiz-adv-x="555" 
d="M502 60v-60h-405v700h389v-60h-323v-236h304v-59h-304v-285h339zM259.5 883q14.5 13 34.5 13q21 0 35.5 -13t14.5 -33t-14.5 -33t-35.5 -13q-20 0 -34.5 13t-14.5 33t14.5 33z" />
    <glyph glyph-name="edotaccent" unicode="&#x117;" horiz-adv-x="571" 
d="M519 242h-405q2 -67 30 -111.5t72.5 -65.5t94.5 -21q94 0 168 66h9v-69q-80 -55 -179 -55q-68 0 -126.5 29t-94.5 89t-36 147t35 146.5t92.5 89t123.5 29.5q96 0 157 -60.5t62 -175.5q0 -20 -3 -38zM179.5 417.5q-50.5 -42.5 -62.5 -122.5h343q-4 81 -46.5 123t-112.5 42
q-71 0 -121.5 -42.5zM257 691q14 13 34 13q19 0 33 -13t14 -34q0 -20 -14 -33t-33 -13q-20 0 -34 13t-14 33q0 21 14 34z" />
    <glyph glyph-name="Eogonek" unicode="&#x118;" horiz-adv-x="555" 
d="M502 60v-60h-405v700h389v-60h-323v-236h304v-59h-304v-285h339zM364.5 -57q23.5 32 71.5 59l45 -2q-44 -28 -65 -56.5t-21 -53.5q0 -21 13 -31.5t32 -10.5q20 0 56 13v-44q-36 -15 -67 -15q-39 0 -63.5 20.5t-24.5 55.5q0 33 23.5 65z" />
    <glyph glyph-name="eogonek" unicode="&#x119;" horiz-adv-x="571" 
d="M519 242h-405q2 -67 30 -111.5t72.5 -65.5t94.5 -21q94 0 168 66h9v-69q-69 -57 -95.5 -91t-26.5 -60q0 -21 13 -31.5t33 -10.5q19 0 56 13v-44q-37 -15 -67 -15q-39 0 -64 20.5t-25 55.5q0 56 76 118q-39 -10 -79 -10q-68 0 -126.5 29t-94.5 89t-36 147t35 146.5
t92.5 89t123.5 29.5q96 0 157 -60.5t62 -175.5q0 -20 -3 -38zM179.5 417.5q-50.5 -42.5 -62.5 -122.5h343q-4 81 -46.5 123t-112.5 42q-71 0 -121.5 -42.5z" />
    <glyph glyph-name="Ecaron" unicode="&#x11a;" horiz-adv-x="555" 
d="M502 60v-60h-405v700h389v-60h-323v-236h304v-59h-304v-285h339zM429 887l-113 -122h-44l-113 122h59l76 -72l77 72h58z" />
    <glyph glyph-name="ecaron" unicode="&#x11b;" horiz-adv-x="571" 
d="M519 242h-405q2 -67 30 -111.5t72.5 -65.5t94.5 -21q94 0 168 66h9v-69q-80 -55 -179 -55q-68 0 -126.5 29t-94.5 89t-36 147t35 146.5t92.5 89t123.5 29.5q96 0 157 -60.5t62 -175.5q0 -20 -3 -38zM179.5 417.5q-50.5 -42.5 -62.5 -122.5h343q-4 81 -46.5 123t-112.5 42
q-71 0 -121.5 -42.5zM423 726l-113 -140h-39l-113 140h55l77 -86l78 86h55z" />
    <glyph glyph-name="Gbreve" unicode="&#x11e;" horiz-adv-x="726" 
d="M653 373v-373h-182q-123 0 -213.5 40t-140.5 118.5t-50 191.5q0 112 47.5 194.5t129 126t180.5 43.5q117 0 206 -65v-76h-10q-83 77 -199 77q-80 0 -145 -37t-102.5 -105t-37.5 -158q0 -137 88.5 -211.5t246.5 -74.5h118v249h-193v60h257zM537 894v-8q0 -63 -34.5 -94
t-97.5 -31q-62 0 -96.5 31t-34.5 94v8h48v-10q0 -35 21.5 -54t61.5 -19q41 0 62.5 19t21.5 54v10h48z" />
    <glyph glyph-name="gbreve" unicode="&#x11f;" horiz-adv-x="629" 
d="M545 502v-456q0 -85 -34 -142t-92 -84.5t-131 -27.5q-99 0 -184 46v71h8q38 -28 83 -43t92 -15q84 0 139.5 48t55.5 151v47q-32 -49 -82 -74t-108 -25q-62 0 -117 29.5t-89 88t-34 140.5t34 141t89 89t117 30q61 0 114 -29t84 -84v99h55zM392 78q42 23 68 68.5t26 109.5
t-26 109.5t-68 68.5t-91 23t-91 -23t-68 -68.5t-26 -109.5t26 -109.5t68 -68.5t91 -23t91 23zM185 732h44v-12q0 -42 22 -64.5t63 -22.5q42 0 63.5 22.5t21.5 64.5v12h44v-8q0 -71 -34 -106t-95 -35t-95 35t-34 106v8z" />
    <glyph glyph-name="Gdotaccent" unicode="&#x120;" horiz-adv-x="726" 
d="M653 373v-373h-182q-123 0 -213.5 40t-140.5 118.5t-50 191.5q0 112 47.5 194.5t129 126t180.5 43.5q117 0 206 -65v-76h-10q-83 77 -199 77q-80 0 -145 -37t-102.5 -105t-37.5 -158q0 -137 88.5 -211.5t246.5 -74.5h118v249h-193v60h257zM370.5 883q14.5 13 34.5 13
q21 0 35.5 -13t14.5 -33t-14.5 -33t-35.5 -13q-20 0 -34.5 13t-14.5 33t14.5 33z" />
    <glyph glyph-name="gdotaccent" unicode="&#x121;" horiz-adv-x="629" 
d="M545 502v-456q0 -85 -34 -142t-92 -84.5t-131 -27.5q-99 0 -184 46v71h8q38 -28 83 -43t92 -15q84 0 139.5 48t55.5 151v47q-32 -49 -82 -74t-108 -25q-62 0 -117 29.5t-89 88t-34 140.5t34 141t89 89t117 30q61 0 114 -29t84 -84v99h55zM392 78q42 23 68 68.5t26 109.5
t-26 109.5t-68 68.5t-91 23t-91 -23t-68 -68.5t-26 -109.5t26 -109.5t68 -68.5t91 -23t91 23zM281 691q14 13 34 13q19 0 33 -13t14 -34q0 -20 -14 -33t-33 -13q-20 0 -34 13t-14 33q0 21 14 34z" />
    <glyph glyph-name="Gcommaaccent" unicode="&#x122;" horiz-adv-x="726" 
d="M653 373v-373h-182q-123 0 -213.5 40t-140.5 118.5t-50 191.5q0 112 47.5 194.5t129 126t180.5 43.5q117 0 206 -65v-76h-10q-83 77 -199 77q-80 0 -145 -37t-102.5 -105t-37.5 -158q0 -137 88.5 -211.5t246.5 -74.5h118v249h-193v60h257zM453 -58l-60 -168h-44l43 168
h61z" />
    <glyph glyph-name="gcommaaccent" unicode="&#x123;" horiz-adv-x="629" 
d="M545 502v-456q0 -85 -34 -142t-92 -84.5t-131 -27.5q-99 0 -184 46v71h8q38 -28 83 -43t92 -15q84 0 139.5 48t55.5 151v47q-32 -49 -82 -74t-108 -25q-62 0 -117 29.5t-89 88t-34 140.5t34 141t89 89t117 30q61 0 114 -29t84 -84v99h55zM392 78q42 23 68 68.5t26 109.5
t-26 109.5t-68 68.5t-91 23t-91 -23t-68 -68.5t-26 -109.5t26 -109.5t68 -68.5t91 -23t91 23zM262 580l60 168h44l-43 -168h-61z" />
    <glyph glyph-name="Hbar" unicode="&#x126;" horiz-adv-x="756" 
d="M726 533h-75v-533h-66v344h-413v-344h-66v533h-76v48h76v119h66v-119h413v119h66v-119h75v-48zM585 533h-413v-129h413v129z" />
    <glyph glyph-name="hbar" unicode="&#x127;" horiz-adv-x="569" 
d="M443 464.5q52 -51.5 52 -151.5v-313h-63v298q0 79 -36.5 118.5t-97.5 39.5q-64 0 -107.5 -48t-43.5 -136v-272h-63v605h-84v48h84v99h63v-99h169v-48h-169v-181q26 43 69 67.5t96 24.5q79 0 131 -51.5z" />
    <glyph glyph-name="Imacron" unicode="&#x12a;" horiz-adv-x="260" 
d="M22 796v53h216v-53h-216zM163 700v-700h-66v700h66z" />
    <glyph glyph-name="imacron" unicode="&#x12b;" horiz-adv-x="232" 
d="M25 624v52h180l1 -52h-181zM147 502v-502h-63v502h63z" />
    <glyph glyph-name="Iogonek" unicode="&#x12e;" horiz-adv-x="260" 
d="M189 -139v-44q-36 -15 -62 -15q-36 0 -60.5 21t-24.5 59q0 63 73 118h-18v700h66v-700q-67 -53 -67 -107q0 -24 12.5 -34.5t31.5 -10.5q20 0 49 13z" />
    <glyph glyph-name="iogonek" unicode="&#x12f;" horiz-adv-x="232" 
d="M80 624q-14 13 -14 33q0 21 14 34t34 13t34 -13t14 -34q0 -20 -14 -33t-34 -13t-34 13zM173 -139v-44q-36 -15 -62 -15q-36 0 -60.5 21t-24.5 59q0 63 73 118h-15v502h63v-502q-67 -53 -67 -107q0 -24 12.5 -34.5t31.5 -10.5q20 0 49 13z" />
    <glyph glyph-name="Idotaccent" unicode="&#x130;" horiz-adv-x="260" 
d="M163 700v-700h-66v700h66zM95.5 883q14.5 13 34.5 13q21 0 35.5 -13t14.5 -33t-14.5 -33t-35.5 -13q-20 0 -34.5 13t-14.5 33t14.5 33z" />
    <glyph glyph-name="dotlessi" unicode="&#x131;" horiz-adv-x="232" 
d="M147 502v-502h-63v502h63z" />
    <glyph glyph-name="Kcommaaccent" unicode="&#x136;" horiz-adv-x="616" 
d="M512 0l-349 354v-354h-66v700h66v-307l320 307h85l-338 -324l371 -376h-89zM356 -58l-60 -168h-44l43 168h61z" />
    <glyph glyph-name="kcommaaccent" unicode="&#x137;" horiz-adv-x="502" 
d="M397 0l-250 259v-259h-63v752h63v-467l228 217h82l-241 -227l267 -275h-86zM300 -58l-60 -168h-44l43 168h61z" />
    <glyph glyph-name="Lacute" unicode="&#x139;" horiz-adv-x="497" 
d="M460 60v-60h-363v700h66v-640h297zM94 762l79 135h69l-94 -135h-54z" />
    <glyph glyph-name="lacute" unicode="&#x13a;" horiz-adv-x="232" 
d="M147 752v-752h-63v752h63zM84 814l79 135h69l-94 -135h-54z" />
    <glyph glyph-name="Lcommaaccent" unicode="&#x13b;" horiz-adv-x="497" 
d="M460 60v-60h-363v700h66v-640h297zM297 -58l-60 -168h-44l43 168h61z" />
    <glyph glyph-name="lcommaaccent" unicode="&#x13c;" horiz-adv-x="232" 
d="M147 752v-752h-63v752h63zM153 -58l-60 -168h-44l43 168h61z" />
    <glyph glyph-name="Lcaron" unicode="&#x13d;" horiz-adv-x="497" 
d="M460 60v-60h-363v700h66v-640h297zM318 539h-49l21 161h59z" />
    <glyph glyph-name="lcaron" unicode="&#x13e;" horiz-adv-x="267" 
d="M147 752v-752h-63v752h63zM211 574l14 178h54l-24 -178h-44z" />
    <glyph glyph-name="Ldot" unicode="&#x13f;" horiz-adv-x="497" 
d="M460 60v-60h-363v700h66v-640h297zM283 431q15 14 36 14t36.5 -14t15.5 -38t-15.5 -38t-36.5 -14t-36 14t-15 38t15 38z" />
    <glyph glyph-name="ldot" unicode="&#x140;" horiz-adv-x="343" 
d="M147 752v-752h-63v752h63zM241 344q15 14 36 14t36.5 -14t15.5 -38t-15.5 -38t-36.5 -14t-36 14t-15 38t15 38z" />
    <glyph glyph-name="Lslash" unicode="&#x141;" horiz-adv-x="500" 
d="M463 60v-60h-363v282l-73 -41v59l73 41v359h66v-322l166 94v-59l-166 -94v-259h297z" />
    <glyph glyph-name="lslash" unicode="&#x142;" horiz-adv-x="273" 
d="M255 453l-87 -57v-396h-63v355l-88 -57v60l88 57v337h63v-296l87 57v-60z" />
    <glyph glyph-name="Nacute" unicode="&#x143;" horiz-adv-x="751" 
d="M654 700v-700h-48l-443 570v-570h-66v700h48l443 -570v570h66zM326 762l79 135h69l-94 -135h-54z" />
    <glyph glyph-name="nacute" unicode="&#x144;" horiz-adv-x="569" 
d="M443 464.5q52 -51.5 52 -151.5v-313h-63v298q0 79 -36.5 118.5t-97.5 39.5q-64 0 -107.5 -48t-43.5 -136v-272h-63v502h56v-92q24 50 69.5 78t102.5 28q79 0 131 -51.5zM250 592l67 154h64l-82 -154h-49z" />
    <glyph glyph-name="Ncommaaccent" unicode="&#x145;" horiz-adv-x="751" 
d="M654 700v-700h-48l-443 570v-570h-66v700h48l443 -570v570h66zM424 -58l-60 -168h-44l43 168h61z" />
    <glyph glyph-name="ncommaaccent" unicode="&#x146;" horiz-adv-x="569" 
d="M443 464.5q52 -51.5 52 -151.5v-313h-63v298q0 79 -36.5 118.5t-97.5 39.5q-64 0 -107.5 -48t-43.5 -136v-272h-63v502h56v-92q24 50 69.5 78t102.5 28q79 0 131 -51.5zM333 -58l-60 -168h-44l43 168h61z" />
    <glyph glyph-name="Ncaron" unicode="&#x147;" horiz-adv-x="751" 
d="M654 700v-700h-48l-443 570v-570h-66v700h48l443 -570v570h66zM510 887l-113 -122h-44l-113 122h59l76 -72l77 72h58z" />
    <glyph glyph-name="ncaron" unicode="&#x148;" horiz-adv-x="569" 
d="M443 464.5q52 -51.5 52 -151.5v-313h-63v298q0 79 -36.5 118.5t-97.5 39.5q-64 0 -107.5 -48t-43.5 -136v-272h-63v502h56v-92q24 50 69.5 78t102.5 28q79 0 131 -51.5zM417 726l-113 -140h-39l-113 140h55l77 -86l78 86h55z" />
    <glyph glyph-name="Eng" unicode="&#x14a;" horiz-adv-x="751" 
d="M654 700v-750q0 -69 -38 -106.5t-107 -37.5h-67v62h59q87 0 87 92v63l-425 547v-570h-66v700h48l443 -570v570h66z" />
    <glyph glyph-name="eng" unicode="&#x14b;" horiz-adv-x="569" 
d="M443 464.5q52 -51.5 52 -151.5v-390q0 -61 -29.5 -89t-77.5 -28h-49v60h43q50 0 50 64v368q0 79 -36.5 118.5t-97.5 39.5q-64 0 -107.5 -48t-43.5 -136v-272h-63v502h56v-92q24 50 69.5 78t102.5 28q79 0 131 -51.5z" />
    <glyph glyph-name="Omacron" unicode="&#x14c;" horiz-adv-x="852" 
d="M115.5 542.5q48.5 82.5 130.5 127t180 44.5t180 -44.5t130.5 -127t48.5 -192.5t-48.5 -192.5t-130.5 -127t-180 -44.5t-180 44.5t-130.5 127t-48.5 192.5t48.5 192.5zM175 192q39 -68 105 -105t146 -37t146 37t105 105t39 158t-39 158t-105 105t-146 37t-146 -37
t-105 -105t-39 -158t39 -158zM304 796v53h244v-53h-244z" />
    <glyph glyph-name="omacron" unicode="&#x14d;" horiz-adv-x="627" 
d="M87 391q35 60 95 92.5t132 32.5t131.5 -32.5t94.5 -92.5t35 -140t-35 -140t-94.5 -92.5t-131.5 -32.5t-132 32.5t-95 92.5t-35 140t35 140zM142.5 141.5q26.5 -46.5 72 -71.5t99.5 -25t99 25t71.5 71.5t26.5 109.5t-26.5 109.5t-71.5 71.5t-99 25t-99.5 -25t-72 -71.5
t-26.5 -109.5t26.5 -109.5zM197 624v52h233v-52h-233z" />
    <glyph glyph-name="Ohungarumlaut" unicode="&#x150;" horiz-adv-x="852" 
d="M115.5 542.5q48.5 82.5 130.5 127t180 44.5t180 -44.5t130.5 -127t48.5 -192.5t-48.5 -192.5t-130.5 -127t-180 -44.5t-180 44.5t-130.5 127t-48.5 192.5t48.5 192.5zM175 192q39 -68 105 -105t146 -37t146 37t105 105t39 158t-39 158t-105 105t-146 37t-146 -37
t-105 -105t-39 -158t39 -158zM311 762l74 136h63l-84 -136h-53zM443 762l85 136h64l-95 -136h-54z" />
    <glyph glyph-name="ohungarumlaut" unicode="&#x151;" horiz-adv-x="627" 
d="M87 391q35 60 95 92.5t132 32.5t131.5 -32.5t94.5 -92.5t35 -140t-35 -140t-94.5 -92.5t-131.5 -32.5t-132 32.5t-95 92.5t-35 140t35 140zM142.5 141.5q26.5 -46.5 72 -71.5t99.5 -25t99 25t71.5 71.5t26.5 109.5t-26.5 109.5t-71.5 71.5t-99 25t-99.5 -25t-72 -71.5
t-26.5 -109.5t26.5 -109.5zM214 581l59 154h59l-69 -154h-49zM345 581l69 154h60l-80 -154h-49z" />
    <glyph glyph-name="OE" unicode="&#x152;" horiz-adv-x="1168" 
d="M1115 60v-60h-405v134q-46 -71 -120.5 -109.5t-166.5 -38.5q-98 0 -179 44.5t-129 127t-48 192.5t48 192.5t129 127t179 44.5q92 0 166.5 -38.5t120.5 -109.5v134h389v-60h-323v-236h305v-59h-305v-285h339zM572 87q66 37 105 105t39 158t-39 158t-105 105t-146 37
t-146 -37t-105 -105t-39 -158t39 -158t105 -105t146 -37t146 37z" />
    <glyph glyph-name="oe" unicode="&#x153;" horiz-adv-x="1030" 
d="M978 242h-405q2 -67 30.5 -111.5t72.5 -65.5t94 -21q96 0 169 66h8v-69q-78 -55 -176 -55q-75 0 -137.5 36t-92.5 106q-30 -68 -91.5 -105t-138.5 -37q-72 0 -131 32t-93.5 92.5t-34.5 140.5t34.5 140.5t93.5 92.5t131 32q77 0 138.5 -37t91.5 -104q30 69 90 105t133 36
q96 0 156 -60.5t61 -175.5q0 -20 -3 -38zM638.5 417.5q-50.5 -42.5 -62.5 -122.5h343q-4 81 -46 123t-113 42t-121.5 -42.5zM413 70q45 25 71.5 71.5t26.5 109.5t-26.5 109.5t-71.5 71.5t-99 25t-99.5 -25t-72 -71.5t-26.5 -109.5t26.5 -109.5t72 -71.5t99.5 -25t99 25z" />
    <glyph glyph-name="Racute" unicode="&#x154;" horiz-adv-x="638" 
d="M298 320h-135v-320h-66v700h267q103 0 160.5 -50t57.5 -139q0 -90 -56.5 -139.5t-153.5 -49.5l-7 59q71 0 109 32.5t38 96.5q0 62 -38.5 96t-112.5 34h-198v-259h202l6 -59l223 -322h-78zM270 762l79 135h69l-94 -135h-54z" />
    <glyph glyph-name="racute" unicode="&#x155;" horiz-adv-x="384" 
d="M356 502v-59h-75q-65 0 -99.5 -53t-34.5 -142v-248h-63v502h56v-110q20 50 57.5 80t92.5 30h66zM189 592l67 154h64l-82 -154h-49z" />
    <glyph glyph-name="Rcommaaccent" unicode="&#x156;" horiz-adv-x="638" 
d="M298 320h-135v-320h-66v700h267q103 0 160.5 -50t57.5 -139q0 -90 -56.5 -139.5t-153.5 -49.5l-7 59q71 0 109 32.5t38 96.5q0 62 -38.5 96t-112.5 34h-198v-259h202l6 -59l223 -322h-78zM368 -58l-60 -168h-44l43 168h61z" />
    <glyph glyph-name="rcommaaccent" unicode="&#x157;" horiz-adv-x="384" 
d="M356 502v-59h-75q-65 0 -99.5 -53t-34.5 -142v-248h-63v502h56v-110q20 50 57.5 80t92.5 30h66zM153 -58l-60 -168h-44l43 168h61z" />
    <glyph glyph-name="Rcaron" unicode="&#x158;" horiz-adv-x="638" 
d="M298 320h-135v-320h-66v700h267q103 0 160.5 -50t57.5 -139q0 -90 -56.5 -139.5t-153.5 -49.5l-7 59q71 0 109 32.5t38 96.5q0 62 -38.5 96t-112.5 34h-198v-259h202l6 -59l223 -322h-78zM454 887l-113 -122h-44l-113 122h59l76 -72l77 72h58z" />
    <glyph glyph-name="rcaron" unicode="&#x159;" horiz-adv-x="384" 
d="M356 502v-59h-75q-65 0 -99.5 -53t-34.5 -142v-248h-63v502h56v-110q20 50 57.5 80t92.5 30h66zM356 726l-113 -140h-39l-113 140h55l77 -86l78 86h55z" />
    <glyph glyph-name="Sacute" unicode="&#x15a;" horiz-adv-x="533" 
d="M44 129h10q88 -81 201 -81q78 0 119 33t41 89q0 45 -24.5 78.5t-65.5 50.5l-126 57q-140 62 -140 191q0 86 57 126.5t147 40.5q101 0 181 -47v-75h-10q-43 32 -84.5 46t-85.5 14q-63 0 -99 -27.5t-36 -78.5q0 -84 108 -133l125 -55q61 -27 91.5 -77t30.5 -111
q0 -91 -61.5 -137.5t-169.5 -46.5q-66 0 -116.5 15.5t-92.5 43.5v84zM218 762l79 135h69l-94 -135h-54z" />
    <glyph glyph-name="sacute" unicode="&#x15b;" horiz-adv-x="445" 
d="M47 102h9q33 -30 71.5 -43.5t85.5 -13.5q56 0 87 18.5t31 54.5q0 53 -65 84l-112 53q-98 48 -98 139q0 64 47.5 93t114.5 29q85 0 146 -45v-61h-7q-37 26 -68 36.5t-69 10.5q-48 0 -74 -17t-26 -48q0 -26 18.5 -48t53.5 -38l105 -51q98 -48 98 -135q0 -69 -52.5 -101.5
t-129.5 -32.5q-49 0 -92 12.5t-74 34.5v69zM188 592l67 154h64l-82 -154h-49z" />
    <glyph glyph-name="Scedilla" unicode="&#x15e;" horiz-adv-x="533" 
d="M437.5 46.5q-46.5 -45.5 -129.5 -57.5q37 -46 37 -94q0 -44 -28.5 -68t-69.5 -24q-23 0 -59 11v43q27 -8 46 -8q25 0 41 14.5t16 41.5q0 37 -31 81h-7q-66 0 -116.5 15.5t-92.5 43.5v84h10q88 -81 201 -81q78 0 119 33t41 89q0 45 -24.5 78.5t-65.5 50.5l-126 57
q-140 62 -140 191q0 86 57 126.5t147 40.5q101 0 181 -47v-75h-10q-43 32 -84.5 46t-85.5 14q-63 0 -99 -27.5t-36 -78.5q0 -84 108 -133l125 -55q61 -27 91.5 -77t30.5 -111q0 -78 -46.5 -123.5z" />
    <glyph glyph-name="scedilla" unicode="&#x15f;" horiz-adv-x="445" 
d="M358.5 31q-36.5 -32 -94.5 -41q37 -48 37 -95q0 -44 -28.5 -68t-69.5 -24q-23 0 -59 11v43q27 -8 46 -8q25 0 41 14.5t16 41.5q0 37 -31 81h-3q-49 0 -92 12.5t-74 34.5v69h9q33 -30 71.5 -43.5t85.5 -13.5q56 0 87 18.5t31 54.5q0 53 -65 84l-112 53q-98 48 -98 139
q0 64 47.5 93t114.5 29q85 0 146 -45v-61h-7q-37 26 -68 36.5t-69 10.5q-48 0 -74 -17t-26 -48q0 -26 18.5 -48t53.5 -38l105 -51q98 -48 98 -135q0 -57 -36.5 -89z" />
    <glyph glyph-name="Scaron" unicode="&#x160;" horiz-adv-x="533" 
d="M44 129h10q88 -81 201 -81q78 0 119 33t41 89q0 45 -24.5 78.5t-65.5 50.5l-126 57q-140 62 -140 191q0 86 57 126.5t147 40.5q101 0 181 -47v-75h-10q-43 32 -84.5 46t-85.5 14q-63 0 -99 -27.5t-36 -78.5q0 -84 108 -133l125 -55q61 -27 91.5 -77t30.5 -111
q0 -91 -61.5 -137.5t-169.5 -46.5q-66 0 -116.5 15.5t-92.5 43.5v84zM401 887l-113 -122h-44l-113 122h59l76 -72l77 72h58z" />
    <glyph glyph-name="scaron" unicode="&#x161;" horiz-adv-x="445" 
d="M47 102h9q33 -30 71.5 -43.5t85.5 -13.5q56 0 87 18.5t31 54.5q0 53 -65 84l-112 53q-98 48 -98 139q0 64 47.5 93t114.5 29q85 0 146 -45v-61h-7q-37 26 -68 36.5t-69 10.5q-48 0 -74 -17t-26 -48q0 -26 18.5 -48t53.5 -38l105 -51q98 -48 98 -135q0 -69 -52.5 -101.5
t-129.5 -32.5q-49 0 -92 12.5t-74 34.5v69zM355 726l-113 -140h-39l-113 140h55l77 -86l78 86h55z" />
    <glyph glyph-name="uni0162" unicode="&#x162;" horiz-adv-x="555" 
d="M513 640h-202v-640h-66v640h-203v60h471v-60zM191 -143q27 -8 46 -8q25 0 41 14.5t16 41.5q0 42 -41 95h49q46 -52 46 -105q0 -44 -28.5 -68t-69.5 -24q-23 0 -59 11v43z" />
    <glyph glyph-name="uni0163" unicode="&#x163;" horiz-adv-x="404" 
d="M208 446v-300q0 -43 23.5 -64.5t62.5 -21.5h67v-60h-75h-7q46 -50 46 -105q0 -44 -28 -68t-69 -24q-23 0 -59 11v43q27 -8 46 -8q25 0 40.5 14.5t15.5 41.5q0 43 -45 104q-38 13 -59.5 44.5t-21.5 83.5v309h-122v56h122v150h63v-150h159v-56h-159z" />
    <glyph glyph-name="Tcaron" unicode="&#x164;" horiz-adv-x="555" 
d="M513 640h-202v-640h-66v640h-203v60h471v-60zM412 887l-113 -122h-44l-113 122h59l76 -72l77 72h58z" />
    <glyph glyph-name="tcaron" unicode="&#x165;" horiz-adv-x="404" 
d="M360 574h-44l14 178h53zM208 502h159v-56h-159v-300q0 -43 23.5 -64.5t62.5 -21.5h67v-60h-75q-63 0 -102 33t-39 104v309h-122v56h122v150h63v-150z" />
    <glyph glyph-name="Tbar" unicode="&#x166;" horiz-adv-x="555" 
d="M311 640v-237h123v-60h-123v-343h-66v343h-124v60h124v237h-203v60h471v-60h-202z" />
    <glyph glyph-name="tbar" unicode="&#x167;" horiz-adv-x="404" 
d="M208 446v-122h159v-46h-159v-132q0 -43 23.5 -64.5t62.5 -21.5h67v-60h-75q-63 0 -102 33t-39 104v141h-122v46h122v122h-122v56h122v150h63v-150h159v-56h-159z" />
    <glyph glyph-name="Umacron" unicode="&#x16a;" horiz-adv-x="703" 
d="M89 700h66v-429q0 -114 53 -168t144 -54q90 0 143 54t53 168v429h66v-436q0 -137 -71 -207.5t-191 -70.5t-191.5 70.5t-71.5 207.5v436zM230 796v53h244v-53h-244z" />
    <glyph glyph-name="umacron" unicode="&#x16b;" horiz-adv-x="569" 
d="M485 502v-502h-55v99q-25 -53 -70 -83t-103 -30q-51 0 -92.5 23t-66 70.5t-24.5 116.5v306h63v-296q0 -79 37 -119.5t97 -40.5q41 0 75.5 22.5t55 66t20.5 102.5v265h63zM168 624v52h233v-52h-233z" />
    <glyph glyph-name="Uring" unicode="&#x16e;" horiz-adv-x="703" 
d="M89 700h66v-429q0 -114 53 -168t144 -54q90 0 143 54t53 168v429h66v-436q0 -137 -71 -207.5t-191 -70.5t-191.5 70.5t-71.5 207.5v436zM419 900q28 -23 28 -64t-28 -63.5t-67 -22.5q-40 0 -67.5 22.5t-27.5 63.5t27.5 64t67.5 23q39 0 67 -23zM389 802q15 13 15 34
t-15 35t-37 14t-37 -14t-15 -35t15 -34t37 -13t37 13z" />
    <glyph glyph-name="uring" unicode="&#x16f;" horiz-adv-x="569" 
d="M485 502v-502h-55v99q-25 -53 -70 -83t-103 -30q-51 0 -92.5 23t-66 70.5t-24.5 116.5v306h63v-296q0 -79 37 -119.5t97 -40.5q41 0 75.5 22.5t55 66t20.5 102.5v265h63zM219.5 727q27.5 24 65.5 24q37 0 65 -24t28 -64q0 -41 -27.5 -65t-65.5 -24t-65.5 24t-27.5 65
q0 40 27.5 64zM249 626q15 -14 36 -14t36 14t15 37t-15 37t-36 14t-36 -14t-15 -37t15 -37z" />
    <glyph glyph-name="Uhungarumlaut" unicode="&#x170;" horiz-adv-x="703" 
d="M89 700h66v-429q0 -114 53 -168t144 -54q90 0 143 54t53 168v429h66v-436q0 -137 -71 -207.5t-191 -70.5t-191.5 70.5t-71.5 207.5v436zM237 762l74 136h63l-84 -136h-53zM369 762l85 136h64l-95 -136h-54z" />
    <glyph glyph-name="uhungarumlaut" unicode="&#x171;" horiz-adv-x="569" 
d="M485 502v-502h-55v99q-25 -53 -70 -83t-103 -30q-51 0 -92.5 23t-66 70.5t-24.5 116.5v306h63v-296q0 -79 37 -119.5t97 -40.5q41 0 75.5 22.5t55 66t20.5 102.5v265h63zM185 581l59 154h59l-69 -154h-49zM316 581l69 154h60l-80 -154h-49z" />
    <glyph glyph-name="Uogonek" unicode="&#x172;" horiz-adv-x="703" 
d="M614 700v-436q0 -97 -37 -161.5t-104 -93.5q-54 -32 -77 -62.5t-23 -56.5q0 -21 12.5 -31.5t32.5 -10.5t56 13v-44q-37 -15 -67 -15q-39 0 -63.5 20.5t-24.5 55.5q0 29 18 57t55 53q-26 -2 -40 -2q-120 0 -191.5 70.5t-71.5 207.5v436h66v-429q0 -114 53 -168t144 -54
q90 0 143 54t53 168v429h66z" />
    <glyph glyph-name="uogonek" unicode="&#x173;" horiz-adv-x="569" 
d="M485 502v-502h-55v99q-25 -53 -70 -83t-103 -30q-51 0 -92.5 23t-66 70.5t-24.5 116.5v306h63v-296q0 -79 37 -119.5t97 -40.5q41 0 75.5 22.5t55 66t20.5 102.5v265h63zM367.5 -57q23.5 32 71.5 59l45 -2q-44 -28 -65 -56.5t-21 -53.5q0 -21 13 -31.5t32 -10.5
q20 0 56 13v-44q-36 -15 -67 -15q-39 0 -63.5 20.5t-24.5 55.5q0 33 23.5 65z" />
    <glyph glyph-name="Wcircumflex" unicode="&#x174;" horiz-adv-x="1013" 
d="M978 700l-252 -700h-50l-169 567l-170 -567h-49l-253 700h73l203 -582l174 582h44l174 -582l203 582h72zM583 765l-76 72l-77 -72h-58l113 122h44l113 -122h-59z" />
    <glyph glyph-name="wcircumflex" unicode="&#x175;" horiz-adv-x="823" 
d="M790 502l-199 -502h-41l-139 396l-139 -396h-40l-200 502h71l148 -402l142 402h36l143 -403l149 403h69zM488 586l-77 86l-78 -86h-54l113 140h39l113 -140h-56z" />
    <glyph glyph-name="Ycircumflex" unicode="&#x176;" horiz-adv-x="636" 
d="M351 319v-319h-66v319l-260 381h79l214 -318l215 318h78zM394 765l-76 72l-77 -72h-58l113 122h44l113 -122h-59z" />
    <glyph glyph-name="ycircumflex" unicode="&#x177;" horiz-adv-x="513" 
d="M484 502l-297 -696h-69l117 274l-210 422h70l173 -355l148 355h68zM333 586l-77 86l-78 -86h-54l113 140h39l113 -140h-56z" />
    <glyph glyph-name="Ydieresis" unicode="&#x178;" horiz-adv-x="636" 
d="M351 319v-319h-66v319l-260 381h79l214 -318l215 318h78zM186.5 855.5q12.5 11.5 30.5 11.5q19 0 31.5 -11.5t12.5 -31.5q0 -19 -12.5 -30.5t-31.5 -11.5q-18 0 -30.5 11.5t-12.5 30.5q0 20 12.5 31.5zM387.5 855.5q12.5 11.5 30.5 11.5q19 0 31.5 -11.5t12.5 -31.5
q0 -19 -12.5 -30.5t-31.5 -11.5q-18 0 -30.5 11.5t-12.5 30.5q0 20 12.5 31.5z" />
    <glyph glyph-name="Zacute" unicode="&#x179;" horiz-adv-x="572" 
d="M525 60v-60h-483v33l376 607h-346v60h439v-33l-376 -607h390zM237 762l79 135h69l-94 -135h-54z" />
    <glyph glyph-name="zacute" unicode="&#x17a;" horiz-adv-x="457" 
d="M420 56v-56h-384v30l280 416h-254v56h345v-30l-280 -416h293zM194 592l67 154h64l-82 -154h-49z" />
    <glyph glyph-name="Zdotaccent" unicode="&#x17b;" horiz-adv-x="572" 
d="M525 60v-60h-483v33l376 607h-346v60h439v-33l-376 -607h390zM250.5 883q14.5 13 34.5 13q21 0 35.5 -13t14.5 -33t-14.5 -33t-35.5 -13q-20 0 -34.5 13t-14.5 33t14.5 33z" />
    <glyph glyph-name="zdotaccent" unicode="&#x17c;" horiz-adv-x="457" 
d="M420 56v-56h-384v30l280 416h-254v56h345v-30l-280 -416h293zM196 691q14 13 34 13q19 0 33 -13t14 -34q0 -20 -14 -33t-33 -13q-20 0 -34 13t-14 33q0 21 14 34z" />
    <glyph glyph-name="Zcaron" unicode="&#x17d;" horiz-adv-x="572" 
d="M525 60v-60h-483v33l376 607h-346v60h439v-33l-376 -607h390zM420 887l-113 -122h-44l-113 122h59l76 -72l77 72h58z" />
    <glyph glyph-name="zcaron" unicode="&#x17e;" horiz-adv-x="457" 
d="M420 56v-56h-384v30l280 416h-254v56h345v-30l-280 -416h293zM361 726l-113 -140h-39l-113 140h55l77 -86l78 86h55z" />
    <glyph glyph-name="Scommaaccent" unicode="&#x218;" horiz-adv-x="533" 
d="M44 129h10q88 -81 201 -81q78 0 119 33t41 89q0 45 -24.5 78.5t-65.5 50.5l-126 57q-140 62 -140 191q0 86 57 126.5t147 40.5q101 0 181 -47v-75h-10q-43 32 -84.5 46t-85.5 14q-63 0 -99 -27.5t-36 -78.5q0 -84 108 -133l125 -55q61 -27 91.5 -77t30.5 -111
q0 -91 -61.5 -137.5t-169.5 -46.5q-66 0 -116.5 15.5t-92.5 43.5v84zM315 -58l-60 -168h-44l43 168h61z" />
    <glyph glyph-name="scommaaccent" unicode="&#x219;" horiz-adv-x="445" 
d="M47 102h9q33 -30 71.5 -43.5t85.5 -13.5q56 0 87 18.5t31 54.5q0 53 -65 84l-112 53q-98 48 -98 139q0 64 47.5 93t114.5 29q85 0 146 -45v-61h-7q-37 26 -68 36.5t-69 10.5q-48 0 -74 -17t-26 -48q0 -26 18.5 -48t53.5 -38l105 -51q98 -48 98 -135q0 -69 -52.5 -101.5
t-129.5 -32.5q-49 0 -92 12.5t-74 34.5v69zM271 -58l-60 -168h-44l43 168h61z" />
    <glyph glyph-name="uni021A" unicode="&#x21a;" horiz-adv-x="555" 
d="M513 640h-202v-640h-66v640h-203v60h471v-60zM311 -58l-60 -168h-44l43 168h61z" />
    <glyph glyph-name="uni021B" unicode="&#x21b;" horiz-adv-x="404" 
d="M208 446v-300q0 -43 23.5 -64.5t62.5 -21.5h67v-60h-75q-63 0 -102 33t-39 104v309h-122v56h122v150h63v-150h159v-56h-159zM292 -58l-60 -168h-44l43 168h61z" />
    <glyph glyph-name="gravecomb" unicode="&#x300;" 
d="M-171 746h65l66 -154h-48z" />
    <glyph glyph-name="acutecomb" unicode="&#x301;" 
d="M-171 592l67 154h64l-82 -154h-49z" />
    <glyph glyph-name="uni0302" unicode="&#x302;" 
d="M-96 586l-77 86l-78 -86h-54l113 140h39l113 -140h-56z" />
    <glyph glyph-name="tildecomb" unicode="&#x303;" 
d="M-299 682q23 28 56 28q23 0 39.5 -10t30 -22.5t18.5 -16.5q18 -16 34 -16q35 0 39 58h42q-1 -56 -24 -84t-56 -28q-22 0 -38.5 9.5t-30.5 21.5t-19 17q-17 17 -34 17q-35 0 -39 -58h-42q1 56 24 84z" />
    <glyph glyph-name="uni0304" unicode="&#x304;" 
d="M-273 624v52h233v-52h-233z" />
    <glyph glyph-name="uni0306" unicode="&#x306;" 
d="M-298 732h44v-12q0 -42 22 -64.5t63 -22.5q42 0 63.5 22.5t21.5 64.5v12h44v-8q0 -71 -34 -106t-95 -35t-95 35t-34 106v8z" />
    <glyph glyph-name="uni0307" unicode="&#x307;" 
d="M-121 691q14 13 34 13q19 0 33 -13t14 -34q0 -20 -14 -33t-33 -13q-20 0 -34 13t-14 33q0 21 14 34z" />
    <glyph glyph-name="uni0308" unicode="&#x308;" 
d="M-305 683q12 11 29 11q18 0 29.5 -11t11.5 -30t-11.5 -30.5t-29.5 -11.5q-17 0 -29 11.5t-12 30.5t12 30zM-110.5 683q11.5 11 29.5 11q17 0 29 -11t12 -30t-12 -30.5t-29 -11.5q-18 0 -29.5 11.5t-11.5 30.5t11.5 30z" />
    <glyph glyph-name="uni030A" unicode="&#x30a;" 
d="M-198.5 727q27.5 24 65.5 24q37 0 65 -24t28 -64q0 -41 -27.5 -65t-65.5 -24t-65.5 24t-27.5 65q0 40 27.5 64zM-169 626q15 -14 36 -14t36 14t15 37t-15 37t-36 14t-36 -14t-15 -37t15 -37z" />
    <glyph glyph-name="uni030B" unicode="&#x30b;" 
d="M-300 581l59 154h59l-69 -154h-49zM-169 581l69 154h60l-80 -154h-49z" />
    <glyph glyph-name="uni030C" unicode="&#x30c;" 
d="M-40 726l-113 -140h-39l-113 140h55l77 -86l78 86h55z" />
    <glyph glyph-name="uni0312" unicode="&#x312;" 
d="M-144 580l60 168h44l-43 -168h-61z" />
    <glyph glyph-name="uni0326" unicode="&#x326;" 
d="M-40 -58l-60 -168h-44l43 168h61z" />
    <glyph glyph-name="uni0327" unicode="&#x327;" 
d="M-197 -143q27 -8 46 -8q25 0 41 14.5t16 41.5q0 42 -41 95h49q46 -52 46 -105q0 -44 -28.5 -68t-69.5 -24q-23 0 -59 11v43z" />
    <glyph glyph-name="uni0328" unicode="&#x328;" 
d="M-171.5 -57q23.5 32 71.5 59l45 -2q-44 -28 -65 -56.5t-21 -53.5q0 -21 13 -31.5t32 -10.5q20 0 56 13v-44q-36 -15 -67 -15q-39 0 -63.5 20.5t-24.5 55.5q0 33 23.5 65z" />
    <glyph glyph-name="uni0335" unicode="&#x335;" 
d="M-356 648h316v-48h-316v48z" />
    <glyph glyph-name="uni0336" unicode="&#x336;" 
d="M-736 598h696v-48h-696v48z" />
    <glyph glyph-name="uni0337" unicode="&#x337;" 
d="M-278 286l238 155v-60l-238 -155v60z" />
    <glyph glyph-name="uni0338" unicode="&#x338;" 
d="M-444 -42l-39 27l404 559l39 -27z" />
    <glyph glyph-name="pi" unicode="&#x3c0;" horiz-adv-x="541" 
d="M508 58v-58h-25q-53 0 -86 31t-33 97v318h-203v-446h-63v446h-72v56h471v-56h-74v-309q0 -39 19 -59t53 -20h13z" />
    <glyph glyph-name="uni0401" unicode="&#x401;" horiz-adv-x="555" 
d="M502 60v-60h-405v700h389v-60h-323v-236h304v-59h-304v-285h339zM162.5 855.5q12.5 11.5 30.5 11.5q19 0 31.5 -11.5t12.5 -31.5q0 -19 -12.5 -30.5t-31.5 -11.5q-18 0 -30.5 11.5t-12.5 30.5q0 20 12.5 31.5zM363.5 855.5q12.5 11.5 30.5 11.5q19 0 31.5 -11.5
t12.5 -31.5q0 -19 -12.5 -30.5t-31.5 -11.5q-18 0 -30.5 11.5t-12.5 30.5q0 20 12.5 31.5z" />
    <glyph glyph-name="uni0404" unicode="&#x404;" horiz-adv-x="680" 
d="M630 137v-82q-44 -33 -101.5 -51t-119.5 -18q-96 0 -174 44t-123 127t-45 196q0 112 44.5 194t121.5 124.5t173 42.5q59 0 114.5 -16.5t98.5 -46.5v-77h-10q-40 37 -92.5 56.5t-108.5 19.5q-74 0 -133 -31.5t-95 -90.5t-43 -139l357 -1v-59l-357 -1q5 -84 42 -147t97 -97
t132 -34q59 0 116 22.5t96 64.5h10z" />
    <glyph glyph-name="uni0406" unicode="&#x406;" horiz-adv-x="260" 
d="M163 700v-700h-66v700h66z" />
    <glyph glyph-name="uni0407" unicode="&#x407;" horiz-adv-x="260" 
d="M163 700v-700h-66v700h66zM-1.5 855.5q12.5 11.5 30.5 11.5q19 0 31.5 -11.5t12.5 -31.5q0 -19 -12.5 -30.5t-31.5 -11.5q-18 0 -30.5 11.5t-12.5 30.5q0 20 12.5 31.5zM199.5 855.5q12.5 11.5 30.5 11.5q19 0 31.5 -11.5t12.5 -31.5q0 -19 -12.5 -30.5t-31.5 -11.5
q-18 0 -30.5 11.5t-12.5 30.5q0 20 12.5 31.5z" />
    <glyph glyph-name="uni040E" unicode="&#x40e;" horiz-adv-x="643" 
d="M611 700l-241 -567q-31 -74 -72 -103.5t-105 -29.5h-38v63h34q49 0 76 21t50 79l6 13l-280 524h72l241 -462l189 462h68zM469 897v-13q0 -66 -39.5 -99.5t-107.5 -33.5t-107.5 33.5t-39.5 99.5v13h57v-17q0 -39 23.5 -59.5t66.5 -20.5q42 0 66 20.5t24 59.5v17h57z" />
    <glyph glyph-name="uni0410" unicode="&#x410;" horiz-adv-x="681" 
d="M503 198h-327l-80 -198h-70l291 700h46l292 -700h-72zM480 256l-140 349l-141 -349h281z" />
    <glyph glyph-name="uni0411" unicode="&#x411;" horiz-adv-x="646" 
d="M477 396q53 -25 83 -72.5t30 -112.5t-30 -112.5t-83 -73t-121 -25.5h-259v700h435v-60h-369v-219h193q68 0 121 -25zM473 97.5q48 37.5 48 113.5t-48 113.5t-124 37.5h-186v-302h186q76 0 124 37.5z" />
    <glyph glyph-name="uni0412" unicode="&#x412;" horiz-adv-x="647" 
d="M554 311.5q39 -46.5 39 -119.5q0 -91 -59.5 -141.5t-177.5 -50.5h-259v700h233q104 0 160.5 -47t56.5 -129q0 -54 -26.5 -93t-82.5 -57q77 -16 116 -62.5zM439 606q-39 34 -117 34h-159v-250h159q77 0 116.5 34.5t39.5 89.5q0 58 -39 92zM524 196q0 136 -175 136h-186
v-272h186q175 0 175 136z" />
    <glyph glyph-name="uni0413" unicode="&#x413;" horiz-adv-x="524" 
d="M478 640h-315v-640h-66v700h381v-60z" />
    <glyph glyph-name="uni0414" unicode="&#x414;" horiz-adv-x="743" 
d="M706 60v-208h-62v148h-553l-2 -2l-2 2h-3v-148h-62v208h52q50 52 76 164.5t32 336.5l3 139h425v-640h96zM147 60h397v580h-296q-6 -133 -13.5 -226t-20.5 -169q-18 -115 -67 -185z" />
    <glyph glyph-name="uni0415" unicode="&#x415;" horiz-adv-x="555" 
d="M502 60v-60h-405v700h389v-60h-323v-236h304v-59h-304v-285h339z" />
    <glyph glyph-name="uni0416" unicode="&#x416;" horiz-adv-x="922" 
d="M814 0l-320 352v-352h-66v352l-320 -352h-88l342 374l-322 326h85l303 -307v307h66v-307l303 307h85l-322 -326l343 -374h-89z" />
    <glyph glyph-name="uni0417" unicode="&#x417;" horiz-adv-x="593" 
d="M499.5 316q39.5 -50 39.5 -123q0 -94 -65.5 -150.5t-194.5 -56.5q-142 0 -233 63v81h10q40 -40 98 -60.5t126 -20.5q94 0 141.5 41.5t47.5 107.5q0 71 -52.5 110.5t-146.5 39.5h-80v59h78q85 0 128 33.5t43 89.5q0 53 -40 87t-118 34q-56 0 -106 -19t-88 -54h-9v74
q41 30 96 46t113 16q69 0 119 -23t76 -62.5t26 -88.5q0 -53 -30.5 -93.5t-89.5 -60.5q72 -20 111.5 -70z" />
    <glyph glyph-name="uni0418" unicode="&#x418;" horiz-adv-x="747" 
d="M650 700v-700h-66v583l-435 -583h-52v700h66v-583l435 583h52z" />
    <glyph glyph-name="uni0419" unicode="&#x419;" horiz-adv-x="747" 
d="M650 700v-700h-66v583l-435 -583h-52v700h66v-583l435 583h52zM521 897v-13q0 -66 -39.5 -99.5t-107.5 -33.5t-107.5 33.5t-39.5 99.5v13h57v-17q0 -39 23.5 -59.5t66.5 -20.5q42 0 66 20.5t24 59.5v17h57z" />
    <glyph glyph-name="uni041A" unicode="&#x41a;" horiz-adv-x="616" 
d="M512 0l-349 354v-354h-66v700h66v-307l320 307h85l-338 -324l371 -376h-89z" />
    <glyph glyph-name="uni041B" unicode="&#x41b;" horiz-adv-x="712" 
d="M615 700v-700h-66v640h-301l-2 -39q-10 -232 -19 -328q-13 -135 -51 -204t-126 -69h-30v63h18q53 0 81 43t42 147.5t21 307.5l5 139h428z" />
    <glyph glyph-name="uni041C" unicode="&#x41c;" horiz-adv-x="849" 
d="M751 700v-700h-66v558l-246 -337h-29l-247 335v-556h-66v700h41l287 -395l286 395h40z" />
    <glyph glyph-name="uni041D" unicode="&#x41d;" horiz-adv-x="740" 
d="M642 700v-700h-66v344h-413v-344h-66v700h66v-296h413v296h66z" />
    <glyph glyph-name="uni041E" unicode="&#x41e;" horiz-adv-x="852" 
d="M115.5 542.5q48.5 82.5 130.5 127t180 44.5t180 -44.5t130.5 -127t48.5 -192.5t-48.5 -192.5t-130.5 -127t-180 -44.5t-180 44.5t-130.5 127t-48.5 192.5t48.5 192.5zM175 192q39 -68 105 -105t146 -37t146 37t105 105t39 158t-39 158t-105 105t-146 37t-146 -37
t-105 -105t-39 -158t39 -158z" />
    <glyph glyph-name="uni041F" unicode="&#x41f;" horiz-adv-x="730" 
d="M633 700v-700h-66v640h-404v-640h-66v700h536z" />
    <glyph glyph-name="uni0420" unicode="&#x420;" horiz-adv-x="625" 
d="M519.5 646.5q58.5 -53.5 58.5 -147.5q0 -91 -57 -143t-162 -52h-196v-304h-66v700h259q105 0 163.5 -53.5zM468 399q40 36 40 102q0 69 -42 104t-115 35h-188v-277h192q73 0 113 36z" />
    <glyph glyph-name="uni0421" unicode="&#x421;" horiz-adv-x="686" 
d="M114 545q47 82 128 125.5t180 43.5q62 0 112 -16.5t93 -49.5v-77h-10q-40 39 -87.5 59t-110.5 20q-79 0 -143.5 -37t-102 -105t-37.5 -158t38 -158t103.5 -105t144.5 -37q123 0 204 90h10v-82q-92 -72 -213 -72q-100 0 -181 43t-128 125.5t-47 195.5t47 195z" />
    <glyph glyph-name="uni0422" unicode="&#x422;" horiz-adv-x="555" 
d="M513 640h-202v-640h-66v640h-203v60h471v-60z" />
    <glyph glyph-name="uni0423" unicode="&#x423;" horiz-adv-x="643" 
d="M611 700l-241 -567q-31 -74 -72 -103.5t-105 -29.5h-38v63h34q49 0 76 21t50 79l6 13l-280 524h72l241 -462l189 462h68z" />
    <glyph glyph-name="uni0424" unicode="&#x424;" horiz-adv-x="904" 
d="M795.5 191q-41.5 -71 -121 -110.5t-189.5 -39.5v-71h-66v71q-110 0 -189.5 39.5t-121 110.5t-41.5 163t41.5 163t121 110.5t189.5 39.5v61h66v-61q110 0 189.5 -39.5t121 -110.5t41.5 -163t-41.5 -163zM169 224q33 -56 96.5 -87.5t153.5 -32.5v500q-90 -1 -153.5 -32.5
t-96.5 -87.5t-33 -130t33 -130zM639 136.5q64 31.5 96.5 87.5t32.5 130t-32.5 130t-96.5 87.5t-154 32.5v-500q90 1 154 32.5z" />
    <glyph glyph-name="uni0425" unicode="&#x425;" horiz-adv-x="628" 
d="M523 -1l-211 318l-209 -318h-74l244 364l-225 337h76l190 -287l188 287h74l-223 -334l246 -367h-76z" />
    <glyph glyph-name="uni0426" unicode="&#x426;" horiz-adv-x="753" 
d="M716 60v-208h-62v148h-557v700h66v-640h397v640h66v-640h90z" />
    <glyph glyph-name="uni0427" unicode="&#x427;" horiz-adv-x="687" 
d="M590 700v-700h-66v312q-107 -39 -203 -39q-117 0 -185.5 63t-68.5 188v176h66v-170q0 -97 53 -146t149 -49q46 0 95.5 10t93.5 26v329h66z" />
    <glyph glyph-name="uni0428" unicode="&#x428;" horiz-adv-x="1020" 
d="M922 700v-700h-825v700h66v-640h314v640h66v-640h313v640h66z" />
    <glyph glyph-name="uni0429" unicode="&#x429;" horiz-adv-x="1049" 
d="M1012 60v-208h-62v148h-853v700h66v-640h314v640h66v-640h313v640h66v-640h90z" />
    <glyph glyph-name="uni042A" unicode="&#x42a;" horiz-adv-x="761" 
d="M602 400.5q53 -25.5 83 -73t30 -113.5t-30 -114.5t-83 -74t-121 -25.5h-261v640h-183v60h249v-274h195q68 0 121 -25.5zM598 98q48 38 48 116q0 77 -48 115t-124 38h-188v-307h188q76 0 124 38z" />
    <glyph glyph-name="uni042B" unicode="&#x42b;" horiz-adv-x="844" 
d="M459 400.5q53 -25.5 83 -73t30 -113.5t-30 -114.5t-83 -74t-121 -25.5h-241v700h66v-274h175q68 0 121 -25.5zM746 700v-700h-66v700h66zM454 98q48 38 48 116q0 77 -48 115t-124 38h-167v-307h167q76 0 124 38z" />
    <glyph glyph-name="uni042C" unicode="&#x42c;" horiz-adv-x="639" 
d="M479 400.5q53 -25.5 83 -73t30 -113.5t-30 -114.5t-83 -74t-121 -25.5h-261v700h66v-274h195q68 0 121 -25.5zM475 98q48 38 48 116q0 77 -48 115t-124 38h-188v-307h188q76 0 124 38z" />
    <glyph glyph-name="uni042D" unicode="&#x42d;" horiz-adv-x="680" 
d="M448 671.5q77 -42.5 121.5 -124.5t44.5 -194q0 -113 -45 -196t-123 -127t-175 -44q-62 0 -119.5 18t-101.5 51v82h11q39 -42 95.5 -64.5t115.5 -22.5q72 0 132 34.5t97.5 97.5t42.5 146l-358 1v59l357 1q-7 80 -43 139t-94.5 90.5t-132.5 31.5q-57 0 -109.5 -19.5
t-92.5 -56.5h-9v77q43 30 98 46.5t114 16.5q97 0 174 -42.5z" />
    <glyph glyph-name="uni042E" unicode="&#x42e;" horiz-adv-x="1050" 
d="M812.5 671q78.5 -43 124.5 -125.5t46 -195.5t-46 -195.5t-124.5 -125.5t-173.5 -43q-92 0 -169 41t-124 119.5t-50 187.5h-133v-334h-66v700h66v-306h135q9 100 56.5 172.5t121.5 110t163 37.5q95 0 173.5 -43zM777.5 85q62.5 35 99.5 103t37 162t-37 162t-99.5 103
t-138.5 35t-138.5 -35t-99 -103t-36.5 -162t36.5 -162t99 -103t138.5 -35t138.5 35z" />
    <glyph glyph-name="uni042F" unicode="&#x42f;" horiz-adv-x="651" 
d="M554 700v-700h-66v298h-126l-234 -298h-79l236 298l10 61h193v281h-189q-76 0 -118 -38.5t-42 -103.5q0 -66 41.5 -102.5t114.5 -36.5l-10 -60q-98 0 -156.5 54.5t-58.5 146.5q0 91 59.5 145.5t163.5 54.5h261z" />
    <glyph glyph-name="uni0430" unicode="&#x430;" horiz-adv-x="531" 
d="M402 469.5q55 -46.5 55 -145.5v-324h-55v55q-27 -33 -70.5 -51t-96.5 -18q-59 0 -102.5 21t-66.5 57.5t-23 82.5q0 70 53 114.5t142 44.5q48 0 89 -14.5t67 -42.5v68q0 71 -38.5 105.5t-100.5 34.5q-36 0 -76 -12t-75 -35h-8v66q40 20 82.5 30t82.5 10q86 0 141 -46.5z
M360 74.5q38 29.5 38 73.5t-38 73t-108 29q-69 0 -107.5 -29.5t-38.5 -72.5q0 -44 38.5 -73.5t107.5 -29.5q70 0 108 29.5z" />
    <glyph glyph-name="uni0431" unicode="&#x431;" horiz-adv-x="618" 
d="M449 467.5q54 -30.5 85.5 -88t31.5 -135.5q0 -79 -32.5 -137.5t-89.5 -89.5t-127 -31q-111 0 -183.5 78t-72.5 254q0 152 54.5 272t201.5 135l104 11q54 7 92 15v-60q-36 -8 -81 -13q-75 -7 -102 -10q-98 -13 -147 -83t-62 -216q27 61 81.5 95t125.5 34q67 0 121 -30.5z
M408.5 69q42.5 24 68 69t25.5 106q0 60 -25.5 105t-68 69t-92.5 24q-49 0 -91.5 -24t-68 -69.5t-25.5 -104.5q0 -60 25.5 -105t68 -69.5t91.5 -24.5q50 0 92.5 24z" />
    <glyph glyph-name="uni0432" unicode="&#x432;" horiz-adv-x="538" 
d="M456.5 221.5q26.5 -34.5 26.5 -80.5q0 -62 -44.5 -101.5t-117.5 -39.5h-237v502h211q72 0 113 -36.5t41 -92.5q0 -35 -17 -61.5t-49 -41.5q47 -14 73.5 -48.5zM360 423q-25 23 -72 23h-141v-158h141q47 0 72 23t25 56t-25 56zM391.5 82q27.5 26 27.5 63t-27.5 63
t-76.5 26h-168v-178h168q49 0 76.5 26z" />
    <glyph glyph-name="uni0433" unicode="&#x433;" horiz-adv-x="432" 
d="M398 446h-251v-446h-63v502h314v-56z" />
    <glyph glyph-name="uni0434" unicode="&#x434;" horiz-adv-x="581" 
d="M544 56v-196h-61v140h-398v-140h-61v196h53q59 102 63 298l4 148h322v-446h78zM141 56h262v390h-204l-4 -116q-5 -163 -54 -274z" />
    <glyph glyph-name="uni0435" unicode="&#x435;" horiz-adv-x="571" 
d="M519 242h-405q2 -67 30 -111.5t72.5 -65.5t94.5 -21q94 0 168 66h9v-69q-80 -55 -179 -55q-68 0 -126.5 29t-94.5 89t-36 147t35 146.5t92.5 89t123.5 29.5q96 0 157 -60.5t62 -175.5q0 -20 -3 -38zM179.5 417.5q-50.5 -42.5 -62.5 -122.5h343q-4 81 -46.5 123t-112.5 42
q-71 0 -121.5 -42.5z" />
    <glyph glyph-name="uni0436" unicode="&#x436;" horiz-adv-x="734" 
d="M629 0l-231 260v-260h-63v260l-230 -260h-83l248 273l-237 229h81l221 -219v219h63v-219l221 219h82l-238 -229l249 -273h-83z" />
    <glyph glyph-name="uni0437" unicode="&#x437;" horiz-adv-x="486" 
d="M404.5 221.5q26.5 -34.5 26.5 -83.5q0 -71 -54 -111.5t-146 -40.5q-46 0 -91 11t-79 31v70h8q30 -27 72 -40t86 -13q63 0 101.5 25.5t38.5 71.5q0 42 -35 69.5t-104 27.5h-71v55h74q59 0 87.5 24t28.5 58q0 36 -30 58.5t-87 22.5q-40 0 -78.5 -12.5t-66.5 -35.5h-7v68
q72 39 159 39q84 0 129 -37.5t45 -92.5q0 -38 -22 -68t-61 -47q50 -15 76.5 -49.5z" />
    <glyph glyph-name="uni0438" unicode="&#x438;" horiz-adv-x="579" 
d="M494 502v-502h-62v395l-298 -395h-50v502h63v-395l298 395h49z" />
    <glyph glyph-name="uni0439" unicode="&#x439;" horiz-adv-x="579" 
d="M494 502v-502h-62v395l-298 -395h-50v502h63v-395l298 395h49zM426 731v-18q0 -69 -36 -103.5t-100 -34.5t-100 34.5t-36 103.5v18h53v-22q0 -42 22.5 -64.5t60.5 -22.5t60 22.5t22 64.5v22h54z" />
    <glyph glyph-name="uni043A" unicode="&#x43a;" horiz-adv-x="502" 
d="M397 0l-250 259v-259h-63v502h63v-217l228 217h82l-241 -227l267 -275h-86z" />
    <glyph glyph-name="uni043B" unicode="&#x43b;" horiz-adv-x="559" 
d="M475 502v-502h-63v446h-203l-4 -98q-6 -145 -26 -221t-50.5 -101.5t-75.5 -25.5h-25v59h15q31 0 52.5 26.5t35.5 95.5t19 194l4 127h321z" />
    <glyph glyph-name="uni043C" unicode="&#x43c;" horiz-adv-x="655" 
d="M571 502v-502h-62v384l-169 -223h-24l-170 221v-382h-62v502h43l201 -265l200 265h43z" />
    <glyph glyph-name="uni043D" unicode="&#x43d;" horiz-adv-x="572" 
d="M488 502v-502h-63v236h-278v-236h-63v502h63v-209h278v209h63z" />
    <glyph glyph-name="uni043E" unicode="&#x43e;" horiz-adv-x="627" 
d="M87 391q35 60 95 92.5t132 32.5t131.5 -32.5t94.5 -92.5t35 -140t-35 -140t-94.5 -92.5t-131.5 -32.5t-132 32.5t-95 92.5t-35 140t35 140zM142.5 141.5q26.5 -46.5 72 -71.5t99.5 -25t99 25t71.5 71.5t26.5 109.5t-26.5 109.5t-71.5 71.5t-99 25t-99.5 -25t-72 -71.5
t-26.5 -109.5t26.5 -109.5z" />
    <glyph glyph-name="uni043F" unicode="&#x43f;" horiz-adv-x="566" 
d="M481 502v-502h-63v446h-271v-446h-63v502h397z" />
    <glyph glyph-name="uni0440" unicode="&#x440;" horiz-adv-x="629" 
d="M454 485.5q55 -30.5 89 -90t34 -144.5t-34 -144.5t-88.5 -90t-116.5 -30.5q-58 0 -108.5 26t-82.5 76v-282h-63v696h56v-101q30 56 83 85.5t114 29.5q62 0 117 -30.5zM419 68q42 23 68 70t26 113t-26 113t-68 70t-91 23t-91 -23t-68 -70t-26 -113t26 -113t68 -70t91 -23
t91 23z" />
    <glyph glyph-name="uni0441" unicode="&#x441;" horiz-adv-x="513" 
d="M86 390.5q34 60.5 92 93t127 32.5q79 0 141 -43v-68h-7q-30 26 -62 39t-70 13q-51 0 -94.5 -25t-70 -72t-26.5 -109t26.5 -109t71 -72t97.5 -25q78 0 133 54h8v-70q-63 -43 -144 -43q-70 0 -128.5 32.5t-93 92.5t-34.5 140q0 79 34 139.5z" />
    <glyph glyph-name="uni0442" unicode="&#x442;" horiz-adv-x="448" 
d="M421 446h-166v-446h-63v446h-166v56h395v-56z" />
    <glyph glyph-name="uni0443" unicode="&#x443;" horiz-adv-x="513" 
d="M484 502l-297 -696h-69l117 274l-210 422h70l173 -355l148 355h68z" />
    <glyph glyph-name="uni0444" unicode="&#x444;" horiz-adv-x="724" 
d="M635.5 109.5q-36.5 -59.5 -99.5 -91t-143 -32.5v-180h-62v180q-80 1 -143 32.5t-99.5 91t-36.5 141.5t36.5 141.5t99.5 91t143 32.5v236h62v-236q80 -1 143 -32.5t99.5 -91t36.5 -141.5t-36.5 -141.5zM144 141.5q28 -46.5 77 -71t110 -25.5v412q-61 -1 -110 -25.5
t-77 -71t-28 -109.5t28 -109.5zM503 70.5q49 24.5 77 71t28 109.5t-28 109.5t-77 71t-110 25.5v-412q61 1 110 25.5z" />
    <glyph glyph-name="uni0445" unicode="&#x445;" horiz-adv-x="512" 
d="M405 0l-151 214l-150 -214h-72l186 260l-176 242h74l139 -195l137 195h72l-173 -241l188 -261h-74z" />
    <glyph glyph-name="uni0446" unicode="&#x446;" horiz-adv-x="592" 
d="M555 56v-196h-61v140h-410v502h63v-446h267v446h62v-446h79z" />
    <glyph glyph-name="uni0447" unicode="&#x447;" horiz-adv-x="526" 
d="M441 502v-502h-63v213q-77 -25 -138 -25q-84 0 -133 43.5t-49 122.5v148h63v-138q0 -58 34 -87.5t98 -29.5q53 0 125 23v232h63z" />
    <glyph glyph-name="uni0448" unicode="&#x448;" horiz-adv-x="814" 
d="M730 502v-502h-646v502h63v-446h229v446h62v-446h229v446h63z" />
    <glyph glyph-name="uni0449" unicode="&#x449;" horiz-adv-x="845" 
d="M808 56v-196h-61v140h-663v502h63v-446h229v446h62v-446h229v446h63v-446h78z" />
    <glyph glyph-name="uni044A" unicode="&#x44a;" horiz-adv-x="611" 
d="M513 269q47 -40 47 -114q0 -75 -47.5 -115t-129.5 -40h-210v446h-147v56h210v-193h147q83 0 130 -40zM465.5 82q30.5 26 30.5 73t-30.5 73t-88.5 26h-141v-198h141q58 0 88.5 26z" />
    <glyph glyph-name="uni044B" unicode="&#x44b;" horiz-adv-x="687" 
d="M401 269q47 -40 47 -114q0 -75 -47.5 -115t-129.5 -40h-187v502h63v-193h124q83 0 130 -40zM603 502v-502h-63v502h63zM353.5 82q30.5 26 30.5 73t-30.5 73t-88.5 26h-118v-198h118q58 0 88.5 26z" />
    <glyph glyph-name="uni044C" unicode="&#x44c;" horiz-adv-x="522" 
d="M424 269.5q47 -39.5 47 -114.5t-47 -115t-129 -40h-211v502h63v-193h148q82 0 129 -39.5zM376.5 81.5q30.5 25.5 30.5 73.5t-30.5 73.5t-87.5 25.5h-142v-198h142q57 0 87.5 25.5z" />
    <glyph glyph-name="uni044D" unicode="&#x44d;" horiz-adv-x="509" 
d="M336.5 485q55.5 -31 88 -91t32.5 -143q0 -84 -33 -144t-90 -90.5t-128 -30.5q-39 0 -77 10t-68 30v69h8q28 -26 63.5 -38t70.5 -12q78 0 130.5 48t58.5 138h-228v55h227q-9 82 -59.5 126.5t-121.5 44.5q-73 0 -134 -48h-7v67q65 40 142 40q70 0 125.5 -31z" />
    <glyph glyph-name="uni044E" unicode="&#x44e;" horiz-adv-x="803" 
d="M626.5 485q56.5 -31 90.5 -91t34 -143t-34 -143t-90.5 -91t-124.5 -31q-64 0 -119.5 28.5t-90.5 83.5t-39 132h-106v-230h-63v502h63v-215h107q7 72 42.5 124t89.5 78.5t116 26.5q68 0 124.5 -31zM594 68.5q42 23.5 67.5 70t25.5 112.5t-25.5 112.5t-67.5 70t-92 23.5
t-93 -23.5t-68.5 -70t-25.5 -112.5t25.5 -112.5t68.5 -70t93 -23.5t92 23.5z" />
    <glyph glyph-name="uni044F" unicode="&#x44f;" horiz-adv-x="531" 
d="M447 502v-502h-63v199h-115l-148 -199h-77l156 202q-61 9 -97.5 47t-36.5 100q0 72 47.5 112.5t125.5 40.5h208zM384 252v194h-137q-52 0 -84.5 -27t-32.5 -70q0 -44 32 -70.5t85 -26.5h137z" />
    <glyph glyph-name="uni0451" unicode="&#x451;" horiz-adv-x="571" 
d="M519 242h-405q2 -67 30 -111.5t72.5 -65.5t94.5 -21q94 0 168 66h9v-69q-80 -55 -179 -55q-68 0 -126.5 29t-94.5 89t-36 147t35 146.5t92.5 89t123.5 29.5q96 0 157 -60.5t62 -175.5q0 -20 -3 -38zM179.5 417.5q-50.5 -42.5 -62.5 -122.5h343q-4 81 -46.5 123t-112.5 42
q-71 0 -121.5 -42.5zM164 683q12 11 29 11q18 0 29.5 -11t11.5 -30t-11.5 -30.5t-29.5 -11.5q-17 0 -29 11.5t-12 30.5t12 30zM358.5 683q11.5 11 29.5 11q17 0 29 -11t12 -30t-12 -30.5t-29 -11.5q-18 0 -29.5 11.5t-11.5 30.5t11.5 30z" />
    <glyph glyph-name="uni0454" unicode="&#x454;" horiz-adv-x="509" 
d="M448 95v-69q-30 -20 -68 -30t-77 -10q-71 0 -128 30.5t-90 90.5t-33 144q0 83 32.5 143t88 91t125.5 31q77 0 142 -40v-67h-7q-61 48 -134 48q-71 0 -121.5 -44t-59.5 -127h227v-55h-228q6 -90 58.5 -138t130.5 -48q35 0 70.5 12t63.5 38h8z" />
    <glyph glyph-name="uni0456" unicode="&#x456;" horiz-adv-x="232" 
d="M80.5 695.5q14.5 13.5 35.5 13.5q20 0 34.5 -13.5t14.5 -35.5t-14.5 -35.5t-34.5 -13.5q-21 0 -35.5 13.5t-14.5 35.5t14.5 35.5zM147 502v-502h-63v502h63z" />
    <glyph glyph-name="uni0457" unicode="&#x457;" horiz-adv-x="232" 
d="M10 683q12 11 30 11q17 0 29 -11t12 -30t-12 -30.5t-29 -11.5q-18 0 -30 11.5t-12 30.5t12 30zM162.5 683q11.5 11 29.5 11t29.5 -11t11.5 -30t-11.5 -30.5t-29.5 -11.5t-29.5 11.5t-11.5 30.5t11.5 30zM147 502v-502h-63v502h63z" />
    <glyph glyph-name="uni045E" unicode="&#x45e;" horiz-adv-x="513" 
d="M484 502l-297 -696h-69l117 274l-210 422h70l173 -355l148 355h68zM393 731v-18q0 -69 -36 -103.5t-100 -34.5t-100 34.5t-36 103.5v18h53v-22q0 -42 22.5 -64.5t60.5 -22.5t60 22.5t22 64.5v22h54z" />
    <glyph glyph-name="uni0490" unicode="&#x490;" horiz-adv-x="524" 
d="M478 640h-315v-640h-66v700h319v130h62v-190z" />
    <glyph glyph-name="uni0491" unicode="&#x491;" horiz-adv-x="432" 
d="M398 446h-251v-446h-63v502h253v132h61v-188z" />
    <glyph glyph-name="uni04C1" unicode="&#x4c1;" horiz-adv-x="922" 
d="M814 0l-320 352v-352h-66v352l-320 -352h-88l342 374l-322 326h85l303 -307v307h66v-307l303 307h85l-322 -326l343 -374h-89zM608 897v-13q0 -66 -39.5 -99.5t-107.5 -33.5t-107.5 33.5t-39.5 99.5v13h57v-17q0 -39 23.5 -59.5t66.5 -20.5q42 0 66 20.5t24 59.5v17h57z
" />
    <glyph glyph-name="uni04C2" unicode="&#x4c2;" horiz-adv-x="734" 
d="M629 0l-231 260v-260h-63v260l-230 -260h-83l248 273l-237 229h81l221 -219v219h63v-219l221 219h82l-238 -229l249 -273h-83zM503 731v-18q0 -69 -36 -103.5t-100 -34.5t-100 34.5t-36 103.5v18h53v-22q0 -42 22.5 -64.5t60.5 -22.5t60 22.5t22 64.5v22h54z" />
    <glyph glyph-name="Wgrave" unicode="&#x1e80;" horiz-adv-x="1013" 
d="M978 700l-252 -700h-50l-169 567l-170 -567h-49l-253 700h73l203 -582l174 582h44l174 -582l203 582h72zM392 897h70l78 -135h-53z" />
    <glyph glyph-name="wgrave" unicode="&#x1e81;" horiz-adv-x="823" 
d="M790 502l-199 -502h-41l-139 396l-139 -396h-40l-200 502h71l148 -402l142 402h36l143 -403l149 403h69zM315 746h65l66 -154h-48z" />
    <glyph glyph-name="Wacute" unicode="&#x1e82;" horiz-adv-x="1013" 
d="M978 700l-252 -700h-50l-169 567l-170 -567h-49l-253 700h73l203 -582l174 582h44l174 -582l203 582h72zM478 762l79 135h69l-94 -135h-54z" />
    <glyph glyph-name="wacute" unicode="&#x1e83;" horiz-adv-x="823" 
d="M790 502l-199 -502h-41l-139 396l-139 -396h-40l-200 502h71l148 -402l142 402h36l143 -403l149 403h69zM377 592l67 154h64l-82 -154h-49z" />
    <glyph glyph-name="Wdieresis" unicode="&#x1e84;" horiz-adv-x="1013" 
d="M978 700l-252 -700h-50l-169 567l-170 -567h-49l-253 700h73l203 -582l174 582h44l174 -582l203 582h72zM375.5 855.5q12.5 11.5 30.5 11.5q19 0 31.5 -11.5t12.5 -31.5q0 -19 -12.5 -30.5t-31.5 -11.5q-18 0 -30.5 11.5t-12.5 30.5q0 20 12.5 31.5zM576.5 855.5
q12.5 11.5 30.5 11.5q19 0 31.5 -11.5t12.5 -31.5q0 -19 -12.5 -30.5t-31.5 -11.5q-18 0 -30.5 11.5t-12.5 30.5q0 20 12.5 31.5z" />
    <glyph glyph-name="wdieresis" unicode="&#x1e85;" horiz-adv-x="823" 
d="M790 502l-199 -502h-41l-139 396l-139 -396h-40l-200 502h71l148 -402l142 402h36l143 -403l149 403h69zM285 683q12 11 29 11q18 0 29.5 -11t11.5 -30t-11.5 -30.5t-29.5 -11.5q-17 0 -29 11.5t-12 30.5t12 30zM479.5 683q11.5 11 29.5 11q17 0 29 -11t12 -30t-12 -30.5
t-29 -11.5q-18 0 -29.5 11.5t-11.5 30.5t11.5 30z" />
    <glyph glyph-name="uni1E9E" unicode="&#x1e9e;" horiz-adv-x="641" 
d="M534.5 349q59.5 -55 59.5 -143q0 -93 -64.5 -149.5t-186.5 -56.5h-48v60h42q94 0 141 40t47 108t-47.5 108t-143.5 40h-44v42l176 242h-180q-58 0 -93.5 -32t-35.5 -92v-516h-66v524q0 53 24.5 93t67.5 61.5t96 21.5h277v-33l-193 -259q112 -4 171.5 -59z" />
    <glyph glyph-name="Ygrave" unicode="&#x1ef2;" horiz-adv-x="636" 
d="M351 319v-319h-66v319l-260 381h79l214 -318l215 318h78zM218 897h70l78 -135h-53z" />
    <glyph glyph-name="ygrave" unicode="&#x1ef3;" horiz-adv-x="513" 
d="M484 502l-297 -696h-69l117 274l-210 422h70l173 -355l148 355h68zM160 746h65l66 -154h-48z" />
    <glyph glyph-name="endash" unicode="&#x2013;" horiz-adv-x="593" 
d="M504 315v-59h-416v59h416z" />
    <glyph glyph-name="emdash" unicode="&#x2014;" horiz-adv-x="756" 
d="M667 315v-59h-579v59h579z" />
    <glyph glyph-name="quoteleft" unicode="&#x2018;" horiz-adv-x="184" 
d="M35 464l57 236h53l-38 -236h-72z" />
    <glyph glyph-name="quoteright" unicode="&#x2019;" horiz-adv-x="184" 
d="M150 700l-58 -236h-53l39 236h72z" />
    <glyph glyph-name="quotesinglbase" unicode="&#x201a;" horiz-adv-x="237" 
d="M162 86l-58 -236h-53l39 236h72z" />
    <glyph glyph-name="quotedblleft" unicode="&#x201c;" horiz-adv-x="334" 
d="M35 464l58 236h53l-39 -236h-72zM184 464l58 236h53l-39 -236h-72z" />
    <glyph glyph-name="quotedblright" unicode="&#x201d;" horiz-adv-x="334" 
d="M150 700l-58 -236h-53l39 236h72zM299 700l-58 -236h-53l39 236h72z" />
    <glyph glyph-name="quotedblbase" unicode="&#x201e;" horiz-adv-x="386" 
d="M162 86l-58 -236h-53l39 236h72zM311 86l-58 -236h-53l39 236h72z" />
    <glyph glyph-name="dagger" unicode="&#x2020;" horiz-adv-x="437" 
d="M388 446h-142v-531h-56v531h-141v52h141v202h56v-202h142v-52z" />
    <glyph glyph-name="daggerdbl" unicode="&#x2021;" horiz-adv-x="437" 
d="M246 446v-266h142v-52h-142v-213h-56v213h-141v52h141v266h-141v52h141v202h56v-202h142v-52h-142z" />
    <glyph glyph-name="bullet" unicode="&#x2022;" horiz-adv-x="392" 
d="M128 380.5q28 26.5 68 26.5q41 0 69 -26t28 -70t-28.5 -70.5t-68.5 -26.5t-68 26.5t-28 70.5q0 43 28 69.5z" />
    <glyph glyph-name="ellipsis" unicode="&#x2026;" horiz-adv-x="672" 
d="M95 75.5q15 13.5 36 13.5t36.5 -13.5t15.5 -37.5t-15.5 -38t-36.5 -14t-36 14t-15 38t15 37.5zM300 75.5q15 13.5 36 13.5t36.5 -13.5t15.5 -37.5t-15.5 -38t-36.5 -14t-36 14t-15 38t15 37.5zM505 75.5q15 13.5 36 13.5t36.5 -13.5t15.5 -37.5t-15.5 -38t-36.5 -14
t-36 14t-15 38t15 37.5z" />
    <glyph glyph-name="perthousand" unicode="&#x2030;" horiz-adv-x="1282" 
d="M130.5 391q-39.5 21 -62.5 60t-23 91t23 91t62.5 60t87.5 21t88 -21t63 -60t23 -91t-23 -91t-63 -60t-88 -21t-87.5 21zM675 700l-410 -700h-60l410 700h60zM300 455.5q35 32.5 35 86.5t-35 86t-82 32t-81.5 -32t-34.5 -86t34.5 -86.5t81.5 -32.5t82 32.5zM573.5 7
q-39.5 21 -62.5 60t-23 91t23 91t62.5 60t87.5 21t88 -21t63 -60t23 -91t-23 -91t-63 -60t-88 -21t-87.5 21zM982.5 7q-39.5 21 -62.5 60t-23 91t23 91t62.5 60t87.5 21t87.5 -21t62.5 -60t23 -91t-23 -91t-62.5 -60t-87.5 -21t-87.5 21zM743.5 72q34.5 32 34.5 86
t-34.5 86.5t-82.5 32.5q-47 0 -81.5 -32.5t-34.5 -86.5t34.5 -86t81.5 -32q48 0 82.5 32zM1152 72q35 32 35 86t-35 86.5t-82 32.5t-82 -32.5t-35 -86.5t35 -86t82 -32t82 32z" />
    <glyph glyph-name="guilsinglleft" unicode="&#x2039;" horiz-adv-x="268" 
d="M102 273l124 -173h-70l-122 173l122 173h70z" />
    <glyph glyph-name="guilsinglright" unicode="&#x203a;" horiz-adv-x="268" 
d="M234 273l-122 -173h-70l124 173l-124 173h70z" />
    <glyph glyph-name="fraction" unicode="&#x2044;" horiz-adv-x="252" 
d="M420 700l-514 -700h-74l514 700h74z" />
    <glyph glyph-name="uni2070" unicode="&#x2070;" horiz-adv-x="376" 
d="M64 706q20 44 52.5 66t71.5 22q38 0 71 -22t52.5 -66t19.5 -109t-19.5 -109t-52.5 -66t-71 -22q-39 0 -71.5 22t-52.5 66t-20 109t20 109zM128.5 491q23.5 -36 59.5 -36q35 0 58.5 36t23.5 106t-23.5 106t-58.5 36q-36 0 -59.5 -36t-23.5 -106t23.5 -106z" />
    <glyph glyph-name="uni2074" unicode="&#x2074;" horiz-adv-x="329" 
d="M299 490h-45v-82h-59v82h-171v42l175 254h55v-246h45v-50zM197 540v166l-114 -166h114z" />
    <glyph glyph-name="uni2075" unicode="&#x2075;" horiz-adv-x="324" 
d="M248.5 620q33.5 -32 33.5 -91q0 -61 -37 -95t-97 -34q-61 0 -109 35v62h7q17 -20 41.5 -32t51.5 -12q35 0 59 18.5t24 59.5q0 39 -22.5 56.5t-53.5 17.5q-40 0 -73 -28l-24 7l32 202h180v-51h-139l-17 -97q28 14 60 14q50 0 83.5 -32z" />
    <glyph glyph-name="uni2076" unicode="&#x2076;" horiz-adv-x="356" 
d="M281 623q35 -32 35 -92q0 -62 -37 -96.5t-91 -34.5q-59 0 -101.5 41.5t-42.5 136.5q0 106 43.5 161t111.5 55q49 0 90 -26v-57h-6q-34 30 -78 30q-43 0 -70 -32t-33 -101q16 23 41 35t54 12q49 0 84 -32zM235 474q22 21 22 57t-22 57t-52 21t-51.5 -21t-21.5 -57
t21.5 -57t51.5 -21t52 21z" />
    <glyph glyph-name="uni2077" unicode="&#x2077;" horiz-adv-x="302" 
d="M268 786v-34l-161 -344h-63l154 326h-166v52h236z" />
    <glyph glyph-name="uni2078" unicode="&#x2078;" horiz-adv-x="352" 
d="M297 572.5q19 -25.5 19 -59.5q0 -51 -39 -82t-101 -31t-101 31t-39 82q0 34 19 59.5t54 38.5q-26 13 -40 35t-14 49q0 44 34 71.5t87 27.5t87 -27.5t34 -71.5q0 -27 -14 -49t-40 -35q35 -13 54 -38.5zM130.5 730.5q-18.5 -15.5 -18.5 -43.5q0 -27 18.5 -42.5t45.5 -15.5
t45 15.5t18 42.5q0 28 -18 43.5t-45 15.5t-45.5 -15.5zM235 467q24 19 24 50t-24 49.5t-59 18.5t-59 -18.5t-24 -49.5t24 -50t59 -19t59 19z" />
    <glyph glyph-name="uni2079" unicode="&#x2079;" horiz-adv-x="356" 
d="M269 752.5q42 -41.5 42 -136.5q0 -107 -43 -161.5t-111 -54.5q-49 0 -90 26v57h6q34 -30 78 -30q43 0 70 32.5t33 101.5q-16 -22 -41 -33.5t-55 -11.5q-49 0 -83.5 31t-34.5 91q0 62 36.5 96t91.5 34q59 0 101 -41.5zM224.5 607.5q21.5 20.5 21.5 56.5t-21.5 56.5
t-51.5 20.5q-31 0 -52.5 -20.5t-21.5 -56.5t21.5 -56.5t52.5 -20.5q30 0 51.5 20.5z" />
    <glyph glyph-name="uni2080" unicode="&#x2080;" horiz-adv-x="376" 
d="M64 132q20 44 52.5 66t71.5 22q38 0 71 -22t52.5 -66t19.5 -109t-19.5 -109t-52.5 -66t-71 -22q-39 0 -71.5 22t-52.5 66t-20 109t20 109zM128.5 -83q23.5 -36 59.5 -36q35 0 58.5 36t23.5 106t-23.5 106t-58.5 36q-36 0 -59.5 -36t-23.5 -106t23.5 -106z" />
    <glyph glyph-name="uni2081" unicode="&#x2081;" horiz-adv-x="242" 
d="M168 212v-378h-59v293q-27 -22 -73 -22v54q32 0 56 13.5t31 39.5h45z" />
    <glyph glyph-name="uni2082" unicode="&#x2082;" horiz-adv-x="307" 
d="M270 -114v-52h-240v37l132 158q38 47 38 82q0 25 -16.5 39.5t-43.5 14.5q-49 0 -86 -51h-6v64q46 42 105 42q46 0 76.5 -25.5t30.5 -73.5q0 -30 -14 -60.5t-44 -65.5l-91 -109h159z" />
    <glyph glyph-name="uni2083" unicode="&#x2083;" horiz-adv-x="298" 
d="M243.5 0q18.5 -26 18.5 -63q0 -51 -34.5 -81t-95.5 -30q-66 0 -106 34v61h6q16 -22 40.5 -34t53.5 -12q36 0 57.5 18t21.5 50q0 33 -23.5 49.5t-63.5 16.5h-28v47h25q36 0 56 14.5t20 43.5q0 27 -17 42t-48 15q-46 0 -79 -32h-7v53q44 28 94 28q52 0 83 -27t31 -71
q0 -30 -15 -52t-44 -33q36 -11 54.5 -37z" />
    <glyph glyph-name="uni2084" unicode="&#x2084;" horiz-adv-x="329" 
d="M299 -84h-45v-82h-59v82h-171v42l175 254h55v-246h45v-50zM197 -34v167l-115 -167h115z" />
    <glyph glyph-name="uni2085" unicode="&#x2085;" horiz-adv-x="324" 
d="M248.5 46q33.5 -32 33.5 -91q0 -61 -37 -95t-97 -34q-61 0 -109 35v62h7q17 -20 41.5 -32t51.5 -12q35 0 59 18.5t24 59.5q0 39 -22.5 56.5t-53.5 17.5q-40 0 -73 -28l-24 7l32 202h180v-51h-139l-17 -97q28 14 60 14q50 0 83.5 -32z" />
    <glyph glyph-name="uni2086" unicode="&#x2086;" horiz-adv-x="356" 
d="M281 49q35 -32 35 -92q0 -62 -37 -96.5t-91 -34.5q-59 0 -101.5 41.5t-42.5 136.5q0 106 43.5 161t111.5 55q49 0 90 -26v-57h-6q-34 30 -78 30q-43 0 -70 -32t-33 -101q16 23 41 35t54 12q49 0 84 -32zM235 -100q22 21 22 57t-22 57t-52 21t-51.5 -21t-21.5 -57
t21.5 -57t51.5 -21t52 21z" />
    <glyph glyph-name="uni2087" unicode="&#x2087;" horiz-adv-x="302" 
d="M268 212v-34l-161 -344h-63l154 326h-166v52h236z" />
    <glyph glyph-name="uni2088" unicode="&#x2088;" horiz-adv-x="352" 
d="M296.5 -1.5q19.5 -25.5 19.5 -59.5q0 -51 -39 -82t-101 -31t-101 31t-39 82q0 34 19 59.5t54 38.5q-26 13 -40 35t-14 49q0 44 34 71.5t87 27.5t87 -27.5t34 -71.5q0 -27 -14 -49t-41 -35q35 -13 54.5 -38.5zM130.5 156.5q-18.5 -15.5 -18.5 -43.5q0 -27 18.5 -42.5
t45.5 -15.5t45 15.5t18 42.5q0 28 -18 43.5t-45 15.5t-45.5 -15.5zM235 -107q24 19 24 50t-24 49.5t-59 18.5t-59 -18.5t-24 -49.5t24 -50t59 -19t59 19z" />
    <glyph glyph-name="uni2089" unicode="&#x2089;" horiz-adv-x="356" 
d="M269 178.5q42 -41.5 42 -136.5q0 -107 -43 -161.5t-111 -54.5q-49 0 -90 26v57h6q34 -30 78 -30q43 0 70 32t33 102q-16 -22 -41 -33.5t-55 -11.5q-49 0 -83.5 31t-34.5 91q0 62 36.5 96t91.5 34q59 0 101 -41.5zM224.5 33.5q21.5 20.5 21.5 56.5t-21.5 56.5t-51.5 20.5
q-31 0 -52.5 -20.5t-21.5 -56.5t21.5 -56.5t52.5 -20.5q30 0 51.5 20.5z" />
    <glyph glyph-name="Euro" unicode="&#x20ac;" horiz-adv-x="695" 
d="M645 135v-79q-87 -70 -198 -70q-80 0 -147.5 31.5t-114 92.5t-62.5 145h-83v54h76q-1 11 -1 34q0 18 2 48h-77v54h86q19 80 65 137.5t112 87.5t143 30q111 0 190 -65v-74h-8q-38 39 -82 58.5t-102 19.5q-87 0 -154.5 -52t-93.5 -142h295v-54h-306q-3 -22 -3 -48
q0 -23 1 -34h308v-54h-299q24 -96 93.5 -152t161.5 -56q111 0 188 88h10z" />
    <glyph glyph-name="uni20B4" unicode="&#x20b4;" horiz-adv-x="546" 
d="M331 367l-67 -54h233v-50h-294q-26 -24 -40.5 -48t-14.5 -58q0 -53 37 -82t106 -29q97 0 171 67h9v-74q-76 -53 -180 -53q-95 0 -151.5 41t-56.5 121q0 34 10.5 62t31.5 53h-75v50h127q6 6 24 20l80 63h-231v50h294q25 23 39 46t14 54q0 47 -31.5 70.5t-85.5 23.5
q-81 0 -145 -50h-9v69q41 19 78.5 30t82.5 11q74 0 125 -33.5t51 -110.5q0 -62 -41 -110h75v-50h-130q-12 -9 -36 -29z" />
    <glyph glyph-name="uni20BD" unicode="&#x20bd;" horiz-adv-x="612" 
d="M198 315v-100h230v-54h-230v-161h-63v161h-95v54h95v100h-95v55h95v316h202q107 0 167 -48.5t60 -140.5q0 -89 -58 -135.5t-165 -46.5h-143zM198 370h141q75 0 116.5 32.5t41.5 96.5q0 67 -43 98t-119 31h-137v-258z" />
    <glyph glyph-name="uni2116" unicode="&#x2116;" horiz-adv-x="1196" 
d="M846 358q-43 22 -69 65t-26 102t26 102t69 65t94 22t94 -22t69 -65t26 -102t-26 -102t-69 -65t-94 -22t-94 22zM588 700h66v-700h-48l-443 570v-570h-66v700h48l443 -570v570zM849.5 621q-37.5 -36 -37.5 -96t37.5 -96t90.5 -36t90 36t37 96t-37 96t-90 36t-90.5 -36z
M776 274h328v-55h-328v55z" />
    <glyph glyph-name="trademark" unicode="&#x2122;" horiz-adv-x="647" 
d="M19 700h221v-46h-84v-262h-52v262h-85v46zM609 700v-308h-51v219l-95 -132h-16l-97 132v-219h-50v308h45l110 -154l109 154h45z" />
    <glyph glyph-name="oneeighth" unicode="&#x215b;" horiz-adv-x="823" 
d="M168 700v-378h-59v293q-27 -22 -73 -22v54q32 0 56 13.5t31 39.5h45zM662 700l-514 -700h-74l514 700h74zM768 164.5q19 -25.5 19 -59.5q0 -51 -39 -82t-101 -31t-101 31t-39 82q0 34 19 59.5t54 38.5q-26 13 -40 35t-14 49q0 44 34 71.5t87 27.5t87 -27.5t34 -71.5
q0 -27 -14 -49t-40 -35q35 -13 54 -38.5zM601.5 322.5q-18.5 -15.5 -18.5 -43.5q0 -27 18.5 -42.5t45.5 -15.5t45 15.5t18 42.5q0 28 -18 43.5t-45 15.5t-45.5 -15.5zM706 59q24 19 24 50t-24 49.5t-59 18.5t-59 -18.5t-24 -49.5t24 -50t59 -19t59 19z" />
    <glyph glyph-name="threeeighths" unicode="&#x215c;" horiz-adv-x="880" 
d="M243.5 488q18.5 -26 18.5 -63q0 -51 -34.5 -81t-95.5 -30q-66 0 -106 34v61h6q16 -22 40.5 -34t53.5 -12q36 0 57.5 18t21.5 50q0 33 -23.5 49.5t-63.5 16.5h-28v47h25q36 0 56 14.5t20 43.5q0 27 -17 42t-48 15q-46 0 -79 -32h-7v53q44 28 94 28q52 0 83 -27t31 -71
q0 -30 -15 -52t-44 -33q36 -11 54.5 -37zM718 700l-514 -700h-74l514 700h74zM825 164.5q19 -25.5 19 -59.5q0 -51 -39 -82t-101 -31t-101 31t-39 82q0 34 19 59.5t54 38.5q-26 13 -40 35t-14 49q0 44 34 71.5t87 27.5t87 -27.5t34 -71.5q0 -27 -14 -49t-40 -35
q35 -13 54 -38.5zM658.5 322.5q-18.5 -15.5 -18.5 -43.5q0 -27 18.5 -42.5t45.5 -15.5t45 15.5t18 42.5q0 28 -18 43.5t-45 15.5t-45.5 -15.5zM763 59q24 19 24 50t-24 49.5t-59 18.5t-59 -18.5t-24 -49.5t24 -50t59 -19t59 19z" />
    <glyph glyph-name="fiveeighths" unicode="&#x215d;" horiz-adv-x="905" 
d="M248.5 534q33.5 -32 33.5 -91q0 -61 -37 -95t-97 -34q-61 0 -109 35v62h7q17 -20 41.5 -32t51.5 -12q35 0 59 18.5t24 59.5q0 39 -22.5 56.5t-53.5 17.5q-40 0 -73 -28l-24 7l32 202h180v-51h-139l-17 -97q28 14 60 14q50 0 83.5 -32zM744 700l-514 -700h-74l514 700h74z
M850 164.5q19 -25.5 19 -59.5q0 -51 -39 -82t-101 -31t-101 31t-39 82q0 34 19 59.5t54 38.5q-26 13 -40 35t-14 49q0 44 34 71.5t87 27.5t87 -27.5t34 -71.5q0 -27 -14 -49t-40 -35q35 -13 54 -38.5zM683.5 322.5q-18.5 -15.5 -18.5 -43.5q0 -27 18.5 -42.5t45.5 -15.5
t45 15.5t18 42.5q0 28 -18 43.5t-45 15.5t-45.5 -15.5zM788 59q24 19 24 50t-24 49.5t-59 18.5t-59 -18.5t-24 -49.5t24 -50t59 -19t59 19z" />
    <glyph glyph-name="seveneighths" unicode="&#x215e;" horiz-adv-x="828" 
d="M268 700v-34l-161 -344h-63l154 326h-166v52h236zM667 700l-514 -700h-74l514 700h74zM773 164.5q19 -25.5 19 -59.5q0 -51 -39 -82t-101 -31t-101 31t-39 82q0 34 19 59.5t54 38.5q-26 13 -40 35t-14 49q0 44 34 71.5t87 27.5t87 -27.5t34 -71.5q0 -27 -14 -49t-40 -35
q35 -13 54 -38.5zM606.5 322.5q-18.5 -15.5 -18.5 -43.5q0 -27 18.5 -42.5t45.5 -15.5t45 15.5t18 42.5q0 28 -18 43.5t-45 15.5t-45.5 -15.5zM711 59q24 19 24 50t-24 49.5t-59 18.5t-59 -18.5t-24 -49.5t24 -50t59 -19t59 19z" />
    <glyph glyph-name="arrowleft" unicode="&#x2190;" horiz-adv-x="805" 
d="M723 256h-460v-155l-205 176v6l205 176v-155h460v-48z" />
    <glyph glyph-name="arrowup" unicode="&#x2191;" horiz-adv-x="491" 
d="M270 433v-433h-50v433h-153l176 205h5l176 -205h-154z" />
    <glyph glyph-name="arrowright" unicode="&#x2192;" horiz-adv-x="805" 
d="M747 283v-6l-205 -176v155h-460v48h460v155z" />
    <glyph glyph-name="arrowdown" unicode="&#x2193;" horiz-adv-x="491" 
d="M424 199l-176 -205h-5l-176 205h153v433h50v-433h154z" />
    <glyph glyph-name="arrowboth" unicode="&#x2194;" horiz-adv-x="923" 
d="M865 283v-6l-205 -176v155h-397v-155l-205 176v6l205 176v-155h397v155z" />
    <glyph glyph-name="arrowupdn" unicode="&#x2195;" horiz-adv-x="491" 
d="M270 190h154l-176 -204h-5l-176 204h153v304h-153l176 204h5l176 -204h-154v-304z" />
    <glyph glyph-name="uni2196" unicode="&#x2196;" horiz-adv-x="627" 
d="M559 -8l-366 367l-119 -119v271l4 3h270l-118 -118l367 -367z" />
    <glyph glyph-name="uni2197" unicode="&#x2197;" horiz-adv-x="627" 
d="M553 240l-118 119l-367 -367l-37 37l367 367l-119 118h270l4 -3v-271z" />
    <glyph glyph-name="uni2198" unicode="&#x2198;" horiz-adv-x="627" 
d="M553 274v-271l-4 -3h-270l119 118l-367 367l37 37l367 -366z" />
    <glyph glyph-name="uni2199" unicode="&#x2199;" horiz-adv-x="627" 
d="M230 118l118 -118h-270l-4 3v271l119 -118l366 366l38 -37z" />
    <glyph glyph-name="partialdiff" unicode="&#x2202;" horiz-adv-x="549" 
d="M392 675q49 -39 77 -118t28 -196q0 -199 -70.5 -287t-176.5 -88q-56 0 -102.5 25t-74 75.5t-27.5 121.5q0 80 30.5 136t81.5 84t111 28q58 0 102.5 -26t65.5 -76v9q0 146 -44 217.5t-121 71.5q-69 0 -122 -55h-9l5 70q65 47 134 47q63 0 112 -39zM338 71q39 27 61.5 73
t22.5 101q0 78 -42 117.5t-103 39.5q-45 0 -83.5 -21.5t-62 -64t-23.5 -104.5q0 -55 20.5 -93t54 -56.5t71.5 -18.5q45 0 84 27z" />
    <glyph glyph-name="emptyset" unicode="&#x2205;" horiz-adv-x="548" 
d="M424 469q42 -53 42 -119q0 -52 -26 -96t-70 -70t-96 -26q-33 0 -63.5 10.5t-54.5 30.5l-73 -73l-33 32l73 73q-41 52 -41 119q0 52 26 96t70 70t96 26q67 0 119 -41l73 73l32 -31zM160 268l196 196q-37 27 -82 27q-38 0 -70.5 -19t-51.5 -51.5t-19 -70.5q0 -45 27 -82z
M388 432l-196 -196q37 -27 82 -27q38 0 70.5 19t51.5 51.5t19 70.5q0 45 -27 82z" />
    <glyph glyph-name="product" unicode="&#x220f;" horiz-adv-x="623" 
d="M526 700v-785h-58v733h-312v-733h-59v785h429z" />
    <glyph glyph-name="summation" unicode="&#x2211;" horiz-adv-x="521" 
d="M468 60v-60h-416v33l233 327l-223 307v33h393v-60h-293l192 -269v-24l-202 -287h316z" />
    <glyph glyph-name="minus" unicode="&#x2212;" horiz-adv-x="519" 
d="M450 358v-59h-380v59h380z" />
    <glyph glyph-name="radical" unicode="&#x221a;" horiz-adv-x="613" 
d="M592 700l-272 -700h-32h-5l-168 446h-102v52h143l147 -409l228 611h61z" />
    <glyph glyph-name="infinity" unicode="&#x221e;" horiz-adv-x="677" 
d="M580.5 431q39.5 -40 39.5 -102t-39.5 -102t-97.5 -40q-46 0 -80.5 25.5t-64.5 69.5q-29 -44 -63.5 -69.5t-80.5 -25.5q-58 0 -97.5 40t-39.5 102t39.5 102t97.5 40q46 0 80.5 -25.5t63.5 -69.5q30 44 64.5 69.5t80.5 25.5q58 0 97.5 -40zM258.5 262.5
q26.5 23.5 51.5 66.5q-25 42 -52 66t-59 24q-35 0 -59.5 -25.5t-24.5 -64.5t24.5 -64.5t59.5 -25.5q33 0 59.5 23.5zM537.5 264.5q24.5 25.5 24.5 64.5t-24.5 64.5t-59.5 25.5q-33 0 -59 -23.5t-53 -66.5q26 -43 52.5 -66.5t59.5 -23.5q35 0 59.5 25.5z" />
    <glyph glyph-name="integral" unicode="&#x222b;" horiz-adv-x="312" 
d="M7 -82h17q44 0 64.5 22.5t20.5 76.5v565q0 145 138 145h24v-51h-17q-44 0 -64.5 -22.5t-20.5 -76.5v-565q0 -145 -138 -145h-24v51z" />
    <glyph glyph-name="approxequal" unicode="&#x2248;" horiz-adv-x="485" 
d="M70 422q44 36 94 36q22 0 40.5 -6t40.5 -17q23 -11 41 -16.5t39 -5.5q23 0 43 7.5t43 21.5h5v-50q-19 -16 -43.5 -26t-51.5 -10q-22 0 -40.5 6t-40.5 17q-23 11 -41 16.5t-39 5.5q-40 0 -86 -29h-4v50zM70 264q44 36 94 36q21 0 39.5 -5.5t41.5 -16.5t41 -16.5t39 -5.5
q42 0 86 28h5v-49q-18 -16 -43 -26t-52 -10q-21 0 -39.5 5.5t-41.5 16.5t-41 16.5t-39 5.5q-42 0 -86 -28h-4v49z" />
    <glyph glyph-name="notequal" unicode="&#x2260;" horiz-adv-x="504" 
d="M312 387l-60 -117h183v-59h-214l-55 -106h-59l55 106h-92v59h122l61 117h-183v59h213l55 105h59l-54 -105h92v-59h-123z" />
    <glyph glyph-name="lessequal" unicode="&#x2264;" horiz-adv-x="498" 
d="M429 481l-290 -96l290 -97v-64l-365 131v55v5l365 131v-65zM64 163h365v-59h-365v59z" />
    <glyph glyph-name="greaterequal" unicode="&#x2265;" horiz-adv-x="498" 
d="M435 415v-55v-5l-365 -131v64l290 97l-290 96v65zM70 163h365v-59h-365v59z" />
    <glyph glyph-name="uni2460" unicode="&#x2460;" horiz-adv-x="860" 
d="M613 667.5q83 -46.5 131.5 -130t48.5 -187.5t-48.5 -187.5t-131.5 -130t-183 -46.5t-183 46.5t-131.5 130t-48.5 187.5t48.5 187.5t131.5 130t183 46.5t183 -46.5zM587.5 74.5q71.5 40.5 113 113t41.5 162.5t-41.5 162.5t-113 113t-157.5 40.5q-87 0 -158.5 -40.5
t-113 -113t-41.5 -162.5t41.5 -162.5t113 -113t158.5 -40.5q86 0 157.5 40.5zM397.5 500q23.5 14 31.5 39h38v-378h-51v301q-28 -23 -72 -23v47q30 0 53.5 14z" />
    <glyph glyph-name="uni2461" unicode="&#x2461;" horiz-adv-x="860" 
d="M613 667.5q83 -46.5 131.5 -130t48.5 -187.5t-48.5 -187.5t-131.5 -130t-183 -46.5t-183 46.5t-131.5 130t-48.5 187.5t48.5 187.5t131.5 130t183 46.5t183 -46.5zM588 74.5q72 40.5 113.5 113t41.5 162.5t-41.5 162.5t-113.5 113t-158 40.5q-87 0 -158.5 -40.5
t-113 -113t-41.5 -162.5t41.5 -162.5t113 -113t158.5 -40.5q86 0 158 40.5zM384 206h163v-45h-232v33l130 162q21 27 30 47.5t9 38.5q0 27 -16.5 42.5t-44.5 15.5t-47 -14t-38 -38h-5v56q18 19 43.5 31t56.5 12q45 0 74.5 -24.5t29.5 -69.5q0 -30 -14 -60.5t-44 -68.5z" />
    <glyph glyph-name="uni2462" unicode="&#x2462;" horiz-adv-x="860" 
d="M613 667.5q83 -46.5 131.5 -130t48.5 -187.5t-48.5 -187.5t-131.5 -130t-183 -46.5t-183 46.5t-131.5 130t-48.5 187.5t48.5 187.5t131.5 130t183 46.5t183 -46.5zM587.5 74.5q71.5 40.5 113 113t41.5 162.5t-41.5 162.5t-113 113t-157.5 40.5q-87 0 -158.5 -40.5
t-113 -113t-41.5 -162.5t41.5 -162.5t113 -113t158.5 -40.5q86 0 157.5 40.5zM532 326.5q18 -26.5 18 -62.5q0 -50 -34.5 -80.5t-92.5 -30.5q-63 0 -103 35v55h6q15 -24 39 -36t52 -12q37 0 60.5 19.5t23.5 54.5q0 36 -24 53.5t-64 17.5h-29v40h26q35 0 56 16t21 47
q0 29 -19 45.5t-50 16.5q-45 0 -77 -35h-6v48q44 29 90 29q50 0 81 -26.5t31 -70.5q0 -29 -14.5 -51.5t-42.5 -33.5q34 -12 52 -38.5z" />
    <glyph glyph-name="uni2463" unicode="&#x2463;" horiz-adv-x="860" 
d="M613 667.5q83 -46.5 131.5 -130t48.5 -187.5t-48.5 -187.5t-131.5 -130t-183 -46.5t-183 46.5t-131.5 130t-48.5 187.5t48.5 187.5t131.5 130t183 46.5t183 -46.5zM587.5 74.5q71.5 40.5 113 113t41.5 162.5t-41.5 162.5t-113 113t-157.5 40.5q-87 0 -158.5 -40.5
t-113 -113t-41.5 -162.5t41.5 -162.5t113 -113t158.5 -40.5q86 0 157.5 40.5zM502 289h45v-44h-45v-84h-51v84h-171v37l175 257h47v-250zM453 289v177l-119 -177h119z" />
    <glyph glyph-name="uni2464" unicode="&#x2464;" horiz-adv-x="860" 
d="M613 667.5q83 -46.5 131.5 -130t48.5 -187.5t-48.5 -187.5t-131.5 -130t-183 -46.5t-183 46.5t-131.5 130t-48.5 187.5t48.5 187.5t131.5 130t183 46.5t183 -46.5zM587.5 74.5q71.5 40.5 113 113t41.5 162.5t-41.5 162.5t-113 113t-157.5 40.5q-87 0 -158.5 -40.5
t-113 -113t-41.5 -162.5t41.5 -162.5t113 -113t158.5 -40.5q86 0 157.5 40.5zM519.5 372.5q33.5 -31.5 33.5 -90.5q0 -62 -36.5 -95.5t-93.5 -33.5q-61 0 -107 34v59h6q38 -47 93 -47q35 0 60.5 20t25.5 65q0 42 -23.5 60.5t-55.5 18.5q-41 0 -75 -31l-20 6l32 201h173v-43
h-138l-18 -109q32 17 63 17q47 0 80.5 -31.5z" />
    <glyph glyph-name="uni2465" unicode="&#x2465;" horiz-adv-x="860" 
d="M613 667.5q83 -46.5 131.5 -130t48.5 -187.5t-48.5 -187.5t-131.5 -130t-183 -46.5t-183 46.5t-131.5 130t-48.5 187.5t48.5 187.5t131.5 130t183 46.5t183 -46.5zM587.5 74.5q71.5 40.5 113 113t41.5 162.5t-41.5 162.5t-113 113t-157.5 40.5q-87 0 -158.5 -40.5
t-113 -113t-41.5 -162.5t41.5 -162.5t113 -113t158.5 -40.5q86 0 157.5 40.5zM523.5 373.5q34.5 -31.5 34.5 -90.5q0 -61 -36.5 -95.5t-88.5 -34.5q-58 0 -98.5 41t-40.5 136q0 107 43 162t109 55q45 0 86 -26v-52h-5q-14 15 -33.5 23.5t-42.5 8.5q-43 0 -71 -34.5
t-34 -106.5q16 22 41 33.5t54 11.5q48 0 82.5 -31.5zM483.5 221.5q22.5 22.5 22.5 61.5t-22.5 61.5t-54.5 22.5t-54.5 -22.5t-22.5 -61.5h-4h4q0 -39 22.5 -61.5t54.5 -22.5t54.5 22.5z" />
    <glyph glyph-name="uni2466" unicode="&#x2466;" horiz-adv-x="860" 
d="M613 667.5q83 -46.5 131.5 -130t48.5 -187.5t-48.5 -187.5t-131.5 -130t-183 -46.5t-183 46.5t-131.5 130t-48.5 187.5t48.5 187.5t131.5 130t183 46.5t183 -46.5zM587.5 74.5q71.5 40.5 113 113t41.5 162.5t-41.5 162.5t-113 113t-157.5 40.5q-87 0 -158.5 -40.5
t-113 -113t-41.5 -162.5t41.5 -162.5t113 -113t158.5 -40.5q86 0 157.5 40.5zM335 539h226v-30l-157 -348h-56l151 332h-164v46z" />
    <glyph glyph-name="uni2467" unicode="&#x2467;" horiz-adv-x="860" 
d="M613 667.5q83 -46.5 131.5 -130t48.5 -187.5t-48.5 -187.5t-131.5 -130t-183 -46.5t-183 46.5t-131.5 130t-48.5 187.5t48.5 187.5t131.5 130t183 46.5t183 -46.5zM587.5 74.5q71.5 40.5 113 113t41.5 162.5t-41.5 162.5t-113 113t-157.5 40.5q-87 0 -158.5 -40.5
t-113 -113t-41.5 -162.5t41.5 -162.5t113 -113t158.5 -40.5q86 0 157.5 40.5zM546 326q20 -26 20 -62q0 -50 -38.5 -80.5t-97.5 -30.5t-97.5 30.5t-38.5 80.5q0 36 20 62t56 39q-28 12 -42.5 34t-14.5 51q0 43 33 70t84 27q50 0 83 -27t33 -70q0 -29 -14.5 -51t-41.5 -34
q36 -13 56 -39zM381.5 489q-19.5 -17 -19.5 -46t20 -45.5t48 -16.5t47.5 16.5t19.5 45.5q0 30 -19.5 46.5t-47.5 16.5q-29 0 -48.5 -17zM491.5 214q25.5 20 25.5 54t-25.5 54.5t-61.5 20.5q-37 0 -62 -20.5t-25 -54.5t25 -54t62 -20q36 0 61.5 20z" />
    <glyph glyph-name="uni2468" unicode="&#x2468;" horiz-adv-x="860" 
d="M613 667.5q83 -46.5 131.5 -130t48.5 -187.5t-48.5 -187.5t-131.5 -130t-183 -46.5t-183 46.5t-131.5 130t-48.5 187.5t48.5 187.5t131.5 130t183 46.5t183 -46.5zM587.5 74.5q71.5 40.5 113 113t41.5 162.5t-41.5 162.5t-113 113t-157.5 40.5q-87 0 -158.5 -40.5
t-113 -113t-41.5 -162.5t41.5 -162.5t113 -113t158.5 -40.5q86 0 157.5 40.5zM527.5 506q40.5 -41 40.5 -136q0 -107 -43 -162t-109 -55q-46 0 -87 26v52h5q32 -32 77 -32q44 0 71.5 34.5t33.5 107.5q-16 -22 -41 -33t-54 -11q-49 0 -83 31t-34 90q0 61 36.5 95t88.5 34
q58 0 98.5 -41zM487.5 357q22.5 22 22.5 61h4h-4q0 39 -22.5 61t-54.5 22t-54.5 -22t-22.5 -61t22.5 -61t54.5 -22t54.5 22z" />
    <glyph glyph-name="uni24EA" unicode="&#x24ea;" horiz-adv-x="860" 
d="M247 32.5q-83 46.5 -131.5 130t-48.5 187.5t48.5 187.5t131.5 130t183 46.5t183 -46.5t131.5 -130t48.5 -187.5t-48.5 -187.5t-131.5 -130t-183 -46.5t-183 46.5zM587.5 74.5q71.5 40.5 113 113t41.5 162.5t-41.5 162.5t-113 113t-157.5 40.5q-87 0 -158.5 -40.5
t-113 -113t-41.5 -162.5t41.5 -162.5t113 -113t158.5 -40.5q86 0 157.5 40.5zM310 459.5q20 44.5 52 66t68 21.5t68 -21.5t51.5 -66t19.5 -109.5t-19.5 -109.5t-51.5 -66t-68 -21.5t-68 21.5t-52 66t-20 109.5t20 109.5zM369 237.5q26 -37.5 61 -37.5t60.5 37.5t25.5 112.5
t-25.5 112.5t-60.5 37.5t-61 -37.5t-26 -112.5t26 -112.5z" />
    <glyph glyph-name="uni24FF" unicode="&#x24ff;" horiz-adv-x="860" 
d="M247 32.5q-83 46.5 -131.5 130t-48.5 187.5t48.5 187.5t131.5 130t183 46.5t183 -46.5t131.5 -130t48.5 -187.5t-48.5 -187.5t-131.5 -130t-183 -46.5t-183 46.5zM310 240.5q20 -44.5 52 -66t68 -21.5t68 21.5t51.5 66t19.5 109.5t-19.5 109.5t-51.5 66t-68 21.5
t-68 -21.5t-52 -66t-20 -109.5t20 -109.5zM369 462.5q26 37.5 61 37.5t60.5 -37.5t25.5 -112.5t-25.5 -112.5t-60.5 -37.5t-61 37.5t-26 112.5t26 112.5z" />
    <glyph glyph-name="lozenge" unicode="&#x25ca;" horiz-adv-x="501" 
d="M455 350l-187 -350h-35l-187 350l187 350h35zM391 350l-141 272l-141 -272l141 -272z" />
    <glyph glyph-name="uni2776" unicode="&#x2776;" horiz-adv-x="860" 
d="M247 32.5q-83 46.5 -131.5 130t-48.5 187.5t48.5 187.5t131.5 130t183 46.5t183 -46.5t131.5 -130t48.5 -187.5t-48.5 -187.5t-131.5 -130t-183 -46.5t-183 46.5zM416 462v-301h51v378h-38q-8 -25 -31.5 -39t-53.5 -14v-47q44 0 72 23z" />
    <glyph glyph-name="uni2777" unicode="&#x2777;" horiz-adv-x="860" 
d="M247 32.5q-83 46.5 -131.5 130t-48.5 187.5t48.5 187.5t131.5 130t183 46.5t183 -46.5t131.5 -130t48.5 -187.5t-48.5 -187.5t-131.5 -130t-183 -46.5t-183 46.5zM547 161v45h-162l94 118q30 38 44 68.5t14 60.5q0 45 -29.5 69.5t-74.5 24.5q-31 0 -56.5 -12t-43.5 -31
v-56h5q19 24 38 38t47 14t44.5 -15.5t16.5 -42.5q0 -18 -9 -38.5t-30 -47.5l-130 -162v-33h232z" />
    <glyph glyph-name="uni2778" unicode="&#x2778;" horiz-adv-x="860" 
d="M247 32.5q-83 46.5 -131.5 130t-48.5 187.5t48.5 187.5t131.5 130t183 46.5t183 -46.5t131.5 -130t48.5 -187.5t-48.5 -187.5t-131.5 -130t-183 -46.5t-183 46.5zM423 153q58 0 92.5 30.5t34.5 80.5q0 37 -18 63t-52 37q28 12 42.5 34.5t14.5 51.5q0 44 -31 70.5
t-81 26.5q-46 0 -90 -29v-48h6q32 35 77 35q31 0 50 -16.5t19 -45.5q0 -31 -21 -47t-56 -16h-26v-40h29q40 0 64 -17.5t24 -53.5q0 -35 -23.5 -54.5t-60.5 -19.5q-28 0 -52 12t-39 36h-6v-55q40 -35 103 -35z" />
    <glyph glyph-name="uni2779" unicode="&#x2779;" horiz-adv-x="860" 
d="M247 32.5q-83 46.5 -131.5 130t-48.5 187.5t48.5 187.5t131.5 130t183 46.5t183 -46.5t131.5 -130t48.5 -187.5t-48.5 -187.5t-131.5 -130t-183 -46.5t-183 46.5zM451 245v-84h51v84h45v44h-45v250h-47l-175 -257v-37h171zM453 466v-177h-119z" />
    <glyph glyph-name="uni277A" unicode="&#x277a;" horiz-adv-x="860" 
d="M247 32.5q-83 46.5 -131.5 130t-48.5 187.5t48.5 187.5t131.5 130t183 46.5t183 -46.5t131.5 -130t48.5 -187.5t-48.5 -187.5t-131.5 -130t-183 -46.5t-183 46.5zM423 153q57 0 93.5 33.5t36.5 95.5q0 59 -33.5 90.5t-80.5 31.5q-34 0 -63 -18l18 110h138v43h-173
l-32 -201l20 -6q34 31 75 31q32 0 55.5 -18.5t23.5 -60.5q0 -45 -25.5 -65t-60.5 -20q-55 0 -93 47h-6v-59q46 -34 107 -34z" />
    <glyph glyph-name="uni277B" unicode="&#x277b;" horiz-adv-x="860" 
d="M247 32.5q-83 46.5 -131.5 130t-48.5 187.5t48.5 187.5t131.5 130t183 46.5t183 -46.5t131.5 -130t48.5 -187.5t-48.5 -187.5t-131.5 -130t-183 -46.5t-183 46.5zM334.5 194q40.5 -41 98.5 -41q52 0 88.5 34.5t36.5 95.5q0 59 -34.5 90.5t-82.5 31.5q-29 0 -54.5 -12
t-40.5 -35q6 73 33.5 108t71.5 35q23 0 42.5 -8.5t33.5 -23.5h5v52q-41 26 -86 26q-66 0 -109 -55t-43 -162q0 -95 40.5 -136zM374.5 344.5q22.5 22.5 54.5 22.5t54.5 -22.5t22.5 -61.5t-22.5 -61.5t-54.5 -22.5t-54.5 22.5t-22.5 61.5t22.5 61.5z" />
    <glyph glyph-name="uni277C" unicode="&#x277c;" horiz-adv-x="860" 
d="M247 32.5q-83 46.5 -131.5 130t-48.5 187.5t48.5 187.5t131.5 130t183 46.5t183 -46.5t131.5 -130t48.5 -187.5t-48.5 -187.5t-131.5 -130t-183 -46.5t-183 46.5zM500 493l-152 -332h56l157 348v30h-226v-46h165z" />
    <glyph glyph-name="uni277D" unicode="&#x277d;" horiz-adv-x="860" 
d="M247 32.5q-83 46.5 -131.5 130t-48.5 187.5t48.5 187.5t131.5 130t183 46.5t183 -46.5t131.5 -130t48.5 -187.5t-48.5 -187.5t-131.5 -130t-183 -46.5t-183 46.5zM332.5 183.5q38.5 -30.5 97.5 -30.5t97.5 30.5t38.5 80.5q0 36 -20 62t-56 39q27 12 41.5 34t14.5 51
q0 43 -33 70t-83 27q-51 0 -84 -27t-33 -70q0 -29 14.5 -51t41.5 -34q-36 -13 -55.5 -39t-19.5 -62q0 -50 38.5 -80.5zM381.5 489q19.5 17 48.5 17q28 0 47.5 -16.5t19.5 -46.5q0 -29 -19.5 -45.5t-47.5 -16.5t-48 16.5t-20 45.5t19.5 46zM368 322.5q25 20.5 62 20.5
q36 0 61.5 -20.5t25.5 -54.5t-25.5 -54t-61.5 -20q-37 0 -62 20t-25 54t25 54.5z" />
    <glyph glyph-name="uni277E" unicode="&#x277e;" horiz-adv-x="860" 
d="M247 32.5q-83 46.5 -131.5 130t-48.5 187.5t48.5 187.5t131.5 130t183 46.5t183 -46.5t131.5 -130t48.5 -187.5t-48.5 -187.5t-131.5 -130t-183 -46.5t-183 46.5zM338 328q34 -31 83 -31q29 0 54.5 11.5t40.5 34.5q-6 -73 -33.5 -108.5t-71.5 -35.5q-45 0 -77 32h-5v-52
q41 -26 87 -26q66 0 109 55t43 162q0 95 -40.5 136t-98.5 41q-52 0 -88.5 -34t-36.5 -95q0 -59 34 -90zM378.5 479q22.5 22 54.5 22t54.5 -22t22.5 -61t-22.5 -61t-54.5 -22t-54.5 22t-22.5 61t22.5 61z" />
    <glyph glyph-name="uniF408" unicode="&#xf408;" 
d="M-308 592l67 154h64l-82 -154h-49z" />
    <glyph glyph-name="i.loclTRK" horiz-adv-x="232" 
d="M147 502v-502h-63v502h63zM82 691q14 13 34 13q19 0 33 -13t14 -34q0 -20 -14 -33t-33 -13q-20 0 -34 13t-14 33q0 21 14 34z" />
    <glyph glyph-name="a.ss01" horiz-adv-x="629" 
d="M545 502v-502h-55v101q-31 -57 -84 -86t-114 -29q-62 0 -117 30.5t-89 90t-34 144.5t34 144.5t89 90t117 30.5t114.5 -29t83.5 -86v101h55zM392 68q42 23 68 70t26 113t-26 113t-68 70t-91 23t-91 -23t-68 -70t-26 -113t26 -113t68 -70t91 -23t91 23z" />
    <glyph glyph-name="aacute.ss01" horiz-adv-x="629" 
d="M545 502v-502h-55v101q-31 -57 -84 -86t-114 -29q-62 0 -117 30.5t-89 90t-34 144.5t34 144.5t89 90t117 30.5t114.5 -29t83.5 -86v101h55zM392 68q42 23 68 70t26 113t-26 113t-68 70t-91 23t-91 -23t-68 -70t-26 -113t26 -113t68 -70t91 -23t91 23zM280 592l67 154h64
l-82 -154h-49z" />
    <glyph glyph-name="abreve.ss01" horiz-adv-x="629" 
d="M545 502v-502h-55v101q-31 -57 -84 -86t-114 -29q-62 0 -117 30.5t-89 90t-34 144.5t34 144.5t89 90t117 30.5t114.5 -29t83.5 -86v101h55zM392 68q42 23 68 70t26 113t-26 113t-68 70t-91 23t-91 -23t-68 -70t-26 -113t26 -113t68 -70t91 -23t91 23zM185 732h44v-12
q0 -42 22 -64.5t63 -22.5q42 0 63.5 22.5t21.5 64.5v12h44v-8q0 -71 -34 -106t-95 -35t-95 35t-34 106v8z" />
    <glyph glyph-name="acircumflex.ss01" horiz-adv-x="629" 
d="M545 502v-502h-55v101q-31 -57 -84 -86t-114 -29q-62 0 -117 30.5t-89 90t-34 144.5t34 144.5t89 90t117 30.5t114.5 -29t83.5 -86v101h55zM392 68q42 23 68 70t26 113t-26 113t-68 70t-91 23t-91 -23t-68 -70t-26 -113t26 -113t68 -70t91 -23t91 23zM391 586l-77 86
l-78 -86h-54l113 140h39l113 -140h-56z" />
    <glyph glyph-name="adieresis.ss01" horiz-adv-x="629" 
d="M545 502v-502h-55v101q-31 -57 -84 -86t-114 -29q-62 0 -117 30.5t-89 90t-34 144.5t34 144.5t89 90t117 30.5t114.5 -29t83.5 -86v101h55zM392 68q42 23 68 70t26 113t-26 113t-68 70t-91 23t-91 -23t-68 -70t-26 -113t26 -113t68 -70t91 -23t91 23zM188 683
q12 11 29 11q18 0 29.5 -11t11.5 -30t-11.5 -30.5t-29.5 -11.5q-17 0 -29 11.5t-12 30.5t12 30zM382.5 683q11.5 11 29.5 11q17 0 29 -11t12 -30t-12 -30.5t-29 -11.5q-18 0 -29.5 11.5t-11.5 30.5t11.5 30z" />
    <glyph glyph-name="agrave.ss01" horiz-adv-x="629" 
d="M545 502v-502h-55v101q-31 -57 -84 -86t-114 -29q-62 0 -117 30.5t-89 90t-34 144.5t34 144.5t89 90t117 30.5t114.5 -29t83.5 -86v101h55zM392 68q42 23 68 70t26 113t-26 113t-68 70t-91 23t-91 -23t-68 -70t-26 -113t26 -113t68 -70t91 -23t91 23zM218 746h65l66 -154
h-48z" />
    <glyph glyph-name="amacron.ss01" horiz-adv-x="629" 
d="M545 502v-502h-55v101q-31 -57 -84 -86t-114 -29q-62 0 -117 30.5t-89 90t-34 144.5t34 144.5t89 90t117 30.5t114.5 -29t83.5 -86v101h55zM392 68q42 23 68 70t26 113t-26 113t-68 70t-91 23t-91 -23t-68 -70t-26 -113t26 -113t68 -70t91 -23t91 23zM198 624v52h233v-52
h-233z" />
    <glyph glyph-name="aogonek.ss01" horiz-adv-x="629" 
d="M545 502v-502h-55v101q-31 -57 -84 -86t-114 -29q-62 0 -117 30.5t-89 90t-34 144.5t34 144.5t89 90t117 30.5t114.5 -29t83.5 -86v101h55zM392 68q42 23 68 70t26 113t-26 113t-68 70t-91 23t-91 -23t-68 -70t-26 -113t26 -113t68 -70t91 -23t91 23zM427.5 -57
q23.5 32 71.5 59l45 -2q-44 -28 -65 -56.5t-21 -53.5q0 -21 13 -31.5t32 -10.5q20 0 56 13v-44q-36 -15 -67 -15q-39 0 -63.5 20.5t-24.5 55.5q0 33 23.5 65z" />
    <glyph glyph-name="aring.ss01" horiz-adv-x="629" 
d="M545 502v-502h-55v101q-31 -57 -84 -86t-114 -29q-62 0 -117 30.5t-89 90t-34 144.5t34 144.5t89 90t117 30.5t114.5 -29t83.5 -86v101h55zM392 68q42 23 68 70t26 113t-26 113t-68 70t-91 23t-91 -23t-68 -70t-26 -113t26 -113t68 -70t91 -23t91 23zM249.5 727
q27.5 24 65.5 24q37 0 65 -24t28 -64q0 -41 -27.5 -65t-65.5 -24t-65.5 24t-27.5 65q0 40 27.5 64zM279 626q15 -14 36 -14t36 14t15 37t-15 37t-36 14t-36 -14t-15 -37t15 -37z" />
    <glyph glyph-name="atilde.ss01" horiz-adv-x="629" 
d="M545 502v-502h-55v101q-31 -57 -84 -86t-114 -29q-62 0 -117 30.5t-89 90t-34 144.5t34 144.5t89 90t117 30.5t114.5 -29t83.5 -86v101h55zM392 68q42 23 68 70t26 113t-26 113t-68 70t-91 23t-91 -23t-68 -70t-26 -113t26 -113t68 -70t91 -23t91 23zM197 682
q23 28 56 28q23 0 39.5 -10t30 -22.5t18.5 -16.5q18 -16 34 -16q35 0 39 58h42q-1 -56 -24 -84t-56 -28q-22 0 -38.5 9.5t-30.5 21.5t-19 17q-17 17 -34 17q-35 0 -39 -58h-42q1 56 24 84z" />
    <glyph glyph-name="ae.ss01" horiz-adv-x="1008" 
d="M956 242h-405q1 -67 29.5 -111.5t73 -65.5t94.5 -21q95 0 168 66h8v-69q-78 -55 -172 -55q-68 0 -122 29.5t-85 87.5v-103h-55v101q-31 -57 -84 -86t-114 -29q-62 0 -117 30.5t-89 90t-34 144.5t34 144.5t89 90t117 30.5t114.5 -29t83.5 -86v101h55v-101q30 57 82.5 86
t117.5 29q96 0 154 -60.5t59 -175.5q0 -14 -2 -38zM616 417.5q-51 -42.5 -63 -122.5h344q-4 81 -46.5 123t-112.5 42q-71 0 -122 -42.5zM392 68q42 23 68 70t26 113t-26 113t-68 70t-91 23t-91 -23t-68 -70t-26 -113t26 -113t68 -70t91 -23t91 23z" />
    <glyph glyph-name="t_t.dlig" horiz-adv-x="695" 
d="M500 446v-300q0 -43 23.5 -64.5t62.5 -21.5h67v-60h-75q-63 0 -102 33t-39 104v309h-229v-300q0 -43 23.5 -64.5t62.5 -21.5h46v-60h-54q-63 0 -102 33t-39 104v309h-122v56h122v150h63v-150h229v150h63v-150h159v-56h-159z" />
    <glyph glyph-name="uni0430.ss01" horiz-adv-x="629" 
d="M545 502v-502h-55v101q-31 -57 -84 -86t-114 -29q-62 0 -117 30.5t-89 90t-34 144.5t34 144.5t89 90t117 30.5t114.5 -29t83.5 -86v101h55zM392 68q42 23 68 70t26 113t-26 113t-68 70t-91 23t-91 -23t-68 -70t-26 -113t26 -113t68 -70t91 -23t91 23z" />
    <glyph glyph-name="zero.osf" horiz-adv-x="610" 
d="M431 484q58 -32 92.5 -92t34.5 -141t-34.5 -141t-92.5 -92t-126 -32t-126 32t-92.5 92t-34.5 141t34.5 141t92.5 92t126 32t126 -32zM398.5 70q42.5 24 68.5 70.5t26 110.5t-26 110.5t-68.5 70.5t-93.5 24t-93.5 -24t-68.5 -70.5t-26 -110.5t26 -110.5t68.5 -70.5
t93.5 -24t93.5 24z" />
    <glyph glyph-name="one.osf" horiz-adv-x="343" 
d="M246 502v-502h-64v383q-48 -50 -136 -50v62q58 0 98.5 28.5t50.5 78.5h51z" />
    <glyph glyph-name="two.osf" horiz-adv-x="506" 
d="M451 60v-60h-410v38l253 216q37 31 57 59t20 60q0 41 -32.5 61.5t-86.5 20.5q-92 0 -163 -65h-11v71q32 25 79.5 40t99.5 15q79 0 129 -35t50 -104q0 -44 -23.5 -82t-70.5 -78l-188 -157h297z" />
    <glyph glyph-name="three.osf" horiz-adv-x="489" 
d="M399.5 109.5q33.5 -49.5 33.5 -116.5q0 -92 -62 -146.5t-165 -54.5q-109 0 -177 66v87h11q60 -90 164 -90q69 0 115.5 37.5t46.5 106.5q0 70 -47 107t-128 37h-46v62h41q73 0 113 31.5t40 90.5q0 57 -35.5 91.5t-98.5 34.5q-82 0 -137 -66h-11v75q65 54 151 54
q88 0 143.5 -49.5t55.5 -130.5q0 -54 -26 -94.5t-78 -60.5q63 -22 96.5 -71.5z" />
    <glyph glyph-name="four.osf" horiz-adv-x="537" 
d="M505 0h-90v-194h-65v194h-326v46l333 456h58v-442h90v-60zM350 60v334l-247 -334h247z" />
    <glyph glyph-name="five.osf" horiz-adv-x="530" 
d="M370.5 224.5q47.5 -24.5 75.5 -75t28 -123.5q0 -112 -63.5 -173t-168.5 -61q-109 0 -188 68v81h11q33 -40 77 -63t97 -23q73 0 120 42.5t47 128.5q0 82 -44.5 122.5t-110.5 40.5q-43 0 -80 -17.5t-65 -48.5l-33 8l63 371h303v-61h-254l-39 -225q53 33 120 33
q57 0 104.5 -24.5z" />
    <glyph glyph-name="six.osf" horiz-adv-x="591" 
d="M428 430.5q48 -27.5 77.5 -80.5t29.5 -127q0 -72 -28.5 -126t-78.5 -82.5t-114 -28.5q-66 0 -121.5 33t-90 106.5t-34.5 188.5q0 133 34.5 223t94.5 133.5t137 43.5q78 0 149 -47v-71h-11q-57 55 -135 55q-91 0 -144.5 -76t-59.5 -230q29 53 80.5 83t110.5 30
q56 0 104 -27.5zM387 69q36 20 58 59t22 95t-22 95.5t-58 59.5t-78 20q-41 0 -77 -20t-58 -59.5t-22 -95.5q0 -55 22.5 -94.5t58.5 -59.5t77 -20t77 20z" />
    <glyph glyph-name="seven.osf" horiz-adv-x="478" 
d="M447 502v-35l-312 -661h-71l299 635h-326v61h410z" />
    <glyph glyph-name="eight.osf" horiz-adv-x="577" 
d="M492 301.5q35 -49.5 35 -113.5q0 -57 -28 -103t-82 -72.5t-129 -26.5q-74 0 -128 26.5t-82 72.5t-28 103q0 64 35 113.5t100 72.5q-49 23 -74 64.5t-25 92.5q0 50 24.5 92t70 66.5t107.5 24.5t108 -24.5t70.5 -66t24.5 -92.5t-25 -92.5t-74 -64.5q65 -23 100 -72.5z
M191 616.5q-38 -34.5 -38 -91.5t38 -91.5t97 -34.5t97.5 34.5t38.5 91.5t-38.5 91.5t-97.5 34.5t-97 -34.5zM374.5 67q39.5 18 62.5 51t23 76t-23 76t-62.5 51t-86.5 18t-86 -18t-62 -51t-23 -76t23 -76t62 -51t86 -18t86.5 18z" />
    <glyph glyph-name="nine.osf" horiz-adv-x="591" 
d="M399.5 483.5q55.5 -32.5 89.5 -105.5t34 -188q0 -133 -34.5 -222.5t-94.5 -132.5t-137 -43q-78 0 -148 47v71h10q57 -55 135 -55q92 0 145.5 76t58.5 232q-29 -53 -80 -82.5t-110 -29.5q-56 0 -104 27t-77.5 79t-29.5 125q0 72 28.5 124.5t78.5 81t114 28.5
q66 0 121.5 -32.5zM359 130.5q36 19.5 58 58t22 93.5t-22 93.5t-58 58t-77 19.5q-42 0 -78 -19.5t-58 -58t-22 -93.5t22 -93.5t58.5 -58t77.5 -19.5t77 19.5z" />
    <glyph glyph-name="zero.subs" horiz-adv-x="376" 
d="M64 132q20 44 52.5 66t71.5 22q38 0 71 -22t52.5 -66t19.5 -109t-19.5 -109t-52.5 -66t-71 -22q-39 0 -71.5 22t-52.5 66t-20 109t20 109zM128.5 -83q23.5 -36 59.5 -36q35 0 58.5 36t23.5 106t-23.5 106t-58.5 36q-36 0 -59.5 -36t-23.5 -106t23.5 -106z" />
    <glyph glyph-name="one.subs" horiz-adv-x="242" 
d="M168 212v-378h-59v293q-27 -22 -73 -22v54q32 0 56 13.5t31 39.5h45z" />
    <glyph glyph-name="two.subs" horiz-adv-x="307" 
d="M270 -114v-52h-240v37l132 158q38 47 38 82q0 25 -16.5 39.5t-43.5 14.5q-49 0 -86 -51h-6v64q46 42 105 42q46 0 76.5 -25.5t30.5 -73.5q0 -30 -14 -60.5t-44 -65.5l-91 -109h159z" />
    <glyph glyph-name="three.subs" horiz-adv-x="298" 
d="M243.5 0q18.5 -26 18.5 -63q0 -51 -34.5 -81t-95.5 -30q-66 0 -106 34v61h6q16 -22 40.5 -34t53.5 -12q36 0 57.5 18t21.5 50q0 33 -23.5 49.5t-63.5 16.5h-28v47h25q36 0 56 14.5t20 43.5q0 27 -17 42t-48 15q-46 0 -79 -32h-7v53q44 28 94 28q52 0 83 -27t31 -71
q0 -30 -15 -52t-44 -33q36 -11 54.5 -37z" />
    <glyph glyph-name="four.subs" horiz-adv-x="329" 
d="M299 -84h-45v-82h-59v82h-171v42l175 254h55v-246h45v-50zM197 -34v167l-115 -167h115z" />
    <glyph glyph-name="five.subs" horiz-adv-x="324" 
d="M248.5 46q33.5 -32 33.5 -91q0 -61 -37 -95t-97 -34q-61 0 -109 35v62h7q17 -20 41.5 -32t51.5 -12q35 0 59 18.5t24 59.5q0 39 -22.5 56.5t-53.5 17.5q-40 0 -73 -28l-24 7l32 202h180v-51h-139l-17 -97q28 14 60 14q50 0 83.5 -32z" />
    <glyph glyph-name="six.subs" horiz-adv-x="356" 
d="M281 49q35 -32 35 -92q0 -62 -37 -96.5t-91 -34.5q-59 0 -101.5 41.5t-42.5 136.5q0 106 43.5 161t111.5 55q49 0 90 -26v-57h-6q-34 30 -78 30q-43 0 -70 -32t-33 -101q16 23 41 35t54 12q49 0 84 -32zM235 -100q22 21 22 57t-22 57t-52 21t-51.5 -21t-21.5 -57
t21.5 -57t51.5 -21t52 21z" />
    <glyph glyph-name="seven.subs" horiz-adv-x="302" 
d="M268 212v-34l-161 -344h-63l154 326h-166v52h236z" />
    <glyph glyph-name="eight.subs" horiz-adv-x="352" 
d="M296.5 -1.5q19.5 -25.5 19.5 -59.5q0 -51 -39 -82t-101 -31t-101 31t-39 82q0 34 19 59.5t54 38.5q-26 13 -40 35t-14 49q0 44 34 71.5t87 27.5t87 -27.5t34 -71.5q0 -27 -14 -49t-41 -35q35 -13 54.5 -38.5zM130.5 156.5q-18.5 -15.5 -18.5 -43.5q0 -27 18.5 -42.5
t45.5 -15.5t45 15.5t18 42.5q0 28 -18 43.5t-45 15.5t-45.5 -15.5zM235 -107q24 19 24 50t-24 49.5t-59 18.5t-59 -18.5t-24 -49.5t24 -50t59 -19t59 19z" />
    <glyph glyph-name="nine.subs" horiz-adv-x="356" 
d="M269 178.5q42 -41.5 42 -136.5q0 -107 -43 -161.5t-111 -54.5q-49 0 -90 26v57h6q34 -30 78 -30q43 0 70 32t33 102q-16 -22 -41 -33.5t-55 -11.5q-49 0 -83.5 31t-34.5 91q0 62 36.5 96t91.5 34q59 0 101 -41.5zM224.5 33.5q21.5 20.5 21.5 56.5t-21.5 56.5t-51.5 20.5
q-31 0 -52.5 -20.5t-21.5 -56.5t21.5 -56.5t52.5 -20.5q30 0 51.5 20.5z" />
    <glyph glyph-name="zero.tf" horiz-adv-x="614" 
d="M97 549q32 82 87 123.5t123 41.5t123 -41.5t87 -123.5t32 -199t-32 -199t-87 -123.5t-123 -41.5t-123 41.5t-87 123.5t-32 199t32 199zM155.5 183q23.5 -68 63 -101t88.5 -33t88.5 33t63 101t23.5 167t-23.5 167t-63 101t-88.5 33t-88.5 -33t-63 -101t-23.5 -167
t23.5 -167z" />
    <glyph glyph-name="one.tf" horiz-adv-x="614" 
d="M555 60v-60h-487v60h219v531q-30 -28 -78 -44t-95 -16v62q39 0 80.5 13t71 37.5t35.5 56.5h51v-640h203z" />
    <glyph glyph-name="two.tf" horiz-adv-x="614" 
d="M509 60v-60h-439v36l264 313q43 52 64 94.5t21 86.5q0 59 -34.5 90t-90.5 31q-54 0 -97.5 -27t-75.5 -71h-10v78q32 39 81.5 61t105.5 22q82 0 135.5 -46t53.5 -132q0 -59 -26 -109.5t-78 -112.5l-213 -254h339z" />
    <glyph glyph-name="three.tf" horiz-adv-x="614" 
d="M476 305.5q36 -49.5 36 -117.5q0 -61 -29.5 -106.5t-84 -70.5t-126.5 -25q-116 0 -188 66v87h12q63 -90 173 -90q75 0 125.5 37.5t50.5 107.5t-51 108t-138 38h-48v61h44q77 0 120.5 31.5t43.5 91.5q0 57 -38.5 92t-105.5 35q-88 0 -147 -67h-11v76q69 54 161 54
q60 0 107.5 -22.5t74 -63.5t26.5 -95q0 -55 -27.5 -95t-82.5 -61q67 -22 103 -71.5z" />
    <glyph glyph-name="four.tf" horiz-adv-x="614" 
d="M551 163h-93v-163h-65v163h-336v46l344 491h57v-477h93v-60zM393 223v368l-257 -368h257z" />
    <glyph glyph-name="five.tf" horiz-adv-x="614" 
d="M415 421q49 -25 78 -75.5t29 -124.5q0 -112 -65.5 -173.5t-173.5 -61.5q-113 0 -195 68v81h11q34 -39 79.5 -62.5t100.5 -23.5q76 0 126 43t50 129q0 83 -47 124t-115 41q-46 0 -84.5 -17.5t-67.5 -49.5l-33 8l65 373h314v-61h-266l-41 -227q59 34 127 34q59 0 108 -25z
" />
    <glyph glyph-name="six.tf" horiz-adv-x="614" 
d="M442 431q49 -27 78.5 -80.5t29.5 -127.5q0 -72 -29 -126t-79.5 -82.5t-114.5 -28.5q-67 0 -123 33t-90.5 106.5t-34.5 188.5q0 133 35 223t95.5 133.5t137.5 43.5q80 0 151 -47v-71h-11q-57 55 -136 55q-92 0 -146.5 -76t-60.5 -231q30 54 81.5 84t111.5 30q56 0 105 -27
zM401.5 69q36.5 20 59 59t22.5 95t-22.5 95.5t-59 59.5t-78.5 20t-78.5 -20t-59 -59.5t-22.5 -95.5q0 -55 22.5 -94.5t59.5 -59.5t78 -20q42 0 78.5 20z" />
    <glyph glyph-name="seven.tf" horiz-adv-x="614" 
d="M529 700v-35l-334 -665h-71l320 639h-350v61h435z" />
    <glyph glyph-name="eight.tf" horiz-adv-x="614" 
d="M513.5 301.5q35.5 -49.5 35.5 -113.5q0 -57 -28.5 -103t-83.5 -72.5t-130 -26.5t-130 26.5t-83.5 72.5t-28.5 103q0 64 35.5 113.5t101.5 72.5q-50 22 -75.5 64t-25.5 93t24.5 92.5t71.5 66t110 24.5t110 -24.5t71.5 -66t24.5 -92.5t-25.5 -93t-75.5 -64
q66 -23 101.5 -72.5zM207.5 616.5q-39.5 -34.5 -39.5 -91.5t39.5 -91.5t99.5 -34.5t99.5 34.5t39.5 91.5t-39.5 91.5t-99.5 34.5t-99.5 -34.5zM431.5 89q50.5 40 50.5 105t-50.5 105t-124.5 40t-124.5 -40t-50.5 -105t50.5 -105t124.5 -40t124.5 40z" />
    <glyph glyph-name="nine.tf" horiz-adv-x="614" 
d="M410 681q56 -33 90.5 -106.5t34.5 -188.5q0 -133 -35 -223t-95.5 -133.5t-137.5 -43.5q-80 0 -151 47v71h11q57 -55 136 -55q93 0 147 76.5t60 233.5q-30 -53 -81.5 -83t-111.5 -30q-56 0 -105 27t-78.5 80t-29.5 126q0 71 29 124.5t79.5 82t114.5 28.5q67 0 123 -33z
M369.5 326q36.5 20 59 59t22.5 94q0 54 -22.5 93t-59.5 59t-78 20q-42 0 -78.5 -20t-59 -58.5t-22.5 -93.5t22.5 -94t59 -59t78.5 -20t78.5 20z" />
    <glyph glyph-name="zero.tosf" horiz-adv-x="614" 
d="M87.5 392q34.5 60 93 92t126.5 32t126.5 -32t93 -92t34.5 -141t-34.5 -141t-93 -92t-126.5 -32t-126.5 32t-93 92t-34.5 141t34.5 141zM144 140.5q26 -46.5 69 -70.5t94 -24t94 24t69 70.5t26 110.5t-26 110.5t-69 70.5t-94 24t-94 -24t-69 -70.5t-26 -110.5t26 -110.5z
" />
    <glyph glyph-name="one.tosf" horiz-adv-x="614" 
d="M568 60v-60h-486v60h219v333q-30 -28 -78 -44t-95 -16v62q39 0 80 13t70.5 37.5t35.5 56.5h51v-442h203z" />
    <glyph glyph-name="two.tosf" horiz-adv-x="614" 
d="M508 60v-60h-432v38l269 215q40 31 60.5 59.5t20.5 60.5q0 41 -34.5 61.5t-92.5 20.5q-95 0 -172 -65h-11v71q32 25 82.5 40t105.5 15q83 0 135.5 -35t52.5 -104q0 -44 -25 -82t-75 -78l-201 -157h317z" />
    <glyph glyph-name="three.tosf" horiz-adv-x="614" 
d="M471 109.5q35 -49.5 35 -116.5q0 -60 -30 -105.5t-84.5 -70.5t-126.5 -25q-117 0 -189 66v87h12q63 -90 174 -90q76 0 126.5 37.5t50.5 106.5q0 70 -51 107t-138 37h-49v61h44q77 0 121 31.5t44 91.5q0 57 -39 91.5t-106 34.5q-87 0 -148 -66h-10v75q69 54 161 54
q61 0 108.5 -22.5t74 -63t26.5 -94.5q0 -53 -27 -94t-81 -61q67 -22 102 -71.5z" />
    <glyph glyph-name="four.tosf" horiz-adv-x="614" 
d="M551 0h-93v-194h-65v194h-338v46l345 456h58v-442h93v-60zM393 60v343l-259 -343h259z" />
    <glyph glyph-name="five.tosf" horiz-adv-x="614" 
d="M420 224q49 -25 78.5 -75t29.5 -123q0 -111 -66 -172.5t-175 -61.5q-113 0 -195 68v81h11q35 -39 80.5 -62.5t100.5 -23.5q76 0 126 42.5t50 128.5q0 82 -47 122.5t-116 40.5q-45 0 -84.5 -17.5t-67.5 -48.5l-33 8l66 371h314v-61h-266l-42 -226q59 34 128 34
q59 0 108 -25z" />
    <glyph glyph-name="six.tosf" horiz-adv-x="614" 
d="M442 431q49 -27 78.5 -80.5t29.5 -127.5q0 -72 -29 -126t-79.5 -82.5t-114.5 -28.5q-67 0 -123 33t-90.5 106.5t-34.5 188.5q0 133 35 223t95.5 133.5t137.5 43.5q80 0 151 -47v-71h-11q-57 55 -136 55q-92 0 -146.5 -76t-60.5 -231q30 54 81.5 84t111.5 30q56 0 105 -27
zM401.5 69q36.5 20 59 59t22.5 95t-22.5 95.5t-59 59.5t-78.5 20t-78.5 -20t-59 -59.5t-22.5 -95.5q0 -55 22.5 -94.5t59.5 -59.5t78 -20q42 0 78.5 20z" />
    <glyph glyph-name="seven.tosf" horiz-adv-x="614" 
d="M529 502v-35l-336 -661h-71l322 635h-353v61h438z" />
    <glyph glyph-name="eight.tosf" horiz-adv-x="614" 
d="M513.5 301.5q35.5 -49.5 35.5 -113.5q0 -57 -28.5 -103t-83.5 -72.5t-130 -26.5t-130 26.5t-83.5 72.5t-28.5 103q0 64 35.5 113.5t101.5 72.5q-50 22 -75.5 64t-25.5 93t24.5 92.5t71.5 66t110 24.5t110 -24.5t71.5 -66t24.5 -92.5t-25.5 -93t-75.5 -64
q66 -23 101.5 -72.5zM207.5 616.5q-39.5 -34.5 -39.5 -91.5t39.5 -91.5t99.5 -34.5t99.5 34.5t39.5 91.5t-39.5 91.5t-99.5 34.5t-99.5 -34.5zM431.5 89q50.5 40 50.5 105t-50.5 105t-124.5 40t-124.5 -40t-50.5 -105t50.5 -105t124.5 -40t124.5 40z" />
    <glyph glyph-name="nine.tosf" horiz-adv-x="614" 
d="M410 484.5q56 -32.5 90.5 -106t34.5 -188.5q0 -133 -35 -222.5t-95.5 -132.5t-137.5 -43q-80 0 -151 47v71h11q57 -55 136 -55q93 0 147.5 76.5t59.5 232.5q-30 -54 -81.5 -83.5t-111.5 -29.5q-56 0 -105 27t-78.5 79.5t-29.5 125.5q0 71 29 124t79.5 81.5t114.5 28.5
q67 0 123 -32.5zM369.5 130.5q36.5 19.5 59 58.5t22.5 94q0 54 -22.5 93t-59.5 58.5t-78 19.5q-42 0 -78.5 -19.5t-59 -58t-22.5 -93.5t22.5 -94t59 -58.5t78.5 -19.5t78.5 19.5z" />
    <glyph glyph-name="zero.dnom" horiz-adv-x="376" 
d="M64 298q20 44 52.5 66t71.5 22q38 0 71 -22t52.5 -66t19.5 -109t-19.5 -109t-52.5 -66t-71 -22q-39 0 -71.5 22t-52.5 66t-20 109t20 109zM128.5 83q23.5 -36 59.5 -36q35 0 58.5 36t23.5 106t-23.5 106t-58.5 36q-36 0 -59.5 -36t-23.5 -106t23.5 -106z" />
    <glyph glyph-name="one.dnom" horiz-adv-x="242" 
d="M168 378v-378h-59v293q-27 -22 -73 -22v54q32 0 56 13.5t31 39.5h45z" />
    <glyph glyph-name="two.dnom" horiz-adv-x="307" 
d="M270 52v-52h-240v37l132 158q38 47 38 82q0 25 -16.5 39.5t-43.5 14.5q-49 0 -86 -51h-6v64q46 42 105 42q46 0 76.5 -25.5t30.5 -73.5q0 -30 -14 -60.5t-44 -65.5l-91 -109h159z" />
    <glyph glyph-name="three.dnom" horiz-adv-x="298" 
d="M243 166q19 -26 19 -63q0 -51 -34.5 -81t-95.5 -30q-66 0 -106 34v61h6q16 -22 40.5 -34t53.5 -12q36 0 57.5 18t21.5 50q0 33 -23.5 49.5t-63.5 16.5h-28v47h25q36 0 56 14.5t20 43.5q0 27 -17 42t-48 15q-46 0 -79 -32h-7v53q44 28 94 28q52 0 83 -27t31 -71
q0 -30 -15 -52t-45 -33q36 -11 55 -37z" />
    <glyph glyph-name="four.dnom" horiz-adv-x="329" 
d="M299 82h-45v-82h-59v82h-171v42l175 254h55v-246h45v-50zM197 132v166l-114 -166h114z" />
    <glyph glyph-name="five.dnom" horiz-adv-x="324" 
d="M248.5 212q33.5 -32 33.5 -91q0 -61 -37 -95t-97 -34q-61 0 -109 35v62h7q17 -20 41.5 -32t51.5 -12q35 0 59 18.5t24 59.5q0 39 -22.5 56.5t-53.5 17.5q-40 0 -73 -28l-24 7l32 202h180v-51h-139l-17 -97q28 14 60 14q50 0 83.5 -32z" />
    <glyph glyph-name="six.dnom" horiz-adv-x="356" 
d="M281 215q35 -32 35 -92q0 -62 -37 -96.5t-91 -34.5q-59 0 -101.5 41.5t-42.5 136.5q0 106 43.5 161t111.5 55q49 0 90 -26v-57h-6q-34 30 -78 30q-43 0 -70 -32t-33 -101q16 23 41 35t54 12q49 0 84 -32zM235 66q22 21 22 57t-22 57t-52 21t-51.5 -21t-21.5 -57t21.5 -57
t51.5 -21t52 21z" />
    <glyph glyph-name="seven.dnom" horiz-adv-x="302" 
d="M268 378v-34l-161 -344h-63l153 326h-165v52h236z" />
    <glyph glyph-name="eight.dnom" horiz-adv-x="352" 
d="M297 164.5q19 -25.5 19 -59.5q0 -51 -39 -82t-101 -31t-101 31t-39 82q0 34 19 59.5t54 38.5q-26 13 -40 35t-14 49q0 44 34 71.5t87 27.5t87 -27.5t34 -71.5q0 -27 -14 -49t-40 -35q35 -13 54 -38.5zM130.5 322.5q-18.5 -15.5 -18.5 -43.5q0 -27 18.5 -42.5t45.5 -15.5
t45 15.5t18 42.5q0 28 -18 43.5t-45 15.5t-45.5 -15.5zM235 59q24 19 24 50t-24 49.5t-59 18.5t-59 -18.5t-24 -49.5t24 -50t59 -19t59 19z" />
    <glyph glyph-name="nine.dnom" horiz-adv-x="356" 
d="M269 344.5q42 -41.5 42 -136.5q0 -107 -43 -161.5t-111 -54.5q-49 0 -90 26v57h6q34 -30 78 -30q43 0 70 32.5t33 101.5q-16 -22 -41 -33.5t-55 -11.5q-49 0 -83.5 31t-34.5 91q0 62 36.5 96t91.5 34q59 0 101 -41.5zM224.5 199.5q21.5 20.5 21.5 56.5t-21.5 56.5
t-51.5 20.5q-31 0 -52.5 -20.5t-21.5 -56.5t21.5 -56.5t52.5 -20.5q30 0 51.5 20.5z" />
    <glyph glyph-name="zero.numr" horiz-adv-x="376" 
d="M64 620q20 44 52.5 66t71.5 22q38 0 71 -22t52.5 -66t19.5 -109t-19.5 -109t-52.5 -66t-71 -22q-39 0 -71.5 22t-52.5 66t-20 109t20 109zM128.5 405q23.5 -36 59.5 -36q35 0 58.5 36t23.5 106t-23.5 106t-58.5 36q-36 0 -59.5 -36t-23.5 -106t23.5 -106z" />
    <glyph glyph-name="one.numr" horiz-adv-x="242" 
d="M168 700v-378h-59v293q-27 -22 -73 -22v54q32 0 56 13.5t31 39.5h45z" />
    <glyph glyph-name="two.numr" horiz-adv-x="307" 
d="M270 374v-52h-240v37l132 158q38 47 38 82q0 25 -16.5 39.5t-43.5 14.5q-49 0 -86 -51h-6v64q46 42 105 42q46 0 76.5 -25.5t30.5 -73.5q0 -30 -14 -60.5t-44 -65.5l-91 -109h159z" />
    <glyph glyph-name="three.numr" horiz-adv-x="298" 
d="M243.5 488q18.5 -26 18.5 -63q0 -51 -34.5 -81t-95.5 -30q-66 0 -106 34v61h6q16 -22 40.5 -34t53.5 -12q36 0 57.5 18t21.5 50q0 33 -23.5 49.5t-63.5 16.5h-28v47h25q36 0 56 14.5t20 43.5q0 27 -17 42t-48 15q-46 0 -79 -32h-7v53q44 28 94 28q52 0 83 -27t31 -71
q0 -30 -15 -52t-44 -33q36 -11 54.5 -37z" />
    <glyph glyph-name="four.numr" horiz-adv-x="329" 
d="M299 404h-45v-82h-59v82h-171v42l175 254h55v-246h45v-50zM197 454v166l-114 -166h114z" />
    <glyph glyph-name="five.numr" horiz-adv-x="324" 
d="M248.5 534q33.5 -32 33.5 -91q0 -61 -37 -95t-97 -34q-61 0 -109 35v62h7q17 -20 41.5 -32t51.5 -12q35 0 59 18.5t24 59.5q0 39 -22.5 56.5t-53.5 17.5q-40 0 -73 -28l-24 7l32 202h180v-51h-139l-17 -97q28 14 60 14q50 0 83.5 -32z" />
    <glyph glyph-name="six.numr" horiz-adv-x="356" 
d="M281 537q35 -32 35 -92q0 -62 -37 -96.5t-91 -34.5q-59 0 -101.5 41.5t-42.5 136.5q0 106 43.5 161t111.5 55q49 0 90 -26v-57h-6q-34 30 -78 30q-43 0 -70 -32t-33 -101q16 23 41 35t54 12q49 0 84 -32zM235 388q22 21 22 57t-22 57t-52 21t-51.5 -21t-21.5 -57
t21.5 -57t51.5 -21t52 21z" />
    <glyph glyph-name="seven.numr" horiz-adv-x="302" 
d="M268 700v-34l-161 -344h-63l154 326h-166v52h236z" />
    <glyph glyph-name="eight.numr" horiz-adv-x="352" 
d="M297 486.5q19 -25.5 19 -59.5q0 -51 -39 -82t-101 -31t-101 31t-39 82q0 34 19 59.5t54 38.5q-26 13 -40 35t-14 49q0 44 34 71.5t87 27.5t87 -27.5t34 -71.5q0 -27 -14 -49t-40 -35q35 -13 54 -38.5zM130.5 644.5q-18.5 -15.5 -18.5 -43.5q0 -27 18.5 -42.5t45.5 -15.5
t45 15.5t18 42.5q0 28 -18 43.5t-45 15.5t-45.5 -15.5zM235 381q24 19 24 50t-24 49.5t-59 18.5t-59 -18.5t-24 -49.5t24 -50t59 -19t59 19z" />
    <glyph glyph-name="nine.numr" horiz-adv-x="356" 
d="M269 666.5q42 -41.5 42 -136.5q0 -107 -43 -161.5t-111 -54.5q-49 0 -90 26v57h6q34 -30 78 -30q43 0 70 32.5t33 101.5q-16 -22 -41 -33.5t-55 -11.5q-49 0 -83.5 31t-34.5 91q0 62 36.5 96t91.5 34q59 0 101 -41.5zM224.5 521.5q21.5 20.5 21.5 56.5t-21.5 56.5
t-51.5 20.5q-31 0 -52.5 -20.5t-21.5 -56.5t21.5 -56.5t52.5 -20.5q30 0 51.5 20.5z" />
    <glyph glyph-name="zero.sups" horiz-adv-x="376" 
d="M64 706q20 44 52.5 66t71.5 22q38 0 71 -22t52.5 -66t19.5 -109t-19.5 -109t-52.5 -66t-71 -22q-39 0 -71.5 22t-52.5 66t-20 109t20 109zM128.5 491q23.5 -36 59.5 -36q35 0 58.5 36t23.5 106t-23.5 106t-58.5 36q-36 0 -59.5 -36t-23.5 -106t23.5 -106z" />
    <glyph glyph-name="one.sups" horiz-adv-x="242" 
d="M168 786v-378h-59v293q-27 -22 -73 -22v54q32 0 56 13.5t31 39.5h45z" />
    <glyph glyph-name="two.sups" horiz-adv-x="307" 
d="M270 460v-52h-240v37l132 158q38 47 38 82q0 25 -16.5 39.5t-43.5 14.5q-49 0 -86 -51h-6v64q46 42 105 42q46 0 76.5 -25.5t30.5 -73.5q0 -30 -14 -60.5t-44 -65.5l-91 -109h159z" />
    <glyph glyph-name="three.sups" horiz-adv-x="298" 
d="M243.5 574q18.5 -26 18.5 -63q0 -51 -34.5 -81t-95.5 -30q-66 0 -106 34v61h6q16 -22 40.5 -34t53.5 -12q36 0 57.5 18t21.5 50q0 33 -23.5 49.5t-63.5 16.5h-28v47h25q36 0 56 14.5t20 43.5q0 27 -17 42t-48 15q-46 0 -79 -32h-7v53q44 28 94 28q52 0 83 -27t31 -71
q0 -30 -15 -52t-44 -33q36 -11 54.5 -37z" />
    <glyph glyph-name="four.sups" horiz-adv-x="329" 
d="M299 490h-45v-82h-59v82h-171v42l175 254h55v-246h45v-50zM197 540v166l-114 -166h114z" />
    <glyph glyph-name="five.sups" horiz-adv-x="324" 
d="M248.5 620q33.5 -32 33.5 -91q0 -61 -37 -95t-97 -34q-61 0 -109 35v62h7q17 -20 41.5 -32t51.5 -12q35 0 59 18.5t24 59.5q0 39 -22.5 56.5t-53.5 17.5q-40 0 -73 -28l-24 7l32 202h180v-51h-139l-17 -97q28 14 60 14q50 0 83.5 -32z" />
    <glyph glyph-name="six.sups" horiz-adv-x="356" 
d="M281 623q35 -32 35 -92q0 -62 -37 -96.5t-91 -34.5q-59 0 -101.5 41.5t-42.5 136.5q0 106 43.5 161t111.5 55q49 0 90 -26v-57h-6q-34 30 -78 30q-43 0 -70 -32t-33 -101q16 23 41 35t54 12q49 0 84 -32zM235 474q22 21 22 57t-22 57t-52 21t-51.5 -21t-21.5 -57
t21.5 -57t51.5 -21t52 21z" />
    <glyph glyph-name="seven.sups" horiz-adv-x="302" 
d="M268 786v-34l-161 -344h-63l154 326h-166v52h236z" />
    <glyph glyph-name="eight.sups" horiz-adv-x="352" 
d="M297 572.5q19 -25.5 19 -59.5q0 -51 -39 -82t-101 -31t-101 31t-39 82q0 34 19 59.5t54 38.5q-26 13 -40 35t-14 49q0 44 34 71.5t87 27.5t87 -27.5t34 -71.5q0 -27 -14 -49t-40 -35q35 -13 54 -38.5zM130.5 730.5q-18.5 -15.5 -18.5 -43.5q0 -27 18.5 -42.5t45.5 -15.5
t45 15.5t18 42.5q0 28 -18 43.5t-45 15.5t-45.5 -15.5zM235 467q24 19 24 50t-24 49.5t-59 18.5t-59 -18.5t-24 -49.5t24 -50t59 -19t59 19z" />
    <glyph glyph-name="nine.sups" horiz-adv-x="356" 
d="M269 752.5q42 -41.5 42 -136.5q0 -107 -43 -161.5t-111 -54.5q-49 0 -90 26v57h6q34 -30 78 -30q43 0 70 32.5t33 101.5q-16 -22 -41 -33.5t-55 -11.5q-49 0 -83.5 31t-34.5 91q0 62 36.5 96t91.5 34q59 0 101 -41.5zM224.5 607.5q21.5 20.5 21.5 56.5t-21.5 56.5
t-51.5 20.5q-31 0 -52.5 -20.5t-21.5 -56.5t21.5 -56.5t52.5 -20.5q30 0 51.5 20.5z" />
    <glyph glyph-name="exclamdown.case" horiz-adv-x="279" 
d="M103.5 700q15.5 14 36.5 14t36 -14t15 -38t-15 -37.5t-36 -13.5t-36.5 13.5t-15.5 37.5t15.5 38zM112 520h56l3 -520h-63z" />
    <glyph glyph-name="questiondown.case" horiz-adv-x="456" 
d="M296.5 624.5q-15.5 -13.5 -36.5 -13.5t-36.5 13.5t-15.5 37.5t15.5 38t36.5 14t36.5 -14t15.5 -38t-15.5 -37.5zM407 61q-30 -36 -75 -55.5t-96 -19.5q-75 0 -127 41.5t-52 129.5q0 38 11 67t25.5 49t45.5 57l60 72q18 22 25.5 42.5t7.5 46.5v33h56v-38q0 -42 -11.5 -68
t-38.5 -58l-66 -78q-49 -56 -49 -119q0 -59 32.5 -87.5t86.5 -28.5t90 24.5t65 64.5h10v-75z" />
    <glyph glyph-name="braceleft.case" horiz-adv-x="335" 
d="M175 386.5q-17 -27.5 -52 -36.5q35 -9 52 -36.5t17 -68.5v-209q0 -32 16.5 -48.5t43.5 -16.5h42v-51h-48q-45 0 -79.5 25.5t-34.5 85.5v205q0 47 -14 69.5t-50 22.5h-8v44h8q36 0 50 22.5t14 69.5v205q0 60 34.5 85.5t79.5 25.5h48v-51h-42q-27 0 -43.5 -16.5
t-16.5 -48.5v-209q0 -41 -17 -68.5z" />
    <glyph glyph-name="braceright.case" horiz-adv-x="335" 
d="M274 372v-44h-7q-36 0 -50 -22.5t-14 -69.5v-205q0 -60 -34.5 -85.5t-79.5 -25.5h-49v51h42q28 0 44.5 16.5t16.5 48.5v209q0 41 17 68.5t51 36.5q-34 9 -51 36.5t-17 68.5v209q0 32 -16.5 48.5t-44.5 16.5h-42v51h49q45 0 79.5 -25.5t34.5 -85.5v-205q0 -47 14 -69.5
t50 -22.5h7z" />
    <glyph glyph-name="bracketleft.case" horiz-adv-x="302" 
d="M158 722v-744h95v-54h-156v853h156v-55h-95z" />
    <glyph glyph-name="bracketright.case" horiz-adv-x="302" 
d="M204 777v-853h-156v54h95v744h-95v55h156z" />
    <glyph glyph-name="parenleft.case" horiz-adv-x="344" 
d="M121.5 575.5q46.5 101.5 148.5 206.5l40 -35q-86 -96 -127.5 -189.5t-41.5 -207.5t41.5 -207.5t127.5 -189.5l-40 -35q-102 105 -148.5 206.5t-46.5 225.5t46.5 225.5z" />
    <glyph glyph-name="parenright.case" horiz-adv-x="344" 
d="M222.5 124.5q-46.5 -101.5 -148.5 -206.5l-40 35q87 96 128 189t41 208t-41 208t-128 189l40 35q102 -105 148.5 -206.5t46.5 -225.5t-46.5 -225.5z" />
    <glyph glyph-name="emdash.case" horiz-adv-x="756" 
d="M667 403v-59h-579v59h579z" />
    <glyph glyph-name="endash.case" horiz-adv-x="593" 
d="M504 403v-59h-416v59h416z" />
    <glyph glyph-name="hyphen.case" horiz-adv-x="444" 
d="M355 403v-59h-267v59h267z" />
    <glyph glyph-name="guillemotleft.case" horiz-adv-x="446" 
d="M280 374l124 -173h-70l-122 173l122 173h70zM102 374l124 -173h-70l-122 173l122 173h70z" />
    <glyph glyph-name="guillemotright.case" horiz-adv-x="446" 
d="M412 374l-122 -173h-70l124 173l-124 173h70zM234 374l-122 -173h-70l124 173l-124 173h70z" />
    <glyph glyph-name="guilsinglleft.case" horiz-adv-x="268" 
d="M102 374l124 -173h-70l-122 173l122 173h70z" />
    <glyph glyph-name="guilsinglright.case" horiz-adv-x="268" 
d="M234 374l-122 -173h-70l124 173l-124 173h70z" />
    <glyph glyph-name="cent.tf" horiz-adv-x="614" 
d="M500 29q-55 -39 -128 -43v-88h-48v90q-62 7 -113 41t-81 91t-30 131t30 131.5t81 91t113 40.5v91h48v-90q64 -3 123 -42v-66h-7q-59 53 -132 53q-51 0 -96 -25.5t-72 -73t-27 -110.5t27.5 -110.5t73 -73t98.5 -25.5q79 0 133 54h7v-67z" />
    <glyph glyph-name="dollar.tf" horiz-adv-x="614" 
d="M476.5 43q-51.5 -47 -138.5 -55v-90h-52v88q-105 3 -196 59v78h10q88 -77 199 -77q77 0 119.5 33.5t42.5 88.5q0 46 -27 78t-72 52l-109 48q-69 31 -108 78t-39 111q0 76 51 117.5t129 46.5v89h52v-89q76 -6 148 -46v-69h-10q-81 56 -166 56q-60 0 -98.5 -29.5
t-38.5 -78.5q0 -42 30 -73t76 -52l120 -53q63 -29 96 -77t33 -108q0 -79 -51.5 -126z" />
    <glyph glyph-name="Euro.tf" horiz-adv-x="614" 
d="M565 135v-79q-76 -70 -170 -70q-69 0 -128 31.5t-98.5 92.5t-53.5 145h-70v54h64q-1 11 -1 34q0 17 2 49h-65v54h73q16 80 55.5 137t96.5 87t123 30q94 0 164 -65v-74h-7q-67 78 -156 78q-73 0 -129.5 -52t-78.5 -141h248v-54h-258q-2 -16 -2 -49q0 -23 1 -34h259v-54
h-252q20 -96 78.5 -152t135.5 -56q96 0 160 88h9z" />
    <glyph glyph-name="uni20B4.tf" horiz-adv-x="614" 
d="M367 367l-67 -54h240v-50h-304q-28 -23 -42.5 -47.5t-14.5 -58.5q0 -53 38 -82t110 -29q98 0 177 67h9v-74q-78 -53 -186 -53q-98 0 -156 41t-58 121q0 64 43 115h-78v50h131q13 11 26 20l84 64h-241v50h306q26 22 40 45.5t14 53.5q0 48 -33 71t-89 23q-83 0 -150 -50h-9
v69q42 19 81 30t85 11q77 0 129 -33.5t52 -110.5q0 -62 -42 -109h78v-50h-134q-18 -15 -39 -30z" />
    <glyph glyph-name="uni20BD.tf" horiz-adv-x="614" 
d="M206 314v-99h225v-54h-225v-161h-64v161h-93v54h93v99h-93v56h93v316h199q105 0 164 -48.5t59 -140.5q0 -89 -57.5 -136t-161.5 -47h-139zM206 370h137q73 0 114 32.5t41 96.5q0 67 -42.5 98t-116.5 31h-133v-258z" />
    <glyph glyph-name="sterling.tf" horiz-adv-x="614" 
d="M542 58v-58h-466v58h117v249h-92v56h92v161q0 88 53.5 132t135.5 44q76 0 151 -42v-67h-11q-43 28 -75 38.5t-61 10.5q-57 0 -92.5 -29.5t-35.5 -92.5v-155h214v-56h-214v-249h284z" />
    <glyph glyph-name="yen.tf" horiz-adv-x="614" 
d="M339 323h163v-54h-163v-82h163v-54h-163v-133h-64v133h-163v54h163v82h-163v54h163v18l-245 345h76l202 -289l201 289h75l-245 -345v-18z" />
    <glyph glyph-name="cent.tosf" horiz-adv-x="614" 
d="M500 29q-55 -39 -128 -43v-88h-48v90q-62 7 -113 41t-81 91t-30 131t30 131.5t81 91t113 40.5v91h48v-90q64 -3 123 -42v-66h-7q-59 53 -132 53q-51 0 -96 -25.5t-72 -73t-27 -110.5t27.5 -110.5t73 -73t98.5 -25.5q79 0 133 54h7v-67z" />
    <glyph glyph-name="dollar.tosf" horiz-adv-x="614" 
d="M476.5 43q-51.5 -47 -138.5 -55v-90h-52v88q-105 3 -196 59v78h10q88 -77 199 -77q77 0 119.5 33.5t42.5 88.5q0 46 -27 78t-72 52l-109 48q-69 31 -108 78t-39 111q0 76 51 117.5t129 46.5v89h52v-89q76 -6 148 -46v-69h-10q-81 56 -166 56q-60 0 -98.5 -29.5
t-38.5 -78.5q0 -42 30 -73t76 -52l120 -53q63 -29 96 -77t33 -108q0 -79 -51.5 -126z" />
    <glyph glyph-name="Euro.tosf" horiz-adv-x="614" 
d="M565 135v-79q-76 -70 -170 -70q-69 0 -128 31.5t-98.5 92.5t-53.5 145h-70v54h64q-1 11 -1 34q0 17 2 49h-65v54h73q16 80 55.5 137t96.5 87t123 30q94 0 164 -65v-74h-7q-67 78 -156 78q-73 0 -129.5 -52t-78.5 -141h248v-54h-258q-2 -16 -2 -49q0 -23 1 -34h259v-54
h-252q20 -96 78.5 -152t135.5 -56q96 0 160 88h9z" />
    <glyph glyph-name="uni20B4.tosf" horiz-adv-x="614" 
d="M367 367l-67 -54h240v-50h-304q-28 -23 -42.5 -47.5t-14.5 -58.5q0 -53 38 -82t110 -29q98 0 177 67h9v-74q-78 -53 -186 -53q-98 0 -156 41t-58 121q0 64 43 115h-78v50h131q13 11 26 20l84 64h-241v50h306q26 22 40 45.5t14 53.5q0 48 -33 71t-89 23q-83 0 -150 -50h-9
v69q42 19 81 30t85 11q77 0 129 -33.5t52 -110.5q0 -62 -42 -109h78v-50h-134q-18 -15 -39 -30z" />
    <glyph glyph-name="uni20BD.tosf" horiz-adv-x="614" 
d="M206 314v-99h225v-54h-225v-161h-64v161h-93v54h93v99h-93v56h93v316h199q105 0 164 -48.5t59 -140.5q0 -89 -57.5 -136t-161.5 -47h-139zM206 370h137q73 0 114 32.5t41 96.5q0 67 -42.5 98t-116.5 31h-133v-258z" />
    <glyph glyph-name="sterling.tosf" horiz-adv-x="614" 
d="M542 58v-58h-466v58h117v249h-92v56h92v161q0 88 53.5 132t135.5 44q76 0 151 -42v-67h-11q-43 28 -75 38.5t-61 10.5q-57 0 -92.5 -29.5t-35.5 -92.5v-155h214v-56h-214v-249h284z" />
    <glyph glyph-name="yen.tosf" horiz-adv-x="614" 
d="M339 323h163v-54h-163v-82h163v-54h-163v-133h-64v133h-163v54h163v82h-163v54h163v18l-245 345h76l202 -289l201 289h75l-245 -345v-18z" />
    <glyph glyph-name="arrowup.ss01" horiz-adv-x="860" 
d="M247 32.5q-83 46.5 -131.5 130t-48.5 187.5t48.5 187.5t131.5 130t183 46.5t183 -46.5t131.5 -130t48.5 -187.5t-48.5 -187.5t-131.5 -130t-183 -46.5t-183 46.5zM409 385v-221h42v221h112l-131 152h-5l-131 -152h113z" />
    <glyph glyph-name="uni2197.ss01" horiz-adv-x="860" 
d="M247 32.5q-83 46.5 -131.5 130t-48.5 187.5t48.5 187.5t131.5 130t183 46.5t183 -46.5t131.5 -130t48.5 -187.5t-48.5 -187.5t-131.5 -130t-183 -46.5t-183 46.5zM298 188l201 201l87 -87l-1 201l-3 3h-200l86 -86l-201 -201z" />
    <glyph glyph-name="arrowright.ss01" horiz-adv-x="860" 
d="M247 32.5q-83 46.5 -131.5 130t-48.5 187.5t48.5 187.5t131.5 130t183 46.5t183 -46.5t131.5 -130t48.5 -187.5t-48.5 -187.5t-131.5 -130t-183 -46.5t-183 46.5zM472 330v-114l152 131v5l-152 132v-114h-239v-40h239z" />
    <glyph glyph-name="uni2198.ss01" horiz-adv-x="860" 
d="M613 667.5q83 -46.5 131.5 -130t48.5 -187.5t-48.5 -187.5t-131.5 -130t-183 -46.5t-183 46.5t-131.5 130t-48.5 187.5t48.5 187.5t131.5 130t183 46.5t183 -46.5zM468 280l-86 -86h200l3 3l1 201l-87 -87l-201 201l-31 -31z" />
    <glyph glyph-name="arrowdown.ss01" horiz-adv-x="860" 
d="M613 667.5q83 -46.5 131.5 -130t48.5 -187.5t-48.5 -187.5t-131.5 -130t-183 -46.5t-183 46.5t-131.5 130t-48.5 187.5t48.5 187.5t131.5 130t183 46.5t183 -46.5zM427 163h5l131 152h-112v221h-42v-221h-113z" />
    <glyph glyph-name="uni2199.ss01" horiz-adv-x="860" 
d="M613 667.5q83 -46.5 131.5 -130t48.5 -187.5t-48.5 -187.5t-131.5 -130t-183 -46.5t-183 46.5t-131.5 130t-48.5 187.5t48.5 187.5t131.5 130t183 46.5t183 -46.5zM561 512l-200 -201l-87 87v-201l4 -3h200l-86 86l200 201z" />
    <glyph glyph-name="arrowleft.ss01" horiz-adv-x="860" 
d="M247 32.5q-83 46.5 -131.5 130t-48.5 187.5t48.5 187.5t131.5 130t183 46.5t183 -46.5t131.5 -130t48.5 -187.5t-48.5 -187.5t-131.5 -130t-183 -46.5t-183 46.5zM626 370h-238v114l-152 -132v-5l152 -131v114h238v40z" />
    <glyph glyph-name="uni2196.ss01" horiz-adv-x="860" 
d="M247 32.5q-83 46.5 -131.5 130t-48.5 187.5t48.5 187.5t131.5 130t183 46.5t183 -46.5t131.5 -130t48.5 -187.5t-48.5 -187.5t-131.5 -130t-183 -46.5t-183 46.5zM392 420l86 86h-200l-4 -3v-201l87 87l200 -201l31 31z" />
    <glyph glyph-name="arrowboth.ss01" horiz-adv-x="860" 
d="M247 32.5q-83 46.5 -131.5 130t-48.5 187.5t48.5 187.5t131.5 130t183 46.5t183 -46.5t131.5 -130t48.5 -187.5t-48.5 -187.5t-131.5 -130t-183 -46.5t-183 46.5zM335 216v114h189v-114l153 131v5l-153 132v-114h-189v114l-152 -132v-5z" />
    <glyph glyph-name="arrowupdn.ss01" horiz-adv-x="860" 
d="M247 32.5q-83 46.5 -131.5 130t-48.5 187.5t48.5 187.5t131.5 130t183 46.5t183 -46.5t131.5 -130t48.5 -187.5t-48.5 -187.5t-131.5 -130t-183 -46.5t-183 46.5zM427 108h5l131 153h-112v178h112l-131 153h-5l-131 -153h113v-178h-113z" />
    <glyph glyph-name="at.case" horiz-adv-x="986" 
d="M703.5 742.5q100.5 -46.5 164.5 -142t64 -234.5q0 -116 -40.5 -179.5t-114.5 -63.5q-47 0 -77.5 27t-37.5 70q-29 -47 -76.5 -72t-104.5 -25q-59 0 -108 26.5t-78 77.5t-29 121t29 121t77.5 77.5t105.5 26.5q54 0 100 -24t74 -70v80h52v-278q0 -107 76 -107q48 0 77 47
t29 139q0 128 -56.5 215t-146.5 129.5t-190 42.5q-108 0 -198 -51t-142.5 -141.5t-52.5 -204.5t52.5 -204.5t142.5 -141.5t199 -51q101 0 197 43h7v-45q-98 -40 -205 -40q-122 0 -222 55.5t-158 155.5t-58 228t57.5 228t158 155.5t222.5 55.5q110 0 210.5 -46.5zM566 197.5
q37 18.5 59.5 57t22.5 93.5t-22.5 93.5t-59.5 57t-79 18.5t-78.5 -18.5t-59 -57t-22.5 -93.5t22.5 -93.5t59 -57t78.5 -18.5t79 18.5z" />
    <glyph glyph-name="uni0308.case" 
d="M-315.5 855.5q12.5 11.5 30.5 11.5q19 0 31.5 -11.5t12.5 -31.5q0 -19 -12.5 -30.5t-31.5 -11.5q-18 0 -30.5 11.5t-12.5 30.5q0 20 12.5 31.5zM-114.5 855.5q12.5 11.5 30.5 11.5q19 0 31.5 -11.5t12.5 -31.5q0 -19 -12.5 -30.5t-31.5 -11.5q-18 0 -30.5 11.5
t-12.5 30.5q0 20 12.5 31.5z" />
    <glyph glyph-name="uni0307.case" 
d="M-124.5 861q14.5 13 34.5 13q21 0 35.5 -13t14.5 -33t-14.5 -33t-35.5 -13q-20 0 -34.5 13t-14.5 33t14.5 33z" />
    <glyph glyph-name="gravecomb.case" 
d="M-188 897h70l78 -135h-53z" />
    <glyph glyph-name="acutecomb.case" 
d="M-188 762l79 135h69l-94 -135h-54z" />
    <glyph glyph-name="uni030B.case" 
d="M-321 762l74 136h63l-84 -136h-53zM-189 762l85 136h64l-95 -136h-54z" />
    <glyph glyph-name="uni0302.case" 
d="M-99 765l-76 72l-77 -72h-58l113 122h44l113 -122h-59z" />
    <glyph glyph-name="uni030C.case" 
d="M-40 887l-113 -122h-44l-113 122h59l76 -72l77 72h58z" />
    <glyph glyph-name="uni0306.case" 
d="M-40 894v-8q0 -63 -34.5 -94t-97.5 -31q-62 0 -96.5 31t-34.5 94v8h48v-10q0 -35 21.5 -54t61.5 -19q41 0 62.5 19t21.5 54v10h48z" />
    <glyph glyph-name="uni030A.case" 
d="M-68 900q28 -23 28 -64t-28 -63.5t-67 -22.5q-40 0 -67.5 22.5t-27.5 63.5t27.5 64t67.5 23q39 0 67 -23zM-98 802q15 13 15 34t-15 35t-37 14t-37 -14t-15 -35t15 -34t37 -13t37 13z" />
    <glyph glyph-name="tildecomb.case" 
d="M-40 877q-1 -51 -24.5 -77t-57.5 -26q-22 0 -39 8.5t-30.5 18.5t-18.5 14q-18 14 -34 14q-35 0 -39 -48h-44q1 50 24.5 76t57.5 26q22 0 38 -8t29.5 -18.5t19.5 -14.5q19 -13 35 -13q34 0 38 48h45z" />
    <glyph glyph-name="uni0304.case" 
d="M-284 796v53h244v-53h-244z" />
    <glyph glyph-name="uni0312.case" 
d="M-144 756l60 169h44l-43 -169h-61z" />
    <glyph glyph-name="uni0326.case" 
d="M-40 -58l-60 -168h-44l43 168h61z" />
    <glyph glyph-name="uni0327.case" 
d="M-197 -143q27 -8 46 -8q25 0 41 14.5t16 41.5q0 42 -41 95h49q46 -52 46 -105q0 -44 -28.5 -68t-69.5 -24q-23 0 -59 11v43z" />
    <glyph glyph-name="uni0328.case" 
d="M-171.5 -57q23.5 32 71.5 59l45 -2q-44 -28 -65 -56.5t-21 -53.5q0 -21 13 -31.5t32 -10.5q20 0 56 13v-44q-36 -15 -67 -15q-39 0 -63.5 20.5t-24.5 55.5q0 33 23.5 65z" />
    <glyph glyph-name="uni0335.case" 
d="M-353 406h313v-60h-313v60z" />
    <glyph glyph-name="uni0336.case" 
d="M-736 598h696v-48h-696v48z" />
    <glyph glyph-name="uni0337.case" 
d="M-345 250l305 172v-59l-305 -172v59z" />
    <glyph glyph-name="uni0338.case" 
d="M-581 -141l-43 30l541 749l43 -30z" />
    <glyph glyph-name="brevecombcy" 
d="M-40 731v-18q0 -69 -36 -103.5t-100 -34.5t-100 34.5t-36 103.5v18h53v-22q0 -42 22.5 -64.5t60.5 -22.5t60 22.5t22 64.5v22h54z" />
    <glyph glyph-name="brevecombcy.case" 
d="M-40 897v-13q0 -66 -39.5 -99.5t-107.5 -33.5t-107.5 33.5t-39.5 99.5v13h57v-17q0 -39 23.5 -59.5t66.5 -20.5q42 0 66 20.5t24 59.5v17h57z" />
    <glyph glyph-name="russianfonts" horiz-adv-x="614" 
d="M67 99q12 -51 32 -80.5t41 -29.5q38 0 85.5 44.5t88.5 121.5q41 78 60 148q2 6 8 31v-288l-34 -23v-23h173v23l-35 23v322l35 24v23h-139q-6 -22 -16 -49l-33 -91q-51 -128 -97 -176q-28 -30 -43 -30q-8 0 -8 40q0 47 17 115q17 65 54 127.5t77 94.5q37 30 73 39.5
t92 9.5h23v6q0 33 -16 72q-17 44 -48 72t-69 28q-66 0 -143 -46q-84 -49 -137.5 -155t-53.5 -259q0 -65 13 -114z" />
    </font>
</defs>
</svg>
