<?xml version="1.0" standalone="no"?>
<!DOCTYPE svg PUBLIC "-//W3C//DTD SVG 1.1//EN" "http://www.w3.org/Graphics/SVG/1.1/DTD/svg11.dtd" >
<svg xmlns="http://www.w3.org/2000/svg" xmlns:xlink="http://www.w3.org/1999/xlink" version="1.1">
<metadata>
Created by FontForge 20160405 at Wed Oct  2 02:27:53 2019
 By www-data
Misha Panfilov
</metadata>
<defs>
<font id="RFTone-Bold" horiz-adv-x="0" >
  <font-face 
    font-family="RFTone-Bold"
    font-weight="400"
    font-stretch="normal"
    units-per-em="1000"
    panose-1="0 0 8 0 0 0 0 0 0 0"
    ascent="783"
    descent="-217"
    x-height="502"
    cap-height="700"
    bbox="-771 -241 1315 962"
    underline-thickness="50"
    underline-position="-200"
    unicode-range="U+0020-F408"
  />
<missing-glyph horiz-adv-x="600" 
 />
    <glyph glyph-name="f_b.liga" unicode="fb" horiz-adv-x="1021" 
d="M174.5 707.5q50.5 44.5 135.5 44.5h52v-121h-34q-76 0 -76 -83v-46h110v-101h-110v-401h-128v401h-103v101h103v73q0 88 50.5 132.5zM856.5 485.5q53.5 -30.5 87 -90.5t33.5 -144t-33.5 -144t-87 -90.5t-113.5 -30.5q-52 0 -96.5 23.5t-75.5 67.5v-77h-109v752h128v-304
q29 33 68.5 50.5t84.5 17.5q60 0 113.5 -30.5zM807 140.5q40 37.5 40 110.5t-40 110.5t-94 37.5t-94 -37.5t-40 -110.5t40 -110.5t94 -37.5t94 37.5z" />
    <glyph glyph-name="f_f.liga" unicode="ff" horiz-adv-x="734" 
d="M564 548v-46h135v-101h-135v-401h-128v401h-184v-401h-128v401h-103v101h103v59q0 88 50.5 132.5t135.5 44.5h54v-121h-36q-76 0 -76 -81v-34h184v73q0 88 50.5 132.5t136.5 44.5h86v-121h-69q-76 0 -76 -83z" />
    <glyph glyph-name="f_f_i.liga" unicode="ffi" horiz-adv-x="977" 
d="M486.5 707.5q50.5 44.5 136.5 44.5h56v-121h-39q-76 0 -76 -83v-46h115v-101h-115v-401h-128v401h-184v-401h-128v401h-103v101h103v59q0 88 50.5 132.5t135.5 44.5h54v-121h-36q-76 0 -76 -83v-32h184v73q0 88 50.5 132.5zM780 605q-23 21 -23 57t23 57t58 21
q34 0 57 -21t23 -57t-23 -57t-57 -21q-35 0 -58 21zM774 502h128v-502h-128v502z" />
    <glyph glyph-name="f_f_l.liga" unicode="ffl" horiz-adv-x="977" 
d="M486.5 707.5q50.5 44.5 136.5 44.5h52v-121h-35q-76 0 -76 -83v-46h111v-101h-111v-401h-128v401h-184v-401h-128v401h-103v101h103v59q0 88 50.5 132.5t135.5 44.5h54v-121h-36q-76 0 -76 -83v-32h184v73q0 88 50.5 132.5zM902 752v-752h-128v752h128z" />
    <glyph glyph-name="f_h.liga" unicode="fh" horiz-adv-x="981" 
d="M174.5 707.5q50.5 44.5 135.5 44.5h52v-121h-34q-76 0 -76 -83v-46h110v-101h-110v-401h-128v401h-103v101h103v73q0 88 50.5 132.5zM825 493q42 -23 66.5 -69.5t24.5 -114.5v-309h-128v278q0 56 -25 86.5t-69 30.5q-49 0 -76.5 -38.5t-27.5 -106.5v-250h-128v752h128
v-300q56 64 142 64q51 0 93 -23z" />
    <glyph glyph-name="f_i.liga" unicode="fi" horiz-adv-x="665" 
d="M174.5 707.5q50.5 44.5 135.5 44.5h57v-121h-39q-76 0 -76 -83v-46h115v-101h-115v-401h-128v401h-103v101h103v73q0 88 50.5 132.5zM468 605q-23 21 -23 57t23 57t58 21q34 0 57 -21t23 -57t-23 -57t-57 -21q-35 0 -58 21zM462 502h128v-502h-128v502z" />
    <glyph glyph-name="f_j.liga" unicode="fj" horiz-adv-x="665" 
d="M174.5 707.5q50.5 44.5 135.5 44.5h57v-121h-39q-76 0 -76 -83v-46h115v-101h-115v-401h-128v401h-103v101h103v73q0 88 50.5 132.5zM468 605q-23 21 -23 57t23 57t58 21q34 0 57 -21t23 -57t-23 -57t-57 -21q-35 0 -58 21zM462 502h128v-530q0 -89 -45.5 -127.5
t-114.5 -38.5h-62v119h45q49 0 49 59v518z" />
    <glyph glyph-name="f_k.liga" unicode="fk" horiz-adv-x="942" 
d="M174.5 707.5q50.5 44.5 135.5 44.5h52v-121h-34q-76 0 -76 -83v-46h110v-101h-110v-401h-128v401h-103v101h103v73q0 88 50.5 132.5zM773 0l-183 240v-240h-128v752h128v-453l166 203h155l-199 -227l220 -275h-159z" />
    <glyph glyph-name="f_l.liga" unicode="fl" horiz-adv-x="665" 
d="M174.5 707.5q50.5 44.5 135.5 44.5h52v-121h-34q-76 0 -76 -83v-46h110v-101h-110v-401h-128v401h-103v101h103v73q0 88 50.5 132.5zM590 752v-752h-128v752h128z" />
    <glyph glyph-name="f_t.liga" unicode="ft" horiz-adv-x="745" 
d="M564 401v-210q0 -35 20 -52.5t54 -17.5h67v-121h-91q-85 0 -131.5 42t-46.5 123v236h-184v-401h-128v401h-103v101h103v73q0 88 50.5 132.5t135.5 44.5h49v-121h-31q-76 0 -76 -83v-46h184v164h128v-164h145v-101h-145z" />
    <glyph glyph-name="idieresis_idieresis.liga" unicode="&#xef;&#xef;" horiz-adv-x="714" 
d="M63.5 702q19.5 19 48.5 19t48.5 -19t19.5 -49t-19.5 -49t-48.5 -19t-48.5 19t-19.5 49t19.5 49zM308.5 702q19.5 19 48.5 19t48.5 -19t19.5 -49t-19.5 -49t-48.5 -19t-48.5 19t-19.5 49t19.5 49zM553.5 702q19.5 19 48.5 19t48.5 -19t19.5 -49t-19.5 -49t-48.5 -19
t-48.5 19t-19.5 49t19.5 49zM282 502v-502h-128v502h128zM560 502v-502h-128v502h128z" />
    <glyph glyph-name="uni04570457.liga" unicode="&#x457;&#x457;" horiz-adv-x="714" 
d="M63.5 702q19.5 19 48.5 19t48.5 -19t19.5 -49t-19.5 -49t-48.5 -19t-48.5 19t-19.5 49t19.5 49zM308.5 702q19.5 19 48.5 19t48.5 -19t19.5 -49t-19.5 -49t-48.5 -19t-48.5 19t-19.5 49t19.5 49zM553.5 702q19.5 19 48.5 19t48.5 -19t19.5 -49t-19.5 -49t-48.5 -19
t-48.5 19t-19.5 49t19.5 49zM282 502v-502h-128v502h128zM560 502v-502h-128v502h128z" />
    <glyph glyph-name=".notdef" horiz-adv-x="600" 
 />
    <glyph glyph-name=".null" 
 />
    <glyph glyph-name="nonmarkingreturn" horiz-adv-x="333" 
 />
    <glyph glyph-name="space" unicode=" " horiz-adv-x="248" 
 />
    <glyph glyph-name="exclam" unicode="!" horiz-adv-x="324" 
d="M227 700l-10 -470h-111l-9 470h130zM102.5 131q24.5 23 59.5 23t59.5 -23t24.5 -61t-24.5 -61t-59.5 -23t-59.5 23t-24.5 61t24.5 61z" />
    <glyph glyph-name="quotedbl" unicode="&#x22;" horiz-adv-x="370" 
d="M324 700v-284h-100v284h100zM146 700v-284h-100v284h100z" />
    <glyph glyph-name="numbersign" unicode="#" horiz-adv-x="685" 
d="M520 417l-30 -127h112l-21 -92h-112l-45 -198h-103l45 198h-118l-45 -198h-104l46 198h-113l22 92h112l29 127h-112l21 93h112l43 190h104l-44 -190h119l43 190h103l-43 -190h111l-21 -93h-111zM416 417h-118l-29 -127h118z" />
    <glyph glyph-name="dollar" unicode="$" horiz-adv-x="554" 
d="M457 55.5q-53 -48.5 -135 -63.5v-94h-91v88q-104 6 -192 53v142h14q90 -79 198 -79q60 0 91.5 23.5t31.5 58.5q0 28 -17.5 50t-48.5 35l-111 44q-150 60 -150 199q0 84 53 129t131 56v91h91v-90q70 -8 141 -42v-130h-12q-81 58 -168 58q-47 0 -73.5 -19.5t-26.5 -50.5
q0 -52 74 -83l114 -47q71 -28 105 -79.5t34 -116.5q0 -84 -53 -132.5z" />
    <glyph glyph-name="percent" unicode="%" horiz-adv-x="922" 
d="M125.5 370.5q-42.5 22.5 -68 64t-25.5 96.5q0 54 25.5 96t68 64.5t93.5 22.5q50 0 92.5 -22.5t68 -64.5t25.5 -96q0 -55 -25 -96.5t-68 -64t-93 -22.5q-51 0 -93.5 22.5zM720 700l-417 -700h-101l417 700h101zM283 464q27 25 27 67t-27 67t-64 25q-38 0 -65 -25t-27 -67
t27 -67t65 -25q37 0 64 25zM609.5 8.5q-42.5 22.5 -68 64.5t-25.5 96q0 55 25.5 96.5t68 64t93.5 22.5t93.5 -22.5t68 -64t25.5 -96.5q0 -54 -25.5 -96t-68 -64.5t-93.5 -22.5t-93.5 22.5zM767 102q27 25 27 67t-27 67t-64 25t-64 -25t-27 -67t27 -67t64 -25t64 25z" />
    <glyph glyph-name="ampersand" unicode="&#x26;" horiz-adv-x="647" 
d="M492 0l-31 49q-73 -63 -178 -63q-67 0 -122.5 26t-89.5 79t-34 130q0 93 48 152t122 81l-109 172v74h409v-115h-249l198 -315q12 56 12 130h112q0 -155 -47 -252l93 -148h-134zM398 149l-130 207q-44 -7 -74.5 -41.5t-30.5 -85.5q0 -55 35.5 -89t94.5 -34q63 0 105 43z
" />
    <glyph glyph-name="quotesingle" unicode="'" horiz-adv-x="192" 
d="M146 700v-284h-100v284h100z" />
    <glyph glyph-name="parenleft" unicode="(" horiz-adv-x="388" 
d="M115 522q54 106 171 217l75 -70q-86 -96 -126.5 -185t-40.5 -198t40.5 -198t126.5 -185l-75 -70q-117 111 -171 217t-54 236t54 236z" />
    <glyph glyph-name="parenright" unicode=")" horiz-adv-x="388" 
d="M273.5 50q-53.5 -106 -170.5 -217l-76 70q86 96 126.5 185t40.5 198t-40.5 198t-126.5 185l76 70q117 -111 170.5 -217t53.5 -236t-53.5 -236z" />
    <glyph glyph-name="asterisk" unicode="*" horiz-adv-x="479" 
d="M307 526l132 -70l-39 -67l-127 80l5 -151h-77l5 151l-127 -80l-39 67l133 70l-133 71l39 67l127 -80l-5 150h77l-5 -150l127 80l39 -67z" />
    <glyph glyph-name="plus" unicode="+" horiz-adv-x="523" 
d="M459 279h-143v-145h-109v145h-143v106h143v145h109v-145h143v-106z" />
    <glyph glyph-name="comma" unicode="," horiz-adv-x="283" 
d="M223 141l-80 -304h-99l46 304h133z" />
    <glyph glyph-name="hyphen" unicode="-" horiz-adv-x="439" 
d="M363 343v-107h-287v107h287z" />
    <glyph glyph-name="period" unicode="." horiz-adv-x="304" 
d="M92.5 131q24.5 23 59.5 23t59.5 -23t24.5 -61t-24.5 -61t-59.5 -23t-59.5 23t-24.5 61t24.5 61z" />
    <glyph glyph-name="slash" unicode="/" horiz-adv-x="479" 
d="M464 775l-346 -908h-109l346 908h109z" />
    <glyph glyph-name="zero" unicode="0" horiz-adv-x="649" 
d="M93 550q36 82 96.5 123t134.5 41t135 -41t97 -123t36 -200t-36 -200t-97 -123t-135 -41t-134.5 41t-96.5 123t-36 200t36 200zM231 171.5q35 -60.5 93 -60.5q59 0 94 60.5t35 178.5t-35 178.5t-94 60.5q-58 0 -93 -60.5t-35 -178.5t35 -178.5z" />
    <glyph glyph-name="one" unicode="1" horiz-adv-x="400" 
d="M307 700v-700h-134v511q-50 -35 -130 -35v123q60 0 104.5 26t53.5 75h106z" />
    <glyph glyph-name="two" unicode="2" horiz-adv-x="528" 
d="M482 120v-120h-448v82l236 283q57 70 57 132q0 44 -25.5 68t-69.5 24q-86 0 -152 -94h-14v149q38 33 86.5 51.5t103.5 18.5q92 0 151.5 -50.5t59.5 -144.5q0 -61 -26.5 -115t-78.5 -115l-139 -169h259z" />
    <glyph glyph-name="three" unicode="3" horiz-adv-x="518" 
d="M441 304q30 -47 30 -110q0 -62 -29.5 -109t-85 -73t-132.5 -26q-116 0 -191 59v146h17q57 -91 161 -91q60 0 94 29t34 76q0 50 -38.5 77t-107.5 27h-46v110h43q61 0 92.5 23t31.5 67q0 42 -27 66.5t-78 24.5q-79 0 -136 -61h-14v126q65 49 165 49q103 0 162.5 -51.5
t59.5 -136.5q0 -51 -22.5 -89.5t-68.5 -60.5q56 -25 86 -72z" />
    <glyph glyph-name="four" unicode="4" horiz-adv-x="568" 
d="M536 144h-79v-144h-135v144h-299v98l307 458h127v-439h79v-117zM326 261v250l-165 -250h165z" />
    <glyph glyph-name="five" unicode="5" horiz-adv-x="553" 
d="M395 431q49 -28 77 -80.5t28 -124.5q0 -113 -67.5 -176.5t-181.5 -63.5q-111 0 -201 61v142h14q74 -81 167 -81q57 0 94 29.5t37 91.5q0 59 -35.5 89t-88.5 30q-33 0 -63 -11t-53 -29l-57 16l55 376h343v-118h-246l-22 -140q43 17 89 17q62 0 111 -28z" />
    <glyph glyph-name="six" unicode="6" horiz-adv-x="612" 
d="M452.5 437.5q49.5 -25.5 80 -77.5t30.5 -129t-31.5 -132.5t-85 -84t-118.5 -28.5q-70 0 -131 31.5t-100.5 106t-39.5 194.5q0 132 38 221t103.5 132t149.5 43q87 0 163 -41v-132h-15q-56 51 -134 51q-70 0 -112 -44t-56 -144q30 29 70 44t83 15q56 0 105.5 -25.5z
M393 139.5q32 31.5 32 92.5q0 60 -33 92t-78 32t-77.5 -31.5t-32.5 -92.5t32.5 -92.5t78.5 -31.5t78 31.5z" />
    <glyph glyph-name="seven" unicode="7" horiz-adv-x="517" 
d="M479 700v-77l-285 -623h-144l266 579h-283v121h446z" />
    <glyph glyph-name="eight" unicode="8" horiz-adv-x="605" 
d="M531.5 304.5q31.5 -47.5 31.5 -109.5q0 -63 -32 -110t-91 -73t-138 -26t-137.5 26t-90.5 73t-32 110t31 110t90 72q-43 24 -65.5 63t-22.5 87q0 54 28.5 96.5t80 66.5t118.5 24q68 0 119.5 -24t80 -66.5t28.5 -96.5q0 -48 -22.5 -87t-65.5 -63q58 -25 89.5 -72.5z
M233.5 576.5q-26.5 -24.5 -26.5 -66.5t26.5 -66.5t68.5 -24.5t69 24.5t27 66.5t-27 66.5t-69 24.5t-68.5 -24.5zM394 128.5q37 29.5 37 78.5t-37 78.5t-92 29.5t-91.5 -30t-36.5 -78t36.5 -78t91.5 -30t92 29.5z" />
    <glyph glyph-name="nine" unicode="9" horiz-adv-x="612" 
d="M415 682.5q61 -31.5 100.5 -106t39.5 -194.5q0 -132 -38 -221t-103.5 -132t-149.5 -43q-87 0 -163 41v132h15q54 -51 134 -51q70 0 112.5 45.5t55.5 147.5q-30 -30 -70 -45t-83 -15q-56 0 -105.5 25.5t-80 77t-30.5 127.5t31.5 131t84.5 83.5t119 28.5q70 0 131 -31.5z
M375.5 379.5q32.5 31.5 32.5 90.5q0 60 -32.5 91t-78.5 31t-78.5 -31t-32.5 -91q0 -59 33.5 -90.5t78.5 -31.5t77.5 31.5z" />
    <glyph glyph-name="colon" unicode=":" horiz-adv-x="304" 
d="M92.5 480q24.5 23 59.5 23t59.5 -23t24.5 -61t-24.5 -61t-59.5 -23t-59.5 23t-24.5 61t24.5 61zM92.5 131q24.5 23 59.5 23t59.5 -23t24.5 -61t-24.5 -61t-59.5 -23t-59.5 23t-24.5 61t24.5 61z" />
    <glyph glyph-name="semicolon" unicode=";" horiz-adv-x="294" 
d="M90.5 480q24.5 23 59.5 23t59.5 -23t24.5 -61t-24.5 -61t-59.5 -23t-59.5 23t-24.5 61t24.5 61zM223 141l-80 -304h-99l46 304h133z" />
    <glyph glyph-name="less" unicode="&#x3c;" horiz-adv-x="517" 
d="M453 433l-289 -101l289 -101v-118l-395 160v96v22l395 160v-118z" />
    <glyph glyph-name="equal" unicode="=" horiz-adv-x="523" 
d="M459 483v-107h-395v107h395zM459 288v-106h-395v106h395z" />
    <glyph glyph-name="greater" unicode="&#x3e;" horiz-adv-x="517" 
d="M459 391v-96v-22l-395 -160v118l289 101l-289 101v118z" />
    <glyph glyph-name="question" unicode="?" horiz-adv-x="482" 
d="M42 653q38 28 85.5 44.5t100.5 16.5q89 0 147.5 -48t58.5 -141q0 -60 -25 -100.5t-73 -80.5l-52 -50q-25 -22 -25 -60v-11h-112v14q0 53 14.5 84t47.5 56l45 46q46 40 46 87q0 41 -26.5 61.5t-69.5 20.5q-85 0 -147 -78h-15v139zM143.5 131q24.5 23 59.5 23t59.5 -23
t24.5 -61t-24.5 -61t-59.5 -23t-59.5 23t-24.5 61t24.5 61z" />
    <glyph glyph-name="at" unicode="@" horiz-adv-x="981" 
d="M703.5 668.5q101.5 -45.5 166 -140t64.5 -233.5q0 -121 -46 -187.5t-124 -66.5q-43 0 -76.5 22t-44.5 56q-29 -37 -72.5 -57.5t-93.5 -20.5q-59 0 -109 27t-80 78.5t-30 123.5t30 123.5t79 78.5t106 27q45 0 82.5 -17t62.5 -51v54h99v-265q0 -92 61 -92q39 0 64 39.5
t25 123.5q0 121 -54 202t-139.5 119.5t-183.5 38.5q-104 0 -190 -47t-136 -134t-50 -200t50 -200t136 -134t190 -47q110 0 213 45h10v-68q-109 -40 -223 -40q-124 0 -225 54.5t-160 155.5t-59 234t59 234t160 155.5t225 54.5q112 0 213.5 -45.5zM577.5 179q35.5 32 35.5 91
t-35.5 91t-85.5 32t-85 -32t-35 -91t35 -91t85 -32t85.5 32z" />
    <glyph glyph-name="A" unicode="A" horiz-adv-x="726" 
d="M495 165h-267l-61 -165h-148l280 700h128l280 -700h-151zM455 275l-93 253l-94 -253h187z" />
    <glyph glyph-name="B" unicode="B" horiz-adv-x="676" 
d="M592.5 313.5q39.5 -45.5 39.5 -115.5q0 -93 -66.5 -145.5t-189.5 -52.5h-291v700h265q111 0 174 -48.5t63 -131.5q0 -107 -108 -143q74 -18 113.5 -63.5zM415.5 561q-28.5 23 -81.5 23h-111v-174h111q53 0 81.5 22.5t28.5 63.5q0 42 -28.5 65zM455.5 140q33.5 24 33.5 73
q0 95 -129 95h-137v-192h137q62 0 95.5 24z" />
    <glyph glyph-name="C" unicode="C" horiz-adv-x="687" 
d="M102.5 542.5q47.5 82.5 131 127t187.5 44.5q120 0 212 -56v-152h-14q-75 78 -190 78q-67 0 -119.5 -29t-82 -82t-29.5 -123q0 -69 29 -122t82 -82.5t122 -29.5q62 0 112.5 23t87.5 67h15v-161q-98 -59 -220 -59q-107 0 -191.5 43t-132 125.5t-47.5 195.5
q0 110 47.5 192.5z" />
    <glyph glyph-name="D" unicode="D" horiz-adv-x="743" 
d="M511.5 659.5q83.5 -40.5 130 -119t46.5 -190.5t-46.5 -190.5t-130 -119t-194.5 -40.5h-232v700h232q111 0 194.5 -40.5zM480.5 179.5q64.5 56.5 64.5 170.5t-64.5 170.5t-177.5 56.5h-80v-454h80q113 0 177.5 56.5z" />
    <glyph glyph-name="E" unicode="E" horiz-adv-x="582" 
d="M538 123v-123h-453v700h438v-123h-300v-153h282v-116h-282v-185h315z" />
    <glyph glyph-name="F" unicode="F" horiz-adv-x="554" 
d="M223 577v-163h261v-119h-261v-295h-138v700h428v-123h-290z" />
    <glyph glyph-name="G" unicode="G" horiz-adv-x="740" 
d="M676 400v-400h-214q-125 0 -216.5 40.5t-141 119t-49.5 190.5q0 111 48 193.5t133 126.5t194 44q125 0 220 -58v-146h-14q-39 36 -91 55.5t-109 19.5q-70 0 -124 -29t-84 -82t-30 -124q0 -106 69 -163.5t202 -57.5h74v155h-143v116h276z" />
    <glyph glyph-name="H" unicode="H" horiz-adv-x="764" 
d="M679 700v-700h-138v311h-318v-311h-138v700h138v-266h318v266h138z" />
    <glyph glyph-name="I" unicode="I" horiz-adv-x="308" 
d="M223 700v-700h-138v700h138z" />
    <glyph glyph-name="J" unicode="J" horiz-adv-x="421" 
d="M36 130h60q49 0 79 28t30 92v450h138v-474q0 -114 -63.5 -170t-165.5 -56h-78v130z" />
    <glyph glyph-name="K" unicode="K" horiz-adv-x="672" 
d="M491 0l-268 323v-323h-138v700h138v-285l246 285h169l-293 -322l318 -378h-172z" />
    <glyph glyph-name="L" unicode="L" horiz-adv-x="526" 
d="M494 123v-123h-409v700h138v-577h271z" />
    <glyph glyph-name="M" unicode="M" horiz-adv-x="884" 
d="M799 700v-700h-136v444l-195 -264h-51l-196 262v-442h-136v700h105l253 -347l251 347h105z" />
    <glyph glyph-name="N" unicode="N" horiz-adv-x="777" 
d="M692 700v-700h-113l-358 457v-457h-136v700h112l358 -457v457h137z" />
    <glyph glyph-name="O" unicode="O" horiz-adv-x="846" 
d="M103 541.5q48 82.5 131.5 127.5t188.5 45t188.5 -45t131.5 -127.5t48 -191.5t-48 -191.5t-131.5 -127.5t-188.5 -45t-188.5 45t-131.5 127.5t-48 191.5t48 191.5zM227.5 226.5q29.5 -53.5 80.5 -82t115 -28.5q63 0 114.5 29t81 82t29.5 123t-29.5 123t-81 82t-114.5 29
t-114.5 -29t-81 -82t-29.5 -123t29.5 -123.5z" />
    <glyph glyph-name="P" unicode="P" horiz-adv-x="653" 
d="M544.5 643.5q68.5 -56.5 68.5 -163.5q0 -104 -66.5 -159t-184.5 -55h-139v-266h-138v700h275q116 0 184.5 -56.5zM438.5 404q31.5 25 31.5 76q0 54 -33 77.5t-88 23.5h-126v-202h130q54 0 85.5 25z" />
    <glyph glyph-name="Q" unicode="Q" horiz-adv-x="846" 
d="M762 195.5q-29 -69.5 -82 -117.5l54 -67l-94 -72l-62 76q-70 -29 -155 -29q-105 0 -188.5 45t-131.5 127.5t-48 191.5t48 191.5t131.5 127.5t188.5 45t188.5 -45t131.5 -127.5t48 -191.5q0 -85 -29 -154.5zM489 125l-114 142l94 71l122 -150q57 63 57 162q0 70 -29.5 123
t-81 82t-114.5 29t-114.5 -29t-81 -82t-29.5 -123t29.5 -123.5t80.5 -82t115 -28.5q36 0 66 9z" />
    <glyph glyph-name="R" unicode="R" horiz-adv-x="672" 
d="M311 279h-88v-279h-138v700h299q75 0 128.5 -27t80.5 -73.5t27 -105.5q0 -77 -46.5 -131.5t-127.5 -69.5l193 -293h-154zM223 395h146q52 0 80.5 23.5t28.5 68.5q0 46 -29.5 70t-83.5 24h-142v-186z" />
    <glyph glyph-name="S" unicode="S" horiz-adv-x="579" 
d="M39 190h14q94 -82 211 -82q62 0 95.5 22t33.5 59q0 26 -15 46t-44 32l-139 54q-70 28 -108 79.5t-38 122.5q0 101 72 146t174 45q58 0 104 -12t90 -32v-139h-13q-84 61 -181 61q-53 0 -78 -18t-25 -50q0 -29 20 -49.5t58 -36.5l137 -53q65 -26 97 -77.5t32 -115.5
q0 -105 -78 -155.5t-194 -50.5q-126 0 -225 53v151z" />
    <glyph glyph-name="T" unicode="T" horiz-adv-x="585" 
d="M549 577h-188v-577h-138v577h-187v123h513v-123z" />
    <glyph glyph-name="U" unicode="U" horiz-adv-x="730" 
d="M78 700h138v-408q0 -92 41 -134t108 -42t108 42t41 134v408h138v-423q0 -99 -38.5 -164.5t-103 -96t-145.5 -30.5t-145.5 30.5t-103 96t-38.5 164.5v423z" />
    <glyph glyph-name="V" unicode="V" horiz-adv-x="723" 
d="M700 700l-277 -700h-124l-276 700h153l186 -516l187 516h151z" />
    <glyph glyph-name="W" unicode="W" horiz-adv-x="1046" 
d="M1020 700l-235 -700h-130l-133 455l-131 -455h-129l-235 700h153l147 -480l143 480h108l143 -483l149 483h150z" />
    <glyph glyph-name="X" unicode="X" horiz-adv-x="670" 
d="M494 -1l-161 264l-162 -264h-150l232 362l-216 339h155l144 -235l143 235h150l-213 -334l234 -367h-156z" />
    <glyph glyph-name="Y" unicode="Y" horiz-adv-x="693" 
d="M415 295v-295h-138v295l-259 405h158l171 -279l173 279h155z" />
    <glyph glyph-name="Z" unicode="Z" horiz-adv-x="597" 
d="M558 123v-123h-522v78l326 499h-299v123h482v-78l-326 -499h339z" />
    <glyph glyph-name="bracketleft" unicode="[" horiz-adv-x="337" 
d="M209 624v-655h86v-109h-210v873h210v-109h-86z" />
    <glyph glyph-name="backslash" unicode="\" horiz-adv-x="479" 
d="M470 -133h-109l-346 908h109z" />
    <glyph glyph-name="bracketright" unicode="]" horiz-adv-x="337" 
d="M252 733v-873h-210v109h86v655h-86v109h210z" />
    <glyph glyph-name="asciicircum" unicode="^" horiz-adv-x="492" 
d="M340 382l-94 199l-94 -199h-109l162 318h65h17l162 -318h-109z" />
    <glyph glyph-name="underscore" unicode="_" horiz-adv-x="407" 
d="M396 -38v-91h-386v91h386z" />
    <glyph glyph-name="a" unicode="a" horiz-adv-x="557" 
d="M430.5 467q61.5 -49 61.5 -157v-310h-110v53q-25 -31 -65.5 -49t-90.5 -18q-56 0 -99 21t-67 58t-24 83q0 47 24.5 83.5t69 57t103.5 20.5q81 0 131 -38v29q0 55 -32 80.5t-87 25.5q-71 0 -141 -40h-13v115q42 17 89.5 26t90.5 9q98 0 159.5 -49zM346.5 107.5
q27.5 19.5 27.5 47.5t-27.5 47t-77.5 19t-77.5 -19t-27.5 -47t27.5 -47.5t77.5 -19.5t77.5 19.5z" />
    <glyph glyph-name="b" unicode="b" horiz-adv-x="634" 
d="M469.5 485.5q53.5 -30.5 87 -90.5t33.5 -144t-33.5 -144t-87 -90.5t-113.5 -30.5q-52 0 -96.5 23.5t-75.5 67.5v-77h-109v752h128v-304q29 33 68.5 50.5t84.5 17.5q60 0 113.5 -30.5zM420 140.5q40 37.5 40 110.5t-40 110.5t-94 37.5t-94 -37.5t-40 -110.5t40 -110.5
t94 -37.5t94 37.5z" />
    <glyph glyph-name="c" unicode="c" horiz-adv-x="520" 
d="M79.5 393q35.5 60 96.5 91.5t138 31.5q76 0 143 -36v-126h-11q-65 46 -126 46q-63 0 -105 -40t-42 -109t42.5 -109t108.5 -40q72 0 129 49h12v-129q-67 -36 -147 -36q-78 0 -140.5 31t-98 91t-35.5 143q0 82 35.5 142z" />
    <glyph glyph-name="d" unicode="d" horiz-adv-x="634" 
d="M559 752v-752h-110v77q-30 -44 -75 -67.5t-97 -23.5q-60 0 -113.5 30.5t-86.5 90.5t-33 144t33.5 144t87 90.5t113.5 30.5q44 0 83.5 -17.5t69.5 -50.5v304h128zM401.5 140.5q39.5 37.5 39.5 110.5t-39.5 110.5t-94.5 37.5q-54 0 -94 -37.5t-40 -110.5t40 -110.5
t94 -37.5q55 0 94.5 37.5z" />
    <glyph glyph-name="e" unicode="e" horiz-adv-x="584" 
d="M539 227h-369q8 -69 51 -100.5t105 -31.5q88 0 172 57h12v-121q-47 -24 -96.5 -34.5t-93.5 -10.5q-77 0 -139.5 29.5t-99.5 89.5t-37 146t36 146t96 89.5t132 29.5q103 0 168.5 -59.5t66.5 -175.5q0 -18 -4 -54zM221.5 390.5q-35.5 -27.5 -47.5 -79.5h245q-5 53 -34.5 80
t-78.5 27t-84.5 -27.5z" />
    <glyph glyph-name="f" unicode="f" horiz-adv-x="422" 
d="M252 548v-46h134v-101h-134v-401h-128v401h-103v101h103v73q0 88 50.5 132.5t135.5 44.5h87v-121h-69q-76 0 -76 -83z" />
    <glyph glyph-name="g" unicode="g" horiz-adv-x="634" 
d="M559 502v-461q0 -84 -37 -140t-99.5 -82.5t-138.5 -26.5q-100 0 -181 38v128h12q77 -51 163 -51q70 0 111.5 35t41.5 104v23q-29 -31 -69 -48t-86 -17q-60 0 -113 28.5t-86 85.5t-33 138q0 82 33.5 141t87 89t113.5 30q52 0 96.5 -23.5t74.5 -66.5v76h110zM401 149
q40 36 40 107t-40 107t-94 36t-94 -36.5t-40 -106.5t40 -106.5t94 -36.5t94 36z" />
    <glyph glyph-name="h" unicode="h" horiz-adv-x="594" 
d="M438 493q42 -23 66.5 -69.5t24.5 -114.5v-309h-128v278q0 56 -25 86.5t-69 30.5q-49 0 -76.5 -38.5t-27.5 -106.5v-250h-128v752h128v-300q56 64 142 64q51 0 93 -23z" />
    <glyph glyph-name="i" unicode="i" horiz-adv-x="278" 
d="M81 719q23 21 58 21q34 0 57 -21t23 -57t-23 -57t-57 -21q-35 0 -58 21t-23 57t23 57zM203 502v-502h-128v502h128z" />
    <glyph glyph-name="j" unicode="j" horiz-adv-x="278" 
d="M81 719q23 21 58 21q34 0 57 -21t23 -57t-23 -57t-57 -21q-35 0 -58 21t-23 57t23 57zM-19 -75h45q49 0 49 59v518h128v-530q0 -89 -45.5 -127.5t-114.5 -38.5h-62v119z" />
    <glyph glyph-name="k" unicode="k" horiz-adv-x="555" 
d="M386 0l-183 240v-240h-128v752h128v-453l166 203h155l-199 -227l220 -275h-159z" />
    <glyph glyph-name="l" unicode="l" horiz-adv-x="278" 
d="M203 752v-752h-128v752h128z" />
    <glyph glyph-name="m" unicode="m" horiz-adv-x="886" 
d="M732 494.5q40 -21.5 64 -67.5t24 -114v-313h-128v286q0 54 -24 81.5t-63 27.5q-44 0 -69 -34t-25 -100v-261h-127v284q0 54 -24 82.5t-64 28.5q-43 0 -68 -34t-25 -100v-261h-128v502h109v-70q25 39 63.5 61.5t87.5 22.5t88 -23.5t60 -69.5q25 43 66.5 68t94.5 25
q48 0 88 -21.5z" />
    <glyph glyph-name="n" unicode="n" horiz-adv-x="594" 
d="M438 493q42 -23 66.5 -69.5t24.5 -114.5v-309h-128v278q0 56 -25 86.5t-69 30.5q-49 0 -76.5 -38.5t-27.5 -106.5v-250h-128v502h109v-76q26 42 67 66t94 24q51 0 93 -23z" />
    <glyph glyph-name="o" unicode="o" horiz-adv-x="628" 
d="M79 391q35 60 96.5 92.5t138.5 32.5t138.5 -32.5t97 -92.5t35.5 -140t-35.5 -140t-97 -92.5t-138.5 -32.5t-138.5 32.5t-96.5 92.5t-35 140t35 140zM213.5 142.5q40.5 -40.5 100.5 -40.5q61 0 101 40t40 109t-40 109t-101 40q-60 0 -100.5 -40t-40.5 -109
q0 -68 40.5 -108.5z" />
    <glyph glyph-name="p" unicode="p" horiz-adv-x="634" 
d="M469.5 485.5q53.5 -30.5 87 -90.5t33.5 -144t-33.5 -144t-87 -90.5t-113.5 -30.5q-45 0 -84.5 17.5t-68.5 50.5v-248h-128v696h109v-77q31 44 75.5 67.5t96.5 23.5q60 0 113.5 -30.5zM420 140.5q40 37.5 40 110.5t-40 110.5t-94 37.5t-94 -37.5t-40 -110.5t40 -110.5
t94 -37.5t94 37.5z" />
    <glyph glyph-name="q" unicode="q" horiz-adv-x="634" 
d="M559 502v-696h-128v248q-30 -33 -69.5 -50.5t-84.5 -17.5q-60 0 -113.5 30.5t-86.5 90.5t-33 144t33.5 144t87 90.5t113.5 30.5q52 0 96.5 -23.5t74.5 -67.5v77h110zM401.5 140.5q39.5 37.5 39.5 110.5t-39.5 110.5t-94.5 37.5q-54 0 -94 -37.5t-40 -110.5t40 -110.5
t94 -37.5q55 0 94.5 37.5z" />
    <glyph glyph-name="r" unicode="r" horiz-adv-x="423" 
d="M397 502v-120h-70q-63 0 -93.5 -46.5t-30.5 -125.5v-210h-128v502h109v-107q23 49 61.5 78t90.5 29h61z" />
    <glyph glyph-name="s" unicode="s" horiz-adv-x="471" 
d="M42 142h13q72 -53 160 -53q90 0 90 45q0 33 -59 56l-76 33q-120 47 -120 151q0 72 54 107t135 35q48 0 88.5 -10.5t70.5 -28.5v-104h-12q-35 21 -67.5 30.5t-68.5 9.5q-76 0 -76 -41q0 -17 15.5 -30t45.5 -26l74 -31q57 -22 88.5 -57.5t31.5 -90.5q0 -81 -60 -116
t-146 -35q-54 0 -100.5 11.5t-80.5 29.5v115z" />
    <glyph glyph-name="t" unicode="t" horiz-adv-x="440" 
d="M259 401v-210q0 -35 20 -52.5t54 -17.5h67v-121h-90q-85 0 -132 42t-47 123v236h-110v101h110v164h128v-164h146v-101h-146z" />
    <glyph glyph-name="u" unicode="u" horiz-adv-x="594" 
d="M520 502v-502h-110v81q-25 -44 -65.5 -69.5t-94.5 -25.5q-51 0 -93 24.5t-66.5 73.5t-24.5 119v299h128v-278q0 -56 25 -86.5t69 -30.5q48 0 76 40.5t28 108.5v246h128z" />
    <glyph glyph-name="v" unicode="v" horiz-adv-x="560" 
d="M538 502l-207 -502h-101l-208 502h140l119 -329l120 329h137z" />
    <glyph glyph-name="w" unicode="w" horiz-adv-x="867" 
d="M841 502l-195 -502h-109l-105 307l-104 -307h-109l-193 502h140l107 -321l113 321h95l113 -322l109 322h138z" />
    <glyph glyph-name="x" unicode="x" horiz-adv-x="547" 
d="M378 0l-107 168l-108 -168h-138l175 258l-166 244h142l97 -152l95 152h139l-163 -241l176 -261h-142z" />
    <glyph glyph-name="y" unicode="y" horiz-adv-x="557" 
d="M533 502l-292 -696h-139l116 273l-196 423h139l124 -291l113 291h135z" />
    <glyph glyph-name="z" unicode="z" horiz-adv-x="491" 
d="M454 101v-101h-419v58l238 343h-214v101h385v-58l-238 -343h248z" />
    <glyph glyph-name="braceleft" unicode="{" horiz-adv-x="363" 
d="M216.5 338.5q-22.5 -31.5 -67.5 -41.5q45 -10 67.5 -41.5t22.5 -80.5v-157q0 -31 14 -46.5t38 -15.5h39v-99h-63q-60 0 -103.5 32t-43.5 111v164q0 45 -15 66t-52 21h-2v92h2q37 0 52 21t15 66v164q0 79 43.5 111t103.5 32h63v-99h-39q-24 0 -38 -15.5t-14 -46.5v-157
q0 -49 -22.5 -80.5z" />
    <glyph glyph-name="bar" unicode="|" horiz-adv-x="320" 
d="M214 -105h-107v857h107v-857z" />
    <glyph glyph-name="braceright" unicode="}" horiz-adv-x="363" 
d="M312 343v-92h-2q-37 0 -52 -21t-15 -66v-164q0 -79 -43.5 -111t-103.5 -32h-62v99h38q24 0 38 15.5t14 46.5v157q0 49 22.5 80.5t67.5 41.5q-45 10 -67.5 41.5t-22.5 80.5v157q0 31 -14 46.5t-38 15.5h-38v99h62q60 0 103.5 -32t43.5 -111v-164q0 -45 15 -66t52 -21h2z
" />
    <glyph glyph-name="asciitilde" unicode="~" horiz-adv-x="510" 
d="M64 361q21 21 49.5 33.5t59.5 12.5q24 0 43 -6.5t43 -18.5q25 -12 43.5 -18t41.5 -6q51 0 96 33h7v-88q-21 -21 -49.5 -33t-59.5 -12q-24 0 -44 6.5t-43 18.5q-25 12 -43.5 18t-41.5 6q-50 0 -96 -34h-6v88z" />
    <glyph glyph-name="exclamdown" unicode="&#xa1;" horiz-adv-x="324" 
d="M102.5 493q24.5 23 59.5 23t59.5 -23t24.5 -61t-24.5 -61t-59.5 -23t-59.5 23t-24.5 61t24.5 61zM106 272h111l10 -470h-130z" />
    <glyph glyph-name="cent" unicode="&#xa2;" horiz-adv-x="499" 
d="M444 23q-46 -29 -109 -35v-90h-85v93q-93 16 -149.5 84t-56.5 176q0 107 57 176t149 85v92h85v-90q55 -8 102 -35v-120h-11q-62 46 -120 46q-60 0 -99.5 -41.5t-39.5 -112.5t40.5 -112.5t102.5 -41.5q70 0 123 49h11v-123z" />
    <glyph glyph-name="sterling" unicode="&#xa3;" horiz-adv-x="532" 
d="M506 116v-116h-470v116h96v167h-75v101h75v115q0 102 60.5 151.5t153.5 49.5q73 0 147 -36v-129h-12q-69 49 -123 49q-41 0 -67.5 -24t-26.5 -76v-100h179v-101h-179v-167h242z" />
    <glyph glyph-name="currency" unicode="&#xa4;" horiz-adv-x="587" 
d="M468 236l75 -76l-60 -60l-76 75q-53 -34 -114 -34t-114 34l-75 -75l-60 60l75 76q-35 53 -35 114q0 62 35 114l-75 76l60 60l75 -75q53 34 114 34t114 -34l76 75l60 -60l-75 -76q34 -51 34 -114t-34 -114zM373.5 270q33.5 33 33.5 80t-33.5 80t-80.5 33q-46 0 -79.5 -33
t-33.5 -80q0 -46 33.5 -79.5t79.5 -33.5q47 0 80.5 33z" />
    <glyph glyph-name="yen" unicode="&#xa5;" horiz-adv-x="651" 
d="M391 332h150v-85h-150v-57h150v-84h-150v-106h-131v106h-150v84h150v57h-150v85h150v8l-242 346h150l159 -241l159 241h148l-243 -345v-9z" />
    <glyph glyph-name="brokenbar" unicode="&#xa6;" horiz-adv-x="320" 
d="M214 406h-107v346h107v-346zM214 -105h-107v346h107v-346z" />
    <glyph glyph-name="section" unicode="&#xa7;" horiz-adv-x="551" 
d="M430 151q39 -48 39 -114q0 -59 -30.5 -97.5t-78 -56.5t-100.5 -18q-86 0 -169 46v126h11q79 -70 156 -70q40 0 66 19t26 49q0 22 -14.5 39.5t-39.5 27.5l-118 47q-60 25 -93.5 66.5t-33.5 97.5q0 83 76 119q-45 48 -45 119q0 86 62 124.5t150 38.5q50 0 89 -10.5
t77 -27.5v-117h-10q-73 53 -156 53q-47 0 -70 -16t-23 -44q0 -47 70 -76l117 -46q55 -22 83.5 -64t28.5 -95q0 -81 -70 -120zM189 279.5q18 -18.5 51 -32.5l104 -40q36 17 36 54q0 24 -14 41.5t-39 28.5l-113 45q-43 -14 -43 -52q0 -26 18 -44.5z" />
    <glyph glyph-name="copyright" unicode="&#xa9;" horiz-adv-x="836" 
d="M235 33q-83 47 -131.5 130t-48.5 187t48.5 187.5t131.5 130t183 46.5t183 -46.5t131.5 -130t48.5 -187.5t-48.5 -187t-131.5 -130t-183 -47t-183 47zM577 74.5q72 40.5 113.5 113t41.5 162.5t-41.5 162.5t-113.5 113.5t-159 41t-158.5 -41t-113 -113.5t-41.5 -162.5
t41.5 -162.5t113 -113t158.5 -40.5t159 40.5zM271.5 456.5q26.5 44.5 72 67t101.5 22.5q55 0 106 -26v-90h-8q-49 31 -92 31q-47 0 -79.5 -30t-32.5 -81t33 -81t81 -30q52 0 95 34h9v-93q-49 -26 -108 -26q-89 0 -146.5 51.5t-57.5 144.5q0 62 26.5 106.5z" />
    <glyph glyph-name="guillemotleft" unicode="&#xab;" horiz-adv-x="494" 
d="M345 273l117 -186h-118l-114 186l114 185h118zM139 273l117 -186h-118l-114 186l114 185h118z" />
    <glyph glyph-name="logicalnot" unicode="&#xac;" horiz-adv-x="501" 
d="M438 433v-236h-110v129h-264v107h374z" />
    <glyph glyph-name="registered" unicode="&#xae;" horiz-adv-x="595" 
d="M426.5 667q58.5 -33 92 -91t33.5 -131t-33.5 -131t-92 -91t-128.5 -33t-128 33t-92 91t-34 131t34 131t92 91t128 33t128.5 -33zM407.5 254.5q49.5 28.5 78 78.5t28.5 112t-28.5 112t-78 78.5t-109.5 28.5t-110 -28.5t-79 -78.5t-29 -112t29 -112t79 -78.5t110 -28.5
t109.5 28.5zM392 446q-19 -22 -48 -28l72 -106h-67l-62 100h-29v-100h-57v266h126q38 0 61 -23t23 -57q0 -30 -19 -52zM258 461h57q17 0 27 8.5t10 25.5q0 16 -10.5 24t-28.5 8h-55v-66z" />
    <glyph glyph-name="degree" unicode="&#xb0;" horiz-adv-x="440" 
d="M95 668q50 45 125 45t125 -45t50 -124q0 -78 -50 -123t-125 -45t-125 45t-50 123q0 79 50 124zM160.5 484.5q23.5 -22.5 59.5 -22.5t59.5 22.5t23.5 59.5q0 38 -23 60.5t-60 22.5t-60 -22.5t-23 -60.5q0 -37 23.5 -59.5z" />
    <glyph glyph-name="plusminus" unicode="&#xb1;" horiz-adv-x="523" 
d="M459 439v-107h-143v-98h-109v98h-143v107h143v144h109v-144h143zM64 176h395v-107h-395v107z" />
    <glyph glyph-name="uni00B2" unicode="&#xb2;" horiz-adv-x="320" 
d="M286 489v-81h-261v56l132 142q28 33 28 61q0 20 -13.5 31t-35.5 11q-28 0 -48 -14.5t-36 -35.5h-9v100q49 35 109 35q55 0 91 -29.5t36 -83.5q0 -34 -15.5 -64t-43.5 -60l-63 -68h129z" />
    <glyph glyph-name="uni00B3" unicode="&#xb3;" horiz-adv-x="308" 
d="M259.5 572.5q17.5 -24.5 17.5 -59.5q0 -51 -38 -82t-106 -31q-65 0 -111 31v94h11q33 -48 93 -48q30 0 45.5 13t15.5 32q0 21 -19.5 32.5t-56.5 11.5h-25v73h24q64 0 64 40q0 38 -52 38q-45 0 -77 -29h-9v81q41 25 97 25q62 0 96 -28.5t34 -74.5q0 -59 -55 -81
q34 -13 51.5 -37.5z" />
    <glyph glyph-name="paragraph" unicode="&#xb6;" horiz-adv-x="511" 
d="M426 700v-805h-107v384h-37q-113 0 -178 53.5t-65 156.5t65 157t178 54h144z" />
    <glyph glyph-name="periodcentered" unicode="&#xb7;" horiz-adv-x="304" 
d="M92.5 362q24.5 23 59.5 23t59.5 -23t24.5 -61t-25 -61t-59 -23q-35 0 -59.5 23t-24.5 61t24.5 61z" />
    <glyph glyph-name="uni00B9" unicode="&#xb9;" horiz-adv-x="258" 
d="M193 786v-378h-90v258q-31 -17 -74 -17v83q35 0 61 14t30 40h73z" />
    <glyph glyph-name="guillemotright" unicode="&#xbb;" horiz-adv-x="494" 
d="M470 273l-114 -186h-118l117 186l-117 185h118zM264 273l-114 -186h-118l117 186l-117 185h118z" />
    <glyph glyph-name="onequarter" unicode="&#xbc;" horiz-adv-x="810" 
d="M193 700v-378h-90v258q-31 -17 -74 -17v83q35 0 61 14t30 40h73zM696 700l-506 -700h-114l507 700h113zM784 73h-43v-73h-92v73h-164v66l169 239h87v-227h43v-78zM652 151v113l-78 -113h78z" />
    <glyph glyph-name="onehalf" unicode="&#xbd;" horiz-adv-x="834" 
d="M193 700v-378h-90v258q-31 -17 -74 -17v83q35 0 61 14t30 40h73zM696 700l-506 -700h-114l507 700h113zM800 81v-81h-261v56l132 142q28 33 28 61q0 20 -13.5 31t-35.5 11q-28 0 -48 -14.5t-36 -35.5h-9v100q49 35 109 35q55 0 91 -29.5t36 -83.5q0 -34 -15.5 -64
t-43.5 -60l-63 -68h129z" />
    <glyph glyph-name="threequarters" unicode="&#xbe;" horiz-adv-x="861" 
d="M259.5 486.5q17.5 -24.5 17.5 -59.5q0 -51 -38 -82t-106 -31q-65 0 -111 31v94h11q33 -48 93 -48q30 0 45.5 13t15.5 32q0 21 -19.5 32.5t-56.5 11.5h-25v73h24q64 0 64 40q0 38 -52 38q-45 0 -77 -29h-9v81q41 25 97 25q62 0 96 -28.5t34 -74.5q0 -59 -55 -81
q34 -13 51.5 -37.5zM746 700l-506 -700h-114l507 700h113zM835 73h-43v-73h-92v73h-164v66l169 239h87v-227h43v-78zM703 151v113l-78 -113h78z" />
    <glyph glyph-name="questiondown" unicode="&#xbf;" horiz-adv-x="482" 
d="M338.5 371q-24.5 -23 -59.5 -23t-59.5 23t-24.5 61t24.5 61t59.5 23t59.5 -23t24.5 -61t-24.5 -61zM440 -151q-38 -28 -85.5 -44.5t-99.5 -16.5q-89 0 -147.5 48t-58.5 141q0 60 24.5 100t72.5 81l53 50q24 23 24 60v11h113v-14q0 -53 -14.5 -84t-47.5 -56l-46 -46
q-45 -39 -45 -87q0 -41 26.5 -61.5t69.5 -20.5q83 0 147 78h14v-139z" />
    <glyph glyph-name="Agrave" unicode="&#xc0;" horiz-adv-x="726" 
d="M495 165h-267l-61 -165h-148l280 700h128l280 -700h-151zM455 275l-93 253l-94 -253h187zM194 910h137l80 -152h-106z" />
    <glyph glyph-name="Aacute" unicode="&#xc1;" horiz-adv-x="726" 
d="M495 165h-267l-61 -165h-148l280 700h128l280 -700h-151zM455 275l-93 253l-94 -253h187zM315 758l79 152h138l-112 -152h-105z" />
    <glyph glyph-name="Acircumflex" unicode="&#xc2;" horiz-adv-x="726" 
d="M495 165h-267l-61 -165h-148l280 700h128l280 -700h-151zM455 275l-93 253l-94 -253h187zM430 762l-68 63l-70 -63h-98l120 135h97l120 -135h-101z" />
    <glyph glyph-name="Atilde" unicode="&#xc3;" horiz-adv-x="726" 
d="M495 165h-267l-61 -165h-148l280 700h128l280 -700h-151zM455 275l-93 253l-94 -253h187zM529 892q-1 -66 -30 -101.5t-70 -35.5q-24 0 -41.5 8t-31 17.5t-17.5 12.5q-17 14 -34 14q-31 0 -35 -42h-73q1 65 30 100.5t70 35.5q25 0 42.5 -9t47.5 -29q20 -13 34 -13
q31 0 35 42h73z" />
    <glyph glyph-name="Adieresis" unicode="&#xc4;" horiz-adv-x="726" 
d="M495 165h-267l-61 -165h-148l280 700h128l280 -700h-151zM455 275l-93 253l-94 -253h187zM200 881.5q20 18.5 51 18.5q30 0 50.5 -18.5t20.5 -49.5t-20.5 -49.5t-50.5 -18.5q-31 0 -51 18.5t-20 49.5t20 49.5zM423 881.5q20 18.5 51 18.5q30 0 50 -18.5t20 -49.5
t-20 -49.5t-50 -18.5q-31 0 -51 18.5t-20 49.5t20 49.5z" />
    <glyph glyph-name="Aring" unicode="&#xc5;" horiz-adv-x="726" 
d="M495 165h-267l-61 -165h-148l280 700h128l280 -700h-151zM455 275l-93 253l-94 -253h187zM441.5 907q32.5 -26 32.5 -71q0 -46 -32.5 -72t-79.5 -26t-79 26t-32 72q0 45 32 71t79 26t79.5 -26zM395 806q13 11 13 30q0 18 -13 29.5t-33 11.5t-33 -11.5t-13 -29.5t13 -29.5
t33 -11.5t33 11z" />
    <glyph glyph-name="AE" unicode="&#xc6;" horiz-adv-x="969" 
d="M925 123v-123h-453v165h-223l-89 -165h-157l390 700h517v-123h-300v-153h282v-116h-282v-185h315zM472 275v302l-163 -302h163z" />
    <glyph glyph-name="Ccedilla" unicode="&#xc7;" horiz-adv-x="687" 
d="M646 45q-84 -50 -182 -57q34 -47 34 -95q0 -51 -35 -78.5t-86 -27.5q-32 0 -74 13v74q28 -8 45 -8q23 0 36.5 12.5t13.5 37.5q0 34 -21 72q-95 10 -167.5 55.5t-113.5 123.5t-41 183q0 110 47.5 192.5t131 127t187.5 44.5q120 0 212 -56v-152h-14q-75 78 -190 78
q-67 0 -119.5 -29t-82 -82t-29.5 -123q0 -69 29 -122t82 -82.5t122 -29.5q62 0 112.5 23t87.5 67h15v-161z" />
    <glyph glyph-name="Egrave" unicode="&#xc8;" horiz-adv-x="582" 
d="M538 123v-123h-453v700h438v-123h-300v-153h282v-116h-282v-185h315zM167 910h137l80 -152h-106z" />
    <glyph glyph-name="Eacute" unicode="&#xc9;" horiz-adv-x="582" 
d="M538 123v-123h-453v700h438v-123h-300v-153h282v-116h-282v-185h315zM228 758l79 152h138l-112 -152h-105z" />
    <glyph glyph-name="Ecircumflex" unicode="&#xca;" horiz-adv-x="582" 
d="M538 123v-123h-453v700h438v-123h-300v-153h282v-116h-282v-185h315zM373 762l-68 63l-70 -63h-98l120 135h97l120 -135h-101z" />
    <glyph glyph-name="Edieresis" unicode="&#xcb;" horiz-adv-x="582" 
d="M538 123v-123h-453v700h438v-123h-300v-153h282v-116h-282v-185h315zM144 881.5q20 18.5 51 18.5q30 0 50.5 -18.5t20.5 -49.5t-20.5 -49.5t-50.5 -18.5q-31 0 -51 18.5t-20 49.5t20 49.5zM367 881.5q20 18.5 51 18.5q30 0 50 -18.5t20 -49.5t-20 -49.5t-50 -18.5
q-31 0 -51 18.5t-20 49.5t20 49.5z" />
    <glyph glyph-name="Igrave" unicode="&#xcc;" horiz-adv-x="308" 
d="M223 700v-700h-138v700h138zM-1 910h137l80 -152h-106z" />
    <glyph glyph-name="Iacute" unicode="&#xcd;" horiz-adv-x="308" 
d="M223 700v-700h-138v700h138zM92 758l79 152h138l-112 -152h-105z" />
    <glyph glyph-name="Icircumflex" unicode="&#xce;" horiz-adv-x="308" 
d="M223 700v-700h-138v700h138zM221 762l-68 63l-70 -63h-98l120 135h97l120 -135h-101z" />
    <glyph glyph-name="Idieresis" unicode="&#xcf;" horiz-adv-x="308" 
d="M4 881.5q20 18.5 50 18.5q31 0 51 -18.5t20 -49.5q0 -30 -20 -49t-51 -19q-30 0 -50 19t-20 49q0 31 20 49.5zM203 881.5q20 18.5 50 18.5q31 0 51 -18.5t20 -49.5q0 -30 -20 -48.5t-51 -18.5q-30 0 -50 18.5t-20 48.5q0 31 20 49.5zM223 700v-700h-138v700h138z" />
    <glyph glyph-name="Eth" unicode="&#xd0;" horiz-adv-x="769" 
d="M538 659.5q84 -40.5 130.5 -119t46.5 -190.5t-46.5 -190.5t-130.5 -119t-195 -40.5h-231v305h-87v111h87v284h231q111 0 195 -40.5zM507.5 179.5q64.5 56.5 64.5 170.5t-64.5 170.5t-178.5 56.5h-79v-161h137v-111h-137v-182h79q114 0 178.5 56.5z" />
    <glyph glyph-name="Ntilde" unicode="&#xd1;" horiz-adv-x="777" 
d="M692 700v-700h-113l-358 457v-457h-136v700h112l358 -457v457h137zM554 892q-1 -66 -30 -101.5t-70 -35.5q-24 0 -41.5 8t-31 17.5t-17.5 12.5q-17 14 -34 14q-31 0 -35 -42h-73q1 65 30 100.5t70 35.5q25 0 42.5 -9t47.5 -29q20 -13 34 -13q31 0 35 42h73z" />
    <glyph glyph-name="Ograve" unicode="&#xd2;" horiz-adv-x="846" 
d="M103 541.5q48 82.5 131.5 127.5t188.5 45t188.5 -45t131.5 -127.5t48 -191.5t-48 -191.5t-131.5 -127.5t-188.5 -45t-188.5 45t-131.5 127.5t-48 191.5t48 191.5zM227.5 226.5q29.5 -53.5 80.5 -82t115 -28.5q63 0 114.5 29t81 82t29.5 123t-29.5 123t-81 82t-114.5 29
t-114.5 -29t-81 -82t-29.5 -123t29.5 -123.5zM284 910h137l80 -152h-106z" />
    <glyph glyph-name="Oacute" unicode="&#xd3;" horiz-adv-x="846" 
d="M103 541.5q48 82.5 131.5 127.5t188.5 45t188.5 -45t131.5 -127.5t48 -191.5t-48 -191.5t-131.5 -127.5t-188.5 -45t-188.5 45t-131.5 127.5t-48 191.5t48 191.5zM227.5 226.5q29.5 -53.5 80.5 -82t115 -28.5q63 0 114.5 29t81 82t29.5 123t-29.5 123t-81 82t-114.5 29
t-114.5 -29t-81 -82t-29.5 -123t29.5 -123.5zM345 758l79 152h138l-112 -152h-105z" />
    <glyph glyph-name="Ocircumflex" unicode="&#xd4;" horiz-adv-x="846" 
d="M103 541.5q48 82.5 131.5 127.5t188.5 45t188.5 -45t131.5 -127.5t48 -191.5t-48 -191.5t-131.5 -127.5t-188.5 -45t-188.5 45t-131.5 127.5t-48 191.5t48 191.5zM227.5 226.5q29.5 -53.5 80.5 -82t115 -28.5q63 0 114.5 29t81 82t29.5 123t-29.5 123t-81 82t-114.5 29
t-114.5 -29t-81 -82t-29.5 -123t29.5 -123.5zM490 762l-68 63l-70 -63h-98l120 135h97l120 -135h-101z" />
    <glyph glyph-name="Otilde" unicode="&#xd5;" horiz-adv-x="846" 
d="M103 541.5q48 82.5 131.5 127.5t188.5 45t188.5 -45t131.5 -127.5t48 -191.5t-48 -191.5t-131.5 -127.5t-188.5 -45t-188.5 45t-131.5 127.5t-48 191.5t48 191.5zM227.5 226.5q29.5 -53.5 80.5 -82t115 -28.5q63 0 114.5 29t81 82t29.5 123t-29.5 123t-81 82t-114.5 29
t-114.5 -29t-81 -82t-29.5 -123t29.5 -123.5zM589 892q-1 -66 -30 -101.5t-70 -35.5q-24 0 -41.5 8t-31 17.5t-17.5 12.5q-17 14 -34 14q-31 0 -35 -42h-73q1 65 30 100.5t70 35.5q25 0 42.5 -9t47.5 -29q20 -13 34 -13q31 0 35 42h73z" />
    <glyph glyph-name="Odieresis" unicode="&#xd6;" horiz-adv-x="846" 
d="M103 541.5q48 82.5 131.5 127.5t188.5 45t188.5 -45t131.5 -127.5t48 -191.5t-48 -191.5t-131.5 -127.5t-188.5 -45t-188.5 45t-131.5 127.5t-48 191.5t48 191.5zM227.5 226.5q29.5 -53.5 80.5 -82t115 -28.5q63 0 114.5 29t81 82t29.5 123t-29.5 123t-81 82t-114.5 29
t-114.5 -29t-81 -82t-29.5 -123t29.5 -123.5zM260 881.5q20 18.5 51 18.5q30 0 50.5 -18.5t20.5 -49.5t-20.5 -49.5t-50.5 -18.5q-31 0 -51 18.5t-20 49.5t20 49.5zM483 881.5q20 18.5 51 18.5q30 0 50 -18.5t20 -49.5t-20 -49.5t-50 -18.5q-31 0 -51 18.5t-20 49.5t20 49.5
z" />
    <glyph glyph-name="multiply" unicode="&#xd7;" horiz-adv-x="508" 
d="M368 141l-114 115l-114 -114l-76 76l114 113l-114 115l77 77l114 -114l114 113l75 -75l-113 -114l114 -114z" />
    <glyph glyph-name="Oslash" unicode="&#xd8;" horiz-adv-x="846" 
d="M760.5 507q30.5 -70 30.5 -157q0 -109 -48 -191.5t-131.5 -127.5t-188.5 -45q-102 0 -182 41l-58 -80l-69 49l57 78q-55 49 -85.5 119t-30.5 157q0 109 48 191.5t131.5 127.5t188.5 45q102 0 182 -41l58 80l69 -49l-57 -78q55 -49 85.5 -119zM254 189l270 373
q-47 22 -101 22q-63 0 -114.5 -29t-81 -82t-29.5 -123q0 -97 56 -161zM537.5 145q51.5 29 81 82t29.5 123q0 97 -56 161l-270 -373q47 -22 101 -22q63 0 114.5 29z" />
    <glyph glyph-name="Ugrave" unicode="&#xd9;" horiz-adv-x="730" 
d="M78 700h138v-408q0 -92 41 -134t108 -42t108 42t41 134v408h138v-423q0 -99 -38.5 -164.5t-103 -96t-145.5 -30.5t-145.5 30.5t-103 96t-38.5 164.5v423zM226 910h137l80 -152h-106z" />
    <glyph glyph-name="Uacute" unicode="&#xda;" horiz-adv-x="730" 
d="M78 700h138v-408q0 -92 41 -134t108 -42t108 42t41 134v408h138v-423q0 -99 -38.5 -164.5t-103 -96t-145.5 -30.5t-145.5 30.5t-103 96t-38.5 164.5v423zM287 758l79 152h138l-112 -152h-105z" />
    <glyph glyph-name="Ucircumflex" unicode="&#xdb;" horiz-adv-x="730" 
d="M78 700h138v-408q0 -92 41 -134t108 -42t108 42t41 134v408h138v-423q0 -99 -38.5 -164.5t-103 -96t-145.5 -30.5t-145.5 30.5t-103 96t-38.5 164.5v423zM432 762l-68 63l-70 -63h-98l120 135h97l120 -135h-101z" />
    <glyph glyph-name="Udieresis" unicode="&#xdc;" horiz-adv-x="730" 
d="M78 700h138v-408q0 -92 41 -134t108 -42t108 42t41 134v408h138v-423q0 -99 -38.5 -164.5t-103 -96t-145.5 -30.5t-145.5 30.5t-103 96t-38.5 164.5v423zM202 881.5q20 18.5 51 18.5q30 0 50.5 -18.5t20.5 -49.5t-20.5 -49.5t-50.5 -18.5q-31 0 -51 18.5t-20 49.5
t20 49.5zM425 881.5q20 18.5 51 18.5q30 0 50 -18.5t20 -49.5t-20 -49.5t-50 -18.5q-31 0 -51 18.5t-20 49.5t20 49.5z" />
    <glyph glyph-name="Yacute" unicode="&#xdd;" horiz-adv-x="693" 
d="M415 295v-295h-138v295l-259 405h158l171 -279l173 279h155zM268 758l79 152h138l-112 -152h-105z" />
    <glyph glyph-name="Thorn" unicode="&#xde;" horiz-adv-x="653" 
d="M544.5 535.5q68.5 -56.5 68.5 -163.5q0 -104 -66.5 -159.5t-184.5 -55.5h-139v-157h-138v700h138v-108h137q116 0 184.5 -56.5zM438.5 295.5q31.5 24.5 31.5 76.5q0 100 -121 100h-126v-201h130q54 0 85.5 24.5z" />
    <glyph glyph-name="germandbls" unicode="&#xdf;" horiz-adv-x="594" 
d="M512.5 342q37.5 -54 37.5 -130q0 -94 -56 -153t-160 -59h-62v116h38q46 0 78 29.5t32 87.5q0 55 -34 86t-100 31h-21v101h14q49 0 69.5 25.5t20.5 66.5q0 43 -21 68t-63 25q-84 0 -84 -106v-530h-128v544q0 100 54 154t159 54t159 -51t54 -134q0 -52 -23.5 -91t-71.5 -59
q71 -21 108.5 -75z" />
    <glyph glyph-name="agrave" unicode="&#xe0;" horiz-adv-x="557" 
d="M430.5 467q61.5 -49 61.5 -157v-310h-110v53q-25 -31 -65.5 -49t-90.5 -18q-56 0 -99 21t-67 58t-24 83q0 47 24.5 83.5t69 57t103.5 20.5q81 0 131 -38v29q0 55 -32 80.5t-87 25.5q-71 0 -141 -40h-13v115q42 17 89.5 26t90.5 9q98 0 159.5 -49zM346.5 107.5
q27.5 19.5 27.5 47.5t-27.5 47t-77.5 19t-77.5 -19t-27.5 -47t27.5 -47.5t77.5 -19.5t77.5 19.5zM153 752h132l68 -173h-99z" />
    <glyph glyph-name="aacute" unicode="&#xe1;" horiz-adv-x="557" 
d="M430.5 467q61.5 -49 61.5 -157v-310h-110v53q-25 -31 -65.5 -49t-90.5 -18q-56 0 -99 21t-67 58t-24 83q0 47 24.5 83.5t69 57t103.5 20.5q81 0 131 -38v29q0 55 -32 80.5t-87 25.5q-71 0 -141 -40h-13v115q42 17 89.5 26t90.5 9q98 0 159.5 -49zM346.5 107.5
q27.5 19.5 27.5 47.5t-27.5 47t-77.5 19t-77.5 -19t-27.5 -47t27.5 -47.5t77.5 -19.5t77.5 19.5zM221 579l67 173h133l-102 -173h-98z" />
    <glyph glyph-name="acircumflex" unicode="&#xe2;" horiz-adv-x="557" 
d="M430.5 467q61.5 -49 61.5 -157v-310h-110v53q-25 -31 -65.5 -49t-90.5 -18q-56 0 -99 21t-67 58t-24 83q0 47 24.5 83.5t69 57t103.5 20.5q81 0 131 -38v29q0 55 -32 80.5t-87 25.5q-71 0 -141 -40h-13v115q42 17 89.5 26t90.5 9q98 0 159.5 -49zM346.5 107.5
q27.5 19.5 27.5 47.5t-27.5 47t-77.5 19t-77.5 -19t-27.5 -47t27.5 -47.5t77.5 -19.5t77.5 19.5zM355 576l-70 72l-71 -72h-92l120 153h88l120 -153h-95z" />
    <glyph glyph-name="atilde" unicode="&#xe3;" horiz-adv-x="557" 
d="M430.5 467q61.5 -49 61.5 -157v-310h-110v53q-25 -31 -65.5 -49t-90.5 -18q-56 0 -99 21t-67 58t-24 83q0 47 24.5 83.5t69 57t103.5 20.5q81 0 131 -38v29q0 55 -32 80.5t-87 25.5q-71 0 -141 -40h-13v115q42 17 89.5 26t90.5 9q98 0 159.5 -49zM346.5 107.5
q27.5 19.5 27.5 47.5t-27.5 47t-77.5 19t-77.5 -19t-27.5 -47t27.5 -47.5t77.5 -19.5t77.5 19.5zM152.5 694q28.5 37 69.5 37q23 0 40.5 -10t31.5 -21.5t19 -15.5q17 -15 32 -15q32 0 36 52h70q-1 -73 -29.5 -110t-69.5 -37q-23 0 -41 10.5t-32 22t-18 15.5q-17 15 -33 15
q-31 0 -35 -53h-70q1 73 29.5 110z" />
    <glyph glyph-name="adieresis" unicode="&#xe4;" horiz-adv-x="557" 
d="M430.5 467q61.5 -49 61.5 -157v-310h-110v53q-25 -31 -65.5 -49t-90.5 -18q-56 0 -99 21t-67 58t-24 83q0 47 24.5 83.5t69 57t103.5 20.5q81 0 131 -38v29q0 55 -32 80.5t-87 25.5q-71 0 -141 -40h-13v115q42 17 89.5 26t90.5 9q98 0 159.5 -49zM346.5 107.5
q27.5 19.5 27.5 47.5t-27.5 47t-77.5 19t-77.5 -19t-27.5 -47t27.5 -47.5t77.5 -19.5t77.5 19.5zM131.5 702q19.5 19 48.5 19t48.5 -19t19.5 -49t-19.5 -49t-48.5 -19t-48.5 19t-19.5 49t19.5 49zM345.5 702q19.5 19 48.5 19t48 -19t19 -49t-19 -49t-48 -19t-48.5 19
t-19.5 49t19.5 49z" />
    <glyph glyph-name="aring" unicode="&#xe5;" horiz-adv-x="557" 
d="M430.5 467q61.5 -49 61.5 -157v-310h-110v53q-25 -31 -65.5 -49t-90.5 -18q-56 0 -99 21t-67 58t-24 83q0 47 24.5 83.5t69 57t103.5 20.5q81 0 131 -38v29q0 55 -32 80.5t-87 25.5q-71 0 -141 -40h-13v115q42 17 89.5 26t90.5 9q98 0 159.5 -49zM346.5 107.5
q27.5 19.5 27.5 47.5t-27.5 47t-77.5 19t-77.5 -19t-27.5 -47t27.5 -47.5t77.5 -19.5t77.5 19.5zM210.5 730.5q31.5 26.5 75.5 26.5t76 -26.5t32 -71.5q0 -46 -32 -72.5t-76 -26.5t-75.5 26.5t-31.5 72.5q0 45 31.5 71.5zM256 627.5q13 -12.5 30 -12.5q18 0 31 12t13 32
q0 19 -13 31t-31 12q-17 0 -30 -12t-13 -31t13 -31.5z" />
    <glyph glyph-name="ae" unicode="&#xe6;" horiz-adv-x="904" 
d="M859 227h-369q8 -69 51.5 -100.5t104.5 -31.5q88 0 172 57h12v-121q-89 -45 -184 -45q-69 0 -123 24.5t-87 72.5q-28 -44 -83.5 -70.5t-118.5 -26.5q-57 0 -102 20.5t-70.5 57t-25.5 84.5q0 71 53.5 116t143.5 45q81 0 131 -38v29q0 55 -32 80.5t-87 25.5q-71 0 -141 -40
h-13v115q85 35 173 35q131 0 173 -94q32 47 82.5 70.5t114.5 23.5q102 0 165 -59.5t64 -175.5q0 -18 -4 -54zM542 390.5q-35 -27.5 -47 -79.5h245q-6 53 -35.5 80t-78.5 27t-84 -27.5zM346.5 107.5q27.5 19.5 27.5 47.5t-27.5 47t-77.5 19t-77.5 -19t-27.5 -47t27.5 -47.5
t77.5 -19.5t77.5 19.5z" />
    <glyph glyph-name="ccedilla" unicode="&#xe7;" horiz-adv-x="520" 
d="M465 22q-53 -29 -118 -35q33 -48 33 -94q0 -51 -35 -78.5t-86 -27.5q-32 0 -74 13v74q28 -8 45 -8q23 0 36.5 12.5t13.5 37.5q0 38 -23 75q-96 17 -154.5 85t-58.5 175q0 82 35.5 142t96.5 91.5t138 31.5q76 0 143 -36v-126h-11q-65 46 -126 46q-63 0 -105 -40t-42 -109
t42.5 -109t108.5 -40q72 0 129 49h12v-129z" />
    <glyph glyph-name="egrave" unicode="&#xe8;" horiz-adv-x="584" 
d="M539 227h-369q8 -69 51 -100.5t105 -31.5q88 0 172 57h12v-121q-47 -24 -96.5 -34.5t-93.5 -10.5q-77 0 -139.5 29.5t-99.5 89.5t-37 146t36 146t96 89.5t132 29.5q103 0 168.5 -59.5t66.5 -175.5q0 -18 -4 -54zM221.5 390.5q-35.5 -27.5 -47.5 -79.5h245q-5 53 -34.5 80
t-78.5 27t-84.5 -27.5zM162 752h132l68 -173h-99z" />
    <glyph glyph-name="eacute" unicode="&#xe9;" horiz-adv-x="584" 
d="M539 227h-369q8 -69 51 -100.5t105 -31.5q88 0 172 57h12v-121q-47 -24 -96.5 -34.5t-93.5 -10.5q-77 0 -139.5 29.5t-99.5 89.5t-37 146t36 146t96 89.5t132 29.5q103 0 168.5 -59.5t66.5 -175.5q0 -18 -4 -54zM221.5 390.5q-35.5 -27.5 -47.5 -79.5h245q-5 53 -34.5 80
t-78.5 27t-84.5 -27.5zM229 579l67 173h133l-102 -173h-98z" />
    <glyph glyph-name="ecircumflex" unicode="&#xea;" horiz-adv-x="584" 
d="M539 227h-369q8 -69 51 -100.5t105 -31.5q88 0 172 57h12v-121q-47 -24 -96.5 -34.5t-93.5 -10.5q-77 0 -139.5 29.5t-99.5 89.5t-37 146t36 146t96 89.5t132 29.5q103 0 168.5 -59.5t66.5 -175.5q0 -18 -4 -54zM221.5 390.5q-35.5 -27.5 -47.5 -79.5h245q-5 53 -34.5 80
t-78.5 27t-84.5 -27.5zM364 576l-70 72l-71 -72h-92l120 153h88l120 -153h-95z" />
    <glyph glyph-name="edieresis" unicode="&#xeb;" horiz-adv-x="584" 
d="M539 227h-369q8 -69 51 -100.5t105 -31.5q88 0 172 57h12v-121q-47 -24 -96.5 -34.5t-93.5 -10.5q-77 0 -139.5 29.5t-99.5 89.5t-37 146t36 146t96 89.5t132 29.5q103 0 168.5 -59.5t66.5 -175.5q0 -18 -4 -54zM221.5 390.5q-35.5 -27.5 -47.5 -79.5h245q-5 53 -34.5 80
t-78.5 27t-84.5 -27.5zM139.5 702q19.5 19 48.5 19t48.5 -19t19.5 -49t-19.5 -49t-48.5 -19t-48.5 19t-19.5 49t19.5 49zM353.5 702q19.5 19 48.5 19t48 -19t19 -49t-19 -49t-48 -19t-48.5 19t-19.5 49t19.5 49z" />
    <glyph glyph-name="igrave" unicode="&#xec;" horiz-adv-x="278" 
d="M203 502v-502h-128v502h128zM-6 752h132l68 -173h-99z" />
    <glyph glyph-name="iacute" unicode="&#xed;" horiz-adv-x="278" 
d="M203 502v-502h-128v502h128zM84 579l67 173h133l-102 -173h-98z" />
    <glyph glyph-name="icircumflex" unicode="&#xee;" horiz-adv-x="278" 
d="M80 576h-89l103 153h88l105 -153h-92l-58 70zM75 502h128v-502h-128v502z" />
    <glyph glyph-name="idieresis" unicode="&#xef;" horiz-adv-x="278" 
d="M-3.5 702q19.5 19 48.5 19t48 -19t19 -49t-19 -49t-48 -19t-48.5 19t-19.5 49t19.5 49zM184.5 702q19.5 19 48.5 19t48.5 -19t19.5 -49t-19.5 -49t-48.5 -19t-48.5 19t-19.5 49t19.5 49zM203 502v-502h-128v502h128z" />
    <glyph glyph-name="eth" unicode="&#xf0;" horiz-adv-x="621" 
d="M571 321q0 -115 -36.5 -190t-97 -110t-136.5 -35t-134 32t-90.5 91t-32.5 139q0 77 30 133.5t84 87t124 30.5q113 0 169 -80q-27 102 -104 179l-128 -37l-23 70l84 24q-60 44 -162 97l193 1q49 -26 94 -62l93 27l23 -70l-57 -16q107 -127 107 -311zM400 141q38 39 38 106
q0 68 -38 106.5t-94 38.5t-94.5 -38.5t-38.5 -106.5q0 -67 38.5 -106t94.5 -39t94 39z" />
    <glyph glyph-name="ntilde" unicode="&#xf1;" horiz-adv-x="594" 
d="M438 493q42 -23 66.5 -69.5t24.5 -114.5v-309h-128v278q0 56 -25 86.5t-69 30.5q-49 0 -76.5 -38.5t-27.5 -106.5v-250h-128v502h109v-76q26 42 67 66t94 24q51 0 93 -23zM162.5 694q28.5 37 69.5 37q23 0 40.5 -10t31.5 -21.5t19 -15.5q17 -15 32 -15q32 0 36 52h70
q-1 -73 -29.5 -110t-69.5 -37q-23 0 -41 10.5t-32 22t-18 15.5q-17 15 -33 15q-31 0 -35 -53h-70q1 73 29.5 110z" />
    <glyph glyph-name="ograve" unicode="&#xf2;" horiz-adv-x="628" 
d="M79 391q35 60 96.5 92.5t138.5 32.5t138.5 -32.5t97 -92.5t35.5 -140t-35.5 -140t-97 -92.5t-138.5 -32.5t-138.5 32.5t-96.5 92.5t-35 140t35 140zM213.5 142.5q40.5 -40.5 100.5 -40.5q61 0 101 40t40 109t-40 109t-101 40q-60 0 -100.5 -40t-40.5 -109
q0 -68 40.5 -108.5zM181 752h132l68 -173h-99z" />
    <glyph glyph-name="oacute" unicode="&#xf3;" horiz-adv-x="628" 
d="M79 391q35 60 96.5 92.5t138.5 32.5t138.5 -32.5t97 -92.5t35.5 -140t-35.5 -140t-97 -92.5t-138.5 -32.5t-138.5 32.5t-96.5 92.5t-35 140t35 140zM213.5 142.5q40.5 -40.5 100.5 -40.5q61 0 101 40t40 109t-40 109t-101 40q-60 0 -100.5 -40t-40.5 -109
q0 -68 40.5 -108.5zM248 579l67 173h133l-102 -173h-98z" />
    <glyph glyph-name="ocircumflex" unicode="&#xf4;" horiz-adv-x="628" 
d="M79 391q35 60 96.5 92.5t138.5 32.5t138.5 -32.5t97 -92.5t35.5 -140t-35.5 -140t-97 -92.5t-138.5 -32.5t-138.5 32.5t-96.5 92.5t-35 140t35 140zM213.5 142.5q40.5 -40.5 100.5 -40.5q61 0 101 40t40 109t-40 109t-101 40q-60 0 -100.5 -40t-40.5 -109
q0 -68 40.5 -108.5zM383 576l-70 72l-71 -72h-92l120 153h88l120 -153h-95z" />
    <glyph glyph-name="otilde" unicode="&#xf5;" horiz-adv-x="628" 
d="M79 391q35 60 96.5 92.5t138.5 32.5t138.5 -32.5t97 -92.5t35.5 -140t-35.5 -140t-97 -92.5t-138.5 -32.5t-138.5 32.5t-96.5 92.5t-35 140t35 140zM213.5 142.5q40.5 -40.5 100.5 -40.5q61 0 101 40t40 109t-40 109t-101 40q-60 0 -100.5 -40t-40.5 -109
q0 -68 40.5 -108.5zM179.5 694q28.5 37 69.5 37q23 0 40.5 -10t31.5 -21.5t19 -15.5q17 -15 32 -15q32 0 36 52h70q-1 -73 -29.5 -110t-69.5 -37q-23 0 -41 10.5t-32 22t-18 15.5q-17 15 -33 15q-31 0 -35 -53h-70q1 73 29.5 110z" />
    <glyph glyph-name="odieresis" unicode="&#xf6;" horiz-adv-x="628" 
d="M79 391q35 60 96.5 92.5t138.5 32.5t138.5 -32.5t97 -92.5t35.5 -140t-35.5 -140t-97 -92.5t-138.5 -32.5t-138.5 32.5t-96.5 92.5t-35 140t35 140zM213.5 142.5q40.5 -40.5 100.5 -40.5q61 0 101 40t40 109t-40 109t-101 40q-60 0 -100.5 -40t-40.5 -109
q0 -68 40.5 -108.5zM158.5 702q19.5 19 48.5 19t48.5 -19t19.5 -49t-19.5 -49t-48.5 -19t-48.5 19t-19.5 49t19.5 49zM372.5 702q19.5 19 48.5 19t48 -19t19 -49t-19 -49t-48 -19t-48.5 19t-19.5 49t19.5 49z" />
    <glyph glyph-name="divide" unicode="&#xf7;" horiz-adv-x="523" 
d="M202 590q24 22 59 22q36 0 59.5 -22t23.5 -58q0 -37 -23.5 -59t-59.5 -22q-35 0 -59 22t-24 59q0 36 24 58zM459 385v-106h-395v106h395zM202 191q24 22 59 22q36 0 59.5 -22t23.5 -58q0 -37 -23.5 -59t-59.5 -22q-35 0 -59 22t-24 59q0 36 24 58z" />
    <glyph glyph-name="oslash" unicode="&#xf8;" horiz-adv-x="628" 
d="M563.5 362.5q21.5 -50.5 21.5 -111.5q0 -80 -35.5 -140t-97 -92.5t-138.5 -32.5q-69 0 -126 26l-50 -69l-63 44l49 68q-38 35 -59 85t-21 111q0 80 35 140t96.5 92.5t138.5 32.5q68 0 125 -26l50 69l63 -44l-48 -67q38 -35 59.5 -85.5zM200 159l167 231q-27 10 -53 10
q-60 0 -100.5 -40t-40.5 -109q0 -54 27 -92zM415 142q40 40 40 109q0 55 -27 93l-168 -232q28 -10 54 -10q61 0 101 40z" />
    <glyph glyph-name="ugrave" unicode="&#xf9;" horiz-adv-x="594" 
d="M520 502v-502h-110v81q-25 -44 -65.5 -69.5t-94.5 -25.5q-51 0 -93 24.5t-66.5 73.5t-24.5 119v299h128v-278q0 -56 25 -86.5t69 -30.5q48 0 76 40.5t28 108.5v246h128zM164 752h132l68 -173h-99z" />
    <glyph glyph-name="uacute" unicode="&#xfa;" horiz-adv-x="594" 
d="M520 502v-502h-110v81q-25 -44 -65.5 -69.5t-94.5 -25.5q-51 0 -93 24.5t-66.5 73.5t-24.5 119v299h128v-278q0 -56 25 -86.5t69 -30.5q48 0 76 40.5t28 108.5v246h128zM231 579l67 173h133l-102 -173h-98z" />
    <glyph glyph-name="ucircumflex" unicode="&#xfb;" horiz-adv-x="594" 
d="M520 502v-502h-110v81q-25 -44 -65.5 -69.5t-94.5 -25.5q-51 0 -93 24.5t-66.5 73.5t-24.5 119v299h128v-278q0 -56 25 -86.5t69 -30.5q48 0 76 40.5t28 108.5v246h128zM366 576l-70 72l-71 -72h-92l120 153h88l120 -153h-95z" />
    <glyph glyph-name="udieresis" unicode="&#xfc;" horiz-adv-x="594" 
d="M520 502v-502h-110v81q-25 -44 -65.5 -69.5t-94.5 -25.5q-51 0 -93 24.5t-66.5 73.5t-24.5 119v299h128v-278q0 -56 25 -86.5t69 -30.5q48 0 76 40.5t28 108.5v246h128zM141.5 702q19.5 19 48.5 19t48.5 -19t19.5 -49t-19.5 -49t-48.5 -19t-48.5 19t-19.5 49t19.5 49z
M355.5 702q19.5 19 48.5 19t48 -19t19 -49t-19 -49t-48 -19t-48.5 19t-19.5 49t19.5 49z" />
    <glyph glyph-name="yacute" unicode="&#xfd;" horiz-adv-x="557" 
d="M533 502l-292 -696h-139l116 273l-196 423h139l124 -291l113 291h135zM213 579l67 173h133l-102 -173h-98z" />
    <glyph glyph-name="thorn" unicode="&#xfe;" horiz-adv-x="634" 
d="M469.5 485.5q53.5 -30.5 87 -90.5t33.5 -144t-33.5 -144t-87 -90.5t-113.5 -30.5q-45 0 -84.5 17.5t-68.5 50.5v-248h-128v946h128v-304q29 33 68.5 50.5t84.5 17.5q60 0 113.5 -30.5zM420 140.5q40 37.5 40 110.5t-40 110.5t-94 37.5t-94 -37.5t-40 -110.5t40 -110.5
t94 -37.5t94 37.5z" />
    <glyph glyph-name="ydieresis" unicode="&#xff;" horiz-adv-x="557" 
d="M533 502l-292 -696h-139l116 273l-196 423h139l124 -291l113 291h135zM123.5 702q19.5 19 48.5 19t48.5 -19t19.5 -49t-19.5 -49t-48.5 -19t-48.5 19t-19.5 49t19.5 49zM337.5 702q19.5 19 48.5 19t48 -19t19 -49t-19 -49t-48 -19t-48.5 19t-19.5 49t19.5 49z" />
    <glyph glyph-name="Amacron" unicode="&#x100;" horiz-adv-x="726" 
d="M495 165h-267l-61 -165h-148l280 700h128l280 -700h-151zM455 275l-93 253l-94 -253h187zM222 779v92h282v-92h-282z" />
    <glyph glyph-name="amacron" unicode="&#x101;" horiz-adv-x="557" 
d="M430.5 467q61.5 -49 61.5 -157v-310h-110v53q-25 -31 -65.5 -49t-90.5 -18q-56 0 -99 21t-67 58t-24 83q0 47 24.5 83.5t69 57t103.5 20.5q81 0 131 -38v29q0 55 -32 80.5t-87 25.5q-71 0 -141 -40h-13v115q42 17 89.5 26t90.5 9q98 0 159.5 -49zM346.5 107.5
q27.5 19.5 27.5 47.5t-27.5 47t-77.5 19t-77.5 -19t-27.5 -47t27.5 -47.5t77.5 -19.5t77.5 19.5zM153 602v91h268v-91h-268z" />
    <glyph glyph-name="Abreve" unicode="&#x102;" horiz-adv-x="726" 
d="M495 165h-267l-61 -165h-148l280 700h128l280 -700h-151zM455 275l-93 253l-94 -253h187zM521 904v-9q0 -73 -42 -109t-116 -36q-75 0 -116.5 36t-41.5 109v9h87v-11q0 -26 18.5 -40t52.5 -14t53 14t19 40v11h86z" />
    <glyph glyph-name="abreve" unicode="&#x103;" horiz-adv-x="557" 
d="M430.5 467q61.5 -49 61.5 -157v-310h-110v53q-25 -31 -65.5 -49t-90.5 -18q-56 0 -99 21t-67 58t-24 83q0 47 24.5 83.5t69 57t103.5 20.5q81 0 131 -38v29q0 55 -32 80.5t-87 25.5q-71 0 -141 -40h-13v115q42 17 89.5 26t90.5 9q98 0 159.5 -49zM346.5 107.5
q27.5 19.5 27.5 47.5t-27.5 47t-77.5 19t-77.5 -19t-27.5 -47t27.5 -47.5t77.5 -19.5t77.5 19.5zM133 738h81v-14q0 -34 19 -52t54 -18t53.5 18t18.5 52v14h82v-10q0 -82 -40.5 -121.5t-113.5 -39.5t-113.5 39t-40.5 122v10z" />
    <glyph glyph-name="Aogonek" unicode="&#x104;" horiz-adv-x="726" 
d="M495 165h-267l-61 -165h-148l280 700h128l280 -700h-151zM455 275l-93 253l-94 -253h187zM622 0h85q-41 -22 -62.5 -47.5t-21.5 -50.5q0 -35 39 -35q21 0 54 14v-77q-40 -17 -80 -17q-47 0 -80 21.5t-33 65.5q0 71 99 126z" />
    <glyph glyph-name="aogonek" unicode="&#x105;" horiz-adv-x="557" 
d="M501 -119v-77q-40 -17 -80 -17q-47 0 -80 21.5t-33 65.5q0 70 99 126h-25v53q-25 -31 -65.5 -49t-90.5 -18q-56 0 -99 21t-67 58t-24 83q0 47 24.5 83.5t69 57t103.5 20.5q81 0 131 -38v29q0 55 -32 80.5t-87 25.5q-71 0 -141 -40h-13v115q42 17 89.5 26t90.5 9
q98 0 159.5 -49t61.5 -157v-310q-41 -22 -62.5 -47.5t-21.5 -50.5q0 -35 39 -35q21 0 54 14zM346.5 107.5q27.5 19.5 27.5 47.5t-27.5 47t-77.5 19t-77.5 -19t-27.5 -47t27.5 -47.5t77.5 -19.5t77.5 19.5z" />
    <glyph glyph-name="Cacute" unicode="&#x106;" horiz-adv-x="687" 
d="M102.5 542.5q47.5 82.5 131 127t187.5 44.5q120 0 212 -56v-152h-14q-75 78 -190 78q-67 0 -119.5 -29t-82 -82t-29.5 -123q0 -69 29 -122t82 -82.5t122 -29.5q62 0 112.5 23t87.5 67h15v-161q-98 -59 -220 -59q-107 0 -191.5 43t-132 125.5t-47.5 195.5
q0 110 47.5 192.5zM331 758l79 152h138l-112 -152h-105z" />
    <glyph glyph-name="cacute" unicode="&#x107;" horiz-adv-x="520" 
d="M79.5 393q35.5 60 96.5 91.5t138 31.5q76 0 143 -36v-126h-11q-65 46 -126 46q-63 0 -105 -40t-42 -109t42.5 -109t108.5 -40q72 0 129 49h12v-129q-67 -36 -147 -36q-78 0 -140.5 31t-98 91t-35.5 143q0 82 35.5 142zM217 579l67 173h133l-102 -173h-98z" />
    <glyph glyph-name="Cdotaccent" unicode="&#x10a;" horiz-adv-x="687" 
d="M102.5 542.5q47.5 82.5 131 127t187.5 44.5q120 0 212 -56v-152h-14q-75 78 -190 78q-67 0 -119.5 -29t-82 -82t-29.5 -123q0 -69 29 -122t82 -82.5t122 -29.5q62 0 112.5 23t87.5 67h15v-161q-98 -59 -220 -59q-107 0 -191.5 43t-132 125.5t-47.5 195.5
q0 110 47.5 192.5zM353.5 905.5q22.5 19.5 55.5 19.5t56 -19.5t23 -51.5t-23 -51.5t-56 -19.5t-55.5 19.5t-22.5 51.5t22.5 51.5z" />
    <glyph glyph-name="cdotaccent" unicode="&#x10b;" horiz-adv-x="520" 
d="M79.5 393q35.5 60 96.5 91.5t138 31.5q76 0 143 -36v-126h-11q-65 46 -126 46q-63 0 -105 -40t-42 -109t42.5 -109t108.5 -40q72 0 129 49h12v-129q-67 -36 -147 -36q-78 0 -140.5 31t-98 91t-35.5 143q0 82 35.5 142zM228.5 710q21.5 20 53.5 20q33 0 54.5 -19.5
t21.5 -53.5q0 -33 -21.5 -52.5t-54.5 -19.5q-32 0 -53.5 19.5t-21.5 52.5t21.5 53z" />
    <glyph glyph-name="Ccaron" unicode="&#x10c;" horiz-adv-x="687" 
d="M102.5 542.5q47.5 82.5 131 127t187.5 44.5q120 0 212 -56v-152h-14q-75 78 -190 78q-67 0 -119.5 -29t-82 -82t-29.5 -123q0 -69 29 -122t82 -82.5t122 -29.5q62 0 112.5 23t87.5 67h15v-161q-98 -59 -220 -59q-107 0 -191.5 43t-132 125.5t-47.5 195.5
q0 110 47.5 192.5zM577 897l-120 -135h-97l-120 135h101l68 -63l70 63h98z" />
    <glyph glyph-name="ccaron" unicode="&#x10d;" horiz-adv-x="520" 
d="M79.5 393q35.5 60 96.5 91.5t138 31.5q76 0 143 -36v-126h-11q-65 46 -126 46q-63 0 -105 -40t-42 -109t42.5 -109t108.5 -40q72 0 129 49h12v-129q-67 -36 -147 -36q-78 0 -140.5 31t-98 91t-35.5 143q0 82 35.5 142zM446 729l-120 -153h-88l-120 153h96l69 -73l71 73
h92z" />
    <glyph glyph-name="Dcaron" unicode="&#x10e;" horiz-adv-x="743" 
d="M511.5 659.5q83.5 -40.5 130 -119t46.5 -190.5t-46.5 -190.5t-130 -119t-194.5 -40.5h-232v700h232q111 0 194.5 -40.5zM480.5 179.5q64.5 56.5 64.5 170.5t-64.5 170.5t-177.5 56.5h-80v-454h80q113 0 177.5 56.5zM540 897l-120 -135h-97l-120 135h101l68 -63l70 63h98z
" />
    <glyph glyph-name="dcaron" unicode="&#x10f;" horiz-adv-x="721" 
d="M431 752h128v-752h-110v77q-30 -44 -75 -67.5t-97 -23.5q-60 0 -113.5 30.5t-86.5 90.5t-33 144t33.5 144t87 90.5t113.5 30.5q44 0 83.5 -17.5t69.5 -50.5v304zM734 752l-33 -192h-89l13 192h109zM401.5 140.5q39.5 37.5 39.5 110.5t-39.5 110.5t-94.5 37.5
q-54 0 -94 -37.5t-40 -110.5t40 -110.5t94 -37.5q55 0 94.5 37.5z" />
    <glyph glyph-name="Dcroat" unicode="&#x110;" horiz-adv-x="769" 
d="M538 659.5q84 -40.5 130.5 -119t46.5 -190.5t-46.5 -190.5t-130.5 -119t-195 -40.5h-231v305h-87v111h87v284h231q111 0 195 -40.5zM507.5 179.5q64.5 56.5 64.5 170.5t-64.5 170.5t-178.5 56.5h-79v-161h137v-111h-137v-182h79q114 0 178.5 56.5z" />
    <glyph glyph-name="dcroat" unicode="&#x111;" horiz-adv-x="634" 
d="M634 583h-75v-583h-110v77q-30 -44 -75 -67.5t-97 -23.5q-60 0 -113.5 30.5t-86.5 90.5t-33 144t33.5 144t87 90.5t113.5 30.5q44 0 83.5 -17.5t69.5 -50.5v135h-160v86h160v83h128v-83h75v-86zM401.5 140.5q39.5 37.5 39.5 110.5t-39.5 110.5t-94.5 37.5
q-54 0 -94 -37.5t-40 -110.5t40 -110.5t94 -37.5q55 0 94.5 37.5z" />
    <glyph glyph-name="Emacron" unicode="&#x112;" horiz-adv-x="582" 
d="M538 123v-123h-453v700h438v-123h-300v-153h282v-116h-282v-185h315zM165 779v92h282v-92h-282z" />
    <glyph glyph-name="emacron" unicode="&#x113;" horiz-adv-x="584" 
d="M539 227h-369q8 -69 51 -100.5t105 -31.5q88 0 172 57h12v-121q-47 -24 -96.5 -34.5t-93.5 -10.5q-77 0 -139.5 29.5t-99.5 89.5t-37 146t36 146t96 89.5t132 29.5q103 0 168.5 -59.5t66.5 -175.5q0 -18 -4 -54zM221.5 390.5q-35.5 -27.5 -47.5 -79.5h245q-5 53 -34.5 80
t-78.5 27t-84.5 -27.5zM162 602v91h268v-91h-268z" />
    <glyph glyph-name="Edotaccent" unicode="&#x116;" horiz-adv-x="582" 
d="M538 123v-123h-453v700h438v-123h-300v-153h282v-116h-282v-185h315zM250.5 905.5q22.5 19.5 55.5 19.5t56 -19.5t23 -51.5t-23 -51.5t-56 -19.5t-55.5 19.5t-22.5 51.5t22.5 51.5z" />
    <glyph glyph-name="edotaccent" unicode="&#x117;" horiz-adv-x="584" 
d="M539 227h-369q8 -69 51 -100.5t105 -31.5q88 0 172 57h12v-121q-47 -24 -96.5 -34.5t-93.5 -10.5q-77 0 -139.5 29.5t-99.5 89.5t-37 146t36 146t96 89.5t132 29.5q103 0 168.5 -59.5t66.5 -175.5q0 -18 -4 -54zM221.5 390.5q-35.5 -27.5 -47.5 -79.5h245q-5 53 -34.5 80
t-78.5 27t-84.5 -27.5zM241.5 710q21.5 20 53.5 20q33 0 54.5 -19.5t21.5 -53.5q0 -33 -21.5 -52.5t-54.5 -19.5q-32 0 -53.5 19.5t-21.5 52.5t21.5 53z" />
    <glyph glyph-name="Eogonek" unicode="&#x118;" horiz-adv-x="582" 
d="M538 123v-123h-453v700h438v-123h-300v-153h282v-116h-282v-185h315zM431 0h85q-41 -22 -62.5 -47.5t-21.5 -50.5q0 -35 39 -35q21 0 54 14v-77q-40 -17 -80 -17q-47 0 -80 21.5t-33 65.5q0 71 99 126z" />
    <glyph glyph-name="eogonek" unicode="&#x119;" horiz-adv-x="584" 
d="M539 227h-369q8 -69 51 -100.5t105 -31.5q88 0 172 57h12v-121q-63 -44 -88.5 -74t-25.5 -55q0 -35 39 -35q21 0 54 14v-77q-40 -17 -80 -17q-47 0 -80 21.5t-33 65.5q0 63 79 116q-27 -4 -55 -4q-77 0 -139.5 29.5t-99.5 89.5t-37 146t36 146t96 89.5t132 29.5
q103 0 168.5 -59.5t66.5 -175.5q0 -18 -4 -54zM221.5 390.5q-35.5 -27.5 -47.5 -79.5h245q-5 53 -34.5 80t-78.5 27t-84.5 -27.5z" />
    <glyph glyph-name="Ecaron" unicode="&#x11a;" horiz-adv-x="582" 
d="M538 123v-123h-453v700h438v-123h-300v-153h282v-116h-282v-185h315zM474 897l-120 -135h-97l-120 135h101l68 -63l70 63h98z" />
    <glyph glyph-name="ecaron" unicode="&#x11b;" horiz-adv-x="584" 
d="M539 227h-369q8 -69 51 -100.5t105 -31.5q88 0 172 57h12v-121q-47 -24 -96.5 -34.5t-93.5 -10.5q-77 0 -139.5 29.5t-99.5 89.5t-37 146t36 146t96 89.5t132 29.5q103 0 168.5 -59.5t66.5 -175.5q0 -18 -4 -54zM221.5 390.5q-35.5 -27.5 -47.5 -79.5h245q-5 53 -34.5 80
t-78.5 27t-84.5 -27.5zM459 729l-120 -153h-88l-120 153h96l69 -73l71 73h92z" />
    <glyph glyph-name="Gbreve" unicode="&#x11e;" horiz-adv-x="740" 
d="M676 400v-400h-214q-125 0 -216.5 40.5t-141 119t-49.5 190.5q0 111 48 193.5t133 126.5t194 44q125 0 220 -58v-146h-14q-39 36 -91 55.5t-109 19.5q-70 0 -124 -29t-84 -82t-30 -124q0 -106 69 -163.5t202 -57.5h74v155h-143v116h276zM568 904v-9q0 -73 -42 -109
t-116 -36q-75 0 -116.5 36t-41.5 109v9h87v-11q0 -26 18.5 -40t52.5 -14t53 14t19 40v11h86z" />
    <glyph glyph-name="gbreve" unicode="&#x11f;" horiz-adv-x="634" 
d="M559 502v-461q0 -84 -37 -140t-99.5 -82.5t-138.5 -26.5q-100 0 -181 38v128h12q77 -51 163 -51q70 0 111.5 35t41.5 104v23q-29 -31 -69 -48t-86 -17q-60 0 -113 28.5t-86 85.5t-33 138q0 82 33.5 141t87 89t113.5 30q52 0 96.5 -23.5t74.5 -66.5v76h110zM401 149
q40 36 40 107t-40 107t-94 36t-94 -36.5t-40 -106.5t40 -106.5t94 -36.5t94 36zM163 738h81v-14q0 -34 19 -52t54 -18t53.5 18t18.5 52v14h82v-10q0 -82 -40.5 -121.5t-113.5 -39.5t-113.5 39t-40.5 122v10z" />
    <glyph glyph-name="Gdotaccent" unicode="&#x120;" horiz-adv-x="740" 
d="M676 400v-400h-214q-125 0 -216.5 40.5t-141 119t-49.5 190.5q0 111 48 193.5t133 126.5t194 44q125 0 220 -58v-146h-14q-39 36 -91 55.5t-109 19.5q-70 0 -124 -29t-84 -82t-30 -124q0 -106 69 -163.5t202 -57.5h74v155h-143v116h276zM354.5 905.5q22.5 19.5 55.5 19.5
t56 -19.5t23 -51.5t-23 -51.5t-56 -19.5t-55.5 19.5t-22.5 51.5t22.5 51.5z" />
    <glyph glyph-name="gdotaccent" unicode="&#x121;" horiz-adv-x="634" 
d="M559 502v-461q0 -84 -37 -140t-99.5 -82.5t-138.5 -26.5q-100 0 -181 38v128h12q77 -51 163 -51q70 0 111.5 35t41.5 104v23q-29 -31 -69 -48t-86 -17q-60 0 -113 28.5t-86 85.5t-33 138q0 82 33.5 141t87 89t113.5 30q52 0 96.5 -23.5t74.5 -66.5v76h110zM401 149
q40 36 40 107t-40 107t-94 36t-94 -36.5t-40 -106.5t40 -106.5t94 -36.5t94 36zM262.5 710q21.5 20 53.5 20q33 0 54.5 -19.5t21.5 -53.5q0 -33 -21.5 -52.5t-54.5 -19.5q-32 0 -53.5 19.5t-21.5 52.5t21.5 53z" />
    <glyph glyph-name="Gcommaaccent" unicode="&#x122;" horiz-adv-x="740" 
d="M676 400v-400h-214q-125 0 -216.5 40.5t-141 119t-49.5 190.5q0 111 48 193.5t133 126.5t194 44q125 0 220 -58v-146h-14q-39 36 -91 55.5t-109 19.5q-70 0 -124 -29t-84 -82t-30 -124q0 -106 69 -163.5t202 -57.5h74v155h-143v116h276zM492 -54l-73 -187h-93l46 187h120
z" />
    <glyph glyph-name="gcommaaccent" unicode="&#x123;" horiz-adv-x="634" 
d="M559 502v-461q0 -84 -37 -140t-99.5 -82.5t-138.5 -26.5q-100 0 -181 38v128h12q77 -51 163 -51q70 0 111.5 35t41.5 104v23q-29 -31 -69 -48t-86 -17q-60 0 -113 28.5t-86 85.5t-33 138q0 82 33.5 141t87 89t113.5 30q52 0 96.5 -23.5t74.5 -66.5v76h110zM401 149
q40 36 40 107t-40 107t-94 36t-94 -36.5t-40 -106.5t40 -106.5t94 -36.5t94 36zM233 570l73 188h93l-45 -188h-121z" />
    <glyph glyph-name="Hbar" unicode="&#x126;" horiz-adv-x="797" 
d="M764 522h-69v-522h-138v311h-317v-311h-138v522h-69v88h69v90h138v-90h317v90h138v-90h69v-88zM557 522h-317v-88h317v88z" />
    <glyph glyph-name="hbar" unicode="&#x127;" horiz-adv-x="594" 
d="M438 493q42 -23 66.5 -69.5t24.5 -114.5v-309h-128v278q0 56 -25 86.5t-69 30.5q-49 0 -76.5 -38.5t-27.5 -106.5v-250h-128v583h-76v86h76v83h128v-83h159v-86h-159v-131q56 64 142 64q51 0 93 -23z" />
    <glyph glyph-name="Imacron" unicode="&#x12a;" horiz-adv-x="308" 
d="M22 779v92h264v-92h-264zM223 700v-700h-138v700h138z" />
    <glyph glyph-name="imacron" unicode="&#x12b;" horiz-adv-x="278" 
d="M31 602v91h215l1 -91h-216zM203 502v-502h-128v502h128z" />
    <glyph glyph-name="Iogonek" unicode="&#x12e;" horiz-adv-x="308" 
d="M235 -119v-77q-40 -17 -78 -17q-45 0 -77.5 22t-32.5 69q0 71 91 122h-53v700h138v-700q-39 -21 -58 -46t-19 -50q0 -37 39 -37q22 0 50 14z" />
    <glyph glyph-name="iogonek" unicode="&#x12f;" horiz-adv-x="278" 
d="M80 604.5q-22 19.5 -22 52.5q0 34 21.5 53.5t54.5 19.5q32 0 53.5 -20t21.5 -53t-21.5 -52.5t-53.5 -19.5t-54 19.5zM215 -119v-77q-40 -17 -78 -17q-45 0 -78 22t-33 69q0 70 92 122h-43v502h128v-502q-40 -21 -58.5 -46t-18.5 -50q0 -37 39 -37q21 0 50 14z" />
    <glyph glyph-name="Idotaccent" unicode="&#x130;" horiz-adv-x="308" 
d="M223 700v-700h-138v700h138zM98.5 905.5q22.5 19.5 55.5 19.5t56 -19.5t23 -51.5t-23 -51.5t-56 -19.5t-55.5 19.5t-22.5 51.5t22.5 51.5z" />
    <glyph glyph-name="dotlessi" unicode="&#x131;" horiz-adv-x="278" 
d="M203 502v-502h-128v502h128z" />
    <glyph glyph-name="Kcommaaccent" unicode="&#x136;" horiz-adv-x="672" 
d="M491 0l-268 323v-323h-138v700h138v-285l246 285h169l-293 -322l318 -378h-172zM418 -54l-73 -187h-93l46 187h120z" />
    <glyph glyph-name="kcommaaccent" unicode="&#x137;" horiz-adv-x="555" 
d="M386 0l-183 240v-240h-128v752h128v-453l166 203h155l-199 -227l220 -275h-159zM359 -54l-73 -187h-93l46 187h120z" />
    <glyph glyph-name="Lacute" unicode="&#x139;" horiz-adv-x="526" 
d="M494 123v-123h-409v700h138v-577h271zM92 758l79 152h138l-112 -152h-105z" />
    <glyph glyph-name="lacute" unicode="&#x13a;" horiz-adv-x="278" 
d="M203 752v-752h-128v752h128zM84 810l79 152h138l-112 -152h-105z" />
    <glyph glyph-name="Lcommaaccent" unicode="&#x13b;" horiz-adv-x="526" 
d="M494 123v-123h-409v700h138v-577h271zM345 -54l-73 -187h-93l46 187h120z" />
    <glyph glyph-name="lcommaaccent" unicode="&#x13c;" horiz-adv-x="278" 
d="M203 752v-752h-128v752h128zM205 -54l-73 -187h-93l46 187h120z" />
    <glyph glyph-name="Lcaron" unicode="&#x13d;" horiz-adv-x="526" 
d="M494 123v-123h-409v700h138v-577h271zM389 515h-90l23 185h107z" />
    <glyph glyph-name="lcaron" unicode="&#x13e;" horiz-adv-x="365" 
d="M203 752v-752h-128v752h128zM256 560l13 192h109l-33 -192h-89z" />
    <glyph glyph-name="Ldot" unicode="&#x13f;" horiz-adv-x="526" 
d="M494 123v-123h-409v700h138v-577h271zM310.5 454q24.5 23 59.5 23t59.5 -23t24.5 -61t-25 -61t-59 -23q-35 0 -59.5 23t-24.5 61t24.5 61z" />
    <glyph glyph-name="ldot" unicode="&#x140;" horiz-adv-x="416" 
d="M203 752v-752h-128v752h128zM279.5 362q24.5 23 59.5 23t59.5 -23t24.5 -61t-25 -61t-59 -23q-35 0 -59.5 23t-24.5 61t24.5 61z" />
    <glyph glyph-name="Lslash" unicode="&#x141;" horiz-adv-x="532" 
d="M500 123v-123h-409v248l-67 -36v111l67 36v341h138v-266l152 83v-111l-152 -83v-200h271z" />
    <glyph glyph-name="lslash" unicode="&#x142;" horiz-adv-x="320" 
d="M301 429l-77 -48v-381h-128v301l-76 -48v105l76 48v346h128v-266l77 48v-105z" />
    <glyph glyph-name="Nacute" unicode="&#x143;" horiz-adv-x="777" 
d="M692 700v-700h-113l-358 457v-457h-136v700h112l358 -457v457h137zM310 758l79 152h138l-112 -152h-105z" />
    <glyph glyph-name="nacute" unicode="&#x144;" horiz-adv-x="594" 
d="M438 493q42 -23 66.5 -69.5t24.5 -114.5v-309h-128v278q0 56 -25 86.5t-69 30.5q-49 0 -76.5 -38.5t-27.5 -106.5v-250h-128v502h109v-76q26 42 67 66t94 24q51 0 93 -23zM231 579l67 173h133l-102 -173h-98z" />
    <glyph glyph-name="Ncommaaccent" unicode="&#x145;" horiz-adv-x="777" 
d="M692 700v-700h-113l-358 457v-457h-136v700h112l358 -457v457h137zM470 -54l-73 -187h-93l46 187h120z" />
    <glyph glyph-name="ncommaaccent" unicode="&#x146;" horiz-adv-x="594" 
d="M438 493q42 -23 66.5 -69.5t24.5 -114.5v-309h-128v278q0 56 -25 86.5t-69 30.5q-49 0 -76.5 -38.5t-27.5 -106.5v-250h-128v502h109v-76q26 42 67 66t94 24q51 0 93 -23zM379 -54l-73 -187h-93l46 187h120z" />
    <glyph glyph-name="Ncaron" unicode="&#x147;" horiz-adv-x="777" 
d="M692 700v-700h-113l-358 457v-457h-136v700h112l358 -457v457h137zM556 897l-120 -135h-97l-120 135h101l68 -63l70 63h98z" />
    <glyph glyph-name="ncaron" unicode="&#x148;" horiz-adv-x="594" 
d="M438 493q42 -23 66.5 -69.5t24.5 -114.5v-309h-128v278q0 56 -25 86.5t-69 30.5q-49 0 -76.5 -38.5t-27.5 -106.5v-250h-128v502h109v-76q26 42 67 66t94 24q51 0 93 -23zM461 729l-120 -153h-88l-120 153h96l69 -73l71 73h92z" />
    <glyph glyph-name="Eng" unicode="&#x14a;" horiz-adv-x="777" 
d="M692 700v-712q0 -93 -51 -137.5t-137 -44.5h-79v127h59q71 0 71 74v24l-334 426v-457h-136v700h112l358 -457v457h137z" />
    <glyph glyph-name="eng" unicode="&#x14b;" horiz-adv-x="594" 
d="M438 493q42 -23 66.5 -69.5t24.5 -114.5v-337q0 -89 -45.5 -127.5t-114.5 -38.5h-62v119h45q49 0 49 59v294q0 56 -25 86.5t-69 30.5q-49 0 -76.5 -38.5t-27.5 -106.5v-250h-128v502h109v-76q26 42 67 66t94 24q51 0 93 -23z" />
    <glyph glyph-name="Omacron" unicode="&#x14c;" horiz-adv-x="846" 
d="M103 541.5q48 82.5 131.5 127.5t188.5 45t188.5 -45t131.5 -127.5t48 -191.5t-48 -191.5t-131.5 -127.5t-188.5 -45t-188.5 45t-131.5 127.5t-48 191.5t48 191.5zM227.5 226.5q29.5 -53.5 80.5 -82t115 -28.5q63 0 114.5 29t81 82t29.5 123t-29.5 123t-81 82t-114.5 29
t-114.5 -29t-81 -82t-29.5 -123t29.5 -123.5zM282 779v92h282v-92h-282z" />
    <glyph glyph-name="omacron" unicode="&#x14d;" horiz-adv-x="628" 
d="M79 391q35 60 96.5 92.5t138.5 32.5t138.5 -32.5t97 -92.5t35.5 -140t-35.5 -140t-97 -92.5t-138.5 -32.5t-138.5 32.5t-96.5 92.5t-35 140t35 140zM213.5 142.5q40.5 -40.5 100.5 -40.5q61 0 101 40t40 109t-40 109t-101 40q-60 0 -100.5 -40t-40.5 -109
q0 -68 40.5 -108.5zM180 602v91h268v-91h-268z" />
    <glyph glyph-name="Ohungarumlaut" unicode="&#x150;" horiz-adv-x="846" 
d="M103 541.5q48 82.5 131.5 127.5t188.5 45t188.5 -45t131.5 -127.5t48 -191.5t-48 -191.5t-131.5 -127.5t-188.5 -45t-188.5 45t-131.5 127.5t-48 191.5t48 191.5zM227.5 226.5q29.5 -53.5 80.5 -82t115 -28.5q63 0 114.5 29t81 82t29.5 123t-29.5 123t-81 82t-114.5 29
t-114.5 -29t-81 -82t-29.5 -123t29.5 -123.5zM275 758l78 152h116l-101 -152h-93zM430 758l101 152h120l-123 -152h-98z" />
    <glyph glyph-name="ohungarumlaut" unicode="&#x151;" horiz-adv-x="628" 
d="M79 391q35 60 96.5 92.5t138.5 32.5t138.5 -32.5t97 -92.5t35.5 -140t-35.5 -140t-97 -92.5t-138.5 -32.5t-138.5 32.5t-96.5 92.5t-35 140t35 140zM213.5 142.5q40.5 -40.5 100.5 -40.5q61 0 101 40t40 109t-40 109t-101 40q-60 0 -100.5 -40t-40.5 -109
q0 -68 40.5 -108.5zM182 571l67 173h109l-89 -173h-87zM333 571l88 173h112l-108 -173h-92z" />
    <glyph glyph-name="OE" unicode="&#x152;" horiz-adv-x="1132" 
d="M1089 123v-123h-453v73q-87 -87 -230 -87q-101 0 -180.5 44.5t-125 127.5t-45.5 192t45.5 192t125 127.5t180.5 44.5q143 0 230 -87v73h438v-123h-300v-153h282v-116h-282v-185h315zM537.5 145q51.5 29 81 82t29.5 123t-29.5 123t-81 82t-114.5 29t-114.5 -29t-81 -82
t-29.5 -123t29.5 -123t81 -82t114.5 -29t114.5 29z" />
    <glyph glyph-name="oe" unicode="&#x153;" horiz-adv-x="996" 
d="M950 227h-368q8 -69 51 -100.5t105 -31.5q87 0 171 57h13v-121q-89 -45 -185 -45q-72 0 -129 26.5t-91 78.5q-32 -51 -86.5 -78t-123.5 -27q-76 0 -135.5 32.5t-93.5 92.5t-34 140t34 140t93.5 92.5t135.5 32.5q69 0 122.5 -27t86.5 -77q33 51 87.5 77.5t121.5 26.5
q102 0 165 -59.5t64 -175.5q0 -30 -4 -54zM633 390.5q-35 -27.5 -47 -79.5h245q-5 53 -35 80t-79 27t-84 -27.5zM415 142q40 40 40 109t-40 109t-101 40q-60 0 -100.5 -40t-40.5 -109q0 -68 40.5 -108.5t100.5 -40.5q61 0 101 40z" />
    <glyph glyph-name="Racute" unicode="&#x154;" horiz-adv-x="672" 
d="M311 279h-88v-279h-138v700h299q75 0 128.5 -27t80.5 -73.5t27 -105.5q0 -77 -46.5 -131.5t-127.5 -69.5l193 -293h-154zM223 395h146q52 0 80.5 23.5t28.5 68.5q0 46 -29.5 70t-83.5 24h-142v-186zM258 758l79 152h138l-112 -152h-105z" />
    <glyph glyph-name="racute" unicode="&#x155;" horiz-adv-x="423" 
d="M397 502v-120h-70q-63 0 -93.5 -46.5t-30.5 -125.5v-210h-128v502h109v-107q23 49 61.5 78t90.5 29h61zM176 579l67 173h133l-102 -173h-98z" />
    <glyph glyph-name="Rcommaaccent" unicode="&#x156;" horiz-adv-x="672" 
d="M311 279h-88v-279h-138v700h299q75 0 128.5 -27t80.5 -73.5t27 -105.5q0 -77 -46.5 -131.5t-127.5 -69.5l193 -293h-154zM223 395h146q52 0 80.5 23.5t28.5 68.5q0 46 -29.5 70t-83.5 24h-142v-186zM418 -54l-73 -187h-93l46 187h120z" />
    <glyph glyph-name="rcommaaccent" unicode="&#x157;" horiz-adv-x="423" 
d="M397 502v-120h-70q-63 0 -93.5 -46.5t-30.5 -125.5v-210h-128v502h109v-107q23 49 61.5 78t90.5 29h61zM205 -54l-73 -187h-93l46 187h120z" />
    <glyph glyph-name="Rcaron" unicode="&#x158;" horiz-adv-x="672" 
d="M311 279h-88v-279h-138v700h299q75 0 128.5 -27t80.5 -73.5t27 -105.5q0 -77 -46.5 -131.5t-127.5 -69.5l193 -293h-154zM223 395h146q52 0 80.5 23.5t28.5 68.5q0 46 -29.5 70t-83.5 24h-142v-186zM504 897l-120 -135h-97l-120 135h101l68 -63l70 63h98z" />
    <glyph glyph-name="rcaron" unicode="&#x159;" horiz-adv-x="423" 
d="M397 502v-120h-70q-63 0 -93.5 -46.5t-30.5 -125.5v-210h-128v502h109v-107q23 49 61.5 78t90.5 29h61zM405 729l-120 -153h-88l-120 153h96l69 -73l71 73h92z" />
    <glyph glyph-name="Sacute" unicode="&#x15a;" horiz-adv-x="579" 
d="M39 190h14q94 -82 211 -82q62 0 95.5 22t33.5 59q0 26 -15 46t-44 32l-139 54q-70 28 -108 79.5t-38 122.5q0 101 72 146t174 45q58 0 104 -12t90 -32v-139h-13q-84 61 -181 61q-53 0 -78 -18t-25 -50q0 -29 20 -49.5t58 -36.5l137 -53q65 -26 97 -77.5t32 -115.5
q0 -105 -78 -155.5t-194 -50.5q-126 0 -225 53v151zM212 758l79 152h138l-112 -152h-105z" />
    <glyph glyph-name="sacute" unicode="&#x15b;" horiz-adv-x="471" 
d="M42 142h13q72 -53 160 -53q90 0 90 45q0 33 -59 56l-76 33q-120 47 -120 151q0 72 54 107t135 35q48 0 88.5 -10.5t70.5 -28.5v-104h-12q-35 21 -67.5 30.5t-68.5 9.5q-76 0 -76 -41q0 -17 15.5 -30t45.5 -26l74 -31q57 -22 88.5 -57.5t31.5 -90.5q0 -81 -60 -116
t-146 -35q-54 0 -100.5 11.5t-80.5 29.5v115zM170 579l67 173h133l-102 -173h-98z" />
    <glyph glyph-name="Scedilla" unicode="&#x15e;" horiz-adv-x="579" 
d="M484.5 58q-51.5 -49 -135.5 -64q38 -51 38 -101q0 -51 -35 -78.5t-86 -27.5q-32 0 -74 13v74q28 -8 45 -8q23 0 36.5 12.5t13.5 37.5q0 34 -20 70h-3q-126 0 -225 53v151h14q94 -82 211 -82q62 0 95.5 22t33.5 59q0 26 -15 46t-44 32l-139 54q-70 28 -108 79.5t-38 122.5
q0 101 72 146t174 45q58 0 104 -12t90 -32v-139h-13q-84 61 -181 61q-53 0 -78 -18t-25 -50q0 -29 20 -49.5t58 -36.5l137 -53q65 -26 97 -77.5t32 -115.5q0 -85 -51.5 -134z" />
    <glyph glyph-name="scedilla" unicode="&#x15f;" horiz-adv-x="471" 
d="M392.5 40.5q-36.5 -34.5 -96.5 -47.5q37 -50 37 -100q0 -51 -35 -78.5t-86 -27.5q-32 0 -74 13v74q28 -8 45 -8q23 0 36.5 12.5t13.5 37.5q0 34 -20 70q-98 3 -171 41v115h13q72 -53 160 -53q90 0 90 45q0 33 -59 56l-76 33q-120 47 -120 151q0 72 54 107t135 35
q48 0 88.5 -10.5t70.5 -28.5v-104h-12q-35 21 -67.5 30.5t-68.5 9.5q-76 0 -76 -41q0 -17 15.5 -30t45.5 -26l74 -31q57 -22 88.5 -57.5t31.5 -90.5q0 -62 -36.5 -96.5z" />
    <glyph glyph-name="Scaron" unicode="&#x160;" horiz-adv-x="579" 
d="M39 190h14q94 -82 211 -82q62 0 95.5 22t33.5 59q0 26 -15 46t-44 32l-139 54q-70 28 -108 79.5t-38 122.5q0 101 72 146t174 45q58 0 104 -12t90 -32v-139h-13q-84 61 -181 61q-53 0 -78 -18t-25 -50q0 -29 20 -49.5t58 -36.5l137 -53q65 -26 97 -77.5t32 -115.5
q0 -105 -78 -155.5t-194 -50.5q-126 0 -225 53v151zM458 897l-120 -135h-97l-120 135h101l68 -63l70 63h98z" />
    <glyph glyph-name="scaron" unicode="&#x161;" horiz-adv-x="471" 
d="M42 142h13q72 -53 160 -53q90 0 90 45q0 33 -59 56l-76 33q-120 47 -120 151q0 72 54 107t135 35q48 0 88.5 -10.5t70.5 -28.5v-104h-12q-35 21 -67.5 30.5t-68.5 9.5q-76 0 -76 -41q0 -17 15.5 -30t45.5 -26l74 -31q57 -22 88.5 -57.5t31.5 -90.5q0 -81 -60 -116
t-146 -35q-54 0 -100.5 11.5t-80.5 29.5v115zM399 729l-120 -153h-88l-120 153h96l69 -73l71 73h92z" />
    <glyph glyph-name="uni0162" unicode="&#x162;" horiz-adv-x="585" 
d="M549 577h-188v-577h-138v577h-187v123h513v-123zM184 -126q28 -8 45 -8q23 0 36.5 12.5t13.5 37.5q0 41 -28 84h85q43 -53 43 -107q0 -51 -35 -78.5t-86 -27.5q-32 0 -74 13v74z" />
    <glyph glyph-name="uni0163" unicode="&#x163;" horiz-adv-x="440" 
d="M259 401v-210q0 -35 20 -52.5t54 -17.5h67v-121h-80q43 -53 43 -107q0 -51 -35 -78.5t-86 -27.5q-32 0 -74 13v74q28 -8 45 -8q23 0 36.5 12.5t13.5 37.5q0 42 -38 98q-46 17 -70 55t-24 96v236h-110v101h110v164h128v-164h146v-101h-146z" />
    <glyph glyph-name="Tcaron" unicode="&#x164;" horiz-adv-x="585" 
d="M549 577h-188v-577h-138v577h-187v123h513v-123zM460 897l-120 -135h-97l-120 135h101l68 -63l70 63h98z" />
    <glyph glyph-name="tcaron" unicode="&#x165;" horiz-adv-x="440" 
d="M454 752l-33 -192h-89l14 192h108zM259 502h146v-101h-146v-210q0 -35 20 -52.5t54 -17.5h67v-121h-90q-85 0 -132 42t-47 123v236h-110v101h110v164h128v-164z" />
    <glyph glyph-name="Tbar" unicode="&#x166;" horiz-adv-x="585" 
d="M361 577v-157h112v-111h-112v-309h-138v309h-112v111h112v157h-187v123h513v-123h-188z" />
    <glyph glyph-name="tbar" unicode="&#x167;" horiz-adv-x="440" 
d="M259 401v-71h146v-73h-146v-66q0 -35 20 -52.5t54 -17.5h67v-121h-90q-85 0 -132 42t-47 123v92h-110v73h110v71h-110v101h110v164h128v-164h146v-101h-146z" />
    <glyph glyph-name="Umacron" unicode="&#x16a;" horiz-adv-x="730" 
d="M78 700h138v-408q0 -92 41 -134t108 -42t108 42t41 134v408h138v-423q0 -99 -38.5 -164.5t-103 -96t-145.5 -30.5t-145.5 30.5t-103 96t-38.5 164.5v423zM224 779v92h282v-92h-282z" />
    <glyph glyph-name="umacron" unicode="&#x16b;" horiz-adv-x="594" 
d="M520 502v-502h-110v81q-25 -44 -65.5 -69.5t-94.5 -25.5q-51 0 -93 24.5t-66.5 73.5t-24.5 119v299h128v-278q0 -56 25 -86.5t69 -30.5q48 0 76 40.5t28 108.5v246h128zM163 602v91h268v-91h-268z" />
    <glyph glyph-name="Uring" unicode="&#x16e;" horiz-adv-x="730" 
d="M78 700h138v-408q0 -92 41 -134t108 -42t108 42t41 134v408h138v-423q0 -99 -38.5 -164.5t-103 -96t-145.5 -30.5t-145.5 30.5t-103 96t-38.5 164.5v423zM443.5 907q32.5 -26 32.5 -71q0 -46 -32.5 -72t-79.5 -26t-79 26t-32 72q0 45 32 71t79 26t79.5 -26zM397 806
q13 11 13 30q0 18 -13 29.5t-33 11.5t-33 -11.5t-13 -29.5t13 -29.5t33 -11.5t33 11z" />
    <glyph glyph-name="uring" unicode="&#x16f;" horiz-adv-x="594" 
d="M520 502v-502h-110v81q-25 -44 -65.5 -69.5t-94.5 -25.5q-51 0 -93 24.5t-66.5 73.5t-24.5 119v299h128v-278q0 -56 25 -86.5t69 -30.5q48 0 76 40.5t28 108.5v246h128zM221.5 730.5q31.5 26.5 75.5 26.5t76 -26.5t32 -71.5q0 -46 -32 -72.5t-76 -26.5t-75.5 26.5
t-31.5 72.5q0 45 31.5 71.5zM267 627.5q13 -12.5 30 -12.5q18 0 31 12t13 32q0 19 -13 31t-31 12q-17 0 -30 -12t-13 -31t13 -31.5z" />
    <glyph glyph-name="Uhungarumlaut" unicode="&#x170;" horiz-adv-x="730" 
d="M78 700h138v-408q0 -92 41 -134t108 -42t108 42t41 134v408h138v-423q0 -99 -38.5 -164.5t-103 -96t-145.5 -30.5t-145.5 30.5t-103 96t-38.5 164.5v423zM217 758l78 152h116l-101 -152h-93zM372 758l101 152h120l-123 -152h-98z" />
    <glyph glyph-name="uhungarumlaut" unicode="&#x171;" horiz-adv-x="594" 
d="M520 502v-502h-110v81q-25 -44 -65.5 -69.5t-94.5 -25.5q-51 0 -93 24.5t-66.5 73.5t-24.5 119v299h128v-278q0 -56 25 -86.5t69 -30.5q48 0 76 40.5t28 108.5v246h128zM165 571l67 173h109l-89 -173h-87zM316 571l88 173h112l-108 -173h-92z" />
    <glyph glyph-name="Uogonek" unicode="&#x172;" horiz-adv-x="730" 
d="M652 700v-423q0 -103 -42 -170t-114 -97q-97 -56 -97 -108q0 -18 10.5 -26.5t28.5 -8.5q23 0 54 14v-77q-40 -17 -80 -17q-46 0 -79.5 21.5t-33.5 65.5q0 63 76 112h-10q-81 0 -145.5 30.5t-103 96t-38.5 164.5v423h138v-408q0 -92 41 -134t108 -42t108 42t41 134v408
h138z" />
    <glyph glyph-name="uogonek" unicode="&#x173;" horiz-adv-x="594" 
d="M529 -119v-77q-40 -17 -80 -17q-47 0 -80 21.5t-33 65.5q0 70 99 126h-25v81q-25 -44 -65.5 -69.5t-94.5 -25.5q-51 0 -93 24.5t-66.5 73.5t-24.5 119v299h128v-278q0 -56 25 -86.5t69 -30.5q48 0 76 40.5t28 108.5v246h128v-502q-41 -22 -62.5 -47.5t-21.5 -50.5
q0 -35 39 -35q21 0 54 14z" />
    <glyph glyph-name="Wcircumflex" unicode="&#x174;" horiz-adv-x="1046" 
d="M1020 700l-235 -700h-130l-133 455l-131 -455h-129l-235 700h153l147 -480l143 480h108l143 -483l149 483h150zM591 762l-68 63l-70 -63h-98l120 135h97l120 -135h-101z" />
    <glyph glyph-name="wcircumflex" unicode="&#x175;" horiz-adv-x="867" 
d="M841 502l-195 -502h-109l-105 307l-104 -307h-109l-193 502h140l107 -321l113 321h95l113 -322l109 322h138zM502 576l-70 72l-71 -72h-92l120 153h88l120 -153h-95z" />
    <glyph glyph-name="Ycircumflex" unicode="&#x176;" horiz-adv-x="693" 
d="M415 295v-295h-138v295l-259 405h158l171 -279l173 279h155zM413 762l-68 63l-70 -63h-98l120 135h97l120 -135h-101z" />
    <glyph glyph-name="ycircumflex" unicode="&#x177;" horiz-adv-x="557" 
d="M533 502l-292 -696h-139l116 273l-196 423h139l124 -291l113 291h135zM347 576l-70 72l-71 -72h-92l120 153h88l120 -153h-95z" />
    <glyph glyph-name="Ydieresis" unicode="&#x178;" horiz-adv-x="693" 
d="M415 295v-295h-138v295l-259 405h158l171 -279l173 279h155zM184 881.5q20 18.5 51 18.5q30 0 50.5 -18.5t20.5 -49.5t-20.5 -49.5t-50.5 -18.5q-31 0 -51 18.5t-20 49.5t20 49.5zM407 881.5q20 18.5 51 18.5q30 0 50 -18.5t20 -49.5t-20 -49.5t-50 -18.5q-31 0 -51 18.5
t-20 49.5t20 49.5z" />
    <glyph glyph-name="Zacute" unicode="&#x179;" horiz-adv-x="597" 
d="M558 123v-123h-522v78l326 499h-299v123h482v-78l-326 -499h339zM221 758l79 152h138l-112 -152h-105z" />
    <glyph glyph-name="zacute" unicode="&#x17a;" horiz-adv-x="491" 
d="M454 101v-101h-419v58l238 343h-214v101h385v-58l-238 -343h248zM180 579l67 173h133l-102 -173h-98z" />
    <glyph glyph-name="Zdotaccent" unicode="&#x17b;" horiz-adv-x="597" 
d="M558 123v-123h-522v78l326 499h-299v123h482v-78l-326 -499h339zM242.5 905.5q22.5 19.5 55.5 19.5t56 -19.5t23 -51.5t-23 -51.5t-56 -19.5t-55.5 19.5t-22.5 51.5t22.5 51.5z" />
    <glyph glyph-name="zdotaccent" unicode="&#x17c;" horiz-adv-x="491" 
d="M454 101v-101h-419v58l238 343h-214v101h385v-58l-238 -343h248zM192.5 710q21.5 20 53.5 20q33 0 54.5 -19.5t21.5 -53.5q0 -33 -21.5 -52.5t-54.5 -19.5q-32 0 -53.5 19.5t-21.5 52.5t21.5 53z" />
    <glyph glyph-name="Zcaron" unicode="&#x17d;" horiz-adv-x="597" 
d="M558 123v-123h-522v78l326 499h-299v123h482v-78l-326 -499h339zM467 897l-120 -135h-97l-120 135h101l68 -63l70 63h98z" />
    <glyph glyph-name="zcaron" unicode="&#x17e;" horiz-adv-x="491" 
d="M454 101v-101h-419v58l238 343h-214v101h385v-58l-238 -343h248zM409 729l-120 -153h-88l-120 153h96l69 -73l71 73h92z" />
    <glyph glyph-name="Scommaaccent" unicode="&#x218;" horiz-adv-x="579" 
d="M39 190h14q94 -82 211 -82q62 0 95.5 22t33.5 59q0 26 -15 46t-44 32l-139 54q-70 28 -108 79.5t-38 122.5q0 101 72 146t174 45q58 0 104 -12t90 -32v-139h-13q-84 61 -181 61q-53 0 -78 -18t-25 -50q0 -29 20 -49.5t58 -36.5l137 -53q65 -26 97 -77.5t32 -115.5
q0 -105 -78 -155.5t-194 -50.5q-126 0 -225 53v151zM371 -54l-73 -187h-93l46 187h120z" />
    <glyph glyph-name="scommaaccent" unicode="&#x219;" horiz-adv-x="471" 
d="M42 142h13q72 -53 160 -53q90 0 90 45q0 33 -59 56l-76 33q-120 47 -120 151q0 72 54 107t135 35q48 0 88.5 -10.5t70.5 -28.5v-104h-12q-35 21 -67.5 30.5t-68.5 9.5q-76 0 -76 -41q0 -17 15.5 -30t45.5 -26l74 -31q57 -22 88.5 -57.5t31.5 -90.5q0 -81 -60 -116
t-146 -35q-54 0 -100.5 11.5t-80.5 29.5v115zM317 -54l-73 -187h-93l46 187h120z" />
    <glyph glyph-name="uni021A" unicode="&#x21a;" horiz-adv-x="585" 
d="M549 577h-188v-577h-138v577h-187v123h513v-123zM356 -54l-73 -187h-93l46 187h120z" />
    <glyph glyph-name="uni021B" unicode="&#x21b;" horiz-adv-x="440" 
d="M259 401v-210q0 -35 20 -52.5t54 -17.5h67v-121h-90q-85 0 -132 42t-47 123v236h-110v101h110v164h128v-164h146v-101h-146zM344 -54l-73 -187h-93l46 187h120z" />
    <glyph glyph-name="gravecomb" unicode="&#x300;" 
d="M-240 752h132l68 -173h-99z" />
    <glyph glyph-name="acutecomb" unicode="&#x301;" 
d="M-240 579l67 173h133l-102 -173h-98z" />
    <glyph glyph-name="uni0302" unicode="&#x302;" 
d="M-135 576l-70 72l-71 -72h-92l120 153h88l120 -153h-95z" />
    <glyph glyph-name="tildecomb" unicode="&#x303;" 
d="M-338.5 694q28.5 37 69.5 37q23 0 40.5 -10t31.5 -21.5t19 -15.5q17 -15 32 -15q32 0 36 52h70q-1 -73 -29.5 -110t-69.5 -37q-23 0 -41 10.5t-32 22t-18 15.5q-17 15 -33 15q-31 0 -35 -53h-70q1 73 29.5 110z" />
    <glyph glyph-name="uni0304" unicode="&#x304;" 
d="M-308 602v91h268v-91h-268z" />
    <glyph glyph-name="uni0306" unicode="&#x306;" 
d="M-348 738h81v-14q0 -34 19 -52t54 -18t53.5 18t18.5 52v14h82v-10q0 -82 -40.5 -121.5t-113.5 -39.5t-113.5 39t-40.5 122v10z" />
    <glyph glyph-name="uni0307" unicode="&#x307;" 
d="M-169.5 710q21.5 20 53.5 20q33 0 54.5 -19.5t21.5 -53.5q0 -33 -21.5 -52.5t-54.5 -19.5q-32 0 -53.5 19.5t-21.5 52.5t21.5 53z" />
    <glyph glyph-name="uni0308" unicode="&#x308;" 
d="M-369.5 702q19.5 19 48.5 19t48.5 -19t19.5 -49t-19.5 -49t-48.5 -19t-48.5 19t-19.5 49t19.5 49zM-155.5 702q19.5 19 48.5 19t48 -19t19 -49t-19 -49t-48 -19t-48.5 19t-19.5 49t19.5 49z" />
    <glyph glyph-name="uni030A" unicode="&#x30a;" 
d="M-223.5 730.5q31.5 26.5 75.5 26.5t76 -26.5t32 -71.5q0 -46 -32 -72.5t-76 -26.5t-75.5 26.5t-31.5 72.5q0 45 31.5 71.5zM-178 627.5q13 -12.5 30 -12.5q18 0 31 12t13 32q0 19 -13 31t-31 12q-17 0 -30 -12t-13 -31t13 -31.5z" />
    <glyph glyph-name="uni030B" unicode="&#x30b;" 
d="M-391 571l67 173h109l-89 -173h-87zM-240 571l88 173h112l-108 -173h-92z" />
    <glyph glyph-name="uni030C" unicode="&#x30c;" 
d="M-40 729l-120 -153h-88l-120 153h96l69 -73l71 73h92z" />
    <glyph glyph-name="uni0312" unicode="&#x312;" 
d="M-206 570l73 188h93l-45 -188h-121z" />
    <glyph glyph-name="uni0326" unicode="&#x326;" 
d="M-40 -54l-73 -187h-93l46 187h120z" />
    <glyph glyph-name="uni0327" unicode="&#x327;" 
d="M-235 -126q28 -8 45 -8q23 0 36.5 12.5t13.5 37.5q0 41 -28 84h85q43 -53 43 -107q0 -51 -35 -78.5t-86 -27.5q-32 0 -74 13v74z" />
    <glyph glyph-name="uni0328" unicode="&#x328;" 
d="M-134 0h85q-41 -22 -62.5 -47.5t-21.5 -50.5q0 -35 39 -35q21 0 54 14v-77q-40 -17 -80 -17q-47 0 -80 21.5t-33 65.5q0 71 99 126z" />
    <glyph glyph-name="uni0335" unicode="&#x335;" 
d="M-403 664h363v-86h-363v86z" />
    <glyph glyph-name="uni0336" unicode="&#x336;" 
d="M-771 618h731v-88h-731v88z" />
    <glyph glyph-name="uni0337" unicode="&#x337;" 
d="M-321 305l281 176v-105l-281 -176v105z" />
    <glyph glyph-name="uni0338" unicode="&#x338;" 
d="M-454 -57l-63 44l414 572l63 -44z" />
    <glyph glyph-name="pi" unicode="&#x3c0;" horiz-adv-x="589" 
d="M562 112v-112h-34q-76 0 -120 42t-44 119v240h-146v-401h-128v401h-69v101h533v-101h-69v-222q0 -32 19 -49.5t46 -17.5h12z" />
    <glyph glyph-name="uni0401" unicode="&#x401;" horiz-adv-x="582" 
d="M538 123v-123h-453v700h438v-123h-300v-153h282v-116h-282v-185h315zM144 881.5q20 18.5 51 18.5q30 0 50.5 -18.5t20.5 -49.5t-20.5 -49.5t-50.5 -18.5q-31 0 -51 18.5t-20 49.5t20 49.5zM367 881.5q20 18.5 51 18.5q30 0 50 -18.5t20 -49.5t-20 -49.5t-50 -18.5
q-31 0 -51 18.5t-20 49.5t20 49.5z" />
    <glyph glyph-name="uni0404" unicode="&#x404;" horiz-adv-x="682" 
d="M641 200v-160q-48 -26 -106.5 -40t-118.5 -14q-106 0 -187.5 43t-127.5 125.5t-46 196.5q0 110 45.5 192.5t126.5 126.5t185 44q57 0 113 -13t101 -38v-150h-14q-36 34 -85.5 52.5t-101.5 18.5q-87 0 -145.5 -45t-75.5 -125h297v-115l-298 -1q14 -83 73 -132.5t147 -49.5
q57 0 111 21.5t92 62.5h15z" />
    <glyph glyph-name="uni0406" unicode="&#x406;" horiz-adv-x="308" 
d="M223 700v-700h-138v700h138z" />
    <glyph glyph-name="uni0407" unicode="&#x407;" horiz-adv-x="308" 
d="M223 700v-700h-138v700h138zM-9 881.5q20 18.5 51 18.5q30 0 50.5 -18.5t20.5 -49.5t-20.5 -49.5t-50.5 -18.5q-31 0 -51 18.5t-20 49.5t20 49.5zM214 881.5q20 18.5 51 18.5q30 0 50 -18.5t20 -49.5t-20 -49.5t-50 -18.5q-31 0 -51 18.5t-20 49.5t20 49.5z" />
    <glyph glyph-name="uni040E" unicode="&#x40e;" horiz-adv-x="673" 
d="M651 700l-227 -545q-36 -88 -92 -121.5t-135 -33.5h-51v128h45q45 0 68 13.5t41 51.5l-271 507h152l185 -372l144 372h141zM513 908v-10q0 -77 -47 -114.5t-129 -37.5q-83 0 -129.5 37.5t-46.5 114.5v10h104v-15q0 -31 18.5 -49t53.5 -18q34 0 52.5 18t18.5 49v15h105z
" />
    <glyph glyph-name="uni0410" unicode="&#x410;" horiz-adv-x="726" 
d="M495 165h-267l-61 -165h-148l280 700h128l280 -700h-151zM455 275l-93 253l-94 -253h187z" />
    <glyph glyph-name="uni0411" unicode="&#x411;" horiz-adv-x="674" 
d="M502 415q58 -25 91.5 -74t33.5 -119t-33.5 -120t-91.5 -76t-129 -26h-288v700h481v-123h-343v-137h150q71 0 129 -25zM449.5 145q34.5 25 34.5 78t-34.5 78.5t-87.5 25.5h-139v-207h139q53 0 87.5 25z" />
    <glyph glyph-name="uni0412" unicode="&#x412;" horiz-adv-x="676" 
d="M592.5 313.5q39.5 -45.5 39.5 -115.5q0 -93 -66.5 -145.5t-189.5 -52.5h-291v700h265q111 0 174 -48.5t63 -131.5q0 -107 -108 -143q74 -18 113.5 -63.5zM415.5 561q-28.5 23 -81.5 23h-111v-174h111q53 0 81.5 22.5t28.5 63.5q0 42 -28.5 65zM455.5 140q33.5 24 33.5 73
q0 95 -129 95h-137v-192h137q62 0 95.5 24z" />
    <glyph glyph-name="uni0413" unicode="&#x413;" horiz-adv-x="552" 
d="M512 577h-289v-577h-138v700h427v-123z" />
    <glyph glyph-name="uni0414" unicode="&#x414;" horiz-adv-x="769" 
d="M738 123v-271h-128v148h-463v-148h-129v271h51q45 45 66.5 149.5t25.5 297.5l2 130h485v-577h90zM211 123h299v454h-221q-8 -196 -29 -314q-17 -83 -49 -140z" />
    <glyph glyph-name="uni0415" unicode="&#x415;" horiz-adv-x="582" 
d="M538 123v-123h-453v700h438v-123h-300v-153h282v-116h-282v-185h315z" />
    <glyph glyph-name="uni0416" unicode="&#x416;" horiz-adv-x="984" 
d="M794 0l-233 323v-323h-138v323l-233 -323h-172l283 377l-266 323h168l220 -286v286h138v-286l220 286h169l-266 -323l282 -377h-172z" />
    <glyph glyph-name="uni0417" unicode="&#x417;" horiz-adv-x="617" 
d="M535.5 317.5q37.5 -46.5 37.5 -118.5q0 -98 -73 -155.5t-223 -57.5q-134 0 -239 53v151h15q75 -79 218 -79q78 0 118.5 26.5t40.5 75.5q0 52 -44.5 77t-115.5 25h-88v111h83q66 0 99.5 22.5t33.5 60.5t-34 59t-94 21q-112 0 -189 -69h-13v143q44 24 102.5 37.5
t118.5 13.5q120 0 186 -49t66 -130q0 -52 -28.5 -90.5t-83.5 -58.5q69 -22 106.5 -68.5z" />
    <glyph glyph-name="uni0418" unicode="&#x418;" horiz-adv-x="774" 
d="M688 700v-700h-137v479l-350 -479h-116v700h137v-479l351 479h115z" />
    <glyph glyph-name="uni0419" unicode="&#x419;" horiz-adv-x="774" 
d="M688 700v-700h-137v479l-350 -479h-116v700h137v-479l351 479h115zM563 908v-10q0 -77 -47 -114.5t-129 -37.5q-83 0 -129.5 37.5t-46.5 114.5v10h104v-15q0 -31 18.5 -49t53.5 -18q34 0 52.5 18t18.5 49v15h105z" />
    <glyph glyph-name="uni041A" unicode="&#x41a;" horiz-adv-x="672" 
d="M491 0l-268 323v-323h-138v700h138v-285l246 285h169l-293 -322l318 -378h-172z" />
    <glyph glyph-name="uni041B" unicode="&#x41b;" horiz-adv-x="737" 
d="M652 700v-700h-138v577h-224l-2 -44q-5 -171 -11 -240q-12 -153 -63 -223t-155 -70h-43v128h18q50 0 75.5 39t36.5 131t15 272l3 130h488z" />
    <glyph glyph-name="uni041C" unicode="&#x41c;" horiz-adv-x="884" 
d="M799 700v-700h-136v444l-195 -264h-51l-196 262v-442h-136v700h105l253 -347l251 347h105z" />
    <glyph glyph-name="uni041D" unicode="&#x41d;" horiz-adv-x="764" 
d="M679 700v-700h-138v311h-318v-311h-138v700h138v-266h318v266h138z" />
    <glyph glyph-name="uni041E" unicode="&#x41e;" horiz-adv-x="846" 
d="M103 541.5q48 82.5 131.5 127.5t188.5 45t188.5 -45t131.5 -127.5t48 -191.5t-48 -191.5t-131.5 -127.5t-188.5 -45t-188.5 45t-131.5 127.5t-48 191.5t48 191.5zM227.5 226.5q29.5 -53.5 80.5 -82t115 -28.5q63 0 114.5 29t81 82t29.5 123t-29.5 123t-81 82t-114.5 29
t-114.5 -29t-81 -82t-29.5 -123t29.5 -123.5z" />
    <glyph glyph-name="uni041F" unicode="&#x41f;" horiz-adv-x="756" 
d="M670 700v-700h-138v577h-309v-577h-138v700h585z" />
    <glyph glyph-name="uni0420" unicode="&#x420;" horiz-adv-x="653" 
d="M544.5 643.5q68.5 -56.5 68.5 -163.5q0 -104 -66.5 -159t-184.5 -55h-139v-266h-138v700h275q116 0 184.5 -56.5zM438.5 404q31.5 25 31.5 76q0 54 -33 77.5t-88 23.5h-126v-202h130q54 0 85.5 25z" />
    <glyph glyph-name="uni0421" unicode="&#x421;" horiz-adv-x="687" 
d="M102.5 542.5q47.5 82.5 131 127t187.5 44.5q120 0 212 -56v-152h-14q-75 78 -190 78q-67 0 -119.5 -29t-82 -82t-29.5 -123q0 -69 29 -122t82 -82.5t122 -29.5q62 0 112.5 23t87.5 67h15v-161q-98 -59 -220 -59q-107 0 -191.5 43t-132 125.5t-47.5 195.5
q0 110 47.5 192.5z" />
    <glyph glyph-name="uni0422" unicode="&#x422;" horiz-adv-x="585" 
d="M549 577h-188v-577h-138v577h-187v123h513v-123z" />
    <glyph glyph-name="uni0423" unicode="&#x423;" horiz-adv-x="673" 
d="M651 700l-227 -545q-36 -88 -92 -121.5t-135 -33.5h-51v128h45q45 0 68 13.5t41 51.5l-271 507h152l185 -372l144 372h141z" />
    <glyph glyph-name="uni0424" unicode="&#x424;" horiz-adv-x="914" 
d="M818 189.5q-41 -72.5 -116.5 -113.5t-175.5 -42v-64h-138v64q-100 1 -175.5 42t-116.5 113.5t-41 164.5q0 93 41 165.5t116.5 113t175.5 41.5v54h138v-54q100 -1 175.5 -41.5t116.5 -113t41 -165.5q0 -92 -41 -164.5zM629.5 188q43.5 26 66 69t22.5 97q0 83 -51 137
t-141 57v-387q60 1 103.5 27zM247 217q51 -54 141 -56v387q-90 -3 -141 -57t-51 -137t51 -137z" />
    <glyph glyph-name="uni0425" unicode="&#x425;" horiz-adv-x="670" 
d="M494 -1l-161 264l-162 -264h-150l232 362l-216 339h155l144 -235l143 235h150l-213 -334l234 -367h-156z" />
    <glyph glyph-name="uni0426" unicode="&#x426;" horiz-adv-x="793" 
d="M763 123v-271h-129v148h-549v700h138v-577h303v577h138v-577h99z" />
    <glyph glyph-name="uni0427" unicode="&#x427;" horiz-adv-x="719" 
d="M634 700v-700h-138v279q-102 -31 -178 -31q-116 0 -187 66t-71 198v188h138v-174q0 -74 40 -112.5t115 -38.5q65 0 143 26v299h138z" />
    <glyph glyph-name="uni0428" unicode="&#x428;" horiz-adv-x="1061" 
d="M976 700v-700h-891v700h138v-577h240v577h135v-577h240v577h138z" />
    <glyph glyph-name="uni0429" unicode="&#x429;" horiz-adv-x="1104" 
d="M1074 123v-271h-129v148h-860v700h138v-577h240v577h135v-577h240v577h138v-577h98z" />
    <glyph glyph-name="uni042A" unicode="&#x42a;" horiz-adv-x="785" 
d="M617.5 432.5q58.5 -26.5 92.5 -78.5t34 -125t-34 -125t-92.5 -78t-132.5 -26h-287v577h-167v123h305v-241h149q74 0 132.5 -26.5zM565 146.5q36 26.5 36 84.5q0 57 -36.5 84t-91.5 27h-137v-222h137q56 0 92 26.5z" />
    <glyph glyph-name="uni042B" unicode="&#x42b;" horiz-adv-x="918" 
d="M484.5 432.5q58.5 -26.5 92.5 -78.5t34 -125t-34 -125t-92.5 -78t-131.5 -26h-268v700h138v-241h130q73 0 131.5 -26.5zM833 700v-700h-138v700h138zM432 146.5q36 26.5 36 84.5q0 57 -36.5 84t-91.5 27h-117v-222h117q56 0 92 26.5z" />
    <glyph glyph-name="uni042C" unicode="&#x42c;" horiz-adv-x="672" 
d="M504.5 432.5q58.5 -26.5 92.5 -78.5t34 -125t-34 -125t-92.5 -78t-131.5 -26h-288v700h138v-241h150q73 0 131.5 -26.5zM452 146.5q36 26.5 36 84.5q0 57 -36.5 84t-91.5 27h-137v-222h137q56 0 92 26.5z" />
    <glyph glyph-name="uni042D" unicode="&#x42d;" horiz-adv-x="682" 
d="M455 670q81 -44 126.5 -126.5t45.5 -192.5q0 -114 -46 -196.5t-127.5 -125.5t-187.5 -43q-60 0 -118.5 14t-106.5 40v160h15q38 -41 92 -62.5t111 -21.5q88 0 147 49.5t74 132.5l-299 1v115h297q-17 80 -75.5 125t-145.5 45q-52 0 -101.5 -18.5t-85.5 -52.5h-14v150
q45 25 101 38t113 13q104 0 185 -44z" />
    <glyph glyph-name="uni042E" unicode="&#x42e;" horiz-adv-x="1078" 
d="M851 670q80 -44 126 -126.5t46 -193.5t-46 -193.5t-126 -126.5t-180 -44q-93 0 -169 38t-123.5 109.5t-57.5 169.5h-98v-303h-138v700h138v-274h102q15 89 63 154t121.5 99.5t161.5 34.5q100 0 180 -44zM775.5 143.5q48.5 27.5 76.5 80.5t28 126q0 72 -27.5 125t-75.5 81
t-107 28t-107 -28t-75.5 -81t-27.5 -125q0 -71 27 -124t74 -81.5t105 -28.5q61 0 109.5 27.5z" />
    <glyph glyph-name="uni042F" unicode="&#x42f;" horiz-adv-x="684" 
d="M599 700v-700h-138v262h-74l-193 -262h-156l210 274q-86 15 -135 73.5t-49 138.5q0 60 28 108.5t84 77t135 28.5h288zM461 378v203h-136q-55 0 -86.5 -28t-31.5 -75q0 -45 30.5 -72.5t83.5 -27.5h140z" />
    <glyph glyph-name="uni0430" unicode="&#x430;" horiz-adv-x="557" 
d="M430.5 467q61.5 -49 61.5 -157v-310h-110v53q-25 -31 -65.5 -49t-90.5 -18q-56 0 -99 21t-67 58t-24 83q0 47 24.5 83.5t69 57t103.5 20.5q81 0 131 -38v29q0 55 -32 80.5t-87 25.5q-71 0 -141 -40h-13v115q42 17 89.5 26t90.5 9q98 0 159.5 -49zM346.5 107.5
q27.5 19.5 27.5 47.5t-27.5 47t-77.5 19t-77.5 -19t-27.5 -47t27.5 -47.5t77.5 -19.5t77.5 19.5z" />
    <glyph glyph-name="uni0431" unicode="&#x431;" horiz-adv-x="621" 
d="M467 468.5q53 -30.5 82 -87t29 -133.5q0 -80 -32.5 -139t-91 -91t-134.5 -32q-119 0 -194.5 82t-75.5 260q0 89 22 176t81.5 153t163.5 77l108 10q50 5 101 15v-118q-35 -8 -83 -11q-20 -2 -31 -2q-54 -4 -79 -8q-75 -11 -114 -60t-52 -152q29 43 73.5 67t103.5 24
q70 0 123 -30.5zM409.5 141q38.5 39 38.5 106q0 68 -38.5 106.5t-94.5 38.5t-94 -38.5t-38 -106.5q0 -67 38 -106t94 -39t94.5 39z" />
    <glyph glyph-name="uni0432" unicode="&#x432;" horiz-adv-x="570" 
d="M497.5 222.5q24.5 -31.5 24.5 -75.5q0 -66 -51 -106.5t-134 -40.5h-262v502h233q82 0 132.5 -36.5t50.5 -98.5q0 -67 -62 -99q44 -14 68.5 -45.5zM344 391q-17 15 -52 15h-89v-106h89q35 0 52 15t17 38t-17 38zM373 113q20 17 20 43t-20 43t-55 17h-115v-120h115
q35 0 55 17z" />
    <glyph glyph-name="uni0433" unicode="&#x433;" horiz-adv-x="456" 
d="M429 401h-226v-401h-128v502h354v-101z" />
    <glyph glyph-name="uni0434" unicode="&#x434;" horiz-adv-x="637" 
d="M605 101v-241h-125v140h-335v-140h-125v241h58q49 91 53 270l3 131h384v-401h87zM198 101h192v300h-146l-1 -52q-4 -152 -45 -248z" />
    <glyph glyph-name="uni0435" unicode="&#x435;" horiz-adv-x="584" 
d="M539 227h-369q8 -69 51 -100.5t105 -31.5q88 0 172 57h12v-121q-47 -24 -96.5 -34.5t-93.5 -10.5q-77 0 -139.5 29.5t-99.5 89.5t-37 146t36 146t96 89.5t132 29.5q103 0 168.5 -59.5t66.5 -175.5q0 -18 -4 -54zM221.5 390.5q-35.5 -27.5 -47.5 -79.5h245q-5 53 -34.5 80
t-78.5 27t-84.5 -27.5z" />
    <glyph glyph-name="uni0436" unicode="&#x436;" horiz-adv-x="807" 
d="M633 0l-166 240v-240h-128v240l-165 -240h-157l206 273l-197 229h154l159 -204v204h128v-204l160 204h154l-197 -229l206 -273h-157z" />
    <glyph glyph-name="uni0437" unicode="&#x437;" horiz-adv-x="522" 
d="M447 219.5q28 -32.5 28 -78.5q0 -71 -63 -113t-171 -42q-111 0 -186 35v128h12q63 -56 167 -56q52 0 81.5 15.5t29.5 45.5q0 29 -30.5 44.5t-85.5 15.5h-70v93h73q46 0 69.5 14.5t23.5 36.5q0 24 -25.5 37.5t-71.5 13.5q-85 0 -147 -49h-11v124q85 32 173 32
q95 0 153.5 -37t58.5 -99q0 -38 -23 -67t-63 -45q50 -16 78 -48.5z" />
    <glyph glyph-name="uni0438" unicode="&#x438;" horiz-adv-x="608" 
d="M533 502v-502h-127v305l-231 -305h-100v502h127v-305l231 305h100z" />
    <glyph glyph-name="uni0439" unicode="&#x439;" horiz-adv-x="608" 
d="M533 502v-502h-127v305l-231 -305h-100v502h127v-305l231 305h100zM470 736v-17q0 -80 -44 -117.5t-122 -37.5q-77 0 -121 37.5t-44 117.5v17h99v-22q0 -35 17.5 -53.5t48.5 -18.5t49 18.5t18 53.5v22h99z" />
    <glyph glyph-name="uni043A" unicode="&#x43a;" horiz-adv-x="555" 
d="M386 0l-183 240v-240h-128v502h128v-203l166 203h155l-199 -227l220 -275h-159z" />
    <glyph glyph-name="uni043B" unicode="&#x43b;" horiz-adv-x="596" 
d="M521 502v-502h-127v401h-144l-1 -55q-4 -144 -30 -219.5t-65 -101t-95 -25.5h-36v113h14q44 0 68 56t28 199l2 134h386z" />
    <glyph glyph-name="uni043C" unicode="&#x43c;" horiz-adv-x="684" 
d="M609 502v-502h-124v297l-124 -157h-37l-124 154v-294h-125v502h94l174 -222l172 222h94z" />
    <glyph glyph-name="uni043D" unicode="&#x43d;" horiz-adv-x="599" 
d="M524 502v-502h-127v213h-194v-213h-128v502h128v-188h194v188h127z" />
    <glyph glyph-name="uni043E" unicode="&#x43e;" horiz-adv-x="628" 
d="M79 391q35 60 96.5 92.5t138.5 32.5t138.5 -32.5t97 -92.5t35.5 -140t-35.5 -140t-97 -92.5t-138.5 -32.5t-138.5 32.5t-96.5 92.5t-35 140t35 140zM213.5 142.5q40.5 -40.5 100.5 -40.5q61 0 101 40t40 109t-40 109t-101 40q-60 0 -100.5 -40t-40.5 -109
q0 -68 40.5 -108.5z" />
    <glyph glyph-name="uni043F" unicode="&#x43f;" horiz-adv-x="594" 
d="M519 502v-502h-127v401h-189v-401h-128v502h444z" />
    <glyph glyph-name="uni0440" unicode="&#x440;" horiz-adv-x="634" 
d="M469.5 485.5q53.5 -30.5 87 -90.5t33.5 -144t-33.5 -144t-87 -90.5t-113.5 -30.5q-45 0 -84.5 17.5t-68.5 50.5v-248h-128v696h109v-77q31 44 75.5 67.5t96.5 23.5q60 0 113.5 -30.5zM420 140.5q40 37.5 40 110.5t-40 110.5t-94 37.5t-94 -37.5t-40 -110.5t40 -110.5
t94 -37.5t94 37.5z" />
    <glyph glyph-name="uni0441" unicode="&#x441;" horiz-adv-x="520" 
d="M79.5 393q35.5 60 96.5 91.5t138 31.5q76 0 143 -36v-126h-11q-65 46 -126 46q-63 0 -105 -40t-42 -109t42.5 -109t108.5 -40q72 0 129 49h12v-129q-67 -36 -147 -36q-78 0 -140.5 31t-98 91t-35.5 143q0 82 35.5 142z" />
    <glyph glyph-name="uni0442" unicode="&#x442;" horiz-adv-x="472" 
d="M451 401h-151v-401h-128v401h-152v101h431v-101z" />
    <glyph glyph-name="uni0443" unicode="&#x443;" horiz-adv-x="557" 
d="M533 502l-292 -696h-139l116 273l-196 423h139l124 -291l113 291h135z" />
    <glyph glyph-name="uni0444" unicode="&#x444;" horiz-adv-x="761" 
d="M682.5 109.5q-35.5 -59.5 -97.5 -91t-141 -32.5v-180h-127v180q-79 1 -140.5 32.5t-97 91t-35.5 141.5t35.5 141.5t97 91t140.5 32.5v236h127v-236q79 -1 141 -32.5t97.5 -91t35.5 -141.5t-35.5 -141.5zM212 144q39 -39 105 -41v296q-66 -2 -105 -41t-39 -107t39 -107z
M549 144q39 39 39 107t-39 107t-105 41v-296q66 2 105 41z" />
    <glyph glyph-name="uni0445" unicode="&#x445;" horiz-adv-x="547" 
d="M378 0l-107 168l-108 -168h-138l175 258l-166 244h142l97 -152l95 152h139l-163 -241l176 -261h-142z" />
    <glyph glyph-name="uni0446" unicode="&#x446;" horiz-adv-x="634" 
d="M602 101v-241h-124v140h-403v502h128v-401h185v401h127v-401h87z" />
    <glyph glyph-name="uni0447" unicode="&#x447;" horiz-adv-x="560" 
d="M485 502v-502h-128v188q-63 -19 -117 -19q-85 0 -136.5 47t-51.5 134v152h128v-130q0 -43 24 -65t69 -22q36 0 84 15v202h128z" />
    <glyph glyph-name="uni0448" unicode="&#x448;" horiz-adv-x="850" 
d="M776 502v-502h-701v502h128v-401h158v401h128v-401h159v401h128z" />
    <glyph glyph-name="uni0449" unicode="&#x449;" horiz-adv-x="894" 
d="M863 101v-241h-125v140h-663v502h128v-401h158v401h128v-401h159v401h128v-401h87z" />
    <glyph glyph-name="uni044A" unicode="&#x44a;" horiz-adv-x="622" 
d="M526.5 292q52.5 -43 52.5 -123t-53 -124.5t-142 -44.5h-237v401h-127v101h255v-167h109q90 0 142.5 -43zM428.5 118q20.5 18 20.5 51q0 32 -21 50t-61 18h-92v-137h92q41 0 61.5 18z" />
    <glyph glyph-name="uni044B" unicode="&#x44b;" horiz-adv-x="757" 
d="M434.5 291.5q52.5 -43.5 52.5 -122.5q0 -80 -52.5 -124.5t-141.5 -44.5h-218v502h128v-167h90q89 0 141.5 -43.5zM682 502v-502h-127v502h127zM337 118q21 18 21 51q0 32 -21 50t-62 18h-72v-137h72q41 0 62 18z" />
    <glyph glyph-name="uni044C" unicode="&#x44c;" horiz-adv-x="549" 
d="M454 291.5q53 -43.5 53 -122.5q0 -80 -53 -124.5t-142 -44.5h-237v502h128v-167h109q89 0 142 -43.5zM356 118q21 18 21 51q0 32 -21 50t-61 18h-92v-137h92q40 0 61 18z" />
    <glyph glyph-name="uni044D" unicode="&#x44d;" horiz-adv-x="517" 
d="M344 485q60 -31 94.5 -90.5t34.5 -143.5q0 -85 -35.5 -144.5t-97 -90t-139.5 -30.5q-82 0 -146 33v123h12q56 -45 129 -45q56 0 95 29t50 83h-183v95h181q-13 49 -49.5 75t-87.5 26q-64 0 -126 -41h-11v119q65 33 143 33q76 0 136 -31z" />
    <glyph glyph-name="uni044E" unicode="&#x44e;" horiz-adv-x="843" 
d="M672.5 484q59.5 -32 93.5 -92t34 -141t-34 -141t-93.5 -92t-133.5 -32q-102 0 -173 59t-85 162h-78v-207h-128v502h128v-194h80q17 97 87 152.5t169 55.5q74 0 133.5 -32zM632 141.5q38 39.5 38 109.5t-38 109.5t-94 39.5q-57 0 -95.5 -39.5t-38.5 -109.5t38.5 -109.5
t95.5 -39.5q56 0 94 39.5z" />
    <glyph glyph-name="uni044F" unicode="&#x44f;" horiz-adv-x="562" 
d="M487 502v-502h-128v176h-63l-120 -176h-147l140 188q-52 16 -82 53.5t-30 92.5q0 79 54 123.5t141 44.5h235zM359 266v136h-86q-38 0 -62 -18t-24 -50q0 -31 24 -49.5t62 -18.5h86z" />
    <glyph glyph-name="uni0451" unicode="&#x451;" horiz-adv-x="584" 
d="M539 227h-369q8 -69 51 -100.5t105 -31.5q88 0 172 57h12v-121q-47 -24 -96.5 -34.5t-93.5 -10.5q-77 0 -139.5 29.5t-99.5 89.5t-37 146t36 146t96 89.5t132 29.5q103 0 168.5 -59.5t66.5 -175.5q0 -18 -4 -54zM221.5 390.5q-35.5 -27.5 -47.5 -79.5h245q-5 53 -34.5 80
t-78.5 27t-84.5 -27.5zM139.5 702q19.5 19 48.5 19t48.5 -19t19.5 -49t-19.5 -49t-48.5 -19t-48.5 19t-19.5 49t19.5 49zM353.5 702q19.5 19 48.5 19t48 -19t19 -49t-19 -49t-48 -19t-48.5 19t-19.5 49t19.5 49z" />
    <glyph glyph-name="uni0454" unicode="&#x454;" horiz-adv-x="517" 
d="M462 142v-123q-64 -33 -146 -33q-78 0 -139.5 30.5t-97 90t-35.5 144.5q0 84 34.5 143.5t94.5 90.5t136 31q78 0 143 -33v-119h-11q-62 41 -126 41q-51 0 -87.5 -26t-49.5 -75h181v-95h-183q11 -54 50 -83t95 -29q73 0 129 45h12z" />
    <glyph glyph-name="uni0456" unicode="&#x456;" horiz-adv-x="278" 
d="M81 719q23 21 58 21q34 0 57 -21t23 -57t-23 -57t-57 -21q-35 0 -58 21t-23 57t23 57zM203 502v-502h-128v502h128z" />
    <glyph glyph-name="uni0457" unicode="&#x457;" horiz-adv-x="278" 
d="M-3.5 702q19.5 19 48.5 19t48 -19t19 -49t-19 -49t-48 -19t-48.5 19t-19.5 49t19.5 49zM184.5 702q19.5 19 48.5 19t48.5 -19t19.5 -49t-19.5 -49t-48.5 -19t-48.5 19t-19.5 49t19.5 49zM203 502v-502h-128v502h128z" />
    <glyph glyph-name="uni045E" unicode="&#x45e;" horiz-adv-x="557" 
d="M533 502l-292 -696h-139l116 273l-196 423h139l124 -291l113 291h135zM444 736v-17q0 -80 -44 -117.5t-122 -37.5q-77 0 -121 37.5t-44 117.5v17h99v-22q0 -35 17.5 -53.5t48.5 -18.5t49 18.5t18 53.5v22h99z" />
    <glyph glyph-name="uni0490" unicode="&#x490;" horiz-adv-x="552" 
d="M512 577h-289v-577h-138v700h299v130h128v-253z" />
    <glyph glyph-name="uni0491" unicode="&#x491;" horiz-adv-x="456" 
d="M429 401h-226v-401h-128v502h229v132h125v-233z" />
    <glyph glyph-name="uni04C1" unicode="&#x4c1;" horiz-adv-x="984" 
d="M794 0l-233 323v-323h-138v323l-233 -323h-172l283 377l-266 323h168l220 -286v286h138v-286l220 286h169l-266 -323l282 -377h-172zM668 908v-10q0 -77 -47 -114.5t-129 -37.5q-83 0 -129.5 37.5t-46.5 114.5v10h104v-15q0 -31 18.5 -49t53.5 -18q34 0 52.5 18t18.5 49
v15h105z" />
    <glyph glyph-name="uni04C2" unicode="&#x4c2;" horiz-adv-x="807" 
d="M633 0l-166 240v-240h-128v240l-165 -240h-157l206 273l-197 229h154l159 -204v204h128v-204l160 204h154l-197 -229l206 -273h-157zM569 736v-17q0 -80 -44 -117.5t-122 -37.5q-77 0 -121 37.5t-44 117.5v17h99v-22q0 -35 17.5 -53.5t48.5 -18.5t49 18.5t18 53.5v22h99z
" />
    <glyph glyph-name="Wgrave" unicode="&#x1e80;" horiz-adv-x="1046" 
d="M1020 700l-235 -700h-130l-133 455l-131 -455h-129l-235 700h153l147 -480l143 480h108l143 -483l149 483h150zM364 910h137l80 -152h-106z" />
    <glyph glyph-name="wgrave" unicode="&#x1e81;" horiz-adv-x="867" 
d="M841 502l-195 -502h-109l-105 307l-104 -307h-109l-193 502h140l107 -321l113 321h95l113 -322l109 322h138zM300 752h132l68 -173h-99z" />
    <glyph glyph-name="Wacute" unicode="&#x1e82;" horiz-adv-x="1046" 
d="M1020 700l-235 -700h-130l-133 455l-131 -455h-129l-235 700h153l147 -480l143 480h108l143 -483l149 483h150zM466 758l79 152h138l-112 -152h-105z" />
    <glyph glyph-name="wacute" unicode="&#x1e83;" horiz-adv-x="867" 
d="M841 502l-195 -502h-109l-105 307l-104 -307h-109l-193 502h140l107 -321l113 321h95l113 -322l109 322h138zM368 579l67 173h133l-102 -173h-98z" />
    <glyph glyph-name="Wdieresis" unicode="&#x1e84;" horiz-adv-x="1046" 
d="M1020 700l-235 -700h-130l-133 455l-131 -455h-129l-235 700h153l147 -480l143 480h108l143 -483l149 483h150zM361 881.5q20 18.5 51 18.5q30 0 50.5 -18.5t20.5 -49.5t-20.5 -49.5t-50.5 -18.5q-31 0 -51 18.5t-20 49.5t20 49.5zM584 881.5q20 18.5 51 18.5
q30 0 50 -18.5t20 -49.5t-20 -49.5t-50 -18.5q-31 0 -51 18.5t-20 49.5t20 49.5z" />
    <glyph glyph-name="wdieresis" unicode="&#x1e85;" horiz-adv-x="867" 
d="M841 502l-195 -502h-109l-105 307l-104 -307h-109l-193 502h140l107 -321l113 321h95l113 -322l109 322h138zM278.5 702q19.5 19 48.5 19t48.5 -19t19.5 -49t-19.5 -49t-48.5 -19t-48.5 19t-19.5 49t19.5 49zM492.5 702q19.5 19 48.5 19t48 -19t19 -49t-19 -49t-48 -19
t-48.5 19t-19.5 49t19.5 49z" />
    <glyph glyph-name="uni1E9E" unicode="&#x1e9e;" horiz-adv-x="672" 
d="M583 344q51 -52 51 -136q0 -96 -67.5 -152t-189.5 -56h-69v119h53q62 0 96 25t34 74q0 48 -34 73t-96 25h-59v79l128 182l-121 1q-41 0 -66 -22.5t-25 -65.5v-490h-138v508q0 91 58 141.5t152 50.5h301v-85l-152 -206q93 -13 144 -65z" />
    <glyph glyph-name="Ygrave" unicode="&#x1ef2;" horiz-adv-x="693" 
d="M415 295v-295h-138v295l-259 405h158l171 -279l173 279h155zM207 910h137l80 -152h-106z" />
    <glyph glyph-name="ygrave" unicode="&#x1ef3;" horiz-adv-x="557" 
d="M533 502l-292 -696h-139l116 273l-196 423h139l124 -291l113 291h135zM145 752h132l68 -173h-99z" />
    <glyph glyph-name="endash" unicode="&#x2013;" horiz-adv-x="589" 
d="M513 343v-107h-437v107h437z" />
    <glyph glyph-name="emdash" unicode="&#x2014;" horiz-adv-x="760" 
d="M684 343v-107h-608v107h608z" />
    <glyph glyph-name="quoteleft" unicode="&#x2018;" horiz-adv-x="235" 
d="M26 395l80 305h99l-46 -305h-133z" />
    <glyph glyph-name="quoteright" unicode="&#x2019;" horiz-adv-x="235" 
d="M209 700l-80 -304h-99l46 304h133z" />
    <glyph glyph-name="quotesinglbase" unicode="&#x201a;" horiz-adv-x="283" 
d="M223 141l-80 -304h-99l46 304h133z" />
    <glyph glyph-name="quotedblleft" unicode="&#x201c;" horiz-adv-x="437" 
d="M26 396l80 304h99l-46 -304h-133zM228 396l80 304h99l-46 -304h-133z" />
    <glyph glyph-name="quotedblright" unicode="&#x201d;" horiz-adv-x="437" 
d="M209 700l-80 -304h-99l46 304h133zM411 700l-80 -304h-99l46 304h133z" />
    <glyph glyph-name="quotedblbase" unicode="&#x201e;" horiz-adv-x="485" 
d="M223 141l-80 -304h-99l46 304h133zM425 141l-80 -304h-99l46 304h133z" />
    <glyph glyph-name="dagger" unicode="&#x2020;" horiz-adv-x="449" 
d="M407 413h-133v-498h-99v498h-133v93h133v194h99v-194h133v-93z" />
    <glyph glyph-name="daggerdbl" unicode="&#x2021;" horiz-adv-x="449" 
d="M274 413v-201h133v-93h-133v-204h-99v204h-133v93h133v201h-133v93h133v194h99v-194h133v-93h-133z" />
    <glyph glyph-name="bullet" unicode="&#x2022;" horiz-adv-x="415" 
d="M123 396q35 33 84 33q50 0 85 -33t35 -87t-35 -87t-85 -33q-49 0 -84 33t-35 87t35 87z" />
    <glyph glyph-name="ellipsis" unicode="&#x2026;" horiz-adv-x="802" 
d="M92.5 131q24.5 23 59.5 23t59.5 -23t24.5 -61t-24.5 -61t-59.5 -23t-59.5 23t-24.5 61t24.5 61zM341.5 131q24.5 23 59.5 23t59.5 -23t24.5 -61t-24.5 -61t-59.5 -23t-59.5 23t-24.5 61t24.5 61zM590.5 131q24.5 23 59.5 23t59.5 -23t24.5 -61t-24.5 -61t-59.5 -23
t-59.5 23t-24.5 61t24.5 61z" />
    <glyph glyph-name="perthousand" unicode="&#x2030;" horiz-adv-x="1341" 
d="M125.5 370.5q-42.5 22.5 -68 64t-25.5 96.5q0 54 25.5 96t68 64.5t93.5 22.5q50 0 92.5 -22.5t68 -64.5t25.5 -96q0 -55 -25 -96.5t-68 -64t-93 -22.5q-51 0 -93.5 22.5zM720 700l-417 -700h-101l417 700h101zM283 464q27 25 27 67t-27 67t-64 25q-38 0 -65 -25t-27 -67
t27 -67t65 -25q37 0 64 25zM609.5 8.5q-42.5 22.5 -68 64.5t-25.5 96q0 55 25.5 96.5t68 64t93.5 22.5t93.5 -22.5t68 -64t25.5 -96.5q0 -54 -25.5 -96t-68 -64.5t-93.5 -22.5t-93.5 22.5zM1034.5 8.5q-42.5 22.5 -68 64.5t-25.5 96q0 55 25.5 96.5t68 64t93.5 22.5
t93.5 -22.5t68 -64t25.5 -96.5q0 -54 -25.5 -96t-68 -64.5t-93.5 -22.5t-93.5 22.5zM767 102q27 25 27 67t-27 67t-64 25t-64 -25t-27 -67t27 -67t64 -25t64 25zM1192 102q27 25 27 67t-27 67t-64 25t-64 -25t-27 -67t27 -67t64 -25t64 25z" />
    <glyph glyph-name="guilsinglleft" unicode="&#x2039;" horiz-adv-x="288" 
d="M139 273l117 -186h-118l-114 186l114 185h118z" />
    <glyph glyph-name="guilsinglright" unicode="&#x203a;" horiz-adv-x="288" 
d="M264 273l-114 -186h-118l117 186l-117 185h118z" />
    <glyph glyph-name="fraction" unicode="&#x2044;" horiz-adv-x="256" 
d="M438 700l-506 -700h-114l507 700h113z" />
    <glyph glyph-name="uni2070" unicode="&#x2070;" horiz-adv-x="392" 
d="M60 704.5q21 44.5 57 67t79 22.5t78.5 -22.5t56.5 -67t21 -107.5t-21 -107.5t-56.5 -67t-78.5 -22.5t-79 22.5t-57 67t-21 107.5t21 107.5zM151.5 515q17.5 -30 44.5 -30t44 30t17 82t-17 82t-44 30t-44.5 -30t-17.5 -82t17.5 -82z" />
    <glyph glyph-name="uni2074" unicode="&#x2074;" horiz-adv-x="345" 
d="M319 481h-43v-73h-92v73h-164v66l169 239h87v-227h43v-78zM187 559v113l-78 -113h78z" />
    <glyph glyph-name="uni2075" unicode="&#x2075;" horiz-adv-x="334" 
d="M263 622.5q34 -34.5 34 -91.5q0 -61 -39 -96t-106 -35q-63 0 -117 31v95h10q40 -44 94 -44q28 0 46.5 13t18.5 39t-17.5 38.5t-46.5 12.5q-31 0 -58 -15l-39 12l30 204h203v-79h-138l-9 -56q20 6 44 6q56 0 90 -34.5z" />
    <glyph glyph-name="uni2076" unicode="&#x2076;" horiz-adv-x="371" 
d="M298 628q36 -31 36 -93q0 -64 -39 -99.5t-98 -35.5q-65 0 -111.5 42.5t-46.5 140.5q0 103 47 157t125 54q50 0 93 -20v-88h-9q-35 26 -76 26q-36 0 -58.5 -19.5t-30.5 -64.5q30 31 81 31t87 -31zM226.5 496q15.5 14 15.5 40q0 25 -15.5 39t-37.5 14t-37 -14t-15 -39
q0 -26 15 -40t37 -14t37.5 14z" />
    <glyph glyph-name="uni2077" unicode="&#x2077;" horiz-adv-x="319" 
d="M290 786v-53l-158 -325h-97l144 296h-152v82h263z" />
    <glyph glyph-name="uni2078" unicode="&#x2078;" horiz-adv-x="365" 
d="M317.5 574q16.5 -25 16.5 -58q0 -53 -41 -84.5t-111 -31.5t-111 31.5t-41 84.5q0 33 17 58t48 38q-47 26 -47 79q0 45 37 74t97 29q61 0 98 -29t37 -74q0 -53 -48 -79q32 -13 48.5 -38zM150 708.5q-13 -11.5 -13 -29.5q0 -19 13 -30t32 -11t32 11t13 30q0 18 -13 29.5
t-32 11.5t-32 -11.5zM227 488q18 14 18 36q0 21 -18 35t-45 14t-44.5 -14t-17.5 -35q0 -22 17.5 -36t44.5 -14t45 14z" />
    <glyph glyph-name="uni2079" unicode="&#x2079;" horiz-adv-x="371" 
d="M284.5 751.5q46.5 -42.5 46.5 -140.5q0 -104 -47 -157.5t-124 -53.5q-49 0 -94 20v88h10q33 -26 76 -26q36 0 58.5 20t30.5 66q-30 -31 -82 -31q-51 0 -87 30.5t-36 92.5q0 64 38.5 99t98.5 35q65 0 111.5 -42.5zM218.5 621q15.5 13 15.5 38t-15.5 39t-36.5 14
q-22 0 -37.5 -14t-15.5 -39t15.5 -38t37.5 -13q21 0 36.5 13z" />
    <glyph glyph-name="uni2080" unicode="&#x2080;" horiz-adv-x="392" 
d="M60 130.5q21 44.5 57 67t79 22.5t78.5 -22.5t56.5 -67t21 -107.5t-21 -107.5t-56.5 -67t-78.5 -22.5t-79 22.5t-57 67t-21 107.5t21 107.5zM151.5 -59q17.5 -30 44.5 -30t44 30t17 82t-17 82t-44 30t-44.5 -30t-17.5 -82t17.5 -82z" />
    <glyph glyph-name="uni2081" unicode="&#x2081;" horiz-adv-x="258" 
d="M193 212v-378h-90v258q-31 -17 -74 -17v83q35 0 61 14t30 40h73z" />
    <glyph glyph-name="uni2082" unicode="&#x2082;" horiz-adv-x="320" 
d="M286 -85v-81h-261v56l132 142q28 33 28 61q0 20 -13.5 31t-35.5 11q-28 0 -48 -14.5t-36 -35.5h-9v100q49 35 109 35q55 0 91 -29.5t36 -83.5q0 -34 -15.5 -64t-43.5 -60l-64 -68h130z" />
    <glyph glyph-name="uni2083" unicode="&#x2083;" horiz-adv-x="308" 
d="M259.5 -1.5q17.5 -24.5 17.5 -59.5q0 -51 -38 -82t-106 -31q-65 0 -111 31v94h11q33 -48 93 -48q30 0 45.5 13t15.5 32q0 21 -19.5 32.5t-56.5 11.5h-25v73h24q64 0 64 40q0 38 -52 38q-45 0 -77 -29h-9v81q41 25 97 25q62 0 96 -28.5t34 -74.5q0 -59 -55 -81
q34 -13 51.5 -37.5z" />
    <glyph glyph-name="uni2084" unicode="&#x2084;" horiz-adv-x="345" 
d="M319 -93h-43v-73h-92v73h-164v66l169 239h87v-227h43v-78zM187 -15v114l-79 -114h79z" />
    <glyph glyph-name="uni2085" unicode="&#x2085;" horiz-adv-x="334" 
d="M263 48.5q34 -34.5 34 -91.5q0 -61 -39 -96t-106 -35q-63 0 -117 31v95h10q40 -44 94 -44q28 0 46.5 13t18.5 39t-17.5 38.5t-46.5 12.5q-31 0 -58 -15l-39 12l30 204h203v-79h-138l-9 -56q20 6 44 6q56 0 90 -34.5z" />
    <glyph glyph-name="uni2086" unicode="&#x2086;" horiz-adv-x="371" 
d="M298 54q36 -31 36 -93q0 -64 -39 -99.5t-98 -35.5q-65 0 -111.5 42.5t-46.5 140.5q0 103 47 157t125 54q50 0 93 -20v-88h-9q-35 26 -76 26q-36 0 -58.5 -19.5t-30.5 -63.5q30 30 81 30t87 -31zM226.5 -78q15.5 14 15.5 40q0 25 -15.5 39t-37.5 14t-37 -14t-15 -39
q0 -26 15 -40t37 -14t37.5 14z" />
    <glyph glyph-name="uni2087" unicode="&#x2087;" horiz-adv-x="319" 
d="M290 212v-53l-158 -325h-97l144 296h-152v82h263z" />
    <glyph glyph-name="uni2088" unicode="&#x2088;" horiz-adv-x="365" 
d="M334 -58q0 -53 -41 -84.5t-111 -31.5t-111 31.5t-41 84.5q0 33 16.5 57.5t48.5 38.5q-47 26 -47 79q0 45 37 74t97 29q61 0 98 -29t37 -74q0 -53 -48 -79q65 -29 65 -96zM150 134.5q-13 -11.5 -13 -29.5q0 -19 13 -30t32 -11t32 11t13 30q0 18 -13 29.5t-32 11.5
t-32 -11.5zM227 -86q18 14 18 36q0 21 -18 35t-45 14t-44.5 -14t-17.5 -35q0 -22 17.5 -36t44.5 -14t45 14z" />
    <glyph glyph-name="uni2089" unicode="&#x2089;" horiz-adv-x="371" 
d="M284.5 177.5q46.5 -42.5 46.5 -140.5q0 -104 -47 -157.5t-124 -53.5q-49 0 -94 20v88h10q33 -26 76 -26q36 0 59 20t31 66q-30 -31 -83 -31q-51 0 -87 30.5t-36 92.5q0 64 38.5 99t98.5 35q65 0 111.5 -42.5zM218.5 47q15.5 13 15.5 38t-15.5 39t-36.5 14
q-22 0 -37.5 -14t-15.5 -39t15.5 -38t37.5 -13q21 0 36.5 13z" />
    <glyph glyph-name="Euro" unicode="&#x20ac;" horiz-adv-x="696" 
d="M654 195v-151q-93 -58 -204 -58q-126 0 -216 66t-119 186h-82v80h71v25q0 21 1 31h-72v80h85q30 115 118.5 180.5t208.5 65.5q111 0 197 -56v-142h-13q-68 76 -174 76q-65 0 -116 -32.5t-77 -91.5h242v-80h-262q-2 -20 -2 -31q0 -17 1 -25h263v-80h-245
q25 -61 76.5 -95.5t120.5 -34.5q55 0 102.5 22.5t82.5 64.5h13z" />
    <glyph glyph-name="uni20B4" unicode="&#x20b4;" horiz-adv-x="579" 
d="M360 341l-20 -15h194v-69h-288q-41 -36 -41 -79q0 -36 29 -56t88 -20q48 0 90.5 15.5t84.5 48.5h13v-135q-87 -45 -198 -45q-103 0 -172 39.5t-69 129.5q0 56 32 102h-58v69h129l37 27l38 28h-204v70h295q33 31 33 68q0 65 -94 65q-80 0 -150 -48h-11v129q89 35 173 35
q88 0 152 -33t64 -123q0 -53 -26 -93h53v-70h-119q-37 -28 -55 -40z" />
    <glyph glyph-name="uni20BD" unicode="&#x20bd;" horiz-adv-x="635" 
d="M246 287v-72h210v-89h-210v-126h-131v126h-86v89h86v72h-86v101h86v298h227q119 0 186.5 -49t67.5 -155q0 -103 -64.5 -149t-191.5 -46h-94zM246 388h94q120 0 120 92q0 51 -33.5 71t-90.5 20h-90v-183z" />
    <glyph glyph-name="uni2116" unicode="&#x2116;" horiz-adv-x="1233" 
d="M872.5 333.5q-46.5 23.5 -74.5 69t-28 109.5t28 109.5t74.5 69t101.5 23.5q54 0 101 -23.5t75 -69.5t28 -109t-28 -109t-75 -69.5t-101 -23.5q-55 0 -101.5 23.5zM555 700h137v-700h-113l-358 457v-457h-136v700h112l358 -457v457zM909.5 581.5q-26.5 -25.5 -26.5 -69.5
t26.5 -69.5t64.5 -25.5q37 0 64 25.5t27 69.5t-26.5 69.5t-64.5 25.5t-64.5 -25.5zM800 262h347v-95h-347v95z" />
    <glyph glyph-name="trademark" unicode="&#x2122;" horiz-adv-x="671" 
d="M15 700h237v-72h-77v-236h-82v236h-78v72zM637 700v-308h-80v166l-73 -96h-24l-74 96v-166h-80v308h66l100 -135l100 135h65z" />
    <glyph glyph-name="oneeighth" unicode="&#x215b;" horiz-adv-x="861" 
d="M193 700v-378h-90v258q-31 -17 -74 -17v83q35 0 61 14t30 40h73zM696 700l-506 -700h-114l507 700h113zM813.5 166q16.5 -25 16.5 -58q0 -53 -41 -84.5t-111 -31.5t-111 31.5t-41 84.5q0 33 17 58t48 38q-47 26 -47 79q0 45 37 74t97 29q61 0 98 -29t37 -74
q0 -53 -48 -79q32 -13 48.5 -38zM646 300.5q-13 -11.5 -13 -29.5q0 -19 13 -30t32 -11t32 11t13 30q0 18 -13 29.5t-32 11.5t-32 -11.5zM723 80q18 14 18 36q0 21 -18 35t-45 14t-44.5 -14t-17.5 -35q0 -22 17.5 -36t44.5 -14t45 14z" />
    <glyph glyph-name="threeeighths" unicode="&#x215c;" horiz-adv-x="912" 
d="M259.5 486.5q17.5 -24.5 17.5 -59.5q0 -51 -38 -82t-106 -31q-65 0 -111 31v94h11q33 -48 93 -48q30 0 45.5 13t15.5 32q0 21 -19.5 32.5t-56.5 11.5h-25v73h24q64 0 64 40q0 38 -52 38q-45 0 -77 -29h-9v81q41 25 97 25q62 0 96 -28.5t34 -74.5q0 -59 -55 -81
q34 -13 51.5 -37.5zM746 700l-506 -700h-114l507 700h113zM864.5 166q16.5 -25 16.5 -58q0 -53 -41 -84.5t-111 -31.5t-111 31.5t-41 84.5q0 33 17 58t48 38q-47 26 -47 79q0 45 37 74t97 29q61 0 98 -29t37 -74q0 -53 -48 -79q32 -13 48.5 -38zM697 300.5
q-13 -11.5 -13 -29.5q0 -19 13 -30t32 -11t32 11t13 30q0 18 -13 29.5t-32 11.5t-32 -11.5zM774 80q18 14 18 36q0 21 -18 35t-45 14t-44.5 -14t-17.5 -35q0 -22 17.5 -36t44.5 -14t45 14z" />
    <glyph glyph-name="fiveeighths" unicode="&#x215d;" horiz-adv-x="938" 
d="M263 536.5q34 -34.5 34 -91.5q0 -61 -39 -96t-106 -35q-63 0 -117 31v95h10q40 -44 94 -44q28 0 46.5 13t18.5 39t-17.5 38.5t-46.5 12.5q-31 0 -58 -15l-39 12l30 204h203v-79h-138l-9 -56q20 6 44 6q56 0 90 -34.5zM772 700l-506 -700h-114l507 700h113zM890.5 166
q16.5 -25 16.5 -58q0 -53 -41 -84.5t-111 -31.5t-111 31.5t-41 84.5q0 33 17 58t48 38q-47 26 -47 79q0 45 37 74t97 29q61 0 98 -29t37 -74q0 -53 -48 -79q32 -13 48.5 -38zM723 300.5q-13 -11.5 -13 -29.5q0 -19 13 -30t32 -11t32 11t13 30q0 18 -13 29.5t-32 11.5
t-32 -11.5zM800 80q18 14 18 36q0 21 -18 35t-45 14t-44.5 -14t-17.5 -35q0 -22 17.5 -36t44.5 -14t45 14z" />
    <glyph glyph-name="seveneighths" unicode="&#x215e;" horiz-adv-x="863" 
d="M290 700v-53l-158 -325h-97l144 296h-152v82h263zM698 700l-506 -700h-114l507 700h113zM815.5 166q16.5 -25 16.5 -58q0 -53 -41 -84.5t-111 -31.5t-111 31.5t-41 84.5q0 33 17 58t48 38q-47 26 -47 79q0 45 37 74t97 29q61 0 98 -29t37 -74q0 -53 -48 -79
q32 -13 48.5 -38zM648 300.5q-13 -11.5 -13 -29.5q0 -19 13 -30t32 -11t32 11t13 30q0 18 -13 29.5t-32 11.5t-32 -11.5zM725 80q18 14 18 36q0 21 -18 35t-45 14t-44.5 -14t-17.5 -35q0 -22 17.5 -36t44.5 -14t45 14z" />
    <glyph glyph-name="arrowleft" unicode="&#x2190;" horiz-adv-x="820" 
d="M749 235h-449v-179l-250 215v10l250 215v-179h449v-82z" />
    <glyph glyph-name="arrowup" unicode="&#x2191;" horiz-adv-x="550" 
d="M317 415v-415h-84v415h-178l215 251h10l215 -251h-178z" />
    <glyph glyph-name="arrowright" unicode="&#x2192;" horiz-adv-x="820" 
d="M770 281v-10l-250 -215v179h-449v82h449v179z" />
    <glyph glyph-name="arrowdown" unicode="&#x2193;" horiz-adv-x="550" 
d="M495 244l-215 -251h-10l-215 251h178v415h84v-415h178z" />
    <glyph glyph-name="arrowboth" unicode="&#x2194;" horiz-adv-x="984" 
d="M934 286v-10l-250 -215v179h-384v-179l-250 215v10l250 215v-179h384v179z" />
    <glyph glyph-name="arrowupdn" unicode="&#x2195;" horiz-adv-x="550" 
d="M317 236h178l-215 -250h-10l-215 250h178v244h-178l215 251h10l215 -251h-178v-244z" />
    <glyph glyph-name="uni2196" unicode="&#x2196;" horiz-adv-x="644" 
d="M560 -11l-356 356l-138 -138v330l7 7h330l-138 -138l357 -357z" />
    <glyph glyph-name="uni2197" unicode="&#x2197;" horiz-adv-x="644" 
d="M578 207l-138 138l-356 -356l-62 60l357 357l-138 138h330l7 -7v-330z" />
    <glyph glyph-name="uni2198" unicode="&#x2198;" horiz-adv-x="644" 
d="M578 338v-330l-7 -8h-330l138 138l-357 357l62 60l356 -356z" />
    <glyph glyph-name="uni2199" unicode="&#x2199;" horiz-adv-x="644" 
d="M265 138l138 -138h-330l-7 8v330l138 -139l356 356l62 -60z" />
    <glyph glyph-name="partialdiff" unicode="&#x2202;" horiz-adv-x="577" 
d="M414 676q56 -38 87.5 -115.5t31.5 -192.5q0 -200 -77 -291t-197 -91q-99 0 -160 59.5t-61 167.5q0 78 30.5 134.5t82.5 85.5t117 29q92 0 141 -55q-14 191 -144 191q-72 0 -127 -50h-13l10 127q68 39 150 39q73 0 129 -38zM361.5 137q37.5 40 37.5 109q0 57 -32 85.5
t-79 28.5q-55 0 -91 -36t-36 -102q0 -61 31 -93t79 -32q53 0 90.5 40z" />
    <glyph glyph-name="emptyset" unicode="&#x2205;" horiz-adv-x="576" 
d="M458 471q39 -53 39 -121q0 -57 -28 -105t-76 -76t-105 -28q-65 0 -119 38l-74 -75l-51 52l74 74q-39 55 -39 120q0 57 28 105t76 76t105 28q66 0 120 -38l75 75l50 -50zM187 299l152 152q-24 12 -51 12q-46 0 -79.5 -33t-33.5 -80q0 -27 12 -51zM389 401l-151 -152
q23 -12 50 -12q47 0 80 33.5t33 79.5q0 29 -12 51z" />
    <glyph glyph-name="product" unicode="&#x220f;" horiz-adv-x="628" 
d="M543 700v-785h-106v690h-245v-690h-107v785h458z" />
    <glyph glyph-name="summation" unicode="&#x2211;" horiz-adv-x="558" 
d="M515 123v-123h-466v78l212 279l-197 265v78h433v-123h-237l144 -202v-41l-156 -211h267z" />
    <glyph glyph-name="minus" unicode="&#x2212;" horiz-adv-x="540" 
d="M476 385v-106h-412v106h412z" />
    <glyph glyph-name="radical" unicode="&#x221a;" horiz-adv-x="640" 
d="M622 700l-272 -700h-58h-25l-151 409h-105v97h182l119 -352l194 546h116z" />
    <glyph glyph-name="infinity" unicode="&#x221e;" horiz-adv-x="709" 
d="M585.5 472.5q35.5 -21.5 56 -59t20.5 -84.5t-20.5 -84.5t-56 -59t-78.5 -21.5q-86 0 -152 92q-68 -92 -152 -92q-43 0 -79 21.5t-56.5 59t-20.5 84.5t20.5 84.5t56.5 59t79 21.5q85 0 152 -91q65 91 152 91q43 0 78.5 -21.5zM264 271q22 20 45 57q-25 39 -46 59t-48 20
q-30 0 -51.5 -23t-21.5 -55t21.5 -55t51.5 -23q27 0 49 20zM545.5 274q21.5 23 21.5 55t-21.5 55t-51.5 23q-27 0 -48.5 -20t-44.5 -59q24 -38 45 -57.5t48 -19.5q30 0 51.5 23z" />
    <glyph glyph-name="integral" unicode="&#x222b;" horiz-adv-x="339" 
d="M5 -44h16q40 0 57 19t17 69v523q0 98 47 134t128 36h35v-99h-15q-41 0 -58 -19t-17 -69v-523q0 -98 -47 -134t-128 -36h-35v99z" />
    <glyph glyph-name="approxequal" unicode="&#x2248;" horiz-adv-x="510" 
d="M64 447q21 21 49.5 33.5t59.5 12.5q24 0 43 -6.5t43 -18.5q25 -12 43.5 -18t41.5 -6q52 0 96 34h7v-89q-21 -21 -49.5 -33t-59.5 -12q-24 0 -44 6.5t-43 18.5q-25 12 -43.5 18t-41.5 6q-50 0 -96 -34h-6v88zM64 270q21 21 49.5 33.5t59.5 12.5q24 0 43 -6.5t43 -18.5
q25 -12 43.5 -18t41.5 -6q52 0 96 34h7v-88q-21 -21 -49.5 -33.5t-59.5 -12.5q-24 0 -44 6.5t-43 18.5q-25 12 -43.5 18t-41.5 6q-50 0 -96 -34h-6v88z" />
    <glyph glyph-name="notequal" unicode="&#x2260;" horiz-adv-x="523" 
d="M332 376l-44 -88h171v-106h-225l-46 -91h-97l46 91h-73v106h127l44 88h-171v107h225l46 90h97l-46 -90h73v-107h-127z" />
    <glyph glyph-name="lessequal" unicode="&#x2264;" horiz-adv-x="517" 
d="M453 459l-261 -69l261 -68v-116l-395 130v89v20l395 130v-116zM58 176h395v-107h-395v107z" />
    <glyph glyph-name="greaterequal" unicode="&#x2265;" horiz-adv-x="517" 
d="M459 445v-90v-19l-395 -130v116l262 68l-262 69v116zM64 176h395v-107h-395v107z" />
    <glyph glyph-name="uni2460" unicode="&#x2460;" horiz-adv-x="836" 
d="M601 667q83 -47 131.5 -130t48.5 -187t-48.5 -187t-131.5 -130t-183 -47t-183 47t-131.5 130t-48.5 187t48.5 187t131.5 130t183 47t183 -47zM562 98q65 37 103 103t38 149t-38 149t-103 103t-144 37t-144 -37t-103 -103t-38 -149t38 -149t103 -103t144 -37t144 37z
M377 499.5q25 13.5 30 39.5h67v-378h-85v265q-29 -18 -69 -18v78q32 0 57 13.5z" />
    <glyph glyph-name="uni2461" unicode="&#x2461;" horiz-adv-x="836" 
d="M601 667q83 -47 131.5 -130t48.5 -187t-48.5 -187t-131.5 -130t-183 -47t-183 47t-131.5 130t-48.5 187t48.5 187t131.5 130t183 47t183 -47zM562 98q65 37 103 103t38 149t-38 149t-103 103t-144 37t-144 -37t-103 -103t-38 -149t38 -149t103 -103t144 -37t144 37z
M414 236h132v-75h-247v53l121 142q31 36 31 69q0 21 -13 32.5t-36 11.5q-26 0 -43 -13t-35 -37h-9v92q45 36 103 36q53 0 87 -28.5t34 -79.5q0 -33 -14.5 -64t-41.5 -63z" />
    <glyph glyph-name="uni2462" unicode="&#x2462;" horiz-adv-x="836" 
d="M601 667q83 -47 131.5 -130t48.5 -187t-48.5 -187t-131.5 -130t-183 -47t-183 47t-131.5 130t-48.5 187t48.5 187t131.5 130t183 47t183 -47zM562 98q65 37 103 103t38 149t-38 149t-103 103t-144 37t-144 -37t-103 -103t-38 -149t38 -149t103 -103t144 -37t144 37z
M531 326q17 -25 17 -60q0 -50 -36.5 -81.5t-99.5 -31.5t-105 32v87h8q16 -24 39 -36t49 -12q30 0 47 14.5t17 37.5q0 25 -19.5 37.5t-54.5 12.5h-25v61h24q30 0 46 12t16 34q0 20 -13.5 31.5t-38.5 11.5q-42 0 -75 -30h-8v75q43 26 95 26q58 0 90 -27.5t32 -73.5
q0 -60 -55 -82q33 -13 50 -38z" />
    <glyph glyph-name="uni2463" unicode="&#x2463;" horiz-adv-x="836" 
d="M601 667q83 -47 131.5 -130t48.5 -187t-48.5 -187t-131.5 -130t-183 -47t-183 47t-131.5 130t-48.5 187t48.5 187t131.5 130t183 47t183 -47zM562 98q65 37 103 103t38 149t-38 149t-103 103t-144 37t-144 -37t-103 -103t-38 -149t38 -149t103 -103t144 -37t144 37z
M503 309h42v-73h-42v-75h-84v75h-157v61l161 242h80v-230zM344 309h80v124z" />
    <glyph glyph-name="uni2464" unicode="&#x2464;" horiz-adv-x="836" 
d="M601 667q83 -47 131.5 -130t48.5 -187t-48.5 -187t-131.5 -130t-183 -47t-183 47t-131.5 130t-48.5 187t48.5 187t131.5 130t183 47t183 -47zM562 98q65 37 103 103t38 149t-38 149t-103 103t-144 37t-144 -37t-103 -103t-38 -149t38 -149t103 -103t144 -37t144 37z
M515 375q33 -33 33 -91q0 -61 -37 -96t-100 -35q-64 0 -112 31v91h8q42 -46 90 -46q28 0 46 14t18 44q0 28 -17 42t-45 14q-29 0 -57 -18l-35 10l28 204h192v-73h-133l-10 -66q22 8 46 8q52 0 85 -33z" />
    <glyph glyph-name="uni2465" unicode="&#x2465;" horiz-adv-x="836" 
d="M601 667q83 -47 131.5 -130t48.5 -187t-48.5 -187t-131.5 -130t-183 -47t-183 47t-131.5 130t-48.5 187t48.5 187t131.5 130t183 47t183 -47zM562 98q65 37 103 103t38 149t-38 149t-103 103t-144 37t-144 -37t-103 -103t-38 -149t38 -149t103 -103t144 -37t144 37z
M518 375q34 -30 34 -88q0 -63 -39 -98.5t-94 -35.5q-61 0 -104.5 42t-43.5 139q0 106 45.5 159.5t119.5 53.5q45 0 88 -20v-84h-8q-31 28 -73 28q-69 0 -85 -89q30 23 77 23q49 0 83 -30zM450 244.5q15 15.5 15 43.5t-15 43t-37 15t-36.5 -15t-14.5 -43h-4h4
q0 -28 14.5 -43.5t36.5 -15.5t37 15.5z" />
    <glyph glyph-name="uni2466" unicode="&#x2466;" horiz-adv-x="836" 
d="M601 667q83 -47 131.5 -130t48.5 -187t-48.5 -187t-131.5 -130t-183 -47t-183 47t-131.5 130t-48.5 187t48.5 187t131.5 130t183 47t183 -47zM562 98q65 37 103 103t38 149t-38 149t-103 103t-144 37t-144 -37t-103 -103t-38 -149t38 -149t103 -103t144 -37t144 37z
M308 539h247v-49l-148 -329h-91l138 302h-146v76z" />
    <glyph glyph-name="uni2467" unicode="&#x2467;" horiz-adv-x="836" 
d="M601 667q83 -47 131.5 -130t48.5 -187t-48.5 -187t-131.5 -130t-183 -47t-183 47t-131.5 130t-48.5 187t48.5 187t131.5 130t183 47t183 -47zM562 98q65 37 103 103t38 149t-38 149t-103 103t-144 37t-144 -37t-103 -103t-38 -149t38 -149t103 -103t144 -37t144 37z
M545.5 326q17.5 -25 17.5 -60q0 -53 -39.5 -83t-105.5 -30t-105.5 30t-39.5 83q0 35 17.5 60t50.5 39q-25 13 -38 34.5t-13 47.5q0 45 35.5 72.5t92.5 27.5q56 0 91.5 -27.5t35.5 -72.5q0 -55 -50 -82q33 -14 50.5 -39zM384.5 467.5q-13.5 -12.5 -13.5 -33.5
q0 -20 13.5 -32.5t33.5 -12.5t33.5 12.5t13.5 32.5q0 21 -13.5 33.5t-33.5 12.5t-33.5 -12.5zM463.5 235.5q18.5 14.5 18.5 39.5t-18.5 40.5t-45.5 15.5t-45.5 -15.5t-18.5 -40.5t18.5 -39.5t45.5 -14.5t45.5 14.5z" />
    <glyph glyph-name="uni2468" unicode="&#x2468;" horiz-adv-x="836" 
d="M601 667q83 -47 131.5 -130t48.5 -187t-48.5 -187t-131.5 -130t-183 -47t-183 47t-131.5 130t-48.5 187t48.5 187t131.5 130t183 47t183 -47zM562 98q65 37 103 103t38 149t-38 149t-103 103t-144 37t-144 -37t-103 -103t-38 -149t38 -149t103 -103t144 -37t144 37z
M521 505q43 -42 43 -139q0 -106 -45 -159.5t-119 -53.5q-46 0 -88 20v84h7q31 -28 74 -28q69 0 85 91q-30 -23 -77 -23q-49 0 -83 29.5t-34 87.5q0 63 38.5 98t94.5 35q61 0 104 -42zM459.5 371q14.5 15 14.5 42h4h-4q0 27 -15 42.5t-36 15.5q-22 0 -37.5 -15.5t-15.5 -42.5
t15.5 -42t37.5 -15t36.5 15z" />
    <glyph glyph-name="uni24EA" unicode="&#x24ea;" horiz-adv-x="836" 
d="M235 33q-83 47 -131.5 130t-48.5 187t48.5 187t131.5 130t183 47t183 -47t131.5 -130t48.5 -187t-48.5 -187t-131.5 -130t-183 -47t-183 47zM562 98q65 37 103 103t38 149t-38 149t-103 103t-144 37t-144 -37t-103 -103t-38 -149t38 -149t103 -103t144 -37t144 37z
M289 458.5q20 44.5 54 66.5t75 22t75 -22t54 -66.5t20 -108.5t-20 -108.5t-54 -66.5t-75 -22t-75 22t-54 66.5t-20 108.5t20 108.5zM374.5 261q17.5 -30 43.5 -30t43.5 30t17.5 89t-17.5 89t-43.5 30t-43.5 -30t-17.5 -89t17.5 -89z" />
    <glyph glyph-name="uni24FF" unicode="&#x24ff;" horiz-adv-x="836" 
d="M235 33q-83 47 -131.5 130t-48.5 187t48.5 187t131.5 130t183 47t183 -47t131.5 -130t48.5 -187t-48.5 -187t-131.5 -130t-183 -47t-183 47zM289 241.5q20 -44.5 54 -66.5t75 -22t75 22t54 66.5t20 108.5t-20 108.5t-54 66.5t-75 22t-75 -22t-54 -66.5t-20 -108.5
t20 -108.5zM374.5 439q17.5 30 43.5 30t43.5 -30t17.5 -89t-17.5 -89t-43.5 -30t-43.5 30t-17.5 89t17.5 89z" />
    <glyph glyph-name="lozenge" unicode="&#x25ca;" horiz-adv-x="520" 
d="M482 350l-187 -350h-60h-10l-187 350l187 350h60h10zM367 350l-107 213l-107 -213l107 -213z" />
    <glyph glyph-name="uni2776" unicode="&#x2776;" horiz-adv-x="836" 
d="M235 33q-83 47 -131.5 130t-48.5 187t48.5 187t131.5 130t183 47t183 -47t131.5 -130t48.5 -187t-48.5 -187t-131.5 -130t-183 -47t-183 47zM389 426v-265h85v378h-67q-5 -26 -30 -39.5t-57 -13.5v-78q38 0 69 18z" />
    <glyph glyph-name="uni2777" unicode="&#x2777;" horiz-adv-x="836" 
d="M235 33q-83 47 -131.5 130t-48.5 187t48.5 187t131.5 130t183 47t183 -47t131.5 -130t48.5 -187t-48.5 -187t-131.5 -130t-183 -47t-183 47zM546 161v75h-131l68 76q27 32 41.5 63t14.5 64q0 51 -34 79.5t-87 28.5q-58 0 -103 -36v-92h9q18 24 35 37t43 13q23 0 36 -11.5
t13 -32.5q0 -33 -31 -69l-121 -142v-53h247z" />
    <glyph glyph-name="uni2778" unicode="&#x2778;" horiz-adv-x="836" 
d="M235 33q-83 47 -131.5 130t-48.5 187t48.5 187t131.5 130t183 47t183 -47t131.5 -130t48.5 -187t-48.5 -187t-131.5 -130t-183 -47t-183 47zM412 153q63 0 99.5 31.5t36.5 81.5q0 35 -17 60.5t-49 37.5q27 11 40.5 32t13.5 50q0 46 -32 73.5t-90 27.5q-52 0 -95 -26v-75
h8q33 30 75 30q25 0 38.5 -11.5t13.5 -31.5q0 -22 -16 -34t-46 -12h-24v-61h25q35 0 54.5 -12.5t19.5 -37.5q0 -23 -17 -37.5t-47 -14.5q-26 0 -49 12t-39 36h-8v-87q42 -32 105 -32z" />
    <glyph glyph-name="uni2779" unicode="&#x2779;" horiz-adv-x="836" 
d="M235 33q-83 47 -131.5 130t-48.5 187t48.5 187t131.5 130t183 47t183 -47t131.5 -130t48.5 -187t-48.5 -187t-131.5 -130t-183 -47t-183 47zM419 236v-75h84v75h42v73h-42v230h-80l-161 -242v-61h157zM424 432v-123h-80z" />
    <glyph glyph-name="uni277A" unicode="&#x277a;" horiz-adv-x="836" 
d="M235 33q-83 47 -131.5 130t-48.5 187t48.5 187t131.5 130t183 47t183 -47t131.5 -130t48.5 -187t-48.5 -187t-131.5 -130t-183 -47t-183 47zM411 153q63 0 100 35t37 96q0 58 -33 91t-85 33q-23 0 -46 -9l10 67h133v73h-192l-28 -204l35 -10q28 18 57 18q28 0 45 -14
t17 -42q0 -30 -18 -44t-46 -14q-48 0 -90 46h-8v-91q48 -31 112 -31z" />
    <glyph glyph-name="uni277B" unicode="&#x277b;" horiz-adv-x="836" 
d="M235 33q-83 47 -131.5 130t-48.5 187t48.5 187t131.5 130t183 47t183 -47t131.5 -130t48.5 -187t-48.5 -187t-131.5 -130t-183 -47t-183 47zM314.5 195q43.5 -42 104.5 -42q55 0 94 35.5t39 98.5q0 58 -34 88t-83 30q-46 0 -77 -25q16 91 85 91q42 0 73 -28h8v84
q-43 20 -88 20q-74 0 -119.5 -53.5t-45.5 -159.5q0 -97 43.5 -139zM376.5 331q14.5 15 36.5 15t37 -15t15 -43t-15 -43.5t-37 -15.5t-36.5 15.5t-14.5 43.5t14.5 43z" />
    <glyph glyph-name="uni277C" unicode="&#x277c;" horiz-adv-x="836" 
d="M235 33q-83 47 -131.5 130t-48.5 187t48.5 187t131.5 130t183 47t183 -47t131.5 -130t48.5 -187t-48.5 -187t-131.5 -130t-183 -47t-183 47zM454 463l-138 -302h91l148 329v49h-247v-76h146z" />
    <glyph glyph-name="uni277D" unicode="&#x277d;" horiz-adv-x="836" 
d="M235 33q-83 47 -131.5 130t-48.5 187t48.5 187t131.5 130t183 47t183 -47t131.5 -130t48.5 -187t-48.5 -187t-131.5 -130t-183 -47t-183 47zM312.5 183q39.5 -30 105.5 -30t105.5 30t39.5 83q0 35 -18 60.5t-51 38.5q25 13 38 34.5t13 47.5q0 45 -35.5 72.5t-91.5 27.5
q-57 0 -92.5 -27.5t-35.5 -72.5q0 -26 13 -47.5t38 -34.5q-33 -13 -50.5 -38.5t-17.5 -60.5q0 -53 39.5 -83zM384.5 467.5q13.5 12.5 33.5 12.5t33.5 -12.5t13.5 -33.5q0 -20 -13.5 -32.5t-33.5 -12.5t-33.5 12.5t-13.5 32.5q0 21 13.5 33.5zM372.5 315.5
q18.5 15.5 45.5 15.5t45.5 -15.5t18.5 -40.5t-18.5 -39.5t-45.5 -14.5t-45.5 14.5t-18.5 39.5t18.5 40.5z" />
    <glyph glyph-name="uni277E" unicode="&#x277e;" horiz-adv-x="836" 
d="M235 33q-83 47 -131.5 130t-48.5 187t48.5 187t131.5 130t183 47t183 -47t131.5 -130t48.5 -187t-48.5 -187t-131.5 -130t-183 -47t-183 47zM318 326.5q34 -29.5 83 -29.5q48 0 77 24q-16 -92 -85 -92q-43 0 -74 28h-7v-84q42 -20 88 -20q74 0 119 53.5t45 159.5
q0 97 -43 139t-104 42q-56 0 -94.5 -35t-38.5 -98q0 -58 34 -87.5zM385.5 455.5q15.5 15.5 37.5 15.5q21 0 36 -15.5t15 -42.5t-14.5 -42t-36.5 -15t-37.5 15t-15.5 42t15.5 42.5z" />
    <glyph glyph-name="uniF408" unicode="&#xf408;" 
d="M-344 579l67 173h133l-102 -173h-98z" />
    <glyph glyph-name="i.loclTRK" horiz-adv-x="278" 
d="M203 502v-502h-128v502h128zM84.5 710q21.5 20 53.5 20q33 0 54.5 -19.5t21.5 -53.5q0 -33 -21.5 -52.5t-54.5 -19.5q-32 0 -53.5 19.5t-21.5 52.5t21.5 53z" />
    <glyph glyph-name="a.ss01" horiz-adv-x="634" 
d="M559 502v-502h-110v77q-30 -44 -75 -67.5t-97 -23.5q-60 0 -113.5 30.5t-86.5 90.5t-33 144t33.5 144t87 90.5t113.5 30.5q52 0 96.5 -23.5t74.5 -67.5v77h110zM401.5 140.5q39.5 37.5 39.5 110.5t-39.5 110.5t-94.5 37.5q-54 0 -94 -37.5t-40 -110.5t40 -110.5t94 -37.5
q55 0 94.5 37.5z" />
    <glyph glyph-name="aacute.ss01" horiz-adv-x="634" 
d="M559 502v-502h-110v77q-30 -44 -75 -67.5t-97 -23.5q-60 0 -113.5 30.5t-86.5 90.5t-33 144t33.5 144t87 90.5t113.5 30.5q52 0 96.5 -23.5t74.5 -67.5v77h110zM401.5 140.5q39.5 37.5 39.5 110.5t-39.5 110.5t-94.5 37.5q-54 0 -94 -37.5t-40 -110.5t40 -110.5t94 -37.5
q55 0 94.5 37.5zM251 579l67 173h133l-102 -173h-98z" />
    <glyph glyph-name="abreve.ss01" horiz-adv-x="634" 
d="M559 502v-502h-110v77q-30 -44 -75 -67.5t-97 -23.5q-60 0 -113.5 30.5t-86.5 90.5t-33 144t33.5 144t87 90.5t113.5 30.5q52 0 96.5 -23.5t74.5 -67.5v77h110zM401.5 140.5q39.5 37.5 39.5 110.5t-39.5 110.5t-94.5 37.5q-54 0 -94 -37.5t-40 -110.5t40 -110.5t94 -37.5
q55 0 94.5 37.5zM163 738h81v-14q0 -34 19 -52t54 -18t53.5 18t18.5 52v14h82v-10q0 -82 -40.5 -121.5t-113.5 -39.5t-113.5 39t-40.5 122v10z" />
    <glyph glyph-name="acircumflex.ss01" horiz-adv-x="634" 
d="M559 502v-502h-110v77q-30 -44 -75 -67.5t-97 -23.5q-60 0 -113.5 30.5t-86.5 90.5t-33 144t33.5 144t87 90.5t113.5 30.5q52 0 96.5 -23.5t74.5 -67.5v77h110zM401.5 140.5q39.5 37.5 39.5 110.5t-39.5 110.5t-94.5 37.5q-54 0 -94 -37.5t-40 -110.5t40 -110.5t94 -37.5
q55 0 94.5 37.5zM385 576l-70 72l-71 -72h-92l120 153h88l120 -153h-95z" />
    <glyph glyph-name="adieresis.ss01" horiz-adv-x="634" 
d="M559 502v-502h-110v77q-30 -44 -75 -67.5t-97 -23.5q-60 0 -113.5 30.5t-86.5 90.5t-33 144t33.5 144t87 90.5t113.5 30.5q52 0 96.5 -23.5t74.5 -67.5v77h110zM401.5 140.5q39.5 37.5 39.5 110.5t-39.5 110.5t-94.5 37.5q-54 0 -94 -37.5t-40 -110.5t40 -110.5t94 -37.5
q55 0 94.5 37.5zM161.5 702q19.5 19 48.5 19t48.5 -19t19.5 -49t-19.5 -49t-48.5 -19t-48.5 19t-19.5 49t19.5 49zM375.5 702q19.5 19 48.5 19t48 -19t19 -49t-19 -49t-48 -19t-48.5 19t-19.5 49t19.5 49z" />
    <glyph glyph-name="agrave.ss01" horiz-adv-x="634" 
d="M559 502v-502h-110v77q-30 -44 -75 -67.5t-97 -23.5q-60 0 -113.5 30.5t-86.5 90.5t-33 144t33.5 144t87 90.5t113.5 30.5q52 0 96.5 -23.5t74.5 -67.5v77h110zM401.5 140.5q39.5 37.5 39.5 110.5t-39.5 110.5t-94.5 37.5q-54 0 -94 -37.5t-40 -110.5t40 -110.5t94 -37.5
q55 0 94.5 37.5zM183 752h132l68 -173h-99z" />
    <glyph glyph-name="amacron.ss01" horiz-adv-x="634" 
d="M559 502v-502h-110v77q-30 -44 -75 -67.5t-97 -23.5q-60 0 -113.5 30.5t-86.5 90.5t-33 144t33.5 144t87 90.5t113.5 30.5q52 0 96.5 -23.5t74.5 -67.5v77h110zM401.5 140.5q39.5 37.5 39.5 110.5t-39.5 110.5t-94.5 37.5q-54 0 -94 -37.5t-40 -110.5t40 -110.5t94 -37.5
q55 0 94.5 37.5zM183 602v91h268v-91h-268z" />
    <glyph glyph-name="aogonek.ss01" horiz-adv-x="634" 
d="M568 -119v-77q-40 -17 -80 -17q-47 0 -80 21.5t-33 65.5q0 71 99 126h-25v77q-30 -44 -75 -67.5t-97 -23.5q-60 0 -113.5 30.5t-86.5 90.5t-33 144t33.5 144t87 90.5t113.5 30.5q52 0 96.5 -23.5t74.5 -67.5v77h110v-502q-41 -22 -62.5 -47.5t-21.5 -50.5q0 -35 39 -35
q21 0 54 14zM401.5 140.5q39.5 37.5 39.5 110.5t-39.5 110.5t-94.5 37.5q-54 0 -94 -37.5t-40 -110.5t40 -110.5t94 -37.5q55 0 94.5 37.5z" />
    <glyph glyph-name="aring.ss01" horiz-adv-x="634" 
d="M559 502v-502h-110v77q-30 -44 -75 -67.5t-97 -23.5q-60 0 -113.5 30.5t-86.5 90.5t-33 144t33.5 144t87 90.5t113.5 30.5q52 0 96.5 -23.5t74.5 -67.5v77h110zM401.5 140.5q39.5 37.5 39.5 110.5t-39.5 110.5t-94.5 37.5q-54 0 -94 -37.5t-40 -110.5t40 -110.5t94 -37.5
q55 0 94.5 37.5zM240.5 730.5q31.5 26.5 75.5 26.5t76 -26.5t32 -71.5q0 -46 -32 -72.5t-76 -26.5t-75.5 26.5t-31.5 72.5q0 45 31.5 71.5zM286 627.5q13 -12.5 30 -12.5q18 0 31 12t13 32q0 19 -13 31t-31 12q-17 0 -30 -12t-13 -31t13 -31.5z" />
    <glyph glyph-name="atilde.ss01" horiz-adv-x="634" 
d="M559 502v-502h-110v77q-30 -44 -75 -67.5t-97 -23.5q-60 0 -113.5 30.5t-86.5 90.5t-33 144t33.5 144t87 90.5t113.5 30.5q52 0 96.5 -23.5t74.5 -67.5v77h110zM401.5 140.5q39.5 37.5 39.5 110.5t-39.5 110.5t-94.5 37.5q-54 0 -94 -37.5t-40 -110.5t40 -110.5t94 -37.5
q55 0 94.5 37.5zM182.5 694q28.5 37 69.5 37q23 0 40.5 -10t31.5 -21.5t19 -15.5q17 -15 32 -15q32 0 36 52h70q-1 -73 -29.5 -110t-69.5 -37q-23 0 -41 10.5t-32 22t-18 15.5q-17 15 -33 15q-31 0 -35 -53h-70q1 73 29.5 110z" />
    <glyph glyph-name="ae.ss01" horiz-adv-x="979" 
d="M933 227h-368q8 -69 51 -100.5t105 -31.5q87 0 171 57h13v-121q-81 -45 -165 -45q-120 0 -181 81v-67h-110v77q-30 -44 -75 -67.5t-97 -23.5q-60 0 -113.5 30.5t-86.5 90.5t-33 144t33.5 144t87 90.5t113.5 30.5q52 0 96.5 -23.5t74.5 -67.5v77h110v-64q59 78 170 78
q97 0 152 -58.5t56 -176.5q0 -30 -4 -54zM616 390.5q-35 -27.5 -47 -79.5h245q-5 53 -35 80t-79 27t-84 -27.5zM401.5 140.5q39.5 37.5 39.5 110.5t-39.5 110.5t-94.5 37.5q-54 0 -94 -37.5t-40 -110.5t40 -110.5t94 -37.5q55 0 94.5 37.5z" />
    <glyph glyph-name="t_t.dlig" horiz-adv-x="752" 
d="M571 401v-210q0 -35 20 -52.5t54 -17.5h67v-121h-90q-85 0 -132 42t-47 123v236h-184v-210q0 -35 20 -52.5t54 -17.5h32v-121h-55q-85 0 -132 42t-47 123v236h-110v101h110v164h128v-164h184v164h128v-164h146v-101h-146z" />
    <glyph glyph-name="uni0430.ss01" horiz-adv-x="634" 
d="M559 502v-502h-110v77q-30 -44 -75 -67.5t-97 -23.5q-60 0 -113.5 30.5t-86.5 90.5t-33 144t33.5 144t87 90.5t113.5 30.5q52 0 96.5 -23.5t74.5 -67.5v77h110zM401.5 140.5q39.5 37.5 39.5 110.5t-39.5 110.5t-94.5 37.5q-54 0 -94 -37.5t-40 -110.5t40 -110.5t94 -37.5
q55 0 94.5 37.5z" />
    <glyph glyph-name="zero.osf" horiz-adv-x="614" 
d="M441 484q60 -32 95 -92.5t35 -140.5t-35 -140.5t-95 -92.5t-134 -32t-134 32t-94.5 92.5t-34.5 140.5t34.5 140.5t94.5 92.5t134 32t134 -32zM400.5 143.5q37.5 38.5 37.5 107.5t-37.5 107.5t-93.5 38.5t-93.5 -38.5t-37.5 -107.5t37.5 -107.5t93.5 -38.5t93.5 38.5z" />
    <glyph glyph-name="one.osf" horiz-adv-x="391" 
d="M307 502v-502h-131v315q-51 -37 -134 -37v123q60 0 105 26t54 75h106z" />
    <glyph glyph-name="two.osf" horiz-adv-x="523" 
d="M474 110v-110h-436v81l238 186q55 41 55 79q0 25 -24.5 38.5t-65.5 13.5q-47 0 -88 -16.5t-71 -38.5h-14v129q37 20 87 32t101 12q92 0 148.5 -40t56.5 -111q0 -91 -97 -162l-119 -93h229z" />
    <glyph glyph-name="three.osf" horiz-adv-x="511" 
d="M433.5 108q29.5 -47 29.5 -109q0 -61 -29 -108t-84.5 -73t-132.5 -26q-116 0 -191 59v145h17q57 -90 161 -90q60 0 93.5 29t33.5 75q0 50 -38 76.5t-107 26.5h-46v110h43q61 0 92.5 22.5t31.5 66.5q0 42 -27 66t-78 24q-79 0 -136 -60h-15v125q67 49 165 49
q104 0 163.5 -51t59.5 -135q0 -51 -22.5 -89.5t-68.5 -60.5q56 -25 85.5 -72z" />
    <glyph glyph-name="four.osf" horiz-adv-x="563" 
d="M535 0h-79v-194h-135v194h-299v97l307 405h127v-385h79v-117zM325 117v210l-163 -210h163z" />
    <glyph glyph-name="five.osf" horiz-adv-x="546" 
d="M393 235q49 -28 77 -80.5t28 -123.5q0 -112 -67.5 -175.5t-181.5 -63.5q-113 0 -201 61v142h14q74 -81 167 -81q56 0 93.5 29t37.5 91q0 59 -35.5 88.5t-88.5 29.5q-33 0 -63 -11t-53 -29l-57 16l55 374h343v-118h-246l-22 -138q42 17 89 17q62 0 111 -28z" />
    <glyph glyph-name="six.osf" horiz-adv-x="612" 
d="M452.5 437.5q49.5 -25.5 80 -77.5t30.5 -129t-31.5 -132.5t-85 -84t-118.5 -28.5q-70 0 -131 31.5t-100.5 106t-39.5 194.5q0 132 38 221t103.5 132t149.5 43q87 0 163 -41v-132h-15q-56 51 -134 51q-70 0 -112 -44t-56 -144q30 29 70 44t83 15q56 0 105.5 -25.5z
M393 139.5q32 31.5 32 92.5q0 60 -33 92t-78 32t-77.5 -31.5t-32.5 -92.5t32.5 -92.5t78.5 -31.5t78 31.5z" />
    <glyph glyph-name="seven.osf" horiz-adv-x="509" 
d="M478 502v-77l-285 -619h-144l266 575h-283v121h446z" />
    <glyph glyph-name="eight.osf" horiz-adv-x="605" 
d="M531.5 304.5q31.5 -47.5 31.5 -109.5q0 -63 -32 -110t-91 -73t-138 -26t-137.5 26t-90.5 73t-32 110t31 110t90 72q-43 24 -65.5 63t-22.5 87q0 54 28.5 96.5t80 66.5t118.5 24q68 0 119.5 -24t80 -66.5t28.5 -96.5q0 -48 -22.5 -87t-65.5 -63q58 -25 89.5 -72.5z
M233.5 576.5q-26.5 -24.5 -26.5 -66.5t26.5 -66.5t68.5 -24.5t69 24.5t27 66.5t-27 66.5t-69 24.5t-68.5 -24.5zM394 128.5q37 29.5 37 78.5t-37 78.5t-92 29.5t-91.5 -30t-36.5 -78t36.5 -78t91.5 -30t92 29.5z" />
    <glyph glyph-name="nine.osf" horiz-adv-x="612" 
d="M415 484.5q61 -31.5 100.5 -105t39.5 -193.5q0 -132 -38 -220.5t-103.5 -131t-149.5 -42.5q-87 0 -163 41v132h15q54 -51 134 -51q70 0 112.5 44.5t55.5 146.5q-30 -29 -70 -44t-83 -15q-56 0 -105.5 25t-80 76.5t-30.5 126.5q0 76 31.5 130.5t84.5 83t119 28.5
q70 0 131 -31.5zM375.5 184q32.5 31 32.5 89q0 60 -32.5 90.5t-78.5 30.5t-78.5 -30.5t-32.5 -90.5q0 -58 33 -89t79 -31q45 0 77.5 31z" />
    <glyph glyph-name="zero.subs" horiz-adv-x="392" 
d="M60 130.5q21 44.5 57 67t79 22.5t78.5 -22.5t56.5 -67t21 -107.5t-21 -107.5t-56.5 -67t-78.5 -22.5t-79 22.5t-57 67t-21 107.5t21 107.5zM151.5 -59q17.5 -30 44.5 -30t44 30t17 82t-17 82t-44 30t-44.5 -30t-17.5 -82t17.5 -82z" />
    <glyph glyph-name="one.subs" horiz-adv-x="258" 
d="M193 212v-378h-90v258q-31 -17 -74 -17v83q35 0 61 14t30 40h73z" />
    <glyph glyph-name="two.subs" horiz-adv-x="320" 
d="M286 -85v-81h-261v56l132 142q28 33 28 61q0 20 -13.5 31t-35.5 11q-28 0 -48 -14.5t-36 -35.5h-9v100q49 35 109 35q55 0 91 -29.5t36 -83.5q0 -34 -15.5 -64t-43.5 -60l-64 -68h130z" />
    <glyph glyph-name="three.subs" horiz-adv-x="308" 
d="M259.5 -1.5q17.5 -24.5 17.5 -59.5q0 -51 -38 -82t-106 -31q-65 0 -111 31v94h11q33 -48 93 -48q30 0 45.5 13t15.5 32q0 21 -19.5 32.5t-56.5 11.5h-25v73h24q64 0 64 40q0 38 -52 38q-45 0 -77 -29h-9v81q41 25 97 25q62 0 96 -28.5t34 -74.5q0 -59 -55 -81
q34 -13 51.5 -37.5z" />
    <glyph glyph-name="four.subs" horiz-adv-x="345" 
d="M319 -93h-43v-73h-92v73h-164v66l169 239h87v-227h43v-78zM187 -15v114l-79 -114h79z" />
    <glyph glyph-name="five.subs" horiz-adv-x="334" 
d="M263 48.5q34 -34.5 34 -91.5q0 -61 -39 -96t-106 -35q-63 0 -117 31v95h10q40 -44 94 -44q28 0 46.5 13t18.5 39t-17.5 38.5t-46.5 12.5q-31 0 -58 -15l-39 12l30 204h203v-79h-138l-9 -56q20 6 44 6q56 0 90 -34.5z" />
    <glyph glyph-name="six.subs" horiz-adv-x="371" 
d="M298 54q36 -31 36 -93q0 -64 -39 -99.5t-98 -35.5q-65 0 -111.5 42.5t-46.5 140.5q0 103 47 157t125 54q50 0 93 -20v-88h-9q-35 26 -76 26q-36 0 -58.5 -19.5t-30.5 -63.5q30 30 81 30t87 -31zM226.5 -78q15.5 14 15.5 40q0 25 -15.5 39t-37.5 14t-37 -14t-15 -39
q0 -26 15 -40t37 -14t37.5 14z" />
    <glyph glyph-name="seven.subs" horiz-adv-x="319" 
d="M290 212v-53l-158 -325h-97l144 296h-152v82h263z" />
    <glyph glyph-name="eight.subs" horiz-adv-x="365" 
d="M334 -58q0 -53 -41 -84.5t-111 -31.5t-111 31.5t-41 84.5q0 33 16.5 57.5t48.5 38.5q-47 26 -47 79q0 45 37 74t97 29q61 0 98 -29t37 -74q0 -53 -48 -79q65 -29 65 -96zM150 134.5q-13 -11.5 -13 -29.5q0 -19 13 -30t32 -11t32 11t13 30q0 18 -13 29.5t-32 11.5
t-32 -11.5zM227 -86q18 14 18 36q0 21 -18 35t-45 14t-44.5 -14t-17.5 -35q0 -22 17.5 -36t44.5 -14t45 14z" />
    <glyph glyph-name="nine.subs" horiz-adv-x="371" 
d="M284.5 177.5q46.5 -42.5 46.5 -140.5q0 -104 -47 -157.5t-124 -53.5q-49 0 -94 20v88h10q33 -26 76 -26q36 0 59 20t31 66q-30 -31 -83 -31q-51 0 -87 30.5t-36 92.5q0 64 38.5 99t98.5 35q65 0 111.5 -42.5zM218.5 47q15.5 13 15.5 38t-15.5 39t-36.5 14
q-22 0 -37.5 -14t-15.5 -39t15.5 -38t37.5 -13q21 0 36.5 13z" />
    <glyph glyph-name="zero.tf" horiz-adv-x="614" 
d="M85 550q35 82 93 123t129 41t129 -41t93 -123t35 -200t-35 -200t-93 -123t-129 -41t-129 41t-93 123t-35 200t35 200zM220.5 172q32.5 -61 86.5 -61t86.5 61t32.5 178t-32.5 178t-86.5 61t-86.5 -61t-32.5 -178t32.5 -178z" />
    <glyph glyph-name="one.tf" horiz-adv-x="614" 
d="M570 117v-117h-513v117h199v401q-31 -20 -73 -31t-88 -11v123q68 0 124.5 26.5t63.5 74.5h107v-583h180z" />
    <glyph glyph-name="two.tf" horiz-adv-x="614" 
d="M524 120v-120h-464v82l247 282q61 70 61 133q0 44 -27 68t-74 24q-91 0 -159 -94h-15v149q39 33 89.5 51.5t107.5 18.5q95 0 156 -50.5t61 -144.5q0 -61 -27.5 -116t-80.5 -115l-148 -168h273z" />
    <glyph glyph-name="three.tf" horiz-adv-x="614" 
d="M496.5 304q31.5 -47 31.5 -110q0 -62 -31 -109t-89.5 -73t-138.5 -26q-121 0 -198 59v146h17q58 -91 169 -91q64 0 101 29t37 76q0 50 -41 77t-115 27h-48v110h45q65 0 99 23t34 67q0 42 -29.5 66.5t-83.5 24.5q-84 0 -144 -61h-14v126q68 49 172 49q71 0 123.5 -23.5
t80.5 -66.5t28 -98q0 -51 -24.5 -89.5t-72.5 -60.5q60 -25 91.5 -72z" />
    <glyph glyph-name="four.tf" horiz-adv-x="614" 
d="M566 144h-82v-144h-134v144h-306v98l314 458h126v-439h82v-117zM353 261v253l-171 -253h171z" />
    <glyph glyph-name="five.tf" horiz-adv-x="614" 
d="M428.5 432q50.5 -28 79.5 -81t29 -125q0 -113 -69 -176.5t-187 -63.5q-114 0 -207 61v142h15q76 -81 172 -81q59 0 98.5 29.5t39.5 91.5q0 59 -37.5 89.5t-92.5 30.5q-35 0 -66 -11t-55 -30l-57 16l56 376h352v-118h-255l-23 -140q43 18 94 18q63 0 113.5 -28z" />
    <glyph glyph-name="six.tf" horiz-adv-x="614" 
d="M455 438.5q49 -25.5 79.5 -78t30.5 -129.5t-31 -132.5t-84.5 -84t-118.5 -28.5q-70 0 -131 31.5t-100.5 106t-39.5 194.5q0 133 38 221.5t103.5 131.5t149.5 43q87 0 163 -41v-132h-15q-56 51 -134 51q-70 0 -112.5 -44t-56.5 -144q31 30 71 45t83 15q56 0 105 -25.5z
M396.5 139.5q32.5 31.5 32.5 92.5q0 60 -33.5 92.5t-78.5 32.5q-46 0 -78.5 -32t-32.5 -93t33 -92.5t79 -31.5t78.5 31.5z" />
    <glyph glyph-name="seven.tf" horiz-adv-x="614" 
d="M543 700v-77l-302 -623h-145l282 579h-301v121h466z" />
    <glyph glyph-name="eight.tf" horiz-adv-x="614" 
d="M532.5 304.5q30.5 -47.5 30.5 -109.5q0 -63 -31.5 -110t-89.5 -73t-135 -26t-135 26t-89.5 73t-31.5 110q0 62 30.5 109.5t87.5 72.5q-43 24 -65.5 63t-22.5 87q0 54 28.5 96.5t80 66.5t117.5 24t117.5 -24t80 -66.5t28.5 -96.5q0 -48 -22.5 -87t-65.5 -63
q57 -25 87.5 -72.5zM238.5 576.5q-26.5 -24.5 -26.5 -66.5t26.5 -66.5t68.5 -24.5t68.5 24.5t26.5 66.5t-26.5 66.5t-68.5 24.5t-68.5 -24.5zM396 129q36 30 36 78t-36 78.5t-89 30.5t-89 -30.5t-36 -78.5t36 -78t89 -30t89 30z" />
    <glyph glyph-name="nine.tf" horiz-adv-x="614" 
d="M414 682.5q61 -31.5 100.5 -106t39.5 -194.5q0 -133 -38 -221.5t-103.5 -131.5t-149.5 -43q-87 0 -163 41v132h15q56 -51 134 -51q71 0 113.5 45t55.5 147q-30 -30 -70 -45t-84 -15q-56 0 -105 25.5t-79.5 77.5t-30.5 128t31 131t84.5 83.5t118.5 28.5q70 0 131 -31.5z
M375.5 378.5q32.5 31.5 32.5 91.5t-33 91t-79 31t-78.5 -31t-32.5 -91t33 -91.5t79 -31.5t78.5 31.5z" />
    <glyph glyph-name="zero.tosf" horiz-adv-x="614" 
d="M80.5 391.5q34.5 60.5 94 92.5t132.5 32t132.5 -32t94 -92.5t34.5 -140.5t-34.5 -140.5t-94 -92.5t-132.5 -32t-132.5 32t-94 92.5t-34.5 140.5t34.5 140.5zM215 143.5q37 -38.5 92 -38.5t92 38.5t37 107.5t-37 107.5t-92 38.5t-92 -38.5t-37 -107.5t37 -107.5z" />
    <glyph glyph-name="one.tosf" horiz-adv-x="614" 
d="M583 117v-117h-513v117h201v204q-31 -21 -73.5 -32t-88.5 -11v123q67 0 123.5 26.5t64.5 74.5h104v-385h182z" />
    <glyph glyph-name="two.tosf" horiz-adv-x="614" 
d="M523 110v-110h-453v81l250 185q60 44 60 80q0 25 -26.5 38.5t-70.5 13.5q-87 0 -167 -55h-14v129q39 20 90.5 32t104.5 12q96 0 155 -40t59 -111q0 -91 -103 -162l-128 -93h243z" />
    <glyph glyph-name="three.tosf" horiz-adv-x="614" 
d="M493 108q31 -47 31 -109q0 -61 -31 -108t-89.5 -73t-138.5 -26q-121 0 -199 59v145h17q60 -90 170 -90q64 0 101.5 29t37.5 75q0 49 -41.5 76t-115.5 27h-49v109h46q65 0 99.5 23t34.5 67q0 42 -29.5 66t-84.5 24q-85 0 -145 -60h-14v125q70 49 173 49q71 0 123.5 -23.5
t80.5 -65.5t28 -97q0 -51 -23.5 -89.5t-71.5 -60.5q59 -25 90 -72z" />
    <glyph glyph-name="four.tosf" horiz-adv-x="614" 
d="M565 0h-81v-194h-134v194h-307v97l314 405h127v-385h81v-117zM353 117v222l-171 -222h171z" />
    <glyph glyph-name="five.tosf" horiz-adv-x="614" 
d="M432.5 235q50.5 -28 79.5 -80.5t29 -123.5q0 -112 -69.5 -175.5t-186.5 -63.5q-115 0 -208 61v142h15q76 -81 173 -81q59 0 98.5 29t39.5 91q0 59 -37.5 88.5t-93.5 29.5q-35 0 -66 -11t-55 -29l-57 16l57 374h352v-118h-256l-23 -139q49 18 95 18q63 0 113.5 -28z" />
    <glyph glyph-name="six.tosf" horiz-adv-x="614" 
d="M455 438.5q49 -25.5 79.5 -78t30.5 -129.5t-31 -132.5t-84.5 -84t-118.5 -28.5q-70 0 -131 31.5t-100.5 106t-39.5 194.5q0 133 38 221.5t103.5 131.5t149.5 43q87 0 163 -41v-132h-15q-56 51 -134 51q-70 0 -112.5 -44t-56.5 -144q31 30 71 45t83 15q56 0 105 -25.5z
M396.5 139.5q32.5 31.5 32.5 92.5q0 60 -33.5 92.5t-78.5 32.5q-46 0 -78.5 -32t-32.5 -93t33 -92.5t79 -31.5t78.5 31.5z" />
    <glyph glyph-name="seven.tosf" horiz-adv-x="614" 
d="M541 502v-77l-303 -619h-145l285 575h-304v121h467z" />
    <glyph glyph-name="eight.tosf" horiz-adv-x="614" 
d="M532.5 304.5q30.5 -47.5 30.5 -109.5q0 -63 -31.5 -110t-89.5 -73t-135 -26t-135 26t-89.5 73t-31.5 110q0 62 30.5 109.5t87.5 72.5q-43 24 -65.5 63t-22.5 87q0 54 28.5 96.5t80 66.5t117.5 24t117.5 -24t80 -66.5t28.5 -96.5q0 -48 -22.5 -87t-65.5 -63
q57 -25 87.5 -72.5zM238.5 576.5q-26.5 -24.5 -26.5 -66.5t26.5 -66.5t68.5 -24.5t68.5 24.5t26.5 66.5t-26.5 66.5t-68.5 24.5t-68.5 -24.5zM396 129q36 30 36 78t-36 78.5t-89 30.5t-89 -30.5t-36 -78.5t36 -78t89 -30t89 30z" />
    <glyph glyph-name="nine.tosf" horiz-adv-x="614" 
d="M414 485.5q61 -31.5 100.5 -105.5t39.5 -194q0 -132 -38 -220.5t-103.5 -131t-149.5 -42.5q-87 0 -163 41v132h15q56 -51 134 -51q71 0 113.5 44.5t55.5 146.5q-30 -29 -70.5 -44t-83.5 -15q-56 0 -105 25t-79.5 76.5t-30.5 127.5t31 130.5t84.5 83t118.5 28.5
q70 0 131 -31.5zM375.5 184q32.5 31 32.5 90q0 60 -33 90.5t-79 30.5t-78.5 -30.5t-32.5 -90.5q0 -59 33 -90t79 -31t78.5 31z" />
    <glyph glyph-name="zero.dnom" horiz-adv-x="392" 
d="M60 296.5q21 44.5 57 67t79 22.5t78.5 -22.5t56.5 -67t21 -107.5t-21 -107.5t-56.5 -67t-78.5 -22.5t-79 22.5t-57 67t-21 107.5t21 107.5zM151.5 107q17.5 -30 44.5 -30t44 30t17 82t-17 82t-44 30t-44.5 -30t-17.5 -82t17.5 -82z" />
    <glyph glyph-name="one.dnom" horiz-adv-x="258" 
d="M193 378v-378h-90v258q-31 -17 -74 -17v83q35 0 61 14t30 40h73z" />
    <glyph glyph-name="two.dnom" horiz-adv-x="320" 
d="M286 81v-81h-261v56l132 142q28 33 28 61q0 20 -13.5 31t-35.5 11q-28 0 -48 -14.5t-36 -35.5h-9v100q49 35 109 35q55 0 91 -29.5t36 -83.5q0 -34 -15.5 -64t-43.5 -60l-63 -68h129z" />
    <glyph glyph-name="three.dnom" horiz-adv-x="308" 
d="M259.5 164.5q17.5 -24.5 17.5 -59.5q0 -51 -38 -82t-106 -31q-65 0 -111 31v94h11q33 -48 93 -48q30 0 45.5 13t15.5 32q0 21 -19.5 32.5t-56.5 11.5h-25v73h24q64 0 64 40q0 38 -52 38q-45 0 -77 -29h-9v81q41 25 97 25q62 0 96 -28.5t34 -74.5q0 -58 -55 -81
q34 -13 51.5 -37.5z" />
    <glyph glyph-name="four.dnom" horiz-adv-x="345" 
d="M319 73h-43v-73h-92v73h-164v66l169 239h87v-227h43v-78zM187 151v113l-78 -113h78z" />
    <glyph glyph-name="five.dnom" horiz-adv-x="334" 
d="M263 214.5q34 -34.5 34 -91.5q0 -61 -39 -96t-106 -35q-63 0 -117 31v95h10q40 -44 94 -44q28 0 46.5 13t18.5 39t-17.5 38.5t-46.5 12.5q-31 0 -58 -15l-39 12l30 204h203v-79h-138l-9 -56q19 6 44 6q56 0 90 -34.5z" />
    <glyph glyph-name="six.dnom" horiz-adv-x="371" 
d="M298 220q36 -31 36 -93q0 -64 -39 -99.5t-98 -35.5q-65 0 -111.5 42.5t-46.5 140.5q0 103 47 157t125 54q50 0 93 -20v-88h-9q-35 26 -76 26q-36 0 -58.5 -19.5t-30.5 -64.5q30 31 81 31t87 -31zM226.5 88q15.5 14 15.5 40q0 25 -15.5 39t-37.5 14t-37 -14t-15 -39
q0 -26 15 -40t37 -14t37.5 14z" />
    <glyph glyph-name="seven.dnom" horiz-adv-x="319" 
d="M290 378v-53l-158 -325h-97l144 296h-152v82h263z" />
    <glyph glyph-name="eight.dnom" horiz-adv-x="365" 
d="M317.5 166q16.5 -25 16.5 -58q0 -53 -41 -84.5t-111 -31.5t-111 31.5t-41 84.5q0 33 17 58t48 38q-47 26 -47 79q0 45 37 74t97 29q61 0 98 -29t37 -74q0 -53 -48 -79q32 -13 48.5 -38zM150 300.5q-13 -11.5 -13 -29.5q0 -19 13 -30t32 -11t32 11t13 30q0 18 -13 29.5
t-32 11.5t-32 -11.5zM227 80q18 14 18 36q0 21 -18 35t-45 14t-44.5 -14t-17.5 -35q0 -22 17.5 -36t44.5 -14t45 14z" />
    <glyph glyph-name="nine.dnom" horiz-adv-x="371" 
d="M284.5 343.5q46.5 -42.5 46.5 -140.5q0 -104 -47 -157.5t-124 -53.5q-49 0 -94 20v88h10q33 -26 76 -26q36 0 58.5 20t30.5 66q-30 -31 -82 -31q-51 0 -87 30.5t-36 92.5q0 64 38.5 99t98.5 35q65 0 111.5 -42.5zM218.5 213q15.5 13 15.5 38t-15.5 39t-36.5 14
q-22 0 -37.5 -14t-15.5 -39t15.5 -38t37.5 -13q21 0 36.5 13z" />
    <glyph glyph-name="zero.numr" horiz-adv-x="392" 
d="M60 618.5q21 44.5 57 67t79 22.5t78.5 -22.5t56.5 -67t21 -107.5t-21 -107.5t-56.5 -67t-78.5 -22.5t-79 22.5t-57 67t-21 107.5t21 107.5zM151.5 429q17.5 -30 44.5 -30t44 30t17 82t-17 82t-44 30t-44.5 -30t-17.5 -82t17.5 -82z" />
    <glyph glyph-name="one.numr" horiz-adv-x="258" 
d="M193 700v-378h-90v258q-31 -17 -74 -17v83q35 0 61 14t30 40h73z" />
    <glyph glyph-name="two.numr" horiz-adv-x="320" 
d="M286 403v-81h-261v56l132 142q28 33 28 61q0 20 -13.5 31t-35.5 11q-28 0 -48 -14.5t-36 -35.5h-9v100q49 35 109 35q55 0 91 -29.5t36 -83.5q0 -34 -15.5 -64t-43.5 -60l-63 -68h129z" />
    <glyph glyph-name="three.numr" horiz-adv-x="308" 
d="M259.5 486.5q17.5 -24.5 17.5 -59.5q0 -51 -38 -82t-106 -31q-65 0 -111 31v94h11q33 -48 93 -48q30 0 45.5 13t15.5 32q0 21 -19.5 32.5t-56.5 11.5h-25v73h24q64 0 64 40q0 38 -52 38q-45 0 -77 -29h-9v81q41 25 97 25q62 0 96 -28.5t34 -74.5q0 -59 -55 -81
q34 -13 51.5 -37.5z" />
    <glyph glyph-name="four.numr" horiz-adv-x="345" 
d="M319 395h-43v-73h-92v73h-164v66l169 239h87v-227h43v-78zM187 473v113l-78 -113h78z" />
    <glyph glyph-name="five.numr" horiz-adv-x="334" 
d="M263 536.5q34 -34.5 34 -91.5q0 -61 -39 -96t-106 -35q-63 0 -117 31v95h10q40 -44 94 -44q28 0 46.5 13t18.5 39t-17.5 38.5t-46.5 12.5q-31 0 -58 -15l-39 12l30 204h203v-79h-138l-9 -56q20 6 44 6q56 0 90 -34.5z" />
    <glyph glyph-name="six.numr" horiz-adv-x="371" 
d="M298 542q36 -31 36 -93q0 -64 -39 -99.5t-98 -35.5q-65 0 -111.5 42.5t-46.5 140.5q0 103 47 157t125 54q50 0 93 -20v-88h-9q-35 26 -76 26q-36 0 -58.5 -19.5t-30.5 -64.5q30 31 81 31t87 -31zM226.5 410q15.5 14 15.5 40q0 25 -15.5 39t-37.5 14t-37 -14t-15 -39
q0 -26 15 -40t37 -14t37.5 14z" />
    <glyph glyph-name="seven.numr" horiz-adv-x="319" 
d="M290 700v-53l-158 -325h-97l144 296h-152v82h263z" />
    <glyph glyph-name="eight.numr" horiz-adv-x="365" 
d="M317.5 488q16.5 -25 16.5 -58q0 -53 -41 -84.5t-111 -31.5t-111 31.5t-41 84.5q0 33 17 58t48 38q-47 26 -47 79q0 45 37 74t97 29q61 0 98 -29t37 -74q0 -53 -48 -79q32 -13 48.5 -38zM150 622.5q-13 -11.5 -13 -29.5q0 -19 13 -30t32 -11t32 11t13 30q0 18 -13 29.5
t-32 11.5t-32 -11.5zM227 402q18 14 18 36q0 21 -18 35t-45 14t-44.5 -14t-17.5 -35q0 -22 17.5 -36t44.5 -14t45 14z" />
    <glyph glyph-name="nine.numr" horiz-adv-x="371" 
d="M284.5 665.5q46.5 -42.5 46.5 -140.5q0 -104 -47 -157.5t-124 -53.5q-49 0 -94 20v88h10q33 -26 76 -26q36 0 58.5 20t30.5 66q-30 -31 -82 -31q-51 0 -87 30.5t-36 92.5q0 64 38.5 99t98.5 35q65 0 111.5 -42.5zM218.5 535q15.5 13 15.5 38t-15.5 39t-36.5 14
q-22 0 -37.5 -14t-15.5 -39t15.5 -38t37.5 -13q21 0 36.5 13z" />
    <glyph glyph-name="zero.sups" horiz-adv-x="392" 
d="M60 704.5q21 44.5 57 67t79 22.5t78.5 -22.5t56.5 -67t21 -107.5t-21 -107.5t-56.5 -67t-78.5 -22.5t-79 22.5t-57 67t-21 107.5t21 107.5zM151.5 515q17.5 -30 44.5 -30t44 30t17 82t-17 82t-44 30t-44.5 -30t-17.5 -82t17.5 -82z" />
    <glyph glyph-name="one.sups" horiz-adv-x="258" 
d="M193 786v-378h-90v258q-31 -17 -74 -17v83q35 0 61 14t30 40h73z" />
    <glyph glyph-name="two.sups" horiz-adv-x="320" 
d="M286 489v-81h-261v56l132 142q28 33 28 61q0 20 -13.5 31t-35.5 11q-28 0 -48 -14.5t-36 -35.5h-9v100q49 35 109 35q55 0 91 -29.5t36 -83.5q0 -34 -15.5 -64t-43.5 -60l-63 -68h129z" />
    <glyph glyph-name="three.sups" horiz-adv-x="308" 
d="M259.5 572.5q17.5 -24.5 17.5 -59.5q0 -51 -38 -82t-106 -31q-65 0 -111 31v94h11q33 -48 93 -48q30 0 45.5 13t15.5 32q0 21 -19.5 32.5t-56.5 11.5h-25v73h24q64 0 64 40q0 38 -52 38q-45 0 -77 -29h-9v81q41 25 97 25q62 0 96 -28.5t34 -74.5q0 -59 -55 -81
q34 -13 51.5 -37.5z" />
    <glyph glyph-name="four.sups" horiz-adv-x="345" 
d="M319 481h-43v-73h-92v73h-164v66l169 239h87v-227h43v-78zM187 559v113l-78 -113h78z" />
    <glyph glyph-name="five.sups" horiz-adv-x="334" 
d="M263 622.5q34 -34.5 34 -91.5q0 -61 -39 -96t-106 -35q-63 0 -117 31v95h10q40 -44 94 -44q28 0 46.5 13t18.5 39t-17.5 38.5t-46.5 12.5q-31 0 -58 -15l-39 12l30 204h203v-79h-138l-9 -56q20 6 44 6q56 0 90 -34.5z" />
    <glyph glyph-name="six.sups" horiz-adv-x="371" 
d="M298 628q36 -31 36 -93q0 -64 -39 -99.5t-98 -35.5q-65 0 -111.5 42.5t-46.5 140.5q0 103 47 157t125 54q50 0 93 -20v-88h-9q-35 26 -76 26q-36 0 -58.5 -19.5t-30.5 -64.5q30 31 81 31t87 -31zM226.5 496q15.5 14 15.5 40q0 25 -15.5 39t-37.5 14t-37 -14t-15 -39
q0 -26 15 -40t37 -14t37.5 14z" />
    <glyph glyph-name="seven.sups" horiz-adv-x="319" 
d="M290 786v-53l-158 -325h-97l144 296h-152v82h263z" />
    <glyph glyph-name="eight.sups" horiz-adv-x="365" 
d="M317.5 574q16.5 -25 16.5 -58q0 -53 -41 -84.5t-111 -31.5t-111 31.5t-41 84.5q0 33 17 58t48 38q-47 26 -47 79q0 45 37 74t97 29q61 0 98 -29t37 -74q0 -53 -48 -79q32 -13 48.5 -38zM150 708.5q-13 -11.5 -13 -29.5q0 -19 13 -30t32 -11t32 11t13 30q0 18 -13 29.5
t-32 11.5t-32 -11.5zM227 488q18 14 18 36q0 21 -18 35t-45 14t-44.5 -14t-17.5 -35q0 -22 17.5 -36t44.5 -14t45 14z" />
    <glyph glyph-name="nine.sups" horiz-adv-x="371" 
d="M284.5 751.5q46.5 -42.5 46.5 -140.5q0 -104 -47 -157.5t-124 -53.5q-49 0 -94 20v88h10q33 -26 76 -26q36 0 58.5 20t30.5 66q-30 -31 -82 -31q-51 0 -87 30.5t-36 92.5q0 64 38.5 99t98.5 35q65 0 111.5 -42.5zM218.5 621q15.5 13 15.5 38t-15.5 39t-36.5 14
q-22 0 -37.5 -14t-15.5 -39t15.5 -38t37.5 -13q21 0 36.5 13z" />
    <glyph glyph-name="exclamdown.case" horiz-adv-x="324" 
d="M102.5 691q24.5 23 59.5 23t59.5 -23t24.5 -61t-24.5 -61t-59.5 -23t-59.5 23t-24.5 61t24.5 61zM106 470h111l10 -470h-130z" />
    <glyph glyph-name="questiondown.case" horiz-adv-x="482" 
d="M338.5 569q-24.5 -23 -59.5 -23t-59.5 23t-24.5 61t24.5 61t59.5 23t59.5 -23t24.5 -61t-24.5 -61zM440 47q-38 -28 -85.5 -44.5t-99.5 -16.5q-89 0 -147.5 48t-58.5 141q0 60 24.5 100t72.5 81l53 50q24 23 24 60v11h113v-14q0 -53 -14.5 -84t-47.5 -56l-46 -46
q-45 -39 -45 -87q0 -41 26.5 -61.5t69.5 -20.5q83 0 147 78h14v-139z" />
    <glyph glyph-name="braceleft.case" horiz-adv-x="363" 
d="M216.5 391.5q-22.5 -31.5 -67.5 -41.5q45 -10 67.5 -41.5t22.5 -80.5v-157q0 -31 14 -46.5t38 -15.5h39v-99h-63q-60 0 -103.5 32t-43.5 111v164q0 45 -15 66t-52 21h-2v92h2q37 0 52 21t15 66v164q0 79 43.5 111t103.5 32h63v-99h-39q-24 0 -38 -15.5t-14 -46.5v-157
q0 -49 -22.5 -80.5z" />
    <glyph glyph-name="braceright.case" horiz-adv-x="363" 
d="M312 396v-92h-2q-37 0 -52 -21t-15 -66v-164q0 -79 -43.5 -111t-103.5 -32h-62v99h38q24 0 38 15.5t14 46.5v157q0 49 22.5 80.5t67.5 41.5q-45 10 -67.5 41.5t-22.5 80.5v157q0 31 -14 46.5t-38 15.5h-38v99h62q60 0 103.5 -32t43.5 -111v-164q0 -45 15 -66t52 -21h2z
" />
    <glyph glyph-name="bracketleft.case" horiz-adv-x="337" 
d="M209 678v-655h86v-109h-210v873h210v-109h-86z" />
    <glyph glyph-name="bracketright.case" horiz-adv-x="337" 
d="M252 787v-873h-210v109h86v655h-86v109h210z" />
    <glyph glyph-name="parenleft.case" horiz-adv-x="388" 
d="M115 586q54 106 171 217l75 -70q-86 -96 -126.5 -185t-40.5 -198t40.5 -198t126.5 -185l-75 -70q-117 111 -171 217t-54 236t54 236z" />
    <glyph glyph-name="parenright.case" horiz-adv-x="388" 
d="M273.5 114q-53.5 -106 -170.5 -217l-76 70q86 96 126.5 185t40.5 198t-40.5 198t-126.5 185l76 70q117 -111 170.5 -217t53.5 -236t-53.5 -236z" />
    <glyph glyph-name="emdash.case" horiz-adv-x="760" 
d="M684 426v-107h-608v107h608z" />
    <glyph glyph-name="endash.case" horiz-adv-x="589" 
d="M513 426v-107h-437v107h437z" />
    <glyph glyph-name="hyphen.case" horiz-adv-x="439" 
d="M363 426v-107h-287v107h287z" />
    <glyph glyph-name="guillemotleft.case" horiz-adv-x="494" 
d="M345 372l117 -186h-118l-114 186l114 185h118zM139 372l117 -186h-118l-114 186l114 185h118z" />
    <glyph glyph-name="guillemotright.case" horiz-adv-x="494" 
d="M470 372l-114 -186h-118l117 186l-117 185h118zM264 372l-114 -186h-118l117 186l-117 185h118z" />
    <glyph glyph-name="guilsinglleft.case" horiz-adv-x="288" 
d="M139 372l117 -186h-118l-114 186l114 185h118z" />
    <glyph glyph-name="guilsinglright.case" horiz-adv-x="288" 
d="M264 372l-114 -186h-118l117 186l-117 185h118z" />
    <glyph glyph-name="cent.tf" horiz-adv-x="614" 
d="M509 23q-51 -30 -115 -36v-89h-85v92q-97 16 -157.5 84.5t-60.5 176.5t61 177t157 84v93h85v-91q54 -6 108 -35v-120h-11q-63 46 -127 46q-63 0 -106.5 -41.5t-43.5 -112.5t44 -112.5t111 -41.5q73 0 129 49h11v-123z" />
    <glyph glyph-name="dollar.tf" horiz-adv-x="614" 
d="M489 56q-52 -49 -132 -64v-94h-89v88q-52 3 -100.5 17t-86.5 36v142h13q87 -79 193 -79q58 0 88.5 23.5t30.5 58.5q0 28 -17 50t-48 36l-106 43q-71 30 -109 80t-38 119q0 84 51.5 128.5t128.5 55.5v92h89v-90q67 -7 138 -42v-130h-12q-78 58 -164 58q-45 0 -71 -19.5
t-26 -50.5q0 -27 20.5 -48.5t52.5 -34.5l108 -47q69 -28 103.5 -80t34.5 -116q0 -83 -52 -132z" />
    <glyph glyph-name="Euro.tf" horiz-adv-x="614" 
d="M569 195v-151q-81 -58 -172 -58q-109 0 -186.5 66t-101.5 186h-68v80h59q-1 8 -1 25q0 22 1 32h-59v80h70q27 114 103 179.5t178 65.5q90 0 167 -56v-142h-12q-59 76 -143 76q-52 0 -93 -32.5t-62 -90.5h197v-80h-214q-1 -10 -1 -32v-25h215v-80h-200q19 -61 60.5 -95.5
t98.5 -34.5q45 0 84.5 22.5t67.5 64.5h12z" />
    <glyph glyph-name="uni20B4.tf" horiz-adv-x="614" 
d="M377 341l-20 -15h189v-69h-279q-40 -35 -40 -79q0 -36 28 -56t85 -20q88 0 170 64h13v-135q-85 -45 -194 -45q-99 0 -167.5 39.5t-68.5 129.5q0 56 32 102h-57v69h127l36 28l37 28h-200v70h287q31 31 31 67q0 65 -90 65q-78 0 -147 -48h-12v129q87 35 170 35
q86 0 150 -33t64 -123q0 -50 -26 -92h51v-70h-115q-14 -11 -54 -41z" />
    <glyph glyph-name="uni20BD.tf" horiz-adv-x="614" 
d="M248 286v-71h193v-89h-193v-126h-127v126h-79v89h79v71h-79v102h79v298h208q110 0 176 -50t66 -154q0 -101 -62.5 -148.5t-181.5 -47.5h-79zM248 388h77q115 0 115 92q0 51 -32 71t-86 20h-74v-183z" />
    <glyph glyph-name="sterling.tf" horiz-adv-x="614" 
d="M545 116v-116h-472v116h97v167h-76v102h76v115q0 102 60.5 151t153.5 49q74 0 149 -36v-128h-13q-61 48 -120 48q-43 0 -71 -24t-28 -76v-99h182v-102h-182v-167h244z" />
    <glyph glyph-name="yen.tf" horiz-adv-x="614" 
d="M370 332h140v-85h-140v-57h140v-84h-140v-106h-126v106h-140v84h140v57h-140v85h140v7l-226 347h145l145 -239l147 239h142l-227 -346v-8z" />
    <glyph glyph-name="cent.tosf" horiz-adv-x="614" 
d="M509 23q-51 -30 -115 -36v-89h-85v92q-97 16 -157.5 84.5t-60.5 176.5t61 177t157 84v93h85v-91q54 -6 108 -35v-120h-11q-63 46 -127 46q-63 0 -106.5 -41.5t-43.5 -112.5t44 -112.5t111 -41.5q73 0 129 49h11v-123z" />
    <glyph glyph-name="dollar.tosf" horiz-adv-x="614" 
d="M489 56q-52 -49 -132 -64v-94h-89v88q-52 3 -100.5 17t-86.5 36v142h13q87 -79 193 -79q58 0 88.5 23.5t30.5 58.5q0 28 -17 50t-48 36l-106 43q-71 30 -109 80t-38 119q0 84 51.5 128.5t128.5 55.5v92h89v-90q67 -7 138 -42v-130h-12q-78 58 -164 58q-45 0 -71 -19.5
t-26 -50.5q0 -27 20.5 -48.5t52.5 -34.5l108 -47q69 -28 103.5 -80t34.5 -116q0 -83 -52 -132z" />
    <glyph glyph-name="Euro.tosf" horiz-adv-x="614" 
d="M569 195v-151q-81 -58 -172 -58q-109 0 -186.5 66t-101.5 186h-68v80h59q-1 8 -1 25q0 22 1 32h-59v80h70q27 114 103 179.5t178 65.5q90 0 167 -56v-142h-12q-59 76 -143 76q-52 0 -93 -32.5t-62 -90.5h197v-80h-214q-1 -10 -1 -32v-25h215v-80h-200q19 -61 60.5 -95.5
t98.5 -34.5q45 0 84.5 22.5t67.5 64.5h12z" />
    <glyph glyph-name="uni20B4.tosf" horiz-adv-x="614" 
d="M377 341l-20 -15h189v-69h-279q-40 -35 -40 -79q0 -36 28 -56t85 -20q88 0 170 64h13v-135q-85 -45 -194 -45q-99 0 -167.5 39.5t-68.5 129.5q0 56 32 102h-57v69h127l36 28l37 28h-200v70h287q31 31 31 67q0 65 -90 65q-78 0 -147 -48h-12v129q87 35 170 35
q86 0 150 -33t64 -123q0 -50 -26 -92h51v-70h-115q-14 -11 -54 -41z" />
    <glyph glyph-name="uni20BD.tosf" horiz-adv-x="614" 
d="M248 286v-71h193v-89h-193v-126h-127v126h-79v89h79v71h-79v102h79v298h208q110 0 176 -50t66 -154q0 -101 -62.5 -148.5t-181.5 -47.5h-79zM248 388h77q115 0 115 92q0 51 -32 71t-86 20h-74v-183z" />
    <glyph glyph-name="sterling.tosf" horiz-adv-x="614" 
d="M545 116v-116h-472v116h97v167h-76v102h76v115q0 102 60.5 151t153.5 49q74 0 149 -36v-128h-13q-61 48 -120 48q-43 0 -71 -24t-28 -76v-99h182v-102h-182v-167h244z" />
    <glyph glyph-name="yen.tosf" horiz-adv-x="614" 
d="M370 332h140v-85h-140v-57h140v-84h-140v-106h-126v106h-140v84h140v57h-140v85h140v7l-226 347h145l145 -239l147 239h142l-227 -346v-8z" />
    <glyph glyph-name="arrowup.ss01" horiz-adv-x="836" 
d="M235 33q-83 47 -131.5 130t-48.5 187t48.5 187t131.5 130t183 47t183 -47t131.5 -130t48.5 -187t-48.5 -187t-131.5 -130t-183 -47t-183 47zM382 361v-207h72v207h134l-165 192h-10l-165 -192h134z" />
    <glyph glyph-name="uni2197.ss01" horiz-adv-x="836" 
d="M235 33q-83 47 -131.5 130t-48.5 187t48.5 187t131.5 130t183 47t183 -47t131.5 -130t48.5 -187t-48.5 -187t-131.5 -130t-183 -47t-183 47zM287 168l196 196l103 -103v250l-7 8h-251l104 -103l-198 -196z" />
    <glyph glyph-name="arrowright.ss01" horiz-adv-x="836" 
d="M235 32.5q-83 46.5 -131.5 130t-48.5 187.5t48.5 187t131.5 130t183 47t183 -47t131.5 -130t48.5 -187t-48.5 -187t-131.5 -130t-183 -47t-183 46.5zM437 315v-135l192 164v11l-192 165v-135h-226v-70h226z" />
    <glyph glyph-name="uni2198.ss01" horiz-adv-x="836" 
d="M601 667q83 -47 131.5 -130t48.5 -187t-48.5 -187t-131.5 -130t-183 -47t-183 47t-131.5 130t-48.5 187t48.5 187t131.5 130t183 47t183 -47zM432 284l-104 -103h251l7 8v250l-103 -103l-196 196l-53 -52z" />
    <glyph glyph-name="arrowdown.ss01" horiz-adv-x="836" 
d="M601 667q83 -47 131.5 -130t48.5 -187t-48.5 -187t-131.5 -130t-183 -47t-183 47t-131.5 130t-48.5 187t48.5 187t131.5 130t183 47t183 -47zM413 147h10l165 192h-134v207h-72v-207h-134z" />
    <glyph glyph-name="uni2199.ss01" horiz-adv-x="836" 
d="M601 667q83 -47 131.5 -130t48.5 -187t-48.5 -187t-131.5 -130t-183 -47t-183 47t-131.5 130t-48.5 187t48.5 187t131.5 130t183 47t183 -47zM548 532l-195 -196l-103 103v-250l7 -8h250l-103 103l197 196z" />
    <glyph glyph-name="arrowleft.ss01" horiz-adv-x="836" 
d="M235 33q-83 47 -131.5 130t-48.5 187t48.5 187t131.5 130t183 47t183 -47t131.5 -130t48.5 -187t-48.5 -187.5t-131.5 -130t-183 -46.5t-183 47zM625 385h-226v135l-192 -165v-11l192 -164v135h226v70z" />
    <glyph glyph-name="uni2196.ss01" horiz-adv-x="836" 
d="M235 33q-83 47 -131.5 130t-48.5 187t48.5 187t131.5 130t183 47t183 -47t131.5 -130t48.5 -187t-48.5 -187t-131.5 -130t-183 -47t-183 47zM404 416l103 103h-250l-7 -8v-250l103 103l195 -196l53 52z" />
    <glyph glyph-name="arrowboth.ss01" horiz-adv-x="836" 
d="M235 33q-83 47 -131.5 130t-48.5 187t48.5 187t131.5 130t183 47t183 -47t131.5 -130t48.5 -187t-48.5 -187t-131.5 -130t-183 -47t-183 47zM335 180v135h165v-135l193 165v10l-193 165v-136h-165v136l-192 -165v-10z" />
    <glyph glyph-name="arrowupdn.ss01" horiz-adv-x="836" 
d="M235 33q-83 47 -131.5 130t-48.5 187t48.5 187t131.5 130t183 47t183 -47t131.5 -130t48.5 -187t-48.5 -187t-131.5 -130t-183 -47t-183 47zM413 94h10l165 192h-134v128h134l-165 192h-10l-165 -192h134v-128h-134z" />
    <glyph glyph-name="at.case" horiz-adv-x="981" 
d="M703.5 748.5q101.5 -45.5 166 -140t64.5 -233.5q0 -121 -46 -187.5t-124 -66.5q-43 0 -76.5 22t-44.5 56q-29 -37 -72.5 -57.5t-93.5 -20.5q-59 0 -109 27t-80 78.5t-30 123.5t30 123.5t79 78.5t106 27q45 0 82.5 -17t62.5 -51v54h99v-265q0 -92 61 -92q39 0 64 39.5
t25 123.5q0 121 -54 202t-139.5 119.5t-183.5 38.5q-104 0 -190 -47t-136 -134t-50 -200t50 -200t136 -134t190 -47q110 0 213 45h10v-68q-109 -40 -223 -40q-124 0 -225 54.5t-160 155.5t-59 234t59 234t160 155.5t225 54.5q112 0 213.5 -45.5zM577.5 259q35.5 32 35.5 91
t-35.5 91t-85.5 32t-85 -32t-35 -91t35 -91t85 -32t85.5 32z" />
    <glyph glyph-name="uni0308.case" 
d="M-384 881.5q20 18.5 51 18.5q30 0 50.5 -18.5t20.5 -49.5t-20.5 -49.5t-50.5 -18.5q-31 0 -51 18.5t-20 49.5t20 49.5zM-161 881.5q20 18.5 51 18.5q30 0 50 -18.5t20 -49.5t-20 -49.5t-50 -18.5q-31 0 -51 18.5t-20 49.5t20 49.5z" />
    <glyph glyph-name="uni0307.case" 
d="M-174.5 889.5q22.5 19.5 55.5 19.5t56 -19.5t23 -51.5t-23 -51.5t-56 -19.5t-55.5 19.5t-22.5 51.5t22.5 51.5z" />
    <glyph glyph-name="gravecomb.case" 
d="M-257 910h137l80 -152h-106z" />
    <glyph glyph-name="acutecomb.case" 
d="M-257 758l79 152h138l-112 -152h-105z" />
    <glyph glyph-name="uni030B.case" 
d="M-416 758l78 152h116l-101 -152h-93zM-261 758l101 152h120l-123 -152h-98z" />
    <glyph glyph-name="uni0302.case" 
d="M-141 762l-68 63l-70 -63h-98l120 135h97l120 -135h-101z" />
    <glyph glyph-name="uni030C.case" 
d="M-40 897l-120 -135h-97l-120 135h101l68 -63l70 63h98z" />
    <glyph glyph-name="uni0306.case" 
d="M-40 904v-9q0 -73 -42 -109t-116 -36q-75 0 -116.5 36t-41.5 109v9h87v-11q0 -26 18.5 -40t52.5 -14t53 14t19 40v11h86z" />
    <glyph glyph-name="uni030A.case" 
d="M-72.5 907q32.5 -26 32.5 -71q0 -46 -32.5 -72t-79.5 -26t-79 26t-32 72q0 45 32 71t79 26t79.5 -26zM-119 806q13 11 13 30q0 18 -13 29.5t-33 11.5t-33 -11.5t-13 -29.5t13 -29.5t33 -11.5t33 11z" />
    <glyph glyph-name="tildecomb.case" 
d="M-40 892q-1 -66 -30 -101.5t-70 -35.5q-24 0 -41.5 8t-31 17.5t-17.5 12.5q-17 14 -34 14q-31 0 -35 -42h-73q1 65 30 100.5t70 35.5q25 0 42.5 -9t47.5 -29q20 -13 34 -13q31 0 35 42h73z" />
    <glyph glyph-name="uni0304.case" 
d="M-322 779v92h282v-92h-282z" />
    <glyph glyph-name="uni0312.case" 
d="M-206 753l73 187h93l-45 -187h-121z" />
    <glyph glyph-name="uni0326.case" 
d="M-40 -54l-73 -187h-93l46 187h120z" />
    <glyph glyph-name="uni0327.case" 
d="M-235 -126q28 -8 45 -8q23 0 36.5 12.5t13.5 37.5q0 41 -28 84h85q43 -53 43 -107q0 -51 -35 -78.5t-86 -27.5q-32 0 -74 13v74z" />
    <glyph glyph-name="uni0328.case" 
d="M-134 0h85q-41 -22 -62.5 -47.5t-21.5 -50.5q0 -35 39 -35q21 0 54 14v-77q-40 -17 -80 -17q-47 0 -80 21.5t-33 65.5q0 71 99 126z" />
    <glyph glyph-name="uni0335.case" 
d="M-402 422h362v-111h-362v111z" />
    <glyph glyph-name="uni0336.case" 
d="M-771 618h731v-88h-731v88z" />
    <glyph glyph-name="uni0337.case" 
d="M-397 278l357 194v-111l-357 -194v111z" />
    <glyph glyph-name="uni0338.case" 
d="M-589 -144l-69 49l549 757l69 -49z" />
    <glyph glyph-name="brevecombcy" 
d="M-40 736v-17q0 -80 -44 -117.5t-122 -37.5q-77 0 -121 37.5t-44 117.5v17h99v-22q0 -35 17.5 -53.5t48.5 -18.5t49 18.5t18 53.5v22h99z" />
    <glyph glyph-name="brevecombcy.case" 
d="M-40 908v-10q0 -77 -47 -114.5t-129 -37.5q-83 0 -129.5 37.5t-46.5 114.5v10h104v-15q0 -31 18.5 -49t53.5 -18q34 0 52.5 18t18.5 49v15h105z" />
    <glyph glyph-name="russianfonts" horiz-adv-x="614" 
d="M67 99q12 -51 32 -80.5t41 -29.5q38 0 85.5 44.5t88.5 121.5q41 78 60 148q2 6 8 31v-288l-34 -23v-23h173v23l-35 23v322l35 24v23h-139q-6 -22 -16 -49l-33 -91q-51 -128 -97 -176q-28 -30 -43 -30q-8 0 -8 40q0 47 17 115q17 65 54 127.5t77 94.5q37 30 73 39.5
t92 9.5h23v6q0 33 -16 72q-17 44 -48 72t-69 28q-66 0 -143 -46q-84 -49 -137.5 -155t-53.5 -259q0 -65 13 -114z" />
    </font>
</defs>
</svg>
