<svg width="100%" height="100%" viewBox="0 0 1009 822" fill="none" 
	xmlns="http://www.w3.org/2000/svg">
	<path class="morthing" d="M870.323 157.955C870.323 157.955 765.935 20.5731 564.994 2.10378C364.053 -16.3655 308.7 116.462 239.192 184.267C169.432 252.325 24.0971 302.167 12.9759 466.114C1.85458 630.061 90.5718 713.047 213.916 709.758C337.261 706.469 375.174 734.552 479.815 790.972C584.203 847.392 758.352 824.116 840.497 739.612C922.643 655.109 984.568 613.616 1001.76 456.247C1019.2 298.878 870.323 157.955 870.323 157.955Z" fill="#F0E5F4"/>
	<path d="M201.952 195.905L269.69 660.928C270.701 667 112.729 723.673 106.916 725.444L93.014 726.203C84.1676 726.456 77.8487 722.661 76.8377 715.071L12.1323 222.218C11.374 216.905 15.1653 211.844 20.4732 211.085L191.083 187.303C196.391 186.797 201.193 190.592 201.952 195.905Z" fill="white" stroke="#263238" stroke-miterlimit="10" stroke-linecap="round" stroke-linejoin="round"/>
	<path d="M221.413 193.375L289.152 658.398C290.163 664.47 286.372 670.289 280.305 672.313L112.476 723.926C105.146 726.203 97.3103 721.143 96.2993 713.553L31.3411 219.688C30.5829 214.375 34.3742 209.314 39.6821 208.555L210.292 184.773C215.6 184.267 220.655 188.062 221.413 193.375Z" fill="#263238" stroke="#263238" stroke-miterlimit="10" stroke-linecap="round" stroke-linejoin="round"/>
	<path d="M208.271 205.519L55.6063 231.579L113.993 680.915L269.943 632.338L208.271 205.519Z" fill="#263238" stroke="#263238" stroke-miterlimit="10" stroke-linecap="round" stroke-linejoin="round"/>
	<path d="M817.663 195.905L749.924 660.928C748.913 667 906.885 723.673 912.699 725.444L926.6 726.203C935.447 726.456 941.766 722.661 942.777 715.071L1007.48 222.218C1008.24 216.905 1004.45 211.844 999.141 211.085L828.531 187.303C823.476 186.797 818.674 190.592 817.663 195.905Z" fill="white" stroke="#263238" stroke-miterlimit="10" stroke-linecap="round" stroke-linejoin="round"/>
	<path d="M798.454 193.375L730.715 658.398C729.704 664.47 733.496 670.289 739.562 672.313L907.392 723.926C914.722 726.203 922.557 721.143 923.568 713.553L988.273 219.688C989.032 214.375 985.24 209.314 979.932 208.555L809.322 184.773C804.267 184.267 799.212 188.062 798.454 193.375Z" fill="#CCA9D9" stroke="#263238" stroke-miterlimit="10" stroke-linecap="round" stroke-linejoin="round"/>
	<path d="M811.597 205.519L964.261 231.579L905.622 680.915L749.924 632.338L811.597 205.519Z" fill="#CCA9D9"/>
	<path d="M124.356 416.778C133.202 405.393 144.829 398.309 157.467 398.309C185.27 398.309 207.765 431.453 207.765 472.186C207.765 506.848 191.336 535.944 169.346 543.787" stroke="#CCA9D9" stroke-miterlimit="10" stroke-linecap="round" stroke-linejoin="round"/>
	<path d="M112.982 438.031C114.751 432.971 117.026 428.417 119.554 424.116" stroke="#CCA9D9" stroke-miterlimit="10" stroke-linecap="round" stroke-linejoin="round"/>
	<path d="M157.467 546.064C129.664 546.064 107.169 512.92 107.169 472.186C107.169 463.078 108.18 454.476 110.455 446.38" stroke="#CCA9D9" stroke-miterlimit="10" stroke-linecap="round" stroke-linejoin="round"/>
	<path d="M878.073 409.188C869.227 397.803 857.6 390.719 844.962 390.719C817.159 390.719 794.664 423.862 794.664 464.596C794.664 499.258 811.093 528.353 833.083 536.196" stroke="#263238" stroke-miterlimit="10" stroke-linecap="round" stroke-linejoin="round"/>
	<path d="M889.448 430.441C887.679 425.381 885.404 420.827 882.876 416.526" stroke="#263238" stroke-miterlimit="10" stroke-linecap="round" stroke-linejoin="round"/>
	<path d="M844.963 538.473C872.766 538.473 895.261 505.33 895.261 464.596C895.261 455.488 894.25 446.886 891.976 438.79" stroke="#263238" stroke-miterlimit="10" stroke-linecap="round" stroke-linejoin="round"/>
	<path d="M787.081 218.17C787.081 218.17 808.06 188.062 841.423 197.676C875.04 207.29 892.227 230.314 889.7 254.096C887.172 278.132 881.106 306.468 897.788 312.793C914.47 318.865 939.493 310.263 953.141 329.492C966.79 348.973 972.604 378.827 952.636 404.381C932.668 429.934 888.942 436.512 855.831 416.525C822.72 396.538 799.466 371.237 798.708 334.552C798.202 297.866 808.818 281.168 806.29 260.168C803.763 239.169 798.202 237.651 798.202 237.651L787.081 218.17Z" fill="#263238" stroke="#263238" stroke-miterlimit="10" stroke-linecap="round" stroke-linejoin="round"/>
	<path d="M836.369 250.048C844.71 268.011 830.05 307.227 828.786 322.913C825.5 365.418 842.435 402.104 889.195 409.694C935.954 417.284 954.658 379.08 949.603 360.358C946.065 347.202 925.844 350.997 924.075 368.96C922.306 386.924 939.493 377.562 940.251 374.02" stroke="white" stroke-width="0.75" stroke-miterlimit="10" stroke-linecap="round" stroke-linejoin="round"/>
	<path d="M793.148 241.193C793.148 241.193 812.105 231.831 829.292 242.458" stroke="white" stroke-width="0.75" stroke-miterlimit="10" stroke-linecap="round" stroke-linejoin="round"/>
	<path d="M906.38 383.381C911.435 381.863 914.721 380.092 914.721 380.092" stroke="white" stroke-width="0.75" stroke-miterlimit="10" stroke-linecap="round" stroke-linejoin="round"/>
	<path d="M787.081 237.651C787.081 237.651 814.379 216.399 844.962 223.989C875.545 231.579 877.315 273.325 866.194 298.878C855.072 324.432 850.017 355.804 868.721 375.538C877.062 384.394 887.172 386.165 895.766 385.406" stroke="white" stroke-width="0.75" stroke-miterlimit="10" stroke-linecap="round" stroke-linejoin="round"/>
	<path d="M758.012 329.745C758.012 329.745 735.012 325.697 723.89 331.769C712.769 337.841 648.064 386.165 648.064 386.165L593.216 344.672V371.743C593.216 371.743 631.382 417.537 642.503 420.573C653.624 423.609 731.979 380.346 731.979 380.346C731.979 380.346 728.945 422.597 734.001 431.705C739.056 440.814 763.573 448.404 783.288 457.259C803.256 465.861 823.982 489.897 836.114 495.463C848.246 501.029 858.104 499.511 866.697 475.475C875.291 451.44 864.675 435.754 861.642 429.175C858.609 422.597 838.641 388.442 821.454 364.912C804.519 341.636 758.012 329.745 758.012 329.745Z" fill="white"/>
	<path d="M835.861 471.68C828.531 462.825 839.905 451.44 848.752 444.103C857.598 436.766 809.069 442.585 806.794 438.537C804.267 434.489 817.41 427.151 824.487 420.826C831.817 414.248 803.003 427.91 786.574 418.296C769.892 408.682 759.782 411.718 759.782 411.718C759.782 411.718 777.475 387.43 781.519 372.755C785.563 358.081 778.991 355.804 778.991 355.804L774.189 335.058C764.584 331.516 757.76 329.745 757.76 329.745C757.76 329.745 734.759 325.697 723.638 331.769C712.516 337.841 647.811 386.165 647.811 386.165L593.216 344.672V371.743C593.216 371.743 631.382 417.537 642.503 420.573C653.624 423.609 731.979 380.346 731.979 380.346C731.979 380.346 728.946 422.597 734.001 431.706C739.056 440.814 763.573 448.404 783.288 457.259C803.256 465.861 823.982 489.897 836.114 495.463C845.971 500.017 854.312 499.764 861.642 486.861C854.06 481.8 840.664 477.499 835.861 471.68Z" fill="#CCA9D9"/>
	<path opacity="0.5" d="M835.861 471.68C828.531 462.825 839.905 451.44 848.752 444.103C857.598 436.766 809.069 442.585 806.794 438.537C804.267 434.489 817.41 427.151 824.487 420.826C831.817 414.248 803.003 427.91 786.574 418.296C769.892 408.682 759.782 411.718 759.782 411.718C759.782 411.718 777.475 387.43 781.519 372.755C785.563 358.081 778.991 355.804 778.991 355.804L774.189 335.058C764.584 331.516 757.76 329.745 757.76 329.745C757.76 329.745 734.759 325.697 723.638 331.769C712.516 337.841 647.811 386.165 647.811 386.165L593.216 344.672V371.743C593.216 371.743 631.382 417.537 642.503 420.573C653.624 423.609 731.979 380.346 731.979 380.346C731.979 380.346 728.946 422.597 734.001 431.706C739.056 440.814 763.573 448.404 783.288 457.259C803.256 465.861 823.982 489.897 836.114 495.463C845.971 500.017 854.312 499.764 861.642 486.861C854.06 481.8 840.664 477.499 835.861 471.68Z" fill="white"/>
	<path d="M758.012 329.745C758.012 329.745 735.012 325.697 723.89 331.769C712.769 337.841 648.064 386.165 648.064 386.165L593.216 344.672V371.743C593.216 371.743 631.382 417.537 642.503 420.573C653.624 423.609 731.979 380.346 731.979 380.346C731.979 380.346 728.946 422.597 734.001 431.705C739.056 440.814 763.573 448.404 783.288 457.259C803.256 465.861 823.982 489.897 836.114 495.463C848.246 501.029 858.104 499.511 866.697 475.475C875.291 451.44 864.675 435.754 861.642 429.175C858.609 422.597 838.641 388.442 821.454 364.912C804.519 341.636 758.012 329.745 758.012 329.745Z" stroke="#263238" stroke-miterlimit="10" stroke-linecap="round" stroke-linejoin="round"/>
	<path d="M803.255 427.91C803.255 427.91 823.475 426.645 837.377 419.055" stroke="#263238" stroke-miterlimit="10" stroke-linecap="round" stroke-linejoin="round"/>
	<path d="M796.936 432.97C796.936 432.97 824.739 436.765 846.223 432.97" stroke="#263238" stroke-miterlimit="10" stroke-linecap="round" stroke-linejoin="round"/>
	<path d="M707.208 362.129L732.231 380.345L688.251 368.454" stroke="#263238" stroke-miterlimit="10" stroke-linecap="round" stroke-linejoin="round"/>
	<path d="M749.166 334.805C749.166 334.805 744.869 355.551 751.694 369.213C758.518 382.875 768.881 386.417 776.716 376.044C784.552 365.671 786.068 340.624 772.419 333.793C758.518 327.214 751.694 331.516 749.166 334.805Z" fill="#263238" stroke="#263238" stroke-miterlimit="10" stroke-linecap="round" stroke-linejoin="round"/>
	<path d="M246.183 308.998C246.183 308.998 233.545 304.444 210.039 327.467C186.533 350.491 163.027 373.008 148.367 398.562C133.707 424.115 126.377 461.56 124.608 484.583C122.839 507.354 145.081 532.907 175.412 524.052C193.105 518.739 252.249 439.042 261.601 426.392C270.953 413.742 280.305 398.309 280.305 398.309C280.305 398.309 329.593 444.356 347.285 452.452C365.231 460.548 393.287 455.235 393.287 455.235L394.551 424.874C394.551 424.874 368.264 420.32 365.989 419.055C363.715 417.79 325.801 374.779 306.086 350.997C286.371 327.214 272.975 312.54 263.118 308.998C253.26 304.95 246.183 308.998 246.183 308.998Z" fill="white"/>
	<path d="M306.087 350.744C291.68 333.539 280.811 321.142 272.217 314.058C271.712 314.058 270.954 314.311 270.448 314.311C242.898 319.624 227.48 368.454 227.48 368.454C227.48 368.454 225.963 392.995 223.688 403.368C221.414 413.742 199.929 381.863 199.929 389.959C199.929 398.055 215.6 412.983 217.622 416.019C219.897 419.055 211.051 413.742 206.501 412.224C201.951 410.706 189.314 449.415 185.017 456.752C180.467 464.09 130.169 482.812 133.707 487.872C137.499 493.185 166.313 481.294 166.313 481.294C166.313 481.294 158.983 490.908 141.796 499.763C137.499 502.04 133.96 505.329 131.433 508.871C140.026 521.269 155.95 529.365 175.159 523.799C192.852 518.486 251.997 438.789 261.349 426.139C270.701 413.489 280.053 398.055 280.053 398.055C280.053 398.055 329.34 444.102 347.033 452.198C364.979 460.295 393.035 454.981 393.035 454.981L394.298 424.621C394.298 424.621 368.012 420.067 365.737 418.802C363.715 417.284 325.802 374.273 306.087 350.744Z" fill="#CCA9D9"/>
	<path opacity="0.5" d="M306.087 350.744C291.68 333.539 280.811 321.142 272.217 314.058C271.712 314.058 270.954 314.311 270.448 314.311C242.898 319.624 227.48 368.454 227.48 368.454C227.48 368.454 225.963 392.995 223.688 403.368C221.414 413.742 199.929 381.863 199.929 389.959C199.929 398.055 215.6 412.983 217.622 416.019C219.897 419.055 211.051 413.742 206.501 412.224C201.951 410.706 189.314 449.415 185.017 456.752C180.467 464.09 130.169 482.812 133.707 487.872C137.499 493.185 166.313 481.294 166.313 481.294C166.313 481.294 158.983 490.908 141.796 499.763C137.499 502.04 133.96 505.329 131.433 508.871C140.026 521.269 155.95 529.365 175.159 523.799C192.852 518.486 251.997 438.789 261.349 426.139C270.701 413.489 280.053 398.055 280.053 398.055C280.053 398.055 329.34 444.102 347.033 452.198C364.979 460.295 393.035 454.981 393.035 454.981L394.298 424.621C394.298 424.621 368.012 420.067 365.737 418.802C363.715 417.284 325.802 374.273 306.087 350.744Z" fill="white"/>
	<path d="M246.183 308.998C246.183 308.998 233.545 304.444 210.039 327.467C186.533 350.491 163.027 373.008 148.367 398.562C133.707 424.115 126.377 461.56 124.608 484.583C122.839 507.354 145.081 532.907 175.412 524.052C193.105 518.739 252.249 439.042 261.601 426.392C270.953 413.742 280.305 398.309 280.305 398.309C280.305 398.309 329.593 444.356 347.285 452.452C365.231 460.548 393.287 455.235 393.287 455.235L394.551 424.874C394.551 424.874 368.264 420.32 365.989 419.055C363.715 417.79 325.801 374.779 306.086 350.997C286.371 327.214 272.975 312.54 263.118 308.998C253.26 304.95 246.183 308.998 246.183 308.998Z" stroke="#263238" stroke-miterlimit="10" stroke-linecap="round" stroke-linejoin="round"/>
	<path d="M146.092 453.21C146.092 453.21 158.73 459.536 171.368 450.68" stroke="#263238" stroke-miterlimit="10" stroke-linecap="round" stroke-linejoin="round"/>
	<path d="M133.455 472.186C133.455 472.186 166.313 473.451 181.478 453.21" stroke="#263238" stroke-miterlimit="10" stroke-linecap="round" stroke-linejoin="round"/>
	<path d="M311.647 381.104L280.053 398.055L320.494 393.754" stroke="#263238" stroke-miterlimit="10" stroke-linecap="round" stroke-linejoin="round"/>
	<path d="M241.127 304.697C241.127 304.697 217.874 316.841 217.116 326.203C216.357 335.564 214.841 350.997 220.654 368.201C226.72 385.406 237.589 397.55 242.644 396.538C247.699 395.779 262.359 381.105 264.128 347.455C265.897 314.311 255.535 304.697 241.127 304.697Z" fill="#263238" stroke="#263238" stroke-miterlimit="10" stroke-linecap="round" stroke-linejoin="round"/>
	<path d="M633.658 271.047H377.111V537.967H633.658V271.047Z" fill="#263238" stroke="#263238" stroke-miterlimit="10" stroke-linecap="round" stroke-linejoin="round"/>
	<path d="M622.537 282.433H387.979V526.582H622.537V282.433Z" fill="white" stroke="#263238" stroke-miterlimit="10" stroke-linecap="round" stroke-linejoin="round"/>
	<path d="M532.051 266.746C532.051 266.746 527.501 263.963 524.973 267.758C522.193 271.3 518.655 277.119 520.171 280.408C521.435 283.444 525.984 277.625 528.765 274.589C531.292 271.3 531.545 270.288 532.051 266.746Z" fill="white" stroke="#263238" stroke-miterlimit="10" stroke-linecap="round" stroke-linejoin="round"/>
	<path d="M539.128 265.481C539.128 265.481 534.579 261.433 532.051 266.746C529.271 272.059 530.788 284.709 533.062 285.974C535.337 287.24 536.601 286.986 538.37 280.155C540.139 273.577 540.898 270.794 539.128 265.481Z" fill="white" stroke="#263238" stroke-miterlimit="10" stroke-linecap="round" stroke-linejoin="round"/>
	<path d="M546.459 264.976C546.459 264.976 541.909 260.928 539.382 266.241C536.602 271.554 538.118 284.204 540.393 285.469C542.668 286.734 543.931 286.481 545.701 279.65C547.217 273.072 548.228 270.289 546.459 264.976Z" fill="white" stroke="#263238" stroke-miterlimit="10" stroke-linecap="round" stroke-linejoin="round"/>
	<path d="M553.534 264.469C553.534 264.469 548.985 260.421 546.457 265.734C543.677 271.047 545.193 283.698 547.468 284.963C549.743 286.228 551.007 285.975 552.776 279.144C554.545 272.565 555.303 270.035 553.534 264.469Z" fill="white" stroke="#263238" stroke-miterlimit="10" stroke-linecap="round" stroke-linejoin="round"/>
	<path d="M568.195 546.822L577.547 539.485" stroke="#263238" stroke-miterlimit="10" stroke-linecap="round" stroke-linejoin="round"/>
	<path d="M253.262 295.083C253.262 295.083 243.91 306.215 237.085 313.046C230.261 319.878 227.228 319.878 227.228 332.781C227.228 345.684 232.789 379.334 240.877 381.105C248.965 382.876 281.823 334.299 281.823 334.299L270.196 289.517C270.196 289.264 257.811 289.011 253.262 295.083Z" fill="white"/>
	<path d="M259.833 332.022C257.053 351.503 248.207 363.901 236.833 377.057C238.096 379.081 239.613 380.599 240.877 380.852C248.965 382.623 281.823 334.046 281.823 334.046L273.988 303.939L267.921 298.625C267.921 298.625 262.866 311.276 259.833 332.022Z" fill="#CCA9D9"/>
	<path opacity="0.5" d="M259.833 332.022C257.053 351.503 248.207 363.901 236.833 377.057C238.096 379.081 239.613 380.599 240.877 380.852C248.965 382.623 281.823 334.046 281.823 334.046L273.988 303.939L267.921 298.625C267.921 298.625 262.866 311.276 259.833 332.022Z" fill="white"/>
	<path d="M253.262 295.083C253.262 295.083 243.91 306.215 237.085 313.046C230.261 319.878 227.228 319.878 227.228 332.781C227.228 345.684 232.789 379.334 240.877 381.105C248.965 382.876 281.823 334.299 281.823 334.299L270.196 289.517C270.196 289.264 257.811 289.011 253.262 295.083Z" stroke="#263238" stroke-miterlimit="10" stroke-linecap="round" stroke-linejoin="round"/>
	<path d="M330.099 261.939C332.121 267.252 332.627 273.578 332.627 281.168C332.627 290.023 329.846 297.613 331.363 301.661C332.627 305.709 339.451 311.022 337.682 315.07C335.913 319.118 325.55 321.395 325.55 322.66C325.55 323.925 318.472 340.624 313.923 347.708C309.373 354.792 298.758 351.756 283.087 345.431C267.416 339.106 265.141 327.468 263.372 319.877C261.602 312.287 264.636 285.469 265.647 266.24C266.152 256.12 268.174 248.783 278.284 244.229C291.175 238.41 307.098 240.434 318.725 248.277C324.539 252.831 328.077 257.132 330.099 261.939Z" fill="white"/>
	<path d="M332.374 281.167C332.374 273.324 332.121 267.252 329.847 261.939C327.825 256.879 324.286 252.578 318.22 248.53C308.868 242.205 296.988 239.675 286.12 241.952L287.889 259.409C287.889 259.409 299.769 261.686 310.132 269.023C320.495 276.36 321.253 284.709 318.978 298.119C316.703 311.275 322.517 315.829 316.703 329.238C310.89 342.647 311.395 346.443 299.01 346.443C286.373 346.443 272.977 334.551 267.163 326.455C265.647 324.178 264.383 322.407 263.119 321.142C263.625 323.672 264.383 326.708 265.647 329.997C266.405 331.515 267.416 333.286 268.174 334.804C270.955 339.105 275.251 343.153 282.581 346.19C298.252 352.515 308.868 355.551 313.417 348.467C317.967 341.382 325.044 324.684 325.044 323.419C325.044 322.154 335.407 319.877 337.176 315.829C338.946 311.781 332.374 306.468 330.858 302.42C329.847 297.866 332.374 290.275 332.374 281.167Z" fill="#CCA9D9"/>
	<path opacity="0.5" d="M332.374 281.167C332.374 273.324 332.121 267.252 329.847 261.939C327.825 256.879 324.286 252.578 318.22 248.53C308.868 242.205 296.988 239.675 286.12 241.952L287.889 259.409C287.889 259.409 299.769 261.686 310.132 269.023C320.495 276.36 321.253 284.709 318.978 298.119C316.703 311.275 322.517 315.829 316.703 329.238C310.89 342.647 311.395 346.443 299.01 346.443C286.373 346.443 272.977 334.551 267.163 326.455C265.647 324.178 264.383 322.407 263.119 321.142C263.625 323.672 264.383 326.708 265.647 329.997C266.405 331.515 267.416 333.286 268.174 334.804C270.955 339.105 275.251 343.153 282.581 346.19C298.252 352.515 308.868 355.551 313.417 348.467C317.967 341.382 325.044 324.684 325.044 323.419C325.044 322.154 335.407 319.877 337.176 315.829C338.946 311.781 332.374 306.468 330.858 302.42C329.847 297.866 332.374 290.275 332.374 281.167Z" fill="white"/>
	<path d="M330.099 261.939C332.121 267.252 332.627 273.578 332.627 281.168C332.627 290.023 329.846 297.613 331.363 301.661C332.627 305.709 339.451 311.022 337.682 315.07C335.913 319.118 325.55 321.395 325.55 322.66C325.55 323.925 318.472 340.624 313.923 347.708C309.373 354.792 298.758 351.756 283.087 345.431C267.416 339.106 265.141 327.468 263.372 319.877C261.602 312.287 264.636 285.469 265.647 266.24C266.152 256.12 268.174 248.783 278.284 244.229C291.175 238.41 307.098 240.434 318.725 248.277C324.539 252.831 328.077 257.132 330.099 261.939Z" stroke="#263238" stroke-miterlimit="10" stroke-linecap="round" stroke-linejoin="round"/>
	<path d="M321.506 298.119C321.253 301.155 320.242 303.685 318.978 303.685C317.715 303.685 316.956 301.155 317.209 297.866C317.462 294.83 318.473 292.3 319.737 292.3C320.748 292.553 321.506 295.083 321.506 298.119Z" fill="#1C1C1A"/>
	<path d="M297.494 317.6C297.494 317.6 298.757 325.696 309.626 326.455" stroke="#263238" stroke-miterlimit="10" stroke-linecap="round" stroke-linejoin="round"/>
	<path d="M312.407 286.228C312.407 286.228 318.22 279.397 325.803 283.445" stroke="#263238" stroke-miterlimit="10" stroke-linecap="round" stroke-linejoin="round"/>
	<path d="M263.624 289.011C263.624 289.011 270.701 292.553 272.217 287.24C273.481 281.927 272.976 278.638 276.514 277.373C280.053 276.108 292.943 274.59 291.174 266.494C289.405 258.397 285.866 257.132 291.68 254.602C297.493 251.819 307.603 257.638 323.274 264.723C338.945 271.807 354.11 264.723 359.418 255.361C364.726 246 361.693 217.411 340.967 217.411C327.318 217.411 324.032 222.471 320.999 223.736C317.966 225.001 293.954 211.339 268.679 216.905C243.151 222.218 237.337 258.397 240.876 269.783C244.414 280.915 246.942 302.42 263.624 289.011Z" fill="#263238" stroke="#263238" stroke-miterlimit="10" stroke-linecap="round" stroke-linejoin="round"/>
	<path d="M345.516 254.349C343.747 256.626 340.967 258.397 336.67 258.903C320.493 260.674 304.317 247.012 289.152 241.952C273.734 236.892 249.216 243.723 241.634 258.903C241.634 258.903 255.283 246.253 276.514 255.614" stroke="white" stroke-width="0.75" stroke-miterlimit="10" stroke-linecap="round" stroke-linejoin="round"/>
	<path d="M347.791 236.892C347.791 236.892 349.055 241.952 348.297 247.265" stroke="white" stroke-width="0.75" stroke-miterlimit="10" stroke-linecap="round" stroke-linejoin="round"/>
	<path d="M267.163 294.83C267.163 294.83 263.118 276.108 257.811 273.325C252.503 270.542 244.92 271.048 243.909 284.963C242.898 298.878 250.733 305.456 254.525 306.468C258.569 307.48 264.888 303.685 264.888 303.685" fill="white"/>
	<path d="M267.163 294.83C267.163 294.83 263.118 276.108 257.811 273.325C252.503 270.542 244.92 271.048 243.909 284.963C242.898 298.878 250.733 305.456 254.525 306.468C258.569 307.48 264.888 303.685 264.888 303.685" stroke="#263238" stroke-miterlimit="10" stroke-linecap="round" stroke-linejoin="round"/>
	<path d="M402.134 533.16C402.134 533.16 416.541 522.787 424.376 516.968C432.464 511.148 439.036 512.919 444.091 514.69C448.894 516.462 462.795 520.51 464.312 520.51C465.575 520.51 464.817 523.546 460.773 525.064C456.729 526.329 450.41 525.57 446.113 525.064C441.564 524.558 437.52 526.835 437.52 526.835C437.52 526.835 457.993 530.377 463.553 532.148C468.861 533.919 476.444 536.955 474.169 539.232C471.894 541.509 469.367 543.786 467.345 544.039C465.575 544.545 462.542 542.268 456.729 545.051C450.916 547.834 438.783 551.376 432.97 551.376C427.157 551.376 402.134 544.292 402.134 544.292V533.16Z" fill="white" stroke="#263238" stroke-miterlimit="10" stroke-linecap="round" stroke-linejoin="round"/>
	<path d="M150.39 426.645C150.39 426.645 203.721 523.293 215.601 543.027C227.733 562.762 240.118 564.533 247.448 564.533C254.525 564.533 402.134 544.292 402.134 544.292V533.16C402.134 533.16 328.835 529.618 307.856 525.064C286.878 520.51 255.536 518.739 255.536 518.739C255.536 518.739 226.469 433.982 214.842 417.284C203.216 400.839 186.281 397.55 186.281 397.55" fill="white"/>
	<path d="M255.536 518.992C255.536 518.992 226.469 433.982 214.842 417.284C214.084 416.272 213.325 415.26 212.567 414.248C215.095 423.609 222.172 448.91 226.469 462.572C231.777 479.776 238.348 488.631 233.799 490.149C229.249 491.667 198.16 457.512 202.71 470.921C207.259 484.33 244.92 512.414 244.92 515.45C244.92 518.486 227.732 520.004 236.073 524.305C244.162 528.859 259.074 527.341 259.074 527.341C259.074 527.341 238.348 537.714 244.92 539.991C251.491 542.268 270.954 528.1 274.492 528.1C277.778 528.1 356.132 540.244 387.474 546.316C396.573 545.051 402.134 544.292 402.134 544.292V533.16C402.134 533.16 328.835 529.618 307.856 525.064C286.877 520.763 255.536 518.992 255.536 518.992Z" fill="#CCA9D9"/>
	<path opacity="0.5" d="M255.536 518.992C255.536 518.992 226.469 433.982 214.842 417.284C214.084 416.272 213.325 415.26 212.567 414.248C215.095 423.609 222.172 448.91 226.469 462.572C231.777 479.776 238.348 488.631 233.799 490.149C229.249 491.667 198.16 457.512 202.71 470.921C207.259 484.33 244.92 512.414 244.92 515.45C244.92 518.486 227.732 520.004 236.073 524.305C244.162 528.859 259.074 527.341 259.074 527.341C259.074 527.341 238.348 537.714 244.92 539.991C251.491 542.268 270.954 528.1 274.492 528.1C277.778 528.1 356.132 540.244 387.474 546.316C396.573 545.051 402.134 544.292 402.134 544.292V533.16C402.134 533.16 328.835 529.618 307.856 525.064C286.877 520.763 255.536 518.992 255.536 518.992Z" fill="white"/>
	<path d="M150.39 426.645C150.39 426.645 203.721 523.293 215.601 543.027C227.733 562.762 240.118 564.533 247.448 564.533C254.525 564.533 402.134 544.292 402.134 544.292V533.16C402.134 533.16 328.835 529.618 307.856 525.064C286.878 520.51 255.536 518.739 255.536 518.739C255.536 518.739 226.469 433.982 214.842 417.284C203.216 400.839 186.281 397.55 186.281 397.55" stroke="#263238" stroke-miterlimit="10" stroke-linecap="round" stroke-linejoin="round"/>
	<path d="M777.983 389.959L705.189 473.451L598.274 505.583C598.274 505.583 569.712 503.053 563.141 502.547C556.569 502.04 551.514 507.101 547.47 511.149C543.426 515.197 533.316 518.739 535.338 521.775C537.36 524.811 540.898 523.293 547.47 521.269C554.042 519.245 558.591 518.233 558.591 518.233C558.591 518.233 536.601 538.726 531.041 544.292C525.48 549.858 526.491 552.894 530.03 552.894C533.568 552.894 553.03 535.184 553.03 535.184C553.03 535.184 546.964 542.268 543.426 547.834C539.887 553.4 534.832 557.954 538.371 558.967C541.909 559.979 556.569 546.316 556.569 546.316L563.646 541.762C563.646 541.762 552.019 554.918 554.547 556.436C557.075 557.954 568.196 546.822 568.196 546.822C568.196 546.822 586.394 540.75 591.702 534.678C596.757 528.606 599.79 524.558 599.79 524.558C599.79 524.558 657.419 513.932 678.65 510.39C700.134 506.848 724.904 503.812 734.003 495.715C743.103 487.619 815.391 418.802 818.929 409.694" fill="white"/>
	<path d="M734.003 455.488C731.476 454.982 746.641 430.187 757.762 412.983L705.189 473.451L598.274 505.583C598.274 505.583 586.141 504.571 575.778 503.559C576.031 505.836 576.284 507.354 576.284 507.354L585.889 524.305C585.889 524.305 697.354 487.872 702.409 487.872C707.211 487.872 707.211 489.39 713.025 491.161C718.585 492.679 713.783 484.583 713.783 484.583C713.783 484.583 727.432 483.065 736.531 479.776C745.63 476.487 715.552 477.246 720.354 474.969C725.157 472.439 769.642 447.392 779.246 430.44C788.851 413.489 738.047 456.247 734.003 455.488Z" fill="#CCA9D9"/>
	<path opacity="0.5" d="M734.003 455.488C731.476 454.982 746.641 430.187 757.762 412.983L705.189 473.451L598.274 505.583C598.274 505.583 586.141 504.571 575.778 503.559C576.031 505.836 576.284 507.354 576.284 507.354L585.889 524.305C585.889 524.305 697.354 487.872 702.409 487.872C707.211 487.872 707.211 489.39 713.025 491.161C718.585 492.679 713.783 484.583 713.783 484.583C713.783 484.583 727.432 483.065 736.531 479.776C745.63 476.487 715.552 477.246 720.354 474.969C725.157 472.439 769.642 447.392 779.246 430.44C788.851 413.489 738.047 456.247 734.003 455.488Z" fill="white"/>
	<path d="M777.983 389.959L705.189 473.451L598.274 505.583C598.274 505.583 569.712 503.053 563.141 502.546C556.569 502.04 551.514 507.101 547.47 511.149C543.426 515.197 533.316 518.739 535.338 521.775C537.36 524.811 540.898 523.293 547.47 521.269C554.042 519.245 558.591 518.233 558.591 518.233C558.591 518.233 536.601 538.726 531.041 544.292C525.48 549.858 526.491 552.894 530.03 552.894C533.568 552.894 553.03 535.184 553.03 535.184C553.03 535.184 546.964 542.268 543.426 547.834C539.887 553.4 534.832 557.955 538.371 558.967C541.909 559.979 556.569 546.316 556.569 546.316L563.646 541.762C563.646 541.762 552.019 554.918 554.547 556.436C557.075 557.955 568.196 546.822 568.196 546.822C568.196 546.822 586.394 540.75 591.702 534.678C596.757 528.606 599.79 524.558 599.79 524.558C599.79 524.558 657.418 513.932 678.65 510.39C700.134 506.848 724.904 503.812 734.003 495.715C743.103 487.619 815.391 418.802 818.929 409.694" stroke="#263238" stroke-miterlimit="10" stroke-linecap="round" stroke-linejoin="round"/>
	<path d="M547.47 511.149C543.426 515.197 533.316 518.739 535.338 521.775C537.36 524.811 540.898 523.293 547.47 521.269C554.042 519.245 558.591 518.233 558.591 518.233C558.591 518.233 536.601 538.726 531.041 544.292C525.48 549.858 526.491 552.894 530.03 552.894C533.568 552.894 553.03 535.184 553.03 535.184C553.03 535.184 546.964 542.268 543.426 547.834C539.887 553.4 534.832 557.954 538.371 558.966C541.909 559.978 556.569 546.316 556.569 546.316L563.646 541.762C563.646 541.762 552.019 554.918 554.547 556.436C557.075 557.954 568.196 546.822 568.196 546.822C568.196 546.822 586.394 540.75 591.702 534.678C596.757 528.606 599.79 524.558 599.79 524.558L598.274 505.835C598.274 505.835 569.712 503.305 563.141 502.799C556.569 502.04 551.514 507.1 547.47 511.149Z" fill="white" stroke="#263238" stroke-miterlimit="10" stroke-linecap="round" stroke-linejoin="round"/>
	<path d="M702.152 244.734C702.152 244.734 696.086 257.385 697.603 270.794C699.119 283.95 699.625 290.781 697.097 294.323C694.57 297.865 690.526 296.347 691.031 302.926C691.537 309.504 699.625 312.034 699.625 312.034C699.625 312.034 710.746 334.045 714.79 338.599C718.834 343.153 724.395 341.129 728.944 339.105C733.494 337.081 742.593 332.527 742.593 332.527C742.593 332.527 754.22 363.141 759.78 370.225C765.341 377.309 769.891 367.695 771.407 359.599C772.924 351.502 773.935 333.033 771.407 326.961C768.88 320.889 761.802 304.95 761.802 304.95C761.802 304.95 776.462 302.926 785.814 282.938C794.913 262.951 775.704 237.144 747.648 231.072C719.845 225 705.185 237.65 702.152 244.734Z" fill="white"/>
	<path d="M755.231 308.239C755.231 308.239 750.429 321.901 747.901 325.19C745.374 328.479 725.153 336.575 717.065 331.768C708.977 326.961 704.933 312.287 705.691 300.143C706.449 287.999 701.647 274.336 712.263 268.517C722.879 262.951 742.088 266.999 742.088 266.999L763.825 258.144L715.549 243.47C715.549 243.47 708.471 246 700.131 249.542C698.614 254.349 696.592 262.445 697.35 270.541C698.867 283.697 699.372 290.529 696.845 294.071C694.317 297.613 690.273 296.095 690.779 302.673C691.284 309.251 699.372 311.781 699.372 311.781C699.372 311.781 710.494 333.792 714.538 338.346C718.582 342.901 724.142 340.876 728.692 338.852C733.241 336.828 742.341 332.274 742.341 332.274C742.341 332.274 753.967 362.888 759.528 369.972C762.056 373.261 764.583 373.008 766.605 370.731C763.572 350.238 755.231 308.239 755.231 308.239Z" fill="#CCA9D9"/>
	<path opacity="0.5" d="M755.231 308.239C755.231 308.239 750.429 321.901 747.901 325.19C745.374 328.479 725.153 336.575 717.065 331.768C708.977 326.961 704.933 312.287 705.691 300.143C706.449 287.999 701.647 274.336 712.263 268.517C722.879 262.951 742.088 266.999 742.088 266.999L763.825 258.144L715.549 243.47C715.549 243.47 708.471 246 700.131 249.542C698.614 254.349 696.592 262.445 697.35 270.541C698.867 283.697 699.372 290.529 696.845 294.071C694.317 297.613 690.273 296.095 690.779 302.673C691.284 309.251 699.372 311.781 699.372 311.781C699.372 311.781 710.494 333.792 714.538 338.346C718.582 342.901 724.142 340.876 728.692 338.852C733.241 336.828 742.341 332.274 742.341 332.274C742.341 332.274 753.967 362.888 759.528 369.972C762.056 373.261 764.583 373.008 766.605 370.731C763.572 350.238 755.231 308.239 755.231 308.239Z" fill="white"/>
	<path d="M702.152 244.734C702.152 244.734 696.086 257.385 697.603 270.794C699.119 283.95 699.625 290.781 697.097 294.323C694.57 297.865 690.526 296.347 691.031 302.926C691.537 309.504 699.625 312.034 699.625 312.034C699.625 312.034 710.746 334.045 714.79 338.599C718.834 343.153 724.395 341.129 728.944 339.105C733.494 337.081 742.593 332.527 742.593 332.527C742.593 332.527 754.22 363.141 759.78 370.225C765.341 377.309 769.891 367.695 771.407 359.599C772.924 351.502 773.935 333.033 771.407 326.961C768.88 320.889 761.802 304.95 761.802 304.95C761.802 304.95 776.462 302.926 785.814 282.938C794.913 262.951 775.704 237.144 747.648 231.072C719.845 225 705.185 237.65 702.152 244.734Z" stroke="#263238" stroke-miterlimit="10" stroke-linecap="round" stroke-linejoin="round"/>
	<path d="M709.482 294.071C710.459 294.071 711.251 292.032 711.251 289.516C711.251 287.001 710.459 284.962 709.482 284.962C708.505 284.962 707.713 287.001 707.713 289.516C707.713 292.032 708.505 294.071 709.482 294.071Z" fill="#1C1C1A"/>
	<path d="M705.692 277.878C705.692 277.878 712.769 270.794 716.814 281.42" stroke="#263238" stroke-miterlimit="10" stroke-linecap="round" stroke-linejoin="round"/>
	<path d="M711.756 319.624C711.756 319.624 724.9 319.118 726.922 307.986" stroke="#263238" stroke-miterlimit="10" stroke-linecap="round" stroke-linejoin="round"/>
	<path d="M765.596 277.625C761.551 276.866 757.507 279.396 756.244 283.445C755.233 286.734 752.958 290.276 748.408 290.023C740.32 289.517 741.331 275.854 738.298 269.529C735.265 263.457 725.155 263.457 706.704 261.939C688.505 260.421 674.098 260.421 675.615 236.892C677.131 213.362 691.791 197.17 702.154 199.7C712.517 202.23 709.231 212.856 709.231 212.856C709.231 212.856 741.837 197.17 769.387 204.76C796.937 212.35 803.509 238.41 802.498 262.951C801.487 287.493 789.355 301.661 781.014 305.203C772.925 308.745 766.859 314.311 763.321 313.299C759.782 312.287 758.266 304.191 761.299 301.661C764.332 299.131 773.431 287.999 770.903 281.168C769.892 279.143 767.87 277.878 765.596 277.625Z" fill="#263238" stroke="#263238" stroke-miterlimit="10" stroke-linecap="round" stroke-linejoin="round"/>
	<path d="M696.34 237.651C696.34 237.651 686.989 256.373 708.22 257.132C729.451 257.892 755.738 243.47 775.453 249.542C794.915 255.614 796.684 273.325 791.629 285.216" stroke="white" stroke-width="0.75" stroke-miterlimit="10" stroke-linecap="round" stroke-linejoin="round"/>
	<path d="M731.979 235.121C731.979 235.121 786.322 213.868 794.916 245.241" stroke="white" stroke-width="0.75" stroke-miterlimit="10" stroke-linecap="round" stroke-linejoin="round"/>
	<path d="M485.543 411.971C483.268 415.007 482.004 418.549 482.004 422.344C482.004 425.886 482.762 428.669 484.026 431.453C485.542 433.983 487.312 436.26 489.587 438.284C491.861 440.055 494.389 441.573 497.169 442.585C499.95 443.597 502.73 444.103 505.51 444.103C506.268 444.103 507.279 444.103 508.543 443.85C509.807 443.85 511.576 443.344 513.346 443.091C515.115 442.585 516.884 442.079 518.906 441.32C520.676 440.561 522.698 439.296 524.467 437.778L498.18 403.116C492.114 405.646 487.817 408.935 485.543 411.971Z" fill="#263238"/>
	<path d="M503.994 393.248C505.005 392.742 506.269 391.73 507.532 390.718C508.796 389.706 510.06 388.441 511.071 387.176C512.082 385.911 513.093 384.14 513.851 382.369C514.61 380.598 514.862 378.574 514.862 376.55C514.862 375.538 514.61 374.273 514.357 372.755C514.104 371.49 513.346 370.225 512.84 368.96C512.082 367.695 511.071 366.683 509.807 365.924C508.543 365.165 506.774 364.659 504.752 364.659C502.983 364.659 501.214 364.912 499.95 365.671C498.686 366.177 497.675 367.189 496.664 368.201C495.906 369.213 495.147 370.225 494.895 371.49C494.389 372.755 494.389 374.02 494.389 375.285C494.389 378.321 495.4 381.104 497.169 383.887C499.191 386.923 501.466 389.959 503.994 393.248Z" fill="#263238"/>
	<path d="M508.039 335.563C469.114 335.563 437.267 367.189 437.267 406.405C437.267 445.367 468.862 477.246 508.039 477.246C546.963 477.246 578.81 445.62 578.81 406.405C578.557 367.189 546.963 335.563 508.039 335.563ZM547.216 413.995C545.952 417.537 544.435 420.826 542.919 423.609C541.402 426.392 539.886 428.669 538.369 430.44C536.853 432.211 535.842 433.476 535.083 434.488L546.457 448.91H533.314L527.501 441.319C522.446 445.114 517.896 447.392 513.852 448.657C509.808 449.669 506.017 450.175 502.731 450.175C497.676 450.175 493.126 449.416 489.335 448.151C485.543 446.886 482.258 444.861 479.477 442.584C476.95 440.307 474.928 437.777 473.411 434.741C472.147 431.705 471.389 428.922 471.389 425.886C471.389 422.597 471.895 419.814 473.158 417.031C474.422 414.248 475.939 411.971 478.213 409.694C480.236 407.417 482.763 405.393 485.543 403.369C488.324 401.598 491.357 399.827 494.895 398.056C492.115 394.261 489.84 390.972 488.071 387.682C486.302 384.646 485.291 381.104 485.291 377.815C485.291 375.791 485.543 373.514 486.302 371.49C487.06 369.213 488.071 367.189 489.587 365.418C491.104 363.647 493.126 362.129 495.401 361.117C497.676 360.105 500.709 359.346 503.995 359.346C506.522 359.346 509.05 359.852 511.324 360.611C513.599 361.37 515.621 362.635 517.138 364.153C518.907 365.671 520.171 367.695 521.182 369.972C522.193 372.249 522.698 374.779 522.698 377.309C522.698 380.851 521.435 384.14 519.16 387.682C516.885 390.972 512.588 394.008 506.775 396.791L531.798 429.681C534.325 426.392 536.094 422.597 537.611 418.296C538.875 413.995 539.633 408.429 539.886 401.851H549.743C549.238 406.405 548.48 410.453 547.216 413.995Z" fill="#263238"/>
</svg>
