<svg width="100%" height="100%" viewBox="0 0 853 778" fill="none" 
	xmlns="http://www.w3.org/2000/svg">
	<path class="morthing" d="M50.9946 156.298C50.9946 156.298 6.80846 181.451 0.463792 244.445C-5.88094 307.439 63.4574 395.812 74.1074 475.575C84.5308 555.337 0.463702 574.372 34.2265 675.208C67.9893 776.044 244.281 799.157 338.771 759.276C433.262 719.394 477.448 618.558 618.164 618.558C758.88 618.558 859.941 553.298 851.557 408.502C843.173 263.706 811.676 219.293 698.152 135.225C584.628 51.1568 189.671 13.315 50.9946 156.298Z" fill="#F0E5F4"/>
	<path d="M471.631 543.608C471.631 543.608 471.404 542.928 471.178 541.342" stroke="#263238" stroke-miterlimit="10"/>
	<path d="M470.498 536.81C468.005 521.175 463.927 481.973 479.335 464.525C498.823 442.319 522.162 461.353 587.421 464.525C652.681 467.698 686.217 458.181 686.897 402.211C687.577 346.241 649.282 342.842 649.282 342.842H625.036" stroke="#263238" stroke-miterlimit="10" stroke-dasharray="2.01 2.01"/>
	<path d="M622.77 342.842H620.504" stroke="#263238" stroke-miterlimit="10"/>
	<path d="M620.504 171.082H622.77" stroke="#263238" stroke-miterlimit="10"/>
	<path d="M627.304 171.082H708.878C708.878 171.082 733.577 173.121 732.444 201.672C731.311 229.997 690.524 256.509 693.017 313.158C695.736 369.808 792.266 361.424 805.408 418.073C813.339 451.836 776.404 467.472 743.321 480.841C718.396 490.811 703.214 516.644 707.292 542.929C708.425 549.727 698.002 567.628 695.056 570.121C659.707 600.485 607.137 610.002 591.502 612.041" stroke="#263238" stroke-miterlimit="10" stroke-dasharray="2 2"/>
	<path d="M589.688 612.494C588.328 612.721 587.422 612.721 587.422 612.721" stroke="#263238" stroke-miterlimit="10"/>
	<path d="M320.264 76.1365L318.904 74.3237" stroke="#263238" stroke-miterlimit="10"/>
	<path d="M316.186 70.6987L303.497 53.0241C275.172 12.9163 216.258 8.61089 183.854 45.5464C172.525 58.6891 164.594 76.5903 164.594 101.289C164.594 143.89 179.322 175.614 223.055 227.958C266.788 280.302 266.109 443.452 251.833 472.91C237.784 502.141 207.42 497.836 196.77 513.698C196.77 513.698 190.199 528.88 192.465 538.397C203.795 584.396 325.93 601.165 351.082 604.337" stroke="#263238" stroke-miterlimit="10" stroke-dasharray="2.01 2.01"/>
	<path d="M353.574 604.337C354.934 604.563 355.84 604.563 355.84 604.563" stroke="#263238" stroke-miterlimit="10"/>
	<path d="M344.739 128.934C339.754 128.934 334.995 130.294 330.69 132.787C331.143 130.747 331.37 128.481 331.37 126.215C331.37 104.915 314.148 87.6936 292.848 87.6936C274.041 87.6936 258.406 101.289 255.007 119.191C251.155 117.831 247.302 116.925 242.997 116.925C224.19 116.925 209.008 132.107 209.008 150.914C209.008 169.722 224.19 184.904 242.997 184.904H344.739C360.147 184.904 372.61 172.441 372.61 157.033C372.61 141.624 360.147 128.934 344.739 128.934Z" fill="white" stroke="#263238" stroke-miterlimit="10"/>
	<path d="M774.816 242.687C769.378 242.687 764.393 244.046 759.861 246.765C760.314 244.499 760.541 242.233 760.541 239.741C760.541 217.081 742.186 198.727 719.527 198.727C699.36 198.727 682.818 213.229 679.193 232.263C675.114 230.677 670.809 229.997 666.503 229.997C646.563 229.997 630.248 246.312 630.248 266.253C630.248 286.193 646.563 302.508 666.503 302.508H774.816C791.358 302.508 804.5 289.139 804.5 272.824C804.5 256.509 791.131 242.687 774.816 242.687Z" fill="white" stroke="#263238" stroke-miterlimit="10"/>
	<path d="M755.555 309.76H764.618" stroke="#263238" stroke-miterlimit="10" stroke-linecap="round" stroke-linejoin="round"/>
	<path d="M711.371 309.76H743.094" stroke="#263238" stroke-miterlimit="10" stroke-linecap="round" stroke-linejoin="round"/>
	<path d="M681.457 200.313C685.762 196.914 689.614 194.648 697.772 193.515" stroke="#263238" stroke-miterlimit="10" stroke-linecap="round" stroke-linejoin="round"/>
	<path d="M670.582 216.855C670.582 216.855 671.262 212.097 675.114 206.885" stroke="#263238" stroke-miterlimit="10" stroke-linecap="round" stroke-linejoin="round"/>
	<path d="M326.612 380.457C318.455 380.457 310.977 382.723 304.179 386.349C304.859 382.95 305.085 379.324 305.085 375.699C305.085 341.709 277.441 314.064 243.451 314.064C213.314 314.064 188.162 335.818 182.95 364.369C177.059 362.103 170.487 360.743 163.69 360.743C133.552 360.743 109.307 385.216 109.307 415.127C109.307 445.264 133.779 469.51 163.69 469.51H326.385C351.084 469.51 371.251 449.57 371.251 424.644C371.251 400.625 351.311 380.457 326.612 380.457Z" fill="white" stroke="#263238" stroke-miterlimit="10"/>
	<path d="M121.996 465.659C124.035 467.018 126.528 468.378 129.021 469.737" stroke="#263238" stroke-miterlimit="10" stroke-linecap="round" stroke-linejoin="round"/>
	<path d="M104.094 444.585C104.094 444.585 106.36 451.157 113.384 458.408" stroke="#263238" stroke-miterlimit="10" stroke-linecap="round" stroke-linejoin="round"/>
	<path d="M204.477 310.892C211.501 306.133 222.151 301.375 236.653 301.828" stroke="#263238" stroke-miterlimit="10" stroke-linecap="round" stroke-linejoin="round"/>
	<path d="M194.732 319.956C194.732 319.956 196.545 317.464 200.171 314.292" stroke="#263238" stroke-miterlimit="10" stroke-linecap="round" stroke-linejoin="round"/>
	<path d="M620.277 158.619H609.627V187.17H620.277V158.619Z" fill="#263238" stroke="#263238" stroke-miterlimit="10"/>
	<path d="M620.277 326.529H609.627V355.08H620.277V326.529Z" fill="#263238" stroke="#263238" stroke-miterlimit="10"/>
	<path d="M330.916 243.593H320.266V272.144H330.916V243.593Z" fill="#263238" stroke="#263238" stroke-miterlimit="10"/>
	<path d="M613.254 60.502H330.01V121.91H613.254V60.502Z" fill="white" stroke="#263238" stroke-miterlimit="10"/>
	<path d="M538.931 76.1377H343.605V106.275H538.931V76.1377Z" fill="#CCA9D9" stroke="#263238" stroke-miterlimit="10"/>
	<path d="M565.216 97.4376C569.346 97.4376 572.694 94.0897 572.694 89.9599C572.694 85.8301 569.346 82.4822 565.216 82.4822C561.086 82.4822 557.738 85.8301 557.738 89.9599C557.738 94.0897 561.086 97.4376 565.216 97.4376Z" fill="#CCA9D9" stroke="#263238" stroke-miterlimit="10"/>
	<path d="M602.377 89.9599C602.377 85.8811 598.978 82.4822 594.9 82.4822C590.821 82.4822 587.422 85.8811 587.422 89.9599C587.422 94.0387 590.821 97.4376 594.9 97.4376C599.205 97.4376 602.377 94.0387 602.377 89.9599Z" fill="white" stroke="#263238" stroke-miterlimit="10"/>
	<path d="M521.03 97.4376C525.16 97.4376 528.508 94.0897 528.508 89.9599C528.508 85.8301 525.16 82.4822 521.03 82.4822C516.901 82.4822 513.553 85.8301 513.553 89.9599C513.553 94.0897 516.901 97.4376 521.03 97.4376Z" fill="white" stroke="#263238" stroke-miterlimit="10"/>
	<path d="M602.378 121.909H340.66V142.983H602.378V121.909Z" fill="#263238" stroke="#263238" stroke-miterlimit="10"/>
	<path d="M613.254 142.984H330.01V204.392H613.254V142.984Z" fill="white" stroke="#263238" stroke-miterlimit="10"/>
	<path d="M538.931 158.619H343.605V188.756H538.931V158.619Z" fill="#CCA9D9" stroke="#263238" stroke-miterlimit="10"/>
	<path d="M565.216 179.919C569.346 179.919 572.694 176.571 572.694 172.441C572.694 168.311 569.346 164.963 565.216 164.963C561.086 164.963 557.738 168.311 557.738 172.441C557.738 176.571 561.086 179.919 565.216 179.919Z" fill="white" stroke="#263238" stroke-miterlimit="10"/>
	<path d="M602.377 172.441C602.377 168.362 598.978 164.963 594.9 164.963C590.821 164.963 587.422 168.362 587.422 172.441C587.422 176.52 590.821 179.919 594.9 179.919C599.205 179.919 602.377 176.52 602.377 172.441Z" fill="#CCA9D9" stroke="#263238" stroke-miterlimit="10"/>
	<path d="M521.03 179.919C525.16 179.919 528.508 176.571 528.508 172.441C528.508 168.311 525.16 164.963 521.03 164.963C516.901 164.963 513.553 168.311 513.553 172.441C513.553 176.571 516.901 179.919 521.03 179.919Z" fill="white" stroke="#263238" stroke-miterlimit="10"/>
	<path d="M602.378 204.392H340.66V225.465H602.378V204.392Z" fill="#263238" stroke="#263238" stroke-miterlimit="10"/>
	<path d="M613.254 225.239H330.01V286.647H613.254V225.239Z" fill="white" stroke="#263238" stroke-miterlimit="10"/>
	<path d="M538.931 241.101H343.605V271.238H538.931V241.101Z" fill="#CCA9D9" stroke="#263238" stroke-miterlimit="10"/>
	<path d="M565.216 262.175C569.346 262.175 572.694 258.827 572.694 254.697C572.694 250.567 569.346 247.219 565.216 247.219C561.086 247.219 557.738 250.567 557.738 254.697C557.738 258.827 561.086 262.175 565.216 262.175Z" fill="#CCA9D9" stroke="#263238" stroke-miterlimit="10"/>
	<path d="M602.377 254.697C602.377 250.618 598.978 247.219 594.9 247.219C590.821 247.219 587.422 250.618 587.422 254.697C587.422 258.776 590.821 262.175 594.9 262.175C599.205 262.175 602.377 259.002 602.377 254.697Z" fill="white" stroke="#263238" stroke-miterlimit="10"/>
	<path d="M521.03 262.175C525.16 262.175 528.508 258.827 528.508 254.697C528.508 250.567 525.16 247.219 521.03 247.219C516.901 247.219 513.553 250.567 513.553 254.697C513.553 258.827 516.901 262.175 521.03 262.175Z" fill="white" stroke="#263238" stroke-miterlimit="10"/>
	<path d="M602.378 286.646H340.66V307.72H602.378V286.646Z" fill="#263238" stroke="#263238" stroke-miterlimit="10"/>
	<path d="M613.254 307.72H330.01V369.128H613.254V307.72Z" fill="white" stroke="#263238" stroke-miterlimit="10"/>
	<path d="M538.931 323.355H343.605V353.493H538.931V323.355Z" fill="#CCA9D9" stroke="#263238" stroke-miterlimit="10"/>
	<path d="M565.216 344.656C569.346 344.656 572.694 341.308 572.694 337.178C572.694 333.048 569.346 329.7 565.216 329.7C561.086 329.7 557.738 333.048 557.738 337.178C557.738 341.308 561.086 344.656 565.216 344.656Z" fill="white" stroke="#263238" stroke-miterlimit="10"/>
	<path d="M602.377 337.178C602.377 333.099 598.978 329.7 594.9 329.7C590.821 329.7 587.422 333.099 587.422 337.178C587.422 341.257 590.821 344.656 594.9 344.656C599.205 344.656 602.377 341.257 602.377 337.178Z" fill="#CCA9D9" stroke="#263238" stroke-miterlimit="10"/>
	<path d="M521.03 344.656C525.16 344.656 528.508 341.308 528.508 337.178C528.508 333.048 525.16 329.7 521.03 329.7C516.901 329.7 513.553 333.048 513.553 337.178C513.553 341.308 516.901 344.656 521.03 344.656Z" fill="white" stroke="#263238" stroke-miterlimit="10"/>
	<path d="M318.227 342.616V353.946" stroke="#263238" stroke-miterlimit="10" stroke-linecap="round" stroke-linejoin="round"/>
	<path d="M318.227 307.494V331.286" stroke="#263238" stroke-miterlimit="10" stroke-linecap="round" stroke-linejoin="round"/>
	<path d="M573.375 543.609H371.479V682.06H573.375V543.609Z" fill="#263238" stroke="#263238" stroke-miterlimit="10"/>
	<path d="M603.511 743.015H341.113L371.477 681.834H573.374L603.511 743.015Z" fill="white" stroke="#263238" stroke-miterlimit="10" stroke-linecap="round" stroke-linejoin="round"/>
	<path d="M561.139 554.485H383.715V670.957H561.139V554.485Z" fill="white" stroke="#263238" stroke-miterlimit="10"/>
	<path d="M498.822 601.618L472.311 570.121L445.799 601.618H456.902V650.79H487.719V601.618H498.822Z" fill="#CCA9D9"/>
	<path d="M463.929 701.322L464.156 693.844H453.506L452.826 701.322H463.929Z" fill="white" stroke="#263238" stroke-miterlimit="10"/>
	<path d="M485.91 701.322L485.683 693.844H475.033V701.322H485.91Z" fill="white" stroke="#263238" stroke-miterlimit="10"/>
	<path d="M543.463 709.253H554.793L552.074 701.322H541.197L543.463 709.253Z" fill="white" stroke="#263238" stroke-miterlimit="10"/>
	<path d="M452.824 701.322L453.504 693.844H442.854L441.947 701.322H452.824Z" fill="white" stroke="#263238" stroke-miterlimit="10"/>
	<path d="M430.845 701.322L432.205 693.844H421.555L419.742 701.322H430.845Z" fill="white" stroke="#263238" stroke-miterlimit="10"/>
	<path d="M530.094 701.322L528.281 693.844H517.631L518.99 701.322H530.094Z" fill="white" stroke="#263238" stroke-miterlimit="10"/>
	<path d="M541.199 701.322L538.933 693.844H528.283L530.096 701.322H541.199Z" fill="white" stroke="#263238" stroke-miterlimit="10"/>
	<path d="M419.742 701.322L421.555 693.844H410.905L408.865 701.322H419.742Z" fill="white" stroke="#263238" stroke-miterlimit="10"/>
	<path d="M497.011 701.322L496.332 693.844H485.682L485.908 701.322H497.011Z" fill="white" stroke="#263238" stroke-miterlimit="10"/>
	<path d="M552.074 701.322L549.582 693.844H538.932L541.198 701.322H552.074Z" fill="white" stroke="#263238" stroke-miterlimit="10"/>
	<path d="M518.992 701.322L517.632 693.844H506.982L508.115 701.322H518.992Z" fill="white" stroke="#263238" stroke-miterlimit="10"/>
	<path d="M508.113 701.322L506.98 693.844H496.33L497.01 701.322H508.113Z" fill="white" stroke="#263238" stroke-miterlimit="10"/>
	<path d="M475.033 701.322V693.844H464.156L463.93 701.322H475.033Z" fill="white" stroke="#263238" stroke-miterlimit="10"/>
	<path d="M397.762 701.322H386.659L383.713 709.253H395.043L397.762 701.322Z" fill="white" stroke="#263238" stroke-miterlimit="10"/>
	<path d="M400.256 693.844H389.606L386.66 701.322H397.763L400.256 693.844Z" fill="white" stroke="#263238" stroke-miterlimit="10"/>
	<path d="M408.865 701.322L410.904 693.844H400.254L397.762 701.322H408.865Z" fill="white" stroke="#263238" stroke-miterlimit="10"/>
	<path d="M380.542 717.863L376.916 726.927H389.152L392.324 717.863H380.542Z" fill="white" stroke="#263238" stroke-miterlimit="10"/>
	<path d="M395.043 709.253H383.713L380.541 717.863H392.324L395.043 709.253Z" fill="white" stroke="#263238" stroke-miterlimit="10"/>
	<path d="M392.325 717.863L389.152 726.927H401.389L404.108 717.863H392.325Z" fill="white" stroke="#263238" stroke-miterlimit="10"/>
	<path d="M441.949 701.322L442.855 693.844H432.205L430.846 701.322H441.949Z" fill="white" stroke="#263238" stroke-miterlimit="10"/>
	<path d="M440.816 709.253L441.949 701.322H430.846L429.26 709.253H440.816Z" fill="white" stroke="#263238" stroke-miterlimit="10"/>
	<path d="M429.259 709.253L430.846 701.322H419.742L417.93 709.253H429.259Z" fill="white" stroke="#263238" stroke-miterlimit="10"/>
	<path d="M452.144 709.253L452.824 701.322H441.947L440.814 709.253H452.144Z" fill="white" stroke="#263238" stroke-miterlimit="10"/>
	<path d="M408.865 701.322H397.762L395.043 709.253H406.599L408.865 701.322Z" fill="white" stroke="#263238" stroke-miterlimit="10"/>
	<path d="M545.955 717.863H557.738L554.793 709.253H543.463L545.955 717.863Z" fill="white" stroke="#263238" stroke-miterlimit="10"/>
	<path d="M417.929 709.253L419.742 701.322H408.866L406.6 709.253H417.929Z" fill="white" stroke="#263238" stroke-miterlimit="10"/>
	<path d="M395.043 709.253L392.324 717.863H404.107L406.6 709.253H395.043Z" fill="white" stroke="#263238" stroke-miterlimit="10"/>
	<path d="M520.578 709.253L518.992 701.322H508.115L509.248 709.253H520.578Z" fill="white" stroke="#263238" stroke-miterlimit="10"/>
	<path d="M509.248 709.253L508.115 701.322H497.012L497.692 709.253H509.248Z" fill="white" stroke="#263238" stroke-miterlimit="10"/>
	<path d="M543.463 709.253L541.197 701.322H530.094L531.907 709.253H543.463Z" fill="white" stroke="#263238" stroke-miterlimit="10"/>
	<path d="M475.031 709.253V701.322H463.928L463.475 709.253H475.031Z" fill="white" stroke="#263238" stroke-miterlimit="10"/>
	<path d="M497.691 709.253L497.011 701.322H485.908L486.361 709.253H497.691Z" fill="white" stroke="#263238" stroke-miterlimit="10"/>
	<path d="M486.363 709.253L485.91 701.322H475.033V709.253H486.363Z" fill="white" stroke="#263238" stroke-miterlimit="10"/>
	<path d="M463.474 709.253L463.928 701.322H452.824L452.145 709.253H463.474Z" fill="white" stroke="#263238" stroke-miterlimit="10"/>
	<path d="M497.691 709.253L498.598 717.863H510.381L509.248 709.253H497.691Z" fill="white" stroke="#263238" stroke-miterlimit="10"/>
	<path d="M509.248 709.253L510.381 717.863H522.164L520.578 709.253H509.248Z" fill="white" stroke="#263238" stroke-miterlimit="10"/>
	<path d="M406.6 709.253L404.107 717.863H415.89L417.93 709.253H406.6Z" fill="white" stroke="#263238" stroke-miterlimit="10"/>
	<path d="M520.578 709.253L522.164 717.863H533.947L531.908 709.253H520.578Z" fill="white" stroke="#263238" stroke-miterlimit="10"/>
	<path d="M475.033 709.253V717.863H486.816L486.363 709.253H475.033Z" fill="white" stroke="#263238" stroke-miterlimit="10"/>
	<path d="M531.908 709.253L533.948 717.863H545.957L543.465 709.253H531.908Z" fill="white" stroke="#263238" stroke-miterlimit="10"/>
	<path d="M486.363 709.253L486.816 717.863H498.599L497.693 709.253H486.363Z" fill="white" stroke="#263238" stroke-miterlimit="10"/>
	<path d="M429.26 709.253L427.674 717.863H439.457L440.816 709.253H429.26Z" fill="white" stroke="#263238" stroke-miterlimit="10"/>
	<path d="M417.928 709.253L415.889 717.863H427.672L429.258 709.253H417.928Z" fill="white" stroke="#263238" stroke-miterlimit="10"/>
	<path d="M463.475 709.253L463.248 717.863H475.031V709.253H463.475Z" fill="white" stroke="#263238" stroke-miterlimit="10"/>
	<path d="M452.147 709.253L451.24 717.863H463.25L463.476 709.253H452.147Z" fill="white" stroke="#263238" stroke-miterlimit="10"/>
	<path d="M440.815 709.253L439.455 717.863H451.238L452.144 709.253H440.815Z" fill="white" stroke="#263238" stroke-miterlimit="10"/>
	<path d="M531.906 709.253L530.093 701.322H518.99L520.576 709.253H531.906Z" fill="white" stroke="#263238" stroke-miterlimit="10"/>
	<path d="M400.255 693.844L402.748 686.139H392.551L389.605 693.844H400.255Z" fill="white" stroke="#263238" stroke-miterlimit="10"/>
	<path d="M389.605 693.844H379.635L376.463 701.322H386.66L389.605 693.844Z" fill="white" stroke="#263238" stroke-miterlimit="10"/>
	<path d="M392.551 686.139H383.034L379.635 693.844H389.605L392.551 686.139Z" fill="white" stroke="#263238" stroke-miterlimit="10"/>
	<path d="M386.66 701.322H376.463L373.064 709.253H383.714L386.66 701.322Z" fill="white" stroke="#263238" stroke-miterlimit="10"/>
	<path d="M383.713 709.253H373.063L369.438 717.863H380.541L383.713 709.253Z" fill="white" stroke="#263238" stroke-miterlimit="10"/>
	<path d="M380.541 717.863H369.438L365.586 726.927H376.916L380.541 717.863Z" fill="white" stroke="#263238" stroke-miterlimit="10"/>
	<path d="M563.176 701.322L566.122 709.253H576.318L572.919 701.322H563.176Z" fill="white" stroke="#263238" stroke-miterlimit="10"/>
	<path d="M569.522 717.863H579.945L576.32 709.253H566.123L569.522 717.863Z" fill="white" stroke="#263238" stroke-miterlimit="10"/>
	<path d="M572.92 726.927H583.797L579.945 717.863H569.521L572.92 726.927Z" fill="white" stroke="#263238" stroke-miterlimit="10"/>
	<path d="M485.683 693.844L485.23 686.139H475.033V693.844H485.683Z" fill="white" stroke="#263238" stroke-miterlimit="10"/>
	<path d="M563.178 701.322H572.922L569.749 693.844H560.232L563.178 701.322Z" fill="white" stroke="#263238" stroke-miterlimit="10"/>
	<path d="M557.739 717.863H569.522L566.123 709.253H554.793L557.739 717.863Z" fill="white" stroke="#263238" stroke-miterlimit="10"/>
	<path d="M410.906 693.844L413.172 686.139H402.748L400.256 693.844H410.906Z" fill="white" stroke="#263238" stroke-miterlimit="10"/>
	<path d="M549.58 693.844L552.073 701.322H563.176L560.23 693.844H549.58Z" fill="white" stroke="#263238" stroke-miterlimit="10"/>
	<path d="M569.748 693.844L566.576 686.139H557.285L560.231 693.844H569.748Z" fill="white" stroke="#263238" stroke-miterlimit="10"/>
	<path d="M560.23 693.844L557.285 686.139H547.088L549.58 693.844H560.23Z" fill="white" stroke="#263238" stroke-miterlimit="10"/>
	<path d="M522.164 717.863L523.977 726.927H536.213L533.947 717.863H522.164Z" fill="white" stroke="#263238" stroke-miterlimit="10"/>
	<path d="M560.686 726.927H572.922L569.523 717.863H557.74L560.686 726.927Z" fill="white" stroke="#263238" stroke-miterlimit="10"/>
	<path d="M549.582 693.844L547.089 686.139H536.666L538.932 693.844H549.582Z" fill="white" stroke="#263238" stroke-miterlimit="10"/>
	<path d="M545.955 717.863L548.448 726.927H560.684L557.738 717.863H545.955Z" fill="white" stroke="#263238" stroke-miterlimit="10"/>
	<path d="M533.947 717.863L536.213 726.927H548.449L545.957 717.863H533.947Z" fill="white" stroke="#263238" stroke-miterlimit="10"/>
	<path d="M554.793 709.253H566.123L563.177 701.322H552.074L554.793 709.253Z" fill="white" stroke="#263238" stroke-miterlimit="10"/>
	<path d="M453.505 693.844L454.412 686.139H443.988L442.855 693.844H453.505Z" fill="white" stroke="#263238" stroke-miterlimit="10"/>
	<path d="M538.932 693.844L536.666 686.139H526.469L528.282 693.844H538.932Z" fill="white" stroke="#263238" stroke-miterlimit="10"/>
	<path d="M442.855 693.844L443.988 686.139H433.791L432.205 693.844H442.855Z" fill="white" stroke="#263238" stroke-miterlimit="10"/>
	<path d="M475.031 693.844V686.139H464.607L464.154 693.844H475.031Z" fill="white" stroke="#263238" stroke-miterlimit="10"/>
	<path d="M432.205 693.844L433.791 686.139H423.367L421.555 693.844H432.205Z" fill="white" stroke="#263238" stroke-miterlimit="10"/>
	<path d="M421.554 693.844L423.367 686.139H413.17L410.904 693.844H421.554Z" fill="white" stroke="#263238" stroke-miterlimit="10"/>
	<path d="M464.156 693.844L464.609 686.139H454.412L453.506 693.844H464.156Z" fill="white" stroke="#263238" stroke-miterlimit="10"/>
	<path d="M528.283 693.844L526.47 686.139H516.047L517.633 693.844H528.283Z" fill="white" stroke="#263238" stroke-miterlimit="10"/>
	<path d="M517.633 693.844L516.046 686.139H505.85L506.983 693.844H517.633Z" fill="white" stroke="#263238" stroke-miterlimit="10"/>
	<path d="M496.332 693.844L495.425 686.139H485.229L485.682 693.844H496.332Z" fill="white" stroke="#263238" stroke-miterlimit="10"/>
	<path d="M522.164 717.863H510.381H498.598H486.815H475.032H463.249H451.24H439.457H427.674H415.891H404.108L401.389 726.927H413.625H425.861H438.097H450.56H462.796H475.032H487.268H499.505H511.741H523.977L522.164 717.863Z" fill="white" stroke="#263238" stroke-miterlimit="10"/>
	<path d="M506.982 693.844L505.849 686.139H495.426L496.332 693.844H506.982Z" fill="white" stroke="#263238" stroke-miterlimit="10"/>
	<path d="M603.738 743.015H341.113V746.641H603.738V743.015Z" fill="#263238" stroke="#263238" stroke-miterlimit="10"/>
</svg>
