<svg width="100%" height="100%" viewBox="0 0 847 680" fill="none" 
	xmlns="http://www.w3.org/2000/svg">
	<g clip-path="url(#clip0)">
		<path class="empty_basket_morthing" d="M818.097 187.005C797.894 137.726 766.747 91.8174 726.973 57.0698C680.253 16.4256 606.597 -14.7419 544.094 7.3702C479.486 30.3247 436.345 85.2891 388.573 130.145C371.737 145.939 353.428 160.681 331.542 169.526C231.579 209.538 163.815 154.995 75.2163 216.909C-13.3822 278.823 -20.9583 402.65 37.5461 480.99C96.0506 559.331 235.367 548.38 341.012 548.38C446.656 548.38 429.61 622.929 614.173 624.824C802.944 626.72 862.712 426.237 842.298 276.296C838.3 246.181 830.092 216.066 818.097 187.005Z" fill="#F5EDF7"/>
		<path d="M575.029 575.546H618.591" stroke="#263238" stroke-miterlimit="10" stroke-linecap="round" stroke-linejoin="round" stroke-dasharray="2 2"/>
		<path d="M149.293 98.3463H143.821C125.722 98.3463 110.991 113.088 110.991 131.199V542.694C110.991 560.805 125.722 575.547 143.821 575.547H540.515" stroke="#263238" stroke-miterlimit="10" stroke-linecap="round" stroke-linejoin="round" stroke-dasharray="2 2"/>
		<path d="M694.984 131.199C694.984 113.088 680.253 98.3463 662.154 98.3463H178.125" stroke="#263238" stroke-miterlimit="10" stroke-linecap="round" stroke-linejoin="round" stroke-dasharray="2 2"/>
		<path d="M694.141 146.993C619.643 147.415 559.455 208.276 559.876 282.825C560.297 357.374 621.116 417.604 695.615 417.182C770.113 416.761 830.301 355.9 829.88 281.351C829.459 206.591 768.64 146.572 694.141 146.993ZM695.615 390.437C635.847 390.858 587.024 342.422 586.603 282.614C586.182 222.806 634.585 173.949 694.352 173.528C754.119 173.107 802.943 221.543 803.364 281.351C803.574 341.159 755.382 390.016 695.615 390.437Z" fill="white" stroke="#263238" stroke-miterlimit="10" stroke-linecap="round" stroke-linejoin="round"/>
		<path d="M694.141 139.201C619.643 139.623 559.455 200.484 559.876 275.033C560.297 349.582 621.116 409.812 695.615 409.39C770.113 408.969 830.301 348.108 829.88 273.559C829.459 199.009 768.64 138.78 694.141 139.201ZM695.615 382.645C635.847 383.066 587.024 334.63 586.603 274.822C586.182 215.014 634.585 166.157 694.352 165.736C754.119 165.315 802.943 213.751 803.364 273.559C803.574 333.577 755.382 382.224 695.615 382.645Z" fill="white" stroke="#263238" stroke-miterlimit="10" stroke-linecap="round" stroke-linejoin="round"/>
		<path d="M707.61 532.586L686.986 532.797C683.619 532.797 680.883 530.059 680.883 526.689L680.252 418.445C680.252 415.076 682.988 412.338 686.355 412.338L706.979 412.128C710.346 412.128 713.082 414.865 713.082 418.235L713.503 526.479C713.503 529.848 710.767 532.586 707.61 532.586Z" fill="#CCA9D9" stroke="#263238" stroke-miterlimit="10" stroke-linecap="round" stroke-linejoin="round"/>
		<path d="M710.346 678.737L682.778 678.948C674.36 678.948 667.415 672.209 667.415 663.574V502.051C667.415 495.312 672.676 490.047 679.411 490.047L713.713 489.836C720.448 489.836 725.709 495.101 725.709 501.84V663.364C725.709 671.787 718.764 678.737 710.346 678.737Z" fill="#263238" stroke="#263238" stroke-miterlimit="10" stroke-linecap="round" stroke-linejoin="round"/>
		<path d="M309.865 263.24C311.97 263.24 313.653 261.555 313.653 259.449V243.023C313.653 238.6 318.704 227.439 322.703 218.173C330.7 200.483 333.225 193.955 330.068 190.164C327.753 187.216 323.544 187.427 318.914 190.796C315.547 193.323 316.81 195.64 317.231 196.482C317.652 196.903 319.335 199.43 322.913 197.324C323.123 197.324 323.123 197.114 323.334 197.114C322.071 201.747 318.494 209.749 315.758 215.435C310.707 226.597 306.077 237.337 306.077 243.233V259.66C306.288 261.555 307.761 263.24 309.865 263.24Z" fill="#CCA9D9" stroke="#263238" stroke-miterlimit="10" stroke-linecap="round" stroke-linejoin="round"/>
		<path d="M186.333 327.68L206.115 418.234L327.122 348.108C331.963 345.37 339.749 345.37 344.379 348.108L424.56 397.386L439.922 326.417L440.554 296.723L441.185 293.354C441.185 293.143 440.975 293.143 440.554 292.933C440.343 292.722 440.133 292.511 439.712 292.511L347.325 239.232C345.431 238.179 342.695 237.547 339.749 237.547C336.803 237.547 334.067 238.179 332.173 239.232L189.91 321.362C189.069 321.784 188.858 322.205 188.648 322.415C189.069 322.415 185.491 327.259 186.333 327.68ZM392.782 336.736L371.106 324.521L372.158 306.41C372.369 303.462 373.842 301.356 375.946 300.514C378.261 299.671 381.207 299.882 384.575 301.567C391.098 305.147 395.939 312.939 395.307 318.625L392.782 336.736ZM369.633 348.318L370.475 332.945L391.73 345.159L389.836 360.322C389.625 362.428 388.152 363.691 386.258 364.112C384.364 364.534 381.839 363.691 379.103 362.217C373.421 358.848 369.422 352.741 369.633 348.318ZM340.801 315.887L360.584 327.259L360.163 342.843C360.163 345.159 359.11 346.423 357.216 346.844C355.533 347.265 353.218 346.633 350.692 345.159C345.642 342.211 341.433 336.104 341.222 331.681L340.801 315.887ZM339.749 288.931C339.539 285.983 340.801 283.877 342.695 282.824C344.589 281.771 347.325 281.982 350.272 283.667C356.375 286.825 361.425 294.617 361.215 300.514L360.794 318.625L340.381 307.042L339.749 288.931ZM311.76 325.574L329.648 315.255L330.279 331.05C330.279 333.366 329.437 336.104 327.964 338.631C326.491 340.947 324.386 343.264 322.072 344.527C317.231 347.265 313.233 346.002 312.812 341.369L311.76 325.574ZM310.286 300.303C310.076 297.566 310.918 294.617 312.601 291.88C314.285 289.142 316.6 286.615 319.125 285.141C324.386 282.192 328.806 284.298 328.806 289.774L329.437 307.042L311.339 317.572L310.286 300.303ZM286.295 340.316L304.604 329.786L305.867 345.37C306.078 347.686 305.236 350.424 303.763 352.741C302.289 355.268 300.185 357.374 297.66 358.848C292.819 361.796 288.4 360.322 287.979 355.689L286.295 340.316ZM285.875 306.832C287.558 304.094 289.873 301.567 292.398 300.093C297.66 297.144 302.5 299.04 302.921 304.515L304.183 321.573L285.454 332.313L283.56 315.466C283.349 312.518 284.191 309.569 285.875 306.832ZM260.2 355.268L279.14 344.317L281.034 359.901C281.245 362.217 280.613 364.955 279.14 367.271C277.667 369.798 275.563 371.904 273.037 373.379C267.986 376.327 263.357 375.063 262.725 370.641L260.2 355.268ZM258.306 322.205C259.779 319.467 262.094 316.94 265.04 315.466C270.512 312.307 275.563 314.202 276.194 319.467L278.298 336.314L259.148 347.265L256.622 330.628C255.991 328.101 256.833 324.942 258.306 322.205ZM232 362.849L228.633 346.423C228.212 343.896 228.843 340.947 230.316 337.999C231.789 335.261 234.104 332.734 237.051 331.05C242.733 327.891 247.994 329.575 248.836 334.84L251.572 351.477L232 362.849Z" fill="#E1BBF2" stroke="#263238" stroke-miterlimit="10" stroke-linecap="round" stroke-linejoin="round"/>
		<path d="M369.632 348.318C369.421 352.741 373.42 358.848 378.891 362.007C381.627 363.691 384.153 364.323 386.047 363.902C387.941 363.691 389.203 362.428 389.624 360.322C388.993 361.164 387.941 361.586 386.888 361.796C384.994 362.217 382.259 361.375 379.523 359.901C374.051 356.742 370.053 350.635 370.263 346.212L370.894 333.156L370.263 332.735L369.632 348.318Z" fill="#CCA9D9" stroke="#263238" stroke-miterlimit="10" stroke-linecap="round" stroke-linejoin="round"/>
		<path d="M209.061 426.238L285.664 470.462C290.505 473.2 298.291 473.2 302.921 470.462L420.982 402.23C425.823 399.493 425.402 394.649 420.982 392.122L345.852 348.74L297.66 376.538C295.766 377.591 293.03 378.223 290.084 378.223C287.138 378.223 284.402 377.591 282.508 376.538L280.193 375.064L209.272 416.129C204.852 418.446 204.642 422.868 209.061 426.238Z" fill="#B485C9" stroke="#263238" stroke-miterlimit="10" stroke-linecap="round" stroke-linejoin="round"/>
		<path d="M280.191 375.274L282.506 376.748C284.4 377.801 287.136 378.433 290.082 378.433C293.029 378.433 295.765 377.801 297.659 376.748L345.851 348.95L344.588 348.108C339.748 345.37 331.962 345.37 327.332 348.108L280.191 375.274Z" fill="#CCA9D9" stroke="#263238" stroke-miterlimit="10" stroke-linecap="round" stroke-linejoin="round"/>
		<path d="M280.191 375.274L282.506 376.748C284.4 377.801 287.136 378.433 290.082 378.433C293.029 378.433 295.765 377.801 297.659 376.748L345.851 348.95L344.588 348.108C339.748 345.37 331.962 345.37 327.332 348.108L280.191 375.274Z" fill="#CCA9D9" stroke="#263238" stroke-miterlimit="10" stroke-linecap="round" stroke-linejoin="round"/>
		<path d="M187.384 353.584L188.437 357.795L205.483 421.183C206.114 423.079 206.745 424.974 209.06 426.238L285.663 470.462C290.504 473.2 298.29 473.2 302.92 470.462L420.981 402.23C423.296 400.756 424.138 399.071 424.559 397.176L441.816 328.734L442.868 324.522L300.395 406.653C294.713 410.022 285.242 410.022 279.56 406.653L187.384 353.584ZM430.662 360.744L410.459 372.747L414.457 353.794C415.089 350.846 416.772 347.266 419.298 344.318C420.771 342.422 422.454 340.527 424.138 339.053C425.19 338 426.453 337.158 427.505 336.526C428.768 335.683 430.031 335.262 431.083 335.052C434.66 334.42 436.554 336.736 435.292 341.58L430.662 360.744ZM404.987 398.861L408.565 381.803L428.347 370.01L424.138 387.489C423.507 390.016 421.823 392.964 419.719 395.702C417.614 398.229 415.089 400.756 412.563 402.23C407.302 405.179 403.935 403.704 404.987 398.861ZM402.672 377.38L382.68 389.174L385.626 371.063C386.047 368.114 387.731 364.745 389.835 361.797C391.939 358.848 394.675 356.111 397.411 354.426L398.253 354.005C403.935 350.846 407.302 352.952 406.25 358.848L402.672 377.38ZM378.471 414.445L381.207 398.018L400.778 386.436L397.411 403.283C396.99 405.81 395.517 408.548 393.413 411.286C391.519 413.813 388.993 416.129 386.257 417.603C381.207 420.552 377.839 419.288 378.471 414.445ZM374.893 393.807L355.111 405.6L357.216 388.121C357.636 385.383 358.899 382.013 361.004 379.065C363.108 376.117 365.844 373.379 368.79 371.484C374.472 368.114 378.471 370.01 377.629 375.696L374.893 393.807ZM352.375 429.818L354.269 414.023L373.841 402.441L371.316 418.656C370.895 420.973 369.632 423.921 367.738 426.238C365.844 428.765 363.319 431.081 360.793 432.555C355.532 435.714 351.744 434.451 352.375 429.818ZM347.325 410.233L327.542 421.815L328.595 404.968C328.805 402.23 330.068 399.071 331.962 396.334C333.856 393.385 336.592 390.648 339.538 388.963C345.431 385.594 349.429 387.278 349.008 392.964L347.325 410.233ZM326.28 445.191L327.122 430.028L346.483 418.656L345.01 434.24C344.799 436.557 343.537 439.294 341.642 441.611C339.748 444.138 337.434 446.244 334.908 447.718C329.857 450.877 325.859 449.824 326.28 445.191ZM319.966 426.448L300.395 438.031V421.815C300.395 419.288 301.447 416.129 303.341 413.392C305.235 410.443 307.76 407.916 310.707 406.231C316.389 402.862 320.808 404.547 320.598 409.812L319.966 426.448ZM300.395 460.564V445.823L319.756 434.451L319.125 449.613C319.125 451.93 317.862 454.457 316.178 456.984C314.495 459.301 312.18 461.617 309.654 463.091C304.393 465.829 300.395 464.776 300.395 460.564ZM263.987 433.398L283.138 444.349L283.769 458.037C283.769 460.143 282.928 461.196 281.454 461.617C279.981 462.038 277.666 461.617 275.351 460.143C270.301 457.405 266.092 451.93 265.671 447.718L263.987 433.398ZM261.672 409.39C261.462 406.863 262.304 404.968 264.198 404.336C265.881 403.704 268.407 404.126 271.353 405.81C277.035 409.18 281.875 416.129 282.086 421.183L282.928 436.767L263.356 425.606L261.672 409.39ZM234.735 416.761L254.517 427.922L256.411 442.664C256.622 444.77 255.99 446.244 254.307 446.454C252.834 446.876 250.729 446.454 247.993 444.98C242.942 442.032 238.102 436.346 237.26 431.924L234.735 416.761ZM232.21 385.804C233.683 385.172 235.998 385.383 238.523 386.857H238.734C238.944 387.068 239.154 387.068 239.575 387.278C239.786 387.489 239.996 387.489 240.207 387.699L240.628 387.91C246.099 391.701 250.939 398.44 251.571 403.494L253.675 420.131L233.472 408.548L230.526 391.069C229.895 388.331 230.737 386.646 232.21 385.804ZM204.641 399.703L225.054 411.286L228.211 426.869C228.632 429.186 228.001 430.66 226.528 431.081C225.054 431.502 222.95 431.081 220.214 429.607C214.953 426.659 209.692 420.552 208.639 415.919L204.641 399.703ZM203.589 366.43C204.641 366.64 205.693 367.272 206.745 367.904C207.798 368.536 208.85 369.167 209.692 370.01C214.742 374.011 218.951 380.329 220.004 385.172L223.581 403.073L202.537 391.069L198.117 372.537C197.275 369.589 197.907 367.483 199.59 366.851C200.432 366.009 201.695 366.009 203.589 366.43Z" fill="#CCA9D9" stroke="#263238" stroke-miterlimit="10" stroke-linecap="round" stroke-linejoin="round"/>
		<path d="M182.965 323.048V347.897C182.965 348.74 183.386 349.582 183.807 350.214C184.438 351.267 185.701 352.531 187.174 353.373L279.35 406.653C285.032 410.022 294.503 410.022 300.185 406.653L442.658 324.522C444.341 323.469 445.604 322.416 446.235 321.152C446.656 320.31 447.077 319.257 447.077 318.415C447.077 318.204 447.077 318.204 447.077 317.993V293.144C447.077 293.986 446.867 295.039 446.235 295.881C445.604 297.145 444.341 298.198 442.658 299.251L300.185 381.382C294.503 384.751 285.032 384.751 279.35 381.382L187.385 328.312C185.701 327.47 184.649 326.207 184.018 325.154C183.386 324.522 183.176 323.679 182.965 323.048Z" fill="#CCA9D9" stroke="#263238" stroke-miterlimit="10" stroke-linecap="round" stroke-linejoin="round"/>
		<path d="M187.384 353.583L188.437 357.795L203.378 366.429L209.481 370.009L238.523 386.856H238.734L240.207 387.699L240.628 387.909L279.56 410.443C285.242 413.812 294.713 413.812 300.395 410.443L397.411 354.425L398.253 354.004L423.928 339.263L431.083 335.261L441.816 329.154L442.868 324.942L300.395 407.073C294.713 410.443 285.242 410.443 279.56 407.073L187.384 353.583Z" fill="#263238"/>
		<path d="M182.965 322.205C182.965 322.416 182.965 322.837 182.965 323.048C183.176 323.68 183.386 324.522 183.807 325.154C184.438 326.207 185.701 327.47 187.174 328.313L279.35 381.592C285.032 384.962 294.503 384.962 300.185 381.592L442.447 299.462C444.131 298.409 445.183 297.356 446.025 296.092C446.446 295.25 446.867 294.197 446.867 293.354C446.867 291.249 445.394 288.932 442.658 287.247L350.271 233.968C344.589 230.598 335.119 230.598 329.437 233.968L216.847 299.04L209.482 303.252L187.385 316.098C184.438 317.783 182.965 320.1 182.965 322.205ZM188.858 322.205C189.068 321.995 189.489 321.574 190.121 321.153L209.692 309.781L217.058 305.569L332.383 238.811C334.277 237.758 337.013 237.127 339.959 237.127C342.906 237.127 345.641 237.758 347.535 238.811L439.922 292.091C440.764 292.512 440.974 292.933 441.185 293.144C440.974 293.354 440.764 293.776 439.922 294.197L345.641 348.529L297.449 376.327C295.555 377.38 292.819 378.012 289.873 378.012C286.927 378.012 284.191 377.38 282.297 376.327L279.982 374.853L190.121 322.837C189.279 322.837 189.068 322.416 188.858 322.205Z" fill="#CCA9D9" stroke="#263238" stroke-miterlimit="10" stroke-linecap="round" stroke-linejoin="round"/>
		<path d="M418.456 333.367C420.35 333.367 422.034 331.893 422.034 329.787C422.455 321.574 422.876 307.254 421.823 303.884C418.035 292.512 349.008 200.905 348.377 200.062C346.062 197.114 341.853 197.325 337.223 200.694C333.856 203.221 335.119 205.538 335.54 206.38C335.961 206.801 337.644 209.328 341.222 207.223C341.643 207.012 342.064 206.591 342.274 206.17C342.695 205.959 342.905 205.748 343.326 205.748C352.165 217.12 411.932 297.566 414.879 306.411C415.3 308.307 415.089 319.889 414.668 329.576C414.668 331.472 416.141 333.367 418.456 333.367C418.456 333.367 418.246 333.367 418.456 333.367Z" fill="#CCA9D9"/>
		<path d="M418.456 333.367C420.35 333.367 422.034 331.893 422.034 329.787C422.455 321.574 422.876 307.254 421.823 303.884C418.035 292.512 349.008 200.905 348.377 200.062C346.062 197.114 341.853 197.325 337.223 200.694C333.856 203.221 335.119 205.538 335.54 206.38C335.961 206.801 337.644 209.328 341.222 207.223C341.643 207.012 342.064 206.591 342.274 206.17C342.695 205.959 342.905 205.748 343.326 205.748C352.165 217.12 411.932 297.566 414.879 306.411C415.3 308.307 415.089 319.889 414.668 329.576C414.668 331.472 416.141 333.367 418.456 333.367ZM418.456 333.367C418.246 333.367 418.456 333.367 418.456 333.367Z" stroke="#263238" stroke-miterlimit="10" stroke-linecap="round" stroke-linejoin="round"/>
		<path d="M313.442 185.11C315.126 184.268 317.441 184.268 319.966 185.742C324.596 188.48 328.384 194.376 328.384 199.22C328.384 201.536 327.542 203.01 326.069 203.642L269.669 236.073L257.042 217.331L313.442 185.11Z" fill="#CCA9D9" stroke="#263238" stroke-miterlimit="10" stroke-linecap="round" stroke-linejoin="round"/>
		<path d="M255.149 221.964C255.149 226.597 258.937 232.704 263.567 235.442C268.197 238.179 271.985 236.495 271.985 231.862C271.985 227.229 268.197 221.121 263.567 218.384C258.937 215.646 255.149 217.331 255.149 221.964Z" fill="#263238" stroke="#263238" stroke-miterlimit="10"/>
		<path d="M330.49 195.429C332.173 194.587 334.488 194.587 337.014 196.061C341.644 198.799 345.432 204.695 345.432 209.539C345.432 211.856 344.59 213.33 343.117 213.961L286.717 246.393L274.09 227.65L330.49 195.429Z" fill="#CCA9D9" stroke="#263238" stroke-miterlimit="10" stroke-linecap="round" stroke-linejoin="round"/>
		<path d="M272.195 232.282C272.195 236.915 275.983 243.022 280.613 245.76C285.243 248.498 289.031 246.813 289.031 242.18C289.031 237.547 285.243 231.44 280.613 228.702C275.983 225.964 272.195 227.649 272.195 232.282Z" fill="#263238" stroke="#263238" stroke-miterlimit="10"/>
		<path d="M318.283 390.015C320.177 390.015 321.861 388.541 321.861 386.435C322.281 378.222 322.702 363.902 321.65 360.532C319.967 355.478 309.444 326.627 299.553 298.829C290.504 273.769 280.192 245.549 279.771 243.654C279.35 242.391 279.35 242.18 281.244 240.916C282.928 239.863 283.559 237.547 282.507 235.862C281.455 234.178 279.14 233.546 277.456 234.599C275.773 235.652 270.932 238.6 272.826 245.549C273.247 247.234 280.823 267.872 292.819 301.356C302.92 329.154 313.232 357.795 314.916 362.849C315.337 364.744 315.126 376.327 314.705 386.014C314.495 388.331 316.178 390.015 318.283 390.015Z" fill="#CCA9D9" stroke="#263238" stroke-miterlimit="10" stroke-linecap="round" stroke-linejoin="round"/>
		<path d="M209.903 297.777V303.252L217.269 299.041V297.988C217.269 288.511 246.942 250.604 260.621 234.81C262.725 232.283 263.988 231.23 264.619 231.019C266.303 229.966 266.934 227.65 265.882 225.965C264.83 224.281 262.515 223.649 260.831 224.702C259.148 225.755 257.254 227.439 255.149 230.177C253.045 231.862 209.903 282.614 209.903 297.777Z" fill="#CCA9D9" stroke="#263238" stroke-miterlimit="10" stroke-linecap="round" stroke-linejoin="round"/>
	</g>
	<defs>
		<clipPath id="clip0">
			<rect width="846" height="680" fill="white" transform="translate(0.0859375)"/>
		</clipPath>
	</defs>
</svg>
