<svg width="54" height="44" viewBox="0 0 54 44" fill="none" 
	xmlns="http://www.w3.org/2000/svg">
	<path d="M52.3344 13.5542H44.5428L31.4934 0.462362C30.8777 -0.155423 29.8792 -0.155423 29.2634 0.462362C28.6477 1.08015 28.6477 2.0817 29.2634 2.69948L40.0831 13.5542H13.9179L24.7376 2.69948C25.3534 2.0817 25.3534 1.08015 24.7376 0.462362C24.1219 -0.155423 23.1235 -0.155423 22.5077 0.462362L9.45813 13.5542H1.66664C0.795829 13.5542 0.0898438 14.2624 0.0898438 15.1361V21.9135C0.0898438 22.7872 0.795829 23.4954 1.66664 23.4954H5.39766L8.55588 42.5063C8.68266 43.2691 9.34039 43.8281 10.1112 43.8281H43.8897C44.6606 43.8281 45.3183 43.2691 45.4451 42.5063L48.6034 23.4954H52.3344C53.2052 23.4954 53.9112 22.7872 53.9112 21.9135V15.136C53.9112 14.2623 53.2052 13.5542 52.3344 13.5542ZM8.59478 23.4954H15.4161L16.8422 40.6643H11.447L8.59478 23.4954ZM35.4204 23.4954L33.9944 40.6643H28.5773V23.4954H35.4204ZM25.4237 40.6643H20.0068L18.5806 23.4954H25.4237V40.6643ZM42.554 40.6643H37.1588L38.5849 23.4954H45.4063L42.554 40.6643ZM50.7576 20.3316H3.24344V16.7178H50.7576V20.3316Z" fill="#AE66C8" />
</svg>