<svg width="46" height="30" viewBox="0 0 46 30" fill="none" 
	xmlns="http://www.w3.org/2000/svg">
	<g>
		<path d="M0.619141 2.80847C0.619141 1.55376 1.36515 0.717285 2.48417 0.717285H43.5148C44.2608 0.717285 45.3798 1.55376 45.3798 2.80847C45.3798 4.06318 44.2608 4.89965 43.5148 4.89965H2.48417C1.36515 4.89965 0.619141 4.06318 0.619141 2.80847Z" fill="white" />
	</g>
	<g>
		<path d="M0.619141 15.3551C0.619141 14.1004 1.36515 13.2639 2.48417 13.2639H43.5148C44.2608 13.2639 45.3798 14.1004 45.3798 15.3551C45.3798 16.6098 44.2608 17.4463 43.5148 17.4463H2.48417C1.36515 17.4463 0.619141 16.6098 0.619141 15.3551Z" fill="white" />
	</g>
	<g>
		<path d="M0.619141 27.9027C0.619141 26.648 1.36515 25.8115 2.48417 25.8115H43.5148C44.2608 25.8115 45.3798 26.648 45.3798 27.9027C45.3798 29.1574 44.2608 29.9939 43.5148 29.9939H2.48417C1.36515 29.9939 0.619141 29.1574 0.619141 27.9027Z" fill="white" />
	</g>
</svg>