<svg width="100%" height="100%" viewBox="0 0 858 769" fill="none" 
	xmlns="http://www.w3.org/2000/svg">
	<path class="morthing" d="M121.069 117.157C156.54 97.8236 193.375 90.0902 233.621 95.0942C283.189 101.235 322.298 108.514 369.592 89.8628C409.383 74.3961 445.763 51.196 483.963 32.0901C561.725 -7.48648 639.034 -19.5414 697.242 58.247C728.165 99.6432 751.812 147.181 767.956 197.447C794.332 278.42 815.933 368.036 804.109 452.648C789.102 559.778 697.242 610.044 587.419 571.378C543.081 555.683 500.106 532.711 452.585 526.115C353.448 512.24 271.593 603.448 152.675 581.385C-52.4191 542.946 -37.4122 204.043 121.069 117.157Z" fill="#F0E5F4"/>
	<path d="M118.067 87.1243C132.392 79.1635 138.986 85.7596 144.216 79.1635C149.445 72.5675 129.891 55.5086 169.227 38.4497C169.227 38.4497 171.956 1.6026 225.617 0.465342C279.505 -0.899367 264.953 37.3125 279.505 46.4105C293.83 55.5086 297.922 41.1792 312.247 50.2772C326.572 59.3753 320.205 77.7988 332.029 80.5283C343.853 83.2577 359.542 68.7008 374.094 77.7988C388.418 86.8969 388.418 94.8577 395.012 94.8577C401.606 94.8577 414.794 89.6263 422.525 94.8577C430.483 100.089 439.578 106.685 439.578 106.685H107.608C107.381 106.913 103.515 95.0851 118.067 87.1243Z" fill="#CCA9D9"/>
	<path opacity="0.5" d="M118.067 87.1243C132.392 79.1635 138.986 85.7596 144.216 79.1635C149.445 72.5675 129.891 55.5086 169.227 38.4497C169.227 38.4497 171.956 1.6026 225.617 0.465342C279.505 -0.899367 264.953 37.3125 279.505 46.4105C293.83 55.5086 297.922 41.1792 312.247 50.2772C326.572 59.3753 320.205 77.7988 332.029 80.5283C343.853 83.2577 359.542 68.7008 374.094 77.7988C388.418 86.8969 388.418 94.8577 395.012 94.8577C401.606 94.8577 414.794 89.6263 422.525 94.8577C430.483 100.089 439.578 106.685 439.578 106.685H107.608C107.381 106.913 103.515 95.0851 118.067 87.1243Z" fill="white"/>
	<path d="M494.377 382.129C504.609 376.67 509.156 381.219 512.795 376.67C516.433 372.121 502.563 360.066 530.303 348.011C530.303 348.011 532.122 322.082 569.866 321.172C607.611 320.262 597.606 347.101 607.611 353.47C617.843 359.839 620.571 349.831 630.576 356.2C640.808 362.568 636.033 375.533 644.446 377.353C652.631 379.172 663.773 369.164 674.005 375.533C684.237 381.902 684.237 387.588 688.784 387.588C693.332 387.588 702.654 383.949 708.111 387.588C713.568 391.227 720.162 395.776 720.162 395.776H486.874C487.101 396.004 484.372 387.815 494.377 382.129Z" fill="white"/>
	<path opacity="0.5" d="M494.377 382.129C504.609 376.67 509.156 381.219 512.795 376.67C516.433 372.121 502.563 360.066 530.303 348.011C530.303 348.011 532.122 322.082 569.866 321.172C607.611 320.262 597.606 347.101 607.611 353.47C617.843 359.839 620.571 349.831 630.576 356.2C640.808 362.568 636.033 375.533 644.446 377.353C652.631 379.172 663.773 369.164 674.005 375.533C684.237 381.902 684.237 387.588 688.784 387.588C693.332 387.588 702.654 383.949 708.111 387.588C713.568 391.227 720.162 395.776 720.162 395.776H486.874C487.101 396.004 484.372 387.815 494.377 382.129Z" fill="white"/>
	<path d="M206.063 766.522H62.3607C65.0892 749.008 76.458 751.965 77.8223 724.898C78.5044 711.251 65.7714 694.192 66.9082 676.224C67.8178 661.439 82.3698 646.2 83.5067 629.141C84.6436 613.902 72.1379 596.843 73.2748 580.239C74.4117 564.545 89.1912 549.533 90.5554 533.384C91.9197 517.462 79.6414 500.404 81.0056 484.255C82.3699 468.333 97.6041 453.549 99.1958 437.854C100.787 421.705 88.9638 404.192 90.7828 388.725C92.6018 372.348 108.291 358.019 110.337 342.78C112.611 325.948 101.697 307.752 104.198 293.195C107.381 275.227 123.98 262.262 127.39 249.07C133.984 224.505 133.075 200.85 140.806 199.258C148.991 197.666 150.81 220.866 157.177 246.795C160.36 259.76 176.504 272.952 179.232 290.921C181.506 305.478 169.91 322.991 171.729 339.823C173.321 354.835 188.555 369.392 190.146 385.768C191.511 401.235 179.232 418.294 180.369 434.215C181.506 449.909 196.286 464.921 197.195 480.843C198.105 496.764 185.599 513.368 186.508 529.062C187.418 545.212 201.743 560.451 202.652 575.918C203.334 592.294 190.601 608.898 191.056 624.137C191.738 640.969 206.063 656.435 206.518 671.22C207.2 689.188 194.012 705.565 194.467 719.212C195.376 748.781 208.791 742.639 209.246 766.522H206.063Z" fill="#CCA9D9"/>
	<path d="M144.443 246.568V759.926" stroke="black" stroke-miterlimit="10"/>
	<path d="M121.935 300.474L145.355 320.489L164.682 295.015" stroke="black" stroke-miterlimit="10"/>
	<path d="M121.935 389.635L145.355 409.878L164.682 384.404" stroke="black" stroke-miterlimit="10"/>
	<path d="M121.935 473.792L145.355 494.035L164.682 468.333" stroke="black" stroke-miterlimit="10"/>
	<path d="M121.935 573.643L145.355 593.886L164.682 568.412" stroke="black" stroke-miterlimit="10"/>
	<path d="M121.935 674.859L145.355 695.102L164.682 669.4" stroke="black" stroke-miterlimit="10"/>
	<path d="M304.062 766.522H193.102C195.148 752.875 204.016 755.377 205.153 734.224C205.835 723.534 195.83 710.569 196.74 696.695C197.422 685.322 208.791 673.494 209.7 660.302C210.382 648.475 200.833 635.283 201.742 622.545C202.652 610.49 214.021 598.89 215.157 586.381C216.067 574.098 206.744 560.906 207.881 548.624C209.018 536.341 220.614 524.969 221.979 512.686C223.343 500.176 214.021 486.757 215.612 474.702C217.204 461.965 229.027 451.047 230.619 439.219C232.438 426.255 224.025 412.153 225.844 401.008C228.345 387.133 241.078 377.125 243.807 367.117C248.809 348.239 248.127 329.815 254.266 328.678C260.633 327.313 261.997 345.282 266.772 365.298C269.273 375.306 281.779 385.541 283.825 399.415C285.417 410.561 276.549 424.208 278.141 437.172C279.505 448.772 291.101 459.918 292.238 472.655C293.375 484.482 283.825 497.674 284.735 510.184C285.644 522.239 297.013 533.839 297.695 546.122C298.377 558.404 288.6 571.369 289.282 583.424C289.964 595.933 301.106 607.534 301.788 619.588C302.47 632.326 292.465 645.063 292.92 656.663C293.375 669.628 304.516 681.683 304.744 693.055C305.199 706.93 295.194 719.667 295.421 730.13C296.103 752.875 306.563 748.099 307.018 766.522H304.062Z" fill="#CCA9D9"/>
	<path d="M256.541 365.071V761.519" stroke="black" stroke-miterlimit="10"/>
	<path d="M239.032 406.694L257.222 422.388L272.002 402.6" stroke="black" stroke-miterlimit="10"/>
	<path d="M239.032 475.612L257.222 491.306L272.002 471.518" stroke="black" stroke-miterlimit="10"/>
	<path d="M239.032 540.435L257.222 556.129L272.002 536.341" stroke="black" stroke-miterlimit="10"/>
	<path d="M239.032 617.769L257.222 633.235L272.002 613.675" stroke="black" stroke-miterlimit="10"/>
	<path d="M239.032 695.785L257.222 711.251L272.002 691.69" stroke="black" stroke-miterlimit="10"/>
	<path d="M402.967 765.385V305.705H378.638V765.385" fill="#263238"/>
	<path d="M402.967 765.385V305.705H378.638V765.385" stroke="#263238" stroke-miterlimit="10" stroke-linecap="round" stroke-linejoin="round"/>
	<path d="M415.02 765.385V305.705H390.918V765.385" fill="#CCA9D9"/>
	<path d="M415.02 765.385V305.705H390.918V765.385" stroke="#263238" stroke-miterlimit="10" stroke-linecap="round" stroke-linejoin="round"/>
	<path opacity="0.3" d="M390.69 305.705H415.02V360.293H390.69V305.705Z" fill="#263238"/>
	<path d="M311.563 126.019H491.418L412.973 318.443H390.008H233.345V204.489C233.118 161.274 268.134 126.019 311.563 126.019Z" fill="#CCA9D9" stroke="#263238" stroke-miterlimit="10" stroke-linecap="round" stroke-linejoin="round"/>
	<path opacity="0.3" d="M426.614 285.007L412.972 318.67H390.007H233.344V204.489C233.344 202.67 233.344 201.077 233.572 199.258H426.842V285.007H426.614Z" fill="black"/>
	<path d="M312.929 199.258H331.801" stroke="#263238" stroke-miterlimit="10" stroke-linecap="round" stroke-linejoin="round"/>
	<path d="M233.344 199.258H290.643" stroke="#263238" stroke-miterlimit="10" stroke-linecap="round" stroke-linejoin="round"/>
	<path d="M412.974 318.67H569.637V204.489C569.637 161.274 534.621 126.019 491.192 126.019C447.99 126.019 412.747 161.046 412.747 204.489V318.67H412.974Z" fill="#263238" stroke="#263238" stroke-miterlimit="10" stroke-linecap="round" stroke-linejoin="round"/>
	<path d="M412.973 305.705H548.035V318.67H412.973V305.705Z" fill="#CCA9D9" stroke="#263238" stroke-miterlimit="10" stroke-linecap="round" stroke-linejoin="round"/>
	<path d="M412.974 305.705H692.42V318.67H412.974V305.705Z" fill="#CCA9D9" stroke="#263238" stroke-miterlimit="10" stroke-linecap="round" stroke-linejoin="round"/>
	<path opacity="0.3" d="M412.973 305.705H548.035V318.67H412.973V305.705Z" fill="black"/>
	<path d="M299.742 79.6184H355.904V118.968H299.742V79.6184Z" fill="#263238" stroke="#263238" stroke-miterlimit="10" stroke-linecap="round" stroke-linejoin="round"/>
	<path d="M351.582 79.6184H363.633V202.442H351.582V79.6184Z" fill="white" stroke="#263238" stroke-miterlimit="10" stroke-linecap="round" stroke-linejoin="round"/>
	<path d="M357.494 219.274C349.96 219.274 343.852 213.164 343.852 205.627C343.852 198.09 349.96 191.979 357.494 191.979C365.029 191.979 371.137 198.09 371.137 205.627C371.137 213.164 365.029 219.274 357.494 219.274Z" fill="#263238" stroke="#263238" stroke-miterlimit="10" stroke-linecap="round" stroke-linejoin="round"/>
	<path d="M557.586 157.634C525.981 173.783 470.955 199.485 420.25 212.45" stroke="white" stroke-miterlimit="10" stroke-linecap="round" stroke-linejoin="round" stroke-dasharray="2 2"/>
	<path d="M584.189 143.532C584.189 143.532 573.958 149.219 557.586 157.634" stroke="#263238" stroke-miterlimit="10" stroke-linecap="round" stroke-linejoin="round" stroke-dasharray="2 2"/>
	<path d="M595.559 142.85L572.821 88.7164L737.896 48.4575L595.559 142.85Z" fill="white" stroke="#263238" stroke-width="1.2629" stroke-miterlimit="10" stroke-linecap="round" stroke-linejoin="round"/>
	<path d="M584.417 95.3125L595.559 142.85L737.896 48.4575L584.417 95.3125Z" fill="#CCA9D9" stroke="#263238" stroke-width="1.2629" stroke-miterlimit="10" stroke-linecap="round" stroke-linejoin="round"/>
	<path d="M584.417 95.3125L610.338 117.375L737.896 48.4575L584.417 95.3125Z" fill="white" stroke="#263238" stroke-width="1.2629" stroke-miterlimit="10" stroke-linecap="round" stroke-linejoin="round"/>
	<path d="M572.821 88.7164L549.629 79.3909L737.896 48.4575L572.821 88.7164Z" fill="white" stroke="#263238" stroke-width="1.2629" stroke-miterlimit="10" stroke-linecap="round" stroke-linejoin="round"/>
	<path d="M627.619 134.434L622.162 137.619" stroke="#263238" stroke-miterlimit="10" stroke-linecap="round" stroke-linejoin="round"/>
	<path d="M656.723 116.466L638.76 127.383" stroke="#263238" stroke-miterlimit="10" stroke-linecap="round" stroke-linejoin="round"/>
	<path d="M676.732 246.34V187.658L509.156 214.724L676.732 246.34Z" fill="white" stroke="#263238" stroke-width="1.2629" stroke-miterlimit="10" stroke-linecap="round" stroke-linejoin="round"/>
	<path d="M668.547 198.121L676.732 246.34L509.156 214.725L668.547 198.121Z" fill="#CCA9D9" stroke="#263238" stroke-width="1.2629" stroke-miterlimit="10" stroke-linecap="round" stroke-linejoin="round"/>
	<path d="M668.545 198.121L653.311 228.827L509.154 214.725L668.545 198.121Z" fill="white" stroke="#263238" stroke-width="1.2629" stroke-miterlimit="10" stroke-linecap="round" stroke-linejoin="round"/>
	<path d="M676.731 187.658L694.467 170.144L509.155 214.725L676.731 187.658Z" fill="white" stroke="#263238" stroke-width="1.2629" stroke-miterlimit="10" stroke-linecap="round" stroke-linejoin="round"/>
	<path d="M616.703 245.203L602.151 242.246" stroke="#263238" stroke-miterlimit="10" stroke-linecap="round" stroke-linejoin="round"/>
	<path d="M667.863 255.666L631.256 248.16" stroke="#263238" stroke-miterlimit="10" stroke-linecap="round" stroke-linejoin="round"/>
	<path d="M696.969 242.701C696.969 242.701 828.847 265.446 853.859 383.721C878.87 501.996 746.992 508.819 724.254 451.957C701.516 395.094 801.562 372.349 824.3 426.937C847.038 481.525 778.825 574.78 685.6 579.329C608.065 583.196 390.92 492.67 255.858 469.698C255.858 469.698 155.812 441.949 1.19613 448.09" stroke="#263238" stroke-miterlimit="10" stroke-linecap="round" stroke-linejoin="round" stroke-dasharray="2 2"/>
	<path d="M45.9883 613.447H8.01643" stroke="#263238" stroke-miterlimit="10" stroke-linecap="round" stroke-linejoin="round"/>
	<path d="M45.9883 669.628H8.01643" stroke="#263238" stroke-miterlimit="10" stroke-linecap="round" stroke-linejoin="round"/>
	<path d="M844.082 668.035H50.5373V615.039H844.082" fill="white"/>
	<path d="M844.082 668.035H50.5373V615.039H844.082" stroke="#263238" stroke-miterlimit="10" stroke-linecap="round" stroke-linejoin="round"/>
	<path d="M788.83 765.84V498.812C788.83 497.447 788.375 496.31 787.238 495.4L766.547 475.839C764.501 474.019 761.545 474.019 759.726 476.066L741.536 495.4C740.626 496.31 740.171 497.447 740.171 498.584V765.84" fill="#263238"/>
	<path d="M788.83 765.84V498.812C788.83 497.447 788.375 496.31 787.238 495.4L766.547 475.839C764.501 474.019 761.545 474.019 759.726 476.066L741.536 495.4C740.626 496.31 740.171 497.447 740.171 498.584V765.84" stroke="#263238" stroke-miterlimit="10" stroke-linecap="round" stroke-linejoin="round"/>
	<path d="M794.74 768.114V498.812C794.74 497.447 794.285 496.31 793.149 495.4L772.457 475.839C770.411 474.019 767.455 474.019 765.636 476.066L747.446 495.4C746.536 496.31 746.082 497.447 746.082 498.584V768.114" fill="white"/>
	<path d="M794.74 768.114V498.812C794.74 497.447 794.285 496.31 793.149 495.4L772.457 475.839C770.411 474.019 767.455 474.019 765.636 476.066L747.446 495.4C746.536 496.31 746.082 497.447 746.082 498.584V768.114" stroke="#263238" stroke-miterlimit="10" stroke-linecap="round" stroke-linejoin="round"/>
	<path d="M613.977 765.84V498.812C613.977 497.447 613.522 496.31 612.385 495.4L591.694 475.839C589.647 474.019 586.691 474.019 584.872 476.066L566.682 495.4C565.773 496.31 565.318 497.447 565.318 498.584V765.84" fill="#263238"/>
	<path d="M613.977 765.84V498.812C613.977 497.447 613.522 496.31 612.385 495.4L591.694 475.839C589.647 474.019 586.691 474.019 584.872 476.066L566.682 495.4C565.773 496.31 565.318 497.447 565.318 498.584V765.84" stroke="#263238" stroke-miterlimit="10" stroke-linecap="round" stroke-linejoin="round"/>
	<path d="M618.979 768.114V498.812C618.979 497.447 618.524 496.31 617.387 495.4L596.696 475.839C594.649 474.019 591.693 474.019 589.874 476.066L571.684 495.4C570.775 496.31 570.32 497.447 570.32 498.584V768.114" fill="white"/>
	<path d="M618.979 768.114V498.812C618.979 497.447 618.524 496.31 617.387 495.4L596.696 475.839C594.649 474.019 591.693 474.019 589.874 476.066L571.684 495.4C570.775 496.31 570.32 497.447 570.32 498.584V768.114" stroke="#263238" stroke-miterlimit="10" stroke-linecap="round" stroke-linejoin="round"/>
	<path d="M438.213 765.84V498.812C438.213 497.447 437.758 496.31 436.621 495.4L415.93 475.839C413.884 474.019 410.928 474.019 409.109 476.066L390.919 495.4C390.009 496.31 389.554 497.447 389.554 498.584V768.114" fill="#263238"/>
	<path d="M438.213 765.84V498.812C438.213 497.447 437.758 496.31 436.621 495.4L415.93 475.839C413.884 474.019 410.928 474.019 409.109 476.066L390.919 495.4C390.009 496.31 389.554 497.447 389.554 498.584V768.114" stroke="#263238" stroke-miterlimit="10" stroke-linecap="round" stroke-linejoin="round"/>
	<path d="M443.217 768.114V498.812C443.217 497.447 442.762 496.31 441.625 495.4L420.934 475.839C418.887 474.019 415.932 474.019 414.113 476.066L395.922 495.4C395.013 496.31 394.558 497.447 394.558 498.584V768.114" fill="white"/>
	<path d="M443.217 768.114V498.812C443.217 497.447 442.762 496.31 441.625 495.4L420.934 475.839C418.887 474.019 415.932 474.019 414.113 476.066L395.922 495.4C395.013 496.31 394.558 497.447 394.558 498.584V768.114" stroke="#263238" stroke-miterlimit="10" stroke-linecap="round" stroke-linejoin="round"/>
	<path d="M262.453 765.84V498.812C262.453 497.447 261.998 496.31 260.861 495.4L240.17 475.839C238.124 474.019 235.168 474.019 233.349 476.066L215.159 495.4C214.249 496.31 213.795 497.447 213.795 498.584V765.84" fill="#263238"/>
	<path d="M262.453 765.84V498.812C262.453 497.447 261.998 496.31 260.861 495.4L240.17 475.839C238.124 474.019 235.168 474.019 233.349 476.066L215.159 495.4C214.249 496.31 213.795 497.447 213.795 498.584V765.84" stroke="#263238" stroke-miterlimit="10" stroke-linecap="round" stroke-linejoin="round"/>
	<path d="M267.227 768.114V498.812C267.227 497.447 266.772 496.31 265.635 495.4L244.944 475.839C242.897 474.019 239.941 474.019 238.122 476.066L219.932 495.4C219.023 496.31 218.568 497.447 218.568 498.584V768.114" fill="white"/>
	<path d="M267.227 768.114V498.812C267.227 497.447 266.772 496.31 265.635 495.4L244.944 475.839C242.897 474.019 239.941 474.019 238.122 476.066L219.932 495.4C219.023 496.31 218.568 497.447 218.568 498.584V768.114" stroke="#263238" stroke-miterlimit="10" stroke-linecap="round" stroke-linejoin="round"/>
	<path d="M86.4629 765.84V498.812C86.4629 497.447 86.0081 496.31 84.8712 495.4L64.1799 475.839C62.1335 474.019 59.1776 474.019 57.3586 476.066L39.1685 495.4C38.259 496.31 37.8043 497.447 37.8043 498.584V765.84" fill="#263238"/>
	<path d="M86.4629 765.84V498.812C86.4629 497.447 86.0081 496.31 84.8712 495.4L64.1799 475.839C62.1335 474.019 59.1776 474.019 57.3586 476.066L39.1685 495.4C38.259 496.31 37.8043 497.447 37.8043 498.584V765.84" stroke="#263238" stroke-miterlimit="10" stroke-linecap="round" stroke-linejoin="round"/>
	<path d="M91.4648 768.114V498.812C91.4648 497.447 91.0101 496.31 89.8732 495.4L69.182 475.839C67.1356 474.019 64.1797 474.019 62.3607 476.066L44.1705 495.4C43.261 496.31 42.8062 497.447 42.8062 498.584V768.114" fill="white"/>
	<path d="M91.4648 768.114V498.812C91.4648 497.447 91.0101 496.31 89.8732 495.4L69.182 475.839C67.1356 474.019 64.1797 474.019 62.3607 476.066L44.1705 495.4C43.261 496.31 42.8062 497.447 42.8062 498.584V768.114" stroke="#263238" stroke-miterlimit="10" stroke-linecap="round" stroke-linejoin="round"/>
	<path d="M765.637 475.839V495.4" stroke="#263238" stroke-miterlimit="10" stroke-linecap="round" stroke-linejoin="round"/>
	<path d="M757.906 486.074V532.02" stroke="#263238" stroke-miterlimit="10" stroke-linecap="round" stroke-linejoin="round"/>
	<path d="M609.43 489.714V548.169" stroke="#263238" stroke-miterlimit="10" stroke-linecap="round" stroke-linejoin="round"/>
	<path d="M601.926 482.208V507.682" stroke="#263238" stroke-miterlimit="10" stroke-linecap="round" stroke-linejoin="round"/>
	<path d="M420.934 475.839V532.929" stroke="#263238" stroke-miterlimit="10" stroke-linecap="round" stroke-linejoin="round"/>
	<path d="M410.02 480.388V565" stroke="#263238" stroke-miterlimit="10" stroke-linecap="round" stroke-linejoin="round"/>
	<path d="M258.586 489.714V553.628" stroke="#263238" stroke-miterlimit="10" stroke-linecap="round" stroke-linejoin="round"/>
	<path d="M234.258 482.208V498.129" stroke="#263238" stroke-miterlimit="10" stroke-linecap="round" stroke-linejoin="round"/>
	<path d="M75.3203 481.298V515.188" stroke="#263238" stroke-miterlimit="10" stroke-linecap="round" stroke-linejoin="round"/>
	<path d="M54.6289 485.165V582.969" stroke="#263238" stroke-miterlimit="10" stroke-linecap="round" stroke-linejoin="round"/>
	<path d="M92.374 628.004H112.838" stroke="#263238" stroke-miterlimit="10" stroke-linecap="round" stroke-linejoin="round"/>
	<path d="M92.3739 643.926H164.68" stroke="#263238" stroke-miterlimit="10" stroke-linecap="round" stroke-linejoin="round"/>
	<path d="M362.042 643.926H395.012" stroke="#263238" stroke-miterlimit="10" stroke-linecap="round" stroke-linejoin="round"/>
	<path d="M535.077 643.926H568.047" stroke="#263238" stroke-miterlimit="10" stroke-linecap="round" stroke-linejoin="round"/>
	<path d="M795.423 635.51H828.393" stroke="#263238" stroke-miterlimit="10" stroke-linecap="round" stroke-linejoin="round"/>
	<path d="M795.423 650.522H808.611" stroke="#263238" stroke-miterlimit="10" stroke-linecap="round" stroke-linejoin="round"/>
	<path d="M379.095 635.51H395.012" stroke="#263238" stroke-miterlimit="10" stroke-linecap="round" stroke-linejoin="round"/>
	<path d="M553.949 653.479H569.865" stroke="#263238" stroke-miterlimit="10" stroke-linecap="round" stroke-linejoin="round"/>
	<path d="M620.571 653.479H636.715" stroke="#263238" stroke-miterlimit="10" stroke-linecap="round" stroke-linejoin="round"/>
	<path d="M28.2542 643.926H42.3516" stroke="#263238" stroke-miterlimit="10" stroke-linecap="round" stroke-linejoin="round"/>
	<path d="M9.61049 643.926H18.0234" stroke="#263238" stroke-miterlimit="10" stroke-linecap="round" stroke-linejoin="round"/>
	<path d="M746.992 546.121C746.992 546.121 752.677 595.023 759.498 645.063C766.319 695.102 753.814 746.279 750.403 750.828" stroke="#263238" stroke-miterlimit="10" stroke-linecap="round" stroke-linejoin="round"/>
	<path d="M769.502 645.063C768.365 635.282 767.456 629.141 767.456 629.141" stroke="#263238" stroke-miterlimit="10" stroke-linecap="round" stroke-linejoin="round"/>
	<path d="M752.677 745.141C752.677 745.141 773.141 740.592 773.141 704.2C773.141 689.188 772.231 673.949 771.094 660.984" stroke="#263238" stroke-miterlimit="10" stroke-linecap="round" stroke-linejoin="round"/>
	<path d="M581.234 488.121C581.234 488.121 576.686 491.533 584.645 530.2C592.603 568.867 591.466 625.73 581.234 657.573" stroke="#263238" stroke-miterlimit="10" stroke-linecap="round" stroke-linejoin="round"/>
	<path d="M569.866 559.769C569.866 559.769 581.234 593.886 573.276 641.651" stroke="#263238" stroke-miterlimit="10" stroke-linecap="round" stroke-linejoin="round"/>
	<path d="M440.262 581.376C440.262 581.376 434.577 614.357 428.893 648.475C423.208 682.592 427.756 730.357 432.303 742.867C436.851 755.377 441.398 765.612 441.398 765.612" stroke="#263238" stroke-miterlimit="10" stroke-linecap="round" stroke-linejoin="round"/>
	<path d="M418.66 749.008C423.663 764.475 430.029 746.279 430.029 746.279" stroke="#263238" stroke-miterlimit="10" stroke-linecap="round" stroke-linejoin="round"/>
	<path d="M418.887 632.553C418.887 632.553 408.2 687.824 414.339 729.447" stroke="#263238" stroke-miterlimit="10" stroke-linecap="round" stroke-linejoin="round"/>
	<path d="M442.533 650.749C442.533 650.749 431.164 674.631 441.396 697.377" stroke="#263238" stroke-miterlimit="10" stroke-linecap="round" stroke-linejoin="round"/>
	<path d="M230.164 654.161C227.436 666.671 224.252 674.632 224.252 674.632" stroke="#263238" stroke-miterlimit="10" stroke-linecap="round" stroke-linejoin="round"/>
	<path d="M220.842 535.886C220.842 535.886 232.211 570.004 234.485 606.396C235.394 619.588 234.257 632.098 232.438 642.561" stroke="#263238" stroke-miterlimit="10" stroke-linecap="round" stroke-linejoin="round"/>
	<path d="M242.441 640.514C242.441 640.514 232.209 679.181 226.525 692.828C220.841 706.475 223.114 739.455 229.936 755.377" stroke="#263238" stroke-miterlimit="10" stroke-linecap="round" stroke-linejoin="round"/>
	<path d="M88.9629 552.945C88.9629 552.945 66.2251 593.886 87.826 660.985" stroke="#263238" stroke-miterlimit="10" stroke-linecap="round" stroke-linejoin="round"/>
	<path d="M68.0442 623C67.8168 635.738 68.9538 651.887 74.1834 665.534C84.4154 692.828 88.9629 701.926 88.9629 701.926" stroke="#263238" stroke-miterlimit="10" stroke-linecap="round" stroke-linejoin="round"/>
	<path d="M69.6367 600.71C69.6367 600.71 68.9546 605.714 68.4998 613.22" stroke="#263238" stroke-miterlimit="10" stroke-linecap="round" stroke-linejoin="round"/>
</svg>
