<svg width="100%" height="100%" viewBox="0 0 705 632" fill="none" 
	xmlns="http://www.w3.org/2000/svg">
	<g clip-path="url(#clip0)">
		<path class="morthing" d="M43.9262 354.758C54.089 346.881 64.5795 339.168 70.8083 327.68C101.952 269.75 37.0417 202.137 73.1031 139.283C91.2977 107.446 127.359 84.1422 162.437 97.435C199.81 111.548 235.215 126.318 275.539 114.667C346.022 94.1529 382.575 -1.52282 459.288 0.118272C522.395 1.43115 592.387 67.8954 555.998 136.821C528.46 189.008 545.671 232.169 609.434 241.195C673.361 250.221 700.899 325.711 681.885 358.205C662.871 390.534 626.645 424.833 661.231 439.11C695.818 453.388 707.783 500.323 704.341 532.653C700.899 565.146 694.014 577.783 694.014 577.783H31.4686C31.4686 577.783 3.43909 541.843 -0.00311279 458.968C-1.47839 423.028 5.89783 387.908 32.9438 363.456C36.55 360.338 40.3201 357.548 43.9262 354.758Z" fill="#F5EDF7"/>
		<path class="delivery_ground_shadow" d="M356.516 631.119C287.262 631.119 231.121 625.241 231.121 617.99C231.121 610.74 287.262 604.862 356.516 604.862C425.77 604.862 481.911 610.74 481.911 617.99C481.911 625.241 425.77 631.119 356.516 631.119Z" fill="#CCA9D9"/>
		<path d="M73.2697 509.514V489.329H95.5622V450.599H127.69V292.562H158.342V388.073H186.207V353.939H223.908V442.229H239.152V470.62H275.541V459.953H264.231V454.045H310.291V461.102H304.718V491.79H328.486V434.024H412.083V475.215H472.076V444.691H494.368V478.826H541.904V416.3H561.41V395.13H596.324V491.79H631.074V512.96H653.53V577.784H29.9961V509.514H73.2697Z" stroke="#263238" stroke-miterlimit="10"/>
		<path d="M582.555 416.136H590.095V423.685H582.555V416.136Z" fill="#263238"/>
		<path d="M566.819 416.136H574.359V423.685H566.819V416.136Z" fill="#263238"/>
		<path d="M582.555 431.726H590.095V439.275H582.555V431.726Z" fill="#263238"/>
		<path d="M566.819 431.726H574.359V439.275H566.819V431.726Z" fill="#263238"/>
		<path d="M549.936 431.726H557.476V439.275H549.936V431.726Z" fill="#263238"/>
		<path d="M549.936 447.481H557.476V455.03H549.936V447.481Z" fill="#263238"/>
		<path d="M549.936 463.235H557.476V470.784H549.936V463.235Z" fill="#263238"/>
		<path d="M549.936 478.99H557.476V486.539H549.936V478.99Z" fill="#263238"/>
		<path d="M549.936 494.744H557.476V502.293H549.936V494.744Z" fill="#263238"/>
		<path d="M549.936 510.499H557.476V518.048H549.936V510.499Z" fill="#263238"/>
		<path d="M582.555 447.481H590.095V455.03H582.555V447.481Z" fill="#263238"/>
		<path d="M566.819 447.481H574.359V455.03H566.819V447.481Z" fill="#263238"/>
		<path d="M582.555 463.235H590.095V470.784H582.555V463.235Z" fill="#263238"/>
		<path d="M566.819 463.235H574.359V470.784H566.819V463.235Z" fill="#263238"/>
		<path d="M582.555 478.99H590.095V486.539H582.555V478.99Z" fill="#263238"/>
		<path d="M566.819 478.99H574.359V486.539H566.819V478.99Z" fill="#263238"/>
		<path d="M582.555 494.744H590.095V502.293H582.555V494.744Z" fill="#263238"/>
		<path d="M617.141 503.606H624.681V511.155H617.141V503.606Z" fill="#263238"/>
		<path d="M508.465 486.539H516.005V494.088H508.465V486.539Z" fill="#263238"/>
		<path d="M493.385 486.539H500.925V494.088H493.385V486.539Z" fill="#263238"/>
		<path d="M145.72 301.588H153.26V309.137H145.72V301.588Z" fill="#263238"/>
		<path d="M136.377 301.588H143.917V309.137H136.377V301.588Z" fill="#263238"/>
		<path d="M145.72 317.342H153.26V324.891H145.72V317.342Z" fill="#263238"/>
		<path d="M136.377 317.342H143.917V324.891H136.377V317.342Z" fill="#263238"/>
		<path d="M145.72 332.933H153.26V340.482H145.72V332.933Z" fill="#263238"/>
		<path d="M136.377 332.933H143.917V340.482H136.377V332.933Z" fill="#263238"/>
		<path d="M145.72 348.687H153.26V356.236H145.72V348.687Z" fill="#263238"/>
		<path d="M136.377 348.687H143.917V356.236H136.377V348.687Z" fill="#263238"/>
		<path d="M145.72 364.442H153.26V371.991H145.72V364.442Z" fill="#263238"/>
		<path d="M136.377 364.442H143.917V371.991H136.377V364.442Z" fill="#263238"/>
		<path d="M145.72 380.196H153.26V387.745H145.72V380.196Z" fill="#263238"/>
		<path d="M136.377 380.196H143.917V387.745H136.377V380.196Z" fill="#263238"/>
		<path d="M145.72 395.951H153.26V403.5H145.72V395.951Z" fill="#263238"/>
		<path d="M136.377 395.951H143.917V403.5H136.377V395.951Z" fill="#263238"/>
		<path d="M145.72 411.705H153.26V419.254H145.72V411.705Z" fill="#263238"/>
		<path d="M136.377 411.705H143.917V419.254H136.377V411.705Z" fill="#263238"/>
		<path d="M145.72 427.459H153.26V435.008H145.72V427.459Z" fill="#263238"/>
		<path d="M136.377 427.459H143.917V435.008H136.377V427.459Z" fill="#263238"/>
		<path d="M209.812 427.459H217.352V435.008H209.812V427.459Z" fill="#263238"/>
		<path d="M193.584 427.459H201.124V435.008H193.584V427.459Z" fill="#263238"/>
		<path d="M177.192 427.459H184.732V435.008H177.192V427.459Z" fill="#263238"/>
		<path d="M209.812 461.43H217.352V468.979H209.812V461.43Z" fill="#263238"/>
		<path d="M193.584 461.43H201.124V468.979H193.584V461.43Z" fill="#263238"/>
		<path d="M177.192 461.43H184.732V468.979H177.192V461.43Z" fill="#263238"/>
		<path d="M209.812 495.401H217.352V502.95H209.812V495.401Z" fill="#263238"/>
		<path d="M193.584 495.401H201.124V502.95H193.584V495.401Z" fill="#263238"/>
		<path d="M177.192 495.401H184.732V502.95H177.192V495.401Z" fill="#263238"/>
		<path d="M145.72 443.05H153.26V450.599H145.72V443.05Z" fill="#263238"/>
		<path d="M136.377 443.05H143.917V450.599H136.377V443.05Z" fill="#263238"/>
		<path d="M145.72 458.804H153.26V466.353H145.72V458.804Z" fill="#263238"/>
		<path d="M136.377 458.804H143.917V466.353H136.377V458.804Z" fill="#263238"/>
		<path d="M145.72 474.559H153.26V482.108H145.72V474.559Z" fill="#263238"/>
		<path d="M136.377 474.559H143.917V482.108H136.377V474.559Z" fill="#263238"/>
		<path d="M120.641 458.804H128.182V466.353H120.641V458.804Z" fill="#263238"/>
		<path d="M102.939 458.804H110.479V466.353H102.939V458.804Z" fill="#263238"/>
		<path d="M120.641 473.903H128.182V481.452H120.641V473.903Z" fill="#263238"/>
		<path d="M102.939 473.903H110.479V481.452H102.939V473.903Z" fill="#263238"/>
		<path d="M120.641 489H128.182V496.55H120.641V489Z" fill="#263238"/>
		<path d="M102.939 489H110.479V496.55H102.939V489Z" fill="#263238"/>
		<path d="M120.641 504.099H128.182V511.648H120.641V504.099Z" fill="#263238"/>
		<path d="M102.939 504.099H110.479V511.648H102.939V504.099Z" fill="#263238"/>
		<path d="M145.72 490.313H153.26V497.862H145.72V490.313Z" fill="#263238"/>
		<path d="M136.377 490.313H143.917V497.862H136.377V490.313Z" fill="#263238"/>
		<path d="M145.72 506.068H153.26V513.617H145.72V506.068Z" fill="#263238"/>
		<path d="M136.377 506.068H143.917V513.617H136.377V506.068Z" fill="#263238"/>
		<path d="M566.819 494.744H574.359V502.293H566.819V494.744Z" fill="#263238"/>
		<path d="M582.555 510.499H590.095V518.048H582.555V510.499Z" fill="#263238"/>
		<path d="M566.819 510.499H574.359V518.048H566.819V510.499Z" fill="#263238"/>
		<path d="M582.555 526.253H590.095V533.802H582.555V526.253Z" fill="#263238"/>
		<path d="M566.819 526.253H574.359V533.802H566.819V526.253Z" fill="#263238"/>
		<path d="M582.555 541.844H590.095V549.393H582.555V541.844Z" fill="#263238"/>
		<path d="M566.819 541.844H574.359V549.393H566.819V541.844Z" fill="#263238"/>
		<path d="M169.652 546.603V577.783H232.432V515.914H169.652V541.023" stroke="#263238" stroke-miterlimit="10"/>
		<path d="M53.9275 568.429V577.784H116.871V545.126H103.922" stroke="#263238" stroke-miterlimit="10"/>
		<path d="M96.2183 545.126H53.9279V563.342" stroke="#263238" stroke-miterlimit="10"/>
		<path d="M517.153 545.126H472.568V577.784H535.347V545.126H523.218" stroke="#263238" stroke-miterlimit="10"/>
		<path d="M615.502 545.126H609.601V577.784H632.877V545.126H620.255" stroke="#263238" stroke-miterlimit="10"/>
		<path d="M196.043 515.914H206.042V577.783H196.043V515.914Z" stroke="#263238" stroke-miterlimit="10"/>
		<path d="M274.066 524.284H284.065V507.873H250.626V524.284H265.214" stroke="#263238" stroke-miterlimit="10"/>
		<path d="M450.603 496.55H488.959V510.335H450.603V496.55Z" stroke="#263238" stroke-miterlimit="10"/>
		<path d="M466.995 496.55H470.765V577.784H466.995V496.55Z" stroke="#263238" stroke-miterlimit="10"/>
		<path d="M365.695 3.56543C248.988 3.56543 154.245 98.4206 154.245 215.266C154.245 320.789 349.304 569.742 349.304 569.742H365.695C365.695 569.742 577.146 332.112 577.146 215.266C577.146 98.2564 482.403 3.56543 365.695 3.56543ZM365.695 318.655C308.653 318.655 262.429 272.376 262.429 215.266C262.429 158.156 308.653 111.878 365.695 111.878C422.738 111.878 468.962 158.156 468.962 215.266C468.962 272.376 422.738 318.655 365.695 318.655Z" fill="#263238" stroke="#263238" stroke-miterlimit="10" stroke-linecap="round" stroke-linejoin="round"/>
		<path d="M349.304 3.56543C232.596 3.56543 137.853 98.4206 137.853 215.266C137.853 332.112 349.304 569.742 349.304 569.742C349.304 569.742 560.755 332.112 560.755 215.266C560.755 98.2564 466.012 3.56543 349.304 3.56543ZM349.304 318.655C292.262 318.655 246.037 272.376 246.037 215.266C246.037 158.156 292.262 111.878 349.304 111.878C406.347 111.878 452.571 158.156 452.571 215.266C452.571 272.376 406.347 318.655 349.304 318.655Z" fill="#CCA9D9" stroke="#263238" stroke-miterlimit="10" stroke-linecap="round" stroke-linejoin="round"/>
		<path d="M432.244 344.256L408.804 304.542L408.477 318.819L422.409 346.718L432.244 344.256Z" fill="white" stroke="#263238" stroke-miterlimit="10" stroke-linecap="round" stroke-linejoin="round"/>
		<path d="M408.477 478.662C408.477 478.662 409.789 488.344 417.329 497.534C424.869 506.724 434.868 524.776 435.359 541.844C435.851 558.911 455.521 606.339 453.39 609.949C451.259 613.395 431.917 618.319 424.377 618.319C420.443 618.319 413.887 619.796 411.428 616.021C411.264 615.857 426.672 607.816 427.819 606.995C428.639 606.339 437.49 600.102 437.163 599.446C437.163 599.446 417.001 544.634 406.838 530.52C396.675 516.407 389.299 505.904 386.185 497.042C383.07 488.18 380.448 479.974 380.448 479.974L408.477 478.662Z" fill="white" stroke="#263238" stroke-miterlimit="10" stroke-linecap="round" stroke-linejoin="round"/>
		<path d="M413.886 492.939C406.51 496.057 397.166 499.175 387.331 500.488C386.84 499.339 386.348 498.191 386.02 497.206C382.906 488.344 380.283 480.139 380.283 480.139L408.313 478.826C408.477 478.662 409.296 485.39 413.886 492.939Z" fill="#CCA9D9"/>
		<path d="M344.878 482.272C344.878 482.272 338.649 489.657 336.682 501.473C334.715 513.289 328.158 532.818 315.701 544.634C303.243 556.449 281.278 606.01 277.181 606.831C272.427 607.652 265.215 601.579 261.609 599.118C257.183 596 246.692 589.599 245.217 584.02C243.414 577.619 249.971 580.902 252.757 582.871C256.363 585.497 274.23 587.794 274.23 587.794C274.23 587.794 301.44 532.818 305.21 515.914C308.816 499.011 311.767 486.375 316.192 478.169C320.618 469.964 325.044 462.415 325.044 462.415L344.878 482.272Z" fill="white" stroke="#263238" stroke-miterlimit="10" stroke-linecap="round" stroke-linejoin="round"/>
		<path d="M316.192 478.005C320.618 469.8 325.044 462.251 325.044 462.251L344.878 482.272C344.878 482.272 340.124 487.852 337.665 497.042C328.158 495.237 318.979 492.939 311.439 490.15C312.914 485.39 314.389 481.288 316.192 478.005Z" fill="#CCA9D9"/>
		<path d="M245.381 583.856C243.578 577.455 250.135 580.738 252.921 582.707C256.527 585.333 274.394 587.63 274.394 587.63C274.394 587.63 276.361 583.363 279.148 576.963C282.918 580.081 287.343 582.215 290.622 583.692C284.557 595.836 279.311 606.503 277.344 606.831C272.591 607.652 265.379 601.579 261.773 599.118C257.183 595.836 246.856 589.435 245.381 583.856Z" fill="white" stroke="#263238" stroke-miterlimit="10" stroke-linecap="round" stroke-linejoin="round"/>
		<path d="M407.821 391.027L423.065 475.051C423.065 475.051 413.23 481.616 401.264 486.047C389.299 490.478 368.481 489.329 368.481 489.329L360.286 448.302L357.007 486.539C357.007 486.539 341.108 488.18 329.797 486.047C318.323 483.913 299.801 471.769 299.801 471.769L335.862 404.649L344.058 388.73L407.821 387.089V391.027Z" fill="white" stroke="#263238" stroke-miterlimit="10"/>
		<path d="M359.793 439.276C354.22 432.383 352.253 391.52 352.253 391.52L407.821 387.253V390.863L414.705 429.101C399.297 434.188 364.055 444.691 359.793 439.276Z" fill="#CCA9D9"/>
		<path d="M313.733 324.563L282.589 332.769L269.968 295.024L317.503 285.998L328.158 320.953L313.733 324.563Z" fill="#263238" stroke="#263238" stroke-miterlimit="10" stroke-linecap="round" stroke-linejoin="round"/>
		<path d="M307.668 307.168L287.835 311.927" stroke="white" stroke-miterlimit="10" stroke-linecap="round" stroke-linejoin="round"/>
		<path d="M309.636 311.927L289.802 316.85" stroke="white" stroke-miterlimit="10" stroke-linecap="round" stroke-linejoin="round"/>
		<path d="M346.188 326.697C346.188 326.697 336.354 321.445 333.075 316.85C329.797 312.255 326.191 304.542 324.552 303.393C322.912 302.244 314.717 298.142 313.077 296.829C311.438 295.516 308.98 298.142 311.766 300.439C314.553 302.737 320.782 308.316 320.782 308.316C320.782 308.316 319.142 315.701 321.109 318.163C323.076 320.625 324.715 321.773 324.715 321.773L313.569 324.727C313.569 324.727 320.945 329.979 324.224 330.963C327.502 331.948 334.059 332.276 334.059 332.276L347.5 342.943L346.188 326.697Z" fill="white" stroke="#263238" stroke-miterlimit="10" stroke-linecap="round" stroke-linejoin="round"/>
		<path d="M390.446 236.929C390.446 236.929 403.559 255.966 406.837 278.449C410.116 300.767 407.985 390.863 407.985 390.863C407.985 390.863 390.61 397.92 376.841 397.92C363.236 397.92 343.074 399.069 342.419 391.356C341.927 383.643 346.189 295.844 352.254 274.51C358.318 253.176 370.284 235.124 370.284 235.124C370.284 235.124 383.889 226.098 390.446 236.929Z" fill="#263238" stroke="#263238" stroke-miterlimit="10" stroke-linecap="round" stroke-linejoin="round"/>
		<path d="M360.449 253.668L378.152 366.083L362.58 371.827L355.532 263.843L360.449 253.668Z" fill="white" stroke="#263238" stroke-miterlimit="10" stroke-linecap="round" stroke-linejoin="round"/>
		<path d="M399.461 193.44C399.461 193.44 397.331 203.779 392.905 209.359C388.479 214.774 380.283 217.564 380.283 217.564L382.578 230.036L367.334 239.391L361.761 212.805L360.122 181.132C360.286 180.968 398.478 187.368 399.461 193.44Z" fill="white" stroke="#263238" stroke-miterlimit="10" stroke-linecap="round" stroke-linejoin="round"/>
		<path d="M399.461 193.44C399.461 193.44 397.331 203.779 392.905 209.359C388.479 214.774 380.283 217.564 380.283 217.564C380.283 217.564 367.17 213.79 366.023 204.928C365.203 198.691 366.351 187.86 367.17 182.281C378.48 184.414 398.642 189.173 399.461 193.44Z" fill="#263238" stroke="#263238" stroke-miterlimit="10" stroke-linecap="round" stroke-linejoin="round"/>
		<path d="M377.169 196.23C377.169 196.23 382.579 189.665 385.857 192.455C389.135 195.245 387.988 202.794 384.218 206.733C380.448 210.671 375.53 207.225 375.53 207.225C375.53 207.225 373.399 214.282 369.465 217.564C365.695 220.846 352.582 222.98 348.156 219.697C343.731 216.415 345.37 204.435 345.37 204.435C345.37 204.435 337.666 200.661 338.321 197.871C338.813 195.081 344.386 192.948 344.386 190.814C344.386 188.681 344.878 185.891 344.878 185.891V181.46L369.957 186.876C370.121 186.876 373.399 199.512 377.169 196.23Z" fill="white" stroke="#263238" stroke-miterlimit="10" stroke-linecap="round" stroke-linejoin="round"/>
		<g opacity="0.5">
			<path opacity="0.5" d="M370.121 186.876C370.121 186.876 371.268 191.471 373.235 194.425C363.4 193.932 352.91 193.276 343.402 192.455C344.058 191.799 344.55 191.142 344.55 190.65C344.55 188.517 345.042 185.727 345.042 185.727V181.296L370.121 186.876Z" fill="#CCA9D9"/>
		</g>
		<path d="M399.461 193.44L344.878 181.46C344.878 181.46 352.582 154.71 361.761 152.577C371.104 150.443 388.971 149.295 398.806 159.141C408.805 168.824 399.461 193.44 399.461 193.44Z" fill="white" stroke="#263238" stroke-miterlimit="10" stroke-linecap="round" stroke-linejoin="round"/>
		<path d="M362.908 185.727C362.908 185.727 350.942 188.517 341.107 189.009C331.272 189.501 308.98 180.803 314.389 180.311C319.798 179.819 344.877 181.46 344.877 181.46L362.908 185.727Z" fill="#263238" stroke="#263238" stroke-miterlimit="10" stroke-linecap="round" stroke-linejoin="round"/>
		<path d="M388.151 225.605L393.069 236.436L368.645 251.699L363.728 236.436L388.151 225.605Z" fill="white" stroke="#263238" stroke-miterlimit="10" stroke-linecap="round" stroke-linejoin="round"/>
		<path d="M438.801 339.825L351.598 362.472L360.613 426.311C361.269 430.742 365.531 433.696 369.957 432.547L449.292 411.869C452.406 411.049 454.209 407.931 453.554 404.812L438.801 339.825Z" fill="white" stroke="#263238" stroke-miterlimit="10" stroke-linecap="round" stroke-linejoin="round"/>
		<path d="M438.801 339.825C438.801 339.825 418.312 389.878 405.526 396.443C392.741 403.007 351.434 362.472 351.434 362.472" stroke="#263238" stroke-miterlimit="10" stroke-linecap="round" stroke-linejoin="round"/>
		<path d="M421.426 317.835C421.426 317.835 426.835 329.815 425.196 334.246C423.557 338.677 355.86 363.129 355.86 363.129C355.86 363.129 355.368 372.483 353.729 374.617C352.09 376.75 350.451 382.33 350.451 382.33C350.451 382.33 353.729 390.043 352.09 391.684C350.451 393.325 345.533 383.971 345.533 381.345C345.533 378.555 345.041 363.949 346.681 360.011C348.32 356.236 394.708 327.845 394.708 327.845L421.426 317.835Z" fill="white" stroke="#263238" stroke-miterlimit="10" stroke-linecap="round" stroke-linejoin="round"/>
		<path d="M391.429 252.355L423.065 319.476L394.708 327.681L371.924 274.182" fill="#263238"/>
		<path d="M391.429 252.355L423.065 319.476L394.708 327.681L371.924 274.182" stroke="#263238" stroke-miterlimit="10" stroke-linecap="round" stroke-linejoin="round"/>
		<path d="M394.708 327.681L373.891 280.746" stroke="white" stroke-miterlimit="10" stroke-linecap="round" stroke-linejoin="round"/>
		<path d="M381.103 297.978L370.449 287.475" stroke="white" stroke-miterlimit="10" stroke-linecap="round" stroke-linejoin="round"/>
		<path d="M412.247 473.41C403.887 477.677 388.807 483.585 369.793 482.272" stroke="#263238" stroke-miterlimit="10" stroke-linecap="round" stroke-linejoin="round"/>
		<path d="M419.295 469.144C419.295 469.144 417.984 470.128 415.689 471.441" stroke="#263238" stroke-miterlimit="10" stroke-linecap="round" stroke-linejoin="round"/>
		<path d="M312.914 469.472C310.947 468.323 308.816 467.174 306.849 465.697" stroke="#263238" stroke-miterlimit="10" stroke-linecap="round" stroke-linejoin="round"/>
		<path d="M354.876 479.974C354.876 479.974 336.19 480.303 317.667 471.933" stroke="#263238" stroke-miterlimit="10" stroke-linecap="round" stroke-linejoin="round"/>
		<path d="M360.449 448.301L348.648 427.952" stroke="#263238" stroke-miterlimit="10" stroke-linecap="round" stroke-linejoin="round"/>
		<path d="M359.794 447.317L340.124 424.998" stroke="#263238" stroke-miterlimit="10" stroke-linecap="round" stroke-linejoin="round"/>
		<path d="M409.788 438.455L411.427 450.599C411.427 450.599 406.182 454.538 398.314 457.164C390.446 459.789 373.726 459.461 373.726 459.461L371.432 447.973C371.432 447.973 400.609 444.691 406.51 439.768" stroke="#263238" stroke-miterlimit="10" stroke-linecap="round" stroke-linejoin="round"/>
		<path d="M411.755 455.194C411.755 455.194 416.345 466.354 413.394 468.979C410.444 471.605 389.463 479.482 383.889 478.826C378.316 478.169 375.038 464.384 375.038 464.384" stroke="#263238" stroke-miterlimit="10" stroke-linecap="round" stroke-linejoin="round"/>
		<path d="M245.381 583.856C243.578 577.455 250.134 580.738 252.921 582.707C256.527 585.333 274.394 587.63 274.394 587.63C274.394 587.63 275.213 585.825 276.525 582.707C278.656 584.676 282.753 587.63 287.671 589.435C282.917 598.954 279.147 606.339 277.344 606.667C272.591 607.487 265.378 601.415 261.772 598.954C257.183 595.836 246.856 589.435 245.381 583.856Z" fill="#263238" stroke="#263238" stroke-miterlimit="10" stroke-linecap="round" stroke-linejoin="round"/>
		<path d="M258.986 592.718C266.363 596.492 274.886 601.251 279.968 603.877C278.82 605.518 278.001 606.503 277.345 606.667C272.591 607.487 265.379 601.415 261.773 598.954C257.347 595.836 246.857 589.435 245.381 583.856C244.562 581.23 245.381 580.245 246.693 580.081C249.315 584.676 253.577 589.928 258.986 592.718Z" fill="white" stroke="#263238" stroke-miterlimit="10" stroke-linecap="round" stroke-linejoin="round"/>
		<path d="M427.655 607.159C428.474 606.503 437.326 600.267 436.998 599.61C436.998 599.61 435.195 594.851 432.408 587.63C437.817 586.974 442.735 585.333 446.013 584.02C450.439 597.313 454.209 608.472 453.062 610.113C450.931 613.56 431.589 618.483 424.049 618.483C420.115 618.483 413.558 619.96 411.099 616.185C411.099 615.857 426.507 607.816 427.655 607.159Z" fill="white" stroke="#263238" stroke-miterlimit="10" stroke-linecap="round" stroke-linejoin="round"/>
		<path d="M411.263 616.021C411.099 615.857 426.507 607.816 427.655 606.995C428.474 606.339 437.326 600.103 436.998 599.446C436.998 599.446 436.342 597.641 435.195 594.851C440.604 593.866 445.358 592.225 448.472 591.077C451.75 601.087 454.045 608.636 453.226 610.113C451.095 613.56 431.753 618.483 424.213 618.483C420.279 618.319 413.886 619.96 411.263 616.021Z" fill="#263238" stroke="#263238" stroke-miterlimit="10" stroke-linecap="round" stroke-linejoin="round"/>
		<path d="M426.672 614.708C436.671 614.052 447.817 609.949 453.39 607.652C453.554 608.8 453.554 609.621 453.39 609.949C451.259 613.395 431.917 618.319 424.377 618.319C420.443 618.319 413.886 619.796 411.428 616.021C411.428 616.021 412.247 615.365 413.722 614.708C416.837 615.037 421.263 615.037 426.672 614.708Z" fill="white" stroke="#263238" stroke-miterlimit="10" stroke-linecap="round" stroke-linejoin="round"/>
		<path d="M365.858 185.891L374.546 165.049" stroke="black" stroke-miterlimit="10" stroke-linecap="round" stroke-linejoin="round"/>
		<path d="M375.694 161.274C375.694 161.274 378.48 155.202 376.186 152.577" stroke="black" stroke-miterlimit="10" stroke-linecap="round" stroke-linejoin="round"/>
	</g>
	<defs>
		<clipPath id="clip0">
			<rect width="705" height="631" fill="white" transform="matrix(-1 0 0 1 705 0.119141)"/>
		</clipPath>
	</defs>
</svg>
