<svg width="100%" height="100%" viewBox="0 0 705 794" fill="none" 
	xmlns="http://www.w3.org/2000/svg">
	<g clip-path="url(#clip0)">
		<path class="morthing" d="M704.795 323.682C707.866 238.915 677.365 153.125 610.222 112.175C577.06 92.1091 538.371 80.2335 499.477 82.0763C457.923 83.919 418.824 100.913 379.521 114.836C340.218 128.759 297.844 140.021 257.313 129.988C228.04 122.822 202.247 105.008 173.384 97.0231C59.5688 65.2867 -39.7126 194.689 15.9669 297.474C29.6821 322.659 50.7666 342.929 68.5758 365.451C86.385 387.974 101.124 415.206 98.872 443.871C96.8249 467.622 83.3145 488.711 77.7875 511.848C67.1429 556.074 88.2274 604.805 124.869 631.628C161.511 658.655 211.05 665.002 255.061 653.945C299.277 642.889 338.171 615.657 368.876 582.078C385.253 564.06 401.22 542.97 424.965 536.828C447.483 530.89 470.819 540.513 493.746 544.813C535.915 552.798 581.564 542.561 616.159 516.967C671.633 476.222 701.93 400.464 704.795 323.682Z" fill="#F0E5F4"/>
		<path class="faq_image_ground_shadow" d="M340.014 793.381C492.864 793.381 616.773 768.63 616.773 738.098C616.773 707.566 492.864 682.815 340.014 682.815C187.163 682.815 63.2539 707.566 63.2539 738.098C63.2539 768.63 187.163 793.381 340.014 793.381Z" fill="#CCA9D9"/>
		<path d="M633.763 246.286H434.177C427.422 246.286 421.895 240.758 421.895 234.001V13.8942C421.895 7.1374 427.422 1.60913 434.177 1.60913H633.763C640.518 1.60913 646.045 7.1374 646.045 13.8942V234.001C646.045 240.758 640.518 246.286 633.763 246.286Z" fill="white" stroke="#263238" stroke-miterlimit="10" stroke-linecap="round" stroke-linejoin="round"/>
		<path d="M646.045 26.7935H421.895V13.8942C421.895 7.1374 427.422 1.60913 434.177 1.60913H633.763C640.518 1.60913 646.045 7.1374 646.045 13.8942V26.7935Z" fill="#263238" stroke="#263238" stroke-miterlimit="10" stroke-linecap="round" stroke-linejoin="round"/>
		<path d="M434.177 132.24H524.246" stroke="#263238" stroke-miterlimit="10" stroke-linecap="round" stroke-linejoin="round"/>
		<path d="M434.177 143.911H524.246" stroke="#263238" stroke-miterlimit="10" stroke-linecap="round" stroke-linejoin="round"/>
		<path d="M434.177 155.582H524.246" stroke="#263238" stroke-miterlimit="10" stroke-linecap="round" stroke-linejoin="round"/>
		<path d="M434.177 167.252H524.246" stroke="#263238" stroke-miterlimit="10" stroke-linecap="round" stroke-linejoin="round"/>
		<path d="M434.177 178.923H524.246" stroke="#263238" stroke-miterlimit="10" stroke-linecap="round" stroke-linejoin="round"/>
		<path d="M434.177 190.594H524.246" stroke="#263238" stroke-miterlimit="10" stroke-linecap="round" stroke-linejoin="round"/>
		<path d="M434.177 202.265H524.246" stroke="#263238" stroke-miterlimit="10" stroke-linecap="round" stroke-linejoin="round"/>
		<path d="M434.177 213.936H524.246" stroke="#263238" stroke-miterlimit="10" stroke-linecap="round" stroke-linejoin="round"/>
		<path d="M434.177 225.606H524.246" stroke="#263238" stroke-miterlimit="10" stroke-linecap="round" stroke-linejoin="round"/>
		<path d="M540.214 132.24H630.488" stroke="#263238" stroke-miterlimit="10" stroke-linecap="round" stroke-linejoin="round"/>
		<path d="M540.214 143.911H630.488" stroke="#263238" stroke-miterlimit="10" stroke-linecap="round" stroke-linejoin="round"/>
		<path d="M540.214 155.582H630.488" stroke="#263238" stroke-miterlimit="10" stroke-linecap="round" stroke-linejoin="round"/>
		<path d="M540.214 167.252H630.488" stroke="#263238" stroke-miterlimit="10" stroke-linecap="round" stroke-linejoin="round"/>
		<path d="M540.214 178.923H630.488" stroke="#263238" stroke-miterlimit="10" stroke-linecap="round" stroke-linejoin="round"/>
		<path d="M540.214 190.594H630.488" stroke="#263238" stroke-miterlimit="10" stroke-linecap="round" stroke-linejoin="round"/>
		<path d="M540.214 202.265H630.488" stroke="#263238" stroke-miterlimit="10" stroke-linecap="round" stroke-linejoin="round"/>
		<path d="M540.214 213.936H630.488" stroke="#263238" stroke-miterlimit="10" stroke-linecap="round" stroke-linejoin="round"/>
		<path d="M540.214 225.606H630.488" stroke="#263238" stroke-miterlimit="10" stroke-linecap="round" stroke-linejoin="round"/>
		<path d="M631.103 35.8027H538.167V119.751H631.103V35.8027Z" fill="#CCA9D9" stroke="#263238" stroke-width="2" stroke-miterlimit="10" stroke-linecap="round" stroke-linejoin="round"/>
		<path d="M631.103 70.8152C628.646 71.0199 625.576 71.2247 621.891 72.0437C607.766 75.115 604.082 95.3853 588.115 95.3853C573.99 95.3853 572.762 76.3435 552.496 73.8864C546.355 73.0674 541.647 74.296 538.167 76.3435V119.546H631.103V70.8152Z" fill="#263238" stroke="#263238" stroke-miterlimit="10" stroke-linecap="round" stroke-linejoin="round"/>
		<path d="M569.078 55.0492C569.078 60.7823 564.37 65.4915 558.638 65.4915C552.906 65.4915 548.198 60.7823 548.198 55.0492C548.198 49.3162 552.906 44.6069 558.638 44.6069C564.37 44.6069 569.078 49.3162 569.078 55.0492Z" fill="white" stroke="#263238" stroke-miterlimit="10" stroke-linecap="round" stroke-linejoin="round"/>
		<path d="M635.401 8.98022H428.65V16.9655H635.401V8.98022Z" fill="white" stroke="#263238" stroke-miterlimit="10" stroke-linecap="round" stroke-linejoin="round"/>
		<path d="M470 80.2334C468.977 81.6666 468.567 83.0999 468.567 84.7379C468.567 86.1711 468.977 87.6044 469.591 88.8329C470.205 90.0614 471.024 90.8804 472.047 91.6994C473.071 92.5184 474.094 93.1327 475.323 93.5422C476.551 93.9517 477.779 94.1564 479.007 94.1564C479.212 94.1564 479.826 94.1564 480.44 94.1564C481.054 94.1564 481.668 93.9517 482.487 93.7469C483.306 93.5422 484.125 93.3374 484.944 92.9279C485.762 92.5184 486.581 92.1089 487.4 91.2899L475.732 75.9336C472.866 77.5716 471.024 78.8001 470 80.2334Z" fill="#CCA9D9"/>
		<path d="M478.188 72.0434C478.598 71.8386 479.212 71.4291 479.826 71.0196C480.44 70.6101 480.85 69.9958 481.464 69.3816C481.873 68.7673 482.283 68.1531 482.692 67.3341C483.101 66.5151 483.101 65.6961 483.101 64.8771C483.101 64.4676 483.101 63.8533 482.897 63.2391C482.692 62.6248 482.487 62.0106 482.078 61.6011C481.668 60.9868 481.259 60.5773 480.645 60.3726C480.031 59.9631 479.417 59.7583 478.393 59.7583C477.574 59.7583 476.96 59.9631 476.346 60.1678C475.732 60.3726 475.323 60.7821 474.913 61.1916C474.504 61.6011 474.299 62.2153 474.094 62.6248C473.89 63.2391 473.89 63.6486 473.89 64.2628C473.89 65.4913 474.299 66.7198 475.118 68.1531C475.937 69.1768 476.96 70.6101 478.188 72.0434Z" fill="#CCA9D9"/>
		<path d="M479.826 46.4495C462.63 46.4495 448.506 60.3725 448.506 77.7763C448.506 94.9754 462.426 109.103 479.826 109.103C497.021 109.103 511.145 95.1802 511.145 77.7763C511.145 60.5773 497.021 46.4495 479.826 46.4495ZM497.225 81.2571C496.611 82.8951 495.997 84.3284 495.383 85.5569C494.769 86.7854 493.95 87.8091 493.336 88.6281C492.722 89.4471 492.108 90.0614 491.903 90.4709L497.021 96.8182H491.084L488.628 93.5422C486.376 95.1802 484.329 96.2039 482.487 96.8182C480.644 97.2277 479.007 97.6372 477.574 97.6372C475.322 97.6372 473.275 97.4324 471.637 96.8182C470 96.2039 468.567 95.3849 467.339 94.3612C466.11 93.3374 465.292 92.1089 464.677 90.8804C464.063 89.6519 463.859 88.2186 463.859 86.9901C463.859 85.5569 464.063 84.3284 464.677 83.0999C465.292 81.8714 465.906 80.8476 466.929 79.8238C467.953 78.8001 468.976 77.9811 470.204 76.9573C471.433 76.1383 472.866 75.3193 474.299 74.7051C473.07 73.0671 472.047 71.4291 471.228 70.2006C470.409 68.7673 470 67.334 470 65.9008C470 64.877 470.204 64.058 470.409 63.0343C470.819 62.0105 471.228 61.1915 471.842 60.3725C472.456 59.5535 473.48 58.9393 474.503 58.5298C475.527 58.1203 476.755 57.7108 478.393 57.7108C479.621 57.7108 480.644 57.9155 481.668 58.325C482.691 58.7345 483.51 59.144 484.329 59.963C485.148 60.5773 485.557 61.601 486.171 62.42C486.581 63.4438 486.785 64.4675 486.785 65.696C486.785 67.334 486.171 68.7673 485.148 70.2006C484.124 71.6338 482.282 73.0671 479.621 74.2956L490.675 88.8329C491.698 87.3996 492.722 85.7616 493.131 83.7141C493.745 81.8714 494.155 79.4143 494.155 76.3431H498.454C498.044 77.7763 497.839 79.6191 497.225 81.2571Z" fill="#CCA9D9"/>
		<path d="M622.504 295.222H533.049C525.679 295.222 519.743 301.159 519.743 308.53V356.442C519.743 363.813 525.679 369.751 533.049 369.751H535.915C533.049 375.894 527.726 385.312 519.129 390.84C519.129 390.84 537.348 389.612 556.18 369.751H622.504C629.874 369.751 635.81 363.813 635.81 356.442V308.53C635.605 301.159 629.669 295.222 622.504 295.222Z" fill="#263238" stroke="#263238" stroke-miterlimit="10" stroke-linecap="round" stroke-linejoin="round"/>
		<path d="M562.321 330.644C562.321 326.958 559.25 323.887 555.566 323.887C551.881 323.887 548.811 326.958 548.811 330.644C548.811 334.329 551.881 337.4 555.566 337.4C559.25 337.605 562.321 334.534 562.321 330.644Z" fill="#CCA9D9" stroke="#263238" stroke-miterlimit="10" stroke-linecap="round" stroke-linejoin="round"/>
		<path d="M585.454 330.644C585.454 326.958 582.383 323.887 578.699 323.887C575.014 323.887 571.943 326.958 571.943 330.644C571.943 334.329 575.014 337.4 578.699 337.4C582.383 337.605 585.454 334.534 585.454 330.644Z" fill="#CCA9D9" stroke="#263238" stroke-miterlimit="10" stroke-linecap="round" stroke-linejoin="round"/>
		<path d="M608.584 330.644C608.584 326.958 605.513 323.887 601.828 323.887C598.144 323.887 595.073 326.958 595.073 330.644C595.073 334.329 598.144 337.4 601.828 337.4C605.718 337.605 608.584 334.534 608.584 330.644Z" fill="#CCA9D9" stroke="#263238" stroke-miterlimit="10" stroke-linecap="round" stroke-linejoin="round"/>
		<path d="M237.72 226.132L237.72 52.2986L122.471 52.2986L122.471 226.132L237.72 226.132Z" fill="#CCA9D9" stroke="#263238" stroke-miterlimit="10" stroke-linecap="round" stroke-linejoin="round"/>
		<path d="M138.93 226.049L138.93 52.2158H122.553L122.553 226.049H138.93Z" fill="#263238" stroke="#263238" stroke-miterlimit="10" stroke-linecap="round" stroke-linejoin="round"/>
		<path d="M225.602 91.9974V71.7271L152.113 71.7271V91.9974L225.602 91.9974Z" stroke="#263238" stroke-miterlimit="10" stroke-linecap="round" stroke-linejoin="round"/>
		<path d="M195.083 374.87H30.2962C27.0209 374.87 24.5645 372.208 24.5645 369.137V306.278C24.5645 303.002 27.2256 300.545 30.2962 300.545H195.083C198.358 300.545 200.814 303.207 200.814 306.278V369.137C201.019 372.208 198.358 374.87 195.083 374.87Z" fill="#263238" stroke="#263238" stroke-miterlimit="10" stroke-linecap="round" stroke-linejoin="round"/>
		<path d="M45.649 310.578L46.4678 312.011C42.5785 314.264 38.8938 317.949 38.8938 322.454C38.8938 326.344 41.5549 328.596 44.4208 328.596C45.0349 328.596 45.4443 328.391 45.4443 327.777C45.4443 327.368 45.2396 326.958 44.6255 326.958C43.3973 326.753 42.169 325.525 42.169 323.273C42.169 320.611 44.4208 318.768 47.2866 318.768C50.1525 318.768 52.4042 321.225 52.4042 324.092C52.4042 327.777 49.3337 330.439 45.649 330.439C40.9408 330.439 37.4609 327.368 37.4609 322.454C37.2562 317.13 41.1455 313.035 45.649 310.578ZM63.0488 310.578L63.8677 312.011C59.9783 314.264 56.2936 317.949 56.2936 322.454C56.2936 326.344 58.9548 328.596 61.8206 328.596C62.4347 328.596 62.8441 328.391 62.8441 327.777C62.8441 327.368 62.6394 326.958 62.0253 326.958C60.7971 326.753 59.5689 325.525 59.5689 323.273C59.5689 320.611 61.8206 318.768 64.6865 318.768C67.5523 318.768 69.8041 321.225 69.8041 324.092C69.8041 327.777 66.7335 330.439 63.0488 330.439C58.3406 330.439 54.8607 327.368 54.8607 322.454C54.8607 317.13 58.7501 313.035 63.0488 310.578Z" fill="#CCA9D9"/>
		<path d="M80.0391 325.729H180.344" stroke="white" stroke-miterlimit="10" stroke-linecap="round" stroke-linejoin="round"/>
		<path d="M80.0391 334.329H180.344" stroke="white" stroke-miterlimit="10" stroke-linecap="round" stroke-linejoin="round"/>
		<path d="M80.0391 342.929H180.344" stroke="white" stroke-miterlimit="10" stroke-linecap="round" stroke-linejoin="round"/>
		<path d="M80.0391 351.528H180.344" stroke="white" stroke-miterlimit="10" stroke-linecap="round" stroke-linejoin="round"/>
		<path d="M60.2935 263.02C78.7032 260.014 91.191 242.65 88.1858 224.236C85.1807 205.823 67.8205 193.332 49.4108 196.338C31.0011 199.344 18.5133 216.708 21.5185 235.122C24.5237 253.536 41.8838 266.026 60.2935 263.02Z" fill="#263238" stroke="#263238" stroke-width="0.8874" stroke-miterlimit="10" stroke-linecap="round" stroke-linejoin="round"/>
		<path d="M76.1934 248.411C86.5619 236.6 85.395 218.618 73.5871 208.247C61.7791 197.877 43.8015 199.044 33.433 210.854C23.0645 222.665 24.2314 240.647 36.0394 251.018C47.8474 261.389 65.8249 260.221 76.1934 248.411Z" fill="white" stroke="#263238" stroke-width="0.8874" stroke-miterlimit="10" stroke-linecap="round" stroke-linejoin="round"/>
		<path d="M54.8604 209.022V229.702H68.7802" stroke="#263238" stroke-width="1.7748" stroke-miterlimit="10" stroke-linecap="round" stroke-linejoin="round"/>
		<path d="M414.936 340.267C414.936 340.267 436.634 386.746 436.634 389.203C436.634 391.66 417.188 402.102 413.708 404.354C410.023 406.607 404.905 408.859 404.905 408.859L407.157 430.358C407.157 430.358 440.524 422.782 454.444 415.206C468.363 407.63 467.954 399.031 464.679 386.336C461.404 373.642 439.91 324.297 439.91 324.297L414.936 340.267Z" fill="white"/>
		<path opacity="0.5" d="M454.238 415.206C468.158 407.63 467.749 399.031 464.473 386.336C461.198 373.642 439.704 324.297 439.704 324.297L436.224 326.549L435.201 328.597C435.201 328.597 455.262 377.942 456.49 394.322C457.309 405.378 435.201 419.096 420.462 426.877C431.311 424.215 446.05 419.711 454.238 415.206Z" fill="#CCA9D9"/>
		<path d="M414.936 340.267C414.936 340.267 436.634 386.746 436.634 389.203C436.634 391.66 417.188 402.102 413.708 404.354C410.023 406.607 404.905 408.859 404.905 408.859L407.157 430.358C407.157 430.358 440.524 422.782 454.444 415.206C468.363 407.63 467.954 399.031 464.679 386.336C461.404 373.642 439.91 324.297 439.91 324.297L414.936 340.267Z" stroke="#263238" stroke-miterlimit="10" stroke-linecap="round" stroke-linejoin="round"/>
		<path d="M257.519 330.03C257.519 330.03 241.552 388.384 241.143 398.622C240.733 408.859 272.667 429.334 273.895 430.563C275.123 431.791 272.053 395.141 272.053 395.141L282.902 341.906L257.519 330.03Z" fill="white"/>
		<path opacity="0.5" d="M264.888 334.739L264.479 333.101L257.519 329.825C257.519 329.825 241.552 388.179 241.143 398.417C240.733 408.654 272.667 429.13 273.895 430.358C274.305 430.768 274.1 425.444 273.895 418.687C264.274 410.497 250.764 399.236 249.126 394.322" fill="#CCA9D9"/>
		<path d="M257.519 330.03C257.519 330.03 241.552 388.384 241.143 398.622C240.733 408.859 272.667 429.334 273.895 430.563C275.123 431.791 272.053 395.141 272.053 395.141L282.902 341.906L257.519 330.03Z" stroke="#263238" stroke-miterlimit="10" stroke-linecap="round" stroke-linejoin="round"/>
		<path d="M332.235 271.471C332.235 271.471 326.094 275.976 314.016 276.385C301.938 276.795 301.529 268.195 286.586 268.4C268.572 268.4 245.85 325.525 245.85 325.525C245.85 325.525 257.108 336.582 268.162 341.291C279.216 346 287.2 347.024 287.2 347.024L288.837 384.493H410.227L411.66 347.024L449.53 322.249C449.53 322.249 430.902 288.875 421.895 276.385C412.888 263.895 397.74 268.604 393.032 271.676C388.323 274.747 374.608 275.566 369.491 274.952C364.373 274.338 349.839 269.628 349.839 269.628C349.839 269.628 342.675 262.667 332.235 271.471Z" fill="#CCA9D9" stroke="#263238" stroke-miterlimit="10" stroke-linecap="round" stroke-linejoin="round"/>
		<path d="M288.632 284.78L288.223 347.024" stroke="#263238" stroke-width="0.5" stroke-miterlimit="10" stroke-linecap="round" stroke-linejoin="round"/>
		<path d="M293.136 290.308C293.136 290.308 294.773 320.611 301.119 337.606" stroke="#263238" stroke-width="0.5" stroke-miterlimit="10" stroke-linecap="round" stroke-linejoin="round"/>
		<path d="M302.348 340.062C302.348 340.062 305.623 349.071 307.465 352.143" stroke="#263238" stroke-width="0.5" stroke-miterlimit="10" stroke-linecap="round" stroke-linejoin="round"/>
		<path d="M297.025 286.827C297.025 286.827 300.71 305.05 306.851 319.178" stroke="#263238" stroke-width="0.5" stroke-miterlimit="10" stroke-linecap="round" stroke-linejoin="round"/>
		<path d="M402.652 292.355C402.652 292.355 396.715 316.311 391.598 327.163" stroke="#263238" stroke-width="0.5" stroke-miterlimit="10" stroke-linecap="round" stroke-linejoin="round"/>
		<path d="M412.069 346.614L411.864 298.088" stroke="#263238" stroke-width="0.5" stroke-miterlimit="10" stroke-linecap="round" stroke-linejoin="round"/>
		<path d="M409.408 299.112C409.408 299.112 404.904 329.825 394.26 346" stroke="#263238" stroke-width="0.5" stroke-miterlimit="10" stroke-linecap="round" stroke-linejoin="round"/>
		<path d="M404.085 339.858C404.085 339.858 399.172 349.072 395.692 353.986" stroke="#263238" stroke-width="0.5" stroke-miterlimit="10" stroke-linecap="round" stroke-linejoin="round"/>
		<path d="M325.479 275.157C325.479 275.157 328.959 296.246 333.872 307.098C338.785 317.95 347.383 319.997 354.752 316.926C362.121 313.65 367.444 298.089 367.034 278.023" stroke="#263238" stroke-width="0.5" stroke-miterlimit="10" stroke-linecap="round" stroke-linejoin="round"/>
		<path d="M308.078 231.135C308.078 231.135 303.37 223.15 299.685 227.245C296.001 231.34 302.551 240.963 306.236 244.239C309.921 247.515 312.582 245.468 312.377 241.987C312.172 238.506 308.078 231.135 308.078 231.135Z" fill="#CCA9D9" stroke="#263238" stroke-miterlimit="10" stroke-linecap="round" stroke-linejoin="round"/>
		<path opacity="0.5" d="M308.078 231.135C308.078 231.135 303.37 223.15 299.685 227.245C296.001 231.34 302.551 240.963 306.236 244.239C309.921 247.515 312.582 245.468 312.377 241.987C312.172 238.506 308.078 231.135 308.078 231.135Z" fill="white"/>
		<path d="M308.078 231.135C308.078 231.135 303.37 223.15 299.685 227.245C296.001 231.34 302.551 240.963 306.236 244.239C309.921 247.515 312.582 245.468 312.377 241.987C312.172 238.506 308.078 231.135 308.078 231.135Z" stroke="#263238" stroke-miterlimit="10" stroke-linecap="round" stroke-linejoin="round"/>
		<path d="M382.181 231.135C382.181 231.135 386.889 223.15 390.574 227.245C394.258 231.34 387.708 240.963 384.023 244.239C380.339 247.515 377.677 245.468 377.882 241.987C378.087 238.506 382.181 231.135 382.181 231.135Z" fill="#CCA9D9" stroke="#263238" stroke-miterlimit="10" stroke-linecap="round" stroke-linejoin="round"/>
		<path opacity="0.5" d="M382.181 231.135C382.181 231.135 386.889 223.15 390.574 227.245C394.258 231.34 387.708 240.963 384.023 244.239C380.339 247.515 377.677 245.468 377.882 241.987C378.087 238.506 382.181 231.135 382.181 231.135Z" fill="white"/>
		<path d="M382.181 231.135C382.181 231.135 386.889 223.15 390.574 227.245C394.258 231.34 387.708 240.963 384.023 244.239C380.339 247.515 377.677 245.468 377.882 241.987C378.087 238.506 382.181 231.135 382.181 231.135Z" stroke="#263238" stroke-miterlimit="10" stroke-linecap="round" stroke-linejoin="round"/>
		<path d="M330.187 269.833C330.187 269.833 334.69 289.694 338.989 300.75C343.492 311.807 351.68 311.807 355.16 304.641C358.64 297.474 360.892 271.062 360.892 271.062C360.892 271.062 337.761 274.133 330.187 269.833Z" fill="white" stroke="#263238" stroke-miterlimit="10" stroke-linecap="round" stroke-linejoin="round"/>
		<path d="M308.488 233.797C308.488 233.797 314.834 256.319 326.911 269.628C338.989 282.937 343.288 286.008 349.633 284.984C355.979 283.961 362.939 275.771 372.355 258.367C381.977 240.963 382.591 227.654 383.409 226.426C384.228 225.197 381.362 200.627 367.647 190.185C353.932 179.743 338.784 175.033 325.478 186.499C312.377 197.965 304.189 216.802 308.488 233.797Z" fill="white"/>
		<path opacity="0.5" d="M367.852 190.185C354.137 179.743 338.989 175.033 325.683 186.499C312.377 197.965 304.189 216.802 308.488 233.797C308.488 233.797 309.716 238.097 312.172 244.034C312.172 243.215 312.172 242.396 312.582 241.782C315.448 232.568 324.045 214.55 353.318 222.74C376.449 229.292 373.583 249.563 371.332 260.414C371.741 259.595 372.151 258.981 372.56 258.162C382.181 240.758 382.795 227.449 383.614 226.221C384.228 225.197 381.567 200.627 367.852 190.185Z" fill="#CCA9D9"/>
		<path d="M308.488 233.797C308.488 233.797 314.834 256.319 326.911 269.628C338.989 282.937 343.288 286.008 349.633 284.984C355.979 283.961 362.939 275.771 372.355 258.367C381.977 240.963 382.591 227.654 383.409 226.426C384.228 225.197 381.362 200.627 367.647 190.185C353.932 179.743 338.784 175.033 325.478 186.499C312.377 197.965 304.189 216.802 308.488 233.797Z" stroke="#263238" stroke-miterlimit="10" stroke-linecap="round" stroke-linejoin="round"/>
		<path d="M349.633 245.468C349.633 245.468 348.2 255.091 348.405 260.005C348.609 264.919 350.042 266.352 347.995 266.762C345.744 267.171 343.287 263.895 343.287 263.895" stroke="#263238" stroke-miterlimit="10" stroke-linecap="round" stroke-linejoin="round"/>
		<path d="M325.272 249.358C325.272 249.358 330.185 253.043 335.098 249.563" stroke="#263238" stroke-miterlimit="10" stroke-linecap="round" stroke-linejoin="round"/>
		<path d="M356.389 249.358C356.389 249.358 361.302 253.043 366.214 249.563" stroke="#263238" stroke-miterlimit="10" stroke-linecap="round" stroke-linejoin="round"/>
		<path d="M340.831 241.168C340.831 241.168 336.123 229.702 320.771 235.025" stroke="#263238" stroke-miterlimit="10" stroke-linecap="round" stroke-linejoin="round"/>
		<path d="M353.727 239.734C353.727 239.734 357.616 228.473 371.536 235.025" stroke="#263238" stroke-miterlimit="10" stroke-linecap="round" stroke-linejoin="round"/>
		<path d="M343.902 250.382C343.902 256.729 336.737 261.848 327.73 261.848C318.723 261.848 311.559 256.729 311.559 250.382C311.559 244.034 318.314 241.373 327.321 241.373C336.328 241.373 343.902 244.034 343.902 250.382Z" stroke="#263238" stroke-miterlimit="10" stroke-linecap="round" stroke-linejoin="round"/>
		<path d="M380.953 250.382C380.953 256.729 373.788 261.848 364.781 261.848C355.774 261.848 348.609 256.729 348.609 250.382C348.609 244.034 355.365 241.373 364.372 241.373C373.379 241.373 380.953 244.034 380.953 250.382Z" stroke="#263238" stroke-miterlimit="10" stroke-linecap="round" stroke-linejoin="round"/>
		<path d="M174.612 446.738L173.589 694.896C173.589 696.534 174.817 697.762 176.455 697.762C178.092 697.762 179.321 696.534 179.321 694.896L186.485 446.942L174.612 446.738Z" fill="white" stroke="#263238" stroke-miterlimit="10" stroke-linecap="round" stroke-linejoin="round"/>
		<path d="M157.826 504.682L156.803 761.235C156.803 762.873 158.031 764.101 159.669 764.101C161.306 764.101 162.534 762.873 162.534 761.235L169.904 505.091L157.826 504.682Z" fill="white" stroke="#263238" stroke-miterlimit="10" stroke-linecap="round" stroke-linejoin="round"/>
		<path d="M517.696 446.738L518.72 694.896C518.72 696.534 517.491 697.762 515.854 697.762C514.216 697.762 512.988 696.534 512.988 694.896L505.823 446.942L517.696 446.738Z" fill="white" stroke="#263238" stroke-miterlimit="10" stroke-linecap="round" stroke-linejoin="round"/>
		<path d="M534.48 504.682L535.504 761.235C535.504 762.873 534.276 764.101 532.638 764.101C531 764.101 529.772 762.873 529.772 761.235L522.607 504.887L534.48 504.682Z" fill="white" stroke="#263238" stroke-miterlimit="10" stroke-linecap="round" stroke-linejoin="round"/>
		<path d="M274.303 515.329L273.688 743.012C273.688 744.445 274.507 745.469 275.531 745.469C276.554 745.469 277.373 744.445 277.373 743.217L281.877 515.534L274.303 515.329Z" fill="white" stroke="#263238" stroke-miterlimit="10" stroke-linecap="round" stroke-linejoin="round"/>
		<path d="M418.414 507.958L419.028 706.771C419.028 708 418.414 708.819 417.39 708.819C416.571 708.819 415.753 708 415.753 706.771L411.863 508.163L418.414 507.958Z" fill="white" stroke="#263238" stroke-miterlimit="10" stroke-linecap="round" stroke-linejoin="round"/>
		<path d="M272.05 507.958L272.665 706.771C272.665 708 272.05 708.819 271.027 708.819C270.208 708.819 269.389 708 269.389 706.771L265.5 508.163L272.05 507.958Z" fill="white" stroke="#263238" stroke-miterlimit="10" stroke-linecap="round" stroke-linejoin="round"/>
		<path d="M414.32 515.329L414.934 743.012C414.934 744.445 414.115 745.469 413.092 745.469C412.068 745.469 411.25 744.445 411.25 743.217L406.746 515.534L414.32 515.329Z" fill="white" stroke="#263238" stroke-miterlimit="10" stroke-linecap="round" stroke-linejoin="round"/>
		<path d="M343.288 531.505C393.597 531.505 434.381 522.154 434.381 510.62C434.381 499.086 393.597 489.735 343.288 489.735C292.978 489.735 252.194 499.086 252.194 510.62C252.194 522.154 292.978 531.505 343.288 531.505Z" fill="white" stroke="#263238" stroke-miterlimit="10" stroke-linecap="round" stroke-linejoin="round"/>
		<path d="M298.867 687.32C298.867 687.32 294.159 694.077 297.434 697.558C300.914 701.038 304.19 699.605 303.985 703.086C303.576 706.567 298.253 718.033 293.34 730.318C288.427 742.603 298.458 754.888 307.67 751.407C316.881 747.926 315.858 713.938 317.291 707.795C318.724 701.653 319.747 700.629 319.338 694.896C318.928 689.163 318.724 683.02 314.22 682.201C309.717 681.587 300.914 684.863 298.867 687.32Z" fill="white" stroke="#263238" stroke-miterlimit="10" stroke-linecap="round" stroke-linejoin="round"/>
		<path d="M313.606 741.988C307.465 739.736 298.049 740.145 292.727 740.76C294.569 748.54 301.324 753.864 307.875 751.407C310.536 750.383 312.378 746.902 313.606 741.988Z" fill="#CCA9D9" stroke="#263238" stroke-miterlimit="10" stroke-linecap="round" stroke-linejoin="round"/>
		<path d="M288.224 672.373C288.224 672.373 298.049 689.163 300.915 693.463C303.576 697.967 312.788 696.534 313.812 690.391C314.835 684.249 310.127 667.254 310.127 667.254L289.657 672.373H288.224Z" fill="white" stroke="#263238" stroke-miterlimit="10" stroke-linecap="round" stroke-linejoin="round"/>
		<path d="M264.682 645.755C264.682 645.755 262.02 650.26 263.249 653.331C264.682 656.402 268.366 665.207 270.823 669.711C273.279 674.216 284.128 676.878 296.82 674.83C309.512 672.783 316.676 667.05 316.881 661.931C317.086 656.812 314.834 650.055 313.196 641.865C311.559 633.675 307.055 634.085 300.914 634.085C294.773 634.085 269.799 640.841 264.682 645.755Z" fill="#CCA9D9" stroke="#263238" stroke-miterlimit="10" stroke-linecap="round" stroke-linejoin="round"/>
		<path d="M301.53 545.427C301.734 537.033 306.647 532.938 306.852 527.205C307.671 515.739 305.828 507.753 305.01 504.477L295.593 491.783C268.777 492.192 249.535 492.602 249.125 492.602C248.102 493.011 247.488 498.744 246.669 503.454C246.669 503.454 235.206 504.887 237.253 536.623C237.457 541.128 249.125 592.315 249.944 598.048C255.062 633.675 266.525 651.488 266.525 651.488C266.525 651.488 267.549 655.993 280.855 654.969C294.16 653.945 307.466 645.141 307.466 645.141C307.466 645.141 300.915 575.731 301.53 545.427Z" fill="#263238" stroke="#263238" stroke-miterlimit="10" stroke-linecap="round" stroke-linejoin="round"/>
		<path d="M245.235 498.13C245.235 498.13 231.111 500.178 222.513 510.006C213.916 519.834 221.285 526.386 238.071 524.543C254.856 522.7 274.303 505.501 275.122 504.682C275.736 503.863 257.313 492.397 245.235 498.13Z" fill="white" stroke="#263238" stroke-miterlimit="10" stroke-linecap="round" stroke-linejoin="round"/>
		<path d="M270.21 504.477C270.21 504.477 285.153 505.092 296.821 508.572C308.489 512.053 328.96 518.81 333.668 518.81C338.376 518.81 337.148 500.997 337.148 497.721C337.148 494.24 275.737 492.192 268.163 492.192C260.589 492.192 270.21 504.477 270.21 504.477Z" fill="white" stroke="#263238" stroke-miterlimit="10" stroke-linecap="round" stroke-linejoin="round"/>
		<path d="M337.148 497.516C337.148 497.516 331.621 500.177 329.574 510.415C327.527 520.652 324.866 526.181 328.96 528.842C333.054 531.504 350.863 533.552 353.524 530.89C356.185 528.228 363.759 514.51 365.192 505.706C366.421 496.901 337.148 497.516 337.148 497.516Z" fill="#CCA9D9" stroke="#263238" stroke-miterlimit="10" stroke-linecap="round" stroke-linejoin="round"/>
		<path d="M360.279 500.996C360.279 500.996 354.752 507.139 352.705 513.282C350.658 519.424 349.225 527.614 349.225 527.614C349.225 527.614 357.413 529.662 368.262 534.371C379.111 539.08 397.535 542.561 415.344 546.656C433.153 550.751 437.861 554.846 444.002 554.846C450.144 554.846 457.718 550.137 467.134 538.466C476.755 526.795 468.567 502.225 458.946 494.854C449.325 487.278 398.149 481.136 391.394 483.183C384.638 485.231 360.279 500.996 360.279 500.996Z" fill="#263238" stroke="#263238" stroke-miterlimit="10" stroke-linecap="round" stroke-linejoin="round"/>
		<path d="M232.339 524.952C230.906 517.786 227.017 511.439 224.356 508.163C223.742 508.777 223.128 509.391 222.514 510.006C214.939 518.605 219.648 524.748 232.339 524.952Z" fill="#CCA9D9" stroke="#263238" stroke-miterlimit="10" stroke-linecap="round" stroke-linejoin="round"/>
		<path d="M300.507 530.276C300.507 530.276 293.547 605.624 279.013 617.295" stroke="white" stroke-width="0.5" stroke-miterlimit="10" stroke-linecap="round" stroke-linejoin="round"/>
		<path d="M295.593 601.938C295.593 601.938 290.066 626.509 275.327 636.337" stroke="white" stroke-width="0.5" stroke-miterlimit="10" stroke-linecap="round" stroke-linejoin="round"/>
		<path d="M386.276 516.762C386.276 516.762 364.373 518.196 378.702 527.614C393.032 537.237 419.029 543.38 419.029 543.38" stroke="white" stroke-width="0.5" stroke-miterlimit="10" stroke-linecap="round" stroke-linejoin="round"/>
		<path d="M544.717 490.759L537.348 484.207L520.357 447.352C518.72 444.076 515.24 441.824 511.35 441.824H180.754C176.864 441.824 173.384 444.076 171.747 447.352L150.457 493.216L146.978 491.988V502.43L147.182 502.225C147.592 504.887 149.843 507.139 153.119 507.139H539.19C542.465 507.139 544.922 504.682 545.126 501.611L544.717 490.759Z" fill="#263238" stroke="#263238" stroke-miterlimit="10" stroke-linecap="round" stroke-linejoin="round"/>
		<path d="M539.189 497.72H153.118C148.819 497.72 145.953 493.625 147.796 489.735L171.951 437.728C173.588 434.452 177.068 432.2 180.958 432.2H511.759C515.648 432.2 519.128 434.452 520.766 437.728L544.921 489.735C546.149 493.625 543.283 497.72 539.189 497.72Z" fill="white" stroke="#263238" stroke-miterlimit="10" stroke-linecap="round" stroke-linejoin="round"/>
		<path opacity="0.5" d="M172.566 462.708C172.566 462.708 163.764 468.646 169.291 470.898C174.818 473.15 237.662 471.512 245.236 469.26C252.81 467.008 261.612 446.942 261.612 443.666C261.612 440.39 250.558 438.138 246.464 437.933C242.37 437.728 188.942 441.004 188.942 441.004L172.566 462.708Z" fill="#CCA9D9"/>
		<path opacity="0.5" d="M485.148 473.15C497.471 473.15 507.46 469.025 507.46 463.937C507.46 458.848 497.471 454.723 485.148 454.723C472.825 454.723 462.835 458.848 462.835 463.937C462.835 469.025 472.825 473.15 485.148 473.15Z" fill="#CCA9D9"/>
		<path opacity="0.5" d="M342.469 484.616C386.787 484.616 422.713 477.925 422.713 469.67C422.713 461.415 386.787 454.723 342.469 454.723C298.152 454.723 262.226 461.415 262.226 469.67C262.226 477.925 298.152 484.616 342.469 484.616Z" fill="#CCA9D9"/>
		<path d="M468.771 427.286C468.771 427.286 467.338 421.348 462.425 423.396C457.512 425.443 457.922 438.343 458.945 445.714C459.969 453.085 466.519 449.604 466.519 449.604V445.099C466.519 445.099 464.063 447.147 462.834 444.28C461.606 441.619 461.811 428.105 463.039 428.31C464.267 428.515 466.724 432.814 466.724 432.814C466.724 432.814 467.543 432.405 468.771 427.286Z" fill="#CCA9D9" stroke="#263238" stroke-miterlimit="10" stroke-linecap="round" stroke-linejoin="round"/>
		<path d="M465.291 428.31V460.456C465.291 464.141 474.093 467.213 484.738 467.213C495.382 467.213 504.185 464.141 504.185 460.456V428.31H465.291Z" fill="#CCA9D9" stroke="#263238" stroke-miterlimit="10" stroke-linecap="round" stroke-linejoin="round"/>
		<path d="M503.98 428.31C503.98 431.586 495.177 434.248 484.533 434.248C473.888 434.248 465.086 431.586 465.086 428.31C465.086 425.034 473.888 422.372 484.533 422.372C495.177 422.372 503.98 425.034 503.98 428.31Z" fill="white" stroke="#263238" stroke-miterlimit="10" stroke-linecap="round" stroke-linejoin="round"/>
		<path d="M501.523 428.31C501.523 431.176 493.949 433.429 484.532 433.429C475.116 433.429 467.542 431.176 467.542 428.31C467.542 425.443 475.116 423.191 484.532 423.191C493.949 423.191 501.523 425.443 501.523 428.31Z" fill="white" stroke="#263238" stroke-miterlimit="10" stroke-linecap="round" stroke-linejoin="round"/>
		<path d="M471.636 431.586C474.706 432.815 479.415 433.429 484.737 433.429C490.059 433.429 494.767 432.61 497.838 431.586C494.767 430.358 490.059 429.743 484.737 429.743C479.415 429.743 474.706 430.358 471.636 431.586Z" fill="#263238" stroke="#263238" stroke-miterlimit="10" stroke-linecap="round" stroke-linejoin="round"/>
		<path d="M170.11 443.052L170.52 453.904L244.623 454.723V442.028L170.11 443.052Z" fill="white" stroke="#263238" stroke-miterlimit="10" stroke-linecap="round" stroke-linejoin="round"/>
		<path d="M244.622 454.723L255.472 431.381V424.625L244.213 444.076L244.622 454.723Z" fill="white" stroke="#263238" stroke-miterlimit="10" stroke-linecap="round" stroke-linejoin="round"/>
		<path d="M170.11 453.085L170.52 463.937L244.623 464.756V452.061L170.11 453.085Z" fill="white" stroke="#263238" stroke-miterlimit="10" stroke-linecap="round" stroke-linejoin="round"/>
		<path d="M244.622 464.756L255.472 441.414V434.657L244.213 454.313L244.622 464.756Z" fill="white" stroke="#263238" stroke-miterlimit="10" stroke-linecap="round" stroke-linejoin="round"/>
		<path d="M198.768 415.001C198.768 415.001 200.406 411.521 197.95 410.087C195.493 408.654 192.832 412.135 191.399 413.363C189.966 414.592 159.056 434.862 158.032 438.138C157.009 441.414 158.032 448.376 164.583 449.195C171.133 450.014 177.07 445.509 179.936 444.69C182.801 443.871 184.03 443.666 184.03 443.666L204.705 416.23L198.768 415.001Z" fill="white" stroke="#263238" stroke-miterlimit="10" stroke-linecap="round" stroke-linejoin="round"/>
		<path d="M164.787 448.99C171.337 449.809 177.274 445.305 180.14 444.486C183.005 443.667 184.234 443.462 184.234 443.462L185.053 442.438L166.015 438.548C166.015 438.548 162.535 435.067 158.236 437.729C157.213 441.21 158.236 448.376 164.787 448.99Z" fill="white" stroke="#263238" stroke-miterlimit="10" stroke-linecap="round" stroke-linejoin="round"/>
		<path d="M166.016 438.753C166.016 438.753 205.523 438.753 223.333 438.753C241.142 438.753 246.669 437.729 246.669 437.729L257.723 415.002C257.723 415.002 222.923 417.254 212.074 416.435C201.225 415.616 198.768 415.002 198.768 415.002L166.016 438.753Z" fill="white" stroke="#263238" stroke-miterlimit="10" stroke-linecap="round" stroke-linejoin="round"/>
		<path d="M166.016 438.752L167.039 443.257C167.039 443.257 213.507 443.462 225.789 443.462C238.071 443.462 247.283 443.871 247.283 443.871L246.464 437.729L166.016 438.752Z" fill="white" stroke="#263238" stroke-miterlimit="10" stroke-linecap="round" stroke-linejoin="round"/>
		<path d="M247.283 443.872L257.518 420.325V415.002L246.669 437.729L247.283 443.872Z" fill="white" stroke="#263238" stroke-miterlimit="10" stroke-linecap="round" stroke-linejoin="round"/>
		<path d="M412.684 471.513H272.257C271.029 471.513 269.801 470.489 269.801 469.056C269.801 467.827 270.824 466.599 272.257 466.599H412.684C413.912 466.599 415.141 467.622 415.141 469.056C414.936 470.489 413.912 471.513 412.684 471.513Z" fill="white" stroke="#263238" stroke-miterlimit="10" stroke-linecap="round" stroke-linejoin="round"/>
		<path d="M413.911 466.803H271.233C270.209 466.803 269.186 465.984 269.186 464.961L261.407 371.799C261.202 370.571 262.226 369.547 263.454 369.547H421.69C422.918 369.547 423.942 370.571 423.737 371.799L415.958 464.961C415.754 465.78 414.935 466.803 413.911 466.803Z" fill="white" stroke="#263238" stroke-miterlimit="10" stroke-linecap="round" stroke-linejoin="round"/>
		<path d="M355.981 419.506C355.981 425.034 350.044 429.539 342.47 429.539C335.101 429.539 328.96 425.034 328.96 419.506C328.96 413.978 334.896 409.473 342.47 409.473C349.84 409.473 355.981 413.978 355.981 419.506Z" fill="white" stroke="#263238" stroke-miterlimit="10" stroke-linecap="round" stroke-linejoin="round"/>
		<path d="M495.384 346.615C497.636 344.772 499.068 342.52 499.683 339.858C500.092 337.606 500.092 335.558 499.478 333.715" stroke="#263238" stroke-miterlimit="10" stroke-linecap="round" stroke-linejoin="round"/>
		<path d="M479.008 419.711C479.008 419.711 492.723 411.521 488.219 402.102C483.716 392.683 468.772 386.541 468.772 372.004C468.772 359.514 482.078 354.805 490.88 349.686" stroke="#263238" stroke-miterlimit="10" stroke-linecap="round" stroke-linejoin="round"/>
		<path d="M491.699 419.506C491.699 419.506 499.274 414.387 499.274 406.402C499.274 401.078 493.542 397.393 485.968 388.793" stroke="#263238" stroke-miterlimit="10" stroke-linecap="round" stroke-linejoin="round"/>
		<path d="M481.67 383.674C481.67 383.674 476.757 379.784 480.442 372.413" stroke="#263238" stroke-miterlimit="10" stroke-linecap="round" stroke-linejoin="round"/>
		<path d="M366.421 169.096C368.877 168.686 373.995 166.638 377.679 158.448C377.884 157.834 377.679 157.425 377.065 157.015C376.451 156.81 376.042 157.015 375.632 157.629C372.357 165.205 367.854 166.843 365.807 167.048C369.287 162.953 371.129 157.834 371.129 152.306C371.129 138.178 358.028 126.507 341.652 126.507C325.48 126.507 312.174 137.973 312.174 152.306C312.174 157.629 314.017 162.543 317.087 166.638C314.017 166.434 308.694 167.867 302.144 175.443C301.734 175.852 301.734 176.467 302.348 176.876C302.553 177.081 302.758 177.081 302.963 177.081C303.167 177.081 303.577 176.876 303.781 176.671C312.174 166.843 317.906 168.481 318.929 168.891C316.882 170.119 315.04 171.348 313.607 172.576C304.191 181.176 298.459 197.146 299.073 210.455C299.892 223.969 308.285 235.025 308.285 235.025C308.285 235.025 317.906 228.883 324.866 216.393C328.551 209.841 331.212 203.903 333.054 199.603C333.054 205.541 333.873 212.912 336.943 218.031C343.903 229.497 353.934 231.545 359.87 231.545C362.736 231.545 364.578 231.135 364.783 231.135C364.988 231.135 365.397 230.93 365.397 230.521C373.381 232.159 381.159 231.954 382.388 230.316C384.435 227.654 387.096 219.259 388.119 209.022C390.166 192.028 379.317 177.081 366.421 169.096ZM339.4 217.212C335.51 210.66 335.51 200.218 336.125 194.075C336.329 193.666 336.329 193.461 336.329 193.461C336.329 193.461 335.92 212.707 352.91 225.607C355.367 227.45 358.642 228.883 361.917 229.907C357.004 229.907 346.564 229.088 339.4 217.212Z" fill="#263238"/>
		<path d="M339.605 185.066C339.605 185.066 337.967 197.556 353.73 209.636C369.492 221.921 384.435 217.007 384.435 217.007" stroke="white" stroke-width="0.5" stroke-miterlimit="10" stroke-linecap="round" stroke-linejoin="round"/>
		<path d="M342.061 180.766C342.061 180.766 358.642 204.927 381.568 198.58" stroke="white" stroke-width="0.5" stroke-miterlimit="10" stroke-linecap="round" stroke-linejoin="round"/>
		<path d="M333.873 172.781C333.873 172.781 326.094 168.072 317.292 174.01C308.49 179.947 303.986 193.87 303.986 193.87" stroke="white" stroke-width="0.5" stroke-miterlimit="10" stroke-linecap="round" stroke-linejoin="round"/>
		<path d="M334.282 179.538C334.282 179.538 327.118 177.695 322.819 181.995C318.316 186.5 317.292 188.752 317.292 188.752" stroke="white" stroke-width="0.5" stroke-miterlimit="10" stroke-linecap="round" stroke-linejoin="round"/>
	</g>
	<defs>
		<clipPath id="clip0">
			<rect width="705" height="793" fill="white" transform="translate(0 0.585449)"/>
		</clipPath>
	</defs>
</svg>
