<svg width="100%" height="100%" viewBox="0 0 530 480" fill="none" 
	xmlns="http://www.w3.org/2000/svg">
	<path className="static_ellipse" d="M231.974 0C103.858 0 0 103.858 0 231.974C0 360.09 103.858 463.948 231.974 463.948C360.09 463.948 463.948 360.09 463.948 231.974C463.948 103.858 360.09 0 231.974 0Z" fill="#A58ABD"></path>
	<path d="M265.656 419.818C344.375 419.818 408.189 405.094 408.189 386.931C408.189 368.768 344.375 354.044 265.656 354.044C186.937 354.044 123.123 368.768 123.123 386.931C123.123 405.094 186.937 419.818 265.656 419.818Z" fill="#917AAF"/>
	<path opacity="0.5" d="M265.656 419.818C344.375 419.818 408.189 405.094 408.189 386.931C408.189 368.768 344.375 354.044 265.656 354.044C186.937 354.044 123.123 368.768 123.123 386.931C123.123 405.094 186.937 419.818 265.656 419.818Z" fill="#917AAF"/>
	<path d="M438.975 195.24V195.275L438.977 195.31C439.472 202.415 437.798 212.767 434.082 224.875C430.372 236.96 424.652 250.717 417.125 264.606C402.061 292.403 379.818 320.624 352.09 337.08C324.2 353.631 296.303 366.676 275.374 375.584C264.911 380.037 256.193 383.455 250.093 385.759C247.042 386.911 244.646 387.784 243.014 388.369C242.639 388.504 242.304 388.623 242.01 388.727C242.056 388.206 242.104 387.567 242.142 386.824C242.255 384.619 242.287 381.495 241.965 377.799C241.321 370.413 239.259 360.701 233.564 351.483C230.663 346.787 225.386 342.045 218.822 337.302C212.238 332.544 204.263 327.718 195.876 322.879C192.102 320.701 188.246 318.522 184.393 316.344C171.069 308.812 157.773 301.296 147.972 293.929C119.204 272.287 93.5078 241.293 93.5078 204.285C93.5078 156.008 133.08 116.851 181.914 116.851C217.584 116.851 248.324 137.72 262.286 167.825L263.534 170.515L264.17 167.618C272.808 128.278 308.167 98.7623 350.568 98.7623C399.403 98.7623 438.975 137.919 438.975 186.196C438.975 188.581 438.874 191.065 438.673 193.448L438.663 193.574L438.684 193.698C438.726 193.951 438.789 194.21 438.84 194.418C438.857 194.489 438.873 194.553 438.886 194.61C438.943 194.861 438.975 195.051 438.975 195.24Z" fill="#E6D4EC" stroke="#263238" stroke-width="2"/>
	<path d="M422.56 201.243C422.56 201.243 423.17 196.821 420.833 192.902C418.496 189.083 413.518 186.571 408.743 184.159C406.101 182.852 403.663 181.546 401.631 180.139C396.449 176.421 387.813 168.683 387.813 157.629C387.813 145.67 397.669 135.822 409.86 135.822C417.582 135.822 424.694 139.842 428.656 146.273C431.704 137.631 440.035 131.601 449.484 131.601C461.574 131.601 471.531 141.349 471.531 153.408C471.531 153.911 471.531 154.513 471.429 155.016C471.429 155.116 471.429 155.317 471.531 155.418C472.039 162.854 463.708 182.049 450.5 189.887C437.394 197.625 424.186 202.248 424.084 202.248L422.459 202.75L422.56 201.243Z" fill="#263238"/>
	<path d="M449.28 132.707C460.862 132.707 470.311 142.053 470.311 153.509C470.311 154.112 470.311 154.715 470.209 155.217C470.209 155.318 470.311 155.519 470.311 155.619C470.819 162.453 462.894 181.346 449.788 189.083C436.682 196.922 423.576 201.344 423.576 201.344C423.576 201.344 424.287 196.62 421.645 192.4C417.784 186.169 407.929 183.456 402.138 179.336C395.026 174.311 388.727 166.774 388.727 157.73C388.727 146.274 398.176 136.928 409.758 136.928C418.191 136.928 425.506 141.852 428.859 148.987C430.789 139.742 439.222 132.707 449.28 132.707ZM449.28 130.697C440.136 130.697 431.907 136.224 428.249 144.264C423.982 138.536 417.073 135.018 409.657 135.018C396.957 135.018 386.594 145.269 386.594 157.83C386.594 169.286 395.534 177.326 400.919 181.145C403.053 182.652 405.491 183.958 408.234 185.265C412.908 187.576 417.683 190.088 419.918 193.606C422.153 197.123 421.544 201.243 421.544 201.243L421.036 204.459L424.185 203.353C424.693 203.152 437.698 198.731 450.804 190.892C464.825 182.551 472.851 162.955 472.343 155.519C472.343 155.418 472.343 155.217 472.241 155.117C472.241 154.614 472.343 154.012 472.343 153.509C472.343 140.948 461.98 130.697 449.28 130.697Z" fill="white"/>
	<path d="M338.453 122.176L338.466 122.107V122.036C338.466 122.134 338.5 124.5 338.466 120.73C338.371 119.641 338.081 117.638 337.216 116.312C334.83 112.482 331.111 110.442 327.172 108.354C327.08 108.305 326.989 108.255 326.898 108.205C321.58 105.3 316.408 102.475 314.953 95.1468L314.952 95.1398L314.95 95.1328C313.864 90.1654 314.95 85.3612 317.911 81.6272C320.737 78.3051 324.769 76.4404 329.364 76.4404C334.36 76.4404 338.949 78.8445 341.782 82.7142L342.54 83.7484L343.07 82.5818C345.501 77.2402 351.043 73.5 357.11 73.5C365.622 73.5 372.498 80.3129 372.498 88.7121V88.7145V88.717V88.7194V88.7219V88.7243V88.7268V88.7292V88.7316V88.7341V88.7365V88.7389V88.7414V88.7438V88.7462V88.7486V88.751V88.7534V88.7558V88.7583V88.7607V88.7631V88.7654V88.7678V88.7702V88.7726V88.775V88.7774V88.7798V88.7821V88.7845V88.7869V88.7892V88.7916V88.794V88.7963V88.7987V88.801V88.8034V88.8057V88.8081V88.8104V88.8128V88.8151V88.8174V88.8198V88.8221V88.8244V88.8267V88.8291V88.8314V88.8337V88.836V88.8383V88.8406V88.8429V88.8452V88.8475V88.8498V88.8521V88.8544V88.8567V88.859V88.8613V88.8636V88.8658V88.8681V88.8704V88.8727V88.8749V88.8772V88.8795V88.8817V88.884V88.8863V88.8885V88.8908V88.893V88.8953V88.8975V88.8998V88.902V88.9043V88.9065V88.9087V88.911V88.9132V88.9154V88.9177V88.9199V88.9221V88.9243V88.9266V88.9288V88.931V88.9332V88.9354V88.9376V88.9398V88.942V88.9442V88.9464V88.9486V88.9508V88.953V88.9552V88.9574V88.9596V88.9618V88.964V88.9662V88.9684V88.9705V88.9727V88.9749V88.9771V88.9793V88.9814V88.9836V88.9858V88.9879V88.9901V88.9923V88.9944V88.9966V88.9987V89.0009V89.0031V89.0052V89.0074V89.0095V89.0117V89.0138V89.016V89.0181V89.0203V89.0224V89.0245V89.0267V89.0288V89.0309V89.0331V89.0352V89.0373V89.0395V89.0416V89.0437V89.0459V89.048V89.0501V89.0522V89.0544V89.0565V89.0586V89.0607V89.0628V89.0649V89.067V89.0692V89.0713V89.0734V89.0755V89.0776V89.0797V89.0818V89.0839V89.086V89.0881V89.0902V89.0923V89.0944V89.0965V89.0986V89.1007V89.1028V89.1049V89.107V89.1091V89.1112V89.1132V89.1153V89.1174V89.1195V89.1216V89.1237V89.1258V89.1278V89.1299V89.132V89.1341V89.1362V89.1382V89.1403V89.1424V89.1445V89.1465V89.1486V89.1507V89.1528V89.1548V89.1569V89.159V89.161V89.1631V89.1652V89.1672V89.1693V89.1714V89.1734V89.1755V89.1776V89.1796V89.1817V89.1838V89.1858V89.1879V89.19V89.192V89.1941V89.1961V89.1982V89.2003V89.2023V89.2044V89.2064V89.2085V89.2105V89.2126V89.2147V89.2167V89.2188V89.2208V89.2229V89.2249V89.227V89.229V89.2311V89.2331V89.2352V89.2372V89.2393V89.2414V89.2434V89.2455V89.2475V89.2496V89.2516V89.2537V89.2557V89.2578V89.2598V89.2619V89.2639V89.266V89.268V89.2701V89.2721V89.2742V89.2762V89.2783V89.2803V89.2824V89.2844V89.2865V89.2885V89.2906V89.2926V89.2947V89.2967V89.2988V89.3008V89.3029V89.305V89.307V89.3091V89.3111V89.3132V89.3152V89.3173V89.3193V89.3214V89.3234V89.3255V89.3275V89.3296V89.3317V89.3337V89.3358V89.3378V89.3399V89.3419V89.344V89.3461V89.3481V89.3502V89.3522V89.3543V89.3564V89.3584V89.3605V89.3626V89.3646V89.3667V89.3687V89.3708V89.3729V89.3749V89.377V89.3791V89.3811V89.3832V89.3853V89.3874V89.3894V89.3915V89.3936V89.3956V89.3977V89.3998V89.4019V89.4039V89.406V89.4081V89.4102V89.4123V89.4143V89.4164V89.4185V89.4206V89.4227V89.4248V89.4268V89.4289V89.431V89.4331V89.4352V89.4373V89.4394V89.4415V89.4436V89.4457V89.4477V89.4498V89.4519V89.454V89.4561V89.4582V89.4603V89.4624V89.4646V89.4667V89.4688V89.4709V89.473V89.4751V89.4772V89.4793V89.4814V89.4835V89.4857V89.4878V89.4899V89.492V89.4941V89.4963V89.4984V89.5005V89.5026V89.5048V89.5069V89.509V89.5112V89.5133V89.5154V89.5176V89.5197V89.5219V89.524V89.5261V89.5283V89.5304V89.5326V89.5347V89.5369V89.539V89.5412V89.5433V89.5455V89.5477V89.5498V89.552V89.5542V89.5563V89.5585V89.5607V89.5628V89.565V89.5672V89.5694V89.5715V89.5737V89.5759V89.5781V89.5803V89.5824V89.5846V89.5868V89.589V89.5912V89.5934V89.5956V89.5978V89.6V89.6022V89.6044V89.6066V89.6088V89.6111V89.6133V89.6155V89.6177V89.6199V89.6221V89.6244V89.6266V89.6288V89.6311V89.6333V89.6355V89.6378V89.64V89.6422V89.6445V89.6467V89.649V89.6512V89.6535V89.6557V89.658V89.6603V89.6625V89.6648V89.667V89.6693V89.6716V89.6739V89.6761V89.6784V89.6807V89.683V89.6853V89.6876V89.6898V89.6921V89.6944V89.6967V89.699V89.7013V89.7036V89.7059V89.7083V89.7106V89.7129V89.7152V89.7175V89.7198V89.7222V89.7245V89.7268V89.7292V89.7315V89.7338V89.7362V89.7385V89.7409V89.7432V89.7456V89.7479V89.7503V89.7526V89.755V89.7574V89.7597V89.7621V89.7645V89.7669V89.7693V89.7716V89.774V89.7764V89.7788V89.7812V89.7836V89.786V89.7884V89.7908V89.7932V89.7956V89.7981V89.8005V89.8029V89.8053V89.8077V89.8102V89.8126V89.815V89.8175V89.8199V89.8224V89.8248V89.8273V89.8297V89.8322V89.8338V89.8355V89.8371V89.8387V89.8402V89.8418V89.8434V89.8449V89.8465V89.848V89.8495V89.851V89.8525V89.854V89.8554V89.8569V89.8583V89.8598V89.8612V89.8626V89.864V89.8654V89.8668V89.8681V89.8695V89.8708V89.8722V89.8735V89.8748V89.8761V89.8774V89.8787V89.88V89.8812V89.8825V89.8837V89.885V89.8862V89.8874V89.8886V89.8899V89.891V89.8922V89.8934V89.8946V89.8957V89.8969V89.898V89.8992V89.9003V89.9014V89.9025V89.9036V89.9047V89.9058V89.9069V89.908V89.9091V89.9101V89.9112V89.9122V89.9133V89.9143V89.9158V89.9169V89.9184V89.9194V89.9209V89.9224V89.9238V89.9248V89.9263V89.9277V89.9291V89.9305V89.9319V89.9333V89.9347V89.9361V89.9374V89.9388V89.9401V89.9415V89.9428V89.9441V89.9454V89.9467V89.948V89.9493V89.9506V89.9519V89.9531V89.9544V89.9557V89.9569V89.9582V89.9594V89.9607V89.9619V89.9632V89.9644V89.9656V89.9669V89.9681V89.9693V89.9706V89.9718V89.973V89.9743V89.9755V89.9767V89.978V89.9792V89.9804V89.9817V89.9829V89.9842V89.9854V89.9867V89.9879V89.9892V89.9904V89.9917V89.993V89.9943V89.9956V89.9969V89.9981V89.9995V90.0008V90.0021V90.0034V90.0048V90.0061V90.0075V90.0088V90.0102V90.0116V90.013V90.0144V90.0158V90.0172V90.0187V90.0201V90.0211V90.0226V90.0241V90.0256V90.0271V90.0281V90.0296V90.0312V90.0327V90.0338V90.0354V90.037V90.0381V90.0397V90.0408V90.0419V90.043V90.0441V90.0453V90.0464V90.0475V90.0487V90.0499V90.051V90.0522V90.0534V90.0546V90.0558V90.057V90.0582V90.0595V90.0607V90.0619V90.0632V90.0645V90.0657V90.067V90.0683V90.0696V90.071V90.0723V90.0736V90.075V90.0763V90.0777V90.0791V90.0805V90.0819V90.0833V90.0847V90.0861V90.0876V90.089V90.0905V90.092V90.0934V90.0949V90.0965V90.098V90.0995V90.1011V90.1026V90.1042V90.1058V90.1074V90.109V90.1106V90.1122V90.1429L372.5 90.1735C372.595 91.3348 372.349 93.0609 371.737 95.1303C371.128 97.1842 370.176 99.5216 368.906 101.887C366.361 106.628 362.586 111.404 357.857 114.252C348.767 119.646 339.808 122.703 339.328 122.862L338.26 123.192L338.453 122.176Z" fill="#F0E4F5" stroke="#263238" stroke-width="1.5"/>
</svg>
