<svg width="100%" height="100%" viewBox="0 0 47 74" fill="none" 
	xmlns="http://www.w3.org/2000/svg">
	<rect x="46.2539" y="1.32568" width="71.346" height="45.7538" rx="22.8769" transform="rotate(90 46.2539 1.32568)" stroke="#A0C0CB"/>
	<path d="M22.6441 56.5246C22.838 56.7211 23.1546 56.7233 23.3512 56.5293L26.5544 53.3687C26.751 53.1748 26.7531 52.8582 26.5592 52.6617C26.3652 52.4651 26.0486 52.463 25.8521 52.6569L23.0047 55.4663L20.1953 52.619C20.0014 52.4224 19.6848 52.4203 19.4883 52.6142C19.2917 52.8082 19.2896 53.1248 19.4835 53.3213L22.6441 56.5246ZM22.7627 16.9966L22.5 56.17L23.5 56.1768L23.7627 17.0034L22.7627 16.9966Z" fill="#A0C0CB"/>
</svg>
