<svg width="100%" height="100%" viewBox="0 0 130 39" fill="none" 
	xmlns="http://www.w3.org/2000/svg">
	<rect x="0.957031" y="1.32892" width="128.084" height="36.6768" rx="18.3384" stroke="#5EA4C7"/>
	<path d="M113.838 20.5362C114.033 20.3409 114.033 20.0243 113.838 19.8291L110.656 16.6471C110.461 16.4518 110.144 16.4518 109.949 16.6471C109.754 16.8423 109.754 17.1589 109.949 17.3542L112.777 20.1826L109.949 23.011C109.754 23.2063 109.754 23.5229 109.949 23.7182C110.144 23.9134 110.461 23.9134 110.656 23.7182L113.838 20.5362ZM97.8086 20.6826H113.485V19.6826H97.8086V20.6826Z" fill="#5EA4C7"/>
	<path d="M16.3533 19.8291C16.158 20.0243 16.158 20.3409 16.3533 20.5362L19.5353 23.7181C19.7305 23.9134 20.0471 23.9134 20.2424 23.7182C20.4376 23.5229 20.4376 23.2063 20.2424 23.011L17.414 20.1826L20.2424 17.3542C20.4376 17.1589 20.4376 16.8423 20.2424 16.6471C20.0471 16.4518 19.7305 16.4518 19.5353 16.6471L16.3533 19.8291ZM32.3828 19.6826L16.7068 19.6826L16.7068 20.6826L32.3828 20.6826L32.3828 19.6826Z" fill="#5EA4C7"/>
	<path d="M43.8454 22.064H44.0374C44.72 22.6507 45.5414 22.944 46.5014 22.944C47.5787 22.944 48.1174 22.6293 48.1174 22C48.1174 21.5307 47.8294 21.1627 47.2534 20.896L45.5894 20.112C44.5227 19.6 43.9894 18.8373 43.9894 17.824C43.9894 17.088 44.2454 16.56 44.7574 16.24C45.28 15.9093 45.92 15.744 46.6774 15.744C47.5947 15.744 48.3787 15.9733 49.0294 16.432V17.744H48.8694C48.5067 17.488 48.1494 17.3067 47.7974 17.2C47.456 17.0827 47.0987 17.024 46.7254 17.024C46.2774 17.024 45.9414 17.104 45.7174 17.264C45.504 17.4133 45.3974 17.616 45.3974 17.872C45.3974 18.3093 45.7334 18.6827 46.4054 18.992L47.8934 19.696C48.3414 19.9093 48.7254 20.192 49.0454 20.544C49.3654 20.896 49.5254 21.376 49.5254 21.984C49.5254 22.7627 49.2374 23.3333 48.6614 23.696C48.0854 24.048 47.3707 24.224 46.5174 24.224C46.0054 24.224 45.5147 24.16 45.0454 24.032C44.5867 23.9147 44.1867 23.7547 43.8454 23.552V22.064ZM63.2126 15.968L59.9326 24H59.1006L56.9086 18.272L54.7326 24H53.9006L50.6206 15.968H52.1566L54.3006 21.808L56.5566 15.968H57.2766L59.5326 21.824L61.7086 15.968H63.2126ZM64.7115 13.328C64.7115 13.0293 64.8022 12.7947 64.9835 12.624C65.1755 12.4427 65.4102 12.352 65.6875 12.352C65.9648 12.352 66.1942 12.4427 66.3755 12.624C66.5675 12.7947 66.6635 13.0293 66.6635 13.328C66.6635 13.6267 66.5675 13.8667 66.3755 14.048C66.1942 14.2187 65.9648 14.304 65.6875 14.304C65.4102 14.304 65.1755 14.2187 64.9835 14.048C64.8022 13.8667 64.7115 13.6267 64.7115 13.328ZM66.3755 15.968V24H64.9995V15.968H66.3755ZM73.1755 15.744C73.8155 15.744 74.4288 15.8987 75.0155 16.208C75.6022 16.5173 76.0768 16.992 76.4395 17.632C76.8128 18.272 76.9995 19.056 76.9995 19.984C76.9995 20.912 76.8128 21.696 76.4395 22.336C76.0768 22.976 75.6022 23.4507 75.0155 23.76C74.4395 24.0693 73.8315 24.224 73.1915 24.224C72.6475 24.224 72.1302 24.112 71.6395 23.888C71.1488 23.664 70.7275 23.3333 70.3755 22.896V27.104H68.9995V15.968H70.2155V17.28C70.5675 16.7787 71.0048 16.4 71.5275 16.144C72.0502 15.8773 72.5995 15.744 73.1755 15.744ZM72.9355 22.944C73.3835 22.944 73.8102 22.8427 74.2155 22.64C74.6208 22.4267 74.9515 22.1013 75.2075 21.664C75.4635 21.216 75.5915 20.656 75.5915 19.984C75.5915 19.312 75.4635 18.7573 75.2075 18.32C74.9515 17.872 74.6208 17.5467 74.2155 17.344C73.8102 17.1307 73.3835 17.024 72.9355 17.024C72.4875 17.024 72.0608 17.1307 71.6555 17.344C71.2502 17.5467 70.9195 17.872 70.6635 18.32C70.4075 18.7573 70.2795 19.312 70.2795 19.984C70.2795 20.656 70.4075 21.216 70.6635 21.664C70.9195 22.1013 71.2502 22.4267 71.6555 22.64C72.0608 22.8427 72.4875 22.944 72.9355 22.944ZM86.1496 19.488C86.1496 19.7547 86.1336 20 86.1016 20.224H79.8776C79.931 21.152 80.235 21.8453 80.7896 22.304C81.3443 22.752 82.0003 22.976 82.7576 22.976C83.7176 22.976 84.6083 22.6187 85.4296 21.904H85.6056V23.376C85.1683 23.664 84.699 23.8773 84.1976 24.016C83.6963 24.1547 83.2056 24.224 82.7256 24.224C81.9896 24.224 81.3016 24.0693 80.6616 23.76C80.0216 23.4507 79.5043 22.976 79.1096 22.336C78.7256 21.696 78.5336 20.912 78.5336 19.984C78.5336 19.056 78.7256 18.2773 79.1096 17.648C79.4936 17.008 79.995 16.5333 80.6136 16.224C81.2323 15.904 81.899 15.744 82.6136 15.744C83.6483 15.744 84.491 16.0587 85.1416 16.688C85.803 17.3067 86.139 18.24 86.1496 19.488ZM82.5976 16.96C81.9363 16.96 81.3656 17.1413 80.8856 17.504C80.4163 17.8667 80.107 18.4 79.9576 19.104H84.8056C84.7523 18.4 84.539 17.8667 84.1656 17.504C83.7923 17.1413 83.2696 16.96 82.5976 16.96Z" fill="#5EA4C7"/>
</svg>
