<svg width="100%" height="100%" viewBox="0 0 230 230" fill="none" 
	xmlns="http://www.w3.org/2000/svg">
	<ellipse className="static_ellipse" cx="115.434" cy="118.425" rx="115.434" ry="118.425" transform="rotate(-180 115.434 118.425)" fill="#A58ABD"/>
	<path d="M133.902 207.774C167.638 207.774 194.986 201.484 194.986 193.723C194.986 185.963 167.638 179.672 133.902 179.672C100.167 179.672 72.8188 185.963 72.8188 193.723C72.8188 201.484 100.167 207.774 133.902 207.774Z" fill="#917AAF"/>
	<path opacity="0.5" d="M133.902 207.774C167.638 207.774 194.986 201.484 194.986 193.723C194.986 185.963 167.638 179.672 133.902 179.672C100.167 179.672 72.8188 185.963 72.8188 193.723C72.8188 201.484 100.167 207.774 133.902 207.774Z" fill="#917AAF"/>
	<path d="M135.932 54.361C107.054 54.361 83.6106 77.7607 83.6106 106.585C83.6106 132.616 131.876 194.03 131.876 194.03H135.932C135.932 194.03 188.254 135.41 188.254 106.585C188.254 77.7203 164.811 54.361 135.932 54.361ZM135.932 132.09C121.818 132.09 110.38 120.673 110.38 106.585C110.38 92.4969 121.818 81.0804 135.932 81.0804C150.047 81.0804 161.485 92.4969 161.485 106.585C161.485 120.673 150.047 132.09 135.932 132.09Z" fill="#263238" stroke="#263238" stroke-miterlimit="10" stroke-linecap="round" stroke-linejoin="round"/>
	<path d="M131.876 54.361C102.997 54.361 79.554 77.7607 79.554 106.585C79.554 135.41 131.876 194.03 131.876 194.03C131.876 194.03 184.197 135.41 184.197 106.585C184.197 77.7203 160.754 54.361 131.876 54.361ZM131.876 132.09C117.761 132.09 106.323 120.673 106.323 106.585C106.323 92.4969 117.761 81.0804 131.876 81.0804C145.99 81.0804 157.428 92.4969 157.428 106.585C157.428 120.673 145.99 132.09 131.876 132.09Z" fill="#E6D4EC" stroke="#263238" stroke-miterlimit="10" stroke-linecap="round" stroke-linejoin="round"/>
</svg>
