<svg width="100%" height="100%" viewBox="0 0 200 200" fill="none" 
	xmlns="http://www.w3.org/2000/svg">
	<path className="static_ellipse" d="M115.5 -1.52588e-05C51.7111 -1.52588e-05 0 47.6817 0 106.5C0 165.318 51.7111 213 115.5 213C179.289 213 231 165.318 231 106.5C231 47.6817 179.289 -1.52588e-05 115.5 -1.52588e-05Z" fill="#A58ABD"/>
	<path opacity="0.5" d="M122.384 177.994C95.939 177.994 74.5 171.432 74.5 163.338C74.5 155.243 95.939 148.681 122.384 148.681C148.829 148.681 170.268 155.243 170.268 163.338C170.268 171.432 148.829 177.994 122.384 177.994Z" fill="#7D69A1"/>
	<path d="M145.411 109.797C145.411 109.797 147.504 101.123 154.681 104.114C161.858 107.105 161.26 125.949 159.764 136.717C158.269 147.485 148.7 142.4 148.7 142.4V135.819C148.7 135.819 152.288 138.81 154.083 134.623C155.877 130.734 155.578 110.993 153.784 111.292C151.989 111.591 148.401 117.873 148.401 117.873C148.401 117.873 147.205 117.275 145.411 109.797Z" fill="#CCA9D9" stroke="#263238" stroke-miterlimit="10" stroke-linecap="round" stroke-linejoin="round"/>
	<path d="M150.497 111.293V158.253C150.497 163.637 137.638 168.123 122.088 168.123C106.538 168.123 93.679 163.637 93.679 158.253V111.293H150.497Z" fill="#CCA9D9" stroke="#263238" stroke-miterlimit="10" stroke-linecap="round" stroke-linejoin="round"/>
	<path d="M93.974 111.293C93.974 116.078 106.833 119.967 122.383 119.967C137.933 119.967 150.792 116.078 150.792 111.293C150.792 106.507 137.933 102.619 122.383 102.619C106.833 102.619 93.974 106.507 93.974 111.293Z" fill="white" stroke="#263238" stroke-miterlimit="10" stroke-linecap="round" stroke-linejoin="round"/>
	<path d="M97.564 111.292C97.564 115.48 108.629 118.77 122.385 118.77C136.141 118.77 147.205 115.48 147.205 111.292C147.205 107.105 136.141 103.815 122.385 103.815C108.629 103.815 97.564 107.105 97.564 111.292Z" fill="white" stroke="#263238" stroke-miterlimit="10" stroke-linecap="round" stroke-linejoin="round"/>
	<path d="M141.225 116.079C136.739 117.873 129.861 118.771 122.086 118.771C114.311 118.771 107.433 117.574 102.947 116.079C107.433 114.284 114.311 113.387 122.086 113.387C129.861 113.387 136.739 114.284 141.225 116.079Z" fill="#263238" stroke="#263238" stroke-miterlimit="10" stroke-linecap="round" stroke-linejoin="round"/>
	<path d="M130.454 98.731C130.454 98.731 110.419 89.8227 116.997 79.5784C123.576 69.3341 145.406 62.6529 145.406 46.841C145.406 33.2561 125.969 28.134 113.11 22.5664" stroke="#263238" stroke-miterlimit="10" stroke-linecap="round" stroke-linejoin="round"/>
	<path d="M111.914 98.508C111.914 98.508 100.849 92.941 100.849 84.2552C100.849 78.465 109.223 74.4563 120.287 65.1028" stroke="#263238" stroke-miterlimit="10" stroke-linecap="round" stroke-linejoin="round"/>
	<path d="M126.566 59.5353C126.566 59.5353 133.743 55.3039 128.36 47.2866" stroke="#263238" stroke-miterlimit="10" stroke-linecap="round" stroke-linejoin="round"/>
</svg>
