<svg width="100%" height="100%" viewBox="0 0 210 200" fill="none" 
	xmlns="http://www.w3.org/2000/svg">
	<ellipse cx="121.5" cy="124.5" rx="121.5" ry="124.5" transform="rotate(-180 121.5 124.5)" className="static_iconbook" fill="#A58ABD"/>
	<path d="M114.847 180.885C160.023 180.885 196.646 163.984 196.646 143.137C196.646 122.289 160.023 105.389 114.847 105.389C69.6709 105.389 33.0483 122.289 33.0483 143.137C33.0483 163.984 69.6709 180.885 114.847 180.885Z" fill="#917AAF"/>
	<path opacity="0.5" d="M114.847 180.885C160.023 180.885 196.646 163.984 196.646 143.137C196.646 122.289 160.023 105.389 114.847 105.389C69.6709 105.389 33.0483 122.289 33.0483 143.137C33.0483 163.984 69.6709 180.885 114.847 180.885Z" fill="#917AAF"/>
	<path d="M112.345 95.7342L112.386 32.2606L113.977 32.2196L125.405 25.3354L162.747 46.3157C164.257 47.1763 164.91 48.6924 164.747 50.2086H164.788V115.69C164.788 117.001 164.135 118.313 162.87 119.091L160.462 120.566C157.85 122.164 154.544 122.205 151.851 120.689L114.386 99.668C112.876 98.8075 112.223 97.2503 112.345 95.7342Z" fill="#E6D4EC"/>
	<path d="M154.708 41.8086L162.747 46.3161C164.257 47.1766 164.91 48.6928 164.747 50.2089H164.788V115.69C164.788 117.002 164.135 118.313 162.87 119.091L160.462 120.567C158.707 121.632 156.666 122.001 154.748 121.673V41.8086H154.708Z" fill="#CCA9D9" stroke="#263238" stroke-width="0.5" stroke-miterlimit="10" stroke-linecap="round" stroke-linejoin="round"/>
	<path d="M112.592 31.974L113.041 31.6871L113.938 32.2198L124.223 25.9913L123.325 26.524V25.4586L123.529 25.3357C124.101 25.0079 124.835 24.9669 125.407 25.2947L162.749 46.275C165.443 47.7911 165.483 51.561 162.872 53.1591L160.464 54.6343C157.852 56.2324 154.546 56.2734 151.852 54.7573L112.592 32.6706C112.306 32.5477 112.306 32.1379 112.592 31.974Z" fill="#F0E4F5" stroke="#263238" stroke-width="0.5" stroke-miterlimit="10" stroke-linecap="round" stroke-linejoin="round"/>
	<path d="M113.937 32.2197L151.769 53.4869C154.136 54.7981 157.034 54.7572 159.36 53.3639L162.095 51.6839C163.809 50.6595 163.768 48.2418 162.013 47.2583L124.222 25.9912L113.937 32.2197Z" fill="#F0E4F5" stroke="#263238" stroke-width="0.5" stroke-miterlimit="10" stroke-linecap="round" stroke-linejoin="round"/>
	<path d="M123.324 25.499L162.054 47.2169C163.197 47.8725 163.605 49.1428 163.237 50.2492C163.033 49.6755 162.666 49.1428 162.054 48.815L123.324 27.0971V25.499Z" fill="#F0E4F5" stroke="#263238" stroke-width="0.5" stroke-miterlimit="10" stroke-linecap="round" stroke-linejoin="round"/>
	<path d="M118.63 117.288V59.3056L120.058 59.2646L130.506 52.9541L164.625 72.1314C166.012 72.91 166.584 74.3032 166.461 75.6554H166.502V135.482C166.502 136.67 165.931 137.859 164.747 138.596L162.543 139.908C160.135 141.342 157.115 141.424 154.708 140.031L120.467 120.812C119.12 120.116 118.508 118.681 118.63 117.288Z" fill="#E6D4EC" stroke="#263238" stroke-width="0.5" stroke-miterlimit="10" stroke-linecap="round" stroke-linejoin="round"/>
	<path d="M157.319 67.6646L164.665 71.7623C166.053 72.5408 166.624 73.9341 166.501 75.2863H166.542V135.113C166.542 136.301 165.971 137.49 164.787 138.227L162.584 139.538C160.992 140.522 159.115 140.85 157.36 140.563V67.6646H157.319Z" fill="#CCA9D9" stroke="#263238" stroke-width="0.5" stroke-miterlimit="10" stroke-linecap="round" stroke-linejoin="round"/>
	<path d="M118.671 105.323C118.508 106.675 119.12 108.109 120.508 108.888L154.749 128.106C155.565 128.557 156.463 128.844 157.361 129.008C158.218 129.13 159.115 129.13 159.972 128.967C160.054 128.967 160.095 128.926 160.177 128.926C160.503 128.844 160.83 128.762 161.156 128.639C161.238 128.598 161.36 128.557 161.442 128.516C161.809 128.352 162.217 128.188 162.584 127.983L164.788 126.672C165.972 125.975 166.543 124.746 166.543 123.558V129.212C166.543 130.401 165.972 131.589 164.788 132.327L162.584 133.638C162.217 133.843 161.85 134.048 161.442 134.171C161.36 134.212 161.238 134.253 161.156 134.294C160.83 134.417 160.503 134.498 160.177 134.58C160.095 134.58 160.054 134.621 159.972 134.621C159.115 134.785 158.218 134.785 157.361 134.662C156.463 134.539 155.565 134.253 154.749 133.761L120.508 114.543C119.12 113.764 118.549 112.33 118.671 110.978H118.63L118.671 105.323Z" fill="#CCA9D9" stroke="#263238" stroke-width="0.5" stroke-miterlimit="10" stroke-linecap="round" stroke-linejoin="round"/>
	<path d="M118.877 58.6498L119.285 58.4039L120.102 58.8547L129.488 53.1589L128.672 53.6506V52.6671L128.876 52.5442C129.407 52.2164 130.06 52.2164 130.59 52.5032L164.709 71.6805C167.157 73.0738 167.239 76.5158 164.831 77.95L162.627 79.2613C160.219 80.6955 157.199 80.7775 154.792 79.3842L118.959 59.2235C118.592 59.1825 118.592 58.8137 118.877 58.6498Z" fill="#F0E4F5" stroke="#263238" stroke-width="0.5" stroke-miterlimit="10" stroke-linecap="round" stroke-linejoin="round"/>
	<path d="M120.1 58.896L154.667 78.3192C156.83 79.5485 159.483 79.5075 161.605 78.1963L164.094 76.6801C165.645 75.7376 165.605 73.5249 164.013 72.6234L129.445 53.2002L120.1 58.896Z" fill="#F0E4F5" stroke="#263238" stroke-width="0.5" stroke-miterlimit="10" stroke-linecap="round" stroke-linejoin="round"/>
	<path d="M128.67 52.7485L164.054 72.6224C165.115 73.1961 165.441 74.3845 165.115 75.4089C164.951 74.8762 164.584 74.4254 164.054 74.0976L128.67 54.2237V52.7485Z" fill="#F0E4F5" stroke="#263238" stroke-width="0.5" stroke-miterlimit="10" stroke-linecap="round" stroke-linejoin="round"/>
	<path d="M85.8589 114.707L85.8997 43.857L87.6546 43.816L100.429 36.1123L142.097 59.5512C143.771 60.4937 144.505 62.2147 144.342 63.8948L144.383 63.9358V137.039C144.383 138.514 143.689 139.948 142.22 140.809L139.526 142.448C136.588 144.21 132.915 144.292 129.935 142.612L88.104 119.132C86.4303 118.108 85.7365 116.387 85.8589 114.707Z" fill="#E6D4EC" stroke="#263238" stroke-width="0.5" stroke-miterlimit="10" stroke-linecap="round" stroke-linejoin="round"/>
	<path d="M133.159 54.1016L142.097 59.1417C143.77 60.0842 144.505 61.8053 144.342 63.4853L144.383 63.5263V136.63C144.383 138.105 143.689 139.539 142.22 140.399L139.526 142.039C137.567 143.227 135.322 143.637 133.119 143.268V54.1016H133.159Z" fill="#CCA9D9" stroke="#263238" stroke-width="0.5" stroke-miterlimit="10" stroke-linecap="round" stroke-linejoin="round"/>
	<path d="M85.8997 68.894C85.7365 70.5741 86.4711 72.3361 88.144 73.2786L129.976 96.7585C131.935 97.8649 134.221 98.1927 136.384 97.7829C136.465 97.7829 136.547 97.742 136.628 97.742C137.037 97.66 137.445 97.5371 137.853 97.4141C137.975 97.3732 138.098 97.3322 138.22 97.2912C138.71 97.0863 139.159 96.8814 139.608 96.6356L142.301 94.9965C143.73 94.136 144.464 92.6608 144.464 91.2266V102.987C144.464 104.462 143.771 105.896 142.301 106.757L139.608 108.396C139.159 108.683 138.71 108.888 138.22 109.052C138.098 109.093 137.975 109.134 137.853 109.175C137.445 109.298 137.037 109.421 136.628 109.502C136.547 109.502 136.465 109.543 136.384 109.543C134.221 109.953 131.976 109.625 129.976 108.519L88.144 85.039C86.4711 84.0966 85.7365 82.3346 85.8997 80.6545H85.8589L85.8997 68.894Z" fill="#263238" stroke="#263238" stroke-width="0.5" stroke-miterlimit="10" stroke-linecap="round" stroke-linejoin="round"/>
	<path d="M86.1467 43.1196L86.6773 42.7918L87.6976 43.3654L99.166 36.3993L98.145 37.014V35.8257L98.39 35.7027C99.043 35.3339 99.819 35.2929 100.472 35.6617L142.14 59.1007C145.119 60.7807 145.201 65.0014 142.263 66.7634L139.569 68.4025C136.631 70.1645 132.958 70.2465 129.978 68.5664L86.1467 43.9391C85.8202 43.7752 85.8202 43.3245 86.1467 43.1196Z" fill="#F0E4F5" stroke="#263238" stroke-width="0.5" stroke-miterlimit="10" stroke-linecap="round" stroke-linejoin="round"/>
	<path d="M87.6538 43.3651L129.894 67.0908C132.547 68.566 135.771 68.525 138.383 66.9679L141.443 65.1239C143.321 63.9766 143.28 61.2721 141.362 60.1657L99.122 36.4399L87.6538 43.3651Z" fill="#F0E4F5" stroke="#263238" stroke-width="0.5" stroke-miterlimit="10" stroke-linecap="round" stroke-linejoin="round"/>
	<path d="M98.1021 35.9072L141.362 60.1657C142.668 60.9033 143.076 62.3375 142.668 63.5668C142.464 62.9112 142.015 62.3375 141.362 61.9687L98.1021 37.6692V35.9072Z" fill="#F0E4F5" stroke="#263238" stroke-width="0.5" stroke-miterlimit="10" stroke-linecap="round" stroke-linejoin="round"/>
	<path d="M80.5529 127.655V69.6727L81.9813 69.6318L92.429 63.3213L126.548 82.4986C127.935 83.2772 128.506 84.6704 128.384 86.0226H128.425V145.849C128.425 147.038 127.853 148.226 126.67 148.963L124.466 150.275C122.058 151.709 119.038 151.791 116.63 150.398L82.3894 131.179C81.0426 130.483 80.4305 129.049 80.5529 127.655Z" fill="#E6D4EC" stroke="#263238" stroke-width="0.5" stroke-miterlimit="10" stroke-linecap="round" stroke-linejoin="round"/>
	<path d="M119.242 78.4009L126.588 82.4986C127.975 83.2772 128.547 84.6704 128.424 86.0226H128.465V145.849C128.465 147.038 127.894 148.226 126.71 148.964L124.506 150.275C122.915 151.258 121.037 151.586 119.283 151.299V78.4009H119.242Z" fill="#CCA9D9" stroke="#263238" stroke-width="0.5" stroke-miterlimit="10" stroke-linecap="round" stroke-linejoin="round"/>
	<path d="M80.759 69.4271L81.1671 69.1813L81.9834 69.632L91.37 63.9362L90.554 64.4279V63.4445L90.758 63.3216C91.288 62.9937 91.941 62.9937 92.472 63.2806L126.59 82.4579C129.039 83.8511 129.121 87.2932 126.713 88.7274L124.509 90.0387C122.101 91.4729 119.081 91.5548 116.673 90.1616L80.8406 70.0008C80.5141 69.9599 80.5141 69.5911 80.759 69.4271Z" fill="#F0E4F5" stroke="#263238" stroke-width="0.5" stroke-miterlimit="10" stroke-linecap="round" stroke-linejoin="round"/>
	<path d="M82.0225 69.6323L116.59 89.0555C118.753 90.2848 121.406 90.2439 123.528 88.9326L126.017 87.4164C127.568 86.474 127.527 84.2612 125.936 83.3597L91.368 63.9365L82.0225 69.6323Z" fill="#F0E4F5" stroke="#263238" stroke-width="0.5" stroke-miterlimit="10" stroke-linecap="round" stroke-linejoin="round"/>
	<path d="M90.552 63.5259L125.936 83.3998C126.997 83.9735 127.323 85.1618 126.997 86.1862C126.834 85.6535 126.466 85.2028 125.936 84.875L90.552 65.0011V63.5259Z" fill="#F0E4F5" stroke="#263238" stroke-width="0.5" stroke-miterlimit="10" stroke-linecap="round" stroke-linejoin="round"/>
	<path d="M80.5532 72.7876L116.957 93.3171C119.202 94.5874 121.936 94.5465 124.14 93.1942L126.344 91.8829C127.119 91.4322 128.14 90.4897 128.466 89.5882V91.6371C128.099 92.2108 127.65 92.6615 127.038 93.0303L124.834 94.3416C123.487 95.1611 121.977 95.5709 120.467 95.5709C119.039 95.5709 117.61 95.2021 116.345 94.5055L80.594 74.3447V72.7876H80.5532Z" fill="#263238" stroke="#263238" stroke-width="0.5" stroke-miterlimit="10" stroke-linecap="round" stroke-linejoin="round"/>
	<path d="M80.5532 126.631L116.957 147.161C119.202 148.431 121.936 148.39 124.14 147.038L126.344 145.727C127.119 145.276 128.14 144.333 128.466 143.432V145.481C128.099 146.055 127.65 146.505 127.038 146.874L124.834 148.185C123.487 149.005 121.977 149.415 120.467 149.415C119.039 149.415 117.61 149.046 116.345 148.349L80.5532 128.148V126.631Z" fill="#CCA9D9" stroke="#263238" stroke-width="0.5" stroke-miterlimit="10" stroke-linecap="round" stroke-linejoin="round"/>
	<path d="M56.1471 142.817L70.1863 85.162H71.8596L83.4093 80.9004L114.875 98.2337C116.303 99.0533 116.63 100.487 116.14 101.799H116.181L101.734 161.298C101.448 162.486 100.469 163.674 98.918 164.33L98.02 164.699C94.877 166.051 91.368 166.051 88.837 164.576L57.4123 146.423C56.0247 145.603 55.6574 144.169 56.1471 142.817Z" fill="#E6D4EC" stroke="#263238" stroke-width="0.5" stroke-miterlimit="10" stroke-linecap="round" stroke-linejoin="round"/>
	<path d="M108.917 94.7915L114.916 98.1926C116.344 99.0121 116.671 100.446 116.181 101.758H116.222L101.775 161.256C101.489 162.445 100.509 163.633 98.959 164.289L98.061 164.658C95.979 165.559 93.735 165.846 91.735 165.518L108.917 94.7915Z" fill="#CCA9D9" stroke="#263238" stroke-width="0.5" stroke-miterlimit="10" stroke-linecap="round" stroke-linejoin="round"/>
	<path d="M70.4716 84.8752L71.0022 84.6293L71.8592 85.1211L80.9602 81.597L81.3275 80.1628L81.5724 80.0399C82.2662 79.7531 82.5519 79.5482 83.0824 79.876L114.875 98.1928C117.405 99.627 116.63 103.069 113.487 104.421L112.589 104.79C109.447 106.142 105.937 106.142 103.407 104.667L70.3084 85.5308C70.0635 85.4079 70.1451 85.0391 70.4716 84.8752Z" fill="#F0E4F5" stroke="#263238" stroke-width="0.5" stroke-miterlimit="10" stroke-linecap="round" stroke-linejoin="round"/>
	<path d="M71.8599 85.1212L103.611 103.479C105.815 104.749 108.958 104.79 111.733 103.561L113.039 103.028C115.079 102.127 115.569 99.914 113.937 99.0125L80.9608 81.5972L71.8599 85.1212Z" fill="#F0E4F5" stroke="#263238" stroke-width="0.5" stroke-miterlimit="10" stroke-linecap="round" stroke-linejoin="round"/>
	<path d="M81.328 80.2041L113.977 99.0126C115.079 99.6273 115.202 100.816 114.549 101.799C114.467 101.266 114.181 100.775 113.61 100.488L81.0015 81.6383L81.328 80.2041Z" fill="#F0E4F5" stroke="#263238" stroke-width="0.5" stroke-miterlimit="10" stroke-linecap="round" stroke-linejoin="round"/>
	<path d="M72.9619 109.83L91.409 120.484L93.653 110.649L75.2474 99.9541L72.9619 109.83Z" fill="#263238" stroke="#263238" stroke-width="0.5" stroke-miterlimit="10" stroke-linecap="round" stroke-linejoin="round"/>
	<path d="M50.1074 149.866L60.3103 107.906H61.5347L71.4927 103.562L97 118.191C98.02 118.765 98.265 119.83 97.939 120.813H97.979L87.45 164.126C87.246 164.987 86.5522 165.847 85.4094 166.339L83.328 167.24C81.0426 168.224 78.4715 168.224 76.6349 167.159L51.0461 152.53C49.985 151.915 49.7401 150.85 50.1074 149.866Z" fill="#F0E4F5" stroke="#263238" stroke-width="0.5" stroke-miterlimit="10" stroke-linecap="round" stroke-linejoin="round"/>
	<path d="M69.0021 105.364L68.6348 105.159L69.1245 104.955C69.0837 105.118 69.0429 105.241 69.0021 105.364Z" fill="#F0E4F5" stroke="#263238" stroke-width="0.5" stroke-miterlimit="10" stroke-linecap="round" stroke-linejoin="round"/>
	<path d="M66.5538 105.733L68.3087 104.955L68.6352 105.159L66.4722 106.102L66.5538 105.733Z" fill="#F0E4F5" stroke="#263238" stroke-width="0.5" stroke-miterlimit="10" stroke-linecap="round" stroke-linejoin="round"/>
	<path d="M52.1069 153.103L63.2893 107.127L63.9423 106.84H64.7585L66.4726 106.103L54.6781 154.579L52.1069 153.103Z" fill="#CCA9D9" stroke="#263238" stroke-width="0.5" stroke-miterlimit="10" stroke-linecap="round" stroke-linejoin="round"/>
	<path d="M91.532 115.035L97 118.19C98.021 118.764 98.266 119.829 97.939 120.812H97.98L87.4505 164.125C87.2464 164.986 86.5526 165.846 85.4099 166.338L83.3285 167.24C81.8185 167.895 80.186 168.1 78.7168 167.854L91.532 115.035Z" fill="#F0E4F5" stroke="#263238" stroke-width="0.5" stroke-miterlimit="10" stroke-linecap="round" stroke-linejoin="round"/>
	<path d="M60.5143 107.7L60.9224 107.536L61.5346 107.905L70.4724 104.012L69.6969 104.34L69.8602 103.643L70.0234 103.561C70.5132 103.356 71.0845 103.356 71.4926 103.561L97 118.19C98.836 119.255 98.265 121.714 95.98 122.738L93.898 123.64C91.613 124.623 89.042 124.623 87.2051 123.558L60.3919 108.191C60.2286 108.109 60.2695 107.823 60.5143 107.7Z" fill="#F0E4F5" stroke="#263238" stroke-width="0.5" stroke-miterlimit="10" stroke-linecap="round" stroke-linejoin="round"/>
	<path d="M61.5347 107.904L87.3684 122.697C89.001 123.639 91.245 123.639 93.286 122.779L95.694 121.713C97.163 121.058 97.53 119.46 96.347 118.763L70.4724 103.97L61.5347 107.904Z" fill="#F0E4F5" stroke="#263238" stroke-width="0.5" stroke-miterlimit="10" stroke-linecap="round" stroke-linejoin="round"/>
	<path d="M69.8604 103.643L96.347 118.764C97.123 119.214 97.245 120.075 96.755 120.812C96.714 120.444 96.47 120.075 96.061 119.829L69.5747 104.668L69.8604 103.643Z" fill="#F0E4F5" stroke="#263238" stroke-width="0.5" stroke-miterlimit="10" stroke-linecap="round" stroke-linejoin="round"/>
	<path d="M65.2489 110.978L62.6777 109.543L73.6969 104.708L76.268 106.183L65.2489 110.978Z" fill="#CCA9D9" stroke="#263238" stroke-width="0.5" stroke-miterlimit="10" stroke-linecap="round" stroke-linejoin="round"/>
</svg>

