<svg width="265" height="52" viewBox="0 0 265 52" fill="none" 
	xmlns="http://www.w3.org/2000/svg">
	<path d="M67.6221 17.5508C69.5665 17.5508 71.0248 17.8225 72.105 18.3659C73.1852 18.9093 73.9413 19.6157 74.4274 20.4852C74.9135 21.3546 75.1836 22.3871 75.2916 23.5283C75.3996 24.6694 75.3996 25.8649 75.3996 27.0604V37.9286H72.213V35.9723C71.4568 36.7331 70.4847 37.3308 69.2964 37.7655C68.1082 38.2003 66.9199 38.4176 65.7317 38.4176C64.5975 38.4176 63.5713 38.2003 62.7071 37.8199C61.843 37.4395 61.0868 36.8961 60.5467 36.244C59.9526 35.5919 59.5205 34.8855 59.2504 34.0704C58.9804 33.2553 58.8184 32.4401 58.8184 31.625C58.8184 30.7556 58.9804 29.9405 59.3045 29.071C59.6285 28.2016 60.1146 27.4408 60.7087 26.7887C61.3569 26.1366 62.113 25.5389 63.0312 25.1585C63.9494 24.7238 65.0296 24.5064 66.2178 24.5064C67.406 24.5064 68.5403 24.7238 69.6205 25.2128C70.7007 25.7019 71.5649 26.354 72.267 27.1691V25.4302C72.267 23.2566 71.9429 21.6263 71.2948 20.5395C70.6467 19.4527 69.4585 18.9636 67.7301 18.9636C66.974 18.9636 66.3258 19.0723 65.7857 19.2353C65.2456 19.3984 64.7055 19.6701 64.2734 19.9961C63.8413 20.3222 63.4093 20.7569 63.0852 21.246C62.7071 21.735 62.329 22.2784 61.951 22.8762L59.8986 20.8112C60.2766 20.4308 60.6547 19.9961 61.0868 19.6157C61.5189 19.2353 62.005 18.855 62.5991 18.5289C63.1932 18.2029 63.8954 17.9312 64.7055 17.7681C65.4617 17.6595 66.4339 17.5508 67.6221 17.5508ZM72.159 30.0491C72.051 29.7231 71.8349 29.3427 71.5649 28.908C71.2948 28.4733 70.9707 28.0929 70.5927 27.6582C70.2146 27.2778 69.7285 26.8974 69.1344 26.6257C68.5943 26.354 67.8921 26.191 67.136 26.191C66.3798 26.191 65.6777 26.354 65.0296 26.6257C64.3815 26.9517 63.8413 27.3321 63.4093 27.8212C62.9772 28.3102 62.6531 28.908 62.3831 29.5601C62.167 30.2122 62.005 30.9186 62.005 31.625C62.005 32.4945 62.167 33.2009 62.4371 33.853C62.7611 34.5051 63.1392 34.9942 63.6253 35.4289C64.1114 35.8636 64.6515 36.1897 65.1916 36.407C65.7857 36.6244 66.3258 36.7331 66.8659 36.7331C67.352 36.7331 67.8921 36.6244 68.3782 36.4614C68.9183 36.2983 69.4044 36.0266 69.8365 35.7006C70.3226 35.3745 70.7007 34.9942 71.0788 34.5051C71.4568 34.0704 71.7809 33.5813 71.9969 33.0379V30.0491H72.159Z" fill="#452F6B" />
	<path d="M92.1942 33.2566H92.4103L99.3236 18.0412H102.402V37.9842H99.0536V22.2254H98.8916L91.5461 38.4733H91.168L83.3365 22.2254H83.1745V37.9842H81.8242V17.9868H84.9568L92.1942 33.2566Z" fill="#452F6B" />
	<path d="M112.071 37.9298H108.723V17.9868H124.71V37.9298H121.361V19.617H112.125V37.9298H112.071Z" fill="#452F6B" />
	<path d="M133.569 28.8548C133.569 30.4851 133.785 31.7892 134.271 32.8217C134.757 33.8542 135.351 34.6693 136.054 35.267C136.756 35.8648 137.512 36.2452 138.376 36.4625C139.186 36.6799 139.996 36.7886 140.753 36.7886C141.401 36.7886 141.995 36.7342 142.535 36.5712C143.075 36.4082 143.615 36.2452 144.101 35.9735C144.587 35.7018 145.073 35.3757 145.56 34.9953C146.046 34.6149 146.586 34.1802 147.126 33.6912L148.368 34.9953C147.288 36.1365 146.046 36.9516 144.641 37.5493C143.237 38.1471 141.671 38.4731 139.942 38.4731C138.214 38.4731 136.702 38.2014 135.406 37.5493C134.109 36.9516 133.083 36.1365 132.219 35.1584C131.409 34.1802 130.761 33.0391 130.328 31.7892C129.896 30.5394 129.734 29.2352 129.734 27.8767C129.734 26.3008 129.95 24.8336 130.437 23.5838C130.923 22.3339 131.571 21.2471 132.435 20.3777C133.299 19.5082 134.271 18.8018 135.406 18.3671C136.54 17.878 137.782 17.6606 139.132 17.6606C140.375 17.6606 141.617 17.878 142.751 18.3127C143.885 18.7475 144.911 19.3995 145.722 20.2147C146.586 21.0841 147.234 22.1166 147.774 23.4208C148.26 24.7249 148.53 26.2465 148.53 28.0397V28.8548H133.569ZM145.127 27.2246C145.127 24.6706 144.587 22.6056 143.561 21.1385C142.535 19.6713 141.077 18.9105 139.186 18.9105C138.214 18.9105 137.35 19.1278 136.648 19.6169C135.946 20.106 135.351 20.7037 134.919 21.4645C134.433 22.2253 134.109 23.0947 133.893 24.1272C133.677 25.1053 133.569 26.1378 133.569 27.2246H145.127Z" fill="#452F6B" />
	<path d="M153.767 17.9866H157.116V21.1927H157.278C158.25 18.7474 160.302 17.4976 163.435 17.4976C164.731 17.4976 165.973 17.7693 167.108 18.2583C168.242 18.7474 169.16 19.4538 169.97 20.3776C170.78 21.3014 171.428 22.3882 171.86 23.6924C172.293 24.9966 172.509 26.4094 172.509 27.9853C172.509 29.5612 172.293 30.9741 171.86 32.2782C171.428 33.5824 170.78 34.6692 169.97 35.593C169.16 36.5168 168.188 37.1689 167.108 37.7123C165.973 38.2014 164.785 38.4731 163.435 38.4731C162.787 38.4731 162.193 38.4187 161.544 38.2557C160.896 38.147 160.356 37.9297 159.762 37.6036C159.222 37.3319 158.736 36.9515 158.25 36.4625C157.818 35.9734 157.44 35.3757 157.224 34.7236H157.062V47.9827H153.713V17.9866H153.767ZM157.116 29.4525C157.116 30.5393 157.278 31.5175 157.548 32.3869C157.872 33.2564 158.25 33.9628 158.736 34.5605C159.222 35.1583 159.816 35.593 160.464 35.9191C161.112 36.2451 161.814 36.3538 162.571 36.3538C163.381 36.3538 164.191 36.1908 164.893 35.9191C165.649 35.593 166.297 35.1039 166.837 34.4519C167.432 33.7998 167.864 32.9303 168.188 31.8435C168.512 30.7567 168.674 29.5069 168.674 27.9853C168.674 26.5181 168.512 25.2139 168.188 24.1815C167.864 23.0947 167.432 22.2795 166.837 21.5731C166.297 20.921 165.649 20.432 164.893 20.1059C164.137 19.7799 163.381 19.6712 162.517 19.6712C161.76 19.6712 161.004 19.8342 160.356 20.1603C159.708 20.4863 159.114 20.921 158.574 21.5188C158.088 22.1165 157.656 22.7686 157.386 23.5294C157.116 24.2901 156.954 25.1596 156.954 26.029V29.4525H157.116Z" fill="#452F6B" />
	<path d="M190.657 35.8102C191.575 35.4299 192.493 34.8864 193.411 34.1257L194.545 35.6472C193.627 36.3536 192.547 36.9514 191.251 37.5491C189.954 38.1469 188.442 38.4186 186.66 38.4186C185.094 38.4186 183.689 38.1469 182.447 37.6035C181.205 37.0601 180.125 36.2993 179.26 35.3755C178.396 34.4517 177.694 33.3106 177.208 32.0064C176.722 30.7022 176.506 29.3437 176.506 27.8222C176.506 26.4093 176.722 25.1051 177.154 23.8553C177.586 22.6054 178.234 21.5186 179.098 20.5948C179.963 19.671 181.043 18.9103 182.285 18.3669C183.527 17.8235 185.04 17.5518 186.66 17.5518C187.47 17.5518 188.28 17.6061 189.144 17.7691C190.009 17.9321 190.819 18.2038 191.575 18.5842C192.331 18.9646 192.979 19.4537 193.573 20.1058C194.167 20.7579 194.599 21.5186 194.815 22.4968H192.061C191.791 21.573 191.197 20.7579 190.279 20.1601C189.36 19.508 188.334 19.182 187.092 19.182C186.336 19.182 185.58 19.345 184.769 19.6167C183.959 19.9427 183.203 20.4318 182.501 21.0839C181.853 21.736 181.259 22.6598 180.827 23.8009C180.395 24.9421 180.179 26.3006 180.179 27.9308C180.179 29.5067 180.395 30.8109 180.773 31.8977C181.205 32.9845 181.745 33.854 182.393 34.5061C183.095 35.1582 183.851 35.6472 184.769 35.9189C185.634 36.1906 186.552 36.3537 187.524 36.3537C188.712 36.3537 189.738 36.1906 190.657 35.8102Z" fill="#452F6B" />
	<path d="M206.534 17.5518C208.479 17.5518 209.937 17.8235 211.017 18.3669C212.097 18.9103 212.853 19.6167 213.34 20.4862C213.826 21.3556 214.096 22.3881 214.204 23.5292C214.258 24.6704 214.312 25.8659 214.312 27.0614V37.9295H211.125V35.9733C210.369 36.734 209.397 37.3318 208.209 37.7665C207.02 38.2012 205.832 38.4186 204.644 38.4186C203.51 38.4186 202.483 38.2012 201.619 37.8208C200.755 37.4405 199.999 36.8971 199.459 36.245C198.865 35.5929 198.433 34.8864 198.163 34.0713C197.892 33.2562 197.73 32.4411 197.73 31.626C197.73 30.7566 197.892 29.9414 198.217 29.072C198.541 28.2025 199.027 27.4418 199.621 26.7897C200.269 26.1376 201.025 25.5398 201.943 25.1595C202.861 24.7247 203.942 24.5074 205.13 24.5074C206.318 24.5074 207.452 24.7247 208.533 25.2138C209.613 25.7029 210.477 26.355 211.179 27.1701V25.4312C211.179 23.2575 210.855 21.6273 210.207 20.5405C209.559 19.4537 208.371 18.9646 206.642 18.9646C205.886 18.9646 205.238 19.0733 204.698 19.2363C204.158 19.3993 203.618 19.671 203.186 19.9971C202.753 20.3231 202.321 20.7579 201.997 21.2469C201.619 21.736 201.241 22.2794 200.863 22.8771L198.757 20.9209C199.135 20.5405 199.513 20.1058 199.945 19.7254C200.377 19.345 200.863 18.9646 201.457 18.6386C202.051 18.3125 202.753 18.0408 203.564 17.8778C204.374 17.6604 205.4 17.5518 206.534 17.5518ZM211.125 30.0501C211.017 29.7241 210.801 29.3437 210.531 28.909C210.261 28.4742 209.937 28.0939 209.559 27.6591C209.181 27.2787 208.695 26.8984 208.101 26.6267C207.56 26.355 206.858 26.1919 206.102 26.1919C205.346 26.1919 204.644 26.355 203.996 26.6267C203.348 26.9527 202.807 27.3331 202.375 27.8222C201.943 28.3112 201.619 28.909 201.349 29.5611C201.133 30.2131 200.971 30.9196 200.971 31.626C200.971 32.4955 201.133 33.2019 201.403 33.854C201.727 34.5061 202.105 34.9951 202.591 35.4299C203.078 35.8646 203.618 36.1906 204.158 36.408C204.752 36.6254 205.292 36.734 205.832 36.734C206.318 36.734 206.858 36.6254 207.344 36.4623C207.884 36.2993 208.371 36.0276 208.803 35.7016C209.289 35.3755 209.667 34.9951 210.045 34.5061C210.423 34.0713 210.747 33.5823 210.963 33.0389V30.0501H211.125Z" fill="#452F6B" />
	<path d="M224.034 37.9298H220.686V17.9868H224.034V27.0617H234.08V17.9868H237.429V37.9298H234.08V28.4202H224.034V37.9298Z" fill="#452F6B" />
	<path d="M264.001 36.354V42.1141H261.247V37.9299H243.801V42.1141H241.047V36.354H243.909L251.309 17.9868H253.685L261.301 36.354H264.001ZM245.746 36.354H257.736L251.849 21.9537H251.633L245.746 36.354Z" fill="#452F6B" />
	<path d="M17.2833 28.3659C16.4731 29.5071 16.041 30.7026 16.041 32.0611C16.041 33.3109 16.3111 34.3977 16.7972 35.3215C17.2833 36.2453 17.9854 37.0604 18.7956 37.7669C19.6057 38.419 20.5239 38.908 21.5501 39.2884C22.5763 39.6144 23.5485 39.8318 24.5207 39.8318C24.7367 39.8318 25.1148 39.8318 25.6009 39.7775C26.087 39.7231 26.6811 39.6144 27.2752 39.5058C27.9233 39.3427 28.5715 39.1254 29.2196 38.8537C29.8677 38.5276 30.5699 38.1472 31.164 37.6038L21.7121 25.1055C19.6597 26.1379 18.1474 27.2248 17.2833 28.3659Z" fill="#452F6B" />
	<path d="M23.9815 21.6275C24.3595 21.4102 24.7916 21.1385 25.2777 20.7581C25.7638 20.3777 26.1959 19.943 26.574 19.4539C26.9521 18.9648 27.2761 18.3671 27.5462 17.7693C27.8162 17.1173 27.9242 16.4652 27.9242 15.7044C27.9242 15.324 27.8702 14.8893 27.7622 14.3459C27.6542 13.8568 27.4381 13.3677 27.1681 12.9874C26.898 12.5526 26.52 12.2266 26.0879 11.9005C25.6018 11.5745 25.0077 11.4658 24.3055 11.4658C23.6574 11.4658 23.0633 11.5745 22.6312 11.7919C22.1451 12.0092 21.767 12.3353 21.497 12.6613C21.1729 13.0417 20.9569 13.4221 20.8489 13.8568C20.6868 14.2915 20.6328 14.7806 20.6328 15.2153C20.6328 16.2478 20.9569 17.2803 21.605 18.3127C22.1991 19.3452 23.0093 20.432 23.9815 21.6275Z" fill="#452F6B" />
	<path d="M25.385 0.814941C11.3422 0.814941 0 12.2265 0 26.3551C0 40.4293 11.3422 51.8952 25.385 51.8952C39.3737 51.8952 50.7699 40.4837 50.7699 26.3551C50.7159 12.2265 39.3737 0.814941 25.385 0.814941ZM39.4277 29.1265C38.9416 30.4306 38.4555 31.5718 37.9154 32.5499C37.3753 33.5281 36.8352 34.3432 36.2951 34.9953C35.755 35.6473 35.3769 36.1364 35.1069 36.4081L39.2117 41.6248H34.4588L32.4063 38.9078C30.57 40.2663 28.9497 41.1358 27.4914 41.5161C26.0331 41.8965 24.6828 42.1139 23.4946 42.1139C21.6582 42.1139 20.0379 41.8422 18.6877 41.3531C17.2834 40.864 16.1492 40.212 15.177 39.3425C14.2588 38.5274 13.5026 37.5493 13.0706 36.5168C12.5845 35.4843 12.3684 34.3975 12.3684 33.3107C12.3684 32.1695 12.5845 31.1371 13.0166 30.1589C13.4486 29.1808 14.0428 28.3113 14.7989 27.4962C15.555 26.6811 16.4732 25.9204 17.4454 25.2139C18.4716 24.5618 19.5518 23.9097 20.7941 23.312C19.8219 21.9535 19.0117 20.7036 18.3636 19.5625C17.7155 18.4213 17.3374 17.2258 17.3374 15.976C17.3374 15.2152 17.4454 14.4545 17.7155 13.6393C17.9855 12.8242 18.3636 12.1178 18.9037 11.4657C19.4438 10.8136 20.1459 10.3246 21.0101 9.88984C21.8743 9.50946 22.9005 9.29209 24.0887 9.29209C25.0069 9.29209 25.8711 9.45511 26.6812 9.72682C27.4914 10.0529 28.1935 10.4876 28.7876 11.031C29.3818 11.6287 29.8679 12.2808 30.2459 13.0959C30.624 13.9111 30.786 14.7805 30.786 15.7586C30.786 17.0085 30.3539 18.2583 29.4898 19.5081C28.6256 20.7036 27.1673 21.8448 25.0609 22.8229L33.9727 34.6692C34.8908 33.4737 35.539 32.0609 36.0251 30.5393C36.5112 28.9634 36.7812 27.0072 36.8892 24.6162H40.3999C40.2379 26.3551 39.9138 27.8223 39.4277 29.1265Z" fill="#452F6B" />
</svg>