<svg width="100%" height="1005" viewBox="0 0 24 24" fill="none" 
	xmlns="http://www.w3.org/2000/svg">
	<path d="M8.21122 12.9078C7.84546 13.4229 7.65039 13.9627 7.65039 14.576C7.65039 15.1402 7.77231 15.6309 7.99176 16.048C8.21122 16.465 8.5282 16.833 8.89396 17.1519C9.25972 17.4463 9.67424 17.6671 10.1375 17.8388C10.6008 17.986 11.0397 18.0842 11.4786 18.0842C11.5762 18.0842 11.7469 18.0842 11.9663 18.0596C12.1858 18.0351 12.454 17.986 12.7222 17.937C13.0148 17.8634 13.3074 17.7652 13.6 17.6426C13.8926 17.4954 14.2096 17.3237 14.4778 17.0783L10.2107 11.4358C9.2841 11.9019 8.60136 12.3926 8.21122 12.9078Z" fill="white"/>
	<path d="M11.2344 9.8657C11.4051 9.76757 11.6002 9.64491 11.8197 9.47318C12.0391 9.30145 12.2342 9.10519 12.4049 8.88439C12.5756 8.6636 12.7219 8.39374 12.8438 8.12388C12.9657 7.82948 13.0145 7.53509 13.0145 7.19163C13.0145 7.0199 12.9901 6.82364 12.9413 6.57831C12.8925 6.35752 12.795 6.13672 12.6731 5.96499C12.5512 5.76873 12.3805 5.62153 12.1854 5.47434C11.966 5.32714 11.6977 5.27808 11.3807 5.27808C11.0881 5.27808 10.8199 5.32714 10.6249 5.42527C10.4054 5.5234 10.2347 5.6706 10.1128 5.8178C9.96649 5.98953 9.86896 6.16126 9.82019 6.35752C9.74704 6.55378 9.72266 6.77457 9.72266 6.97084C9.72266 7.43696 9.86896 7.90308 10.1616 8.3692C10.4298 8.83533 10.7955 9.32598 11.2344 9.8657Z" fill="white"/>
	<path d="M11.8686 0.469604C5.52879 0.469604 0.408203 5.62149 0.408203 12C0.408203 18.354 5.52879 23.5304 11.8686 23.5304C18.1839 23.5304 23.3289 18.3785 23.3289 12C23.3045 5.62149 18.1839 0.469604 11.8686 0.469604ZM18.2083 13.2512C17.9889 13.84 17.7694 14.3552 17.5256 14.7967C17.2817 15.2383 17.0379 15.6063 16.7941 15.9007C16.5502 16.1951 16.3795 16.4159 16.2576 16.5386L18.1108 18.8937H15.965L15.0384 17.6671C14.2094 18.2804 13.4779 18.6729 12.8195 18.8446C12.1612 19.0164 11.5516 19.1145 11.0151 19.1145C10.1861 19.1145 9.45457 18.9918 8.84497 18.771C8.211 18.5503 7.69894 18.2559 7.26003 17.8633C6.84551 17.4953 6.50414 17.0538 6.30907 16.5876C6.08961 16.1215 5.99208 15.6309 5.99208 15.1402C5.99208 14.625 6.08961 14.1589 6.28468 13.7173C6.47975 13.2757 6.74797 12.8832 7.08934 12.5152C7.43072 12.1472 7.84524 11.8037 8.28415 11.4848C8.74744 11.1904 9.23511 10.896 9.79594 10.6262C9.35703 10.0129 8.99128 9.4486 8.69867 8.93341C8.40607 8.41822 8.23538 7.8785 8.23538 7.31425C8.23538 6.97079 8.28415 6.62733 8.40607 6.25934C8.52798 5.89135 8.69867 5.57242 8.94251 5.27803C9.18635 4.98363 9.50333 4.76284 9.89347 4.56658C10.2836 4.39485 10.7469 4.29672 11.2833 4.29672C11.6979 4.29672 12.088 4.37031 12.4538 4.49298C12.8195 4.64017 13.1365 4.83644 13.4047 5.08176C13.673 5.35162 13.8924 5.64602 14.0631 6.01401C14.2338 6.382 14.3069 6.77453 14.3069 7.21612C14.3069 7.78037 14.1119 8.34462 13.7217 8.90888C13.3316 9.4486 12.6732 9.96379 11.7223 10.4054L15.7456 15.7535C16.1601 15.2138 16.4527 14.5759 16.6721 13.889C16.8916 13.1776 17.0135 12.2944 17.0623 11.215H18.6472C18.5741 12 18.4278 12.6624 18.2083 13.2512Z" fill="white"/>
</svg>
