<svg width="40" height="40" viewBox="0 0 45 45" fill="none" 
	xmlns="http://www.w3.org/2000/svg">
	<path d="M14.4297 23.1252C13.7533 24.078 13.3926 25.0761 13.3926 26.2103C13.3926 27.2538 13.618 28.1611 14.0239 28.9324C14.4297 29.7037 15.0159 30.3842 15.6923 30.974C16.3687 31.5184 17.1353 31.9268 17.9921 32.2443C18.8488 32.5166 19.6605 32.698 20.4722 32.698C20.6526 32.698 20.9682 32.698 21.3741 32.6527C21.7799 32.6073 22.2759 32.5165 22.772 32.4258C23.3131 32.2897 23.8542 32.1082 24.3953 31.8814C24.9364 31.6092 25.5226 31.2916 26.0187 30.8379L18.1274 20.4031C16.4138 21.2651 15.1512 22.1725 14.4297 23.1252Z" fill="#321D57"/>
	<path d="M20.0214 17.4993C20.337 17.3179 20.6978 17.091 21.1036 16.7734C21.5094 16.4559 21.8702 16.0929 22.1858 15.6846C22.5015 15.2763 22.772 14.7772 22.9975 14.2782C23.223 13.7337 23.3132 13.1893 23.3132 12.5541C23.3132 12.2366 23.2681 11.8736 23.1779 11.4199C23.0877 11.0116 22.9073 10.6033 22.6819 10.2857C22.4564 9.92276 22.1407 9.65054 21.78 9.37833C21.3742 9.10612 20.8781 9.01538 20.2919 9.01538C19.7508 9.01538 19.2548 9.10612 18.894 9.28759C18.4882 9.46907 18.1725 9.74128 17.9471 10.0135C17.6765 10.3311 17.4961 10.6487 17.406 11.0116C17.2707 11.3746 17.2256 11.7829 17.2256 12.1458C17.2256 13.0078 17.4961 13.8698 18.0373 14.7318C18.5333 15.5939 19.2097 16.5012 20.0214 17.4993Z" fill="#321D57"/>
	<path d="M21.1938 0.123047C9.46956 0.123047 0 9.65049 0 21.4464C0 33.1969 9.46956 42.7697 21.1938 42.7697C32.8729 42.7697 42.3876 33.2423 42.3876 21.4464C42.3425 9.65049 32.8729 0.123047 21.1938 0.123047ZM32.918 23.7602C32.5122 24.849 32.1063 25.8018 31.6554 26.6184C31.2045 27.4351 30.7535 28.1156 30.3026 28.66C29.8517 29.2044 29.536 29.6128 29.3106 29.8396L32.7376 34.195H28.7694L27.0559 31.9266C25.5227 33.0608 24.1699 33.7867 22.9524 34.1043C21.7349 34.4219 20.6076 34.6033 19.6155 34.6033C18.0824 34.6033 16.7296 34.3765 15.6022 33.9682C14.4298 33.5598 13.4829 33.0154 12.6712 32.2895C11.9046 31.609 11.2733 30.7923 10.9125 29.9303C10.5067 29.0683 10.3263 28.161 10.3263 27.2536C10.3263 26.3008 10.5067 25.4388 10.8675 24.6222C11.2282 23.8056 11.7242 23.0797 12.3555 22.3991C12.9868 21.7186 13.7534 21.0834 14.5651 20.4936C15.4219 19.9492 16.3237 19.4048 17.3609 18.9057C16.5492 17.7715 15.8728 16.728 15.3317 15.7753C14.7906 14.8225 14.4749 13.8244 14.4749 12.7809C14.4749 12.1458 14.5651 11.5106 14.7906 10.8301C15.016 10.1495 15.3317 9.55976 15.7826 9.01533C16.2335 8.4709 16.8198 8.06259 17.5412 7.69964C18.2627 7.38205 19.1195 7.20058 20.1116 7.20058C20.8781 7.20058 21.5996 7.33668 22.276 7.56353C22.9524 7.83574 23.5386 8.19869 24.0347 8.65238C24.5307 9.15144 24.9365 9.69586 25.2522 10.3764C25.5678 11.0569 25.7031 11.7828 25.7031 12.5995C25.7031 13.6429 25.3424 14.6864 24.6209 15.7299C23.8994 16.728 22.6819 17.6808 20.9232 18.4974L28.3636 28.3878C29.1302 27.3897 29.6713 26.2101 30.0771 24.9398C30.483 23.6241 30.7084 21.9908 30.7986 19.9946H33.7297C33.5944 21.4464 33.3238 22.6713 32.918 23.7602Z" fill="#321D57"/>
</svg>
