<svg width="100%" height="100%" viewBox="0 0 120 24" fill="none" 
	xmlns="http://www.w3.org/2000/svg">
	<path d="M30.9355 8.02563C31.8133 8.02563 32.4717 8.1483 32.9593 8.39363C33.447 8.63895 33.7884 8.95788 34.0078 9.3504C34.2273 9.74293 34.3492 10.2091 34.398 10.7242C34.4467 11.2394 34.4467 11.7791 34.4467 12.3189V17.2254H33.0081V16.3422C32.6667 16.6857 32.2278 16.9556 31.6914 17.1518C31.1549 17.3481 30.6185 17.4462 30.0821 17.4462C29.57 17.4462 29.1067 17.3481 28.7166 17.1764C28.3264 17.0046 27.9851 16.7593 27.7412 16.4649C27.473 16.1705 27.2779 15.8516 27.156 15.4836C27.0341 15.1156 26.9609 14.7476 26.9609 14.3796C26.9609 13.9871 27.0341 13.6191 27.1804 13.2266C27.3267 12.8341 27.5461 12.4906 27.8144 12.1962C28.107 11.9018 28.4483 11.632 28.8629 11.4602C29.2774 11.264 29.7651 11.1658 30.3015 11.1658C30.838 11.1658 31.35 11.264 31.8377 11.4848C32.3254 11.7056 32.7155 11.9999 33.0325 12.3679V11.5829C33.0325 10.6016 32.8862 9.86559 32.5936 9.37494C32.301 8.88428 31.7645 8.6635 30.9843 8.6635C30.6429 8.6635 30.3503 8.71255 30.1064 8.78615C29.8626 8.85975 29.6188 8.98241 29.4237 9.12961C29.2286 9.27681 29.0336 9.47307 28.8873 9.69386C28.7166 9.91466 28.5459 10.16 28.3752 10.4298L27.4486 9.4976C27.6193 9.32587 27.79 9.12961 27.9851 8.95788C28.1801 8.78615 28.3996 8.61443 28.6678 8.46723C28.936 8.32004 29.253 8.19736 29.6188 8.12377C29.9601 8.0747 30.399 8.02563 30.9355 8.02563ZM32.9837 13.6682C32.935 13.521 32.8374 13.3492 32.7155 13.153C32.5936 12.9567 32.4473 12.785 32.2766 12.5887C32.1059 12.417 31.8865 12.2453 31.6182 12.1226C31.3744 11.9999 31.0574 11.9263 30.716 11.9263C30.3747 11.9263 30.0577 11.9999 29.7651 12.1226C29.4725 12.2698 29.2286 12.4415 29.0336 12.6623C28.8385 12.8831 28.6922 13.153 28.5703 13.4474C28.4727 13.7418 28.3996 14.0607 28.3996 14.3796C28.3996 14.7721 28.4727 15.0911 28.5946 15.3855C28.7409 15.6799 28.9116 15.9007 29.1311 16.0969C29.3505 16.2932 29.5944 16.4404 29.8382 16.5385C30.1064 16.6366 30.3503 16.6857 30.5941 16.6857C30.8136 16.6857 31.0574 16.6366 31.2769 16.563C31.5207 16.4894 31.7402 16.3668 31.9352 16.2196C32.1547 16.0724 32.3254 15.9007 32.496 15.6799C32.6667 15.4836 32.813 15.2628 32.9106 15.0175V13.6682H32.9837Z" fill="white"/>
	<path d="M42.0293 15.1158H42.1269L45.248 8.24658H46.6379V17.2501H45.1261V10.1356H45.0529L41.7367 17.4709H41.566L38.0304 10.1356H37.9572V17.2501H37.3477V8.22205H38.7619L42.0293 15.1158Z" fill="white"/>
	<path d="M51.002 17.2256H49.4902V8.22205H56.7078V17.2256H55.196V8.95803H51.0264V17.2256H51.002Z" fill="white"/>
	<path d="M60.7078 13.1287C60.7078 13.8647 60.8054 14.4535 61.0248 14.9196C61.2443 15.3857 61.5125 15.7537 61.8295 16.0236C62.1465 16.2934 62.4878 16.4652 62.878 16.5633C63.2437 16.6614 63.6095 16.7105 63.9509 16.7105C64.2435 16.7105 64.5117 16.686 64.7555 16.6124C64.9994 16.5388 65.2432 16.4652 65.4627 16.3425C65.6821 16.2198 65.9016 16.0726 66.121 15.9009C66.3405 15.7292 66.5843 15.5329 66.8282 15.3121L67.389 15.9009C66.9013 16.4161 66.3405 16.7841 65.7065 17.0539C65.0725 17.3238 64.3654 17.471 63.5851 17.471C62.8048 17.471 62.1221 17.3483 61.5369 17.0539C60.9517 16.7841 60.4884 16.4161 60.0982 15.9745C59.7325 15.5329 59.4399 15.0177 59.2448 14.4535C59.0497 13.8892 58.9766 13.3004 58.9766 12.6871C58.9766 11.9757 59.0741 11.3133 59.2936 10.749C59.513 10.1848 59.8056 9.69411 60.1958 9.30159C60.5859 8.90907 61.0248 8.59014 61.5369 8.39388C62.0489 8.17308 62.6098 8.07495 63.2193 8.07495C63.7802 8.07495 64.341 8.17308 64.8531 8.36934C65.3651 8.56561 65.8284 8.86 66.1942 9.22799C66.5843 9.62052 66.8769 10.0866 67.1208 10.6754C67.3402 11.2642 67.4621 11.9511 67.4621 12.7607V13.1287H60.7078ZM65.926 12.3927C65.926 11.2397 65.6821 10.3074 65.2188 9.64505C64.7555 8.98266 64.0972 8.6392 63.2437 8.6392C62.8048 8.6392 62.4147 8.73734 62.0977 8.95813C61.7807 9.17893 61.5125 9.44879 61.3174 9.79224C61.098 10.1357 60.9517 10.5282 60.8541 10.9944C60.7566 11.4359 60.7078 11.9021 60.7078 12.3927H65.926Z" fill="white"/>
	<path d="M69.8271 8.22202H71.3389V9.66945H71.4121C71.851 8.56547 72.7776 8.00122 74.1918 8.00122C74.777 8.00122 75.3378 8.12388 75.8499 8.34468C76.362 8.56547 76.7765 8.8844 77.1422 9.30146C77.508 9.71851 77.8006 10.2092 77.9957 10.798C78.1907 11.3867 78.2883 12.0246 78.2883 12.736C78.2883 13.4475 78.1907 14.0853 77.9957 14.6741C77.8006 15.2629 77.508 15.7536 77.1422 16.1706C76.7765 16.5877 76.3376 16.8821 75.8499 17.1274C75.3378 17.3482 74.8014 17.4709 74.1918 17.4709C73.8992 17.4709 73.631 17.4463 73.3384 17.3727C73.0458 17.3237 72.8019 17.2255 72.5337 17.0783C72.2899 16.9557 72.0704 16.784 71.851 16.5632C71.6559 16.3424 71.4852 16.0725 71.3877 15.7781H71.3145V21.7641H69.8027V8.22202H69.8271ZM71.3389 13.3984C71.3389 13.8891 71.4121 14.3307 71.534 14.7232C71.6803 15.1157 71.851 15.4346 72.0704 15.7045C72.2899 15.9744 72.5581 16.1706 72.8507 16.3178C73.1433 16.465 73.4603 16.5141 73.8017 16.5141C74.1674 16.5141 74.5332 16.4405 74.8502 16.3178C75.1915 16.1706 75.4841 15.9498 75.728 15.6554C75.9962 15.3611 76.1913 14.9685 76.3376 14.4779C76.4839 13.9872 76.557 13.423 76.557 12.736C76.557 12.0737 76.4839 11.4849 76.3376 11.0188C76.1913 10.5281 75.9962 10.1601 75.728 9.84118C75.4841 9.54678 75.1915 9.32599 74.8502 9.17879C74.5088 9.0316 74.1674 8.98253 73.7773 8.98253C73.4359 8.98253 73.0945 9.05613 72.8019 9.20333C72.5093 9.35052 72.2411 9.54678 71.9973 9.81664C71.7778 10.0865 71.5827 10.3809 71.4608 10.7244C71.3389 11.0678 71.2658 11.4603 71.2658 11.8529V13.3984H71.3389Z" fill="white"/>
	<path d="M86.4803 16.2686C86.8949 16.0969 87.3094 15.8516 87.7239 15.5081L88.236 16.195C87.8214 16.514 87.3338 16.7838 86.7486 17.0537C86.1633 17.3236 85.4806 17.4462 84.6759 17.4462C83.9688 17.4462 83.3348 17.3236 82.774 17.0782C82.2132 16.8329 81.7255 16.4894 81.3354 16.0724C80.9452 15.6553 80.6282 15.1401 80.4088 14.5514C80.1893 13.9626 80.0918 13.3492 80.0918 12.6623C80.0918 12.0245 80.1893 11.4357 80.3844 10.8714C80.5795 10.3072 80.8721 9.81654 81.2622 9.39948C81.6524 8.98242 82.14 8.63895 82.7009 8.39363C83.2617 8.1483 83.9444 8.02563 84.6759 8.02563C85.0417 8.02563 85.4074 8.05017 85.7976 8.12377C86.1877 8.19736 86.5535 8.32004 86.8949 8.49177C87.2362 8.6635 87.5288 8.88429 87.797 9.17869C88.0653 9.47308 88.2603 9.81653 88.3579 10.2581H87.1143C86.9924 9.84106 86.7242 9.47307 86.3096 9.20321C85.8951 8.90881 85.4318 8.76162 84.871 8.76162C84.5296 8.76162 84.1883 8.83522 83.8225 8.95788C83.4568 9.10508 83.1154 9.32588 82.7984 9.62027C82.5058 9.91467 82.2376 10.3317 82.0425 10.8469C81.8474 11.3621 81.7499 11.9754 81.7499 12.7114C81.7499 13.4228 81.8474 14.0116 82.0181 14.5023C82.2132 14.9929 82.457 15.3855 82.7496 15.6799C83.0666 15.9743 83.408 16.195 83.8225 16.3177C84.2126 16.4404 84.6272 16.514 85.0661 16.514C85.6025 16.514 86.0658 16.4404 86.4803 16.2686Z" fill="white"/>
	<path d="M93.6484 8.02563C94.5262 8.02563 95.1846 8.1483 95.6722 8.39363C96.1599 8.63895 96.5013 8.95788 96.7207 9.3504C96.9402 9.74293 97.0621 10.2091 97.1109 10.7242C97.1353 11.2394 97.1596 11.7791 97.1596 12.3189V17.2254H95.721V16.3422C95.3796 16.6857 94.9407 16.9556 94.4043 17.1518C93.8678 17.3481 93.3314 17.4462 92.7949 17.4462C92.2829 17.4462 91.8196 17.3481 91.4295 17.1764C91.0393 17.0046 90.6979 16.7593 90.4541 16.4649C90.1859 16.1705 89.9908 15.8516 89.8689 15.4836C89.747 15.1156 89.6738 14.7476 89.6738 14.3796C89.6738 13.9871 89.747 13.6191 89.8933 13.2266C90.0396 12.8341 90.259 12.4906 90.5273 12.1962C90.8199 11.9018 91.1612 11.632 91.5758 11.4602C91.9903 11.264 92.478 11.1658 93.0144 11.1658C93.5508 11.1658 94.0629 11.264 94.5506 11.4848C95.0383 11.7056 95.4284 11.9999 95.7454 12.3679V11.5829C95.7454 10.6016 95.5991 9.86559 95.3065 9.37494C95.0139 8.88428 94.4774 8.6635 93.6971 8.6635C93.3558 8.6635 93.0632 8.71255 92.8193 8.78615C92.5755 8.85975 92.3317 8.98241 92.1366 9.12961C91.9415 9.27681 91.7464 9.47307 91.6001 9.69386C91.4295 9.91466 91.2588 10.16 91.0881 10.4298L90.1371 9.54667C90.3078 9.37494 90.4785 9.17869 90.6736 9.00696C90.8686 8.83523 91.0881 8.66349 91.3563 8.51629C91.6245 8.36909 91.9415 8.24643 92.3073 8.17283C92.673 8.0747 93.1363 8.02563 93.6484 8.02563ZM95.721 13.6682C95.6722 13.521 95.5747 13.3492 95.4528 13.153C95.3309 12.9567 95.1846 12.785 95.0139 12.5887C94.8432 12.417 94.6237 12.2453 94.3555 12.1226C94.1117 11.9999 93.7947 11.9263 93.4533 11.9263C93.1119 11.9263 92.7949 11.9999 92.5023 12.1226C92.2097 12.2698 91.9659 12.4415 91.7708 12.6623C91.5758 12.8831 91.4295 13.153 91.3075 13.4474C91.21 13.7418 91.1369 14.0607 91.1369 14.3796C91.1369 14.7721 91.21 15.0911 91.3319 15.3855C91.4782 15.6799 91.6489 15.9007 91.8684 16.0969C92.0878 16.2932 92.3317 16.4404 92.5755 16.5385C92.8437 16.6366 93.0876 16.6857 93.3314 16.6857C93.5508 16.6857 93.7947 16.6366 94.0141 16.563C94.258 16.4894 94.4774 16.3668 94.6725 16.2196C94.892 16.0724 95.0626 15.9007 95.2333 15.6799C95.404 15.4836 95.5503 15.2628 95.6478 15.0175V13.6682H95.721Z" fill="white"/>
	<path d="M101.549 17.2256H100.037V8.22205H101.549V12.319H106.084V8.22205H107.596V17.2256H106.084V12.9323H101.549V17.2256Z" fill="white"/>
	<path d="M119.592 16.5141V19.1146H118.348V17.2256H110.472V19.1146H109.229V16.5141H110.521L113.861 8.22205H114.934L118.372 16.5141H119.592ZM111.35 16.5141H116.763L114.105 10.0129H114.008L111.35 16.5141Z" fill="white"/>
	<path d="M8.21122 12.9078C7.84546 13.4229 7.65039 13.9627 7.65039 14.576C7.65039 15.1402 7.77231 15.6309 7.99176 16.048C8.21122 16.465 8.5282 16.833 8.89396 17.1519C9.25972 17.4463 9.67424 17.6671 10.1375 17.8388C10.6008 17.986 11.0397 18.0842 11.4786 18.0842C11.5762 18.0842 11.7469 18.0842 11.9663 18.0596C12.1858 18.0351 12.454 17.986 12.7222 17.937C13.0148 17.8634 13.3074 17.7652 13.6 17.6426C13.8926 17.4954 14.2096 17.3237 14.4778 17.0783L10.2107 11.4358C9.2841 11.9019 8.60136 12.3926 8.21122 12.9078Z" fill="white"/>
	<path d="M11.2344 9.8657C11.4051 9.76757 11.6002 9.64491 11.8197 9.47318C12.0391 9.30145 12.2342 9.10519 12.4049 8.88439C12.5756 8.6636 12.7219 8.39374 12.8438 8.12388C12.9657 7.82948 13.0145 7.53509 13.0145 7.19163C13.0145 7.0199 12.9901 6.82364 12.9413 6.57831C12.8925 6.35752 12.795 6.13672 12.6731 5.96499C12.5512 5.76873 12.3805 5.62153 12.1854 5.47434C11.966 5.32714 11.6977 5.27808 11.3807 5.27808C11.0881 5.27808 10.8199 5.32714 10.6249 5.42527C10.4054 5.5234 10.2347 5.6706 10.1128 5.8178C9.96649 5.98953 9.86896 6.16126 9.82019 6.35752C9.74704 6.55378 9.72266 6.77457 9.72266 6.97084C9.72266 7.43696 9.86896 7.90308 10.1616 8.3692C10.4298 8.83533 10.7955 9.32598 11.2344 9.8657Z" fill="white"/>
	<path d="M11.8686 0.469604C5.52879 0.469604 0.408203 5.62149 0.408203 12C0.408203 18.354 5.52879 23.5304 11.8686 23.5304C18.1839 23.5304 23.3289 18.3785 23.3289 12C23.3045 5.62149 18.1839 0.469604 11.8686 0.469604ZM18.2083 13.2512C17.9889 13.84 17.7694 14.3552 17.5256 14.7967C17.2817 15.2383 17.0379 15.6063 16.7941 15.9007C16.5502 16.1951 16.3795 16.4159 16.2576 16.5386L18.1108 18.8937H15.965L15.0384 17.6671C14.2094 18.2804 13.4779 18.6729 12.8195 18.8446C12.1612 19.0164 11.5516 19.1145 11.0151 19.1145C10.1861 19.1145 9.45457 18.9918 8.84497 18.771C8.211 18.5503 7.69894 18.2559 7.26003 17.8633C6.84551 17.4953 6.50414 17.0538 6.30907 16.5876C6.08961 16.1215 5.99208 15.6309 5.99208 15.1402C5.99208 14.625 6.08961 14.1589 6.28468 13.7173C6.47975 13.2757 6.74797 12.8832 7.08934 12.5152C7.43072 12.1472 7.84524 11.8037 8.28415 11.4848C8.74744 11.1904 9.23511 10.896 9.79594 10.6262C9.35703 10.0129 8.99128 9.4486 8.69867 8.93341C8.40607 8.41822 8.23538 7.8785 8.23538 7.31425C8.23538 6.97079 8.28415 6.62733 8.40607 6.25934C8.52798 5.89135 8.69867 5.57242 8.94251 5.27803C9.18635 4.98363 9.50333 4.76284 9.89347 4.56658C10.2836 4.39485 10.7469 4.29672 11.2833 4.29672C11.6979 4.29672 12.088 4.37031 12.4538 4.49298C12.8195 4.64017 13.1365 4.83644 13.4047 5.08176C13.673 5.35162 13.8924 5.64602 14.0631 6.01401C14.2338 6.382 14.3069 6.77453 14.3069 7.21612C14.3069 7.78037 14.1119 8.34462 13.7217 8.90888C13.3316 9.4486 12.6732 9.96379 11.7223 10.4054L15.7456 15.7535C16.1601 15.2138 16.4527 14.5759 16.6721 13.889C16.8916 13.1776 17.0135 12.2944 17.0623 11.215H18.6472C18.5741 12 18.4278 12.6624 18.2083 13.2512Z" fill="white"/>
</svg>
